<svg xmlns="http://www.w3.org/2000/svg" width="128" height="50" viewBox="0 0 128 50" fill="none">
	<rect x="1" y="1" width="126" height="48" rx="11" fill="#1D1D1B"/>
	<rect x="1" y="1" width="126" height="48" rx="11" fill="url(#paint0_angular_8494_82827)" fill-opacity="0.3"/>
	<path d="M28.5035 30.7462H16V26.0761H28.5035V30.7462Z" fill="white"/>
	<path d="M42.5067 40.5939H37.3853V17.8934H31.1635V14.6853C33.0707 14.5905 34.6578 14.0288 35.9248 13C37.2052 11.9577 38.0254 10.7597 38.3855 9.40609H42.5067V40.5939Z" fill="white"/>
	<path d="M73.0145 24.9188C73.0145 29.9272 71.9743 33.8663 69.8937 36.736C67.8264 39.5787 65.0656 41 61.6113 41C58.1303 41 55.3562 39.5719 53.289 36.7157C51.2217 33.8596 50.1881 29.9272 50.1881 24.9188C50.1881 19.9509 51.2217 16.0592 53.289 13.2437C55.3562 10.4146 58.1303 9 61.6113 9C65.0523 9 67.8131 10.3942 69.8937 13.1827C71.9743 16.0118 73.0145 19.9239 73.0145 24.9188ZM61.6113 36.1472C62.6783 36.1472 63.6052 35.8765 64.3921 35.335C65.179 34.7936 65.8058 34.022 66.2726 33.0203C66.7528 32.0186 67.1062 30.8477 67.3329 29.5076C67.5597 28.154 67.673 26.6244 67.673 24.9188C67.673 22.6853 67.473 20.7631 67.0729 19.1523C66.6728 17.5415 66.0059 16.2555 65.0723 15.2944C64.152 14.3333 62.9984 13.8528 61.6113 13.8528C60.5443 13.8528 59.6108 14.1235 58.8105 14.665C58.0236 15.2064 57.3901 15.978 56.91 16.9797C56.4299 17.9679 56.0764 19.1252 55.8497 20.4518C55.623 21.7648 55.5096 23.2538 55.5096 24.9188C55.5096 26.6244 55.623 28.1472 55.8497 29.4873C56.0764 30.8274 56.4232 32.0051 56.89 33.0203C57.3701 34.0355 58.0036 34.8139 58.7905 35.3553C59.5907 35.8832 60.531 36.1472 61.6113 36.1472Z" fill="white"/>
	<path d="M84.508 10.4873C86.8025 10.4873 88.5369 11.3051 89.7114 12.9407C90.9133 14.5486 91.5142 16.8219 91.5142 19.7604C91.5142 22.699 90.9542 25 89.8344 26.6634C88.7145 28.299 86.939 29.1168 84.508 29.1168C83.0058 29.1168 81.7356 28.7425 80.6977 27.994C79.6871 27.2455 78.9222 26.1782 78.4033 24.7921C77.8843 23.3782 77.6248 21.701 77.6248 19.7604C77.6248 16.8219 78.1711 14.5486 79.2637 12.9407C80.3563 11.3051 82.1044 10.4873 84.508 10.4873ZM84.549 14.7288C83.8935 14.7288 83.4155 15.1446 83.115 15.9763C82.8146 16.808 82.6643 18.0832 82.6643 19.802C82.6643 21.4931 82.8146 22.7683 83.115 23.6277C83.4155 24.4871 83.8935 24.9168 84.549 24.9168C85.2046 24.9168 85.6826 24.4871 85.983 23.6277C86.3108 22.7683 86.4747 21.4931 86.4747 19.802C86.4747 18.0832 86.3108 16.808 85.983 15.9763C85.6826 15.1446 85.2046 14.7288 84.549 14.7288ZM105.281 10.9031L89.0559 40.5939H84.2622L100.487 10.9031H105.281ZM104.994 22.3386C106.523 22.3386 107.807 22.7129 108.845 23.4614C109.883 24.1822 110.662 25.2356 111.181 26.6218C111.727 27.9802 112 29.6435 112 31.6118C112 34.5504 111.44 36.8514 110.32 38.5147C109.2 40.1504 107.425 40.9682 104.994 40.9682C103.492 40.9682 102.221 40.5939 101.183 39.8454C100.173 39.0969 99.4081 38.0296 98.8891 36.6434C98.3701 35.2296 98.1106 33.5524 98.1106 31.6118C98.1106 28.6732 98.6569 26.4 99.7495 24.7921C100.842 23.1565 102.59 22.3386 104.994 22.3386ZM105.035 26.5802C104.379 26.5802 103.901 26.996 103.601 27.8277C103.3 28.6594 103.15 29.9346 103.15 31.6534C103.15 33.3445 103.3 34.6197 103.601 35.4791C103.901 36.3385 104.379 36.7682 105.035 36.7682C105.69 36.7682 106.168 36.3524 106.469 35.5207C106.797 34.6613 106.96 33.3722 106.96 31.6534C106.96 29.9346 106.797 28.6594 106.469 27.8277C106.168 26.996 105.69 26.5802 105.035 26.5802Z" fill="white"/>
	<rect x="1" y="1" width="126" height="48" rx="11" stroke="url(#paint1_angular_8494_82827)" stroke-width="2"/>
	<defs>
		<radialGradient id="paint0_angular_8494_82827" cx="0" cy="0" r="1" gradientUnits="userSpaceOnUse" gradientTransform="translate(64 25) rotate(80.6953) scale(25.3333 67.1053)">
			<stop stop-color="#E77282"/>
			<stop offset="0.354065" stop-color="#7C137C"/>
			<stop offset="0.61574" stop-color="#1B646B"/>
			<stop offset="0.885417" stop-color="#901E7E"/>
		</radialGradient>
		<radialGradient id="paint1_angular_8494_82827" cx="0" cy="0" r="1" gradientUnits="userSpaceOnUse" gradientTransform="translate(64 25) rotate(77.3043) scale(25.6265 89.3605)">
			<stop offset="0.354065" stop-color="#7C137C"/>
			<stop offset="0.61574" stop-color="#1B646B"/>
			<stop offset="0.885417" stop-color="#901E7E"/>
			<stop offset="0.999133" stop-color="#E77282"/>
		</radialGradient>
	</defs>
</svg>
