<svg width="50" height="50" viewBox="0 0 50 50" fill="none" xmlns="http://www.w3.org/2000/svg">
<g id="icon-1">
<path id="Subtract" fill-rule="evenodd" clip-rule="evenodd" d="M8 0C3.58172 0 0 3.58172 0 8V42C0 46.4183 3.58172 50 8 50H42C46.4183 50 50 46.4183 50 42V8C50 3.58172 46.4183 0 42 0H8ZM23.3519 12.0034C23.7338 11.6239 24.3533 11.6239 24.7354 12.0034L27.9968 15.2425C28.1803 15.4248 28.2834 15.672 28.2834 15.9297C28.2834 16.1874 28.1803 16.4346 27.9968 16.6169L24.7354 19.8562C24.3533 20.2357 23.734 20.2357 23.3519 19.8562C22.9698 19.4767 22.9698 18.8614 23.3519 18.4819L24.9425 16.902C19.5755 16.9445 15.2381 21.2789 15.2381 26.6197C15.2381 31.9867 19.6185 36.3377 25.0221 36.3377C30.1242 36.3377 34.315 32.458 34.7659 27.5074C34.8145 26.9729 35.2903 26.5787 35.8284 26.6271C36.3665 26.6754 36.7634 27.1479 36.7147 27.6824C36.1736 33.6254 31.1458 38.2812 25.0221 38.2812C18.5378 38.2812 13.2812 33.0602 13.2812 26.6197C13.2812 20.2053 18.4952 15.0004 24.9433 14.9583L23.3519 13.3777C22.9698 12.9982 22.9698 12.3829 23.3519 12.0034ZM29.958 24.3914C30.3401 24.0119 30.3401 23.3967 29.958 23.0171C29.5759 22.6376 28.9564 22.6376 28.5743 23.0171L23.3914 28.1652L21.4741 26.2609C21.0921 25.8814 20.4726 25.8814 20.0905 26.2609C19.7084 26.6404 19.7084 27.2557 20.0905 27.6353L22.6996 30.2267C22.883 30.4089 23.1319 30.5114 23.3914 30.5113C23.6509 30.5113 23.8998 30.4089 24.0832 30.2267L29.958 24.3914Z" fill="white"/>
</g>
</svg>
