<svg width="50" height="50" viewBox="0 0 50 50" fill="none" xmlns="http://www.w3.org/2000/svg">
<g id="icon-2">
<path id="Subtract" fill-rule="evenodd" clip-rule="evenodd" d="M8 0C3.58172 0 0 3.58172 0 8V42C0 46.4183 3.58172 50 8 50H42C46.4183 50 50 46.4183 50 42V8C50 3.58172 46.4183 0 42 0H8ZM19.5312 13.7109C17.7334 13.7109 16.276 15.1975 16.276 17.0312C16.276 18.865 17.7334 20.3516 19.5312 20.3516C21.3291 20.3516 22.7865 18.865 22.7865 17.0312C22.7865 15.1975 21.3291 13.7109 19.5312 13.7109ZM14.3229 17.0312C14.3229 14.0972 16.6548 11.7188 19.5312 11.7188C22.4077 11.7188 24.7396 14.0972 24.7396 17.0312C24.7396 19.9653 22.4077 22.3438 19.5312 22.3438C16.6548 22.3438 14.3229 19.9653 14.3229 17.0312ZM31.25 16.3672C30.1714 16.3672 29.2969 17.2591 29.2969 18.3594C29.2969 19.4596 30.1714 20.3516 31.25 20.3516C32.3286 20.3516 33.2031 19.4596 33.2031 18.3594C33.2031 17.2591 32.3286 16.3672 31.25 16.3672ZM27.3438 18.3594C27.3438 16.1589 29.0926 14.375 31.25 14.375C33.4074 14.375 35.1562 16.1589 35.1562 18.3594C35.1562 20.5599 33.4074 22.3438 31.25 22.3438C29.0926 22.3438 27.3438 20.5599 27.3438 18.3594ZM11.7188 27.9883C11.7188 26.338 13.0304 25 14.6484 25H24.4141C24.8259 25 25.218 25.0867 25.5736 25.2432C25.1126 25.772 24.7145 26.3591 24.3909 26.9922H14.6484C14.1091 26.9922 13.6719 27.4382 13.6719 27.9883V28.3133L13.6725 28.3299C13.6734 28.3498 13.6755 28.3858 13.6804 28.4352C13.6901 28.5344 13.7105 28.6859 13.7531 28.8721C13.8388 29.2465 14.01 29.7442 14.3498 30.2393C14.9926 31.1759 16.3779 32.3047 19.5312 32.3047C21.3707 32.3047 22.6085 31.9206 23.4482 31.4147C23.4831 32.1267 23.6026 32.8161 23.7966 33.4725C22.7098 33.9779 21.3138 34.2969 19.5312 34.2969C15.8487 34.2969 13.816 32.9354 12.7498 31.3818C12.2351 30.6318 11.9791 29.8843 11.8511 29.3249C11.7869 29.0441 11.7539 28.8065 11.737 28.6335C11.7285 28.5468 11.7239 28.4756 11.7215 28.4227C11.7203 28.3961 11.7196 28.3742 11.7192 28.3571L11.7188 28.3351L11.7188 28.3267L11.7188 28.3232V28.3218V27.9883ZM31.901 38.2812C35.8563 38.2812 39.0625 35.0109 39.0625 30.9766C39.0625 26.9422 35.8563 23.6719 31.901 23.6719C27.9458 23.6719 24.7396 26.9422 24.7396 30.9766C24.7396 35.0109 27.9458 38.2812 31.901 38.2812ZM35.3469 27.8507C35.6012 27.5914 36.0134 27.5914 36.2677 27.8507C36.5219 28.1101 36.5219 28.5306 36.2677 28.7899L31.0594 34.1024C30.8051 34.3617 30.3928 34.3617 30.1385 34.1024L27.5344 31.4462C27.2802 31.1868 27.2802 30.7663 27.5344 30.5069C27.7887 30.2477 28.2009 30.2477 28.4552 30.5069L30.599 32.6937L35.3469 27.8507Z" fill="white"/>
</g>
</svg>
