<svg width="50" height="50" viewBox="0 0 50 50" fill="none" xmlns="http://www.w3.org/2000/svg">
<g id="icon-3">
<path id="Subtract" fill-rule="evenodd" clip-rule="evenodd" d="M8 0C3.58172 0 0 3.58172 0 8V42C0 46.4183 3.58172 50 8 50H42C46.4183 50 50 46.4183 50 42V8C50 3.58172 46.4183 0 42 0H8ZM39.0625 30.9766C39.0625 26.9422 35.8563 23.6719 31.901 23.6719C27.9458 23.6719 24.7396 26.9422 24.7396 30.9766C24.7396 35.0109 27.9458 38.2812 31.901 38.2812C35.8563 38.2812 39.0625 35.0109 39.0625 30.9766ZM31.784 26.3378L31.901 26.3271L32.0181 26.3378C32.2839 26.387 32.4934 26.6008 32.5415 26.8719L32.5521 26.9911L32.5516 30.3114L35.8133 30.3125L35.9302 30.3233C36.196 30.3724 36.4056 30.5861 36.4538 30.8572L36.4643 30.9766L36.4538 31.096C36.4056 31.367 36.196 31.5807 35.9302 31.6299L35.8133 31.6406L32.553 31.6396L32.5535 34.9656L32.5431 35.085C32.4948 35.3561 32.2853 35.5697 32.0195 35.6189L31.9025 35.6297L31.7854 35.6189C31.5197 35.5697 31.3102 35.3561 31.262 35.085L31.2514 34.9656L31.2509 31.6396L27.9918 31.6406L27.8747 31.6299C27.609 31.5807 27.3993 31.367 27.3512 31.096L27.3408 30.9766L27.3512 30.8572C27.3993 30.5861 27.609 30.3724 27.8747 30.3233L27.9918 30.3125L31.2495 30.3114L31.25 26.9911L31.2605 26.8719C31.3087 26.6008 31.5182 26.387 31.784 26.3378ZM30.2154 22.5153C29.7096 21.6191 28.7612 21.0156 27.6745 21.0156H21.8124C20.1944 21.0156 18.8827 22.3536 18.8827 24.0039V29.6471C18.8827 32.9486 21.5067 35.625 24.7435 35.625L24.769 35.6266C24.3616 34.9779 24.037 34.27 23.812 33.5189C22.1036 33.0928 20.8358 31.521 20.8358 29.6471V24.0039C20.8358 23.4538 21.2731 23.0078 21.8124 23.0078H27.6745C27.8846 23.0078 28.0793 23.0755 28.2376 23.1922C28.8582 22.8877 29.5208 22.6583 30.2154 22.5153ZM17.6938 23.0082C17.8701 22.2463 18.2445 21.5623 18.7584 21.016L14.6484 21.0156L14.4479 21.0225C12.9234 21.1277 11.7188 22.4222 11.7188 24.0039V27.6547C11.7188 30.5895 14.0513 32.9688 16.9287 32.9688C17.3945 32.9688 17.8461 32.9063 18.2746 32.7881C17.9968 32.1941 17.7954 31.5558 17.6851 30.8865C17.4424 30.9454 17.1891 30.9766 16.9287 30.9766C15.13 30.9766 13.6719 29.4893 13.6719 27.6547V24.0039C13.6719 23.4538 14.1091 23.0078 14.6484 23.0078L17.6938 23.0082ZM37.7604 24.0039C37.7604 22.3536 36.4487 21.0156 34.8307 21.0156L30.7285 21.016C31.0895 21.3997 31.3815 21.8511 31.5818 22.3497L31.901 22.3438C34.1757 22.3438 36.2406 23.259 37.7615 24.7482L37.7604 24.0039ZM36.4583 16.3672C36.4583 14.5334 35.0009 13.0469 33.2031 13.0469C31.4053 13.0469 29.9479 14.5334 29.9479 16.3672C29.9479 18.2009 31.4053 19.6875 33.2031 19.6875C35.0009 19.6875 36.4583 18.2009 36.4583 16.3672ZM28.6458 15.7031C28.6458 13.5026 26.897 11.7188 24.7396 11.7188C22.5822 11.7188 20.8333 13.5026 20.8333 15.7031C20.8333 17.9036 22.5822 19.6875 24.7396 19.6875C26.897 19.6875 28.6458 17.9036 28.6458 15.7031ZM19.5312 16.3672C19.5312 14.5334 18.0738 13.0469 16.276 13.0469C14.4782 13.0469 13.0208 14.5334 13.0208 16.3672C13.0208 18.2009 14.4782 19.6875 16.276 19.6875C18.0738 19.6875 19.5312 18.2009 19.5312 16.3672ZM31.901 16.3672C31.901 15.6337 32.484 15.0391 33.2031 15.0391C33.9223 15.0391 34.5052 15.6337 34.5052 16.3672C34.5052 17.1007 33.9223 17.6953 33.2031 17.6953C32.484 17.6953 31.901 17.1007 31.901 16.3672ZM22.7865 15.7031C22.7865 14.6029 23.6609 13.7109 24.7396 13.7109C25.8182 13.7109 26.6927 14.6029 26.6927 15.7031C26.6927 16.8034 25.8182 17.6953 24.7396 17.6953C23.6609 17.6953 22.7865 16.8034 22.7865 15.7031ZM14.974 16.3672C14.974 15.6337 15.5569 15.0391 16.276 15.0391C16.9952 15.0391 17.5781 15.6337 17.5781 16.3672C17.5781 17.1007 16.9952 17.6953 16.276 17.6953C15.5569 17.6953 14.974 17.1007 14.974 16.3672Z" fill="white"/>
</g>
</svg>
