<svg xmlns="http://www.w3.org/2000/svg" width="245" height="56" viewBox="0 0 245 56" fill="none">
	<g opacity="0.3">
		<path fill-rule="evenodd" clip-rule="evenodd" d="M96.1127 26.4651C94.1641 26.4651 92.5823 28.0455 92.5823 29.9927C92.5823 31.9442 94.1641 33.5231 96.1127 33.5231C98.0627 33.5231 99.6424 31.9442 99.6424 29.9927C99.6424 28.0455 98.0627 26.4651 96.1127 26.4651ZM239.756 23.8748C242.071 23.8748 243.764 25.1703 244.873 26.4651V20.2098C243.055 18.977 240.864 18.4834 238.959 18.4834C233.108 18.4834 228.023 22.6733 228.023 29.8816C228.023 36.7836 232.644 41.2826 239.05 41.2826C240.898 41.2826 242.931 41.0027 244.873 39.6802V33.5452C243.764 34.6876 242.01 35.8905 239.756 35.8905C236.308 35.8905 234.243 33.3344 234.243 30.0668C234.243 26.5235 236.431 23.8748 239.756 23.8748ZM228.685 19.1009H221.599L215.097 28.1566V19.1009H209.061L209.063 40.6659H215.097V31.3908L221.349 40.6659H228.901L220.489 29.5433L228.685 19.1009ZM191.231 32.0403V19.1009H185.409V40.6659H191.324L199.673 27.7257V40.6659H205.495V19.1009H199.579L191.231 32.0403ZM173.735 28.8033H172.013V23.8456H173.735C176.323 23.8456 176.691 25.2302 176.691 26.3092C176.691 27.2329 176.415 28.8033 173.735 28.8033ZM175.058 19.1009H165.972V40.6659H172.013V33.5452H175.058C181.16 33.5452 182.916 29.299 182.916 26.3092C182.916 23.3506 181.19 19.1009 175.058 19.1009ZM147.983 24.2744H152.724V40.6659H158.764V24.2744H163.507V19.1009H147.983V24.2744ZM131.252 32.0403V19.1009H125.432V40.6659H131.348L139.693 27.7257V40.6659H145.517V19.1009H139.603L131.252 32.0403ZM113.263 36.3499H110.676V31.8231H113.263C115.174 31.8231 116.283 32.3786 116.283 34.0744C116.283 35.7979 115.144 36.3499 113.263 36.3499ZM113.85 27.5099H110.676V24.2744H120.564V19.1009H104.639L104.638 40.6659L113.85 40.6659C115.419 40.6659 122.321 40.7257 122.321 33.9811C122.321 27.4793 115.482 27.5099 113.85 27.5099ZM70.8442 29.8816C70.8442 36.7836 75.465 41.2826 81.8721 41.2826C83.7224 41.2826 85.755 41.0027 87.6965 39.6802V33.5452C86.5841 34.6876 84.8285 35.8905 82.5807 35.8905C79.1294 35.8905 77.0668 33.3344 77.0668 30.0668C77.0668 26.5235 79.2533 23.8748 82.5807 23.8748C84.8904 23.8748 86.5841 25.1703 87.6965 26.4651V20.2098C85.8747 18.977 83.6896 18.4834 81.7795 18.4834C75.9258 18.4834 70.8442 22.6733 70.8442 29.8816ZM58.2025 24.06H61.5008V40.6659H67.0774V19.1009H58.2025V24.06Z" fill="white"/>
		<path fill-rule="evenodd" clip-rule="evenodd" d="M23.7087 4C21.9425 4 20.2246 4.19871 18.5694 4.56621V27.7265C18.5694 30.5647 20.8834 32.8794 23.7223 32.8794C26.5597 32.8794 28.873 30.5647 28.873 27.728C28.873 25.0016 26.7427 22.7639 24.0648 22.5858V18.4614C29.0133 18.6409 32.9952 22.7347 32.9952 27.728C32.9952 32.8345 28.8295 37.0024 23.7223 37.0024C18.6129 37.0024 14.4479 32.8345 14.4479 27.7265V5.87667C13.8624 6.12523 13.2905 6.40086 12.73 6.69714V27.7265C12.7307 33.7796 17.6692 38.7159 23.7223 38.7159C29.776 38.7159 34.7124 33.7796 34.7124 27.728C34.7124 21.7889 29.9619 16.9252 24.0648 16.7421V12.6192C32.231 12.8036 38.8325 19.5198 38.8325 27.728C38.8325 36.0523 32.0444 42.8389 23.7223 42.8389C15.398 42.8389 8.60776 36.0523 8.60776 27.7265V9.43202C3.35166 13.7786 0 20.3516 0 27.7087C0 40.8027 10.6148 51.4203 23.7094 51.4203C36.8063 51.4203 47.4182 40.8027 47.4182 27.7087C47.4182 14.6148 36.8063 4 23.7087 4Z" fill="white"/>
	</g>
</svg>
