<svg xmlns="http://www.w3.org/2000/svg" width="245" height="56" viewBox="0 0 245 56" fill="none">
	<g opacity="0.3">
		<path d="M4.14404 27.8829C4.14534 31.7777 5.24284 35.5934 7.31102 38.8937C9.3792 42.194 12.3345 44.8455 15.839 46.545L5.94326 19.4419C4.75794 22.0982 4.14492 24.9742 4.14404 27.8829ZM25.2466 29.6917L19.0259 47.77C20.9264 48.3372 22.8995 48.6242 24.8829 48.6218C27.2297 48.6203 29.5593 48.2223 31.7735 47.4446C31.7113 47.3554 31.6598 47.259 31.6204 47.1575L25.2466 29.6917Z" fill="white"/>
		<path d="M24.8828 3C18.2835 3 11.9544 5.62157 7.28801 10.288C2.62157 14.9544 0 21.2835 0 27.8828C0 34.4821 2.62157 40.8112 7.28801 45.4776C11.9544 50.1441 18.2835 52.7656 24.8828 52.7656C31.4821 52.7656 37.8112 50.1441 42.4776 45.4776C47.1441 40.8112 49.7656 34.4821 49.7656 27.8828C49.7656 21.2835 47.1441 14.9544 42.4776 10.288C37.8112 5.62157 31.4821 3 24.8828 3ZM44.2818 40.9559C41.2477 45.4505 36.7478 48.7528 31.5501 50.2992C26.3524 51.8456 20.7791 51.5402 15.7814 49.4352C10.176 47.0611 5.7141 42.5992 3.34004 36.9938C1.52196 32.7068 1.02709 27.9742 1.91898 23.4038C2.81088 18.8335 5.04882 14.6342 8.34531 11.3453C11.6365 8.05583 15.8334 5.82185 20.4001 4.92862C24.9668 4.0354 29.6961 4.52345 33.9842 6.33047C39.5897 8.70453 44.0515 13.1664 46.4256 18.7719C47.9407 22.3552 48.5372 26.26 48.1612 30.1322C47.7852 34.0044 46.4485 37.7215 44.2723 40.9463L44.2818 40.9559Z" fill="white"/>
		<path d="M43.0664 17.9391C43.165 18.6435 43.2128 19.3527 43.21 20.0637C43.1752 22.6188 42.6386 25.1421 41.6309 27.4903L35.3049 45.8079C39.9777 43.0924 43.4045 38.6587 44.8545 33.4523C46.3045 28.2459 45.6629 22.6791 43.0664 17.9391ZM38.8842 26.8395C38.8577 24.8035 38.2645 22.8151 37.1711 21.0973C36.1184 19.3938 35.1326 17.9487 35.1326 16.2356C35.1145 15.2893 35.47 14.3739 36.122 13.6879C36.7741 13.0018 37.6702 12.6002 38.6162 12.5702H38.8842C36.6698 10.5423 34.0412 9.02 31.1803 8.10855C28.3194 7.1971 25.2946 6.91833 22.3154 7.29154C19.3361 7.66475 16.4735 8.68101 13.9258 10.27C11.3782 11.8589 9.20627 13.9826 7.56055 16.494H8.89082C11.0633 16.494 14.4225 16.2356 14.4225 16.2356C14.6395 16.2365 14.8482 16.3193 15.0068 16.4674C15.1654 16.6156 15.2622 16.8181 15.2779 17.0346C15.2937 17.251 15.2271 17.4654 15.0916 17.6349C14.956 17.8044 14.7615 17.9165 14.5469 17.9487C14.5469 17.9487 13.4271 18.0731 12.183 18.1401L19.7244 40.6016L24.2703 26.9927L21.0547 18.1593C19.935 18.0923 18.8822 17.9678 18.8822 17.9678C18.6668 17.9355 18.4716 17.8227 18.336 17.6522C18.2004 17.4817 18.1344 17.2661 18.1514 17.0489C18.1684 16.8317 18.2671 16.629 18.4275 16.4817C18.588 16.3343 18.7984 16.2532 19.0162 16.2548C19.0162 16.2548 22.4328 16.5132 24.4713 16.5132C26.5098 16.5132 30.0029 16.2548 30.0029 16.2548C30.2208 16.2532 30.4311 16.3343 30.5916 16.4817C30.7521 16.629 30.8507 16.8317 30.8677 17.0489C30.8847 17.2661 30.8188 17.4817 30.6832 17.6522C30.5475 17.8227 30.3524 17.9355 30.1369 17.9678C30.1369 17.9678 29.0076 18.0923 27.7635 18.1593L35.257 40.4485L37.3912 33.6727C38.2186 31.4798 38.7216 29.1778 38.8842 26.8395ZM139.564 21.4706H129.668V22.5233C132.759 22.5233 133.257 23.1837 133.257 27.1075V34.1895C133.257 38.1134 132.759 38.8311 129.668 38.8311C127.295 38.4962 125.687 37.2233 123.476 34.7925L120.93 32.0266C124.357 31.4237 126.185 29.2608 126.185 26.83C126.185 23.7866 123.581 21.4706 118.72 21.4706H108.987V22.5233C112.087 22.5233 112.585 23.1837 112.585 27.1075V34.1895C112.585 38.1134 112.087 38.8311 108.987 38.8311V39.8839H119.993V38.8311C116.892 38.8311 116.394 38.1134 116.394 34.1895V32.1989H117.351L123.495 39.8551H139.583C147.488 39.8551 150.924 35.6538 150.924 30.6198C150.924 25.5858 147.469 21.4706 139.564 21.4706ZM116.394 30.4858V23.0975H118.672C119.162 23.0666 119.652 23.142 120.11 23.3187C120.568 23.4954 120.982 23.7691 121.324 24.121C121.666 24.473 121.927 24.8947 122.091 25.3574C122.254 25.8201 122.315 26.3126 122.27 26.8012C122.315 27.2889 122.253 27.7804 122.089 28.2418C121.925 28.7032 121.663 29.1236 121.321 29.4739C120.979 29.8242 120.565 30.0961 120.108 30.2708C119.65 30.4455 119.16 30.5189 118.672 30.4858H116.394ZM139.727 38.1421H139.344C137.353 38.1421 137.076 37.6444 137.076 35.0987V23.0975H139.727C145.469 23.0975 146.531 27.2989 146.531 30.5624C146.531 33.8259 145.469 38.1708 139.727 38.1708V38.1421ZM89.4728 15.9389H79.0699V17.0491C82.6109 17.0491 83.1086 18.0061 82.008 21.2505L78.1799 32.5243L72.7344 15.9389H71.6816L66.083 32.5243L62.3793 21.2505C61.2117 17.8147 62.1018 17.0491 65.3652 17.0491V15.9389H53.0865V17.0491C56.2926 17.0491 57.1826 17.8721 58.5033 21.9108L64.6475 40.8218H65.3652L71.1074 23.5186L76.7539 40.8218H77.5195L83.8264 21.9108C85.2045 17.8721 86.0371 17.0491 89.5207 17.0491L89.4728 15.9389ZM96.9855 20.7528C90.9084 20.7528 85.9318 25.2317 85.9318 30.6485C85.9318 36.0653 90.9084 40.6016 96.9855 40.6016C103.063 40.6016 108.049 36.1227 108.049 30.6485C108.049 25.1743 103.072 20.7528 96.9855 20.7528ZM96.9855 38.8311C91.9037 38.8311 90.1332 34.2948 90.1332 30.6485C90.1332 27.0022 91.9037 22.4659 96.9855 22.4659C102.067 22.4659 103.905 27.0501 103.905 30.6485C103.905 34.2469 102.134 38.8311 96.9855 38.8311ZM163.337 15.9389H151.852V17.0491C155.565 17.0491 156.226 17.9296 156.226 23.4612V32.3042C156.226 37.8358 155.565 38.7737 151.852 38.7737V39.8839H164.609V38.7737C160.896 38.7737 160.236 37.8167 160.236 32.3042V29.5958H163.384C169.127 29.5958 172.237 26.6098 172.237 22.7913C172.237 18.9727 169.031 15.9389 163.337 15.9389ZM163.337 27.5477H160.188V17.9774H163.337C166.437 17.9774 167.873 20.1882 167.873 22.8391C167.873 25.4901 166.437 27.5477 163.337 27.5477ZM209.896 35.6825C209.398 37.5009 208.796 38.1708 204.862 38.1708H204.087C201.216 38.1708 200.718 37.5009 200.718 33.577V31.0313C205.034 31.0313 205.36 31.4237 205.36 34.2948H206.412V26.0548H205.36C205.36 28.9259 205.034 29.3182 200.718 29.3182V23.0975H203.762C207.685 23.0975 208.298 23.7579 208.796 25.5858L209.063 26.6386H209.954L209.59 21.4706H193.32V22.5233C196.412 22.5233 196.909 23.1837 196.909 27.1075V34.1895C196.909 37.7784 196.488 38.678 194.038 38.812C191.722 38.4579 190.124 37.1946 187.942 34.7925L185.406 32.0266C188.832 31.4237 190.66 29.2608 190.66 26.83C190.66 23.7866 188.057 21.4706 183.195 21.4706H173.462V22.5233C176.553 22.5233 177.051 23.1837 177.051 27.1075V34.1895C177.051 38.1134 176.553 38.8311 173.462 38.8311V39.8839H184.458V38.8311C181.367 38.8311 180.869 38.1134 180.869 34.1895V32.1989H181.826L187.961 39.8551H210.69L211.025 34.6585H210.193L209.896 35.6825ZM180.879 30.4858V23.0975H183.147C183.636 23.0665 184.127 23.1421 184.584 23.3189C185.041 23.4957 185.455 23.7696 185.796 24.1216C186.137 24.4737 186.398 24.8956 186.56 25.3582C186.722 25.8209 186.782 26.3132 186.736 26.8012C186.777 27.2858 186.713 27.7735 186.548 28.231C186.383 28.6885 186.121 29.1051 185.781 29.4522C185.44 29.7994 185.028 30.0689 184.574 30.2423C184.119 30.4157 183.633 30.489 183.147 30.4571L180.879 30.4858ZM224.443 29.7106L221.4 28.2177C218.739 27.0022 217.571 26.227 217.571 24.7819C217.571 23.3368 219.007 22.5233 220.557 22.5233C223.486 22.5233 224.931 24.6766 225.343 27.3085H226.501V20.7528H225.457C225.35 21.3038 225.103 21.818 224.74 22.2458C223.503 21.2959 221.983 20.7902 220.423 20.8102C216.997 20.8102 214.509 23.0688 214.509 25.7294C214.509 28.1602 216.165 29.9882 218.337 31.0313L221.486 32.5243C223.754 33.577 225.027 34.6872 225.027 36.1227C225.027 37.7784 223.591 38.7737 221.821 38.7737C218.557 38.7737 216.012 36.6204 215.571 32.9741H214.471V40.6303H215.514C215.634 39.9243 215.942 39.2635 216.404 38.7163C217.8 39.8965 219.553 40.5709 221.38 40.6303C225.084 40.6303 228.08 38.1995 228.08 34.7159C228.147 33.0219 227.094 30.9835 224.443 29.7106ZM241.172 29.7106L238.129 28.2177C235.468 27.0022 234.3 26.227 234.3 24.7819C234.3 23.3368 235.736 22.5233 237.286 22.5233C240.215 22.5233 241.66 24.6766 242.071 27.3085H243.229V20.7528H242.129C242.022 21.3038 241.775 21.818 241.411 22.2458C240.175 21.2959 238.654 20.7902 237.095 20.8102C233.669 20.8102 231.18 23.0688 231.18 25.7294C231.18 28.1602 232.836 29.9882 235.009 31.0313L238.157 32.5243C240.425 33.577 241.698 34.6872 241.698 36.1227C241.698 37.7784 240.263 38.7737 238.492 38.7737C235.229 38.7737 232.683 36.6204 232.243 32.9741H231.142V40.6303H232.185C232.306 39.9243 232.613 39.2635 233.075 38.7163C234.471 39.8965 236.225 40.5709 238.052 40.6303C241.756 40.6303 244.799 38.1995 244.799 34.7159C244.866 33.0219 243.813 30.9835 241.172 29.7106Z" fill="white"/>
	</g>
</svg>
