<svg xmlns="http://www.w3.org/2000/svg" width="245" height="56" viewBox="0 0 245 56" fill="none">
	<g opacity="0.3">
		<path d="M136.699 38.9185C136.549 38.467 136.498 37.915 136.398 37.3631L136.348 37.1624C136.197 35.8077 136.097 34.6537 136.097 33.4996C136.097 31.4424 136.147 29.7867 136.298 28.2814C136.448 26.7762 136.498 25.1706 136.498 23.2137C136.498 21.7586 136.348 20.5043 136.047 19.2499C135.696 17.9955 135.144 16.8917 134.391 16.0889C133.638 15.2359 132.635 14.5836 131.23 14.0818C129.976 13.6303 128.37 13.3794 126.463 13.3794C123.955 13.3794 121.697 13.5801 119.589 14.0317C118.034 14.3327 116.629 14.6839 115.174 15.1857C114.722 15.3362 114.321 15.6875 114.12 16.139C113.92 16.5906 113.869 17.0924 114.07 17.5439L115.023 20.2032C115.274 20.9558 115.977 21.4074 116.729 21.4074C116.93 21.4074 117.131 21.3572 117.382 21.3071C118.235 20.9558 119.138 20.6548 120.041 20.4039C121.596 20.0527 123.102 19.852 124.607 19.852C126.213 19.852 127.266 20.1029 127.818 20.6046C128.32 21.1064 128.621 21.9092 128.621 23.0632C128.621 23.4144 128.571 23.8158 128.521 24.2674C128.22 24.2172 127.818 24.167 127.316 24.0667C126.213 23.866 125.309 23.8158 124.456 23.8158H124.055C119.991 23.8158 116.93 24.6186 114.923 26.1741C112.816 27.7797 111.762 30.1881 111.762 33.2989C111.762 34.453 111.963 35.5066 112.414 36.5603C112.816 37.5136 113.468 38.3666 114.321 39.1192C115.174 39.8719 116.127 40.4238 117.181 40.775C118.335 41.1764 119.539 41.3771 120.794 41.3771C122.801 41.3771 124.557 40.9255 126.162 40.0726C127.417 39.3701 128.822 38.2161 129.574 37.5136L130.227 39.6712C130.427 40.474 131.13 40.9757 131.983 40.9757H134.993C135.545 40.9757 136.047 40.7248 136.398 40.2733C136.699 40.0224 136.85 39.4705 136.699 38.9185ZM121.044 29.8368C121.847 29.2347 123.051 28.9839 124.757 28.9839C125.058 28.9839 125.41 28.9839 125.811 29.034L127.066 29.1846C127.266 29.2347 127.467 29.2347 127.668 29.2849C127.868 29.3351 128.019 29.3351 128.169 29.3853C128.27 29.3853 128.42 29.4354 128.47 29.4354V31.9442C128.069 32.5965 127.467 33.2989 126.614 34.0014C125.761 34.6537 124.657 35.0049 123.152 35.0049C122.098 35.0049 121.346 34.754 120.743 34.2021C120.192 33.7003 119.89 32.8975 119.89 31.8438C119.941 31.041 120.342 30.3888 121.044 29.8368Z" fill="white"/>
		<path d="M161.536 28.8331C160.934 27.7794 160.231 26.9766 159.328 26.3745C158.525 25.7724 157.622 25.3208 156.418 24.9194C155.515 24.6184 154.561 24.3173 153.458 24.0163C152.153 23.6651 151.15 23.3138 150.297 22.9124C149.644 22.6616 149.293 22.21 149.293 21.6581C149.293 21.0058 149.494 20.5542 149.895 20.2532C150.347 19.9521 151.099 19.8016 152.203 19.8016C152.755 19.8016 153.407 19.8518 154.21 19.9521C154.963 20.0525 155.665 20.203 156.418 20.4037C156.819 20.504 157.221 20.6044 157.572 20.7047C157.773 20.7549 157.973 20.8051 158.174 20.8553C158.325 20.9054 158.525 20.9054 158.726 20.9054C159.579 20.9054 160.281 20.3535 160.482 19.6009L161.235 16.7911C161.435 15.8377 160.934 14.8844 160.081 14.5834C159.178 14.2823 158.024 13.9813 156.92 13.7806C154.913 13.4293 153.056 13.2788 151.2 13.2788C147.988 13.2788 145.58 13.9813 143.874 15.4363C142.118 16.9416 141.215 19.0991 141.215 21.8588C141.215 23.5145 141.516 24.8191 142.068 25.8728C142.67 26.9264 143.423 27.8296 144.326 28.4317C145.229 29.084 146.232 29.5857 147.236 29.937L147.687 30.0875C148.54 30.3885 149.343 30.6896 150.196 30.8903C151.551 31.2415 152.554 31.5927 153.357 31.9941C154.01 32.245 154.361 32.6966 154.361 33.2987C154.361 34.5531 153.859 34.8039 153.658 34.9043C153.056 35.2555 152.203 35.406 151.2 35.406C150.397 35.406 149.694 35.3559 149.042 35.2053C148.29 35.0548 147.537 34.9043 146.885 34.7036C146.082 34.5029 145.48 34.3022 144.928 34.0513C144.777 34.0011 144.627 33.951 144.476 33.8506C144.075 33.7001 143.673 33.5496 143.372 33.3489L142.82 33.0478L141.215 38.1155C140.964 39.0187 141.365 39.972 142.218 40.3232C143.122 40.7246 144.175 41.0257 145.43 41.3267C147.386 41.6779 149.193 41.8285 150.999 41.8285C154.662 41.8285 157.522 41.0257 159.428 39.4201C161.335 37.8144 162.339 35.5064 162.339 32.5461C162.389 31.091 162.138 29.8366 161.536 28.8331Z" fill="white"/>
		<path d="M191.942 14.734C191.591 14.2322 191.039 13.9813 190.437 13.9813H186.172C185.369 13.9813 184.616 14.5333 184.416 15.2859L179.499 32.2953L173.728 15.0852C173.427 14.3827 172.775 13.9312 172.022 13.9312H166.553C165.951 13.9312 165.349 14.2322 164.998 14.7841C164.647 15.2859 164.597 15.9382 164.898 16.4901L175.986 40.825C175.836 41.4773 175.585 42.0794 175.284 42.5812C175.033 42.9826 174.732 43.384 174.431 43.6348C174.08 43.8857 173.779 44.0362 173.427 44.0864C173.026 44.1868 172.574 44.2369 172.173 44.2369C171.721 44.2369 171.27 44.1868 170.768 43.9861L170.266 43.8355L168.962 48.6022C168.711 49.5555 169.213 50.559 170.116 50.8099C170.417 50.9102 170.768 51.0106 171.019 51.0106C171.922 51.2615 172.926 51.2615 173.628 51.2615C174.983 51.2615 176.187 50.9604 177.241 50.3583C178.244 49.8064 179.147 48.9032 179.95 47.699C180.703 46.5952 181.405 45.2404 182.108 43.5847C182.609 42.3805 183.111 41.0759 183.663 39.671L184.165 38.3163L192.193 16.3897C192.394 15.8378 192.293 15.2357 191.942 14.734Z" fill="white"/>
		<path d="M213.919 28.8331C213.317 27.7794 212.614 26.9766 211.711 26.3745C210.908 25.7724 210.005 25.3208 208.801 24.9194C207.898 24.6184 206.944 24.3173 205.841 24.0163C204.536 23.6651 203.532 23.3138 202.679 22.9124C202.027 22.6616 201.676 22.21 201.676 21.6581C201.676 21.0058 201.877 20.5542 202.278 20.2532C202.73 19.9521 203.482 19.8016 204.586 19.8016C205.138 19.8016 205.79 19.8518 206.593 19.9521C207.346 20.0525 208.048 20.203 208.801 20.4037C209.202 20.504 209.604 20.6044 209.955 20.7047C210.156 20.7549 210.356 20.8051 210.557 20.8553C210.708 20.9054 210.908 20.9054 211.109 20.9054C211.962 20.9054 212.664 20.3535 212.865 19.6009L213.618 16.7911C213.818 15.8377 213.317 14.8844 212.464 14.5834C211.56 14.2823 210.406 13.9813 209.303 13.7806C207.296 13.4293 205.439 13.2788 203.583 13.2788C200.371 13.2788 197.963 13.9813 196.257 15.4363C194.501 16.9416 193.598 19.0991 193.598 21.8588C193.598 23.5145 193.899 24.8191 194.451 25.8728C195.053 26.9264 195.806 27.8296 196.709 28.4317C197.612 29.084 198.615 29.5857 199.619 29.937L200.07 30.0875C200.923 30.3885 201.726 30.6896 202.579 30.8903C203.934 31.2415 204.937 31.5927 205.74 31.9941C206.392 32.245 206.744 32.6966 206.744 33.2987C206.744 34.5531 206.242 34.8039 206.041 34.9043C205.439 35.2053 204.586 35.406 203.583 35.406C202.78 35.406 202.077 35.3559 201.425 35.2053C200.672 35.0548 199.92 34.9043 199.268 34.7036C198.465 34.5029 197.863 34.3022 197.311 34.0513L196.859 33.8506C196.458 33.7001 196.056 33.5496 195.755 33.3489L195.203 33.0478L193.598 38.1155C193.347 39.0187 193.748 39.972 194.601 40.3232C195.504 40.7246 196.558 41.0257 197.812 41.3267C199.769 41.6779 201.576 41.8285 203.382 41.8285C207.045 41.8285 209.905 41.0257 211.811 39.4201C213.718 37.8144 214.722 35.5064 214.722 32.5461C214.772 31.091 214.521 29.8366 213.919 28.8331Z" fill="white"/>
		<path d="M237.1 38.4668L235.845 33.8005L235.293 34.0012C234.741 34.2521 234.189 34.4026 233.637 34.5532C233.186 34.6535 232.584 34.7539 231.831 34.7539C230.828 34.7539 230.125 34.4026 229.824 33.7002C229.473 32.8472 229.272 31.3921 229.272 29.3851V20.8052H234.541C235.544 20.8052 236.347 20.0024 236.347 18.9989V15.7877C236.347 14.7842 235.544 13.9813 234.541 13.9813H229.322V6.8063C229.322 5.8028 228.52 5 227.516 5C227.366 5 227.215 5 227.065 5.05018L222.699 6.2042C221.897 6.4049 221.294 7.10736 221.294 7.96033V13.9813H219.137C218.133 13.9813 217.331 14.7842 217.28 15.8378V19.049C217.28 20.0525 218.083 20.8553 219.087 20.8553H221.244V33.3991C221.244 36.3595 221.897 38.5672 223.201 39.9219C224.556 41.3268 226.513 41.9791 229.222 41.9791C230.627 41.9791 231.982 41.8285 233.387 41.4773C234.39 41.1763 235.243 40.9254 235.946 40.7247C236.849 40.3735 237.401 39.37 237.1 38.4668Z" fill="white"/>
		<path d="M48.0396 13.9814H44.5274C43.6744 13.9814 42.9719 14.5334 42.7712 15.3362C41.8179 18.9488 39.2088 29.4856 38.7071 31.6431C38.0046 29.5859 34.1411 18.6979 32.8366 15.1355C32.5355 14.433 31.8832 13.9814 31.1306 13.9814H27.8692C27.1166 13.9814 26.4141 14.4832 26.1131 15.2358L20.8447 31.7434L16.3289 15.286C16.1282 14.5334 15.3756 13.9814 14.5728 13.9814H9.80617C9.20407 13.9814 8.65215 14.2825 8.30092 14.7341C7.94969 15.2358 7.84934 15.8379 8.05004 16.3899L16.3289 40.1729C16.5798 40.9255 17.2823 41.4272 18.0349 41.4272H21.4468C22.1994 41.4272 22.9019 40.9255 23.1528 40.1729C24.2064 37.2125 28.1201 25.873 28.8727 23.6151H29.0734C29.8261 25.6723 33.7899 36.6606 35.1446 40.2732C35.3955 40.9757 36.0979 41.4272 36.8004 41.4272H40.1621C40.9148 41.4272 41.6172 40.9255 41.8681 40.1729L49.7456 16.3899C49.8961 15.8379 49.7958 15.2358 49.4445 14.7341C49.1937 14.2323 48.6417 13.9814 48.0396 13.9814Z" fill="white"/>
		<path d="M74.0304 15.637C72.8764 14.7339 71.622 14.1318 70.1669 13.7806C68.8623 13.4293 67.4073 13.2788 65.902 13.2788C61.4866 13.2788 57.9743 14.5332 55.5659 16.9416C53.1073 19.4002 51.853 23.0128 51.853 27.6289C51.853 32.0443 52.9568 35.5566 55.1144 38.1155C57.3221 40.6744 60.7841 42.0292 65.4003 42.0292C67.6581 42.0292 69.8157 41.7281 71.8227 41.126C73.1774 40.6744 74.3816 40.1727 75.4855 39.5706C75.8869 39.3197 76.1879 38.9685 76.3384 38.5169C76.489 38.0653 76.4388 37.5636 76.1879 37.1622L75.0339 35.0046C74.6827 34.4527 74.0805 34.1015 73.4283 34.1015C73.1774 34.1015 72.8763 34.1517 72.6756 34.3022C72.1739 34.5531 71.622 34.8039 70.9195 35.0548C69.7655 35.4562 68.4108 35.6569 66.8553 35.6569C64.4469 35.6569 62.6406 35.1552 61.5869 34.2018C60.6336 33.3489 60.0315 31.944 59.8308 30.0373H77.1412L77.2416 29.6359C77.4925 28.5822 77.5928 27.7292 77.643 26.9766C77.7433 26.0735 77.7433 25.3208 77.7433 24.6184C77.7433 22.4609 77.3921 20.7549 76.7398 19.2998C75.9872 17.5939 75.0841 16.49 74.0304 15.637ZM61.5869 21.2567C62.4901 20.2532 63.895 19.7514 65.8017 19.7514C67.4574 19.7514 68.6616 20.2532 69.3139 21.1563C70.0164 22.0093 70.3174 23.1633 70.2672 24.6686H60.0315C60.2322 23.3138 60.734 22.1598 61.5869 21.2567Z" fill="white"/>
		<path d="M105.641 16.8916C103.784 14.5836 101.075 13.4295 97.6126 13.4295C96.1576 13.4295 94.8028 13.8309 93.5986 14.132L93.3979 14.1822C92.1435 14.5334 90.9393 15.2358 90.1867 15.7878V6.75625C90.1867 5.8531 89.3839 5.05029 88.4808 5.05029C88.3804 5.05029 88.1797 5.05029 88.0292 5.15064L83.664 6.30467C82.9113 6.50537 82.4096 7.20782 82.4096 7.96045V39.8718L82.7106 39.9722C83.965 40.4238 85.4703 40.8252 87.2264 41.076C89.133 41.4273 91.3407 41.5778 94 41.5778C96.2579 41.5778 98.2147 41.2266 99.9709 40.5743C101.777 39.8718 103.282 38.9185 104.537 37.7143C105.791 36.4098 106.745 34.8543 107.397 33.048C108.049 31.2919 108.4 29.1845 108.4 26.8263C108.4 22.6116 107.497 19.1495 105.641 16.8916ZM94.3513 35.1052C93.4481 35.1052 92.5951 35.055 91.993 35.0048C91.3407 34.9045 90.7386 34.754 90.2369 34.5031V23.8158C90.6383 22.6116 91.2906 21.6583 92.1435 20.9558C92.9464 20.3035 94.1004 20.0025 95.5555 20.0025C97.1611 20.0025 98.4154 20.5544 99.2684 21.7084C100.121 22.8625 100.523 24.6186 100.523 26.9267C100.523 32.4459 98.4656 35.1052 94.3513 35.1052Z" fill="white"/>
	</g>
</svg>
