<svg width="118" height="80" viewBox="0 0 118 80" fill="none" xmlns="http://www.w3.org/2000/svg">
<rect width="118" height="80" fill="#FCFCFC"/>
<path d="M31.2208 61.7847L28.5172 65.4047H28.2089L25.565 61.7728V67.8335H24V59.4985H25.8021L28.3988 63.0829L30.9955 59.4985H32.7858V67.8335H31.2208V61.7847Z" fill="#ED1C24"/>
<path d="M38.5598 64.2019C38.465 63.4398 37.8721 63.0588 37.0421 63.0588C36.2596 63.0588 35.6191 63.4398 35.4059 64.2019H38.5598ZM35.382 65.4046C35.4768 66.1311 36.1054 66.6547 37.125 66.6547C37.6586 66.6547 38.3581 66.4522 38.6903 66.1067L39.6151 67.0239C38.9986 67.6671 37.9905 67.9763 37.1014 67.9763C35.0855 67.9763 33.8882 66.7262 33.8882 64.845C33.8882 63.0588 35.0973 61.7727 36.9945 61.7727C38.951 61.7727 40.1723 62.9873 39.947 65.4046H35.382Z" fill="#ED1C24"/>
<path d="M42.235 64.8807C42.235 65.9045 42.9703 66.607 43.8948 66.607C44.8081 66.607 45.5906 65.9404 45.5906 64.8807C45.5906 63.8568 44.8081 63.1658 43.8948 63.1658C42.9703 63.1658 42.235 63.8206 42.235 64.8807ZM47.132 59.4984V67.8216H45.7802L45.6854 67.0117C45.2348 67.7145 44.5116 67.9526 43.8 67.9526C42.0809 67.9526 40.7885 66.8095 40.7885 64.8807C40.7885 62.8566 42.057 61.8087 43.7646 61.8087C44.3811 61.8087 45.3414 62.142 45.6854 62.7492V59.4984H47.132Z" fill="#ED1C24"/>
<path d="M48.3883 67.8213H49.8349V61.9273H48.3883V67.8213ZM49.9654 60.2964C49.9654 61.4274 48.2581 61.4274 48.2581 60.2964C48.2581 59.1652 49.9654 59.1652 49.9654 60.2964Z" fill="#ED1C24"/>
<path d="M52.2656 64.8805C52.2656 65.9996 53.0362 66.6664 53.9968 66.6664C56.2734 66.6664 56.2734 63.1064 53.9968 63.1064C53.0362 63.1064 52.2656 63.7611 52.2656 64.8805ZM55.7753 61.9511H57.1625V67.8214H55.7989L55.728 66.9642C55.3958 67.6548 54.4828 67.988 53.8305 67.9999C52.0993 68.0118 50.819 66.9404 50.819 64.8805C50.819 62.8564 52.159 61.7966 53.8663 61.8085C54.6488 61.8085 55.3958 62.1774 55.728 62.7609L55.7753 61.9511Z" fill="#ED1C24"/>
<path d="M63.9443 59.4748H65.5093V67.8216H64.5369V67.8335L60.1739 62.2016V67.8216H58.6086V59.4866H59.8774L63.9443 64.6545V59.4748Z" fill="#ED1C24"/>
<path d="M67.9636 64.8805C67.9636 65.9996 68.7343 66.6664 69.6945 66.6664C71.9711 66.6664 71.9711 63.1064 69.6945 63.1064C68.7343 63.1064 67.9636 63.7611 67.9636 64.8805ZM71.473 61.9511H72.8605V67.8214H71.4966L71.4257 66.9642C71.0939 67.6548 70.1805 67.988 69.5286 67.9999C67.7973 68.0118 66.517 66.9404 66.517 64.8805C66.517 62.8564 67.8567 61.7966 69.5643 61.8085C70.3468 61.8085 71.0939 62.1774 71.4257 62.7609L71.473 61.9511Z" fill="#ED1C24"/>
<path d="M75.8715 60.2964V61.9632H77.4841V63.2136H75.8597V65.7498C75.8597 66.3093 76.168 66.583 76.6186 66.583C76.8439 66.583 77.1046 66.5118 77.3181 66.4048L77.7212 67.6431C77.3063 67.8094 76.9623 67.8809 76.5238 67.8931C75.255 67.9408 74.425 67.2143 74.425 65.7498V63.2136H73.3342V61.9632H74.425V60.4509L75.8715 60.2964Z" fill="#ED1C24"/>
<path d="M78.5629 67.8213H80.0094V61.9273H78.5629V67.8213ZM80.1396 60.2964C80.1396 61.4274 78.4323 61.4274 78.4323 60.2964C78.4323 59.1652 80.1396 59.1652 80.1396 60.2964Z" fill="#ED1C24"/>
<path d="M82.6176 64.8925C82.6176 65.7853 83.1512 66.6192 84.2065 66.6192C85.2615 66.6192 85.7951 65.7853 85.7951 64.8925C85.7951 64.0112 85.1786 63.154 84.2065 63.154C83.163 63.154 82.6176 64.0112 82.6176 64.8925ZM87.2535 64.8925C87.2535 66.583 86.1034 67.9526 84.2065 67.9526C82.309 67.9526 81.171 66.583 81.171 64.8925C81.171 63.2136 82.3326 61.8324 84.1944 61.8324C86.0558 61.8324 87.2535 63.2136 87.2535 64.8925Z" fill="#ED1C24"/>
<path d="M92.5534 67.8213V64.7493C92.5534 63.8565 92.0674 63.1777 91.1423 63.1777C90.2532 63.1777 89.6482 63.9279 89.6482 64.8208V67.8213H88.2137V61.9395H89.5061L89.6009 62.7371C90.1939 62.1535 90.7868 61.8561 91.522 61.8561C92.8971 61.8561 94 62.8919 94 64.7374V67.8213H92.5534Z" fill="#ED1C24"/>
<path d="M51.2461 52.2722L60.8057 51.405L50.4869 36.8729L51.2461 52.2722Z" fill="url(#paint0_linear_5762_46262)"/>
<path d="M47.2992 21.1647L37.4948 39.6306H37.4951L47.2992 21.1647Z" fill="#ED1C24"/>
<path d="M48.0189 12L48.0161 12.0029L47.2993 21.165L48.0189 12Z" fill="#ED1C24"/>
<path d="M80.4928 45.0994L80.503 45.1023L72.6555 29.9129L80.4928 45.0994Z" fill="#ED1C24"/>
<path d="M37.4951 39.6308V39.6314L51.2461 52.2722L50.672 37.2446L37.4951 39.6308Z" fill="url(#paint1_linear_5762_46262)"/>
<path d="M60.7616 51.3421L60.8063 51.4045L80.43 45.0484L70.7849 42.5552L50.6282 37.1816L60.7616 51.3421Z" fill="url(#paint2_linear_5762_46262)"/>
<path d="M80.5028 45.1023L83.1116 35.3794L83.1177 35.3569L72.6556 29.9129L80.5028 45.1023Z" fill="url(#paint3_linear_5762_46262)"/>
<path d="M70.8286 42.6184L80.4741 45.1119L80.5028 45.1196L80.4958 45.1052L80.4929 45.0998L72.6556 29.9132L70.8286 42.6184Z" fill="url(#paint4_linear_5762_46262)"/>
<path d="M50.6719 37.2446L71.0543 42.8447L72.8812 29.4598L50.6719 37.2446Z" fill="url(#paint5_linear_5762_46262)"/>
<path d="M47.2991 21.1653L72.6556 29.9133L74.9529 20.7547L47.2991 21.1653Z" fill="url(#paint6_linear_5762_46262)"/>
<path d="M37.4951 39.6309L50.672 37.2447L47.3206 20.7L37.4951 39.6309Z" fill="url(#paint7_linear_5762_46262)"/>
<path d="M50.6719 37.2446L72.6556 29.913L47.2991 21.1649L50.6719 37.2446Z" fill="url(#paint8_linear_5762_46262)"/>
<path d="M46.7464 21.3252L74.953 20.7544L57.5382 15.0335L46.7464 21.3252Z" fill="url(#paint9_linear_5762_46262)"/>
<path d="M47.2991 21.1653L57.4724 15.0729L57.5381 15.0338L48.0187 12.0003L47.2991 21.1653Z" fill="url(#paint10_linear_5762_46262)"/>
<path d="M34.7704 23.2166L37.4951 39.6309L47.2991 21.165L34.7704 23.2166Z" fill="url(#paint11_linear_5762_46262)"/>
<path d="M34.7704 23.2166L47.333 21.3252L48.0159 12.0028V11.9999L34.7704 23.2166Z" fill="url(#paint12_linear_5762_46262)"/>
<path d="M72.6556 29.9129L83.1177 35.3569L74.953 20.7543L72.6556 29.9129Z" fill="url(#paint13_linear_5762_46262)"/>
<path d="M71.9463 31.6254C70.0731 32.4756 70.0159 31.1944 70.0159 31.1944C68.2282 33.9953 68.5531 33.2957 68.2997 33.4925C68.0597 33.6787 59.5768 36.3645 59.5768 36.3645C58.8524 36.6221 58.7187 36.1491 58.7187 36.1491C60.6494 34.5696 58.7187 32.1282 58.7187 32.1282C56.1447 29.6155 54.572 33.5639 54.572 33.5639C43.9896 24.9479 45.3481 22.5787 45.3481 22.5787C45.9203 21.2859 44.8477 22.0044 44.8477 22.0044C43.4178 22.4348 43.06 20.7116 43.06 20.7116C42.7741 20.3524 42.4167 20.7116 42.4167 20.7116V21.6448C42.5804 22.4633 43.9181 24.5893 43.9181 24.5893C45.2766 26.0964 52.1406 34.5696 52.1406 34.5696C55.3376 40.1924 54.0563 50.0891 53.7595 52.0779L60.4158 51.4658C60.2502 38.8574 62.4365 37.6986 62.4365 37.6986C62.6512 37.5967 72.2322 32.8464 72.2322 32.8464L72.447 32.1282C72.6615 31.4101 71.9463 31.6254 71.9463 31.6254Z" fill="white"/>
<defs>
<linearGradient id="paint0_linear_5762_46262" x1="54.1254" y1="42.0085" x2="59.7405" y2="70.8099" gradientUnits="userSpaceOnUse">
<stop stop-color="#DC2428"/>
<stop offset="1" stop-color="#BC2041"/>
</linearGradient>
<linearGradient id="paint1_linear_5762_46262" x1="41.4876" y1="46.8225" x2="78.5299" y2="35.7264" gradientUnits="userSpaceOnUse">
<stop stop-color="#CE2027"/>
<stop offset="1" stop-color="#BC2041"/>
</linearGradient>
<linearGradient id="paint2_linear_5762_46262" x1="65.1975" y1="39.8443" x2="59.7773" y2="19.2359" gradientUnits="userSpaceOnUse">
<stop stop-color="#CE2027"/>
<stop offset="1" stop-color="#BC2041"/>
</linearGradient>
<linearGradient id="paint3_linear_5762_46262" x1="83.1285" y1="33.3827" x2="59.1117" y2="48.3827" gradientUnits="userSpaceOnUse">
<stop stop-color="#CE2027"/>
<stop offset="1" stop-color="#BC2041"/>
</linearGradient>
<linearGradient id="paint4_linear_5762_46262" x1="75.8218" y1="37.7495" x2="49.3049" y2="45.8368" gradientUnits="userSpaceOnUse">
<stop stop-color="#DC2428"/>
<stop offset="1" stop-color="#BC2041"/>
</linearGradient>
<linearGradient id="paint5_linear_5762_46262" x1="55.0635" y1="28.7315" x2="85.283" y2="49.358" gradientUnits="userSpaceOnUse">
<stop stop-color="#EE3524"/>
<stop offset="1" stop-color="#D3212E"/>
</linearGradient>
<linearGradient id="paint6_linear_5762_46262" x1="47.2992" y1="25.3341" x2="74.9532" y2="25.3341" gradientUnits="userSpaceOnUse">
<stop stop-color="#F06657"/>
<stop offset="1" stop-color="#EC664E"/>
</linearGradient>
<linearGradient id="paint7_linear_5762_46262" x1="37.4951" y1="30.1655" x2="50.6718" y2="30.1655" gradientUnits="userSpaceOnUse">
<stop stop-color="#F37B26"/>
<stop offset="1" stop-color="#F15932"/>
</linearGradient>
<linearGradient id="paint8_linear_5762_46262" x1="45.0089" y1="25.135" x2="67.6828" y2="36.5344" gradientUnits="userSpaceOnUse">
<stop stop-color="#F15D37"/>
<stop offset="1" stop-color="#ED2D27"/>
</linearGradient>
<linearGradient id="paint9_linear_5762_46262" x1="62.5867" y1="19.8658" x2="88.9579" y2="2.1884" gradientUnits="userSpaceOnUse">
<stop stop-color="#F37268"/>
<stop offset="1" stop-color="#D15E68"/>
</linearGradient>
<linearGradient id="paint10_linear_5762_46262" x1="47.2992" y1="16.5829" x2="57.5381" y2="16.5829" gradientUnits="userSpaceOnUse">
<stop stop-color="#F3874D"/>
<stop offset="1" stop-color="#F36E50"/>
</linearGradient>
<linearGradient id="paint11_linear_5762_46262" x1="34.7819" y1="33.5819" x2="48.8831" y2="11.2422" gradientUnits="userSpaceOnUse">
<stop stop-color="#F58137"/>
<stop offset="1" stop-color="#F15F2A"/>
</linearGradient>
<linearGradient id="paint12_linear_5762_46262" x1="44.9046" y1="23.0614" x2="34.5064" y2="7.04796" gradientUnits="userSpaceOnUse">
<stop stop-color="#F58137"/>
<stop offset="1" stop-color="#F15F2A"/>
</linearGradient>
<linearGradient id="paint13_linear_5762_46262" x1="72.6556" y1="28.0556" x2="83.1175" y2="28.0556" gradientUnits="userSpaceOnUse">
<stop stop-color="#ED6C68"/>
<stop offset="1" stop-color="#DB4443"/>
</linearGradient>
</defs>
</svg>