<svg width="50" height="50" viewBox="0 0 50 50" fill="none" xmlns="http://www.w3.org/2000/svg">
<g clip-path="url(#clip0_9759_51783)">
<path d="M12.4999 0.000781059C5.59686 0.000781059 0 5.59681 0 12.5006V37.5012C0 44.4047 5.59686 50.0008 12.4999 50.0008H37.5005C44.404 50.0008 50.0008 44.4047 50.0008 37.5012V0.000781059H12.4999Z" fill="#B1EC52"/>
<path d="M13.6657 19.966C13.2567 18.1778 15.0409 16.5956 17.3487 16.5956C19.4275 16.5956 21.5112 17.0616 22.3041 19.96H24.9689V24.3832C21.6465 21.6522 14.4435 23.3657 13.6657 19.966ZM41.3164 18.7415H35.3134L29.6026 24.996V12.5001H24.9689V15.5278C24.8177 15.3326 24.6583 15.1387 24.4798 14.9494C22.7947 13.1657 20.3672 12.2613 17.2634 12.2613C13.674 12.2613 11.6332 13.8678 10.5531 15.2152C9.21159 16.8879 8.61263 19.1711 9.02714 21.0314C10.1009 25.8473 14.5696 26.6164 17.8524 27.0432C20.4442 27.3803 22.9237 27.8508 22.8579 30.1609C22.7892 32.5583 20.0868 33.1477 18.313 33.1477C13.6931 33.1477 13.5372 29.7329 13.5372 29.7329H8.5686C8.6412 31.0153 9.02873 33.074 10.6074 34.8407C12.336 36.7764 14.9287 37.7574 18.313 37.7574C20.909 37.7574 23.2739 36.9117 24.9689 35.4099V37.4738H29.6026V31.575L31.242 29.7817L35.9222 37.4738H41.3148L34.5042 26.2078L41.3164 18.7415Z" fill="#424B52"/>
</g>
<defs>
<clipPath id="clip0_9759_51783">
<rect width="50" height="50" fill="white"/>
</clipPath>
</defs>
</svg>
