<svg width="168" height="50" viewBox="0 0 168 50" fill="none" xmlns="http://www.w3.org/2000/svg">
<g clip-path="url(#clip0_9759_51812)">
<path d="M128.922 17.9495C128.816 18.0943 128.866 18.2446 128.866 18.3893V29.6636C128.849 30.6212 128.944 31.5732 129.155 32.5086C129.317 33.405 130.002 34.112 130.893 34.3069L132.585 34.7189C133.114 34.8525 132.785 35.2756 132.847 35.554C132.908 35.8324 132.685 35.8602 132.468 35.8602H124.061C123.838 35.8602 123.61 35.8602 123.683 35.5429C123.755 35.2255 123.41 34.8302 123.961 34.7133C124.512 34.5964 124.863 34.5073 125.314 34.3793C126.422 34.1955 127.235 33.2379 127.229 32.1133C127.313 31.3004 127.346 30.482 127.335 29.6636V18.9238C127.335 16.5465 126.617 15.5666 124.34 14.854L123.844 14.7092C123.443 14.5979 123.209 14.1803 123.321 13.7739C123.332 13.7405 123.343 13.7071 123.36 13.6737C123.415 13.5122 123.532 13.5289 123.638 13.5289H129.49C129.796 13.5289 129.885 13.746 130.018 13.9353L141.894 30.0032C142 30.1535 142.117 30.2983 142.234 30.443C142.395 30.3261 142.323 30.1814 142.323 30.0533V19.7144C142.339 18.7234 142.239 17.7324 142.028 16.7636C141.888 15.9897 141.315 15.3606 140.552 15.1602C139.934 14.9597 139.299 14.7927 138.659 14.6647C138.091 14.5645 138.437 14.1246 138.364 13.8351C138.292 13.5456 138.514 13.5178 138.743 13.5178H147.105C147.35 13.5178 147.528 13.579 147.456 13.8518C147.384 14.1246 147.734 14.57 147.15 14.6647C146.593 14.7593 146.042 14.8929 145.502 15.0544C144.745 15.2326 144.171 15.8561 144.06 16.63C143.921 17.2814 143.848 17.9439 143.843 18.612C143.843 24.2018 143.843 29.7861 143.843 35.3647C143.843 35.6097 144.032 35.9382 143.67 36.0829C143.18 36.2166 142.662 36.1163 142.256 35.8101L137.284 29.0957L129.289 18.2947C129.189 18.1611 129.128 17.9996 128.955 17.9272" fill="white"/>
<path d="M158.357 35.877H149.588C149.366 35.877 149.015 36.005 149.076 35.554C149.132 35.2367 148.814 34.7245 149.533 34.7356C149.972 34.7078 150.412 34.6521 150.846 34.5575C151.665 34.5185 152.3 33.8225 152.261 33.0041C152.261 32.9707 152.261 32.9429 152.255 32.915V17.0253C152.255 15.7003 151.966 15.305 150.691 14.9431C150.29 14.815 149.883 14.7259 149.466 14.6814C148.792 14.6814 149.104 14.158 149.054 13.8518C148.981 13.412 149.332 13.5289 149.56 13.5289H165.873C166.269 13.5289 166.397 13.618 166.385 14.0356C166.385 15.4831 166.385 16.9418 166.385 18.3949C166.385 18.5731 166.519 18.9183 166.152 18.8904C165.784 18.8626 165.316 19.1688 165.105 18.5842C164.754 17.5988 164.203 16.6913 163.496 15.9174C162.967 15.2549 162.182 14.8484 161.336 14.7983C159.537 14.6981 157.734 14.7983 155.935 14.7371C155.69 14.7371 155.601 14.8094 155.601 15.0544V23.3111C155.601 23.5839 155.707 23.6618 155.969 23.6507C157.004 23.6507 158.051 23.6507 159.092 23.5894C160.055 23.5338 160.901 22.9213 161.252 22.025C161.492 21.5183 161.653 20.9727 161.731 20.4159C161.787 20.0262 161.954 19.965 162.299 19.9817C163.112 19.9817 162.995 19.8759 162.995 20.6999V28.2272C162.995 28.4777 163.05 28.8006 162.644 28.7338C162.238 28.667 161.826 29.0233 161.742 28.3218C161.664 27.6593 161.475 27.019 161.174 26.4233C160.84 25.6327 160.1 25.0871 159.248 25.0036C158.14 24.9201 157.026 24.8922 155.918 24.9201C155.657 24.9201 155.596 25.0259 155.601 25.2597C155.601 27.6983 155.601 30.1368 155.601 32.5865C155.601 33.8003 156.108 34.3849 157.277 34.4684C159.265 34.7078 161.274 34.6688 163.245 34.3403C163.858 34.2345 164.403 33.8838 164.76 33.3771C165.573 32.2135 166.246 30.9608 166.77 29.6413C167.059 29.3073 167.527 29.1848 167.939 29.3351C168.045 29.4353 168 29.5578 167.994 29.6747C167.878 31.59 167.744 33.5163 167.633 35.4483C167.633 35.838 167.454 35.8714 167.126 35.8714H158.301" fill="white"/>
<path d="M85.545 25.822C87.0316 25.822 88.5181 25.822 90.0492 25.822C90.2552 25.822 90.5725 25.7385 90.489 26.1115C90.4055 26.4846 90.7952 26.9021 90.1549 27.0135C89.7652 27.0747 89.3699 27.1193 88.9913 27.2195C88.1117 27.2863 87.4547 28.049 87.5215 28.9287C87.5215 28.9454 87.5215 28.9621 87.5215 28.9788V34.1009C87.5215 34.3515 87.5215 34.5074 87.2431 34.6132C84.7656 35.7434 82.082 36.3558 79.3539 36.4115C74.2263 36.5117 69.7611 32.9318 68.7422 27.9043C67.9906 24.7809 68.4249 21.4905 69.956 18.6678C72.105 14.8039 76.3586 12.5992 80.757 13.0668C82.2769 13.206 83.7467 13.657 85.0885 14.3919C85.4114 14.5701 85.584 14.5422 85.7009 14.2137C85.8624 13.6904 86.4024 13.3842 86.9369 13.5178C87.2877 13.5178 87.3935 13.6236 87.4046 13.9855C87.4046 16.1624 87.477 18.3504 87.5048 20.5385C87.5048 20.8001 87.6663 21.1843 87.4046 21.2845C87.0538 21.3513 86.6919 21.3513 86.3412 21.2845C86.1352 21.2845 86.1686 21.0507 86.1352 20.917C85.8624 19.8982 85.5005 18.9016 85.044 17.944C84.3536 16.335 83.0007 15.099 81.336 14.5589C78.7972 13.824 76.0691 14.7204 74.4601 16.8193C73.2686 18.4562 72.556 20.3937 72.4001 22.4091C72.0271 24.9424 72.2999 27.5257 73.1851 29.9253C73.8978 32.1467 75.6181 33.9005 77.8229 34.6521C79.7492 35.298 81.8593 35.0975 83.6298 34.1009C84.0307 33.9395 84.2923 33.5498 84.3035 33.1211C84.387 31.7069 84.387 30.2872 84.3035 28.873C84.2589 27.9266 83.8636 27.5201 82.9283 27.264C82.2825 27.1137 81.6199 27.0079 80.9574 26.9578C80.3116 26.8966 80.6957 26.4178 80.6178 26.1394C80.5398 25.861 80.8071 25.822 81.052 25.822H85.5562" fill="white"/>
<path d="M63.2971 35.8769C61.8941 35.8769 60.4967 35.8769 59.0937 35.8769C58.7707 35.8769 58.5982 35.7934 58.6594 35.4538C58.7206 35.1142 58.4534 34.7523 59.0658 34.7245C59.7172 34.6966 60.3575 34.5741 60.9755 34.357C61.3374 34.2791 61.5712 33.9172 61.4877 33.5553C61.4821 33.5219 61.471 33.4885 61.4599 33.4606C61.3596 33.0987 61.226 32.748 61.098 32.3972C60.6303 31.1167 60.1459 29.8417 59.6838 28.5556C59.6281 28.2884 59.372 28.1047 59.0992 28.1436C56.7497 28.1436 54.4114 28.1436 52.0674 28.1436C51.8447 28.1436 51.6443 28.1436 51.5385 28.4165C50.9595 29.8529 50.4918 31.3338 50.1355 32.8482C49.9128 33.405 50.1801 34.0397 50.7424 34.2624C50.8092 34.2902 50.876 34.3069 50.9484 34.3236C51.5886 34.5686 52.2623 34.7078 52.9471 34.7467C53.5707 34.7467 53.2422 35.2311 53.309 35.5039C53.3758 35.7767 53.2032 35.8936 52.9026 35.8936H45.314C45.0802 35.8936 44.8185 35.8936 44.902 35.5707C44.9856 35.2478 44.6125 34.8135 45.2417 34.7412C46.8451 34.5741 48.1869 33.4495 48.6379 31.9073C50.9985 25.8387 53.3814 19.8091 55.7253 13.746C55.82 13.3841 56.1874 13.1559 56.5549 13.2338C56.9669 13.2338 57.2397 13.2338 57.4568 13.7739C59.8174 19.9483 62.2282 26.1059 64.5888 32.2915C64.9952 33.6277 66.1589 34.5964 67.5507 34.7412C68.2244 34.8302 67.8681 35.2979 67.9182 35.5986C67.9683 35.8992 67.6398 35.8936 67.4338 35.8936H63.3083M55.5917 18.1388C55.5416 18.1889 55.5026 18.2446 55.4636 18.3003C54.4169 21.0005 53.3758 23.7008 52.3236 26.401C52.1732 26.7796 52.4238 26.7072 52.6131 26.7072C54.5673 26.7072 56.5103 26.7072 58.4534 26.7072C58.8654 26.7072 58.9489 26.6237 58.7874 26.2284C58.2029 24.7976 57.6461 23.35 57.0838 21.908L55.5917 18.0831" fill="white"/>
<path d="M35.5263 13.5289C38.6052 13.5289 41.684 13.5289 44.7629 13.5289C45.1971 13.5289 45.3029 13.657 45.2918 14.069V19.1465C45.2918 19.3191 45.4087 19.6309 45.0579 19.5808C44.7072 19.5307 44.3286 19.8536 44.156 19.3191C43.7217 18.0553 43.0592 16.8806 42.1907 15.8617C41.723 15.2159 40.9714 14.8261 40.1752 14.815C39.2733 14.815 38.4382 14.815 37.5641 14.7593C37.3191 14.7593 37.2244 14.8429 37.2411 15.0823V32.8371C37.2411 33.5664 37.7589 34.2011 38.4771 34.3403C39.1341 34.5352 39.8022 34.6688 40.487 34.7356C41.1106 34.7969 40.7487 35.2478 40.8211 35.5262C40.8934 35.8046 40.693 35.877 40.4313 35.877H30.6269C30.265 35.877 30.2038 35.7155 30.2595 35.4427C30.3151 35.1699 30.0368 34.7579 30.6214 34.73C31.1837 34.6966 31.7404 34.6298 32.2972 34.5296C33.1824 34.524 33.8951 33.7947 33.8839 32.915C33.8839 32.8538 33.8839 32.7925 33.8728 32.7313C33.8728 26.8743 33.8728 21.0172 33.8728 15.1602C33.8728 14.8261 33.7837 14.7092 33.4385 14.7204C32.5366 14.7204 31.5567 14.7204 30.6214 14.8094C30.0757 14.8596 29.5635 15.1101 29.2016 15.5221C28.2329 16.5576 27.4868 17.7825 27.0136 19.1243C26.7742 19.5196 26.2898 19.6922 25.85 19.5363C25.7331 19.4528 25.7776 19.3191 25.7776 19.2022V13.8797C25.7776 13.4677 25.9947 13.5011 26.2564 13.5011H35.5319" fill="white"/>
<path d="M100.678 35.8769H92.4209C92.1593 35.8769 91.8642 35.8769 91.9533 35.4984C92.0423 35.1198 91.6916 34.7412 92.3485 34.7245C92.8107 34.7078 93.2672 34.641 93.7182 34.5352C94.4141 34.4461 94.9319 33.8504 94.9263 33.1489V17.2313C94.9263 15.7002 94.6479 15.3161 93.1892 14.8929C92.8997 14.7927 92.5935 14.7259 92.2873 14.687C92.0089 14.687 91.9199 14.5533 91.9254 14.275C91.9254 13.373 91.8642 13.5345 92.6548 13.5345H100.756C100.989 13.5345 101.379 13.373 101.323 13.8685C101.323 14.2026 101.541 14.6814 100.845 14.687C100.388 14.7371 99.9315 14.8261 99.4861 14.9486C98.818 15.0433 98.3058 15.5945 98.2724 16.2737C98.2613 16.4964 98.2613 16.7191 98.2724 16.9418V31.6011C98.2668 32.13 98.2947 32.6533 98.3615 33.1767C98.3615 33.8838 98.9071 34.4684 99.6142 34.5296C101.412 34.7968 103.239 34.7356 105.015 34.357C105.555 34.2345 106.028 33.9116 106.345 33.4551C107.214 32.2525 107.965 30.972 108.578 29.619C108.845 29.2572 109.313 29.1124 109.741 29.2572C109.858 29.3407 109.825 29.4743 109.814 29.5801C109.68 31.5955 109.535 33.6054 109.402 35.6097C109.402 35.9883 109.107 35.8714 108.906 35.8714H100.605" fill="white"/>
<path d="M116.595 13.5289H121.216C121.534 13.5289 121.723 13.5901 121.656 13.9409C121.589 14.2916 121.856 14.6591 121.244 14.6702C120.632 14.6925 120.025 14.7927 119.446 14.9764C118.75 15.0934 118.26 15.7169 118.31 16.4184V32.4974C118.31 33.7334 118.661 34.19 119.869 34.4795C120.364 34.5964 120.865 34.6799 121.372 34.7523C121.879 34.8247 121.595 35.2589 121.667 35.515C121.74 35.7711 121.667 35.8825 121.344 35.8825H111.891C111.646 35.8825 111.573 35.7934 111.568 35.5484C111.523 34.7913 111.512 34.7913 112.241 34.7189C112.737 34.6855 113.227 34.6242 113.717 34.5407C114.468 34.4516 115.008 33.7724 114.925 33.0208V16.5743C115.008 15.8951 114.552 15.2604 113.878 15.1268C113.255 14.8818 112.609 14.7148 111.941 14.6424C111.312 14.5812 111.623 14.119 111.573 13.8295C111.523 13.54 111.796 13.4955 112.03 13.4955L116.595 13.5289Z" fill="white"/>
<path d="M3.61889 36.1832C2.98419 36.1832 2.57034 35.9345 2.37733 35.4371C1.59231 33.4217 0.857399 31.4063 0.100215 29.4242C-0.0334051 29.1792 -0.0334051 28.8842 0.100215 28.6392C2.80603 23.5895 5.47844 18.5508 8.11745 13.5234C8.27891 13.206 8.39026 13.1281 8.71874 13.3508C12.7218 16.0176 16.7248 18.6733 20.7168 21.3179C20.9951 21.4961 21.0564 21.613 20.8615 21.9192C17.9274 26.4011 15.0045 30.9052 12.0927 35.426C11.9869 35.5986 11.8922 35.7489 11.6361 35.7601L3.61332 36.1832M5.67887 29.4186C4.46515 29.3797 3.45186 30.3317 3.41289 31.5399C3.41289 31.551 3.41289 31.5566 3.41289 31.5677C3.41846 32.7146 4.28142 33.6778 5.42277 33.8114C6.65876 33.8894 7.72215 32.954 7.80567 31.718C7.80567 31.6846 7.80567 31.6512 7.80567 31.6123C7.80567 30.4264 6.86476 29.4521 5.67887 29.4131" fill="#DB1F26"/>
</g>
<defs>
<clipPath id="clip0_9759_51812">
<rect width="168" height="50" fill="white"/>
</clipPath>
</defs>
</svg>
