<svg width="110" height="50" viewBox="0 0 110 50" fill="none" xmlns="http://www.w3.org/2000/svg">
<path d="M53.6139 9.04379L53.9778 9.41195C53.8628 9.28306 53.7415 9.16016 53.6139 9.04379ZM53.6139 9.04379L46.9671 2.35886C46.225 1.60888 45.3423 1.01427 44.3702 0.609392C43.3982 0.204516 42.356 -0.00259771 41.3039 2.45926e-05C41.0708 2.45926e-05 40.8376 0.0140936 40.6045 0.0351967L40.2851 0.0703679C40.1591 0.086781 40.0356 0.10554 39.912 0.126643C39.7885 0.147746 39.6532 0.175882 39.5273 0.20402C39.4434 0.222778 39.3618 0.246226 39.2802 0.267328C39.1333 0.304845 38.9841 0.344704 38.8396 0.389259C37.236 0.911949 35.8381 1.93159 34.846 3.30214C33.8538 4.67268 33.3184 6.32385 33.3163 8.01913C33.3607 7.26414 33.6847 4.28392 35.9556 2.98727C37.7741 1.94853 39.3455 2.85361 40.3853 3.84076L41.2666 4.7271L43.1854 6.6545C43.2472 6.7273 43.3142 6.79545 43.3859 6.85848C43.8755 7.29227 45.293 8.22081 47.8924 7.40248C50.5575 6.56303 52.7746 8.25597 53.6188 9.04379H53.6139ZM94.3488 29.0049L92.8779 30.4117C92.6612 30.6244 92.4276 30.8181 92.1783 30.9909C92.1626 31.0004 92.1478 31.0114 92.1339 31.0237C92.0829 31.0588 92.0364 31.087 91.9943 31.1104C91.8546 31.1856 91.7047 31.2386 91.5489 31.2675C90.9509 31.3443 90.3466 31.191 89.8564 30.8384C89.6308 30.689 89.4187 30.5203 89.2222 30.3343L89.0776 30.189C87.702 28.7821 86.0467 27.1196 84.2912 25.354L87.5226 22.1018L91.4415 26.0387C92.4441 27.054 93.428 28.0529 94.3515 28.9954L94.3488 29.0049ZM91.0265 17.5295C89.7351 16.2235 88.4621 14.9503 87.5293 13.9936L87.5503 13.9725C87.5503 13.9725 89.1662 11.9021 91.0476 11.9021H91.0758C92.2248 11.8739 93.2114 12.5211 93.9316 13.2128L94.6451 13.9303L94.2324 14.3406L91.022 17.5272L91.0265 17.5295ZM87.0024 21.5953C85.8556 22.7513 84.7527 23.8604 83.7688 24.8476C82.6171 23.6752 81.4376 22.5028 80.2715 21.3304L81.1157 20.4839L83.5029 18.0712C84.669 19.2436 85.8534 20.4394 87.0002 21.5883L87.0024 21.5953ZM82.9738 17.5436L80.5889 19.954L79.7447 20.7982L79.1619 20.2143L77.0052 18.036C78.1198 16.9293 79.2156 15.8413 80.2321 14.8284L82.9738 17.5436ZM79.8427 14.4391L76.6158 17.6421C75.2707 16.2845 73.9417 14.9386 72.9789 13.9631L73.5666 13.3676C74.2192 12.7884 75.3549 12.031 76.644 12.2632H76.7022H76.7304C77.5943 12.4628 78.3785 12.9186 78.9824 13.5716L79.8405 14.4274L79.8427 14.4391ZM72.5917 21.6821L69.3813 24.932C68.188 23.7291 66.9593 22.4934 65.7489 21.2812C66.043 20.9881 66.3321 20.6997 66.6119 20.416C67.0779 19.947 67.9664 19.0513 68.9619 18.043L68.978 18.0571L72.5966 21.7009L72.5917 21.6821ZM68.5703 17.6538C67.5747 18.6621 66.705 19.5484 66.2225 20.0244C65.9405 20.3081 65.6535 20.5988 65.3599 20.8896L64.693 20.2213L62.4477 17.9539L65.6558 14.7674C66.5886 15.6842 67.5676 16.662 68.5703 17.6538ZM65.3948 14.5071C64.385 15.5131 63.2964 16.594 62.189 17.6913C60.7901 16.2845 59.3913 14.8776 58.4236 13.8811L58.5798 13.7263C58.9576 13.3652 59.9509 12.4906 60.8855 12.2749C61.0274 12.2484 61.1706 12.2304 61.3148 12.221C61.3985 12.221 61.471 12.221 61.5336 12.221C62.436 12.221 63.4526 12.5656 64.4785 13.5974L65.3948 14.5141V14.5071ZM58.1671 21.7501L54.9733 24.9578C53.7374 23.7127 52.4644 22.4301 51.2124 21.1756C51.4899 20.8966 51.7674 20.6199 52.0333 20.3503L54.4066 17.9539C54.4415 17.9891 54.4764 18.022 54.5091 18.0571L58.1648 21.7361L58.1671 21.7501ZM54.1407 17.689L51.7697 20.0947L50.9492 20.9177L50.2496 20.2143L47.9183 17.8695L51.117 14.7017C52.0705 15.6396 53.1009 16.6643 54.1479 17.696L54.1407 17.689ZM50.9863 14.5704C49.9814 15.5693 48.9022 16.6432 47.7993 17.7359L45.5191 15.4286C44.8897 14.7932 44.3348 14.2304 43.9058 13.7873L44.2485 13.4497C44.7474 12.9807 45.7617 12.2257 47.0276 12.214C47.9394 12.214 48.9698 12.5422 50.0119 13.5903C50.3243 13.9069 50.6529 14.2351 50.9913 14.5704H50.9863ZM43.9104 21.9166L46.9412 24.9648L43.703 28.2334L40.6721 25.1852L43.9104 21.9283V21.9166ZM43.7822 21.797L40.5415 25.0562C39.3525 23.8581 38.1261 22.6224 36.9184 21.4101L36.6527 21.1428L37.4943 20.2987L39.8864 17.8813L40.4506 18.4393L41.3226 19.3209C42.1479 20.151 42.9732 20.9857 43.7822 21.797ZM39.7511 17.75L37.3591 20.1651L36.5174 21.0092L35.1722 19.6562L34.517 18.9927C34.1053 18.5582 33.8787 17.979 33.8857 17.3789C33.8927 16.7787 34.1326 16.205 34.5543 15.7803C34.7653 15.5677 35.0158 15.399 35.2917 15.284C35.5675 15.1688 35.8632 15.1096 36.1619 15.1096C36.4605 15.1096 36.7562 15.1688 37.0321 15.284C37.3079 15.399 37.5585 15.5677 37.7694 15.7803L37.7951 15.8061L38.2077 16.2211L39.7488 17.7523L39.7511 17.75ZM33.5029 26.0668C34.5031 27.0798 35.4846 28.081 36.4102 29.0236L35.5359 29.9005L34.9717 30.4445C34.7553 30.6572 34.5213 30.8509 34.2722 31.0237L34.2256 31.0542C34.172 31.0894 34.1254 31.1175 34.0834 31.1409C33.9443 31.2145 33.7949 31.2667 33.6404 31.2957C33.0428 31.3748 32.4377 31.2222 31.9478 30.8689C31.7217 30.7186 31.5088 30.5491 31.3113 30.3625L31.1691 30.2171L29.4042 28.4327L32.6239 25.1829L33.5005 26.0645L33.5029 26.0668ZM32.4934 25.0539L29.2806 28.3014C27.7069 26.7116 25.935 24.925 24.1514 23.1242L20.0504 18.9997C19.8343 18.7896 19.6619 18.5384 19.5434 18.2607C19.4248 17.9829 19.3624 17.6842 19.3598 17.3819C19.3572 17.0797 19.4145 16.78 19.5284 16.5002C19.6422 16.2204 19.8103 15.9662 20.0228 15.7525C20.2353 15.5388 20.488 15.3698 20.7662 15.2553C21.0444 15.1408 21.3424 15.0832 21.6429 15.0857C21.9435 15.0884 22.2405 15.1511 22.5167 15.2704C22.7929 15.3896 23.0427 15.563 23.2515 15.7803L23.2771 15.8061L23.6898 16.2211L25.9257 18.4393L27.954 20.4839L32.4957 25.0539H32.4934ZM43.9478 28.4984C45.0178 27.4151 46.1091 26.3154 47.1883 25.2157L48.0208 26.0528C48.9908 27.0352 49.9394 28.0013 50.8395 28.9181L48.8485 30.9205C48.8136 30.9534 48.7809 30.9791 48.7482 31.012L48.7039 31.0401C48.6524 31.0753 48.6059 31.1034 48.5638 31.1269C48.4246 31.2001 48.2755 31.2522 48.1211 31.2816C47.5235 31.3609 46.9184 31.2084 46.4282 30.8549C46.2022 30.7045 45.9895 30.5351 45.7921 30.3484L45.6476 30.203L43.9501 28.4843L43.9478 28.4984ZM55.2271 25.2016C56.202 24.2239 57.2906 23.1288 58.4236 21.987L61.3403 24.9179C60.2727 25.9965 59.1953 27.0821 58.1438 28.1467L55.2271 25.2016ZM58.531 28.5382L61.7342 25.3259L62.4616 26.0551C63.4249 27.0282 64.3666 27.9872 65.2596 28.897L63.6276 30.5383C63.2127 30.9088 62.5086 31.3965 61.8045 31.2418C61.7718 31.2346 61.74 31.2251 61.7087 31.2136C61.6697 31.2055 61.6312 31.1937 61.5945 31.1785C61.5363 31.1573 61.4777 31.1362 61.4173 31.1104H61.4034C61.2422 31.0397 61.0865 30.9574 60.937 30.8642C60.7109 30.7139 60.4979 30.5444 60.3004 30.3578L60.1581 30.2124C59.6478 29.6966 59.0999 29.1409 58.5261 28.5711L58.531 28.5382ZM69.7663 25.34L72.9789 22.1089L75.7228 24.8499L72.5102 28.0927L69.7708 25.3236L69.7663 25.34ZM73.0348 28.6062L76.2501 25.3611L76.9332 26.0457L79.691 28.8595L78.3785 30.1772C77.2384 31.3238 76.469 31.2887 76.2313 31.2418C75.9305 31.1583 75.644 31.0286 75.3826 30.8572C75.1561 30.7082 74.943 30.5396 74.7461 30.3531L74.6037 30.2077L73.0326 28.618L73.0348 28.6062ZM110 25.3353C109.953 26.0903 109.631 29.0705 107.358 30.3695C105.54 31.4059 103.969 30.5031 102.929 29.5136L102.068 28.618L100.152 26.6906L99.949 26.4889C99.9024 26.4467 99.8465 26.4021 99.7833 26.3529C97.8272 24.381 95.706 22.2449 93.6917 20.226L91.5605 18.0735C92.6657 16.9785 93.7593 15.8929 94.7664 14.8893L95.1675 14.4673L96.7364 16.0453L96.9369 16.2493C97.4266 16.6854 98.8416 17.6116 101.444 16.7933C104.106 15.9539 106.323 17.6468 107.167 18.4346L101.469 12.7016L100.203 11.4308C99.8675 11.1002 98.7229 10.0239 97.4566 9.51513C97.2422 9.43774 97.0112 9.3627 96.7574 9.2994H96.7248C96.0779 9.13914 95.4137 9.06035 94.7476 9.0649H94.6872C94.552 9.0649 94.4141 9.0649 94.2789 9.0649H94.2136C94.0739 9.0649 93.9338 9.0649 93.7893 9.0907L93.6496 9.10713H93.6098C93.4679 9.12586 93.3255 9.14697 93.1809 9.17511C93.0878 9.19154 92.9965 9.21026 92.9056 9.23138C90.7119 9.74724 89.2266 11.2503 88.6044 11.8833C88.4339 12.0404 88.2638 12.2045 88.0888 12.3781L88.0472 12.4203C87.9375 12.5258 87.8256 12.6337 87.7114 12.7485L86.993 13.4801L86.527 13.0112C86.4057 12.8892 86.2938 12.7767 86.1703 12.6618C85.993 12.4836 85.8207 12.3194 85.6479 12.16C84.699 11.1846 82.8221 9.39317 79.9967 9.41429C79.8893 9.41429 79.7868 9.41429 79.6842 9.42833C79.5817 9.44242 79.4931 9.42833 79.3951 9.4471C79.2971 9.46588 79.1968 9.4729 79.0988 9.48699H79.0455H79.0012L78.845 9.5104L78.7541 9.54326C76.1892 10.0122 74.2354 11.9396 74.2354 11.9396C74.063 12.1014 73.888 12.2679 73.7085 12.4484C73.5921 12.5586 73.4753 12.6829 73.3544 12.7931L72.5988 13.5645L72.0322 12.9901C71.9135 12.8681 71.7994 12.7556 71.6758 12.6407C71.5008 12.4625 71.3258 12.2984 71.1557 12.1389C70.1929 11.1658 68.3182 9.38381 65.4902 9.40492C65.3854 9.40492 65.2829 9.40492 65.1777 9.41897L64.9656 9.43306C65.3483 9.39551 67.7636 9.16106 64.8913 9.43306C64.7561 9.4471 64.6276 9.46588 64.4996 9.48699H64.4365C62.667 9.814 61.0426 10.6877 59.7897 11.9865C59.6174 12.1483 59.4424 12.3148 59.2655 12.493C59.1487 12.6055 59.0323 12.7274 58.911 12.84L58.1742 13.5903L57.5682 12.9736C57.4469 12.8517 57.335 12.7392 57.2114 12.6243C57.0342 12.4461 56.8618 12.2819 56.6913 12.1225C55.7168 11.1846 53.8399 9.39317 51.0096 9.41429C50.9326 9.41429 50.8556 9.41429 50.7764 9.41429C49.8091 9.42878 48.8557 9.64932 47.9788 10.0614L47.9183 10.0943C46.9734 10.6131 46.1158 11.2786 45.3767 12.0662C45.2044 12.2257 45.0321 12.3921 44.8548 12.5704C44.7358 12.6852 44.6215 12.8048 44.4957 12.922L43.7962 13.6466C43.6936 13.5434 43.598 13.4473 43.5164 13.3605L43.1597 13.0112C42.9848 12.8353 42.8123 12.6688 42.6421 12.5094C42.472 12.35 42.2131 12.1225 41.959 11.888L41.8308 11.759C40.3342 10.2545 38.3048 9.40924 36.1887 9.40924C34.0726 9.40924 32.0431 10.2545 30.5466 11.759C30.1326 12.1801 29.7659 12.6455 29.4532 13.1472C29.4532 13.1636 29.4322 13.1753 29.4228 13.1917C29.4135 13.2081 29.3949 13.241 29.3785 13.2644C29.3366 13.3394 29.2923 13.4121 29.2503 13.4848C29.2317 13.52 29.2083 13.5551 29.1897 13.5903C29.1174 13.5153 29.0428 13.4426 28.9822 13.377L28.6278 13.0229C28.4506 12.847 28.2781 12.6806 28.1079 12.5211C27.9377 12.3617 27.6953 12.1225 27.4411 11.888L27.3129 11.759C26.4709 10.9006 25.4462 10.2454 24.316 9.84272C23.1859 9.44013 21.9796 9.30062 20.788 9.43468C19.5964 9.56879 18.4507 9.97296 17.4369 10.6168C16.4231 11.2607 15.5678 12.1274 14.9352 13.1519L14.9049 13.1917C14.891 13.2152 14.8793 13.2386 14.8653 13.2597C14.8187 13.3347 14.7744 13.4121 14.7324 13.4942L14.6881 13.5692L14.5063 13.384C14.3873 13.2644 14.2731 13.1495 14.1496 13.0346C13.9723 12.8587 13.7998 12.6923 13.6296 12.5328C13.4594 12.3734 13.2193 12.1225 12.9675 11.888L12.8393 11.759C11.9378 10.8492 10.832 10.1707 9.6152 9.78069C8.39834 9.3907 7.10614 9.30062 5.84743 9.51805C4.58872 9.73553 3.40046 10.2541 2.3828 11.0302C1.36514 11.8062 0.547906 12.817 0 13.9772C2.67184 9.40492 5.31337 12.2726 5.31337 12.2726L9.22787 16.2094L11.4637 18.4276C12.1888 19.1615 12.9279 19.9048 13.6623 20.6434C15.6277 22.6247 17.5371 24.5451 19.0409 26.0551C20.4188 27.462 21.764 28.8219 22.9624 30.0412C25.9233 33.0168 28.3084 33.6123 30.4673 33.1715C30.4673 33.1715 32.9386 32.7729 34.3095 31.3707C34.3865 31.3004 34.4681 31.2206 34.5427 31.1362L34.5823 31.1034C34.608 31.0753 34.6359 31.0542 34.6616 31.026L36.5477 29.1502L37.4244 30.0459C40.3853 33.0215 42.7704 33.617 44.9291 33.1762C46.0522 32.9702 47.1256 32.5491 48.0907 31.9358C48.4667 31.7383 48.81 31.4827 49.1072 31.1785L51.096 29.1784L51.9425 30.0436C54.5534 32.6697 56.7195 33.4412 58.6756 33.284C60.3358 33.2114 61.9329 32.6232 63.2476 31.6005C63.5524 31.3761 63.8344 31.1216 64.0891 30.8408L65.5882 29.3331L65.6397 29.2839L66.3809 30.0412C69.342 33.0168 71.7291 33.6123 73.8858 33.1692C73.8858 33.1692 74.0608 33.1387 74.3383 33.073C74.3383 33.073 76.8351 32.6228 78.5697 31.0049C78.6319 30.9626 78.6878 30.9113 78.7353 30.8525L80.2039 29.3753L80.8543 30.0389C83.8153 33.0144 86.2007 33.61 88.3596 33.1668C88.3596 33.1668 90.8287 32.7658 92.1993 31.3637C92.3206 31.2558 92.4325 31.1292 92.5677 31.0167L94.4678 29.1197L95.3631 30.0365C95.6406 30.3156 95.911 30.5665 96.1791 30.8033L96.3492 30.9744C97.3411 31.9744 98.5797 32.6913 99.9373 33.0519C100.084 33.0941 100.229 33.1317 100.371 33.1621L100.564 33.1973C100.691 33.2207 100.814 33.2372 100.935 33.2536C101.291 33.3037 101.65 33.3303 102.01 33.3333C102.243 33.3333 102.476 33.3192 102.721 33.2981C102.821 33.2981 102.922 33.2747 103.02 33.263C103.118 33.2512 103.271 33.2278 103.395 33.2067C103.518 33.1856 103.651 33.1598 103.78 33.1293L104.027 33.0683C104.174 33.0285 104.32 32.991 104.465 32.9441C106.068 32.4235 107.466 31.4063 108.46 30.0379C109.453 28.6695 109.99 27.0201 109.995 25.3259" fill="#E72048"/>
<path fill-rule="evenodd" clip-rule="evenodd" d="M57.6953 45.9871C57.6953 40.6419 65.6434 40.6419 65.6434 45.9871C65.6434 51.3322 57.6953 51.3431 57.6953 45.9871ZM63.6184 45.9871C63.6184 43.204 59.7313 43.204 59.7313 45.9871C59.7313 48.7701 63.622 48.792 63.622 45.9871H63.6184ZM50.4871 49.8403V42.1102H53.8982C57.6077 42.1212 57.6077 47.8644 53.8982 47.8644H52.47V49.8403H50.4871ZM53.8872 43.8779C53.5751 43.8706 53.2482 43.8731 52.9297 43.8756C52.7735 43.8768 52.6194 43.8779 52.47 43.8779V46.0858H53.8872C54.9711 46.0858 55.0388 43.8889 53.8872 43.8779ZM74.2912 44.9588C73.9928 42.8953 72.2534 42.0224 70.6476 42.0224C68.6775 42.0224 66.6617 43.3482 66.6726 45.976C66.6836 48.6038 68.6775 49.9296 70.6476 49.9186C72.2973 49.9186 74.0367 49.0622 74.3242 46.8708H72.376C72.1655 47.698 71.4899 48.118 70.6476 48.118C69.474 48.1071 68.7215 47.1136 68.7215 45.976C68.7215 44.694 69.485 43.823 70.6476 43.823C71.4789 43.823 72.0648 44.1754 72.3431 44.9588H74.2912ZM79.35 42.0224C80.9557 42.0224 82.6933 42.8953 82.9935 44.9588H81.0436C80.7671 44.1754 80.1794 43.823 79.35 43.823C78.1873 43.823 77.4238 44.694 77.4238 45.976C77.4238 47.1136 78.1763 48.1071 79.35 48.118C80.1922 48.118 80.866 47.698 81.0765 46.8708H83.0302C82.7409 49.0622 81.0033 49.9186 79.3536 49.9186C77.3835 49.9296 75.3897 48.6038 75.3787 45.976C75.3677 43.3482 77.3799 42.0224 79.35 42.0224ZM84.5532 49.8512H85.2619L89.1692 46.0418V49.8402H91.2177V42.0773H90.4983L86.5801 45.8976V42.1101H84.5532V49.8512ZM93.9516 47.1029C92.0017 45.7808 92.5512 42.1285 95.5905 42.1102H98.9905V49.8403H97.0076V47.5668H95.9785L94.6493 49.8403H92.4356V49.5536L93.9516 47.1029ZM97.0076 45.7881V43.8779C96.8534 43.8779 96.6968 43.8767 96.5394 43.8755C96.222 43.8731 95.9013 43.8706 95.5905 43.8779C94.4625 43.8889 94.5174 45.7881 95.5905 45.7881H97.0076ZM40.967 42.0238C42.5727 42.0238 44.3102 42.8967 44.6087 44.962H42.6606C42.3841 44.1786 41.7964 43.8243 40.967 43.8243C39.8043 43.8243 39.0408 44.6972 39.0408 45.9774C39.0408 47.115 39.7933 48.1085 40.967 48.1194C41.8074 48.1194 42.483 47.7013 42.6935 46.8722H44.6416C44.3487 49.0581 42.6166 49.9127 40.967 49.9127C38.995 49.9237 37.003 48.5979 36.992 45.9701C36.981 43.3422 38.995 42.0238 40.967 42.0238ZM21.6799 49.8544H20.9713V42.1134H22.9981V45.8954L26.9182 42.0805H27.6377V49.8435H25.5889V46.0451L21.6799 49.8544ZM18.2818 42.0917H18.9904V49.8437H16.9654V46.3977L15.3175 48.1198H15.096L13.4481 46.3977V49.8437H11.4286V42.0917H12.161L15.1948 45.4481L18.2818 42.0917ZM29.6297 42.113V49.8431L31.6492 49.8413V46.8921C31.9045 46.899 32.1599 46.8843 32.4127 46.8482L34.1173 49.8413H36.3144V49.5308L34.2107 46.1306C35.7089 45.1764 35.7078 43.7711 35.7067 42.2409L35.7066 42.113H33.6687C33.6687 42.1796 33.669 42.2463 33.6692 42.3129C33.6736 43.6891 33.6779 45.0349 31.7865 45.0349H31.6437V42.113H29.6297Z" fill="white"/>
</svg>
