<svg width="127" height="80" viewBox="0 0 127 80" fill="none" xmlns="http://www.w3.org/2000/svg">
<g clip-path="url(#clip0_1_2)">
<path d="M36 18.6842V60.7143C36 64.0977 34.4951 65 31.5537 65H30.6645C27.8599 65 26.355 64.0977 26.355 60.7143V32.594H18.2834C15.4788 32.594 15 31.391 15 28.5338V27.8571C15 24.9248 15.4788 23.7218 18.2834 23.7218H26.355V18.6842C26.355 15.5263 27.7231 15 30.4593 15H31.8958C34.6319 15 36 15.5263 36 18.6842Z" fill="#E9330B"/>
<path d="M57.4349 65.696C54.4189 65.696 51.7393 65.0464 49.396 63.7472C47.076 62.448 45.2548 60.7196 43.9324 58.562C42.6332 56.3812 41.9836 53.9916 41.9836 51.3931L42.0532 28.8078C42.0532 26.163 42.7144 23.785 44.0368 21.6738C45.336 19.5394 47.1456 17.8342 49.4656 16.5582C51.7857 15.259 54.4421 14.6094 57.4349 14.6094C60.4973 14.6094 63.1653 15.2474 65.4389 16.5234C67.7125 17.7994 69.4989 19.5162 70.7981 21.6738C72.1205 23.8082 72.7817 26.1862 72.7817 28.8078L72.8513 51.3931C72.8513 53.9684 72.2017 56.3464 70.9025 58.5272C69.5801 60.708 67.7589 62.448 65.4389 63.7472C63.1421 65.0464 60.4741 65.696 57.4349 65.696ZM64.2209 51.3931L64.1513 28.8078C64.1513 27.1374 63.5249 25.7802 62.2721 24.7362C61.0425 23.6922 59.4301 23.1702 57.4349 23.1702C55.3933 23.1702 53.7577 23.6922 52.5281 24.7362C51.2984 25.7802 50.6836 27.1374 50.6836 28.8078V51.3931C50.6836 53.1563 51.2984 54.5484 52.5281 55.5692C53.7577 56.59 55.3933 57.1004 57.4349 57.1004C59.4301 57.1004 61.0541 56.59 62.3069 55.5692C63.5829 54.5484 64.2209 53.1563 64.2209 51.3931Z" fill="#E9330B"/>
<path d="M107.253 31.79C107.823 31.79 108.258 32.045 108.558 32.555C108.858 33.035 108.873 33.53 108.603 34.04L93.8881 62.39C93.1081 63.89 91.8631 64.64 90.1531 64.64H89.9731C89.4031 64.64 88.9681 64.4 88.6681 63.92C88.3681 63.41 88.3531 62.9 88.6231 62.39L103.338 34.04C104.118 32.54 105.363 31.79 107.073 31.79H107.253ZM105.678 56.18C105.678 59.36 106.623 60.95 108.513 60.95C110.403 60.95 111.348 59.36 111.348 56.18C111.348 52.97 110.403 51.365 108.513 51.365C106.623 51.365 105.678 52.97 105.678 56.18ZM102.438 49.565C103.878 48.005 105.903 47.225 108.513 47.225C111.123 47.225 113.148 48.005 114.588 49.565C116.028 51.125 116.748 53.33 116.748 56.18C116.748 59.03 116.028 61.235 114.588 62.795C113.148 64.325 111.123 65.09 108.513 65.09C105.903 65.09 103.878 64.325 102.438 62.795C100.998 61.235 100.278 59.03 100.278 56.18C100.278 53.33 100.998 51.125 102.438 49.565ZM91.5481 40.25C91.5481 37.07 90.6031 35.48 88.7131 35.48C86.8231 35.48 85.8781 37.07 85.8781 40.25C85.8781 43.46 86.8231 45.065 88.7131 45.065C90.6031 45.065 91.5481 43.46 91.5481 40.25ZM94.7881 46.865C93.3481 48.425 91.3231 49.205 88.7131 49.205C86.1031 49.205 84.0781 48.425 82.6381 46.865C81.1981 45.305 80.4781 43.1 80.4781 40.25C80.4781 37.4 81.1981 35.21 82.6381 33.68C84.0781 32.12 86.1031 31.34 88.7131 31.34C91.3231 31.34 93.3481 32.12 94.7881 33.68C96.2281 35.21 96.9481 37.4 96.9481 40.25C96.9481 43.1 96.2281 45.305 94.7881 46.865Z" fill="#E9330B"/>
</g>
<defs>
<clipPath id="clip0_1_2">
<rect width="127" height="80" fill="white"/>
</clipPath>
</defs>
</svg>
