<svg width="80" height="80" viewBox="0 0 80 80" fill="none" xmlns="http://www.w3.org/2000/svg">
<path d="M16.1795 27.1523C16.459 27.4327 16.7199 27.7296 16.9609 28.041C17.6171 28.8888 18.126 29.8444 18.4633 30.8679L19.9559 35.457C20.0807 35.8107 20.3124 36.117 20.6188 36.3337C20.9252 36.5504 21.2913 36.6667 21.6666 36.6667C22.042 36.6667 22.4081 36.5504 22.7145 36.3337C22.9879 36.1404 23.2017 35.8757 23.3333 35.5697C23.3492 35.5327 23.3639 35.4954 23.3774 35.457L24.87 30.8679C25.3341 29.4727 26.1176 28.2049 27.158 27.1653C28.1984 26.1257 29.4672 25.3429 30.8634 24.8791L35.456 23.3876C35.81 23.2628 36.1166 23.0314 36.3333 22.7252C36.5503 22.4191 36.6666 22.0532 36.6666 21.6782C36.6666 21.3031 36.5503 20.9373 36.3333 20.6311C36.1166 20.3249 35.81 20.0935 35.456 19.9687L35.3643 19.9458L30.7716 18.4543C29.3753 17.9905 28.1066 17.2077 27.0661 16.1681C26.0257 15.1285 25.2423 13.8607 24.7782 12.4655L23.2855 7.87632C23.1607 7.52262 22.9291 7.21635 22.6227 6.99969C22.3163 6.78302 21.9501 6.66669 21.5748 6.66669C21.1994 6.66669 20.8333 6.78302 20.5269 6.99969C20.2205 7.21635 19.9889 7.52262 19.864 7.87632L18.3714 12.4655L18.3333 12.5791C17.8742 13.9199 17.119 15.1408 16.1233 16.1513C15.0995 17.1902 13.8491 17.9784 12.4699 18.4543L7.87719 19.9458C7.52323 20.0706 7.21669 20.302 6.99989 20.6082C6.78306 20.9143 6.66663 21.2802 6.66663 21.6552C6.66663 22.0303 6.78306 22.3961 6.99989 22.7023C7.21669 23.0085 7.52323 23.2399 7.87719 23.3647L12.4699 24.8561C13.8686 25.3222 15.1389 26.1085 16.1795 27.1523ZM66.6663 23.3334C68.5073 23.3334 69.9996 24.8258 69.9996 26.6667V43.3334C69.9996 45.1744 68.5073 46.6667 66.6663 46.6667C64.8253 46.6667 63.333 45.1744 63.333 43.3334V34.714L44.0233 54.0237C43.398 54.6487 42.5503 55 41.6663 55C40.7823 55 39.9343 54.6487 39.3093 54.0237L33.3329 48.0474L15.6899 65.6904C14.3882 66.992 12.2776 66.992 10.9759 65.6904C9.67413 64.3887 9.67413 62.278 10.9759 60.9764L30.9759 40.9764C31.601 40.351 32.4488 40 33.3329 40C34.217 40 35.065 40.351 35.69 40.9764L41.6663 46.9527L58.619 30.0001L49.9996 30C48.1586 30 46.6663 28.5076 46.6663 26.6667C46.6663 24.8257 48.1586 23.3334 49.9996 23.3334L66.6663 23.3334ZM66.725 59.882L69.2763 60.7107L69.3273 60.7234C69.524 60.7927 69.6943 60.9214 69.815 61.0914C69.9353 61.2614 70 61.4647 70 61.673C70 61.8814 69.9353 62.0847 69.815 62.2547C69.6943 62.425 69.524 62.5534 69.3273 62.6227L66.776 63.4514C66.0003 63.709 65.2953 64.144 64.7173 64.7214C64.1393 65.299 63.7043 66.0034 63.4463 66.7784L62.617 69.328C62.5476 69.5244 62.419 69.6947 62.2486 69.815C62.0786 69.9354 61.8753 70 61.6666 70C61.458 70 61.2546 69.9354 61.0846 69.815C60.9143 69.6947 60.7856 69.5244 60.7163 69.328L59.887 66.7784C59.631 66.001 59.1963 65.294 58.6183 64.7144C58.04 64.1344 57.3343 63.6977 56.5573 63.4387L54.006 62.61C53.8093 62.5407 53.639 62.412 53.5183 62.242C53.398 62.072 53.3333 61.8687 53.3333 61.6604C53.3333 61.452 53.398 61.2487 53.5183 61.0787C53.639 60.9084 53.8093 60.78 54.006 60.7107L56.5573 59.882C57.3236 59.6177 58.0183 59.1797 58.587 58.6027C59.1556 58.0253 59.5833 57.3247 59.836 56.555L60.6653 54.0053C60.7346 53.809 60.8633 53.6387 61.0333 53.5184C61.2036 53.398 61.407 53.3334 61.6156 53.3334C61.8243 53.3334 62.0276 53.398 62.1976 53.5184C62.368 53.6387 62.4966 53.809 62.566 54.0053L63.3953 56.555C63.653 57.33 64.0883 58.0343 64.6663 58.612C65.2443 59.1894 65.9493 59.6244 66.725 59.882Z" fill="#E9330B"/>
</svg>
