<svg width="80" height="80" viewBox="0 0 80 80" fill="none" xmlns="http://www.w3.org/2000/svg">
<path d="M19.2137 29.4032C18.777 31.864 16.421 33.5321 13.9152 33.1383C11.3845 32.7403 9.65929 30.3905 10.0618 27.8895C9.92228 28.7601 10.0626 27.8843 10.0626 27.8843L10.0635 27.8789L10.0654 27.8675L10.0696 27.8423L10.0801 27.7826C10.088 27.7386 10.0979 27.6865 10.1098 27.6268C10.1338 27.5075 10.1666 27.357 10.2103 27.1797C10.2974 26.8262 10.4296 26.3596 10.6253 25.8168C11.0129 24.742 11.6735 23.3017 12.7809 21.8441C15.1239 18.7607 19.1883 16 25.547 16C30.777 16 35.4964 17.6343 38.5328 21.4457C41.5182 25.1929 42.126 30.1106 41.2556 35.1178C40.4445 39.7834 37.8326 42.6703 34.7234 44.5315C32.6678 45.7627 30.0929 46.6674 28.0748 47.3767C27.4959 47.5803 26.9628 47.7674 26.5009 47.9417C24.0496 48.867 22.4248 49.7465 21.3166 51.0354C20.7801 51.6595 20.2404 52.5289 19.852 53.8293H36.6828C39.2451 53.8293 41.3224 55.8821 41.3224 58.4146C41.3224 60.9471 39.2451 63 36.6828 63H14.6439C13.4134 63 12.2332 62.5167 11.3631 61.6569C10.493 60.7972 10.0042 59.6307 10.0042 58.4146C10.0042 52.6742 11.4642 48.3319 14.2452 45.0974C16.9286 41.9761 20.4047 40.4258 23.1905 39.3744C24.1463 39.014 24.9839 38.7182 25.7341 38.4536C27.4678 37.8419 28.7347 37.3949 29.9151 36.6883C31.1427 35.9532 31.8308 35.17 32.1101 33.5652C32.7142 30.0894 32.047 28.1291 31.242 27.1189C30.4884 26.173 28.9026 25.1707 25.547 25.1707C22.294 25.1707 20.9069 26.4223 20.2012 27.351C19.7844 27.8995 19.5214 28.4653 19.3664 28.8951C19.2909 29.1046 19.244 29.2637 19.2229 29.3491L19.2137 29.4032ZM19.2165 29.3868L19.2252 29.335L19.2244 29.3399L19.2229 29.3491L19.2202 29.3656L19.2165 29.3868ZM19.2137 29.4032L19.2165 29.3868L19.2117 29.4124L19.2137 29.4032ZM52.722 41.4162C50.91 39.6256 47.9724 39.6256 46.1605 41.4162C44.3486 43.2068 44.3486 46.1103 46.1605 47.9008L49.8391 51.5366L46.1605 55.1723C44.3486 56.9629 44.3486 59.8664 46.1605 61.6569C47.9724 63.4475 50.91 63.4475 52.722 61.6569L56.4006 58.0212L60.0796 61.6569C61.8915 63.4475 64.8291 63.4475 66.6411 61.6569C68.453 59.8664 68.453 56.9629 66.6411 55.1723L62.9625 51.5366L66.6411 47.9008C68.453 46.1103 68.453 43.2068 66.6411 41.4162C64.8291 39.6256 61.8915 39.6256 60.0796 41.4162L56.4006 45.052L52.722 41.4162Z" fill="#E9330B"/>
</svg>
