<svg width="80" height="80" viewBox="0 0 80 80" fill="none" xmlns="http://www.w3.org/2000/svg">
<path d="M37.5 43.3333V73.3333H24.1667C18.1836 73.3333 13.3333 68.483 13.3333 62.5V43.3333H37.5ZM66.6667 43.3333V62.5C66.6667 68.483 61.8163 73.3333 55.8333 73.3333H42.5V43.3333H66.6667ZM48.3333 6.66663C54.3163 6.66663 59.1667 11.5169 59.1667 17.5C59.1667 19.6499 58.5403 21.6535 57.4603 23.3384L65.8333 23.3333C68.1347 23.3333 70 24.8879 70 26.8055V36.5276C70 38.4453 68.1347 40 65.8333 40L42.5 39.9966V23.3333H37.5V39.9966L14.1667 40C11.8655 40 10 38.4453 10 36.5276V26.8055C10 24.8879 11.8655 23.3333 14.1667 23.3333L22.5397 23.3384C21.4596 21.6535 20.8333 19.6499 20.8333 17.5C20.8333 11.5169 25.6836 6.66663 31.6667 6.66663C35.0183 6.66663 38.0147 8.18883 40.002 10.5797C41.9853 8.18883 44.9817 6.66663 48.3333 6.66663ZM31.6667 11.6666C28.445 11.6666 25.8333 14.2783 25.8333 17.5C25.8333 20.5605 28.1904 23.0706 31.1882 23.314L31.6667 23.3333H37.5V17.5L37.4807 17.0215C37.2373 14.0237 34.7273 11.6666 31.6667 11.6666ZM48.3333 11.6666C45.1117 11.6666 42.5 14.2783 42.5 17.5V23.3333H48.3333C51.555 23.3333 54.1667 20.7216 54.1667 17.5C54.1667 14.2783 51.555 11.6666 48.3333 11.6666Z" fill="#E9330B"/>
</svg>
