<svg width="787" height="787" viewBox="0 0 787 787" fill="none" xmlns="http://www.w3.org/2000/svg">
<path d="M239.292 31.9021V393.772C239.292 478.821 308.642 548.216 393.719 548.216C478.76 548.216 548.122 478.821 548.122 393.796C548.122 310.655 481.819 242.494 399.422 239.506L398.904 239.487V240.005V308.455V308.923L399.371 308.954C443.556 311.892 478.705 348.814 478.705 393.796C478.705 440.599 440.535 478.79 393.719 478.79C346.878 478.79 308.697 440.598 308.697 393.772V9.79828C336.013 3.76226 364.356 0.5 393.494 0.5C610.598 0.5 786.5 176.442 786.5 393.476C786.5 610.511 610.598 786.5 393.506 786.5C176.45 786.5 0.5 610.511 0.5 393.476C0.5 271.913 55.7082 163.267 142.363 91.2154V393.772C142.363 532.224 255.284 645.081 393.719 645.081C532.118 645.081 645.003 532.224 645.003 393.796C645.003 257.297 535.221 145.613 399.416 142.546L398.904 142.534V143.046V211.472V211.957L399.389 211.972C496.994 215.001 575.621 295.5 575.621 393.796C575.621 493.954 493.917 575.655 393.719 575.655C293.532 575.655 211.792 493.954 211.78 393.772V45.0638C220.765 40.3231 229.924 35.904 239.292 31.9021Z" fill="url(#paint0_linear_11009_6480)" stroke="url(#paint1_linear_11009_6480)"/>
<defs>
<linearGradient id="paint0_linear_11009_6480" x1="393.5" y1="0" x2="393.5" y2="787" gradientUnits="userSpaceOnUse">
<stop stop-color="#D91936" stop-opacity="0.57"/>
<stop offset="1" stop-color="#D91935" stop-opacity="0"/>
</linearGradient>
<linearGradient id="paint1_linear_11009_6480" x1="393.5" y1="0" x2="393.5" y2="787" gradientUnits="userSpaceOnUse">
<stop stop-color="#D91936"/>
<stop offset="1" stop-color="#01D0F6" stop-opacity="0.05"/>
</linearGradient>
</defs>
</svg>
