<svg width="224" height="65" viewBox="0 0 224 65" fill="none" xmlns="http://www.w3.org/2000/svg">
<path d="M108.06 43.5958C108.281 43.3635 108.547 43.1785 108.843 43.0521C109.157 42.9193 109.495 42.8522 109.836 42.855C110.138 42.8554 110.437 42.9227 110.709 43.0521C110.992 43.1794 111.245 43.3647 111.45 43.5958C111.515 43.661 111.593 43.7119 111.679 43.7452C111.755 43.777 111.837 43.7952 111.92 43.7989C112.08 43.7989 112.233 43.736 112.346 43.6239C112.459 43.5119 112.522 43.3599 112.522 43.2015C112.524 43.0599 112.475 42.9222 112.384 42.8132C112.094 42.4802 111.742 42.2063 111.348 42.0067C110.873 41.7736 110.348 41.6608 109.818 41.6781V41.7259C109.304 41.72 108.793 41.8113 108.313 41.9947C107.862 42.1675 107.453 42.4298 107.108 42.7654C106.764 43.108 106.49 43.5138 106.301 43.9602C106.098 44.4424 105.998 44.9611 106.006 45.4836C105.999 46.0061 106.099 46.5245 106.301 47.007C106.488 47.4545 106.762 47.8607 107.108 48.2018C107.457 48.5303 107.866 48.7898 108.313 48.9665C108.793 49.15 109.304 49.2412 109.818 49.2354C110.343 49.2512 110.864 49.1405 111.336 48.9128C111.726 48.7016 112.08 48.4293 112.384 48.1063C112.422 48.0525 112.455 47.9943 112.48 47.933C112.502 47.8657 112.513 47.7948 112.51 47.7239C112.51 47.5676 112.452 47.4167 112.347 47.2998C112.294 47.2429 112.228 47.198 112.155 47.1681C112.083 47.1382 112.005 47.124 111.926 47.1265C111.835 47.1282 111.745 47.1464 111.661 47.1803C111.575 47.2158 111.497 47.2687 111.432 47.3356C111.23 47.5685 110.982 47.7577 110.703 47.8912C110.425 48.0166 110.124 48.0818 109.818 48.0824C109.477 48.0843 109.14 48.0193 108.825 47.8912C108.527 47.7702 108.26 47.5868 108.042 47.3535C107.817 47.118 107.639 46.8423 107.518 46.541C107.381 46.2093 107.314 45.8538 107.319 45.4956C107.316 45.1375 107.383 44.7823 107.518 44.4501C107.644 44.1349 107.828 43.8454 108.06 43.5958Z" fill="#121212"/>
<path d="M116.804 43.7272C116.601 43.7239 116.399 43.744 116.202 43.787C116.019 43.8308 115.843 43.897 115.678 43.9841C115.527 44.0625 115.384 44.1545 115.25 44.2589C115.134 44.3522 115.029 44.4585 114.937 44.5756V42.3472C114.935 42.2003 114.876 42.0599 114.771 41.9561C114.666 41.8522 114.525 41.7932 114.377 41.7916C114.299 41.788 114.22 41.801 114.148 41.8299C114.075 41.8587 114.009 41.9027 113.955 41.9589C113.903 42.0092 113.862 42.0697 113.834 42.1364C113.806 42.2032 113.792 42.2749 113.793 42.3472V48.5902C113.79 48.6663 113.803 48.7421 113.831 48.813C113.859 48.8839 113.901 48.9484 113.955 49.0024C114.007 49.0571 114.069 49.1004 114.139 49.1292C114.208 49.1581 114.283 49.1719 114.359 49.1697C114.516 49.1706 114.667 49.1106 114.78 49.0024C114.838 48.9527 114.883 48.891 114.913 48.8218C114.943 48.7525 114.958 48.6775 114.955 48.6021V45.4597C115.029 45.3665 115.109 45.2787 115.196 45.1968C115.291 45.1126 115.394 45.0367 115.503 44.9698C115.616 44.9019 115.738 44.8477 115.864 44.8085C115.994 44.7626 116.13 44.7404 116.268 44.7428C116.414 44.7433 116.56 44.7613 116.701 44.7966C116.822 44.827 116.935 44.8819 117.033 44.9579C117.122 45.0485 117.191 45.1563 117.237 45.2745C117.294 45.4378 117.32 45.6098 117.316 45.7823V48.5722C117.315 48.7252 117.373 48.8728 117.478 48.9844C117.531 49.0375 117.593 49.0793 117.663 49.107C117.732 49.1348 117.807 49.148 117.882 49.1458C118.038 49.1483 118.189 49.0904 118.303 48.9844C118.361 48.9336 118.406 48.8709 118.436 48.8007C118.466 48.7304 118.481 48.6545 118.478 48.5782V45.3701C118.494 45.1483 118.465 44.9256 118.393 44.7152C118.32 44.5048 118.206 44.311 118.056 44.1454C117.886 43.9973 117.687 43.8841 117.472 43.8124C117.257 43.7406 117.03 43.7117 116.804 43.7272Z" fill="#121212"/>
<path d="M123.675 44.1394C123.464 43.9817 123.222 43.8698 122.964 43.8109C122.69 43.7446 122.409 43.7125 122.127 43.7153C122.043 43.7094 121.959 43.7094 121.874 43.7153L121.591 43.7451C121.388 43.7769 121.187 43.8207 120.989 43.8766C120.806 43.9303 120.63 44.0066 120.465 44.1036C120.315 44.1896 120.182 44.3031 120.074 44.4381C120.016 44.5136 119.984 44.6059 119.983 44.701C119.979 44.7632 119.99 44.8256 120.015 44.8828C120.04 44.94 120.079 44.9903 120.128 45.0296C120.212 45.1019 120.318 45.144 120.429 45.149C120.512 45.15 120.593 45.1226 120.658 45.0714C120.837 44.9331 121.042 44.8298 121.26 44.7667C121.472 44.7007 121.694 44.6684 121.916 44.6711C122.232 44.6581 122.543 44.7484 122.802 44.928C122.911 45.0139 122.998 45.1241 123.057 45.2496C123.116 45.3752 123.144 45.5126 123.139 45.6509V46.4514C122.949 46.223 122.699 46.0514 122.416 45.9556C122.106 45.8406 121.778 45.7839 121.447 45.7883C121.224 45.7903 121.003 45.8245 120.79 45.8898C120.57 45.9476 120.365 46.0515 120.188 46.1945C120.011 46.3411 119.865 46.522 119.761 46.7262C119.653 46.9681 119.598 47.2296 119.598 47.4939C119.598 47.7582 119.653 48.0196 119.761 48.2616C119.86 48.4723 120.006 48.6581 120.188 48.8052C120.366 48.9498 120.571 49.0593 120.79 49.1278C121.002 49.1992 121.223 49.2356 121.447 49.2354C121.774 49.2428 122.1 49.1839 122.404 49.0621C122.69 48.9533 122.942 48.7745 123.139 48.5424C123.139 48.6519 123.164 48.76 123.211 48.859C123.258 48.9529 123.332 49.0316 123.422 49.086C123.518 49.1314 123.623 49.1539 123.729 49.1517C123.805 49.1537 123.88 49.1404 123.951 49.1127C124.021 49.085 124.085 49.0434 124.139 48.9904C124.245 48.8812 124.305 48.7359 124.307 48.5842H124.337V45.5971C124.347 45.2899 124.283 44.9848 124.151 44.707C124.039 44.4837 123.876 44.2894 123.675 44.1394ZM123.151 47.9031C123.017 48.0824 122.836 48.2211 122.627 48.3034C122.401 48.3933 122.16 48.438 121.916 48.4348C121.635 48.4483 121.358 48.3638 121.134 48.1959C121.034 48.1146 120.954 48.0124 120.899 47.8968C120.844 47.7811 120.815 47.6547 120.815 47.5268C120.815 47.3988 120.844 47.2724 120.899 47.1568C120.954 47.0411 121.034 46.9389 121.134 46.8576C121.357 46.6854 121.634 46.5966 121.916 46.6067C122.16 46.6036 122.401 46.6483 122.627 46.7382C122.834 46.8172 123.016 46.9516 123.151 47.1265V47.9031Z" fill="#121212"/>
<path d="M126.999 42.3472C127 42.2749 126.986 42.2032 126.958 42.1364C126.93 42.0696 126.889 42.0092 126.837 41.9589C126.786 41.9062 126.725 41.8642 126.658 41.8355C126.591 41.8067 126.518 41.7918 126.445 41.7916C126.286 41.7891 126.132 41.8492 126.018 41.9589C125.965 42.0092 125.924 42.0696 125.896 42.1364C125.868 42.2032 125.854 42.2749 125.855 42.3472V48.5902C125.852 48.7452 125.911 48.8952 126.018 49.0083C126.07 49.0608 126.133 49.1022 126.203 49.1299C126.272 49.1576 126.346 49.1712 126.421 49.1697C126.579 49.1707 126.731 49.1132 126.849 49.0083C126.904 48.9563 126.949 48.8933 126.979 48.8234C127.009 48.7535 127.024 48.6781 127.023 48.6021L126.999 42.3472Z" fill="#121212"/>
<path d="M129.637 42.3472C129.638 42.2749 129.624 42.2032 129.596 42.1364C129.568 42.0696 129.526 42.0092 129.474 41.9589C129.424 41.9062 129.363 41.8642 129.296 41.8355C129.228 41.8067 129.156 41.7918 129.083 41.7916C128.924 41.7891 128.77 41.8492 128.655 41.9589C128.603 42.0092 128.562 42.0696 128.534 42.1364C128.506 42.2032 128.492 42.2749 128.493 42.3472V48.5902C128.49 48.7452 128.548 48.8952 128.655 49.0083C128.708 49.0603 128.771 49.1013 128.841 49.129C128.91 49.1567 128.984 49.1705 129.059 49.1697C129.216 49.1707 129.369 49.1132 129.486 49.0083C129.542 48.9563 129.586 48.8933 129.616 48.8234C129.647 48.7535 129.662 48.6781 129.661 48.6021L129.637 42.3472Z" fill="#121212"/>
<path d="M135.912 45.5852C135.837 45.3136 135.719 45.0555 135.563 44.8205C135.417 44.5908 135.231 44.3885 135.015 44.2231C134.803 44.0566 134.565 43.9273 134.31 43.8407C134.029 43.7548 133.737 43.7125 133.443 43.7153C133.083 43.7108 132.727 43.7795 132.395 43.9172C132.064 44.0549 131.765 44.2586 131.516 44.5158C131.274 44.7713 131.086 45.0718 130.962 45.4C130.829 45.7432 130.762 46.1078 130.763 46.4753C130.753 46.8655 130.823 47.2535 130.968 47.6164C131.099 47.9402 131.291 48.2362 131.534 48.4886C131.783 48.7317 132.08 48.9208 132.407 49.0442C132.76 49.1734 133.133 49.2382 133.509 49.2354C133.838 49.2372 134.167 49.195 134.485 49.1099C134.79 49.0261 135.077 48.8885 135.334 48.7037C135.397 48.6711 135.448 48.6208 135.483 48.5592C135.517 48.4976 135.532 48.4273 135.526 48.3572C135.529 48.2908 135.516 48.2247 135.487 48.1644C135.459 48.1041 135.417 48.0515 135.364 48.0107C135.271 47.9285 135.151 47.8819 135.027 47.8792C134.945 47.8778 134.866 47.9007 134.798 47.9449C134.614 48.0646 134.41 48.1515 134.195 48.2018C134 48.2588 133.797 48.289 133.593 48.2915C133.166 48.3109 132.749 48.1629 132.431 47.8792C132.288 47.7494 132.171 47.5932 132.088 47.4192C132.004 47.2459 131.949 47.0603 131.925 46.8696H135.394C135.469 46.8707 135.544 46.8564 135.613 46.8276C135.683 46.7989 135.745 46.7562 135.797 46.7023C135.85 46.6523 135.893 46.5921 135.922 46.5253C135.951 46.4586 135.966 46.3867 135.966 46.314L136.02 46.2662C136.02 46.1452 136.004 46.0247 135.972 45.9078L135.912 45.5852ZM131.943 46.087C131.954 45.9191 131.99 45.7539 132.052 45.5971C132.117 45.4345 132.209 45.2832 132.323 45.1491C132.448 45.017 132.595 44.906 132.756 44.8205C132.955 44.732 133.171 44.6891 133.389 44.695C133.614 44.6899 133.838 44.7326 134.045 44.8205C134.221 44.8986 134.378 45.0149 134.503 45.161C134.725 45.4194 134.849 45.7472 134.852 46.087H131.943Z" fill="#121212"/>
<path d="M141.91 45.3999C141.936 44.9462 141.783 44.5002 141.482 44.1573C141.31 44.0033 141.108 43.8857 140.889 43.8117C140.669 43.7377 140.437 43.709 140.205 43.7272C140.003 43.7234 139.801 43.7435 139.603 43.7869C139.421 43.8308 139.245 43.897 139.079 43.9841C138.929 44.0625 138.786 44.1545 138.652 44.2589C138.534 44.3506 138.429 44.457 138.339 44.5755V44.3545C138.338 44.2818 138.323 44.2099 138.294 44.1432C138.265 44.0764 138.223 44.0162 138.17 43.9662C138.121 43.912 138.06 43.8691 137.993 43.8402C137.925 43.8113 137.852 43.7972 137.779 43.7989C137.7 43.7953 137.622 43.8083 137.55 43.8372C137.477 43.866 137.411 43.91 137.357 43.9662C137.303 44.0153 137.26 44.0754 137.231 44.1423C137.202 44.2093 137.187 44.2816 137.188 44.3545V48.5961C137.185 48.6728 137.199 48.7492 137.228 48.8203C137.257 48.8914 137.301 48.9555 137.357 49.0083C137.408 49.0631 137.471 49.1063 137.541 49.1352C137.61 49.164 137.685 49.1778 137.761 49.1756C137.918 49.1765 138.069 49.1165 138.182 49.0083C138.238 48.9579 138.283 48.8961 138.313 48.827C138.343 48.758 138.358 48.6833 138.357 48.6081V45.4657C138.419 45.3667 138.496 45.278 138.586 45.2028C138.686 45.1143 138.798 45.0381 138.917 44.9758C139.035 44.9121 139.157 44.8582 139.284 44.8145C139.484 44.7479 139.696 44.7278 139.905 44.7557C140.114 44.7837 140.314 44.859 140.489 44.9758C140.598 45.084 140.682 45.2155 140.733 45.3604C140.784 45.5052 140.801 45.6597 140.784 45.8122V48.5782C140.783 48.7312 140.841 48.8787 140.946 48.9904C140.999 49.0435 141.061 49.0852 141.131 49.113C141.2 49.1407 141.275 49.1539 141.35 49.1517C141.506 49.1543 141.657 49.0964 141.771 48.9904C141.829 48.9396 141.874 48.8768 141.904 48.8066C141.934 48.7364 141.949 48.6604 141.946 48.5842H141.916L141.91 45.3999Z" fill="#121212"/>
<path d="M148.239 44.3545C148.24 44.2799 148.226 44.2058 148.197 44.1369C148.168 44.0681 148.125 44.0059 148.07 43.9542C148.02 43.901 147.96 43.8586 147.892 43.8298C147.825 43.801 147.752 43.7864 147.679 43.787C147.522 43.786 147.37 43.846 147.257 43.9542C147.201 44.007 147.157 44.0711 147.128 44.1422C147.099 44.2133 147.086 44.2898 147.089 44.3664V44.5755C146.887 44.3223 146.629 44.118 146.336 43.9781C146.049 43.8335 145.731 43.7577 145.409 43.7571C145.088 43.7566 144.771 43.8196 144.475 43.9423C144.19 44.0604 143.935 44.24 143.728 44.468C143.511 44.714 143.349 45.0032 143.253 45.3163C143.14 45.6862 143.085 46.071 143.09 46.4574C143.08 46.8489 143.139 47.239 143.265 47.6104C143.364 47.9245 143.531 48.2137 143.752 48.4587C143.958 48.6834 144.211 48.8608 144.493 48.9785C144.787 49.0993 145.103 49.1584 145.421 49.1517C145.748 49.1576 146.072 49.0794 146.36 48.9247C146.64 48.7753 146.888 48.5722 147.089 48.3273V48.9247C147.097 49.1601 147.054 49.3944 146.962 49.6117C146.883 49.7895 146.758 49.9438 146.601 50.0598C146.451 50.1665 146.281 50.2436 146.101 50.2868C145.917 50.3286 145.73 50.3506 145.541 50.3525C145.299 50.3533 145.058 50.3231 144.824 50.2629C144.606 50.2071 144.401 50.1075 144.222 49.9702C144.146 49.9187 144.056 49.8916 143.963 49.8925C143.896 49.8917 143.83 49.9041 143.768 49.929C143.706 49.9538 143.649 49.9907 143.602 50.0374C143.554 50.084 143.516 50.1396 143.49 50.2009C143.465 50.2622 143.451 50.3279 143.451 50.3943C143.449 50.4999 143.483 50.6031 143.548 50.6871C143.657 50.8102 143.79 50.9099 143.939 50.9798C144.1 51.0629 144.27 51.129 144.445 51.1769C144.629 51.2344 144.819 51.2705 145.011 51.2845C145.195 51.3077 145.38 51.3197 145.565 51.3203C145.73 51.3294 145.894 51.3294 146.059 51.3203C146.219 51.3032 146.378 51.2773 146.535 51.2427C146.848 51.1657 147.144 51.032 147.408 50.8484C147.676 50.6536 147.893 50.3974 148.04 50.1016C148.215 49.7279 148.297 49.3184 148.281 48.9068V48.8769L148.239 44.3545ZM146.842 47.6821C146.742 47.7717 146.63 47.8481 146.511 47.9091C146.393 47.9799 146.265 48.0323 146.131 48.0644C145.802 48.154 145.452 48.1309 145.138 47.9987C144.956 47.9267 144.795 47.8119 144.668 47.6642C144.538 47.5028 144.436 47.3211 144.367 47.1265C144.285 46.9087 144.247 46.6776 144.252 46.4454C144.247 46.2113 144.285 45.9783 144.367 45.7584C144.435 45.5686 144.537 45.3925 144.668 45.2387C144.795 45.0931 144.957 44.9804 145.138 44.9101C145.452 44.7779 145.802 44.7548 146.131 44.8444C146.197 44.8589 146.261 44.8789 146.324 44.9041C146.388 44.9289 146.448 44.961 146.505 44.9997C146.622 45.0623 146.731 45.1385 146.83 45.2267C146.92 45.3073 147.001 45.3975 147.071 45.4955V47.4013C147.009 47.5058 146.932 47.6005 146.842 47.6821Z" fill="#121212"/>
<path d="M154.52 45.5852C154.445 45.3136 154.327 45.0555 154.171 44.8205C153.869 44.3701 153.427 44.0301 152.912 43.8526C152.633 43.7663 152.343 43.7239 152.051 43.7272C151.681 43.7245 151.314 43.7978 150.973 43.9423C150.654 44.0854 150.366 44.2882 150.124 44.5397C149.882 44.7966 149.692 45.0966 149.564 45.4239C149.436 45.7681 149.37 46.1322 149.371 46.4992C149.361 46.8893 149.431 47.2774 149.576 47.6402C149.707 47.9641 149.899 48.2601 150.142 48.5125C150.391 48.7555 150.689 48.9447 151.015 49.0681C151.368 49.1973 151.741 49.2621 152.117 49.2593C152.447 49.2611 152.775 49.2189 153.093 49.1338C153.398 49.0487 153.685 48.9112 153.942 48.7275C154.004 48.6938 154.055 48.6433 154.089 48.582C154.123 48.5206 154.139 48.451 154.135 48.3811C154.137 48.3146 154.124 48.2486 154.096 48.1883C154.067 48.128 154.025 48.0753 153.972 48.0345C153.879 47.9523 153.759 47.9057 153.635 47.9031C153.554 47.9017 153.474 47.9246 153.406 47.9688C153.222 48.0885 153.018 48.1754 152.804 48.2257C152.608 48.2827 152.405 48.3129 152.202 48.3153C151.775 48.3348 151.357 48.1867 151.039 47.9031C150.896 47.7733 150.779 47.617 150.696 47.4431C150.612 47.2697 150.558 47.0842 150.533 46.8935H154.002C154.077 46.8946 154.152 46.8803 154.221 46.8515C154.291 46.8227 154.354 46.7801 154.406 46.7262C154.459 46.6761 154.501 46.6159 154.53 46.5492C154.559 46.4825 154.574 46.4106 154.574 46.3379L154.622 46.2901C154.624 46.1693 154.61 46.0488 154.58 45.9317L154.52 45.5852ZM150.551 46.087C150.562 45.9191 150.598 45.7538 150.66 45.5971C150.726 45.4345 150.817 45.2832 150.931 45.149C151.057 45.017 151.203 44.906 151.364 44.8205C151.554 44.7363 151.759 44.6935 151.967 44.695C152.192 44.6904 152.416 44.7332 152.623 44.8205C152.799 44.9001 152.955 45.0162 153.081 45.161C153.191 45.2983 153.281 45.4514 153.346 45.615C153.397 45.7673 153.426 45.9264 153.43 46.087H150.551Z" fill="#121212"/>
<path d="M160.735 48.16H160.494C160.426 48.1619 160.358 48.1477 160.296 48.1186C160.234 48.0895 160.18 48.0464 160.139 47.9927C160.029 47.8624 159.973 47.6961 159.982 47.5267V44.8205H160.626C160.725 44.8166 160.821 44.7847 160.902 44.7288C160.983 44.6729 161.046 44.5951 161.084 44.5047C161.122 44.4143 161.133 44.315 161.116 44.2185C161.099 44.1221 161.054 44.0324 160.988 43.9602C160.941 43.9114 160.885 43.8724 160.823 43.8457C160.761 43.819 160.694 43.8051 160.626 43.8049H159.982V42.9446C159.984 42.8695 159.971 42.7948 159.943 42.7249C159.915 42.6551 159.873 42.5916 159.819 42.5383C159.769 42.4865 159.708 42.4454 159.64 42.4177C159.573 42.3899 159.501 42.3761 159.428 42.377C159.27 42.3729 159.116 42.4309 159 42.5383C158.895 42.65 158.837 42.7976 158.838 42.9506V43.8765H158.404C158.337 43.8768 158.27 43.8907 158.208 43.9174C158.145 43.9441 158.089 43.9831 158.043 44.0319C157.994 44.0779 157.956 44.1337 157.931 44.1955C157.907 44.2574 157.895 44.3238 157.898 44.3903C157.898 44.4567 157.91 44.5226 157.935 44.5842C157.96 44.6458 157.997 44.7018 158.044 44.749C158.091 44.7963 158.147 44.8338 158.209 44.8594C158.271 44.8849 158.337 44.8981 158.404 44.8981H158.838V47.8852C158.824 48.0672 158.847 48.2502 158.904 48.4235C158.962 48.5968 159.054 48.757 159.175 48.8948C159.312 49.0176 159.473 49.1116 159.648 49.1711C159.823 49.2306 160.008 49.2545 160.193 49.2413C160.35 49.2449 160.507 49.2349 160.663 49.2114C160.776 49.1949 160.887 49.1585 160.988 49.1039C161.064 49.0608 161.13 49.0016 161.18 48.9307C161.227 48.8622 161.251 48.7804 161.247 48.6977V48.6559C161.249 48.5252 161.204 48.3979 161.12 48.2974C161.069 48.2488 161.009 48.2114 160.942 48.1877C160.876 48.1641 160.805 48.1546 160.735 48.16Z" fill="#121212"/>
<path d="M165.131 43.7272C164.928 43.7239 164.726 43.744 164.529 43.787C164.347 43.8328 164.171 43.899 164.005 43.9841C163.856 44.0624 163.715 44.1544 163.583 44.2589C163.465 44.3522 163.358 44.4584 163.264 44.5755V42.3472C163.265 42.2749 163.251 42.2032 163.223 42.1364C163.195 42.0696 163.154 42.0092 163.101 41.9589C163.052 41.905 162.991 41.8623 162.924 41.8334C162.856 41.8046 162.783 41.7903 162.71 41.7916C162.631 41.7879 162.552 41.8009 162.478 41.8297C162.404 41.8586 162.338 41.9026 162.282 41.9589C162.23 42.0092 162.189 42.0696 162.161 42.1364C162.133 42.2032 162.119 42.2749 162.12 42.3472V48.5902C162.117 48.6663 162.13 48.7421 162.158 48.813C162.186 48.8839 162.228 48.9484 162.282 49.0024C162.334 49.0568 162.397 49.0999 162.466 49.1287C162.536 49.1575 162.611 49.1715 162.686 49.1697C162.845 49.1722 162.999 49.112 163.113 49.0024C163.17 48.9519 163.214 48.8901 163.245 48.821C163.275 48.752 163.29 48.6773 163.288 48.6021V45.4597C163.36 45.3651 163.441 45.2771 163.529 45.1968C163.624 45.1142 163.724 45.0383 163.83 44.9698C163.944 44.9031 164.065 44.849 164.191 44.8085C164.321 44.763 164.458 44.7408 164.595 44.7428C164.743 44.7434 164.891 44.7614 165.035 44.7966C165.153 44.827 165.264 44.8819 165.36 44.9579C165.451 45.047 165.521 45.1552 165.564 45.2745C165.624 45.437 165.651 45.6096 165.643 45.7823V48.5722C165.642 48.7252 165.7 48.8728 165.805 48.9844C165.858 49.0369 165.921 49.0783 165.99 49.106C166.06 49.1337 166.134 49.1473 166.209 49.1457C166.367 49.1468 166.519 49.0893 166.636 48.9844C166.692 48.9326 166.737 48.8697 166.767 48.7997C166.797 48.7297 166.812 48.6543 166.811 48.5782V45.3701C166.826 45.1479 166.797 44.9249 166.723 44.7145C166.65 44.504 166.534 44.3105 166.383 44.1454C166.213 43.997 166.014 43.8837 165.799 43.8119C165.584 43.7401 165.357 43.7113 165.131 43.7272Z" fill="#121212"/>
<path d="M173.098 45.5852C173.026 45.3127 172.908 45.0542 172.749 44.8205C172.451 44.3686 172.011 44.028 171.496 43.8527C171.217 43.7667 170.927 43.7243 170.635 43.7272C170.275 43.7219 169.917 43.7902 169.585 43.9279C169.252 44.0657 168.952 44.2698 168.702 44.5277C168.462 44.7848 168.274 45.0849 168.148 45.4119C168.016 45.7552 167.948 46.1197 167.949 46.4872C167.941 46.8778 168.013 47.2659 168.16 47.6283C168.289 47.9532 168.481 48.2497 168.726 48.5005C168.974 48.7448 169.272 48.9342 169.599 49.0561C169.952 49.1864 170.325 49.2512 170.701 49.2473C171.029 49.2487 171.355 49.2065 171.671 49.1218C171.976 49.038 172.264 48.9004 172.52 48.7156C172.583 48.6832 172.636 48.6332 172.671 48.5717C172.707 48.5102 172.723 48.4398 172.719 48.3691C172.721 48.3027 172.708 48.2366 172.68 48.1764C172.651 48.1161 172.609 48.0634 172.556 48.0226C172.461 47.94 172.339 47.8934 172.213 47.8912C172.132 47.8897 172.052 47.9126 171.984 47.9569C171.799 48.0759 171.596 48.1628 171.382 48.2138C171.186 48.2703 170.983 48.3005 170.78 48.3034C170.552 48.3081 170.325 48.2717 170.111 48.1959C169.93 48.1199 169.761 48.0172 169.611 47.8912C169.468 47.7626 169.353 47.606 169.274 47.4312C169.185 47.2601 169.129 47.0734 169.111 46.8815H172.58C172.655 46.8819 172.73 46.8673 172.799 46.8386C172.868 46.8099 172.931 46.7676 172.984 46.7143C173.036 46.6639 173.077 46.6035 173.105 46.5367C173.133 46.47 173.147 46.3982 173.146 46.3259L173.2 46.2781C173.199 46.1575 173.185 46.0374 173.158 45.9197L173.098 45.5852ZM169.129 46.087C169.14 45.9191 169.176 45.7539 169.238 45.5971C169.304 45.4345 169.395 45.2832 169.509 45.149C169.637 45.0169 169.785 44.9059 169.948 44.8205C170.147 44.732 170.363 44.689 170.581 44.695C170.804 44.6903 171.026 44.7331 171.231 44.8205C171.408 44.8985 171.564 45.0149 171.689 45.161C171.911 45.4193 172.035 45.7472 172.038 46.087H169.129Z" fill="#121212"/>
<path d="M179.945 41.8633C179.826 41.8109 179.701 41.7748 179.572 41.7558C179.422 41.7409 179.271 41.7389 179.12 41.7498C178.897 41.741 178.674 41.779 178.467 41.8613C178.259 41.9437 178.071 42.0685 177.916 42.2277C177.756 42.404 177.634 42.6099 177.556 42.8335C177.477 43.057 177.444 43.2938 177.458 43.5301V43.8586H177.018C176.952 43.8572 176.886 43.8697 176.825 43.8955C176.763 43.9212 176.708 43.9596 176.663 44.008C176.614 44.0541 176.575 44.1097 176.548 44.1713C176.521 44.2329 176.507 44.2993 176.507 44.3664C176.503 44.433 176.515 44.4994 176.54 44.5612C176.565 44.6231 176.603 44.6789 176.651 44.7249C176.697 44.7733 176.752 44.8119 176.813 44.8386C176.874 44.8653 176.94 44.8795 177.006 44.8802H177.446V48.6021C177.445 48.7551 177.503 48.9026 177.609 49.0143C177.661 49.0668 177.724 49.1082 177.794 49.1359C177.863 49.1636 177.937 49.1771 178.012 49.1756C178.17 49.1767 178.322 49.1191 178.44 49.0143C178.496 48.9625 178.54 48.8996 178.57 48.8296C178.6 48.7596 178.615 48.6842 178.614 48.6081V44.8922H179.216C179.283 44.8942 179.35 44.8824 179.412 44.8578C179.474 44.8331 179.531 44.796 179.578 44.7488C179.669 44.6519 179.719 44.5232 179.716 44.3904C179.717 44.3236 179.704 44.2573 179.678 44.1957C179.652 44.134 179.614 44.0783 179.566 44.0319C179.519 43.9831 179.463 43.9441 179.401 43.9174C179.339 43.8907 179.272 43.8768 179.204 43.8766H178.572V43.542C178.555 43.3099 178.626 43.08 178.771 42.8968C178.838 42.8246 178.92 42.7679 179.012 42.7307C179.103 42.6936 179.202 42.6768 179.301 42.6817C179.402 42.68 179.502 42.6983 179.596 42.7355C179.668 42.7682 179.746 42.7864 179.825 42.7893C179.93 42.7913 180.031 42.7527 180.108 42.6817C180.154 42.641 180.19 42.5901 180.213 42.533C180.236 42.476 180.245 42.4144 180.24 42.3532H180.276C180.275 42.2561 180.239 42.1627 180.174 42.0903C180.11 42.0029 180.033 41.9263 179.945 41.8633Z" fill="#121212"/>
<path d="M185.287 44.3425C185.288 44.2702 185.274 44.1985 185.246 44.1317C185.218 44.065 185.176 44.0046 185.124 43.9542C185.074 43.9015 185.013 43.8595 184.946 43.8308C184.878 43.802 184.806 43.7871 184.733 43.7869C184.573 43.7844 184.42 43.8446 184.305 43.9542C184.253 44.0046 184.211 44.065 184.183 44.1317C184.156 44.1985 184.142 44.2702 184.143 44.3425V47.5208C183.984 47.7042 183.797 47.8615 183.589 47.9867C183.35 48.1281 183.077 48.2005 182.8 48.1958C182.653 48.1954 182.508 48.1773 182.366 48.1421C182.242 48.1101 182.127 48.0509 182.029 47.9688C181.93 47.8778 181.854 47.7654 181.806 47.6402C181.761 47.4809 181.741 47.3157 181.746 47.1504V44.3545C181.747 44.2816 181.733 44.2093 181.704 44.1423C181.674 44.0753 181.631 44.0153 181.577 43.9661C181.528 43.912 181.467 43.8691 181.4 43.8402C181.332 43.8113 181.259 43.7972 181.186 43.7989C181.107 43.7953 181.029 43.8083 180.957 43.8372C180.884 43.866 180.818 43.91 180.764 43.9661C180.71 44.0153 180.667 44.0753 180.638 44.1423C180.609 44.2093 180.594 44.2816 180.596 44.3545V47.5745C180.567 48.0228 180.716 48.4645 181.011 48.8052C181.183 48.9588 181.385 49.0757 181.605 49.1487C181.825 49.2216 182.057 49.2491 182.288 49.2294C182.674 49.2377 183.057 49.1516 183.402 48.9785C183.691 48.8267 183.95 48.6243 184.167 48.381V48.5662C184.164 48.7213 184.222 48.8712 184.329 48.9844C184.382 49.0375 184.444 49.0792 184.514 49.107C184.583 49.1348 184.658 49.1479 184.733 49.1457C184.89 49.1456 185.042 49.0882 185.16 48.9844C185.215 48.9321 185.259 48.8689 185.288 48.7989C185.317 48.729 185.331 48.6538 185.329 48.5782H185.287V44.3425Z" fill="#121212"/>
<path d="M188.9 48.16H188.659C188.59 48.1615 188.521 48.1471 188.459 48.1181C188.396 48.0891 188.341 48.0462 188.298 47.9928C188.191 47.8616 188.137 47.6953 188.147 47.5268V44.8205H188.792C188.858 44.8228 188.923 44.8111 188.985 44.7864C189.046 44.7617 189.101 44.7245 189.147 44.6771C189.24 44.5805 189.291 44.4521 189.291 44.3187C189.291 44.1852 189.24 44.0569 189.147 43.9602C189.102 43.9113 189.047 43.8722 188.986 43.8455C188.925 43.8187 188.858 43.8049 188.792 43.8049H188.153V42.9446C188.155 42.8695 188.142 42.7948 188.114 42.725C188.086 42.6551 188.044 42.5917 187.991 42.5384C187.939 42.4863 187.877 42.4452 187.809 42.4175C187.74 42.3898 187.667 42.376 187.593 42.3771C187.512 42.3697 187.431 42.3801 187.354 42.4076C187.278 42.435 187.208 42.4788 187.151 42.5358C187.093 42.5928 187.049 42.6616 187.022 42.7375C186.994 42.8133 186.984 42.8942 186.991 42.9745V43.9005H186.551C186.484 43.9008 186.417 43.9147 186.355 43.9414C186.293 43.9681 186.237 44.007 186.19 44.0558C186.144 44.103 186.107 44.1592 186.083 44.2208C186.06 44.2825 186.049 44.3483 186.052 44.4142C186.049 44.5471 186.098 44.6758 186.19 44.7727C186.237 44.8207 186.293 44.8587 186.355 44.8844C186.417 44.9101 186.484 44.9229 186.551 44.9221H186.991V47.9091C186.964 48.0918 186.981 48.2781 187.039 48.4535C187.097 48.6288 187.195 48.7885 187.326 48.9198C187.456 49.0512 187.616 49.1508 187.792 49.2107C187.968 49.2706 188.155 49.2893 188.34 49.2652C188.497 49.2688 188.654 49.2588 188.81 49.2354C188.924 49.2198 189.034 49.1833 189.135 49.1279C189.225 49.0766 189.301 49.0049 189.358 48.9188C189.402 48.8491 189.425 48.7682 189.424 48.6858V48.6439C189.427 48.5121 189.38 48.384 189.291 48.2855C189.24 48.2369 189.178 48.2003 189.11 48.1786C189.042 48.1569 188.971 48.1506 188.9 48.16Z" fill="#121212"/>
<path d="M194.982 44.3425C194.983 44.2702 194.969 44.1985 194.941 44.1317C194.913 44.065 194.872 44.0046 194.82 43.9542C194.769 43.9015 194.709 43.8595 194.641 43.8308C194.574 43.802 194.502 43.7871 194.428 43.7869C194.269 43.7844 194.115 43.8446 194.001 43.9542C193.948 44.0046 193.907 44.065 193.879 44.1317C193.851 44.1985 193.837 44.2702 193.838 44.3425V47.5208C193.679 47.7042 193.492 47.8615 193.284 47.9867C193.046 48.1281 192.773 48.2005 192.495 48.1958C192.349 48.1954 192.203 48.1773 192.062 48.1421C191.938 48.1089 191.823 48.0498 191.724 47.9688C191.625 47.8792 191.551 47.7661 191.508 47.6402C191.457 47.4819 191.435 47.3162 191.441 47.1504V44.3545C191.442 44.2822 191.428 44.2105 191.4 44.1437C191.372 44.0769 191.331 44.0165 191.279 43.9661C191.228 43.9119 191.167 43.8688 191.098 43.84C191.03 43.8112 190.956 43.7971 190.881 43.7989C190.803 43.7953 190.725 43.8083 190.652 43.8372C190.58 43.866 190.514 43.91 190.46 43.9661C190.407 44.0165 190.366 44.0769 190.338 44.1437C190.31 44.2105 190.296 44.2822 190.297 44.3545V47.5745C190.269 48.0217 190.416 48.4624 190.707 48.8052C190.879 48.9585 191.081 49.0752 191.301 49.1482C191.52 49.2211 191.753 49.2487 191.983 49.2294C192.37 49.2377 192.752 49.1516 193.097 48.9785C193.387 48.8267 193.646 48.6243 193.862 48.381V48.5662C193.86 48.7213 193.918 48.8712 194.025 48.9844C194.077 49.0375 194.14 49.0792 194.21 49.107C194.279 49.1348 194.353 49.1479 194.428 49.1457C194.586 49.1468 194.739 49.0892 194.856 48.9844C194.912 48.9324 194.956 48.8694 194.986 48.7995C195.016 48.7296 195.031 48.6542 195.031 48.5782H194.982V44.3425Z" fill="#121212"/>
<path d="M198.879 43.781C198.743 43.7798 198.61 43.8084 198.487 43.8646C198.365 43.9192 198.248 43.9852 198.138 44.0617C198.03 44.1384 197.931 44.2265 197.843 44.3246C197.76 44.4174 197.684 44.5152 197.614 44.6173V44.3425C197.615 44.2702 197.601 44.1985 197.573 44.1318C197.545 44.065 197.504 44.0046 197.451 43.9542C197.4 43.9011 197.338 43.8589 197.27 43.8301C197.202 43.8014 197.128 43.7867 197.054 43.7869C196.897 43.786 196.745 43.846 196.632 43.9542C196.58 44.0046 196.539 44.065 196.511 44.1318C196.483 44.1985 196.469 44.2702 196.47 44.3425V48.5842C196.467 48.7392 196.525 48.8892 196.632 49.0024C196.685 49.0554 196.748 49.0972 196.817 49.1249C196.886 49.1527 196.961 49.1659 197.036 49.1637C197.117 49.171 197.198 49.1606 197.275 49.1332C197.351 49.1058 197.421 49.062 197.478 49.005C197.536 48.948 197.58 48.8791 197.607 48.8033C197.635 48.7275 197.645 48.6465 197.638 48.5662V45.5135C197.767 45.313 197.951 45.1534 198.168 45.0535C198.38 44.9591 198.606 44.8966 198.836 44.8683C198.99 44.8498 199.132 44.7803 199.24 44.6711C199.348 44.5564 199.407 44.404 199.402 44.2469C199.406 44.1151 199.358 43.987 199.27 43.8885C199.216 43.8441 199.153 43.8115 199.086 43.793C199.018 43.7744 198.948 43.7703 198.879 43.781Z" fill="#121212"/>
<path d="M205.051 45.5852C204.979 45.3127 204.861 45.0542 204.702 44.8205C204.405 44.3686 203.964 44.028 203.449 43.8526C203.171 43.7667 202.88 43.7243 202.588 43.7272C202.228 43.7236 201.871 43.7928 201.539 43.9304C201.206 44.068 200.906 44.2712 200.655 44.5277C200.415 44.7848 200.227 45.0849 200.101 45.4119C199.969 45.7552 199.901 46.1197 199.902 46.4872C199.895 46.8778 199.966 47.2659 200.113 47.6283C200.242 47.9532 200.434 48.2497 200.679 48.5005C200.927 48.7448 201.225 48.9342 201.552 49.0561C201.905 49.1864 202.278 49.2512 202.654 49.2473C202.982 49.2492 203.308 49.207 203.624 49.1218C203.929 49.038 204.217 48.9004 204.473 48.7156C204.537 48.6832 204.589 48.6332 204.624 48.5717C204.66 48.5102 204.676 48.4398 204.672 48.3691C204.674 48.3027 204.661 48.2366 204.633 48.1763C204.604 48.1161 204.562 48.0634 204.509 48.0226C204.416 47.9404 204.297 47.8938 204.172 47.8912C204.089 47.8896 204.007 47.9125 203.937 47.9569C203.753 48.0759 203.549 48.1628 203.335 48.2138C203.139 48.2703 202.937 48.3005 202.733 48.3034C202.505 48.3076 202.279 48.2712 202.064 48.1959C201.883 48.1199 201.715 48.0172 201.564 47.8912C201.421 47.7626 201.306 47.606 201.227 47.4312C201.138 47.2601 201.083 47.0734 201.065 46.8815H204.533C204.608 46.8819 204.683 46.8673 204.752 46.8386C204.821 46.8098 204.884 46.7676 204.937 46.7143C204.989 46.6639 205.03 46.6035 205.058 46.5367C205.086 46.47 205.1 46.3982 205.099 46.3259L205.154 46.2781C205.155 46.1574 205.141 46.0369 205.111 45.9197L205.051 45.5852ZM201.083 46.087C201.093 45.9191 201.13 45.7538 201.191 45.5971C201.257 45.4345 201.348 45.2832 201.462 45.149C201.59 45.0168 201.738 44.9059 201.902 44.8205C202.1 44.7319 202.316 44.689 202.534 44.695C202.757 44.6903 202.979 44.7331 203.184 44.8205C203.361 44.9001 203.52 45.0162 203.648 45.161C203.757 45.2985 203.844 45.4516 203.907 45.615C203.959 45.7673 203.987 45.9264 203.991 46.087H201.083Z" fill="#121212"/>
<path d="M97.6656 26.4082L92.7697 19.7291H89.3672V35.2619H92.318V23.9648L97.3103 30.7335H97.8945L102.995 23.9887V35.2619H105.946V19.7291H102.568L97.6656 26.4082Z" fill="#121212"/>
<path d="M113.889 23.9648C110.312 23.9648 108.03 26.3544 108.03 29.694C108.03 33.2008 110.288 35.5307 114.094 35.5307C115.848 35.5665 117.548 34.9238 118.833 33.7385L117.093 32.0478C116.259 32.7235 115.212 33.0853 114.136 33.0694C112.215 33.0694 111.029 32.0896 110.848 30.7395H119.459C119.887 26.217 117.581 23.9648 113.889 23.9648ZM110.878 28.4932C111.067 27.84 111.478 27.2717 112.041 26.8842C112.604 26.4967 113.284 26.3138 113.967 26.3664C115.533 26.3664 116.653 27.0773 116.834 28.4932H110.878Z" fill="#121212"/>
<path d="M133.021 19.7291H130.287V25.7869C129.643 24.6578 127.83 24.0365 126.674 24.0365C123.452 24.0365 121.055 25.984 121.055 29.7597C121.055 33.3442 123.494 35.4889 126.74 35.4889C127.435 35.5271 128.128 35.3853 128.751 35.0773C129.374 34.7694 129.905 34.3059 130.293 33.7325L130.474 35.2439H133.027L133.021 19.7291ZM126.909 32.9797C126.487 32.9843 126.068 32.9032 125.678 32.7415C125.289 32.5798 124.937 32.3409 124.643 32.0394C124.35 31.7379 124.122 31.3802 123.973 30.9882C123.824 30.5962 123.758 30.1781 123.777 29.7597C123.752 29.341 123.815 28.9217 123.962 28.5286C124.109 28.1354 124.338 27.777 124.632 27.4762C124.927 27.1754 125.282 26.9389 125.674 26.7818C126.066 26.6247 126.486 26.5503 126.909 26.5635C127.766 26.5635 128.589 26.9015 129.195 27.5032C129.802 28.1048 130.143 28.9208 130.143 29.7716C130.143 30.6225 129.802 31.4385 129.195 32.0401C128.589 32.6417 127.766 32.9797 126.909 32.9797Z" fill="#121212"/>
<path d="M138.116 24.2575H135.388V35.2439H138.116V24.2575Z" fill="#121212"/>
<path d="M135.159 21.2167C135.159 23.3255 138.381 23.3255 138.381 21.2167C138.381 19.1078 135.159 19.1078 135.159 21.2167Z" fill="#121212"/>
<path d="M151.949 35.2439V24.2993H149.329L149.239 25.8108C148.856 25.2395 148.333 24.7748 147.719 24.4611C147.104 24.1473 146.419 23.995 145.728 24.0185C142.506 24.0185 139.977 25.9661 139.977 29.7418C139.977 33.5174 142.386 35.5785 145.662 35.5606C146.866 35.5606 148.612 34.9154 149.239 33.6249L149.377 35.226L151.949 35.2439ZM145.999 33.0873C145.136 33.051 144.321 32.6854 143.723 32.0671C143.126 31.4487 142.792 30.6252 142.792 29.7686C142.792 28.9121 143.126 28.0886 143.723 27.4702C144.321 26.8519 145.136 26.4863 145.999 26.45C150.268 26.45 150.268 33.0873 145.999 33.0873Z" fill="#121212"/>
<path d="M164.745 29.3355L157.073 19.7052H154.677V35.2439H157.627V24.7653L165.866 35.2619V35.2439H167.696V19.6813H164.745V29.3355Z" fill="#121212"/>
<path d="M178.861 33.6429L179 35.2439H181.571V24.2993H178.952L178.861 25.8108C178.479 25.2395 177.956 24.7748 177.341 24.4611C176.726 24.1473 176.041 23.995 175.35 24.0185C172.129 24.0185 169.599 25.9661 169.599 29.7418C169.599 33.5174 172.008 35.5785 175.284 35.5606C176.513 35.5546 178.235 34.9333 178.861 33.6429ZM175.597 33.0873C174.735 33.051 173.919 32.6854 173.322 32.0671C172.724 31.4487 172.391 30.6252 172.391 29.7686C172.391 28.9121 172.724 28.0886 173.322 27.4702C173.919 26.8519 174.735 26.4863 175.597 26.45C179.891 26.45 179.891 33.0873 175.597 33.0873Z" fill="#121212"/>
<path d="M190.743 34.9094L189.96 32.6034C189.549 32.8065 189.099 32.9186 188.641 32.9319C188.438 32.9439 188.235 32.9108 188.046 32.835C187.858 32.7592 187.689 32.6427 187.552 32.4939C187.414 32.3451 187.312 32.1677 187.253 31.9748C187.193 31.7819 187.178 31.5782 187.208 31.3787V26.6531H190.273V24.3232H187.232V21.2167L184.498 21.5034V24.3232H182.444V26.6531H184.54V31.3787C184.54 34.1089 186.106 35.465 188.502 35.3754C189.272 35.3608 190.032 35.2027 190.743 34.9094Z" fill="#121212"/>
<path d="M192.086 21.2167C192.086 23.3255 195.307 23.3255 195.307 21.2167C195.307 19.1078 192.086 19.1078 192.086 21.2167Z" fill="#121212"/>
<path d="M195.061 24.2575H192.333V35.2439H195.061V24.2575Z" fill="#121212"/>
<path d="M202.961 24.0783C202.201 24.0521 201.443 24.1821 200.736 24.4601C200.029 24.7381 199.387 25.1581 198.851 25.6938C198.315 26.2295 197.896 26.8693 197.621 27.5731C197.346 28.2769 197.221 29.0294 197.253 29.7836C197.253 32.9319 199.402 35.4889 202.98 35.4889C206.557 35.4889 208.731 32.9319 208.731 29.7836C208.755 29.0263 208.622 28.2721 208.341 27.5677C208.059 26.8634 207.635 26.224 207.094 25.689C206.553 25.1541 205.907 24.7351 205.196 24.458C204.485 24.181 203.725 24.0517 202.961 24.0783ZM202.961 33.0036C200.974 33.0036 199.95 31.4444 199.95 29.7836C199.95 28.1228 200.98 26.5396 202.961 26.5396C203.375 26.5534 203.781 26.6486 204.157 26.8197C204.533 26.9908 204.871 27.2344 205.152 27.5363C205.432 27.8381 205.649 28.1923 205.79 28.5781C205.931 28.9639 205.993 29.3737 205.973 29.7836C205.979 31.4444 204.973 33.0036 202.98 33.0036H202.961Z" fill="#121212"/>
<path d="M216.788 24.1201C216.104 24.1328 215.431 24.2853 214.809 24.568C214.187 24.8506 213.631 25.2574 213.175 25.763L212.994 24.2754H210.555V35.2439H213.265V29.6462C213.265 27.9854 214.403 26.5874 216.084 26.5874C217.764 26.5874 218.745 27.8539 218.745 29.5147V35.2439H221.473V29.4909C221.461 26.0557 219.384 24.1201 216.788 24.1201Z" fill="#121212"/>
<path d="M77.3387 37.4347V37.399L64.3126 14.1934L36.524 5.10369L21.3336 0.286377L21.2674 1.15207L21.3286 0.291474L0.19043 18.1145L4.53925 44.1973L26.482 64.2864L30.4998 63.9248C31.009 60.6505 32.9848 45.0426 27.9129 36.1514C27.9129 36.1514 16.9594 22.6874 14.79 20.294C14.79 20.294 12.6564 16.9178 12.3916 15.6142V14.1323C12.3916 14.1323 12.9619 13.562 13.41 14.1323C13.41 14.1323 13.9804 16.872 16.2617 16.1693C16.2617 16.1693 17.9727 15.0286 17.0612 17.0859C17.0612 17.0859 14.8919 20.8491 31.778 34.5423C31.778 34.5423 34.2885 28.2635 38.3979 32.2609C38.3979 32.2609 41.4788 36.1362 38.3979 38.6467C38.3979 38.6467 38.6118 39.4003 39.7678 38.9929C39.7678 38.9929 53.3031 34.7205 53.685 34.4099C54.0669 34.0992 53.573 35.2094 56.4247 30.7587C56.4247 30.7587 56.5163 32.7956 59.5055 31.4462C59.5055 31.4462 60.6462 31.105 60.305 32.2456L59.9587 33.3863C59.9587 33.3863 44.6818 40.9331 44.3305 41.0961C44.3305 41.0961 40.8473 42.9395 41.107 62.9318L41.7283 62.8758L72.8983 52.8185L73.1121 52.8746H73.158L77.3387 37.4347Z" fill="#E9330B"/>
</svg>
