<svg width="74" height="74" viewBox="0 0 74 74" fill="none" xmlns="http://www.w3.org/2000/svg">
<path d="M10 73V12.9257L22.4028 1H64V73H10Z" fill="white" stroke="#E9330B" stroke-width="2"/>
<path d="M30.9982 26L36.9982 32M36.9982 32L42.9982 26M36.9982 32V17M27 37H46.9963" stroke="#E9330B" stroke-width="2" stroke-linecap="round" stroke-linejoin="round"/>
<path d="M19.9072 64V50.5H24.9873C26.3467 50.5 27.4424 50.8896 28.2744 51.6689C29.1064 52.4482 29.5225 53.4561 29.5225 54.6924C29.5225 55.8994 29.1035 56.9014 28.2656 57.6982C27.4277 58.4893 26.335 58.8848 24.9873 58.8848H21.9199V64H19.9072ZM24.9873 52.3193H21.9199V57.0742H24.9873C25.7607 57.0742 26.373 56.8574 26.8242 56.4238C27.2754 55.9902 27.501 55.4131 27.501 54.6924C27.501 53.96 27.2754 53.3828 26.8242 52.9609C26.3789 52.5332 25.7666 52.3193 24.9873 52.3193ZM32.1943 64V50.5H36.3516C37.6758 50.5 38.8506 50.7871 39.876 51.3613C40.9072 51.9297 41.7012 52.7236 42.2578 53.7432C42.8203 54.7627 43.1016 55.9199 43.1016 57.2148C43.1016 58.1992 42.9375 59.1133 42.6094 59.957C42.2812 60.7949 41.8242 61.5127 41.2383 62.1104C40.6582 62.7021 39.9463 63.165 39.1025 63.499C38.2646 63.833 37.3477 64 36.3516 64H32.1943ZM36.3516 52.3545H34.207V62.1455H36.3516C37.7461 62.1455 38.8682 61.6973 39.7178 60.8008C40.5732 59.9043 41.001 58.7148 41.001 57.2324C41.001 55.7617 40.5732 54.5811 39.7178 53.6904C38.8682 52.7998 37.7461 52.3545 36.3516 52.3545ZM45.9932 64V50.5H54.3428V52.3193H48.0059V56.1865H52.6729V58.0059H48.0059V64H45.9932Z" fill="#2D2D2D"/>
</svg>
