<svg width="74" height="74" viewBox="0 0 74 74" fill="none" xmlns="http://www.w3.org/2000/svg">
<path d="M10 73V12.9257L22.4028 1H64V73H10Z" fill="white" stroke="#E9330B" stroke-width="2"/>
<path d="M30.9982 26L36.9982 32M36.9982 32L42.9982 26M36.9982 32V17M27 37H46.9963" stroke="#E9330B" stroke-width="2" stroke-linecap="round" stroke-linejoin="round"/>
<path d="M17.908 63.9999H19.924V58.8879H22.984C25.72 58.8879 27.52 57.0699 27.52 54.6939C27.52 52.2459 25.72 50.4999 22.984 50.4999H17.908V63.9999ZM22.984 52.3179C24.55 52.3179 25.504 53.2359 25.504 54.6939C25.504 56.1159 24.55 57.0699 22.984 57.0699H19.924V52.3179H22.984Z" fill="#2D2D2D"/>
<path d="M30.0151 63.9999H31.9231V53.4159L38.9431 63.9999H41.1031V50.4999H39.1771V61.0479L32.1571 50.4999H30.0151V63.9999Z" fill="#2D2D2D"/>
<path d="M45.9293 57.2319C45.9293 54.2799 47.7113 52.1919 50.5013 52.1919C52.6073 52.1919 54.0833 53.3979 54.5153 54.9999L56.4593 54.4419C55.7933 52.0119 53.5433 50.3379 50.5013 50.3379C46.5773 50.3379 43.8233 53.2719 43.8233 57.2319C43.8233 61.2099 46.5953 64.1619 50.4833 64.1619C54.2094 64.1619 56.6933 61.7499 56.6933 58.0779V57.0879H49.1333V58.8879H54.6053C54.6053 60.9399 52.8414 62.3079 50.4833 62.3079C47.7113 62.3079 45.9293 60.2199 45.9293 57.2319Z" fill="#2D2D2D"/>
</svg>
