<svg width="800" height="480" viewBox="0 0 800 480" fill="none" xmlns="http://www.w3.org/2000/svg">
<rect width="800" height="480" fill="#5B86E4"/>
<path d="M697.533 282.265C704.062 238.818 698.407 194.85 671.205 157.331C640.027 114.388 590.643 84.0433 538.146 75.4343C528.792 73.8905 519.331 73.078 509.852 73.0047C487.223 72.8516 464.724 76.4222 443.264 83.5736C407.034 95.7597 375.89 116.992 347.727 142.332C335.219 153.579 323.008 168.011 306.445 173.234C289.251 178.702 270.757 171.668 254 167.368C222.594 159.307 176.496 141.896 145.204 158.435C104.122 180.199 91.8848 228.075 107.618 265.508C123.352 302.938 171.426 305.55 176.67 334.276C181.915 363.003 207.263 405.658 262.33 401.305C317.397 396.953 338.375 349.945 373.338 363.874C385.637 368.775 395.294 377.801 405.757 385.557C420.329 396.387 436.132 403.761 454.068 407.155C479.713 412.012 507.718 409.444 533.609 408.208C563.327 406.78 595.301 407.869 624.155 397.528C655.131 386.41 674.693 362.054 685.191 331.517C690.79 315.504 694.921 299.02 697.533 282.265Z" fill="url(#paint0_linear_9885_3730)"/>
<path d="M458.666 349.206H574.333C576.543 349.206 578.663 348.33 580.226 346.77C581.788 345.211 582.666 343.095 582.666 340.89V127.317C582.666 125.111 581.788 122.996 580.226 121.436C578.663 119.876 576.543 119 574.333 119H239.666C237.456 119 235.337 119.876 233.774 121.436C232.211 122.996 231.333 125.111 231.333 127.317V340.89C231.333 343.095 232.211 345.211 233.774 346.77C235.337 348.33 237.456 349.206 239.666 349.206H355.333" fill="#455A64"/>
<path d="M458.666 349.206H574.333C576.543 349.206 578.663 348.33 580.226 346.77C581.788 345.211 582.666 343.095 582.666 340.89V127.317C582.666 125.111 581.788 122.996 580.226 121.436C578.663 119.876 576.543 119 574.333 119H239.666C237.456 119 235.337 119.876 233.774 121.436C232.211 122.996 231.333 125.111 231.333 127.317V340.89C231.333 343.095 232.211 345.211 233.774 346.77C235.337 348.33 237.456 349.206 239.666 349.206H355.333" stroke="black" stroke-linecap="round" stroke-linejoin="round"/>
<path d="M574.666 128.315H238.666V324.589H574.666V128.315Z" fill="#FFEAA6" stroke="black" stroke-linecap="round" stroke-linejoin="round"/>
<path d="M458.666 349.206H355.333V372.46H458.666V349.206Z" fill="#455A64" stroke="black" stroke-linecap="round" stroke-linejoin="round"/>
<path d="M458.666 372.46H476.666V381.335H337.333V372.46H355.333" fill="#455A64"/>
<path d="M458.666 372.46H476.666V381.335H337.333V372.46H355.333" stroke="black" stroke-linecap="round" stroke-linejoin="round"/>
<path opacity="0.2" d="M618.053 249.539L613.44 249.426L613.373 252.047C612.238 252.166 611.12 252.412 610.04 252.779L608.74 250.404L604.667 252.613L605.92 254.908C604.991 255.588 604.14 256.367 603.38 257.23L601.067 255.813L598.667 259.745L600.9 261.076C600.435 262.128 600.089 263.228 599.867 264.356L597.153 264.283L597.04 268.894L599.667 268.96C599.786 270.093 600.032 271.209 600.4 272.287L598 273.638L600.207 277.69L602.513 276.439C603.19 277.365 603.968 278.213 604.833 278.967L603.42 281.282L607.36 283.684L608.727 281.455C609.779 281.918 610.879 282.264 612.007 282.487L611.94 285.194L616.56 285.308L616.667 282.673C617.802 282.554 618.92 282.309 620 281.941L621.293 284.316L625.353 282.114L624.093 279.812C625.023 279.136 625.875 278.36 626.633 277.497L628.947 278.907L631.36 274.975L629.12 273.611C629.588 272.56 629.934 271.46 630.153 270.331L632.867 270.404L632.987 265.793L630.36 265.727C630.238 264.594 629.992 263.479 629.627 262.4L632 261.109L629.793 257.057L627.487 258.315C626.813 257.384 626.035 256.533 625.167 255.78L626.587 253.465L622.667 251.049L621.3 253.285C620.25 252.815 619.15 252.467 618.02 252.247L618.053 249.539ZM614.72 278.461C612.521 278.407 610.388 277.703 608.591 276.438C606.793 275.174 605.411 273.406 604.621 271.357C603.83 269.309 603.665 267.073 604.148 264.932C604.63 262.79 605.739 260.84 607.332 259.327C608.925 257.814 610.932 256.806 613.099 256.432C615.266 256.057 617.496 256.333 619.507 257.223C621.517 258.113 623.218 259.578 624.394 261.433C625.57 263.288 626.168 265.449 626.113 267.643C626.038 270.585 624.796 273.377 622.66 275.405C620.524 277.434 617.668 278.533 614.72 278.461Z" stroke="black" stroke-linecap="round" stroke-linejoin="round"/>
<path opacity="0.2" d="M605.007 215.101L600.393 214.988L600.327 217.603C599.192 217.726 598.074 217.974 596.993 218.342L595.66 215.966L591.607 218.169L592.86 220.471C591.932 221.148 591.08 221.924 590.32 222.786L588 221.376L585.593 225.308L587.827 226.672C587.362 227.721 587.015 228.819 586.793 229.945L584.08 229.878L583.967 234.489L586.587 234.549C586.708 235.693 586.957 236.82 587.327 237.909L584.947 239.2L587.153 243.245L589.46 241.994C590.137 242.922 590.915 243.773 591.78 244.529L590.367 246.838L594.307 249.246L595.64 247.011C596.691 247.478 597.791 247.824 598.92 248.042L598.853 250.75L603.473 250.87L603.54 248.248C604.675 248.128 605.794 247.88 606.873 247.51L608.167 249.885L612.22 247.683L611.04 245.414C611.97 244.739 612.822 243.962 613.58 243.099L615.893 244.509L618.307 240.577L616.067 239.213C616.535 238.165 616.882 237.067 617.1 235.94L619.813 236.006L619.933 231.402L617.307 231.336C617.187 230.202 616.939 229.086 616.567 228.009L618.947 226.711L616.74 222.666L614.433 223.917C613.757 222.989 612.979 222.139 612.113 221.382L613.527 219.073L609.587 216.672L608.253 218.9C607.202 218.436 606.102 218.09 604.973 217.869L605.007 215.101ZM601.673 244.017C599.475 243.962 597.341 243.258 595.543 241.993C593.746 240.728 592.364 238.96 591.573 236.911C590.783 234.863 590.619 232.626 591.102 230.485C591.585 228.343 592.694 226.393 594.288 224.88C595.882 223.367 597.89 222.36 600.057 221.987C602.225 221.613 604.454 221.889 606.465 222.78C608.475 223.672 610.175 225.138 611.35 226.993C612.525 228.849 613.123 231.011 613.067 233.205C612.992 236.146 611.749 238.938 609.613 240.965C607.476 242.992 604.621 244.09 601.673 244.017Z" stroke="black" stroke-linecap="round" stroke-linejoin="round"/>
<path opacity="0.2" d="M380.293 172.227V167.57H377.666C377.518 166.434 377.243 165.318 376.846 164.243L379.193 162.912L376.88 158.92L374.606 160.251C373.905 159.342 373.107 158.512 372.226 157.776L373.56 155.434L369.56 153.125L368.226 155.394C367.153 154.956 366.036 154.637 364.893 154.443V151.701H360.273V154.323C359.135 154.471 358.017 154.745 356.94 155.141L355.606 152.799L351.606 155.108L352.94 157.377C352.03 158.078 351.199 158.874 350.46 159.752L348.113 158.421L345.806 162.413L348.073 163.744C347.634 164.815 347.314 165.93 347.12 167.071H344.406V171.681H347.033C347.181 172.817 347.456 173.933 347.853 175.008L345.506 176.339L347.82 180.331L350.093 179C350.795 179.908 351.593 180.737 352.473 181.475L351.14 183.817L355.14 186.119L356.473 183.857C357.546 184.295 358.664 184.614 359.806 184.809V187.53H364.426V184.868C365.564 184.721 366.683 184.446 367.76 184.05L369.093 186.392L373.093 184.083L371.76 181.815C372.67 181.115 373.502 180.319 374.24 179.439L376.586 180.77L378.9 176.778L376.626 175.447C377.065 174.377 377.385 173.261 377.58 172.121L380.293 172.227ZM351.24 169.626C351.24 167.431 351.892 165.285 353.114 163.46C354.336 161.635 356.072 160.212 358.104 159.373C360.136 158.533 362.372 158.313 364.529 158.741C366.686 159.169 368.667 160.226 370.223 161.778C371.778 163.33 372.837 165.308 373.266 167.46C373.695 169.613 373.475 171.845 372.633 173.873C371.791 175.9 370.366 177.634 368.538 178.853C366.709 180.072 364.559 180.723 362.36 180.723C360.897 180.723 359.449 180.435 358.098 179.876C356.747 179.317 355.52 178.497 354.487 177.463C353.454 176.43 352.636 175.204 352.078 173.854C351.521 172.505 351.236 171.059 351.24 169.599V169.626Z" stroke="black" stroke-linecap="round" stroke-linejoin="round"/>
<path opacity="0.2" d="M414.46 158.315V153.704H411.84C411.691 152.568 411.416 151.452 411.02 150.377L413.36 149.047L411.053 145.055L408.78 146.385C408.08 145.473 407.279 144.643 406.393 143.91L407.726 141.562L403.726 139.26L402.393 141.522C401.322 141.081 400.203 140.764 399.06 140.577V137.823H394.446V140.444C393.308 140.59 392.189 140.864 391.113 141.262L389.78 138.92L385.78 141.222L387.113 143.491C386.211 144.191 385.39 144.99 384.666 145.873L382.32 144.542L380.006 148.534L382.28 149.865C381.833 150.933 381.513 152.05 381.326 153.192H378.6V157.803H381.226C381.376 158.938 381.651 160.054 382.046 161.129L379.7 162.46L382.006 166.452L384.286 165.121C384.985 166.024 385.783 166.845 386.666 167.57L385.333 169.912L389.333 172.22L390.666 169.952C391.737 170.397 392.855 170.716 394 170.903V173.611H398.62V170.99C399.758 170.845 400.877 170.57 401.953 170.171L403.286 172.513L407.286 170.211L405.953 167.942C406.865 167.242 407.697 166.443 408.433 165.56L410.786 166.891L413.093 162.899L410.826 161.568C411.268 160.499 411.585 159.383 411.773 158.242L414.46 158.315ZM385.413 155.713C385.413 153.518 386.065 151.373 387.287 149.548C388.509 147.723 390.246 146.3 392.278 145.46C394.309 144.62 396.545 144.401 398.702 144.829C400.859 145.257 402.841 146.314 404.396 147.866C405.951 149.418 407.01 151.396 407.439 153.548C407.868 155.701 407.648 157.932 406.806 159.96C405.965 161.988 404.54 163.721 402.711 164.941C400.882 166.16 398.732 166.811 396.533 166.811C395.072 166.812 393.626 166.526 392.276 165.968C390.927 165.411 389.701 164.593 388.668 163.563C387.635 162.532 386.816 161.308 386.258 159.961C385.699 158.615 385.412 157.171 385.413 155.713Z" stroke="black" stroke-linecap="round" stroke-linejoin="round"/>
<g opacity="0.2">
<path d="M280.467 354.13C286.984 354.13 292.267 348.857 292.267 342.353C292.267 335.849 286.984 330.577 280.467 330.577C273.95 330.577 268.667 335.849 268.667 342.353C268.667 348.857 273.95 354.13 280.467 354.13Z" stroke="black" stroke-linecap="round" stroke-linejoin="round"/>
<path d="M289.323 344.007C290.243 339.125 287.023 334.422 282.131 333.504C277.239 332.586 272.527 335.8 271.607 340.682C270.687 345.565 273.907 350.267 278.799 351.185C283.692 352.103 288.403 348.89 289.323 344.007Z" stroke="black" stroke-linecap="round" stroke-linejoin="round"/>
<path d="M297.747 350.431L291.38 346.984L290.32 348.934L296.694 352.373C296.554 352.632 296.522 352.935 296.606 353.217C296.69 353.499 296.882 353.736 297.14 353.877L309.28 360.437C309.539 360.577 309.844 360.608 310.126 360.525C310.408 360.441 310.646 360.25 310.787 359.991L311.847 358.042C311.985 357.782 312.014 357.479 311.929 357.197C311.845 356.916 311.652 356.679 311.394 356.538L299.254 349.978C298.993 349.841 298.689 349.811 298.407 349.896C298.125 349.981 297.888 350.173 297.747 350.431Z" stroke="black" stroke-miterlimit="10"/>
</g>
<path opacity="0.2" d="M475.334 158.92C475.335 161.466 474.58 163.954 473.164 166.071C471.748 168.188 469.735 169.838 467.379 170.813C465.023 171.788 462.43 172.044 459.929 171.548C457.427 171.052 455.129 169.827 453.326 168.028C451.522 166.229 450.293 163.936 449.795 161.44C449.297 158.943 449.552 156.356 450.528 154.004C451.503 151.653 453.156 149.643 455.276 148.228C457.397 146.814 459.89 146.059 462.44 146.059" stroke="black" stroke-linecap="round" stroke-linejoin="round"/>
<path opacity="0.2" d="M475.334 158.921H462.44V146.06C465.859 146.06 469.137 147.414 471.555 149.826C473.973 152.238 475.332 155.509 475.334 158.921Z" stroke="black" stroke-linecap="round" stroke-linejoin="round"/>
<path opacity="0.2" d="M474 150.051L480.667 144.729H490" stroke="black" stroke-linecap="round" stroke-linejoin="round"/>
<path opacity="0.2" d="M495.333 144.729H507.773" stroke="black" stroke-linecap="round" stroke-linejoin="round"/>
<path opacity="0.2" d="M495.333 148.721H507.773" stroke="black" stroke-linecap="round" stroke-linejoin="round"/>
<path opacity="0.2" d="M495.333 152.713H507.773" stroke="black" stroke-linecap="round" stroke-linejoin="round"/>
<path opacity="0.2" d="M495.333 156.705H507.773" stroke="black" stroke-linecap="round" stroke-linejoin="round"/>
<g opacity="0.2">
<path d="M332.147 296.053L331.667 293.711H323.227L323.707 296.053L324.14 298.142L327.007 312.114H349.54L346.247 296.053H332.147Z" stroke="black" stroke-linecap="round" stroke-linejoin="round"/>
<path d="M349.539 312.114L353.693 297.137H346.593" stroke="black" stroke-linecap="round" stroke-linejoin="round"/>
</g>
<g opacity="0.2">
<path d="M363.786 296.053L363.3 293.711H354.866L355.346 296.053L355.78 298.142L358.646 312.114H381.18L377.88 296.053H363.786Z" stroke="black" stroke-linecap="round" stroke-linejoin="round"/>
<path d="M381.179 312.114L385.332 297.137H378.232" stroke="black" stroke-linecap="round" stroke-linejoin="round"/>
</g>
<path d="M411.64 258.674C411.799 258.672 411.958 258.702 412.106 258.762C412.255 258.821 412.39 258.91 412.504 259.021C412.618 259.133 412.709 259.267 412.771 259.414C412.833 259.561 412.865 259.719 412.866 259.878V267.49C412.843 267.8 412.704 268.089 412.476 268.301C412.248 268.512 411.948 268.63 411.636 268.63C411.325 268.63 411.025 268.512 410.797 268.301C410.569 268.089 410.429 267.8 410.406 267.49V259.878C410.408 259.718 410.441 259.56 410.504 259.413C410.567 259.266 410.658 259.133 410.773 259.021C410.888 258.909 411.023 258.821 411.172 258.761C411.32 258.702 411.479 258.672 411.64 258.674Z" fill="#263238"/>
<path d="M408.666 258.674C408.826 258.672 408.985 258.702 409.134 258.761C409.283 258.821 409.418 258.909 409.533 259.021C409.647 259.133 409.739 259.266 409.801 259.413C409.864 259.56 409.898 259.718 409.899 259.878V267.49C409.877 267.8 409.737 268.089 409.509 268.301C409.281 268.512 408.981 268.63 408.669 268.63C408.358 268.63 408.058 268.512 407.83 268.301C407.602 268.089 407.462 267.8 407.439 267.49V259.878C407.443 259.556 407.574 259.249 407.804 259.023C408.034 258.798 408.344 258.672 408.666 258.674Z" fill="#263238"/>
<path d="M405.739 258.674C405.899 258.672 406.058 258.702 406.206 258.762C406.355 258.821 406.49 258.91 406.604 259.021C406.718 259.133 406.808 259.267 406.871 259.414C406.933 259.561 406.965 259.719 406.966 259.878V267.49C406.965 267.649 406.933 267.807 406.871 267.954C406.808 268.101 406.718 268.234 406.604 268.346C406.49 268.458 406.355 268.547 406.206 268.606C406.058 268.666 405.899 268.696 405.739 268.694C405.579 268.696 405.421 268.666 405.272 268.606C405.124 268.547 404.989 268.458 404.875 268.346C404.761 268.234 404.67 268.101 404.608 267.954C404.546 267.807 404.514 267.649 404.513 267.49V259.878C404.514 259.719 404.546 259.561 404.608 259.414C404.67 259.267 404.761 259.133 404.875 259.021C404.989 258.91 405.124 258.821 405.272 258.762C405.421 258.702 405.579 258.672 405.739 258.674Z" fill="#263238"/>
<path d="M402.786 258.674C402.946 258.672 403.105 258.702 403.254 258.761C403.403 258.821 403.538 258.909 403.653 259.021C403.767 259.133 403.859 259.266 403.922 259.413C403.985 259.56 404.018 259.718 404.02 259.878V267.49C403.997 267.8 403.857 268.089 403.629 268.301C403.401 268.512 403.101 268.63 402.79 268.63C402.478 268.63 402.178 268.512 401.95 268.301C401.722 268.089 401.582 267.8 401.56 267.49V259.878C401.563 259.556 401.694 259.249 401.924 259.023C402.154 258.798 402.464 258.672 402.786 258.674Z" fill="#263238"/>
<path d="M399.84 258.674C400 258.672 400.159 258.702 400.307 258.762C400.455 258.821 400.59 258.91 400.704 259.021C400.818 259.133 400.909 259.267 400.971 259.414C401.033 259.561 401.066 259.719 401.067 259.878V267.49C401.067 267.814 400.937 268.126 400.707 268.355C400.477 268.585 400.165 268.714 399.84 268.714C399.515 268.714 399.203 268.585 398.973 268.355C398.743 268.126 398.613 267.814 398.613 267.49V259.878C398.614 259.719 398.647 259.561 398.709 259.414C398.771 259.267 398.862 259.133 398.976 259.021C399.09 258.91 399.225 258.821 399.373 258.762C399.521 258.702 399.68 258.672 399.84 258.674Z" fill="#263238"/>
<path d="M396.887 258.674C397.047 258.672 397.206 258.702 397.355 258.761C397.503 258.821 397.639 258.909 397.753 259.021C397.868 259.133 397.959 259.266 398.022 259.413C398.085 259.56 398.118 259.718 398.12 259.878V267.49C398.118 267.649 398.085 267.807 398.022 267.955C397.959 268.102 397.868 268.235 397.753 268.347C397.639 268.459 397.503 268.547 397.355 268.606C397.206 268.666 397.047 268.696 396.887 268.694C396.564 268.696 396.254 268.57 396.025 268.344C395.795 268.119 395.664 267.811 395.66 267.49V259.878C395.664 259.556 395.795 259.249 396.025 259.023C396.254 258.798 396.564 258.672 396.887 258.674Z" fill="#263238"/>
<path d="M393.94 258.674C394.099 258.672 394.258 258.702 394.406 258.762C394.555 258.821 394.69 258.91 394.804 259.021C394.918 259.133 395.008 259.267 395.071 259.414C395.133 259.561 395.165 259.719 395.166 259.878V267.49C395.166 267.814 395.037 268.126 394.807 268.355C394.577 268.585 394.265 268.714 393.94 268.714C393.614 268.714 393.302 268.585 393.072 268.355C392.842 268.126 392.713 267.814 392.713 267.49V259.878C392.714 259.719 392.746 259.561 392.808 259.414C392.871 259.267 392.961 259.133 393.075 259.021C393.189 258.91 393.324 258.821 393.473 258.762C393.621 258.702 393.78 258.672 393.94 258.674Z" fill="#263238"/>
<path d="M390.993 258.674C391.316 258.672 391.626 258.798 391.855 259.023C392.085 259.249 392.216 259.556 392.22 259.878V267.49C392.197 267.8 392.057 268.089 391.829 268.301C391.601 268.512 391.301 268.63 390.99 268.63C390.678 268.63 390.378 268.512 390.15 268.301C389.922 268.089 389.783 267.8 389.76 267.49V259.878C389.762 259.718 389.795 259.56 389.858 259.413C389.921 259.266 390.012 259.133 390.126 259.021C390.241 258.909 390.376 258.821 390.525 258.761C390.674 258.702 390.833 258.672 390.993 258.674Z" fill="#263238"/>
<path d="M388.04 258.674C388.2 258.672 388.359 258.702 388.507 258.762C388.655 258.821 388.79 258.91 388.904 259.021C389.018 259.133 389.109 259.267 389.171 259.414C389.233 259.561 389.266 259.719 389.267 259.878V267.49C389.267 267.814 389.138 268.126 388.908 268.355C388.677 268.585 388.365 268.714 388.04 268.714C387.715 268.714 387.403 268.585 387.173 268.355C386.943 268.126 386.813 267.814 386.813 267.49V259.878C386.814 259.719 386.847 259.561 386.909 259.414C386.971 259.267 387.062 259.133 387.176 259.021C387.29 258.91 387.425 258.821 387.573 258.762C387.722 258.702 387.88 258.672 388.04 258.674Z" fill="#263238"/>
<path d="M385.093 258.674C385.415 258.672 385.725 258.798 385.955 259.023C386.185 259.249 386.316 259.556 386.319 259.878V267.49C386.296 267.8 386.157 268.089 385.929 268.301C385.701 268.512 385.401 268.63 385.089 268.63C384.778 268.63 384.478 268.512 384.25 268.301C384.022 268.089 383.882 267.8 383.859 267.49V259.878C383.861 259.718 383.894 259.56 383.957 259.413C384.02 259.266 384.112 259.133 384.226 259.021C384.341 258.909 384.476 258.821 384.625 258.761C384.773 258.702 384.932 258.672 385.093 258.674Z" fill="#263238"/>
<path d="M382.14 258.674C382.3 258.672 382.458 258.702 382.607 258.762C382.755 258.821 382.89 258.91 383.004 259.021C383.118 259.133 383.209 259.267 383.271 259.414C383.333 259.561 383.366 259.719 383.366 259.878V267.49C383.366 267.814 383.237 268.126 383.007 268.355C382.777 268.585 382.465 268.714 382.14 268.714C381.814 268.714 381.502 268.585 381.272 268.355C381.042 268.126 380.913 267.814 380.913 267.49V259.878C380.914 259.719 380.946 259.561 381.009 259.414C381.071 259.267 381.162 259.133 381.276 259.021C381.39 258.91 381.525 258.821 381.673 258.762C381.821 258.702 381.98 258.672 382.14 258.674Z" fill="#263238"/>
<path d="M380.033 258.674C380.001 258.789 380.001 258.911 380.033 259.027C380.146 259.138 380.236 259.271 380.298 259.417C380.36 259.563 380.392 259.72 380.393 259.878V267.49C380.392 267.648 380.36 267.805 380.298 267.951C380.236 268.098 380.146 268.23 380.033 268.341C379.5 268.593 378.915 268.714 378.326 268.694C376.939 268.694 376.059 268.155 376.359 267.49L379.506 259.878C379.711 259.491 379.887 259.088 380.033 258.674Z" fill="#263238"/>
<path d="M380.033 258.674C379.797 259.06 379.59 259.462 379.413 259.878L375.526 267.49C375.213 268.155 373.84 268.694 372.453 268.694C371.066 268.694 370.5 268.155 371.2 267.49L378.826 259.878L379.7 259.027C379.92 258.807 380.033 258.674 380.033 258.674Z" fill="#263238"/>
<path d="M380.033 258.674C379.908 258.775 379.79 258.884 379.68 259L378.826 259.878L371.2 267.49C370.533 268.155 369.993 267.603 369.993 266.159C369.993 264.715 370.533 263.351 371.2 263.052L378.826 259.246C379.243 259.086 379.646 258.895 380.033 258.674Z" fill="#263238"/>
<path d="M380.033 258.674C379.62 258.805 379.217 258.965 378.827 259.153L371.2 262.194C370.533 262.486 369.993 261.582 369.993 260.164C369.992 259.836 370.024 259.509 370.087 259.186C370.116 259.042 370.153 258.9 370.2 258.761C370.211 258.709 370.234 258.662 370.267 258.621L370.347 258.534C370.457 258.419 370.589 258.328 370.736 258.265C370.882 258.202 371.04 258.169 371.2 258.168H378.827C378.986 258.169 379.144 258.202 379.291 258.265C379.437 258.328 379.57 258.419 379.68 258.534L379.753 258.621C379.753 258.661 379.8 258.687 379.827 258.681H380.033V258.674Z" fill="#263238"/>
<path d="M380.033 256.412C380.037 256.573 380.008 256.734 379.949 256.884C379.89 257.034 379.802 257.171 379.69 257.288C379.578 257.404 379.444 257.497 379.296 257.561C379.148 257.626 378.988 257.66 378.826 257.663H371.2C370.882 257.64 370.585 257.497 370.368 257.265C370.152 257.032 370.031 256.726 370.031 256.408C370.031 256.091 370.152 255.785 370.368 255.552C370.585 255.32 370.882 255.177 371.2 255.154H378.826C378.988 255.158 379.148 255.193 379.296 255.258C379.445 255.323 379.579 255.417 379.691 255.534C379.803 255.65 379.891 255.788 379.949 255.939C380.008 256.089 380.037 256.25 380.033 256.412Z" fill="#263238"/>
<path d="M380.033 253.398C380.037 253.559 380.008 253.72 379.949 253.871C379.891 254.022 379.803 254.159 379.691 254.276C379.579 254.393 379.445 254.486 379.296 254.551C379.148 254.617 378.988 254.652 378.826 254.655H371.2C370.882 254.632 370.585 254.49 370.368 254.257C370.152 254.025 370.031 253.719 370.031 253.401C370.031 253.083 370.152 252.778 370.368 252.545C370.585 252.312 370.882 252.17 371.2 252.147H378.826C378.988 252.15 379.148 252.184 379.296 252.248C379.444 252.313 379.578 252.406 379.69 252.522C379.802 252.638 379.89 252.775 379.949 252.926C380.008 253.076 380.037 253.236 380.033 253.398Z" fill="#263238"/>
<path d="M380.033 250.39C380.037 250.552 380.008 250.713 379.949 250.864C379.891 251.014 379.803 251.152 379.691 251.269C379.579 251.385 379.445 251.479 379.296 251.544C379.148 251.609 378.988 251.645 378.826 251.648H371.2C370.882 251.625 370.585 251.483 370.368 251.25C370.152 251.017 370.031 250.711 370.031 250.394C370.031 250.076 370.152 249.77 370.368 249.538C370.585 249.305 370.882 249.163 371.2 249.14H378.826C378.988 249.142 379.148 249.177 379.296 249.241C379.444 249.305 379.578 249.398 379.69 249.515C379.802 249.631 379.89 249.768 379.949 249.918C380.008 250.069 380.037 250.229 380.033 250.39Z" fill="#263238"/>
<path d="M380.033 247.41C380.037 247.571 380.008 247.732 379.949 247.882C379.89 248.032 379.802 248.169 379.69 248.286C379.578 248.402 379.444 248.495 379.296 248.559C379.148 248.624 378.988 248.658 378.826 248.661H371.2C370.882 248.638 370.585 248.495 370.368 248.263C370.152 248.03 370.031 247.724 370.031 247.406C370.031 247.089 370.152 246.783 370.368 246.55C370.585 246.318 370.882 246.175 371.2 246.152H378.826C378.988 246.156 379.148 246.191 379.296 246.256C379.445 246.321 379.579 246.415 379.691 246.532C379.803 246.648 379.891 246.786 379.949 246.937C380.008 247.087 380.037 247.248 380.033 247.41Z" fill="#263238"/>
<path d="M380.033 244.369C380.037 244.531 380.008 244.692 379.949 244.842C379.891 244.993 379.803 245.131 379.691 245.247C379.579 245.364 379.445 245.458 379.296 245.523C379.148 245.588 378.988 245.623 378.826 245.627H371.2C370.882 245.604 370.585 245.461 370.368 245.229C370.152 244.996 370.031 244.69 370.031 244.373C370.031 244.055 370.152 243.749 370.368 243.516C370.585 243.284 370.882 243.142 371.2 243.118H378.826C378.988 243.121 379.148 243.155 379.296 243.22C379.444 243.284 379.578 243.377 379.69 243.493C379.802 243.61 379.89 243.747 379.949 243.897C380.008 244.047 380.037 244.208 380.033 244.369Z" fill="#263238"/>
<path d="M380.033 241.362C380.037 241.523 380.008 241.684 379.949 241.834C379.89 241.984 379.802 242.122 379.69 242.238C379.578 242.354 379.444 242.447 379.296 242.511C379.148 242.576 378.988 242.61 378.826 242.613H371.2C370.882 242.59 370.585 242.448 370.368 242.215C370.152 241.982 370.031 241.676 370.031 241.359C370.031 241.041 370.152 240.735 370.368 240.502C370.585 240.27 370.882 240.128 371.2 240.104H378.826C378.988 240.108 379.148 240.143 379.296 240.208C379.445 240.273 379.579 240.367 379.691 240.484C379.803 240.601 379.891 240.738 379.949 240.889C380.008 241.04 380.037 241.2 380.033 241.362Z" fill="#263238"/>
<path d="M380.033 237.609C380.032 237.938 379.999 238.265 379.933 238.587C379.906 238.731 379.871 238.874 379.827 239.013C379.815 239.063 379.789 239.109 379.753 239.146C379.733 239.18 379.708 239.211 379.68 239.239C379.57 239.355 379.437 239.446 379.291 239.509C379.144 239.572 378.986 239.605 378.827 239.605H371.2C371.04 239.605 370.883 239.572 370.736 239.509C370.589 239.446 370.457 239.355 370.347 239.239L370.267 239.146C370.267 239.113 370.22 239.086 370.2 239.093H370C370.416 238.97 370.82 238.809 371.207 238.614L378.833 235.58C379.493 235.281 380.033 236.192 380.033 237.609Z" fill="#263238"/>
<path d="M380.033 231.588C380.033 233.005 379.493 234.396 378.826 234.695L371.2 238.494C370.786 238.669 370.383 238.869 369.993 239.093C369.993 239.093 370.126 238.987 370.346 238.767L371.2 237.896L378.826 230.284C379.493 229.586 380.033 230.171 380.033 231.588Z" fill="#263238"/>
<path d="M377.653 229.08C378.987 229.08 379.52 229.619 378.826 230.284L371.2 237.896L370.32 238.76C370.204 238.87 370.095 238.985 369.993 239.106C370.231 238.722 370.443 238.322 370.627 237.909L374.627 230.297C374.967 229.619 376.32 229.08 377.653 229.08Z" fill="#263238"/>
<path d="M371.96 229.08C373.293 229.08 374.126 229.619 373.813 230.284L370.48 237.895C370.28 238.283 370.106 238.683 369.96 239.093C369.969 238.978 369.969 238.862 369.96 238.747V238.567C369.915 238.502 369.877 238.433 369.846 238.361C369.784 238.214 369.752 238.055 369.753 237.895V230.284C369.753 230.122 369.785 229.962 369.846 229.812C369.876 229.741 369.914 229.674 369.96 229.612C370.046 229.542 370.14 229.481 370.24 229.432C370.777 229.181 371.366 229.06 371.96 229.08Z" fill="#263238"/>
<path d="M368.126 229.08C368.443 229.083 368.746 229.212 368.968 229.438C369.191 229.663 369.315 229.968 369.313 230.284V237.896C369.313 238.21 369.188 238.511 368.965 238.733C368.743 238.955 368.441 239.08 368.126 239.08C367.811 239.08 367.51 238.955 367.287 238.733C367.064 238.511 366.939 238.21 366.939 237.896V230.284C366.938 229.968 367.061 229.663 367.284 229.438C367.506 229.212 367.809 229.083 368.126 229.08Z" fill="#263238"/>
<path d="M365.28 229.08C365.597 229.083 365.899 229.212 366.122 229.438C366.344 229.663 366.468 229.968 366.466 230.284V237.896C366.466 238.21 366.341 238.511 366.119 238.733C365.896 238.955 365.594 239.08 365.28 239.08C364.965 239.08 364.663 238.955 364.44 238.733C364.218 238.511 364.093 238.21 364.093 237.896V230.284C364.091 230.127 364.12 229.971 364.179 229.826C364.238 229.68 364.325 229.548 364.435 229.436C364.546 229.324 364.677 229.235 364.822 229.174C364.967 229.113 365.122 229.081 365.28 229.08Z" fill="#263238"/>
<path d="M362.433 229.08C362.75 229.083 363.053 229.212 363.275 229.438C363.497 229.663 363.621 229.968 363.619 230.284V237.896C363.62 238.052 363.59 238.207 363.531 238.352C363.472 238.497 363.385 238.628 363.274 238.74C363.164 238.851 363.033 238.939 362.889 239C362.744 239.061 362.589 239.092 362.433 239.093C362.275 239.093 362.12 239.062 361.974 239.002C361.829 238.942 361.697 238.853 361.586 238.742C361.476 238.631 361.388 238.499 361.328 238.353C361.269 238.208 361.238 238.052 361.239 237.896V230.284C361.238 230.127 361.269 229.971 361.328 229.825C361.388 229.68 361.475 229.547 361.586 229.435C361.697 229.323 361.829 229.235 361.974 229.174C362.119 229.113 362.275 229.081 362.433 229.08Z" fill="#263238"/>
<path d="M360.413 243.731V224.615C362.388 224.615 364.282 225.398 365.679 226.792C367.075 228.186 367.86 230.076 367.86 232.047V236.299C367.86 237.275 367.667 238.241 367.293 239.143C366.919 240.044 366.37 240.864 365.679 241.554C364.987 242.244 364.166 242.791 363.263 243.165C362.359 243.538 361.391 243.731 360.413 243.731Z" fill="white" stroke="#263238" stroke-linecap="round" stroke-linejoin="round"/>
<path d="M341.26 262.167L361.18 252.353C362.12 251.89 362.912 251.174 363.466 250.285C364.02 249.396 364.313 248.37 364.313 247.323V221.375C364.313 220.328 364.02 219.303 363.466 218.414C362.912 217.525 362.12 216.808 361.18 216.345L341.26 206.531V262.167Z" fill="white" stroke="#263238" stroke-linecap="round" stroke-linejoin="round"/>
<path d="M378.507 273.085H393.227" stroke="#263238" stroke-linecap="round" stroke-linejoin="round"/>
<path d="M375.566 275.66H381.453" stroke="#263238" stroke-linecap="round" stroke-linejoin="round"/>
<path d="M384.76 235.054V249.379" stroke="#263238" stroke-linecap="round" stroke-linejoin="round"/>
<path d="M382.187 240.198V231.389" stroke="#263238" stroke-linecap="round" stroke-linejoin="round"/>
<path d="M365.26 258.188V265.534" stroke="#263238" stroke-linecap="round" stroke-linejoin="round"/>
<path d="M367.84 255.62V262.234" stroke="#263238" stroke-linecap="round" stroke-linejoin="round"/>
<path d="M494.427 206.498H498.253" stroke="#263238" stroke-width="9" stroke-linecap="round" stroke-linejoin="round"/>
<path d="M465.06 252.373H480.38V206.498H494.426" stroke="#263238" stroke-width="4" stroke-linecap="round" stroke-linejoin="round"/>
<path d="M494.427 299.1H499.107" stroke="#263238" stroke-width="9" stroke-linecap="round" stroke-linejoin="round"/>
<path d="M462.08 266.392H479.953V299.1H494.427" stroke="#263238" stroke-width="4" stroke-linecap="round" stroke-linejoin="round"/>
<path d="M406.906 208.947H403.086V243.484" stroke="#263238" stroke-width="4" stroke-linecap="round" stroke-linejoin="round"/>
<path d="M409.88 208.947H406.906" stroke="#263238" stroke-width="7" stroke-linecap="round" stroke-linejoin="round"/>
<path d="M444.033 221.907H426.573V240.577H444.033V221.907Z" fill="#263238" stroke="#263238" stroke-linecap="round" stroke-linejoin="round"/>
<path d="M460.126 196.086H442.979V212.892H460.126V196.086Z" fill="#263238" stroke="#263238" stroke-linecap="round" stroke-linejoin="round"/>
<path d="M453.273 212.886H460.866C459.058 217.67 455.921 221.841 451.821 224.909C447.722 227.977 442.831 229.815 437.723 230.207C432.614 230.599 427.499 229.528 422.978 227.121C418.458 224.715 414.718 221.071 412.199 216.618C409.825 212.45 408.622 207.719 408.719 202.925C408.719 202.506 408.719 202.081 408.753 201.661C409.172 195.217 411.9 189.139 416.437 184.535C420.975 179.931 427.02 177.109 433.469 176.584C439.918 176.058 446.342 177.865 451.567 181.674C456.793 185.482 460.472 191.039 461.933 197.33H453.266C452.243 197.33 451.229 197.531 450.284 197.922C449.338 198.313 448.479 198.886 447.755 199.608C447.032 200.33 446.458 201.188 446.066 202.131C445.674 203.075 445.473 204.086 445.473 205.108C445.473 206.129 445.674 207.141 446.066 208.084C446.458 209.028 447.032 209.885 447.755 210.608C448.479 211.33 449.338 211.903 450.284 212.294C451.229 212.684 452.243 212.886 453.266 212.886H453.273Z" fill="white" stroke="#263238" stroke-linecap="round" stroke-linejoin="round"/>
<path d="M437.68 204.482H445.48" stroke="#263238" stroke-linecap="round" stroke-linejoin="round"/>
<path d="M431.446 177.723V229.067" stroke="#263238" stroke-linecap="round" stroke-linejoin="round"/>
<path d="M430.82 211.329C434.609 211.329 437.68 208.263 437.68 204.482C437.68 200.701 434.609 197.636 430.82 197.636C427.031 197.636 423.96 200.701 423.96 204.482C423.96 208.263 427.031 211.329 430.82 211.329Z" fill="#263238" stroke="#263238" stroke-linecap="round" stroke-linejoin="round"/>
<path d="M434.253 204.482C434.253 203.804 434.052 203.142 433.674 202.578C433.297 202.014 432.76 201.575 432.132 201.316C431.505 201.057 430.814 200.989 430.148 201.122C429.482 201.255 428.87 201.582 428.39 202.062C427.91 202.542 427.584 203.153 427.452 203.818C427.32 204.483 427.389 205.172 427.65 205.798C427.911 206.424 428.352 206.959 428.917 207.335C429.483 207.71 430.147 207.91 430.827 207.909C431.277 207.909 431.723 207.82 432.14 207.648C432.556 207.476 432.934 207.223 433.252 206.905C433.57 206.587 433.823 206.209 433.994 205.793C434.166 205.377 434.254 204.932 434.253 204.482Z" fill="white" stroke="#263238" stroke-linecap="round" stroke-linejoin="round"/>
<path d="M453.893 207.902C455.786 207.902 457.32 206.371 457.32 204.482C457.32 202.594 455.786 201.062 453.893 201.062C452.001 201.062 450.467 202.594 450.467 204.482C450.467 206.371 452.001 207.902 453.893 207.902Z" fill="#FFC200"/>
<path d="M417.413 202.926V216.618H412.18C409.805 212.45 408.603 207.719 408.7 202.926H417.413Z" fill="#263238" stroke="#263238" stroke-linecap="round" stroke-linejoin="round"/>
<path d="M435.307 294.316V334.735" stroke="#263238" stroke-width="3" stroke-linecap="round" stroke-linejoin="round"/>
<path d="M435.307 322.267C441.058 322.267 445.72 317.614 445.72 311.874C445.72 306.135 441.058 301.482 435.307 301.482C429.556 301.482 424.894 306.135 424.894 311.874C424.894 317.614 429.556 322.267 435.307 322.267Z" fill="white" stroke="#263238" stroke-linecap="round" stroke-linejoin="round"/>
<path d="M435.307 337.649C438.068 337.649 440.307 335.415 440.307 332.659C440.307 329.904 438.068 327.669 435.307 327.669C432.545 327.669 430.307 329.904 430.307 332.659C430.307 335.415 432.545 337.649 435.307 337.649Z" fill="white" stroke="#263238" stroke-linecap="round" stroke-linejoin="round"/>
<path d="M472.606 247.596L461.106 281.801C457.9 291.329 448.18 297.836 437.16 297.836H433.446C422.426 297.836 412.706 291.329 409.506 281.801L398 247.596C396.253 242.4 400.56 237.157 406.566 237.157H464.04C470.053 237.157 474.353 242.4 472.606 247.596Z" fill="white" stroke="#263238" stroke-linecap="round" stroke-linejoin="round"/>
<path d="M467.799 250.803C466.407 250.424 464.922 250.589 463.646 251.264C462.371 251.939 461.4 253.073 460.933 254.436L451.639 281.528C451.187 282.849 451.239 284.289 451.785 285.573C452.331 286.858 453.333 287.896 454.599 288.488L456.599 289.439C458.599 287.224 460.126 284.625 461.086 281.801L471.193 251.735L467.799 250.803Z" fill="white" stroke="#263238" stroke-linecap="round" stroke-linejoin="round"/>
<path d="M409.393 254.436C408.925 253.073 407.955 251.939 406.68 251.264C405.404 250.589 403.919 250.424 402.526 250.803L399.366 251.661L409.506 281.801C410.449 284.586 411.945 287.153 413.906 289.346L415.726 288.488C416.987 287.891 417.984 286.852 418.527 285.568C419.069 284.284 419.119 282.846 418.666 281.528L409.393 254.436Z" fill="white" stroke="#263238" stroke-linecap="round" stroke-linejoin="round"/>
<path d="M453.333 237.157C453.196 238.42 452.596 239.589 451.649 240.437C450.701 241.286 449.473 241.755 448.199 241.754H421.533C420.259 241.755 419.031 241.286 418.083 240.437C417.136 239.589 416.536 238.42 416.399 237.157H453.333Z" fill="white" stroke="#263238" stroke-linecap="round" stroke-linejoin="round"/>
<path d="M435.333 297.643V241.754" stroke="#263238" stroke-linecap="round" stroke-linejoin="round"/>
<path d="M450.48 248.408H420.133C418.27 248.408 416.76 249.915 416.76 251.775V265.574C416.76 267.433 418.27 268.94 420.133 268.94H450.48C452.343 268.94 453.853 267.433 453.853 265.574V251.775C453.853 249.915 452.343 248.408 450.48 248.408Z" fill="#263238" stroke="#263238" stroke-linecap="round" stroke-linejoin="round"/>
<path d="M438.093 262.127C438.441 262.177 438.807 262.068 439.074 261.801C439.244 261.63 439.35 261.419 439.392 261.199C439.434 261.047 439.444 260.889 439.423 260.734C439.462 260.437 439.557 260.02 439.789 259.788C440.004 259.572 440.359 259.493 440.633 259.465C440.992 259.53 441.375 259.423 441.652 259.145L441.657 259.14L441.662 259.135C442.112 258.684 442.112 257.954 441.662 257.503C441.383 257.224 440.997 257.118 440.636 257.185C440.361 257.158 439.997 257.08 439.778 256.861C439.546 256.629 439.451 256.212 439.413 255.915C439.459 255.57 439.35 255.209 439.086 254.944C438.79 254.648 438.374 254.546 437.995 254.639C437.73 254.607 437.403 254.525 437.201 254.322C436.969 254.09 436.874 253.673 436.835 253.376C436.882 253.032 436.773 252.67 436.508 252.405C436.058 251.954 435.329 251.954 434.879 252.405C434.429 252.856 434.429 253.586 434.879 254.037C435.143 254.302 435.504 254.411 435.849 254.364C436.145 254.403 436.561 254.498 436.793 254.73C437.021 254.959 437.096 255.345 437.119 255.624C437.069 255.972 437.178 256.339 437.445 256.607C437.735 256.898 438.143 257.001 438.516 256.916C438.802 256.962 439.162 257.059 439.371 257.269C439.599 257.497 439.674 257.884 439.697 258.163C439.679 258.286 439.681 258.412 439.703 258.534C439.675 258.808 439.596 259.164 439.381 259.38C439.15 259.612 438.733 259.707 438.437 259.746C438.093 259.699 437.732 259.808 437.467 260.073C437.297 260.244 437.191 260.454 437.15 260.675C437.107 260.83 437.097 260.993 437.119 261.151C437.096 261.43 437.021 261.817 436.793 262.045C436.561 262.277 436.145 262.372 435.849 262.411C435.504 262.365 435.143 262.474 434.879 262.739C434.429 263.189 434.429 263.92 434.879 264.371C435.329 264.821 436.058 264.821 436.508 264.371C436.773 264.106 436.882 263.744 436.835 263.399C436.874 263.102 436.969 262.685 437.201 262.453C437.428 262.225 437.815 262.15 438.093 262.127Z" fill="white"/>
<path d="M429.67 259.225C430.12 259.676 430.85 259.676 431.3 259.225C431.749 258.775 431.749 258.044 431.3 257.593C430.85 257.143 430.12 257.143 429.67 257.593C429.221 258.044 429.221 258.775 429.67 259.225Z" fill="white"/>
<path d="M436.497 259.135L436.492 259.14L436.487 259.145C436.21 259.423 435.827 259.53 435.468 259.465C435.194 259.493 434.839 259.572 434.624 259.788C434.392 260.02 434.297 260.437 434.258 260.734C434.305 261.078 434.196 261.44 433.931 261.705C433.481 262.155 432.752 262.155 432.302 261.705C431.852 261.254 431.852 260.524 432.302 260.073C432.567 259.808 432.928 259.699 433.272 259.746C433.568 259.707 433.985 259.612 434.216 259.38C434.431 259.164 434.51 258.808 434.538 258.534C434.516 258.411 434.514 258.286 434.532 258.163C434.509 257.884 434.434 257.497 434.206 257.269C433.974 257.037 433.558 256.942 433.261 256.903C432.917 256.95 432.556 256.84 432.292 256.575C431.842 256.125 431.842 255.394 432.292 254.944C432.741 254.493 433.471 254.493 433.921 254.944C434.185 255.209 434.294 255.57 434.248 255.915C434.287 256.212 434.381 256.629 434.613 256.861C434.832 257.08 435.196 257.158 435.471 257.185C435.832 257.118 436.218 257.224 436.497 257.503C436.947 257.954 436.947 258.684 436.497 259.135Z" fill="white"/>
<path d="M435.307 279.346C437.516 279.346 439.307 277.559 439.307 275.354C439.307 273.149 437.516 271.362 435.307 271.362C433.098 271.362 431.307 273.149 431.307 275.354C431.307 277.559 433.098 279.346 435.307 279.346Z" fill="#263238" stroke="#263238" stroke-linecap="round" stroke-linejoin="round"/>
<path d="M435.306 277.017C436.227 277.017 436.973 276.273 436.973 275.354C436.973 274.435 436.227 273.691 435.306 273.691C434.386 273.691 433.64 274.435 433.64 275.354C433.64 276.273 434.386 277.017 435.306 277.017Z" fill="#FFC200"/>
<path d="M597.526 165.753H505.306C500.52 165.753 496.64 169.626 496.64 174.403V237.889C496.64 242.666 500.52 246.538 505.306 246.538H597.526C602.313 246.538 606.193 242.666 606.193 237.889V174.403C606.193 169.626 602.313 165.753 597.526 165.753Z" fill="#263238" stroke="#263238" stroke-linecap="round" stroke-linejoin="round"/>
<path d="M595.406 170.683H507.426C504.017 170.683 501.253 173.442 501.253 176.844V235.44C501.253 238.843 504.017 241.602 507.426 241.602H595.406C598.816 241.602 601.58 238.843 601.58 235.44V176.844C601.58 173.442 598.816 170.683 595.406 170.683Z" fill="white" stroke="#263238" stroke-linecap="round" stroke-linejoin="round"/>
<path d="M593.78 182.533H514.233V185.427H593.78V182.533Z" fill="#E0E0E0"/>
<path d="M593.78 189.346H514.233V192.24H593.78V189.346Z" fill="#E0E0E0"/>
<path d="M593.78 196.159H514.233V199.053H593.78V196.159Z" fill="#E0E0E0"/>
<path d="M593.78 202.979H514.233V205.873H593.78V202.979Z" fill="#E0E0E0"/>
<path d="M593.78 209.792H514.233V212.686H593.78V209.792Z" fill="#E0E0E0"/>
<path d="M593.78 216.605H514.233V219.499H593.78V216.605Z" fill="#E0E0E0"/>
<path d="M593.78 223.418H514.233V226.312H593.78V223.418Z" fill="#E0E0E0"/>
<path d="M522.493 199.519H514.746V231.455H522.493V199.519Z" fill="#263238"/>
<path d="M534.339 208.474H526.593V231.455H534.339V208.474Z" fill="#FFC200"/>
<path d="M546.186 202.906H538.439V231.455H546.186V202.906Z" fill="#263238"/>
<path d="M558.04 214.449H550.293V231.462H558.04V214.449Z" fill="#FFC200"/>
<path d="M569.886 203.504H562.14V231.462H569.886V203.504Z" fill="#263238"/>
<path d="M581.74 196.139H573.993V231.455H581.74V196.139Z" fill="#FFC200"/>
<path d="M593.587 191.562H585.84V231.455H593.587V191.562Z" fill="#263238"/>
<path d="M508.366 183.072H511.013" stroke="#263238" stroke-linecap="round" stroke-linejoin="round"/>
<path d="M508.366 186.864H511.013" stroke="#263238" stroke-linecap="round" stroke-linejoin="round"/>
<path d="M508.366 190.663H511.013" stroke="#263238" stroke-linecap="round" stroke-linejoin="round"/>
<path d="M508.366 194.462H511.013" stroke="#263238" stroke-linecap="round" stroke-linejoin="round"/>
<path d="M508.366 198.261H511.013" stroke="#263238" stroke-linecap="round" stroke-linejoin="round"/>
<path d="M508.366 202.054H511.013" stroke="#263238" stroke-linecap="round" stroke-linejoin="round"/>
<path d="M508.366 205.853H511.013" stroke="#263238" stroke-linecap="round" stroke-linejoin="round"/>
<path d="M508.366 209.652H511.013" stroke="#263238" stroke-linecap="round" stroke-linejoin="round"/>
<path d="M508.366 213.451H511.013" stroke="#263238" stroke-linecap="round" stroke-linejoin="round"/>
<path d="M508.366 217.244H511.013" stroke="#263238" stroke-linecap="round" stroke-linejoin="round"/>
<path d="M508.366 221.042H511.013" stroke="#263238" stroke-linecap="round" stroke-linejoin="round"/>
<path d="M508.366 224.842H511.013" stroke="#263238" stroke-linecap="round" stroke-linejoin="round"/>
<path d="M508.366 228.641H511.013" stroke="#263238" stroke-linecap="round" stroke-linejoin="round"/>
<path d="M508.366 232.433H511.013" stroke="#263238" stroke-linecap="round" stroke-linejoin="round"/>
<path d="M593.807 233.524V236.166" stroke="#263238" stroke-linecap="round" stroke-linejoin="round"/>
<path d="M587.486 233.524V236.166" stroke="#263238" stroke-linecap="round" stroke-linejoin="round"/>
<path d="M581.166 233.524V236.166" stroke="#263238" stroke-linecap="round" stroke-linejoin="round"/>
<path d="M574.853 233.524V236.166" stroke="#263238" stroke-linecap="round" stroke-linejoin="round"/>
<path d="M568.533 233.524V236.166" stroke="#263238" stroke-linecap="round" stroke-linejoin="round"/>
<path d="M562.213 233.524V236.166" stroke="#263238" stroke-linecap="round" stroke-linejoin="round"/>
<path d="M555.899 233.524V236.166" stroke="#263238" stroke-linecap="round" stroke-linejoin="round"/>
<path d="M549.58 233.524V236.166" stroke="#263238" stroke-linecap="round" stroke-linejoin="round"/>
<path d="M543.26 233.524V236.166" stroke="#263238" stroke-linecap="round" stroke-linejoin="round"/>
<path d="M536.946 233.524V236.166" stroke="#263238" stroke-linecap="round" stroke-linejoin="round"/>
<path d="M530.626 233.524V236.166" stroke="#263238" stroke-linecap="round" stroke-linejoin="round"/>
<path d="M524.307 233.524V236.166" stroke="#263238" stroke-linecap="round" stroke-linejoin="round"/>
<path d="M517.986 233.524V236.166" stroke="#263238" stroke-linecap="round" stroke-linejoin="round"/>
<path d="M511.673 233.524V236.166" stroke="#263238" stroke-linecap="round" stroke-linejoin="round"/>
<path d="M559.947 175.939H542.227V178.84H559.947V175.939Z" fill="#263238"/>
<path d="M597.526 256.339H505.306C500.52 256.339 496.64 260.211 496.64 264.988V328.474C496.64 333.251 500.52 337.124 505.306 337.124H597.526C602.313 337.124 606.193 333.251 606.193 328.474V264.988C606.193 260.211 602.313 256.339 597.526 256.339Z" fill="#263238" stroke="#263238" stroke-linecap="round" stroke-linejoin="round"/>
<path d="M595.406 261.275H507.426C504.017 261.275 501.253 264.034 501.253 267.436V326.033C501.253 329.435 504.017 332.194 507.426 332.194H595.406C598.816 332.194 601.58 329.435 601.58 326.033V267.436C601.58 264.034 598.816 261.275 595.406 261.275Z" fill="white" stroke="#263238" stroke-linecap="round" stroke-linejoin="round"/>
<path d="M534.573 325.334C527.866 325.334 521.399 322.843 516.431 318.347C511.463 313.85 508.349 307.67 507.695 301.008C507.041 294.347 508.895 287.681 512.894 282.308C516.894 276.935 522.753 273.239 529.333 271.941L530.613 278.474C527.878 279.01 525.283 280.1 522.989 281.677C520.694 283.255 518.749 285.286 517.273 287.645C515.798 290.004 514.824 292.64 514.411 295.39C513.999 298.14 514.157 300.946 514.876 303.632C515.595 306.319 516.86 308.829 518.591 311.008C520.323 313.187 522.484 314.987 524.942 316.298C527.399 317.608 530.1 318.401 532.877 318.627C535.654 318.852 538.448 318.506 541.086 317.609L543.226 323.91C540.439 324.854 537.516 325.335 534.573 325.334Z" fill="#263238"/>
<path d="M553.7 291.482C552.041 286.932 548.81 283.122 544.587 280.737C540.365 278.353 535.429 277.55 530.666 278.474L529.333 271.941C535.665 270.711 542.229 271.777 547.843 274.949C553.456 278.12 557.751 283.188 559.953 289.239L553.7 291.482Z" fill="#FFC200"/>
<path d="M543.246 323.924L541.106 317.623C543.667 316.753 546.028 315.383 548.052 313.593C550.076 311.802 551.722 309.627 552.894 307.195C554.067 304.763 554.742 302.122 554.88 299.426C555.018 296.73 554.617 294.034 553.7 291.495L559.973 289.233C561.19 292.605 561.722 296.185 561.537 299.764C561.353 303.343 560.456 306.849 558.899 310.079C557.341 313.308 555.155 316.195 552.468 318.573C549.781 320.95 546.646 322.769 543.246 323.924Z" fill="#A8A8A8"/>
<path d="M578.126 277.616H570.633V285.095H578.126V277.616Z" fill="#263238"/>
<path d="M578.126 295.919H570.633V303.398H578.126V295.919Z" fill="#FFC200"/>
<path d="M578.126 314.229H570.633V321.708H578.126V314.229Z" fill="#A8A8A8"/>
<path d="M582.066 281.555H594.693" stroke="#263238" stroke-linecap="round" stroke-linejoin="round"/>
<path d="M582.066 299.266H594.693" stroke="#263238" stroke-linecap="round" stroke-linejoin="round"/>
<path d="M527.633 298.874H540.259" stroke="#263238" stroke-linecap="round" stroke-linejoin="round"/>
<path d="M582.066 317.769H594.693" stroke="#263238" stroke-linecap="round" stroke-linejoin="round"/>
<path d="M220 381.335H205.333" stroke="#263238" stroke-width="0.75" stroke-miterlimit="10" stroke-linecap="round"/>
<path d="M591.333 381.335H228" stroke="#263238" stroke-width="0.75" stroke-miterlimit="10" stroke-linecap="round"/>
<path d="M619.333 381.335H596" stroke="#263238" stroke-width="0.75" stroke-miterlimit="10" stroke-linecap="round"/>
<mask id="mask0_9885_3730" style="mask-type:luminance" maskUnits="userSpaceOnUse" x="312" y="228" width="27" height="25">
<path d="M338.803 228.301H312.025V252.301H338.803V228.301Z" fill="white"/>
</mask>
<g mask="url(#mask0_9885_3730)">
<path d="M312.64 245.7L321.537 230.486C322.667 231.151 328.366 234.301 329.286 234.9L320.389 250.115C319.416 251.399 311.408 247.65 312.64 245.7Z" fill="#FBBC04"/>
<path d="M338.204 245.699L329.308 230.486C328.064 228.419 325.385 227.668 323.185 228.889C320.985 230.11 320.315 232.74 321.559 234.9L330.455 250.115C331.699 252.182 334.378 252.933 336.578 251.712C338.682 250.491 339.448 247.767 338.204 245.701V245.699Z" fill="#4285F4"/>
<path d="M316.491 252.301C318.958 252.301 320.957 250.353 320.957 247.95C320.957 245.548 318.958 243.6 316.491 243.6C314.025 243.6 312.025 245.548 312.025 247.95C312.025 250.353 314.025 252.301 316.491 252.301Z" fill="#34A853"/>
</g>
<mask id="mask1_9885_3730" style="mask-type:luminance" maskUnits="userSpaceOnUse" x="294" y="269" width="22" height="25">
<path d="M315.231 269.355H294V293.355H315.231V269.355Z" fill="white"/>
</mask>
<g mask="url(#mask1_9885_3730)">
<path d="M315.231 290.307C315.236 291.16 314.88 291.975 314.256 292.543C313.631 293.111 312.797 293.379 311.966 293.278C310.469 293.053 309.373 291.726 309.409 290.185V272.469C309.373 270.926 310.472 269.598 311.971 269.375C312.801 269.276 313.634 269.545 314.257 270.113C314.881 270.681 315.235 271.494 315.231 272.347V290.307Z" fill="#F9AB00"/>
<path d="M296.911 287.371C298.519 287.371 299.822 288.699 299.822 290.338C299.822 291.976 298.519 293.304 296.911 293.304C295.303 293.304 294 291.976 294 290.338C294 288.699 295.303 287.371 296.911 287.371ZM304.571 278.381C302.955 278.471 301.702 279.852 301.739 281.5V289.468C301.739 291.63 302.673 292.943 304.041 293.223C304.9 293.4 305.792 293.174 306.469 292.608C307.147 292.042 307.539 291.195 307.537 290.302V281.363C307.538 280.564 307.225 279.799 306.667 279.238C306.109 278.678 305.354 278.369 304.571 278.381Z" fill="#E37400"/>
</g>
<mask id="mask2_9885_3730" style="mask-type:luminance" maskUnits="userSpaceOnUse" x="266" y="228" width="24" height="25">
<path d="M290 228.301H266V252.301H290V228.301Z" fill="white"/>
</mask>
<g mask="url(#mask2_9885_3730)">
<mask id="mask3_9885_3730" style="mask-type:alpha" maskUnits="userSpaceOnUse" x="266" y="228" width="24" height="25">
<path d="M278 252.301C284.627 252.301 290 246.928 290 240.301C290 233.673 284.627 228.301 278 228.301C271.373 228.301 266 233.673 266 240.301C266 246.928 271.373 252.301 278 252.301Z" fill="white"/>
</mask>
<g mask="url(#mask3_9885_3730)">
<path d="M266 228.302H290V252.302H266V228.302Z" fill="url(#paint1_linear_9885_3730)"/>
<path d="M266 243.069H273.385V252.3H266V243.069Z" fill="url(#paint2_linear_9885_3730)"/>
<path d="M273.385 240.115C273.385 238.564 273.385 237.789 273.687 237.196C273.952 236.675 274.376 236.251 274.897 235.986C275.489 235.684 276.265 235.684 277.816 235.684H282.616V252.299H273.385V240.115Z" fill="url(#paint3_linear_9885_3730)"/>
<path d="M282.615 228.3H290V252.3H282.615V228.3Z" fill="url(#paint4_linear_9885_3730)"/>
</g>
</g>
<path d="M194.062 290.569L195.265 292.615C195.514 293.046 195.874 293.385 196.296 293.631L200.591 286.308H192C192 286.785 192.125 287.261 192.375 287.692L194.062 290.569Z" fill="#0066DA"/>
<path d="M205.636 277.692L201.341 270.369C200.919 270.615 200.56 270.954 200.31 271.385L192.375 284.923C192.13 285.344 192 285.822 192 286.308H200.591L205.636 277.692Z" fill="#00AC47"/>
<path d="M214.977 293.631C215.399 293.385 215.758 293.046 216.008 292.615L216.508 291.769L218.897 287.692C219.147 287.261 219.272 286.785 219.272 286.308H210.681L212.509 289.846L214.977 293.631Z" fill="#EA4335"/>
<path d="M205.636 277.692L209.932 270.369C209.51 270.123 209.026 270 208.526 270H202.747C202.247 270 201.763 270.138 201.341 270.369L205.636 277.692Z" fill="#00832D"/>
<path d="M210.682 286.308H200.591L196.296 293.631C196.718 293.877 197.202 294 197.702 294H213.572C214.072 294 214.556 293.861 214.978 293.631L210.682 286.308Z" fill="#2684FC"/>
<path d="M214.931 278.154L210.963 271.385C210.713 270.954 210.354 270.615 209.932 270.369L205.637 277.692L210.682 286.308H219.258C219.258 285.831 219.133 285.354 218.883 284.923L214.931 278.154Z" fill="#FFBA00"/>
<mask id="mask4_9885_3730" style="mask-type:luminance" maskUnits="userSpaceOnUse" x="227" y="309" width="22" height="22">
<path d="M249 309H227V331H249V309Z" fill="white"/>
</mask>
<g mask="url(#mask4_9885_3730)">
<path d="M227 319.542C227 314.572 227 312.088 228.544 310.544C230.088 309 232.572 309 237.542 309H238.458C243.428 309 245.912 309 247.456 310.544C249 312.088 249 314.572 249 319.542V320.458C249 325.428 249 327.912 247.456 329.456C245.912 331 243.428 331 238.458 331H237.542C232.572 331 230.088 331 228.544 329.456C227 327.912 227 325.428 227 320.458V319.542Z" fill="#2787F5"/>
<path fill-rule="evenodd" clip-rule="evenodd" d="M232.958 315.875H231.354C230.895 315.875 230.804 316.091 230.804 316.329C230.804 316.754 231.348 318.861 233.337 321.648C234.663 323.552 236.531 324.583 238.231 324.583C239.25 324.583 239.377 324.354 239.377 323.959V322.521C239.377 322.062 239.473 321.971 239.796 321.971C240.034 321.971 240.442 322.09 241.394 323.008C242.482 324.095 242.661 324.583 243.273 324.583H244.878C245.336 324.583 245.566 324.354 245.433 323.902C245.289 323.451 244.769 322.797 244.08 322.022C243.706 321.58 243.145 321.104 242.975 320.866C242.737 320.56 242.805 320.424 242.975 320.153C242.975 320.153 244.93 317.399 245.134 316.465C245.236 316.125 245.134 315.875 244.649 315.875H243.044C242.636 315.875 242.448 316.091 242.346 316.329C242.346 316.329 241.53 318.317 240.374 319.609C240 319.983 239.83 320.102 239.626 320.102C239.524 320.102 239.377 319.983 239.377 319.643V316.465C239.377 316.057 239.258 315.875 238.918 315.875H236.397C236.142 315.875 235.988 316.064 235.988 316.244C235.988 316.63 236.566 316.72 236.626 317.807V320.17C236.626 320.687 236.532 320.781 236.328 320.781C235.784 320.781 234.461 318.784 233.677 316.499C233.523 316.054 233.369 315.875 232.958 315.875Z" fill="white"/>
</g>
<mask id="mask5_9885_3730" style="mask-type:luminance" maskUnits="userSpaceOnUse" x="248" y="271" width="26" height="24">
<path d="M273.6 271H248V295H273.6V271Z" fill="white"/>
</mask>
<g mask="url(#mask5_9885_3730)">
<path d="M254.256 286.248L252.896 287.608L248 282.712L252.896 277.816L254.256 279.176L250.736 282.696L254.256 286.248ZM267.344 279.16L268.704 277.816L273.6 282.712L268.704 287.608L267.344 286.248L270.864 282.712L267.344 279.16Z" fill="#DA0E16"/>
<path d="M267.344 274.808C267.343 274.302 267.242 273.801 267.047 273.335C266.852 272.868 266.567 272.444 266.208 272.088L265.072 275.336L261.984 274.264L263.12 271C262.403 271.08 261.724 271.361 261.16 271.811C260.596 272.26 260.171 272.86 259.933 273.541C259.696 274.221 259.656 274.956 259.818 275.658C259.979 276.361 260.336 277.004 260.848 277.512L257.68 286.84C256.962 286.917 256.28 287.197 255.714 287.645C255.149 288.094 254.721 288.693 254.482 289.374C254.242 290.056 254.201 290.791 254.362 291.495C254.523 292.199 254.88 292.843 255.392 293.352L256.528 290.088L259.616 291.176L258.48 294.44C259.2 294.362 259.883 294.082 260.449 293.632C261.016 293.181 261.443 292.579 261.681 291.895C261.919 291.211 261.958 290.474 261.794 289.769C261.629 289.064 261.268 288.42 260.752 287.912L263.92 278.632C264.863 278.533 265.736 278.087 266.369 277.38C267.001 276.673 267.349 275.757 267.344 274.808Z" fill="#393837"/>
</g>
<mask id="mask6_9885_3730" style="mask-type:luminance" maskUnits="userSpaceOnUse" x="223" y="228" width="27" height="24">
<path d="M249.907 228H223V252H249.907V228Z" fill="white"/>
</mask>
<g mask="url(#mask6_9885_3730)">
<path fill-rule="evenodd" clip-rule="evenodd" d="M230.545 230.001L232.545 228.001V231.819H230.545V230.001ZM242.362 230.001L240.362 228.001V231.819H242.362V230.001Z" fill="#7B7B7B"/>
<path d="M232.545 228.001H240.363V229.91H232.545V228.001Z" fill="#5A5A5A"/>
<path fill-rule="evenodd" clip-rule="evenodd" d="M247.725 251.998H225.182C224.603 251.998 224.048 251.769 223.639 251.359C223.23 250.95 223 250.395 223 249.817V235.568L226.749 231.819H246.158L249.907 235.568V249.817C249.907 250.395 249.677 250.95 249.268 251.359C248.859 251.769 248.304 251.998 247.725 251.998Z" fill="#E6E7E8"/>
<path fill-rule="evenodd" clip-rule="evenodd" d="M223 239.545V235.568L226.749 231.819H246.158L249.907 235.568V239.545H223Z" fill="#D0D1D2"/>
<path fill-rule="evenodd" clip-rule="evenodd" d="M226.091 251.998V236.546C226.091 236.305 226.187 236.073 226.357 235.903C226.528 235.732 226.759 235.637 227 235.637H245.908C246.149 235.637 246.38 235.732 246.55 235.903C246.721 236.073 246.817 236.305 246.817 236.546V251.998H226.091Z" fill="#458CF5"/>
<path d="M226.091 239.545H246.817V251.998H226.091V239.545Z" fill="white"/>
<path fill-rule="evenodd" clip-rule="evenodd" d="M240.634 251.999V248.272L238.816 246.454L237.635 243.181L238.453 241.091L243.089 245.727L243.907 242.272L246.816 245.181V251.999H240.634Z" fill="#D2D3D4"/>
<path d="M227.454 241H234.363V248.726H227.454V241ZM227.454 250.453H236.363V251.998H227.454V250.453Z" fill="#D2D3D4"/>
<path fill-rule="evenodd" clip-rule="evenodd" d="M242.362 249.099V251.999H238.544V249.14C237.766 248.786 237.105 248.217 236.638 247.501C236.171 246.784 235.918 245.949 235.908 245.094C235.899 244.239 236.133 243.399 236.584 242.672C237.035 241.946 237.683 241.362 238.453 240.991V245.272L240.362 246.454L242.362 245.272V240.991C243.125 241.359 243.768 241.934 244.219 242.651C244.669 243.368 244.908 244.198 244.908 245.045C244.908 245.892 244.669 246.721 244.219 247.438C243.768 248.155 243.125 248.731 242.362 249.099Z" fill="#505050"/>
<path fill-rule="evenodd" clip-rule="evenodd" d="M228.227 236.637C228.38 236.637 228.529 236.682 228.656 236.767C228.783 236.852 228.882 236.972 228.941 237.114C228.999 237.255 229.014 237.41 228.985 237.56C228.955 237.71 228.881 237.848 228.773 237.956C228.665 238.064 228.527 238.137 228.378 238.167C228.228 238.197 228.072 238.182 227.931 238.123C227.79 238.065 227.669 237.966 227.584 237.839C227.499 237.712 227.454 237.562 227.454 237.409C227.454 237.204 227.535 237.008 227.68 236.863C227.825 236.718 228.022 236.637 228.227 236.637ZM230.499 236.637C230.652 236.637 230.801 236.682 230.929 236.767C231.056 236.852 231.155 236.972 231.213 237.114C231.272 237.255 231.287 237.41 231.257 237.56C231.227 237.71 231.154 237.848 231.046 237.956C230.938 238.064 230.8 238.137 230.65 238.167C230.5 238.197 230.345 238.182 230.204 238.123C230.062 238.065 229.942 237.966 229.857 237.839C229.772 237.712 229.727 237.562 229.727 237.409C229.727 237.204 229.808 237.008 229.953 236.863C230.098 236.718 230.294 236.637 230.499 236.637Z" fill="#E6E7E8"/>
</g>
<path d="M192.147 240.519C192.147 233.851 186.741 228.446 180.073 228.446C173.405 228.446 168 233.851 168 240.519C168 246.546 172.415 251.54 178.187 252.446V244.009H175.121V240.519H178.187V237.859C178.187 234.834 179.989 233.162 182.747 233.162C184.068 233.162 185.45 233.398 185.45 233.398V236.369H183.927C182.427 236.369 181.96 237.3 181.96 238.255V240.519H185.308L184.773 244.009H181.96V252.446C187.732 251.54 192.147 246.546 192.147 240.519Z" fill="#1877F2"/>
<mask id="mask7_9885_3730" style="mask-type:luminance" maskUnits="userSpaceOnUse" x="268" y="156" width="25" height="24">
<path d="M292.381 156H268V180H292.381V156Z" fill="white"/>
</mask>
<g mask="url(#mask7_9885_3730)">
<path d="M290.442 174.496C289.117 174.463 288.089 174.596 287.228 174.96C286.979 175.06 286.582 175.06 286.548 175.375C286.681 175.507 286.698 175.723 286.814 175.905C287.012 176.236 287.36 176.684 287.675 176.916C288.023 177.181 288.371 177.446 288.736 177.678C289.382 178.076 290.111 178.307 290.741 178.705C291.105 178.937 291.47 179.235 291.834 179.484C292.016 179.616 292.132 179.832 292.364 179.915V179.865C292.248 179.716 292.215 179.5 292.099 179.335C291.934 179.169 291.768 179.02 291.602 178.854C291.122 178.208 290.525 177.645 289.879 177.181C289.349 176.816 288.189 176.319 287.973 175.706C287.973 175.706 287.957 175.689 287.94 175.673C288.305 175.64 288.736 175.507 289.084 175.408C289.647 175.259 290.161 175.292 290.741 175.143C291.006 175.076 291.271 174.994 291.536 174.911V174.762C291.238 174.463 291.022 174.066 290.707 173.784C289.862 173.055 288.934 172.342 287.973 171.746C287.46 171.415 286.797 171.199 286.25 170.917C286.051 170.818 285.72 170.768 285.604 170.603C285.306 170.238 285.14 169.758 284.925 169.327C284.444 168.415 283.98 167.405 283.566 166.444C283.268 165.797 283.085 165.151 282.721 164.555C281.014 161.738 279.158 160.031 276.308 158.358C275.695 158.01 274.966 157.861 274.188 157.678C273.773 157.662 273.359 157.629 272.945 157.612C272.68 157.496 272.415 157.181 272.183 157.032C271.238 156.436 268.802 155.143 268.106 156.85C267.659 157.927 268.769 158.987 269.15 159.534C269.432 159.915 269.797 160.346 269.995 160.777C270.111 161.058 270.145 161.357 270.261 161.655C270.526 162.384 270.774 163.196 271.122 163.875C271.304 164.223 271.503 164.588 271.735 164.903C271.868 165.085 272.1 165.168 272.149 165.466C271.918 165.797 271.901 166.295 271.768 166.709C271.172 168.581 271.404 170.901 272.249 172.276C272.514 172.69 273.144 173.602 273.989 173.254C274.734 172.955 274.569 172.011 274.784 171.183C274.834 170.984 274.801 170.851 274.9 170.719C274.9 170.735 274.9 170.752 274.9 170.752C275.132 171.216 275.364 171.663 275.579 172.127C276.093 172.939 276.988 173.784 277.733 174.347C278.131 174.646 278.446 175.159 278.943 175.342V175.292H278.91C278.81 175.143 278.661 175.076 278.529 174.96C278.231 174.662 277.899 174.298 277.667 173.966C276.971 173.038 276.358 172.011 275.811 170.951C275.546 170.437 275.314 169.873 275.099 169.36C274.999 169.161 274.999 168.863 274.834 168.763C274.585 169.128 274.221 169.443 274.038 169.89C273.724 170.603 273.69 171.481 273.574 172.392C273.508 172.409 273.541 172.392 273.508 172.425C272.978 172.293 272.796 171.746 272.597 171.282C272.1 170.106 272.017 168.217 272.448 166.858C272.564 166.51 273.061 165.416 272.862 165.085C272.763 164.77 272.431 164.588 272.249 164.339C272.033 164.024 271.801 163.627 271.652 163.279C271.255 162.351 271.056 161.324 270.625 160.396C270.426 159.965 270.078 159.518 269.797 159.12C269.482 158.673 269.134 158.358 268.885 157.827C268.803 157.645 268.686 157.347 268.819 157.148C268.852 157.016 268.918 156.966 269.051 156.933C269.266 156.75 269.879 156.982 270.095 157.082C270.708 157.33 271.222 157.562 271.735 157.91C271.967 158.076 272.216 158.391 272.514 158.474H272.862C273.392 158.59 273.989 158.507 274.486 158.656C275.364 158.937 276.159 159.352 276.872 159.799C279.042 161.174 280.832 163.13 282.042 165.466C282.24 165.847 282.323 166.195 282.505 166.593C282.853 167.405 283.284 168.233 283.632 169.028C283.98 169.807 284.311 170.603 284.809 171.249C285.057 171.597 286.051 171.779 286.499 171.961C286.83 172.11 287.344 172.243 287.642 172.425C288.205 172.773 288.769 173.171 289.299 173.552C289.564 173.751 290.393 174.165 290.442 174.496Z" fill="#00546B"/>
<path d="M273.542 160.097C273.26 160.097 273.061 160.131 272.862 160.18C272.862 160.18 272.862 160.197 272.862 160.214H272.895C273.028 160.479 273.26 160.661 273.426 160.893C273.558 161.158 273.674 161.423 273.807 161.688C273.823 161.672 273.84 161.655 273.84 161.655C274.072 161.489 274.188 161.224 274.188 160.827C274.088 160.711 274.072 160.595 273.989 160.479C273.89 160.313 273.674 160.23 273.542 160.097Z" fill="#00546B"/>
</g>
<path fill-rule="evenodd" clip-rule="evenodd" d="M226 164.154H244.909V151H226V164.154Z" fill="#FFCC00"/>
<path fill-rule="evenodd" clip-rule="evenodd" d="M231.09 170H234.726V163.423H231.09V170Z" fill="#FFCC00"/>
<path fill-rule="evenodd" clip-rule="evenodd" d="M236.182 165.625H239.818V163.423H236.182V165.625Z" fill="#FFCC00"/>
<path fill-rule="evenodd" clip-rule="evenodd" d="M226 170H229.636V163.423H226V170Z" fill="#FFCC00"/>
<path fill-rule="evenodd" clip-rule="evenodd" d="M241.272 164.154L242.363 169.269H246L244.909 164.154H241.272Z" fill="#EFB30E"/>
<path fill-rule="evenodd" clip-rule="evenodd" d="M229.637 156.115H241.273V155.385H229.637V156.115Z" fill="black"/>
<path fill-rule="evenodd" clip-rule="evenodd" d="M229.637 158.308H241.273V157.577H229.637V158.308Z" fill="black"/>
<path fill-rule="evenodd" clip-rule="evenodd" d="M229.637 160.5H236.909V159.769H229.637V160.5Z" fill="black"/>
<mask id="mask8_9885_3730" style="mask-type:luminance" maskUnits="userSpaceOnUse" x="248" y="191" width="20" height="17">
<path d="M268 191H248V208H268V191Z" fill="white"/>
</mask>
<g mask="url(#mask8_9885_3730)">
<path d="M248.001 205.875H250.223V208H248.001V205.875Z" fill="#FF0000"/>
<path d="M248.001 191H250.223V205.875H248.001V191ZM252.445 191H254.667V208H252.445V191ZM256.889 191H259.111V208H256.889V191ZM261.333 191H263.555V208H261.333V191ZM265.777 197.906H267.999V201.094H265.777V197.906Z" fill="#FFCC00"/>
</g>
<path fill-rule="evenodd" clip-rule="evenodd" d="M205.832 194.26C200.404 194.26 196 198.682 196 204.13C196 209.579 200.404 214 205.832 214C211.259 214 215.664 209.579 215.664 204.13H212.371C212.371 207.748 209.435 210.695 205.832 210.695C202.228 210.695 199.292 207.748 199.292 204.13C199.292 200.513 202.228 197.565 205.832 197.565V194.26Z" fill="#FC2C38"/>
<path fill-rule="evenodd" clip-rule="evenodd" d="M212.416 191L209.124 194.26V198.548L206.722 200.959C206.455 200.87 206.144 200.825 205.832 200.825C204.008 200.825 202.54 202.299 202.54 204.13C202.54 205.961 204.008 207.435 205.832 207.435C207.656 207.435 209.124 205.961 209.124 204.13C209.124 203.862 209.08 203.549 209.035 203.326L211.482 200.87H212.416H215.708L219 197.565H212.416V191Z" fill="#FC2C38"/>
<mask id="mask9_9885_3730" style="mask-type:luminance" maskUnits="userSpaceOnUse" x="292" y="188" width="28" height="24">
<path d="M319.692 188H292V212H319.692V188Z" fill="white"/>
</mask>
<g mask="url(#mask9_9885_3730)">
<path d="M298.265 211.002L292.241 200.874C291.92 200.333 291.92 199.666 292.241 199.125L298.265 188.998C298.587 188.457 299.181 188.124 299.823 188.124H311.877C312.517 188.126 313.108 188.46 313.428 188.998L319.451 199.125C319.773 199.666 319.773 200.333 319.451 200.874L313.427 211.002C313.105 211.543 312.512 211.876 311.869 211.877H299.819C299.177 211.875 298.587 211.541 298.265 211.002Z" fill="#4386FA"/>
<path opacity="0.1" d="M309.609 196.739C309.609 196.739 311.283 200.638 309 202.848C306.717 205.058 302.561 203.643 302.561 203.643L311.016 211.873H311.875C312.518 211.873 313.111 211.539 313.432 210.999L317.42 204.297L309.609 196.739Z" fill="black"/>
<path d="M311.587 204.717L309.741 202.92C309.72 202.9 309.697 202.883 309.672 202.87C310.458 201.888 310.828 200.652 310.707 199.415C310.587 198.177 309.985 197.031 309.024 196.209C308.063 195.387 306.815 194.952 305.535 194.992C304.255 195.032 303.039 195.545 302.135 196.425C301.23 197.305 300.705 198.486 300.667 199.729C300.629 200.971 301.08 202.181 301.929 203.112C302.778 204.043 303.961 204.624 305.236 204.738C306.511 204.852 307.783 204.49 308.793 203.725C308.806 203.748 308.823 203.77 308.842 203.788L310.692 205.585C310.747 205.637 310.821 205.667 310.897 205.667C310.974 205.667 311.048 205.637 311.102 205.585L311.587 205.114C311.641 205.061 311.672 204.99 311.672 204.915C311.672 204.841 311.641 204.769 311.587 204.717ZM305.691 203.555C304.942 203.555 304.21 203.339 303.587 202.936C302.964 202.532 302.479 201.958 302.192 201.286C301.906 200.615 301.831 199.876 301.977 199.163C302.123 198.45 302.483 197.795 303.013 197.281C303.542 196.767 304.217 196.417 304.952 196.275C305.686 196.134 306.447 196.206 307.139 196.485C307.831 196.763 308.422 197.234 308.838 197.838C309.254 198.443 309.476 199.153 309.476 199.88C309.476 200.855 309.077 201.789 308.367 202.478C307.657 203.168 306.695 203.555 305.691 203.555ZM303.271 199.684V201.203C303.512 201.616 303.86 201.96 304.282 202.2V199.675L303.271 199.684ZM305.164 198.425V202.529C305.498 202.589 305.841 202.589 306.175 202.529V198.425H305.164ZM308.09 201.199V200.3H307.079V202.19C307.501 201.95 307.85 201.607 308.091 201.195L308.09 201.199Z" fill="white"/>
</g>
<path d="M285.41 326.456C285.553 325.187 285.51 325.002 286.4 325.207L286.626 325.228C287.31 325.261 288.205 325.111 288.74 324.852C289.872 324.295 290.543 323.364 289.427 323.609C286.882 324.166 286.697 323.25 286.697 323.25C289.386 319.014 290.511 313.637 289.539 312.321C286.893 308.73 282.311 310.428 282.235 310.473L282.21 310.478C281.708 310.365 281.153 310.3 280.51 310.29C279.358 310.272 278.484 310.611 277.82 311.145C277.82 311.145 269.648 307.571 270.027 315.641C270.109 317.358 272.344 328.64 275.013 325.226C275.99 323.979 276.933 322.925 276.933 322.925C277.4 323.255 277.961 323.423 278.548 323.363L278.594 323.321C278.581 323.483 278.587 323.646 278.613 323.806C277.926 324.621 278.128 324.764 276.754 325.065C275.364 325.369 276.181 325.91 276.713 326.052C277.36 326.224 278.856 326.467 279.867 324.966L279.826 325.137C280.096 325.366 280.078 326.783 280.117 327.794C280.157 328.806 280.219 329.752 280.414 330.308C280.609 330.865 280.837 332.3 282.643 331.898C284.152 331.555 285.306 331.06 285.411 326.465" fill="black"/>
<path d="M285.41 326.456C285.553 325.187 285.51 325.002 286.4 325.207L286.626 325.228C287.31 325.261 288.205 325.111 288.74 324.852C289.872 324.295 290.543 323.364 289.427 323.609C286.882 324.166 286.697 323.25 286.697 323.25C289.386 319.014 290.511 313.637 289.539 312.321C286.893 308.73 282.311 310.428 282.235 310.473L282.21 310.478C281.708 310.365 281.153 310.3 280.51 310.29C279.358 310.272 278.484 310.611 277.82 311.145C277.82 311.145 269.648 307.571 270.027 315.641C270.109 317.358 272.344 328.64 275.013 325.226C275.99 323.979 276.933 322.925 276.933 322.925C277.4 323.255 277.961 323.423 278.548 323.363L278.594 323.321C278.581 323.483 278.587 323.646 278.613 323.806C277.926 324.621 278.128 324.764 276.754 325.065C275.364 325.369 276.181 325.91 276.713 326.052C277.36 326.224 278.856 326.467 279.867 324.966L279.826 325.137C280.096 325.366 280.078 326.783 280.117 327.794C280.157 328.806 280.219 329.752 280.414 330.308C280.609 330.865 280.837 332.3 282.643 331.898C284.152 331.555 285.306 331.06 285.411 326.465" stroke="black" stroke-width="4"/>
<path d="M289.42 323.617C286.874 324.174 286.689 323.259 286.689 323.259C289.378 319.022 290.503 313.645 289.532 312.329C286.886 308.738 282.305 310.437 282.228 310.481L282.203 310.486C281.644 310.367 281.075 310.304 280.504 310.298C279.352 310.279 278.478 310.619 277.814 311.153C277.814 311.153 269.641 307.578 270.022 315.648C270.103 317.365 272.338 328.647 275.008 325.234C275.991 323.979 276.933 322.925 276.933 322.925C277.4 323.255 277.961 323.423 278.549 323.363L278.594 323.321C278.581 323.483 278.587 323.646 278.613 323.806C277.926 324.621 278.128 324.764 276.754 325.065C275.364 325.369 276.182 325.91 276.714 326.052C277.36 326.224 278.856 326.467 279.867 324.966L279.827 325.137C280.096 325.366 280.285 326.626 280.253 327.769C280.221 328.912 280.2 329.696 280.412 330.309C280.623 330.923 280.835 332.301 282.64 331.899C284.149 331.556 284.931 330.665 285.041 329.181C285.118 328.126 285.293 328.282 285.305 327.339L285.446 326.892C285.607 325.461 285.472 325 286.402 325.215L286.628 325.237C287.313 325.269 288.208 325.12 288.733 324.861C289.865 324.303 290.537 323.372 289.421 323.617H289.42Z" fill="#336791"/>
<path d="M282.227 310.437C281.945 310.531 286.776 308.562 289.523 312.287C290.492 313.603 289.369 318.98 286.679 323.217M279.976 324.428C279.905 327.089 279.993 329.77 280.238 330.413C280.483 331.056 281.009 332.33 282.816 331.92C284.325 331.577 284.874 330.912 285.112 329.445L285.67 324.753L279.976 324.428ZM277.81 311.085C277.81 311.085 269.632 307.535 270.013 315.605C270.094 317.322 272.33 328.604 274.999 325.191C275.973 323.944 276.854 322.969 276.854 322.969L277.81 311.085Z" stroke="white" stroke-width="1.75" stroke-linecap="round" stroke-linejoin="round"/>
<path d="M286.68 323.215C286.68 323.215 286.856 324.131 289.411 323.572C290.527 323.327 289.855 324.258 288.724 324.816C287.795 325.274 285.713 325.391 285.678 324.76C285.59 323.128 286.774 323.623 286.689 323.215C286.611 322.846 286.081 322.485 285.732 321.584C285.426 320.798 281.539 314.766 286.81 315.661C287.004 315.619 285.436 310.331 280.503 310.254C275.57 310.177 275.726 316.693 275.726 316.693" stroke="white" stroke-width="1.75" stroke-linecap="round" stroke-linejoin="bevel"/>
<path d="M278.595 323.774C277.908 324.59 278.11 324.733 276.736 325.033C275.346 325.337 276.164 325.878 276.696 326.02C277.342 326.192 278.838 326.436 279.849 324.933C280.157 324.475 279.847 323.745 279.425 323.56C279.22 323.47 278.947 323.358 278.597 323.775L278.595 323.774Z" stroke="white" stroke-width="1.75" stroke-linejoin="round"/>
<path d="M278.55 323.76C278.48 323.28 278.698 322.711 278.932 322.043C279.282 321.042 280.091 320.042 279.444 316.865C278.963 314.499 275.727 316.372 275.727 316.693C275.727 317.014 275.873 318.32 275.674 319.84C275.413 321.824 276.863 323.502 278.534 323.331" stroke="white" stroke-width="1.75" stroke-linecap="round" stroke-linejoin="round"/>
<path d="M277.78 316.645C277.765 316.755 277.969 317.047 278.235 317.087C278.5 317.126 278.726 316.898 278.741 316.787C278.756 316.677 278.552 316.557 278.287 316.518C278.021 316.479 277.793 316.537 277.78 316.645Z" fill="white" stroke="white" stroke-width="0.5975"/>
<path d="M285.852 316.421C285.866 316.531 285.663 316.824 285.398 316.863C285.133 316.902 284.904 316.674 284.891 316.564C284.878 316.453 285.081 316.334 285.346 316.294C285.611 316.255 285.839 316.313 285.852 316.421Z" fill="white" stroke="white" stroke-width="0.2975"/>
<path d="M286.801 315.663C286.845 316.523 286.626 317.108 286.598 318.024C286.558 319.353 287.195 320.876 286.234 322.4" stroke="white" stroke-width="1.79" stroke-linecap="round" stroke-linejoin="round"/>
<defs>
<linearGradient id="paint0_linear_9885_3730" x1="400.5" y1="73" x2="532" y2="463.5" gradientUnits="userSpaceOnUse">
<stop stop-color="#FFACBF"/>
<stop offset="1" stop-color="#FFACBF" stop-opacity="0"/>
</linearGradient>
<linearGradient id="paint1_linear_9885_3730" x1="283.2" y1="245.701" x2="263.4" y2="218.101" gradientUnits="userSpaceOnUse">
<stop stop-color="#4643B9"/>
<stop offset="1" stop-color="#1E8AFF"/>
</linearGradient>
<linearGradient id="paint2_linear_9885_3730" x1="273.871" y1="249.106" x2="252.042" y2="245.304" gradientUnits="userSpaceOnUse">
<stop stop-color="#FF002E"/>
<stop offset="1" stop-color="#FFADA1"/>
</linearGradient>
<linearGradient id="paint3_linear_9885_3730" x1="330.154" y1="288.761" x2="335.649" y2="243.819" gradientUnits="userSpaceOnUse">
<stop stop-color="#3C3BA0"/>
<stop offset="0.49" stop-color="#1E8AFF"/>
<stop offset="1" stop-color="#00B2FF"/>
</linearGradient>
<linearGradient id="paint4_linear_9885_3730" x1="282.615" y1="229.534" x2="303.516" y2="240.334" gradientUnits="userSpaceOnUse">
<stop stop-color="#FFEA1A"/>
<stop offset="1" stop-color="#FFB800"/>
</linearGradient>
</defs>
</svg>
