<svg width="80" height="80" viewBox="0 0 80 80" fill="none" xmlns="http://www.w3.org/2000/svg">
<path d="M10 19.1665C10 17.7858 11.1193 16.6665 12.5 16.6665C21.378 16.6665 30.0266 13.5216 38.5 7.1665C39.389 6.49984 40.611 6.49984 41.5 7.1665C49.9733 13.5216 58.622 16.6665 67.5 16.6665C68.8807 16.6665 70 17.7858 70 19.1665V36.6665C70 37.7935 69.955 38.9002 69.865 39.9868C66.5257 37.8835 62.5717 36.6665 58.3333 36.6665C46.367 36.6665 36.6667 46.3668 36.6667 58.3332C36.6667 63.8365 38.7187 68.8608 42.099 72.6825C41.7087 72.8435 41.3147 73.0022 40.9163 73.1592C40.3273 73.3912 39.6727 73.3912 39.0837 73.1592C19.8585 65.5855 10 53.3372 10 36.6665V19.1665ZM76.6667 58.3332C76.6667 48.2078 68.4587 39.9998 58.3333 39.9998C48.208 39.9998 40 48.2078 40 58.3332C40 68.4585 48.208 76.6665 58.3333 76.6665C68.4587 76.6665 76.6667 68.4585 76.6667 58.3332ZM69.512 50.4878C70.1627 51.1388 70.1627 52.1942 69.512 52.8452L56.1787 66.1785C55.5277 66.8292 54.4723 66.8292 53.8213 66.1785L47.1547 59.5118C46.504 58.8608 46.504 57.8055 47.1547 57.1545C47.8057 56.5038 48.861 56.5038 49.512 57.1545L55 62.6428L67.1547 50.4878C67.8057 49.8372 68.861 49.8372 69.512 50.4878Z" fill="#E9330B"/>
</svg>
