<svg width="81" height="80" viewBox="0 0 81 80" fill="none" xmlns="http://www.w3.org/2000/svg">
<path d="M41.4429 8.33588C40.7709 7.88804 39.8957 7.88804 39.2239 8.33588C31.4711 13.5044 23.0866 16.7292 14.0505 18.0201C13.0652 18.1608 12.3333 19.0047 12.3333 20V38C12.3333 53.5652 21.5613 64.9228 39.6154 71.8668C40.0775 72.0444 40.5893 72.0444 41.0513 71.8668C59.1053 64.9228 68.3333 53.5652 68.3333 38V20C68.3333 19.0047 67.6013 18.1608 66.6161 18.0201C57.5801 16.7292 49.1953 13.5044 41.4429 8.33588ZM40.3333 37.998C35.915 37.998 32.3333 34.4163 32.3333 29.998C32.3333 25.5798 35.915 21.998 40.3333 21.998C44.7517 21.998 48.3333 25.5798 48.3333 29.998C48.3333 34.4163 44.7517 37.998 40.3333 37.998ZM40.3333 57.998C30.3333 57.998 26.3333 52.9976 26.3333 47.998C26.3333 44.6844 29.0196 41.998 32.3333 41.998H48.3333C51.6469 41.998 54.3333 44.6844 54.3333 47.998C54.3333 52.9788 50.3333 57.998 40.3333 57.998Z" fill="#E9330B"/>
</svg>
