<svg width="81" height="80" viewBox="0 0 81 80" fill="none" xmlns="http://www.w3.org/2000/svg">
<path d="M37.3333 11.8605V16.6665C37.3333 18.5074 38.8256 19.9998 40.6666 19.9998C42.5076 19.9998 44 18.5074 44 16.6665V11.8605C56.984 13.3821 67.2843 23.6826 68.806 36.6665H64C62.159 36.6665 60.6666 38.1588 60.6666 39.9998C60.6666 41.8408 62.159 43.3332 64 43.3332H68.797C68.0543 49.3902 65.3193 54.8275 61.332 59.1348C60.394 60.1482 60.455 61.7298 61.4683 62.6678C62.4816 63.6058 64.0633 63.5448 65.0013 62.5315C70.4753 56.6178 74 48.7752 74 39.9998C74 21.5903 59.076 6.6665 40.6666 6.6665C22.2571 6.6665 7.33331 21.5903 7.33331 39.9998C7.33331 48.7752 10.8578 56.6178 16.332 62.5315C17.2699 63.5448 18.8517 63.6058 19.8649 62.6678C20.8781 61.7298 20.9392 60.1482 20.0013 59.1348C16.014 54.8275 13.2788 49.3902 12.5363 43.3332H17.3333C19.1742 43.3332 20.6666 41.8408 20.6666 39.9998C20.6666 38.1588 19.1742 36.6665 17.3333 36.6665H12.5273C13.1517 31.339 15.254 26.4633 18.4132 22.4605L21.6429 25.6902C22.9447 26.9919 25.0552 26.9919 26.357 25.6902C27.6587 24.3884 27.6587 22.2779 26.357 20.9761L23.1273 17.7464C27.1301 14.5872 32.0058 12.4849 37.3333 11.8605ZM56.5296 22.1135C55.7356 21.4989 54.608 21.5202 53.8386 22.1644L53.1146 22.7721C52.6533 23.1595 51.993 23.7148 51.196 24.3868C49.6026 25.7305 47.462 27.5415 45.2753 29.4094C43.09 31.2759 40.8516 33.205 39.0656 34.7828C38.1736 35.5708 37.3856 36.2792 36.77 36.8518C36.1976 37.3845 35.662 37.9022 35.3706 38.2622C33.1941 40.9542 33.6599 44.8625 36.4113 46.9922C39.1626 49.1215 43.1573 48.6658 45.334 45.9742C45.6253 45.6138 46.017 44.9848 46.415 44.3175C46.843 43.5995 47.3663 42.6862 47.945 41.6555C49.1036 39.5922 50.5076 37.0175 51.8616 34.5072C53.2163 31.9955 54.5253 29.5407 55.4953 27.7144C55.9803 26.8011 56.3806 26.0447 56.66 25.5164L57.098 24.6871C57.5616 23.8066 57.3236 22.7281 56.5296 22.1135Z" fill="#E9330B"/>
</svg>
