<svg xmlns="http://www.w3.org/2000/svg" width="16" height="16" viewBox="0 0 16 16" fill="none">
<path d="M16 16.5C16 15.5151 15.7931 14.5398 15.391 13.6299C14.989 12.7199 14.3997 11.8931 13.6569 11.1967C12.914 10.5003 12.0321 9.94781 11.0615 9.5709C10.0909 9.19399 9.05057 9 8 9C6.94942 9 5.90914 9.19399 4.93853 9.5709C3.96793 9.94781 3.08601 10.5003 2.34315 11.1967C1.60028 11.8931 1.011 12.7199 0.608963 13.6299C0.206926 14.5398 -9.18442e-08 15.5151 0 16.5L8 16.5H16Z" fill="white"/>
<path d="M12 4C12 6.20914 10.2091 8 8 8C5.79086 8 4 6.20914 4 4C4 1.79086 5.79086 0 8 0C10.2091 0 12 1.79086 12 4Z" fill="white"/>
</svg>
