<svg width="45" height="42" viewBox="0 0 45 42" fill="none" xmlns="http://www.w3.org/2000/svg">
<path fill-rule="evenodd" clip-rule="evenodd" d="M11.3445 4.8852C11.2834 2.11213 9.3004 0 6.08025 0C2.8601 0 0.754883 2.11213 0.754883 4.8852C0.754883 7.60082 2.79788 9.77378 5.95806 9.77378H6.01822C9.3004 9.77378 11.3445 7.60082 11.3445 4.8852ZM10.7256 13.6368H1.31249V41.9191H10.7256V13.6368ZM33.8353 12.9723C40.0295 12.9723 44.6732 17.0154 44.6732 25.7026L44.6729 41.9188H35.2602V26.7877C35.2602 22.9871 33.898 20.3937 30.4905 20.3937C27.8899 20.3937 26.3409 22.142 25.6606 23.8307C25.4117 24.4359 25.3506 25.2791 25.3506 26.1243V41.9195H15.9365C15.9365 41.9195 16.0605 16.2911 15.9365 13.6372H25.3506V17.6432C26.6 15.7174 28.8375 12.9723 33.8353 12.9723Z" fill="#1B1B1E"/>
</svg>
