<svg width="25" height="25" viewBox="0 0 25 25" fill="none" xmlns="http://www.w3.org/2000/svg">
<path fill-rule="evenodd" clip-rule="evenodd" d="M12.5012 0C9.10634 0 8.68029 0.0148439 7.34695 0.0755216C6.01621 0.13646 5.10786 0.347139 4.31306 0.656256C3.49092 0.97553 2.79352 1.40262 2.09872 2.09768C1.4034 2.79248 0.976312 3.48988 0.655996 4.31176C0.346097 5.10682 0.135158 6.01542 0.0752612 7.34565C0.0156252 8.67899 0 9.1053 0 12.5001C0 15.8949 0.0151043 16.3197 0.0755216 17.653C0.13672 18.9838 0.347399 19.8921 0.656256 20.6869C0.975791 21.5091 1.40288 22.2065 2.09794 22.9013C2.79248 23.5966 3.48988 24.0247 4.3115 24.344C5.10682 24.6531 6.01542 24.8638 7.34591 24.9247C8.67925 24.9854 9.10504 25.0002 12.4996 25.0002C15.8947 25.0002 16.3194 24.9854 17.6528 24.9247C18.9835 24.8638 19.8929 24.6531 20.6882 24.344C21.5101 24.0247 22.2065 23.5966 22.901 22.9013C23.5963 22.2065 24.0234 21.5091 24.3437 20.6872C24.651 19.8921 24.862 18.9835 24.9245 17.6533C24.9844 16.32 25 15.8949 25 12.5001C25 9.1053 24.9844 8.67925 24.9245 7.34591C24.862 6.01516 24.651 5.10682 24.3437 4.31202C24.0234 3.48988 23.5963 2.79248 22.901 2.09768C22.2057 1.40236 21.5104 0.97527 20.6874 0.656256C19.8906 0.347139 18.9817 0.13646 17.651 0.0755216C16.3176 0.0148439 15.8931 0 12.4973 0H12.5012ZM11.3798 2.25206C11.7126 2.25154 12.0839 2.25206 12.5011 2.25206C15.8387 2.25206 16.2343 2.26404 17.5522 2.32393C18.771 2.37966 19.4325 2.58331 19.8731 2.75441C20.4564 2.98097 20.8723 3.25181 21.3096 3.68931C21.7471 4.12682 22.0179 4.54349 22.245 5.12683C22.4161 5.56694 22.62 6.2284 22.6755 7.44716C22.7354 8.76489 22.7484 9.16072 22.7484 12.4967C22.7484 15.8327 22.7354 16.2285 22.6755 17.5462C22.6197 18.765 22.4161 19.4265 22.245 19.8666C22.0184 20.4499 21.7471 20.8653 21.3096 21.3025C20.8721 21.74 20.4567 22.0109 19.8731 22.2374C19.433 22.4093 18.771 22.6124 17.5522 22.6682C16.2345 22.728 15.8387 22.7411 12.5011 22.7411C9.16335 22.7411 8.76777 22.728 7.45005 22.6682C6.23129 22.6119 5.56982 22.4083 5.12893 22.2372C4.54559 22.0106 4.12892 21.7398 3.69142 21.3023C3.25391 20.8647 2.98308 20.4491 2.75599 19.8655C2.5849 19.4254 2.38099 18.7639 2.32552 17.5452C2.26562 16.2275 2.25364 15.8316 2.25364 12.4936C2.25364 9.15551 2.26562 8.76176 2.32552 7.44404C2.38125 6.22528 2.5849 5.56381 2.75599 5.12318C2.98256 4.53984 3.25391 4.12317 3.69142 3.68567C4.12892 3.24816 4.54559 2.97733 5.12893 2.75024C5.56956 2.57836 6.23129 2.37524 7.45005 2.31925C8.60318 2.26716 9.05006 2.25154 11.3798 2.24893V2.25206ZM19.1736 4.32752C18.3455 4.32752 17.6736 4.99862 17.6736 5.82701C17.6736 6.65515 18.3455 7.32703 19.1736 7.32703C20.0018 7.32703 20.6736 6.65515 20.6736 5.82701C20.6736 4.99888 20.0018 4.327 19.1736 4.327V4.32752ZM12.5013 6.0805C8.9562 6.0805 6.08198 8.95475 6.08198 12.4998C6.08198 16.0449 8.9562 18.9179 12.5013 18.9179C16.0463 18.9179 18.9195 16.0449 18.9195 12.4998C18.9195 8.95475 16.0461 6.0805 12.501 6.0805H12.5013ZM12.5012 8.33377C14.8023 8.33377 16.6679 10.1992 16.6679 12.5005C16.6679 14.8015 14.8023 16.6672 12.5012 16.6672C10.1999 16.6672 8.33453 14.8015 8.33453 12.5005C8.33453 10.1992 10.1999 8.33377 12.5012 8.33377V8.33377Z" />
</svg>
