<svg width="22" height="22" viewBox="0 0 22 22" fill="none" xmlns="http://www.w3.org/2000/svg">
<path d="M10.6716 5.59842L13.3033 2.96676C14.0012 2.2688 14.9479 1.87669 15.9349 1.87669C16.922 1.87669 17.8686 2.2688 18.5666 2.96676C19.2645 3.66472 19.6566 4.61136 19.6566 5.59842C19.6566 6.58549 19.2645 7.53212 18.5666 8.23008L14.3559 12.4407C13.658 13.1387 12.7113 13.5308 11.7243 13.5308C10.7372 13.5308 9.79056 13.1387 9.0926 12.4407C8.91566 12.2642 8.75696 12.0702 8.6189 11.8618" stroke-width="2" stroke-miterlimit="10" stroke-linecap="round" stroke-linejoin="round"/>
<path d="M10.6712 16.125L8.03951 18.7567C7.69392 19.1023 7.28364 19.3764 6.8321 19.5634C6.38056 19.7505 5.8966 19.8467 5.40785 19.8467C4.42079 19.8467 3.47415 19.4546 2.77619 18.7567C2.07823 18.0587 1.68612 17.1121 1.68612 16.125C1.68612 15.1379 2.07823 14.1913 2.77619 13.4933L6.98685 9.28268C7.68481 8.58472 8.63145 8.19261 9.61851 8.19261C10.6056 8.19261 11.5522 8.58472 12.2502 9.28268C12.4271 9.45927 12.5858 9.65324 12.7239 9.86165" stroke-width="2" stroke-miterlimit="10" stroke-linecap="round" stroke-linejoin="round"/>
</svg>
