<svg width="20" height="18" viewBox="0 0 20 18" fill="none" xmlns="http://www.w3.org/2000/svg">
<path fill-rule="evenodd" clip-rule="evenodd" d="M6.73244 1C6.38663 0.402198 5.74028 0 5 0C4.25972 0 3.61337 0.402198 3.26757 0.999999L0 0.999999V3H3.26756C3.61337 3.5978 4.25972 4 5 4C5.74028 4 6.38663 3.5978 6.73244 3L20 3V1L6.73244 1ZM15 7C15.7403 7 16.3866 7.4022 16.7324 8H20V10H16.7324C16.3866 10.5978 15.7403 11 15 11C14.2597 11 13.6134 10.5978 13.2676 10L0 10V8L13.2676 8C13.6134 7.4022 14.2597 7 15 7ZM11.7324 15C11.3866 14.4022 10.7403 14 10 14C9.25972 14 8.61337 14.4022 8.26756 15H0V17H8.26756C8.61337 17.5978 9.25972 18 10 18C10.7403 18 11.3866 17.5978 11.7324 17H20V15H11.7324Z" fill="white"/>
</svg>
