<svg width="22" height="23" viewBox="0 0 22 23" fill="none" xmlns="http://www.w3.org/2000/svg">
<path fill-rule="evenodd" clip-rule="evenodd" d="M1.54648 2.53769C0 4.08416 0 6.57316 0 11.5512V12.4312C0 17.4093 0 19.8982 1.54648 21.4447C3.09295 22.9912 5.58195 22.9912 10.56 22.9912H11.44C16.4181 22.9912 18.907 22.9912 20.4535 21.4447C22 19.8982 22 17.4093 22 12.4312V11.5512C22 6.57316 22 4.08416 20.4535 2.53769C18.907 0.991211 16.4181 0.991211 11.44 0.991211H10.56C5.58195 0.991211 3.09295 0.991211 1.54648 2.53769ZM3.71255 7.68292C3.83172 13.4029 6.69171 16.8404 11.7059 16.8404H11.9901V13.5679C13.8326 13.7513 15.2258 15.0988 15.785 16.8404H18.3884C17.6734 14.2371 15.7941 12.7979 14.6208 12.2479C15.7941 11.5696 17.4441 9.91959 17.8383 7.68292H15.4732C14.9599 9.49792 13.4384 11.1479 11.9901 11.3038V7.68292H9.625V14.0263C8.15833 13.6596 6.30671 11.8813 6.22421 7.68292H3.71255Z" />
</svg>
