<svg xmlns="http://www.w3.org/2000/svg" width="48" height="48" viewBox="0 0 48 48" fill="none">
<path fill-rule="evenodd" clip-rule="evenodd" d="M23.7474 0C13.8947 0 6.94737 0 3.41053 3.41053C0 6.94737 0 14.1474 0 23.7474C10.6105 23.3684 15.5368 23.1158 19.3263 19.3263C23.1158 15.5368 23.3684 10.6105 23.7474 0ZM3.41053 44.5895C0 41.0526 0 33.8526 0 24.2526C10.6105 24.6316 15.5368 24.8842 19.3263 28.6737C23.1158 32.5895 23.3684 37.3895 23.7474 48C13.8947 48 6.94737 48 3.41053 44.5895ZM24.2526 48C24.6316 37.3895 24.8842 32.4632 28.6737 28.6737C32.5895 24.8842 37.3895 24.6316 48 24.2526C48 33.8526 48 41.0526 44.5895 44.4632C41.0526 48 34.1053 48 24.2526 48ZM24.2526 0C24.6316 10.6105 24.8842 15.5368 28.6737 19.3263C32.5895 23.1158 37.3895 23.3684 48 23.7474C48 14.1474 48 6.94737 44.5895 3.53684C41.0526 0 34.1053 0 24.2526 0Z" />
</svg>
