<svg xmlns="http://www.w3.org/2000/svg" width="320" height="64" viewBox="0 0 320 64" fill="none">
<g clip-path="url(#clip0_10279_53782)">
<path d="M93.2816 0H104.475V62.0099H93.2816V57.2102C91.4015 59.1062 89.1685 60.616 86.7086 61.6545C84.4542 62.5854 82.0402 63.0682 79.6012 63.076C76.7736 63.0932 73.9758 62.4987 71.3996 61.3333C68.8233 60.1678 66.5296 58.459 64.6756 56.324C62.5643 54.097 60.9127 51.4756 59.8151 48.6099C58.7175 45.7441 58.1955 42.6901 58.279 39.6225C58.279 32.6906 60.2331 27.0073 64.3203 22.5656C66.1834 20.4542 68.4829 18.7728 71.0599 17.6378C73.6368 16.5027 76.4296 15.941 79.2449 15.9917C81.8745 15.9905 84.4757 16.5349 86.8841 17.5904C89.363 18.674 91.5986 20.245 93.458 22.2102V0H93.2816ZM81.3772 26.4738C79.742 26.4279 78.1164 26.7379 76.6129 27.3822C75.1094 28.0266 73.7638 28.9899 72.6693 30.2056C70.3649 32.7877 69.1545 36.1644 69.2937 39.6225C69.1835 43.1611 70.4574 46.6032 72.8448 49.2175C73.9392 50.4328 75.2845 51.3958 76.7877 52.04C78.2909 52.6842 79.9161 52.9941 81.5509 52.9484C83.1857 52.9941 84.8109 52.6842 86.3141 52.04C87.8173 51.3958 89.1627 50.4328 90.257 49.2175C92.6473 46.6045 93.9241 43.1622 93.816 39.6225C93.8866 37.8946 93.6083 36.1702 92.9978 34.5523C92.3872 32.9343 91.4569 31.456 90.2623 30.2056C89.1324 28.987 87.7554 28.0238 86.2232 27.3804C84.6911 26.7369 83.0392 26.4281 81.378 26.4746" fill="#C1321A"/>
<path d="M131.838 17.235H143.032V21.8548C145.095 20.0204 147.435 18.5215 149.964 17.4132C151.991 16.5747 154.166 16.1519 156.36 16.1698C158.467 16.1526 160.556 16.5519 162.507 17.3447C164.459 18.1376 166.235 19.3083 167.732 20.7896C170.397 23.4545 171.641 27.3635 171.641 32.5168V62.0099H160.443V42.4654C160.443 37.1349 160.268 33.5812 159.732 31.8043C159.34 30.22 158.472 28.7939 157.245 27.718C155.957 26.7759 154.398 26.2771 152.803 26.2965C151.72 26.2584 150.64 26.4438 149.631 26.8411C148.622 27.2384 147.706 27.8392 146.94 28.606C145.167 30.3278 143.985 32.5672 143.564 35.0027C143.209 36.4241 143.032 39.4446 143.032 44.0642V62.0099H131.838V17.235Z" fill="#C1321A"/>
<path d="M211.438 0H222.632V62.0099H211.438V57.2102C209.558 59.1054 207.324 60.6143 204.864 61.6519C202.61 62.5827 200.196 63.0655 197.757 63.0734C194.93 63.0908 192.132 62.4966 189.556 61.3317C186.98 60.1667 184.686 58.4584 182.832 56.324C180.721 54.097 179.069 51.4756 177.972 48.6099C176.874 45.7441 176.352 42.6901 176.436 39.6225C176.436 32.6906 178.39 27.0073 182.477 22.5656C184.34 20.4542 186.64 18.7728 189.217 17.6378C191.793 16.5027 194.586 15.941 197.402 15.9917C200.031 15.9904 202.633 16.5348 205.042 17.5904C207.521 18.674 209.756 20.245 211.616 22.2102V0H211.438ZM199.712 26.4738C198.077 26.428 196.452 26.738 194.949 27.3822C193.446 28.0264 192.1 28.9894 191.006 30.2047C188.701 32.7868 187.491 36.1636 187.63 39.6216C187.521 43.1606 188.796 46.6028 191.184 49.2166C192.307 50.3958 193.657 51.3347 195.154 51.9762C196.651 52.6177 198.262 52.9485 199.89 52.9485C201.518 52.9485 203.13 52.6177 204.626 51.9762C206.123 51.3347 207.473 50.3958 208.596 49.2166C210.984 46.6027 212.258 43.1609 212.148 39.6225C212.219 37.8946 211.941 36.1702 211.33 34.5523C210.719 32.9343 209.789 31.456 208.594 30.2056C207.465 28.987 206.088 28.0238 204.555 27.3804C203.023 26.7369 201.371 26.4281 199.71 26.4746" fill="#C1321A"/>
<path d="M275.047 42.8208H238.978C239.409 45.8063 240.928 48.5273 243.243 50.4608C245.552 52.4149 248.395 53.3038 251.949 53.3038C253.964 53.351 255.967 52.9808 257.832 52.2164C259.698 51.452 261.385 50.31 262.787 48.8621L272.204 53.3038C270.084 56.5122 267.138 59.089 263.675 60.7622C260.001 62.456 255.994 63.306 251.948 63.2498C244.841 63.2498 239.155 61.1176 234.713 56.6759C230.27 52.2342 228.14 46.7299 228.14 39.9779C228.14 33.2258 230.272 27.5399 234.714 22.921C236.862 20.7284 239.436 18.9984 242.278 17.8373C245.12 16.6761 248.169 16.1084 251.238 16.1689C258.345 16.1689 264.03 18.4784 268.473 22.921C272.916 27.3635 275.047 33.4039 275.047 40.8667V42.8208ZM263.852 34.1147C263.152 31.6296 261.574 29.4831 259.411 28.0734C257.183 26.4925 254.501 25.6817 251.771 25.7639C248.822 25.6914 245.937 26.632 243.597 28.4288C242.176 29.4949 240.754 31.449 239.511 34.2919H263.852V34.1147Z" fill="#C1321A"/>
<path d="M274.513 17.235H287.481L296.365 29.4949L305.074 17.235H317.867L302.765 38.3818L320 62.0135H306.851L296.19 47.4477L285.707 62.0135H272.915L289.794 38.5573L274.513 17.235Z" fill="#C1321A"/>
<path d="M23.2763 1.59875H35.0027L58.279 62.1872H46.3745L41.5766 49.7501H16.8797L11.9045 62.1872H0L23.2763 1.59875ZM29.3176 17.5895L21.1467 38.3783H37.313L29.3176 17.5895Z" fill="#C1321A"/>
<path d="M112.471 0V10.3057H123.664L112.471 16.1689V62.0099H123.843V0H112.471Z" fill="#C1321A"/>
</g>
<defs>
<clipPath id="clip0_10279_53782">
<rect width="320" height="64" fill="white"/>
</clipPath>
</defs>
</svg>
