<svg width="48" height="48" viewBox="0 0 48 48" fill="none" xmlns="http://www.w3.org/2000/svg">
<g clip-path="url(#clip0_6415_69483)">
<path d="M11.9999 0.000976562C5.37298 0.000976562 0 5.37316 0 12.0008V36.0014C0 42.6288 5.37298 48.001 11.9999 48.001H36.0005C42.6278 48.001 48.0008 42.6288 48.0008 36.0014V0.000976562H11.9999Z" fill="#B1EC52"/>
<path d="M13.1191 19.1674C12.7265 17.4507 14.4393 15.9317 16.6548 15.9317C18.6504 15.9317 20.6508 16.3792 21.4119 19.1616H23.9702V23.4079C20.7806 20.7861 13.8658 22.4311 13.1191 19.1674ZM39.6638 17.9918H33.9009L28.4185 23.9962V12.0001H23.9702V14.9067C23.825 14.7193 23.672 14.5331 23.5006 14.3514C21.883 12.6391 19.5525 11.7709 16.5729 11.7709C13.1271 11.7709 11.1679 13.3131 10.131 14.6066C8.84315 16.2124 8.26816 18.4043 8.66609 20.1902C9.6969 24.8134 13.9869 25.5517 17.1384 25.9615C19.6264 26.2851 22.0068 26.7367 21.9436 28.9545C21.8777 31.2559 19.2834 31.8218 17.5805 31.8218C13.1454 31.8218 12.9957 28.5436 12.9957 28.5436H8.22589C8.29558 29.7747 8.66762 31.7511 10.1832 33.4471C11.8426 35.3054 14.3316 36.2471 17.5805 36.2471C20.0727 36.2471 22.343 35.4352 23.9702 33.9935V35.9748H28.4185V30.312L29.9924 28.5905L34.4854 35.9748H39.6622L33.124 25.1595L39.6638 17.9918Z" fill="#424B52"/>
</g>
<defs>
<clipPath id="clip0_6415_69483">
<rect width="48" height="48" fill="white"/>
</clipPath>
</defs>
</svg>
