<svg width="332" height="96" viewBox="0 0 332 96" fill="none" xmlns="http://www.w3.org/2000/svg">
<path d="M316.531 83.4979C323.044 83.4979 327.658 82.3219 331.095 79.7889V68.3001C327.567 70.7426 323.316 72.2805 317.345 72.2805C307.304 72.2805 303.142 64.5007 303.142 52.1977C303.142 39.2614 308.208 32.6576 317.435 32.6576C322.863 32.6576 328.201 34.5573 331.005 36.3666V24.4255C328.02 22.7971 322.863 21.6211 315.807 21.6211C297.805 21.6211 288.487 34.5573 288.487 52.65C288.578 72.4614 297.714 83.4979 316.531 83.4979ZM228.51 78.2511V66.7622C224.168 69.7475 216.75 72.371 209.965 72.371C199.652 72.371 195.762 67.4859 195.129 57.535H229.143V50.117C229.143 29.4009 220.007 21.6211 205.985 21.6211C188.797 21.6211 180.655 34.7383 180.655 52.7404C180.655 73.4565 190.877 83.4979 208.789 83.4979C217.745 83.4979 224.349 81.0554 228.51 78.2511ZM99.4191 22.7067V46.2271H80.6027V22.7067H66.4905V82.3219H80.6027V57.4445H99.4191V82.3219H113.531V22.7067H99.4191ZM177.127 71.1045H170.885V22.7067H129.815V27.7726C129.815 42.3372 128.91 61.1535 123.935 71.1045H119.411V95.8914H132.438V82.3219H164.01V95.8914H177.037V71.1045H177.127ZM273.47 82.3219H289.482L266.867 50.2075L286.768 22.7067H272.566L252.664 50.2075V22.7067H238.552V82.3219H252.664V53.0118L273.47 82.3219ZM205.623 32.6576C212.589 32.6576 214.76 38.4473 214.76 45.9557V47.1317H195.129C195.491 37.6331 198.929 32.6576 205.623 32.6576ZM156.773 71.1045H136.871C140.761 62.1486 141.846 45.8652 141.846 35.5524V33.7432H156.773V71.1045Z" fill="black"/>
<path d="M54.7302 82.3215H40.3466V11.127H33.9237C22.1635 11.127 16.012 17.0071 16.012 25.782C16.012 35.733 20.2638 40.3466 29.0387 46.2267L36.2757 51.1117L15.4692 82.3215H0L18.7259 54.4589C7.96076 46.7695 1.89973 39.261 1.89973 26.5962C1.89973 10.7651 12.9362 0 33.8332 0H54.6398V82.3215H54.7302Z" fill="#FC3F1D"/>
</svg>
