<svg width="431" height="76" viewBox="0 0 431 76" fill="none" xmlns="http://www.w3.org/2000/svg">
<path d="M130.593 46.6127C130.593 52.3164 125.283 56.4467 117.809 56.4467H100.305V21.0449H117.219C124.496 21.0449 129.609 24.9785 129.609 30.4854C129.609 34.2222 127.643 36.5824 124.692 37.9591C127.839 39.1391 130.593 42.2859 130.593 46.6127ZM107.975 27.5353V35.2056H117.022C119.776 35.2056 121.546 33.6322 121.546 31.4688C121.546 29.3054 119.579 27.5353 117.022 27.5353H107.975ZM117.809 49.9564C120.759 49.9564 122.922 48.1863 122.922 45.6295C122.922 43.0727 120.956 41.3026 117.809 41.3026H107.975V49.9564H117.809Z" fill="black"/>
<path d="M159.503 56.2499L147.31 42.286H145.343V56.2499H137.476V21.0449H145.343V34.6155H147.31L159.111 21.0449H168.355L153.604 37.9591L169.731 56.2499H159.503Z" fill="black"/>
<path d="M169.731 38.7451C169.731 28.1244 177.599 20.4541 188.612 20.4541C199.626 20.4541 207.493 28.1244 207.493 38.7451C207.493 49.3655 199.626 57.0359 188.612 57.0359C177.599 57.0359 169.731 49.3655 169.731 38.7451ZM199.233 38.7451C199.233 32.058 194.906 27.5345 188.612 27.5345C182.318 27.5345 177.992 32.058 177.992 38.7451C177.992 45.432 182.318 49.9556 188.612 49.9556C194.906 49.9556 199.233 45.432 199.233 38.7451Z" fill="black"/>
<path d="M237.584 21.0449H245.453V56.2499H237.584V42.0893H221.851V56.2499H213.984V21.0449H221.851V35.0089H237.584V21.0449Z" fill="black"/>
<path d="M262.366 56.2499V28.1252H250.172V21.0449H282.231V28.1252H270.036V56.2499H262.366Z" fill="black"/>
<path d="M316.058 36.5816V56.2492H310.354L308.781 50.7423C307.011 53.6924 303.275 57.0359 297.571 57.0359C290.49 57.0359 285.377 52.3157 285.377 45.8253C285.377 39.335 290.49 34.8115 300.915 34.8115H308.584C308.191 30.2879 305.831 27.1412 301.505 27.1412C297.964 27.1412 295.604 29.1079 294.424 31.2713L287.344 30.0913C289.114 23.9943 295.211 20.4541 301.898 20.4541C310.552 20.4541 316.058 26.3543 316.058 36.5816ZM308.389 40.9085H301.112C295.211 40.9085 293.243 42.8752 293.243 45.432C293.243 48.3821 295.604 50.349 299.537 50.349C304.651 50.349 308.389 46.6122 308.389 40.9085Z" fill="black"/>
<path d="M346.347 56.2499L334.154 42.286H332.186V56.2499H324.319V21.0449H332.186V34.6155H334.154L345.954 21.0449H355.198L340.447 37.9591L356.574 56.2499H346.347Z" fill="black"/>
<path d="M370.734 56.2499V28.1252H358.541V21.0449H390.6V28.1252H378.405V56.2499H370.734Z" fill="black"/>
<path d="M429.934 40.9085H401.613C402.4 46.4154 406.334 49.9556 412.233 49.9556C416.363 49.9556 419.511 48.1855 421.281 45.6287L428.558 46.8088C426.001 53.4958 419.117 57.0359 411.643 57.0359C401.023 57.0359 393.353 49.3655 393.353 38.7451C393.353 28.1244 401.023 20.4541 411.643 20.4541C422.264 20.4541 429.934 28.1245 429.934 38.3517C430.131 39.335 429.934 40.1218 429.934 40.9085ZM402.203 34.8115H421.674C420.297 30.4846 416.756 27.3378 411.84 27.3378C407.119 27.1412 403.383 30.2879 402.203 34.8115Z" fill="black"/>
<path d="M0 36.0626C0 19.0625 0 10.5625 5.28125 5.28125C10.5625 0 19.0625 0 36.0626 0H39.0678C56.068 0 64.5679 0 69.8492 5.28125C75.1304 10.5625 75.1304 19.0625 75.1304 36.0626V39.0678C75.1304 56.068 75.1304 64.5679 69.8492 69.8492C64.5679 75.1304 56.068 75.1304 39.0678 75.1304H36.0626C19.0625 75.1304 10.5625 75.1304 5.28125 69.8492C0 64.5679 0 56.068 0 39.0678V36.0626Z" fill="#0077FF"/>
<path d="M39.9756 54.1256C22.8522 54.1256 13.0854 42.3865 12.6784 22.8525H21.2558C21.5375 37.1899 27.8609 43.263 32.8696 44.5151V22.8525H40.9464V35.2178C45.8925 34.6856 51.0884 29.0508 52.8414 22.8525H60.9181C59.572 30.4908 53.9372 36.1256 49.9303 38.4421C53.9372 40.3204 60.3549 45.2351 62.7967 54.1256H53.9059C51.9964 48.1778 47.2386 43.576 40.9464 42.9499V54.1256H39.9756Z" fill="white"/>
</svg>
