<svg width="316" height="108" viewBox="0 0 316 108" fill="none" xmlns="http://www.w3.org/2000/svg">
<mask id="mask0_8604_55114" style="mask-type:luminance" maskUnits="userSpaceOnUse" x="0" y="0" width="316" height="108">
<path d="M316 0.77832H0V107.22H316V0.77832Z" fill="white"/>
</mask>
<g mask="url(#mask0_8604_55114)">
<path d="M312.993 10.6235H302.904V79.1224H312.993V10.6235Z" fill="#005FF9"/>
<path fill-rule="evenodd" clip-rule="evenodd" d="M292.001 79.1224H281.912V30.5815H292.001V79.1224ZM286.958 8.92383C290.717 8.92383 293.767 11.9741 293.767 15.7328C293.767 19.4915 290.717 22.5451 286.958 22.5451C283.199 22.5451 280.146 19.4915 280.146 15.7328C280.146 11.9741 283.199 8.92383 286.958 8.92383Z" fill="#005FF9"/>
<path fill-rule="evenodd" clip-rule="evenodd" d="M271.012 79.1223H261.092V73.8135C257.54 77.8383 251.28 80.3663 245.392 80.3663C231.309 80.3663 219.876 68.9338 219.876 54.8502C219.876 40.7699 231.309 29.334 245.392 29.334C251.28 29.334 257.211 31.5526 261.092 35.4744V30.5814H271.012V79.1223ZM245.715 39.5325C254.397 39.5325 261.229 45.746 261.229 54.8502C261.229 63.9576 254.397 70.2244 245.715 70.2244C237.03 70.2244 230.431 63.5352 230.431 54.8502C230.431 46.1685 237.03 39.5325 245.715 39.5325Z" fill="#005FF9"/>
<path fill-rule="evenodd" clip-rule="evenodd" d="M145.829 79.1223H135.913V30.5814H145.829V33.9709C148.031 31.9019 152.159 29.344 157.887 29.334C164.922 29.334 170.168 32.2944 173.763 37.0577C177.695 32.3443 184.175 29.334 190.781 29.334C203.171 29.334 211.617 37.703 211.617 50.7422V79.1223H201.701V50.7422C201.701 44.4055 196.545 39.2531 190.212 39.2531C183.875 39.2531 178.723 44.4055 178.723 50.7422V79.1223H168.807V50.7422C168.807 44.4055 163.651 39.2531 157.318 39.2531C150.981 39.2531 145.829 44.4055 145.829 50.7422V79.1223Z" fill="#005FF9"/>
<path d="M69.2306 53.9989C69.2306 62.8269 62.0491 70.0084 53.2211 70.0084C44.393 70.0084 37.2115 62.8269 37.2115 53.9989C37.2115 45.1708 44.393 37.9893 53.2211 37.9893C62.0491 37.9893 69.2306 45.1708 69.2306 53.9989ZM53.2211 0.777832C23.8763 0.777832 0 24.6541 0 53.9989C0 83.3436 23.8763 107.22 53.2211 107.22C63.9717 107.22 74.3398 104.02 83.2011 97.9628L83.3541 97.8564L76.1826 89.5206L76.0629 89.6004C69.2406 93.9879 61.3406 96.3096 53.2211 96.3096C29.8903 96.3096 10.9103 77.3297 10.9103 53.9989C10.9103 30.6681 29.8903 11.6881 53.2211 11.6881C76.5518 11.6881 95.5318 30.6681 95.5318 53.9989C95.5318 57.0225 95.1958 60.0827 94.5339 63.093C93.1967 68.5848 89.3515 70.2679 86.4643 70.045C83.5604 69.8089 80.1642 67.7399 80.1409 62.6772V58.8187V53.9989C80.1409 39.1535 68.0664 27.079 53.2211 27.079C38.3757 27.079 26.3012 39.1535 26.3012 53.9989C26.3012 68.8442 38.3757 80.9188 53.2211 80.9188C60.4325 80.9188 67.1949 78.098 72.2941 72.9722C75.2579 77.5858 80.091 80.4797 85.5894 80.9188C86.0618 80.9587 86.5441 80.9786 87.0231 80.9786C90.8916 80.9786 94.7301 79.6847 97.8236 77.333C101.014 74.9114 103.395 71.4088 104.712 67.201C104.922 66.5225 105.308 64.9658 105.311 64.9558L105.321 64.8992C106.096 61.523 106.442 58.1568 106.442 53.9989C106.442 24.6541 82.5658 0.777832 53.2211 0.777832Z" fill="#FF9E00"/>
</g>
</svg>
