<svg width="347" height="114" viewBox="0 0 347 114" fill="none" xmlns="http://www.w3.org/2000/svg">
<path d="M148.203 59.9921C148.203 76.3934 135.372 88.4793 119.626 88.4793C103.879 88.4793 91.0486 76.3934 91.0486 59.9921C91.0486 43.4752 103.879 31.5049 119.626 31.5049C135.372 31.5049 148.203 43.4752 148.203 59.9921ZM135.693 59.9921C135.693 49.7429 128.257 42.7302 119.626 42.7302C110.995 42.7302 103.558 49.7429 103.558 59.9921C103.558 70.1386 110.995 77.254 119.626 77.254C128.257 77.254 135.693 70.1257 135.693 59.9921Z" fill="#EA4335"/>
<path d="M209.852 59.9921C209.852 76.3934 197.022 88.4793 181.275 88.4793C165.529 88.4793 152.698 76.3934 152.698 59.9921C152.698 43.488 165.529 31.5049 181.275 31.5049C197.022 31.5049 209.852 43.4752 209.852 59.9921ZM197.343 59.9921C197.343 49.7429 189.906 42.7302 181.275 42.7302C172.644 42.7302 165.208 49.7429 165.208 59.9921C165.208 70.1386 172.644 77.254 181.275 77.254C189.906 77.254 197.343 70.1257 197.343 59.9921Z" fill="#FBBC05"/>
<path d="M268.933 33.2259V84.3693C268.933 105.407 256.526 114 241.859 114C228.052 114 219.742 104.765 216.608 97.213L227.499 92.6792C229.439 97.3157 234.191 102.787 241.846 102.787C251.235 102.787 257.053 96.9946 257.053 86.0904V81.9933H256.616C253.816 85.4482 248.422 88.4665 241.615 88.4665C227.371 88.4665 214.322 76.0595 214.322 60.0948C214.322 44.0146 227.371 31.5049 241.615 31.5049C248.409 31.5049 253.803 34.5231 256.616 37.8753H257.053V33.2388H268.933V33.2259ZM257.939 60.0948C257.939 50.064 251.247 42.7302 242.732 42.7302C234.101 42.7302 226.87 50.064 226.87 60.0948C226.87 70.023 234.101 77.254 242.732 77.254C251.247 77.254 257.939 70.023 257.939 60.0948Z" fill="#4285F4"/>
<path d="M288.52 3.24951V86.7332H276.318V3.24951H288.52Z" fill="#34A853"/>
<path d="M336.067 69.3686L345.777 75.8418C342.643 80.4784 335.091 88.4671 322.042 88.4671C305.859 88.4671 293.773 75.9574 293.773 59.9799C293.773 43.0391 305.961 31.4927 320.642 31.4927C335.425 31.4927 342.656 43.2575 345.019 49.6151L346.316 52.8517L308.235 68.6237C311.15 74.3391 315.684 77.2546 322.042 77.2546C328.412 77.2546 332.83 74.1207 336.067 69.3686ZM306.18 59.1194L331.636 48.549C330.236 44.9914 326.023 42.5125 321.065 42.5125C314.708 42.5125 305.859 48.1252 306.18 59.1194Z" fill="#EA4335"/>
<path d="M44.8629 52.5819V40.496H85.5901C85.9882 42.6024 86.1937 45.094 86.1937 47.7912C86.1937 56.8588 83.7149 68.0713 75.7262 76.0601C67.9557 84.1516 58.0276 88.467 44.8757 88.467C20.4985 88.467 0 68.6108 0 44.2335C0 19.8563 20.4985 0 44.8757 0C58.3615 0 67.9686 5.29158 75.1867 12.1886L66.6585 20.7168C61.4826 15.8619 54.4699 12.0859 44.8629 12.0859C27.0616 12.0859 13.1391 26.4322 13.1391 44.2335C13.1391 62.0348 27.0616 76.3812 44.8629 76.3812C56.4093 76.3812 62.9853 71.7446 67.198 67.5319C70.6144 64.1155 72.862 59.2349 73.7482 52.569L44.8629 52.5819Z" fill="#4285F4"/>
</svg>
