<svg width="432" height="97" viewBox="0 0 432 97" fill="none" xmlns="http://www.w3.org/2000/svg">
<path d="M135.277 15.1125C133.69 9.21648 129.041 4.56766 123.145 2.98026C112.373 0.0322266 69.2867 0.0322266 69.2867 0.0322266C69.2867 0.0322266 26.2001 0.0322266 15.4285 2.86687C9.6458 4.45427 4.88359 9.21648 3.29619 15.1125C0.461548 25.8842 0.461548 48.2212 0.461548 48.2212C0.461548 48.2212 0.461548 70.6716 3.29619 81.3299C4.88359 87.2259 9.53241 91.8748 15.4285 93.4622C26.3135 96.4102 69.2867 96.4102 69.2867 96.4102C69.2867 96.4102 112.373 96.4102 123.145 93.5755C129.041 91.9881 133.69 87.3393 135.277 81.4433C138.112 70.6716 138.112 48.3346 138.112 48.3346C138.112 48.3346 138.225 25.8842 135.277 15.1125Z" fill="#FF0000"/>
<path d="M55.567 27.5845V68.8569L91.397 48.2207L55.567 27.5845Z" fill="white"/>
<path d="M200.361 87.7924C197.639 85.9783 195.712 83.1436 194.578 79.1751C193.444 75.32 192.877 70.1042 192.877 63.7546V55.0239C192.877 48.5609 193.558 43.3452 194.805 39.3767C196.165 35.4082 198.206 32.5735 200.928 30.7593C203.762 28.9452 207.391 28.0381 211.926 28.0381C216.348 28.0381 219.976 28.9452 222.698 30.7593C225.419 32.5735 227.346 35.5216 228.594 39.3767C229.841 43.2318 230.521 48.4475 230.521 55.0239V63.7546C230.521 70.2176 229.954 75.32 228.707 79.2885C227.46 83.1436 225.532 86.0916 222.811 87.9058C220.09 89.72 216.348 90.6271 211.699 90.6271C206.937 90.5137 203.082 89.6066 200.361 87.7924ZM215.668 78.268C216.461 76.3405 216.802 73.0523 216.802 68.6302V49.8082C216.802 45.4995 216.461 42.3247 215.668 40.2838C214.874 38.2428 213.627 37.3357 211.699 37.3357C209.885 37.3357 208.524 38.3562 207.844 40.2838C207.05 42.3247 206.71 45.4995 206.71 49.8082V68.6302C206.71 73.0523 207.05 76.3405 207.844 78.268C208.524 80.1956 209.885 81.216 211.813 81.216C213.627 81.216 214.874 80.309 215.668 78.268Z" fill="#282828"/>
<path d="M409.671 63.8682V66.9296C409.671 70.7847 409.784 73.7328 410.011 75.6603C410.238 77.5879 410.691 79.0619 411.485 79.8556C412.165 80.7627 413.299 81.2162 414.887 81.2162C416.928 81.2162 418.288 80.4225 419.082 78.8351C419.876 77.2477 420.216 74.6399 420.329 70.8981L432.008 71.5784C432.121 72.1454 432.121 72.8257 432.121 73.7328C432.121 79.2887 430.647 83.484 427.586 86.2052C424.524 88.9265 420.216 90.2871 414.66 90.2871C407.97 90.2871 403.321 88.1328 400.6 83.9375C397.879 79.7422 396.518 73.2792 396.518 64.4351V53.8903C396.518 44.8194 397.879 38.243 400.713 34.0477C403.548 29.8525 408.31 27.8115 415 27.8115C419.649 27.8115 423.277 28.7186 425.772 30.4194C428.266 32.1202 429.967 34.8414 430.987 38.3564C432.008 41.9847 432.461 46.9737 432.461 53.3233V63.6414H409.671V63.8682ZM411.372 38.4698C410.691 39.3769 410.238 40.7375 410.011 42.6651C409.784 44.5926 409.671 47.5407 409.671 51.5092V55.8178H419.649V51.5092C419.649 47.654 419.535 44.706 419.309 42.6651C419.082 40.6241 418.515 39.2635 417.835 38.4698C417.154 37.6761 416.02 37.2225 414.66 37.2225C413.072 37.1092 412.052 37.5627 411.372 38.4698Z" fill="#282828"/>
<path d="M167.252 62.7332L151.832 6.83398H165.324L170.767 32.119C172.128 38.3552 173.148 43.6844 173.828 48.1064H174.169C174.622 44.9316 175.643 39.7159 177.23 32.2324L182.899 6.83398H196.392L180.745 62.7332V89.4923H167.365V62.7332H167.252Z" fill="#282828"/>
<path d="M274.402 29.1724V89.607H263.743L262.609 82.2369H262.269C259.435 87.7928 255.013 90.6275 249.23 90.6275C245.261 90.6275 242.313 89.2669 240.386 86.659C238.458 84.0511 237.551 79.9692 237.551 74.2999V29.1724H251.158V73.5062C251.158 76.2275 251.498 78.155 252.065 79.2889C252.632 80.4228 253.652 80.9897 255.013 80.9897C256.146 80.9897 257.28 80.6495 258.414 79.8558C259.548 79.1755 260.342 78.2684 260.795 77.1346V29.1724H274.402Z" fill="#282828"/>
<path d="M344.134 29.1724V89.607H333.476L332.342 82.2369H332.002C329.167 87.7928 324.745 90.6275 318.962 90.6275C314.994 90.6275 312.046 89.2669 310.118 86.659C308.191 84.0511 307.283 79.9692 307.283 74.2999V29.1724H320.89V73.5062C320.89 76.2275 321.23 78.155 321.797 79.2889C322.364 80.4228 323.384 80.9897 324.745 80.9897C325.879 80.9897 327.013 80.6495 328.146 79.8558C329.28 79.1755 330.074 78.2684 330.528 77.1346V29.1724H344.134Z" fill="#282828"/>
<path d="M311.365 17.8324H297.872V89.4923H284.606V17.8324H271.113V6.83398H311.365V17.8324Z" fill="#282828"/>
<path d="M389.148 38.8097C388.354 34.9545 386.994 32.2333 385.18 30.5325C383.365 28.8317 380.758 27.9246 377.583 27.9246C375.088 27.9246 372.707 28.6049 370.553 30.079C368.398 31.4396 366.698 33.3671 365.564 35.6349H365.45V3.77344H352.298V89.4931H363.523L364.883 83.8238H365.224C366.244 85.8648 367.832 87.4522 369.986 88.6994C372.14 89.8333 374.408 90.5136 377.016 90.5136C381.665 90.5136 384.953 88.3593 387.107 84.164C389.261 79.9687 390.395 73.279 390.395 64.3215V54.7971C390.282 47.8805 389.942 42.5514 389.148 38.8097ZM376.676 63.4144C376.676 67.8364 376.449 71.238 376.109 73.7325C375.769 76.227 375.088 78.0412 374.295 79.0616C373.387 80.0821 372.254 80.649 370.893 80.649C369.759 80.649 368.739 80.4223 367.832 79.8553C366.924 79.2884 366.131 78.4947 365.564 77.4742V43.2317C366.017 41.6443 366.811 40.2837 367.945 39.1498C369.079 38.1293 370.326 37.5624 371.573 37.5624C372.934 37.5624 374.068 38.1293 374.748 39.1498C375.542 40.2837 375.995 42.0978 376.335 44.5923C376.676 47.2002 376.789 50.8286 376.789 55.4774V63.4144H376.676Z" fill="#282828"/>
</svg>
