<svg width="432" height="96" viewBox="0 0 432 96" fill="none" xmlns="http://www.w3.org/2000/svg">
<path fill-rule="evenodd" clip-rule="evenodd" d="M51.9326 1.25818C42.2206 0.235145 32.4301 2.24526 23.9069 7.01224C15.3837 11.7792 8.54613 19.069 4.33405 27.8797C0.12197 36.6903 -1.25785 46.5893 0.384255 56.216C2.02636 65.8427 6.60977 74.7244 13.5045 81.6405C20.3992 88.5566 29.2668 93.1675 38.8883 94.8393C48.5099 96.5112 58.4131 95.162 67.2367 90.9772C76.0603 86.7924 83.3713 79.9774 88.1646 71.469C92.9579 62.9605 94.9983 53.1763 94.0053 43.4612C92.9126 32.6622 88.1322 22.5696 80.469 14.8827C72.8059 7.19586 62.7281 2.38428 51.9326 1.25818ZM50.4008 73.2827C45.1775 73.9835 39.8658 73.0299 35.2124 70.5559C30.5589 68.0819 26.7977 64.212 24.4572 59.49C22.1168 54.768 21.3148 49.4314 22.164 44.2301C23.0132 39.0287 25.4709 34.2243 29.1916 30.4918C32.9124 26.7594 37.7091 24.2867 42.9078 23.4213C48.1064 22.5558 53.4456 23.3411 58.1748 25.6668C62.9041 27.9924 66.7858 31.7415 69.2743 36.3872C71.7628 41.0329 72.733 46.3415 72.0486 51.5671C71.3305 57.0635 68.8203 62.1698 64.9069 66.0955C60.9934 70.0212 55.895 72.5473 50.4008 73.2827ZM119.288 3.12821C117.648 3.13214 116.03 3.50151 114.552 4.20946C113.073 4.91741 111.771 5.94612 110.739 7.22074C109.708 8.49536 108.974 9.98383 108.591 11.5778C108.207 13.1718 108.184 14.8313 108.523 16.4354C109.56 21.6322 114.414 25.183 119.702 25.183H150.388L102.633 88.3805C102.28 88.847 102.064 89.4028 102.009 89.9853C101.954 90.5679 102.062 91.1543 102.322 91.6787C102.581 92.2032 102.982 92.6451 103.478 92.9547C103.975 93.2643 104.548 93.4296 105.133 93.4318H180.041C185.326 93.4318 190.183 89.8819 191.22 84.6842C191.559 83.0803 191.536 81.4211 191.153 79.8273C190.77 78.2335 190.036 76.7451 189.006 75.4704C187.975 74.1956 186.673 73.1667 185.195 72.4583C183.717 71.7499 182.099 71.3799 180.46 71.3752H143.071L190.789 8.22685C191.146 7.75577 191.364 7.19462 191.42 6.60638C191.475 6.01813 191.366 5.42605 191.104 4.89657C190.841 4.36709 190.437 3.92116 189.935 3.60881C189.434 3.29645 188.855 3.13003 188.264 3.12821H119.288ZM418.618 3.38261C416.138 3.97233 413.933 5.39075 412.369 7.40337C410.804 9.41598 409.974 11.9022 410.014 14.4511V51.1717L350.513 3.82178C350.046 3.45139 349.484 3.22024 348.892 3.15494C348.3 3.08963 347.702 3.19281 347.165 3.45262C346.629 3.71242 346.178 4.11829 345.862 4.62353C345.546 5.12878 345.38 5.71287 345.381 6.30862V82.1286C345.341 84.6775 346.171 87.1638 347.736 89.1765C349.3 91.1891 351.505 92.6075 353.985 93.1971C355.596 93.5514 357.265 93.5397 358.87 93.1628C360.476 92.7859 361.976 92.0534 363.26 91.0194C364.545 89.9853 365.581 88.6761 366.292 87.1883C367.003 85.7005 367.37 84.0721 367.368 82.4231V45.3848L426.87 92.7356C427.337 93.1058 427.898 93.3367 428.49 93.402C429.082 93.4672 429.68 93.3641 430.216 93.1044C430.752 92.8447 431.204 92.439 431.519 91.934C431.835 91.429 432.001 90.8451 432 90.2496V14.153C432.002 12.5044 431.633 10.8765 430.922 9.3892C430.211 7.90192 429.175 6.59323 427.891 5.55961C426.607 4.52599 425.107 3.79379 423.502 3.41702C421.897 3.04024 420.228 3.02848 418.618 3.38261ZM263.693 23.072C288.86 23.072 307.665 36.372 307.665 48.2689C307.665 60.1657 288.86 73.4657 263.693 73.4657C238.526 73.4657 219.721 60.1657 219.721 48.2689C219.721 36.372 238.526 23.072 263.693 23.072ZM263.693 1.01806C227.264 1.01806 197.734 22.1731 197.734 48.2689C197.734 74.3646 227.264 95.5197 263.693 95.5197C300.122 95.5197 329.651 74.3646 329.651 48.2689C329.651 22.1731 300.121 1.01806 263.693 1.01806Z" fill="#0069FF"/>
</svg>
