<svg width="432" height="51" viewBox="0 0 432 51" fill="none" xmlns="http://www.w3.org/2000/svg">
<path d="M13.1519 49.4202L0 0.811408H8.70871L18.8392 38.1344L29.6807 0.811408H37.7674L48.6088 38.3122L58.7394 0.811408H67.3592L54.2073 49.4202H44.1656L33.5907 13.1636L23.1047 49.4202H13.1519Z" fill="#BE11A5"/>
<path d="M73.402 0.811408H81.6663V49.4202H73.402V0.811408Z" fill="#BE11A5"/>
<path d="M99.1727 41.7784H119.167V49.4208H91.086V0.900793H99.1727V41.7784Z" fill="#BE11A5"/>
<path d="M144.582 0.900739C150.892 0.72301 157.023 3.30009 161.378 7.92103C170.353 17.6073 170.353 32.7142 161.378 42.4004C157.023 47.0214 150.892 49.5984 144.582 49.4207H125.21V0.900739H144.582ZM144.582 41.7784C149.203 41.7784 153.024 40.1788 155.868 37.0686C158.89 33.8694 160.489 29.5151 160.311 25.1607C160.489 20.7175 158.89 16.452 155.868 13.2529C152.936 10.1426 148.848 8.36535 144.582 8.54308H133.297V41.7784H144.582Z" fill="#BE11A5"/>
<path d="M211.497 35.5575C211.586 39.2898 209.987 42.9332 207.232 45.4214C204.388 48.0874 200.656 49.5092 196.746 49.4203H175.685V0.900386H195.235C198.967 0.811522 202.611 2.23335 205.454 4.72156C208.209 7.1209 209.72 10.6755 209.631 14.3189C209.809 18.2289 207.854 21.9613 204.655 24.1829C208.92 26.3156 211.586 30.7588 211.497 35.5575ZM183.772 8.365V21.1615H195.235C198.79 21.1615 201.633 18.3178 201.633 14.7632C201.633 11.2087 198.79 8.365 195.235 8.365H183.772ZM196.746 41.8669C200.478 41.6891 203.411 38.5789 203.233 34.8466C203.144 31.292 200.211 28.4484 196.746 28.3595H183.772V41.9557L196.746 41.8669Z" fill="#BE11A5"/>
<path d="M227.315 41.7784H249.087V49.4208H219.228V0.900793H248.731V8.54314H227.315V21.1619H247.043V28.7153H227.315V41.7784Z" fill="#BE11A5"/>
<path d="M284.366 49.4201L273.88 31.7361H264.372V49.4201H256.285V0.811276H276.013C280.189 0.722412 284.277 2.41083 287.21 5.43222C290.231 8.27588 291.919 12.2748 291.831 16.4514C291.742 22.6719 287.921 28.2704 282.056 30.492L293.252 49.4201H284.366ZM264.372 8.36475V24.6269H275.924C280.367 24.4492 283.833 20.628 283.655 16.0959C283.477 11.9193 280.101 8.54248 275.924 8.36475H264.372Z" fill="#BE11A5"/>
<path d="M327.465 49.4201L317.068 31.7361H307.56V49.4201H299.473V0.811276H319.201C323.378 0.722412 327.465 2.41083 330.398 5.43222C333.419 8.27588 335.108 12.2748 335.019 16.4514C334.93 22.6719 331.109 28.2704 325.244 30.492L336.441 49.4201H327.465ZM307.56 8.36475V24.6269H319.112C323.644 24.3603 327.021 20.5392 326.754 16.0071C326.488 11.9193 323.2 8.54248 319.112 8.36475H307.56Z" fill="#BE11A5"/>
<path d="M342.306 0.811408H350.392V49.4202H342.306V0.811408Z" fill="#BE11A5"/>
<path d="M367.987 41.7784H389.759V49.4208H359.901V0.900793H389.404V8.54314H367.987V21.1619H387.715V28.7153H367.987V41.7784Z" fill="#BE11A5"/>
<path d="M395.447 38.4012L402.467 34.4023C404.422 39.9119 408.51 42.5779 414.641 42.5779C420.773 42.5779 423.794 40.0008 423.794 36.1796C423.883 34.4023 422.906 32.6251 421.306 31.7364C419.706 30.67 416.774 29.5148 412.597 28.2707C407.888 26.8489 405.577 25.9602 402.289 23.8275C399.001 21.6947 397.49 18.4067 397.49 14.0524C397.313 10.1424 399.09 6.32119 402.111 3.83299C405.222 1.25592 409.22 -0.0770481 413.308 0.0118163C420.684 -0.254777 427.438 4.01071 430.459 10.6755L423.705 14.4967C421.661 10.0535 418.196 7.74303 413.397 7.74303C408.598 7.74303 405.666 10.0535 405.666 13.7858C405.666 17.5181 408.065 19.0288 415.619 21.3393C417.485 21.9613 418.818 22.4056 419.706 22.7611C420.595 23.1166 421.839 23.5609 423.35 24.1829C424.594 24.6273 425.838 25.3382 426.905 26.138C429.482 28.1818 432.325 31.4698 431.97 36.0908C432.147 40.1785 430.37 43.9997 427.171 46.5768C423.972 49.1538 419.795 50.3979 414.552 50.3979C404.866 50.3091 397.935 45.777 395.447 38.4012Z" fill="#BE11A5"/>
</svg>
