<svg width="361" height="100" viewBox="0 0 361 100" fill="none" xmlns="http://www.w3.org/2000/svg">
<path d="M88.3793 19.4272C90.7229 22.4981 92.7071 25.8343 94.2913 29.369L49.3495 62.9439L30.567 51.0116V36.6564L49.3495 48.5887L88.3793 19.4272Z" fill="#21A038"/>
<path d="M11.3982 49.9977C11.3982 49.3536 11.4137 48.7137 11.4447 48.0775L0.061992 47.5122C0.0232491 48.3367 1.37554e-05 49.1692 1.37554e-05 50.0093C-0.00482926 56.5738 1.26922 63.0744 3.74911 69.1384C6.22898 75.2027 9.86586 80.7109 14.4511 85.3472L22.5251 77.1685C18.9956 73.6059 16.1955 69.3714 14.286 64.7085C12.3765 60.0456 11.3951 55.0461 11.3982 49.9977Z" fill="url(#paint0_linear_8604_55207)"/>
<path d="M49.3391 11.5496C49.9744 11.5496 50.6057 11.5732 51.2333 11.6046L51.8029 0.0647905C50.9869 0.0255262 50.1654 0.00589646 49.3391 0.00589646C42.8587 -0.0021125 36.4409 1.28722 30.4538 3.79986C24.4667 6.3125 19.0283 9.99897 14.4509 14.6476L22.5249 22.8302C26.0404 19.252 30.2192 16.4133 34.8209 14.4773C39.4226 12.5414 44.3564 11.5464 49.3391 11.5496Z" fill="url(#paint1_linear_8604_55207)"/>
<path d="M49.3391 88.4509C48.7038 88.4509 48.0722 88.4509 47.4408 88.3998L46.8713 99.9357C47.69 99.9776 48.5127 99.9987 49.3391 99.9987C55.8167 100.005 62.2314 98.7152 68.2153 96.2019C74.1992 93.6885 79.6341 90.0015 84.208 85.353L76.1494 77.1743C72.6333 80.7507 68.455 83.5878 63.8542 85.523C59.2534 87.4582 54.3205 88.4534 49.3391 88.4509Z" fill="url(#paint2_linear_8604_55207)"/>
<path d="M70.7257 18.258L80.3184 11.0922C71.5506 3.8969 60.606 -0.0199735 49.3239 7.65947e-05V11.5477C56.9636 11.5381 64.426 13.8779 70.7257 18.258Z" fill="url(#paint3_linear_8604_55207)"/>
<path d="M98.6748 49.9997C98.6809 46.9956 98.4216 43.9968 97.8997 41.0396L87.2805 48.9709C87.2805 49.3127 87.2805 49.6542 87.2805 49.9997C87.2832 55.3721 86.1719 60.6853 84.019 65.5946C81.8658 70.5039 78.7187 74.8999 74.7819 78.4976L82.4415 87.0771C87.5596 82.3944 91.6496 76.674 94.446 70.2868C97.2428 63.8994 98.6833 56.9876 98.6748 49.9997Z" fill="#21A038"/>
<path d="M49.3393 88.4523C44.0378 88.4542 38.795 87.3276 33.9502 85.1457C29.1056 82.9637 24.7672 79.7747 21.2158 75.7856L12.7544 83.5443C17.3743 88.7321 23.0185 92.8777 29.3211 95.7127C35.6237 98.5473 42.4438 100.008 49.3393 99.9998V88.4523Z" fill="url(#paint4_linear_8604_55207)"/>
<path d="M23.8967 21.5006L16.2411 12.9214C11.1215 17.6032 7.03003 23.3232 4.23212 29.7106C1.43424 36.098 -0.007628 43.0101 3.03479e-05 49.9986H11.3982C11.3958 44.6264 12.5072 39.3133 14.6603 34.404C16.8134 29.4948 19.9601 25.0987 23.8967 21.5006Z" fill="url(#paint5_linear_8604_55207)"/>
<path d="M284.719 28.5943L298.836 18.1734H251.59V80.794H298.836V70.3731H265.071V54.3328H293.874V43.9119H265.071V28.5943H284.719Z" fill="#21A038"/>
<path d="M219.8 42.5682H203.397V28.5902H229.575L243.683 18.1376H189.924V80.7582H218.065C233.842 80.7582 242.896 73.5933 242.896 61.0978C242.896 49.1437 234.695 42.5682 219.8 42.5682ZM217.458 70.334H203.397V52.9827H217.458C225.991 52.9827 229.992 55.8904 229.992 61.6585C229.992 67.4262 225.735 70.334 217.458 70.334Z" fill="#21A038"/>
<path d="M333.565 18.1645H307.847V80.7848H321.327V63.0456H333.565C349.973 63.0456 360.123 54.3945 360.123 40.5716C360.123 26.749 349.973 18.1645 333.565 18.1645ZM333.28 52.6167H321.327V28.5933H333.28C341.911 28.5933 346.674 32.8619 346.674 40.6098C346.674 48.3577 341.911 52.6167 333.28 52.6167Z" fill="#21A038"/>
<path d="M169.696 66.0056C166.213 67.895 162.312 68.8733 158.353 68.8501C146.502 68.8501 137.904 60.3727 137.904 48.6993C137.904 37.0256 146.502 28.5298 158.353 28.5298C162.626 28.4571 166.811 29.7556 170.296 32.2358L179.725 25.2779L179.088 24.8239C173.587 19.9784 166.238 17.4121 157.826 17.4121C148.702 17.4121 140.428 20.488 134.521 26.0839C131.534 28.9652 129.172 32.4324 127.581 36.2692C125.991 40.106 125.206 44.2299 125.277 48.3841C125.214 52.5804 125.995 56.7465 127.573 60.6338C129.152 64.521 131.496 68.0494 134.466 71.0088C140.4 76.827 148.655 80.0325 157.715 80.0325C167.181 80.0325 175.455 76.7249 181.057 70.7031L172.617 64.403L169.696 66.0056Z" fill="#21A038"/>
<defs>
<linearGradient id="paint0_linear_8604_55207" x1="16.7563" y1="83.9064" x2="4.00386" y2="47.5312" gradientUnits="userSpaceOnUse">
<stop offset="0.14" stop-color="#F1E813"/>
<stop offset="0.3" stop-color="#E6E418"/>
<stop offset="0.58" stop-color="#C9DA26"/>
<stop offset="0.89" stop-color="#A2CC39"/>
</linearGradient>
<linearGradient id="paint1_linear_8604_55207" x1="17.7053" y1="16.6893" x2="49.8881" y2="4.58774" gradientUnits="userSpaceOnUse">
<stop offset="0.06" stop-color="#0FA7DF"/>
<stop offset="0.54" stop-color="#0098F8"/>
<stop offset="0.92" stop-color="#0290EA"/>
</linearGradient>
<linearGradient id="paint2_linear_8604_55207" x1="46.1198" y1="93.0291" x2="82.4372" y2="84.9336" gradientUnits="userSpaceOnUse">
<stop offset="0.12" stop-color="#A2CC39"/>
<stop offset="0.28" stop-color="#86C239"/>
<stop offset="0.87" stop-color="#219F38"/>
</linearGradient>
<linearGradient id="paint3_linear_8604_55207" x1="46.953" y1="3.86761" x2="78.034" y2="13.3317" gradientUnits="userSpaceOnUse">
<stop offset="0.06" stop-color="#0290EA"/>
<stop offset="0.79" stop-color="#0C89CA"/>
</linearGradient>
<linearGradient id="paint4_linear_8604_55207" x1="15.6136" y1="82.1386" x2="49.476" y2="94.6261" gradientUnits="userSpaceOnUse">
<stop offset="0.13" stop-color="#F1E813"/>
<stop offset="0.3" stop-color="#EAE616"/>
<stop offset="0.53" stop-color="#D8DF1F"/>
<stop offset="0.8" stop-color="#BAD52D"/>
<stop offset="0.98" stop-color="#A2CC39"/>
</linearGradient>
<linearGradient id="paint5_linear_8604_55207" x1="4.24624" y1="51.3964" x2="18.1134" y2="15.8019" gradientUnits="userSpaceOnUse">
<stop offset="0.07" stop-color="#A2CC39"/>
<stop offset="0.26" stop-color="#81C45E"/>
<stop offset="0.92" stop-color="#0FA7DF"/>
</linearGradient>
</defs>
</svg>
