<svg width="128" height="128" viewBox="0 0 128 128" fill="none" xmlns="http://www.w3.org/2000/svg">
<mask id="mask0_8604_55229" style="mask-type:luminance" maskUnits="userSpaceOnUse" x="0" y="0" width="128" height="128">
<path d="M128 0H0V128H128V0Z" fill="white"/>
</mask>
<g mask="url(#mask0_8604_55229)">
<path d="M128 0H0V128H128V0Z" fill="#FF0032"/>
<path d="M38.9388 9.84375L29.5315 29.3809L20.1242 9.84375H9.85889V39.3753H17.0536V18.2426L26.2502 36.094H32.8128L42.0094 18.2426V39.3753H49.2192V9.84375H38.9388Z" fill="white"/>
<path d="M85.2831 9.84375V15.729H98.1373L98.1072 39.3753H105.302L105.332 15.729H118.201V9.84375H85.2831Z" fill="white"/>
<path d="M110.992 108.297C110.811 109.471 110.344 110.45 109.577 111.172C108.854 111.865 107.891 112.346 106.687 112.632C105.498 112.903 103.767 113.069 101.915 113.069C100.064 113.069 98.318 112.828 96.888 112.331C95.5033 111.865 94.4045 111.037 93.6369 109.878C92.8542 108.719 92.4628 107.033 92.4628 104.896V101.87C92.4628 99.7179 92.8542 98.0472 93.6369 96.8882C94.4045 95.7292 95.5033 94.9164 96.888 94.4347C98.318 93.9531 100.004 93.6972 101.915 93.6972C103.827 93.6972 105.498 93.8628 106.687 94.1337C107.891 94.4046 108.854 94.9013 109.577 95.5937C110.329 96.3313 110.811 97.2946 110.992 98.4686H118.201C118.006 96.0302 117.178 93.9531 115.733 92.2974C114.408 90.7772 112.587 89.6633 110.314 88.986C108.102 88.3237 105.212 87.9775 101.93 87.9775C98.4835 87.9775 95.4882 88.4742 93.0197 89.4526C90.5212 90.446 88.5945 92.1017 87.2549 94.3745C85.9755 96.557 85.3133 99.462 85.2681 103.029V103.36L85.6594 103.375L85.2681 103.391V103.722C85.3133 107.289 85.9755 110.194 87.2549 112.376C88.5795 114.649 90.5212 116.305 93.0197 117.298C95.4732 118.277 98.4685 118.773 101.93 118.773C105.377 118.773 108.117 118.427 110.314 117.765C112.587 117.088 114.408 115.974 115.733 114.454C117.178 112.798 118.006 110.721 118.201 108.282L110.992 108.297Z" fill="white"/>
</g>
</svg>
