<svg width="412" height="250" viewBox="0 0 412 250" fill="none" xmlns="http://www.w3.org/2000/svg">
<g clip-path="url(#clip0_8604_55747)">
<path d="M308.289 146.737C295.563 146.737 285.943 137.266 285.943 124.689C285.943 112.111 295.858 102.344 308.584 102.344C321.311 102.344 330.929 111.815 330.929 124.392C330.929 136.823 321.015 146.737 308.289 146.737ZM308.436 109.595C300.001 109.595 293.639 115.958 293.639 124.54C293.639 133.123 300.001 139.486 308.436 139.486C316.871 139.486 323.235 133.123 323.235 124.54C323.235 115.958 316.871 109.595 308.436 109.595ZM258.419 146.737C245.842 146.737 236.222 137.266 236.222 124.689C236.222 112.111 246.137 102.344 258.715 102.344C269.518 102.344 274.697 108.559 274.844 108.855L274.993 109.151L269.665 114.626L269.518 114.182C269.37 114.182 265.67 109.595 258.568 109.595C250.133 109.595 243.917 115.958 243.917 124.54C243.917 133.123 250.133 139.634 258.568 139.634C265.67 139.634 270.85 135.195 271.738 128.536V128.388H256.792V121.433H279.581C279.581 122.025 279.729 124.54 279.729 125.132C279.581 137.414 270.553 146.737 258.419 146.737ZM373.548 145.997V102.936H388.197C401.811 102.936 411.727 111.963 411.727 124.392C411.727 136.823 401.516 145.997 388.05 145.997H373.548ZM381.242 139.338H388.346C397.52 139.338 404.031 133.123 404.031 124.54C404.031 115.958 397.52 109.743 388.346 109.743H381.242V139.338ZM337.293 145.997V102.936H344.987V139.19H367.036V145.997H337.293Z" fill="#FF4D4F"/>
<path d="M204.573 149.696C204.573 151.62 206.053 153.1 207.829 153.1C209.752 153.1 211.232 151.62 211.232 149.696C211.232 147.921 209.752 146.293 207.829 146.293C206.053 146.293 204.573 147.921 204.573 149.696ZM155.74 143.629C155.74 145.257 156.925 146.441 158.552 146.441C160.031 146.441 161.216 145.257 161.216 143.629C161.216 142.15 160.031 140.966 158.552 140.966C156.925 140.966 155.74 142.15 155.74 143.629ZM138.575 131.495C138.575 129.128 136.799 127.352 134.579 127.352C132.211 127.352 130.436 129.128 130.436 131.495C130.436 133.715 132.211 135.491 134.579 135.491C136.799 135.491 138.575 133.715 138.575 131.495ZM151.301 143.925C151.301 142.002 149.82 140.522 147.897 140.522C146.122 140.522 144.494 142.002 144.494 143.925C144.494 145.701 146.122 147.329 147.897 147.329C149.82 147.329 151.301 145.701 151.301 143.925ZM164.915 94.0577C164.915 92.2819 163.436 90.6542 161.511 90.6542C159.587 90.6542 158.108 92.2819 158.108 94.0577C158.108 95.9813 159.587 97.4611 161.511 97.4611C163.436 97.4611 164.915 95.9813 164.915 94.0577ZM180.601 124.541C180.601 122.765 179.121 121.137 177.345 121.137C175.421 121.137 173.942 122.765 173.942 124.541C173.942 126.464 175.421 127.944 177.345 127.944C179.121 127.944 180.601 126.464 180.601 124.541ZM193.327 149.4C191.551 149.4 189.924 150.88 189.924 152.656C189.924 154.58 191.551 156.059 193.327 156.059C195.25 156.059 196.731 154.58 196.731 152.656C196.731 150.88 195.25 149.4 193.327 149.4ZM201.318 90.2103C201.318 88.2866 199.838 86.8069 197.914 86.8069C196.138 86.8069 194.659 88.2866 194.659 90.2103C194.659 91.986 196.138 93.4657 197.914 93.4657C199.838 93.4657 201.318 91.986 201.318 90.2103ZM205.314 155.911C205.314 154.136 203.834 152.656 201.911 152.656C200.135 152.656 198.506 154.136 198.506 155.911C198.506 157.835 200.135 159.315 201.911 159.315C203.834 159.315 205.314 157.835 205.314 155.911ZM211.676 124.541C211.676 122.765 210.196 121.137 208.273 121.137C206.497 121.137 205.017 122.765 205.017 124.541C205.017 126.464 206.497 127.944 208.273 127.944C210.196 127.944 211.676 126.464 211.676 124.541ZM219.519 132.975C219.519 130.608 217.448 128.536 215.081 128.536C212.713 128.536 210.641 130.608 210.641 132.975C210.641 135.491 212.713 137.414 215.081 137.414C217.448 137.414 219.519 135.491 219.519 132.975ZM145.529 119.953C145.529 118.178 143.902 116.55 142.126 116.55C140.202 116.55 138.723 118.178 138.723 119.953C138.723 121.877 140.202 123.357 142.126 123.357C143.902 123.357 145.529 121.877 145.529 119.953ZM151.152 104.416C151.152 102.936 149.969 101.752 148.49 101.752C146.861 101.752 145.678 102.936 145.678 104.416C145.678 106.044 146.861 107.227 148.49 107.227C149.969 107.227 151.152 106.044 151.152 104.416ZM161.216 105.748C161.216 103.824 159.736 102.344 157.813 102.344C156.037 102.344 154.557 103.824 154.557 105.748C154.557 107.523 156.037 109.151 157.813 109.151C159.736 109.151 161.216 107.523 161.216 105.748ZM164.471 163.31C164.471 161.534 162.992 160.055 161.067 160.055C159.292 160.055 157.664 161.534 157.664 163.31C157.664 165.234 159.292 166.713 161.067 166.713C162.992 166.713 164.471 165.234 164.471 163.31ZM172.906 165.53C172.906 163.606 171.427 162.126 169.502 162.126C167.727 162.126 166.248 163.606 166.248 165.53C166.248 167.305 167.727 168.785 169.502 168.785C171.427 168.785 172.906 167.305 172.906 165.53ZM181.341 91.2461C181.341 89.4704 179.862 87.9907 177.937 87.9907C176.162 87.9907 174.533 89.4704 174.533 91.2461C174.533 93.1698 176.162 94.6495 177.937 94.6495C179.862 94.6495 181.341 93.1698 181.341 91.2461ZM184.448 149.252C184.448 147.773 183.265 146.589 181.785 146.589C180.304 146.589 179.121 147.773 179.121 149.252C179.121 150.732 180.304 152.064 181.785 152.064C183.265 152.064 184.448 150.732 184.448 149.252ZM195.991 124.541C195.991 122.765 194.511 121.137 192.588 121.137C190.812 121.137 189.332 122.765 189.332 124.541C189.332 126.464 190.812 127.944 192.588 127.944C194.511 127.944 195.991 126.464 195.991 124.541ZM203.538 124.541C203.538 122.913 202.206 121.581 200.579 121.581C198.802 121.581 197.47 122.913 197.47 124.541C197.47 126.316 198.802 127.648 200.579 127.648C202.206 127.648 203.538 126.316 203.538 124.541ZM219.372 116.698C219.372 114.922 217.743 113.442 215.969 113.442C214.044 113.442 212.564 114.922 212.564 116.698C212.564 118.622 214.044 120.101 215.969 120.101C217.743 120.101 219.372 118.622 219.372 116.698ZM204.426 144.073C206.202 144.073 207.681 142.594 207.681 140.67C207.681 138.894 206.202 137.414 204.426 137.414C202.502 137.414 201.023 138.894 201.023 140.67C201.023 142.594 202.502 144.073 204.426 144.073ZM169.651 113.442C167.727 113.442 166.248 114.922 166.248 116.698C166.248 118.622 167.727 120.101 169.651 120.101C171.427 120.101 173.054 118.622 173.054 116.698C173.054 114.922 171.427 113.442 169.651 113.442ZM164.915 104.416C166.839 104.416 168.319 102.936 168.319 101.012C168.319 99.2368 166.839 97.7571 164.915 97.7571C163.139 97.7571 161.66 99.2368 161.66 101.012C161.66 102.936 163.139 104.416 164.915 104.416ZM173.054 132.531C173.054 130.755 171.427 129.276 169.651 129.276C167.727 129.276 166.248 130.755 166.248 132.531C166.248 134.455 167.727 135.935 169.651 135.935C171.427 135.935 173.054 134.455 173.054 132.531ZM172.462 124.541C172.462 123.061 171.13 121.729 169.651 121.729C168.022 121.729 166.839 123.061 166.839 124.541C166.839 126.168 168.022 127.352 169.651 127.352C171.13 127.352 172.462 126.168 172.462 124.541ZM170.539 99.0888C170.539 100.569 171.722 101.752 173.201 101.752C174.681 101.752 175.865 100.569 175.865 99.0888C175.865 97.6091 174.681 96.4253 173.201 96.4253C171.722 96.4253 170.539 97.6091 170.539 99.0888ZM175.421 116.698C175.421 118.622 176.901 120.101 178.825 120.101C180.601 120.101 182.229 118.622 182.229 116.698C182.229 114.922 180.601 113.442 178.825 113.442C176.901 113.442 175.421 114.922 175.421 116.698ZM175.274 132.531C175.274 134.751 177.05 136.527 179.269 136.527C181.489 136.527 183.265 134.751 183.265 132.531C183.265 130.312 181.489 128.536 179.269 128.536C177.05 128.536 175.274 130.312 175.274 132.531ZM182.08 124.541C182.08 126.168 183.412 127.352 184.892 127.352C186.52 127.352 187.704 126.168 187.704 124.541C187.704 123.061 186.52 121.729 184.892 121.729C183.412 121.729 182.08 123.061 182.08 124.541ZM185.188 132.531C185.188 134.455 186.815 135.935 188.592 135.935C190.515 135.935 191.995 134.455 191.995 132.531C191.995 130.755 190.515 129.276 188.592 129.276C186.815 129.276 185.188 130.755 185.188 132.531ZM186.076 145.849C186.076 147.625 187.556 149.104 189.48 149.104C191.256 149.104 192.883 147.625 192.883 145.849C192.883 143.925 191.256 142.446 189.48 142.446C187.556 142.446 186.076 143.925 186.076 145.849ZM184.597 116.698C184.597 118.622 186.224 120.101 188 120.101C189.924 120.101 191.403 118.622 191.403 116.698C191.403 114.922 189.924 113.442 188 113.442C186.224 113.442 184.597 114.922 184.597 116.698ZM185.927 103.232C185.927 105.156 187.408 106.636 189.332 106.636C191.108 106.636 192.735 105.156 192.735 103.232C192.735 101.308 191.108 99.8286 189.332 99.8286C187.408 99.8286 185.927 101.308 185.927 103.232ZM192.291 139.93C192.291 141.854 193.771 143.333 195.694 143.333C197.47 143.333 198.95 141.854 198.95 139.93C198.95 138.154 197.47 136.674 195.694 136.674C193.771 136.674 192.291 138.154 192.291 139.93ZM195.103 132.531C195.103 134.455 196.582 135.935 198.358 135.935C200.282 135.935 201.762 134.455 201.762 132.531C201.762 130.755 200.282 129.276 198.358 129.276C196.582 129.276 195.103 130.755 195.103 132.531ZM199.394 150.288C201.023 150.288 202.206 149.104 202.206 147.625C202.206 145.997 201.023 144.813 199.394 144.813C197.914 144.813 196.582 145.997 196.582 147.625C196.582 149.104 197.914 150.288 199.394 150.288ZM190.812 160.794C190.812 163.014 192.588 164.79 194.806 164.79C197.026 164.79 198.802 163.014 198.802 160.794C198.802 158.575 197.026 156.799 194.806 156.799C192.588 156.799 190.812 158.575 190.812 160.794ZM183.412 164.938C183.412 166.713 184.892 168.341 186.815 168.341C188.592 168.341 190.071 166.713 190.071 164.938C190.071 163.014 188.592 161.534 186.815 161.534C184.892 161.534 183.412 163.014 183.412 164.938ZM181.341 156.503C181.341 158.723 183.116 160.499 185.336 160.499C187.556 160.499 189.332 158.723 189.332 156.503C189.332 154.284 187.556 152.508 185.336 152.508C183.116 152.508 181.341 154.284 181.341 156.503ZM174.83 165.678C174.83 167.601 176.309 169.081 178.233 169.081C180.157 169.081 181.636 167.601 181.636 165.678C181.636 163.902 180.157 162.274 178.233 162.274C176.309 162.274 174.83 163.902 174.83 165.678ZM173.645 157.983C173.645 159.759 175.125 161.238 176.901 161.238C178.825 161.238 180.304 159.759 180.304 157.983C180.304 156.059 178.825 154.58 176.901 154.58C175.125 154.58 173.645 156.059 173.645 157.983ZM173.35 153.396C175.274 153.396 176.754 151.916 176.754 150.14C176.754 148.217 175.274 146.737 173.35 146.737C171.574 146.737 170.095 148.217 170.095 150.14C170.095 151.916 171.574 153.396 173.35 153.396ZM165.655 157.391C165.655 159.167 166.987 160.499 168.763 160.499C170.539 160.499 172.018 159.167 172.018 157.391C172.018 155.615 170.539 154.136 168.763 154.136C166.987 154.136 165.655 155.615 165.655 157.391ZM165.063 151.028C166.69 151.028 168.022 149.696 168.022 148.069C168.022 146.589 166.69 145.257 165.063 145.257C163.583 145.257 162.251 146.589 162.251 148.069C162.251 149.696 163.583 151.028 165.063 151.028ZM149.969 159.463C149.969 161.386 151.449 162.866 153.373 162.866C155.149 162.866 156.628 161.386 156.628 159.463C156.628 157.687 155.149 156.207 153.373 156.207C151.449 156.207 149.969 157.687 149.969 159.463ZM149.969 132.235C151.893 132.235 153.373 130.755 153.373 128.832C153.373 127.056 151.893 125.576 149.969 125.576C148.193 125.576 146.714 127.056 146.714 128.832C146.714 130.755 148.193 132.235 149.969 132.235ZM152.781 132.827C150.561 132.827 148.637 134.603 148.637 136.822C148.637 139.19 150.561 140.966 152.781 140.966C155.001 140.966 156.925 139.19 156.925 136.822C156.925 134.603 155.001 132.827 152.781 132.827ZM147.305 136.527C147.305 134.603 145.826 133.123 143.902 133.123C142.126 133.123 140.499 134.603 140.499 136.527C140.499 138.302 142.126 139.93 143.902 139.93C145.826 139.93 147.305 138.302 147.305 136.527ZM141.978 131.051C143.458 131.051 144.79 129.868 144.79 128.388C144.79 126.908 143.458 125.576 141.978 125.576C140.499 125.576 139.314 126.908 139.314 128.388C139.314 129.868 140.499 131.051 141.978 131.051ZM140.943 111.815C140.943 113.59 142.423 115.07 144.346 115.07C146.122 115.07 147.602 113.59 147.602 111.815C147.602 109.891 146.122 108.411 144.346 108.411C142.423 108.411 140.943 109.891 140.943 111.815ZM149.969 117.142C148.046 117.142 146.566 118.622 146.566 120.397C146.566 122.321 148.046 123.801 149.969 123.801C151.745 123.801 153.373 122.321 153.373 120.397C153.373 118.622 151.745 117.142 149.969 117.142ZM149.378 112.407C149.378 114.33 150.857 115.81 152.781 115.81C154.557 115.81 156.037 114.33 156.037 112.407C156.037 110.631 154.557 109.151 152.781 109.151C150.857 109.151 149.378 110.631 149.378 112.407ZM151.596 98.4968C151.596 99.9767 152.929 101.161 154.408 101.161C155.888 101.161 157.072 99.9767 157.072 98.4968C157.072 97.0171 155.888 95.8333 154.408 95.8333C152.929 95.8333 151.596 97.0171 151.596 98.4968ZM157.664 149.992C157.664 147.773 155.888 145.997 153.669 145.997C151.449 145.997 149.673 147.773 149.673 149.992C149.673 152.212 151.449 153.988 153.669 153.988C155.888 153.988 157.664 152.212 157.664 149.992ZM143.162 154.136C143.162 156.059 144.641 157.539 146.417 157.539C148.341 157.539 149.82 156.059 149.82 154.136C149.82 152.36 148.341 150.88 146.417 150.88C144.641 150.88 143.162 152.36 143.162 154.136ZM137.539 147.477C137.539 149.252 139.018 150.88 140.943 150.88C142.718 150.88 144.197 149.252 144.197 147.477C144.197 145.553 142.718 144.073 140.943 144.073C139.018 144.073 137.539 145.553 137.539 147.477ZM133.691 140.078C133.691 142.002 135.171 143.481 136.947 143.481C138.871 143.481 140.35 142.002 140.35 140.078C140.35 138.302 138.871 136.674 136.947 136.674C135.171 136.674 133.691 138.302 133.691 140.078ZM133.987 119.361C132.063 119.361 130.584 120.841 130.584 122.765C130.584 124.541 132.063 126.168 133.987 126.168C135.763 126.168 137.391 124.541 137.391 122.765C137.391 120.841 135.763 119.361 133.987 119.361ZM135.319 110.779C133.395 110.779 131.915 112.259 131.915 114.182C131.915 115.958 133.395 117.586 135.319 117.586C137.095 117.586 138.575 115.958 138.575 114.182C138.575 112.259 137.095 110.779 135.319 110.779ZM138.279 102.64C136.503 102.64 135.023 104.12 135.023 106.044C135.023 107.819 136.503 109.447 138.279 109.447C140.202 109.447 141.682 107.819 141.682 106.044C141.682 104.12 140.202 102.64 138.279 102.64ZM143.014 95.3895C141.238 95.3895 139.611 96.8692 139.611 98.6448C139.611 100.569 141.238 102.048 143.014 102.048C144.938 102.048 146.417 100.569 146.417 98.6448C146.417 96.8692 144.938 95.3895 143.014 95.3895ZM153.225 92.5779C153.225 90.3583 151.449 88.5826 149.229 88.5826C147.009 88.5826 145.234 90.3583 145.234 92.5779C145.234 94.7975 147.009 96.5733 149.229 96.5733C151.449 96.5733 153.225 94.7975 153.225 92.5779ZM160.031 87.8427C160.031 86.067 158.404 84.4393 156.628 84.4393C154.705 84.4393 153.225 86.067 153.225 87.8427C153.225 89.7664 154.705 91.2461 156.628 91.2461C158.404 91.2461 160.031 89.7664 160.031 87.8427ZM160.919 151.472C159.143 151.472 157.664 152.952 157.664 154.875C157.664 156.651 159.143 158.279 160.919 158.279C162.843 158.279 164.323 156.651 164.323 154.875C164.323 152.952 162.843 151.472 160.919 151.472ZM167.875 84.7352C167.875 82.8115 166.395 81.3318 164.619 81.3318C162.695 81.3318 161.216 82.8115 161.216 84.7352C161.216 86.5109 162.695 87.9907 164.619 87.9907C166.395 87.9907 167.875 86.5109 167.875 84.7352ZM169.502 88.2866C167.727 88.2866 166.248 89.7664 166.248 91.69C166.248 93.4657 167.727 95.0935 169.502 95.0935C171.427 95.0935 172.906 93.4657 172.906 91.69C172.906 89.7664 171.427 88.2866 169.502 88.2866ZM176.457 83.4034C176.457 81.4797 174.977 80 173.201 80C171.278 80 169.798 81.4797 169.798 83.4034C169.798 85.1791 171.278 86.6589 173.201 86.6589C174.977 86.6589 176.457 85.1791 176.457 83.4034ZM181.636 95.8333C179.418 95.8333 177.642 97.6091 177.642 99.8286C177.642 102.048 179.418 103.824 181.636 103.824C183.856 103.824 185.632 102.048 185.632 99.8286C185.632 97.6091 183.856 95.8333 181.636 95.8333ZM185.041 83.8474C185.041 82.2196 183.709 81.0358 182.08 81.0358C180.453 81.0358 179.269 82.2196 179.269 83.8474C179.269 85.4751 180.453 86.8069 182.08 86.8069C183.709 86.8069 185.041 85.4751 185.041 83.8474ZM186.076 89.6184C184.3 89.6184 182.821 91.0981 182.821 93.0218C182.821 94.7975 184.3 96.4253 186.076 96.4253C188 96.4253 189.48 94.7975 189.48 93.0218C189.48 91.0981 188 89.6184 186.076 89.6184ZM193.179 86.215C193.179 84.5872 191.847 83.2555 190.22 83.2555C188.592 83.2555 187.26 84.5872 187.26 86.215C187.26 87.6947 188.592 89.0265 190.22 89.0265C191.847 89.0265 193.179 87.6947 193.179 86.215ZM197.026 96.7212C197.026 94.9454 195.547 93.3178 193.623 93.3178C191.847 93.3178 190.22 94.9454 190.22 96.7212C190.22 98.6448 191.847 100.125 193.623 100.125C195.547 100.125 197.026 98.6448 197.026 96.7212ZM202.058 116.698C202.058 114.33 200.135 112.259 197.618 112.259C195.25 112.259 193.327 114.33 193.327 116.698C193.327 119.213 195.25 121.137 197.618 121.137C200.135 121.137 202.058 119.213 202.058 116.698ZM203.538 132.531C203.538 134.159 204.87 135.343 206.349 135.343C207.978 135.343 209.161 134.159 209.161 132.531C209.161 131.051 207.978 129.72 206.349 129.72C204.87 129.72 203.538 131.051 203.538 132.531ZM210.789 116.698C210.789 114.922 209.161 113.442 207.385 113.442C205.461 113.442 203.982 114.922 203.982 116.698C203.982 118.622 205.461 120.101 207.385 120.101C209.161 120.101 210.789 118.622 210.789 116.698ZM212.417 138.894C210.641 138.894 209.161 140.374 209.161 142.298C209.161 144.073 210.641 145.553 212.417 145.553C214.34 145.553 215.82 144.073 215.82 142.298C215.82 140.374 214.34 138.894 212.417 138.894ZM218.631 124.541C218.631 123.061 217.448 121.729 215.82 121.729C214.34 121.729 213.157 123.061 213.157 124.541C213.157 126.168 214.34 127.352 215.82 127.352C217.448 127.352 218.631 126.168 218.631 124.541Z" fill="#FFD645"/>
<path d="M16.8391 146.978C13.6804 146.978 10.5858 146.53 7.55519 145.633C4.56726 144.694 2.04887 143.414 0 141.792L3.52149 135.325C5.1435 136.648 7.107 137.715 9.41197 138.526C11.7596 139.337 14.1927 139.743 16.7111 139.743C19.6563 139.743 21.9613 139.124 23.626 137.886C25.3334 136.648 26.1871 134.983 26.1871 132.892C26.1871 131.483 25.8242 130.245 25.0986 129.178C24.4156 128.111 23.1778 127.3 21.385 126.745C19.635 126.19 17.2233 125.913 14.15 125.913H3.32941L5.63438 101.519H31.9495V108.498H8.70768L13.0615 104.528L11.3328 122.776L6.97895 118.87H16.0068C20.4459 118.87 24.0101 119.467 26.6993 120.663C29.4311 121.815 31.416 123.437 32.6538 125.529C33.9343 127.578 34.5746 129.925 34.5746 132.572C34.5746 135.175 33.9343 137.566 32.6538 139.743C31.3732 141.92 29.4097 143.67 26.7633 144.993C24.1595 146.316 20.8515 146.978 16.8391 146.978Z" fill="#FF4D4F"/>
<path d="M57.3672 146.978C53.6536 146.978 50.4309 146.423 47.6991 145.313C44.9673 144.203 42.8544 142.645 41.3605 140.639C39.8664 138.59 39.1195 136.2 39.1195 133.468C39.1195 130.736 39.8451 128.431 41.2964 126.553C42.7476 124.675 44.8392 123.245 47.5711 122.263C50.3028 121.282 53.5682 120.791 57.3672 120.791C61.1661 120.791 64.4315 121.282 67.1633 122.263C69.9378 123.245 72.0507 124.696 73.502 126.617C74.9959 128.495 75.743 130.779 75.743 133.468C75.743 136.2 74.9746 138.59 73.438 140.639C71.9439 142.645 69.8097 144.203 67.0353 145.313C64.3034 146.423 61.0808 146.978 57.3672 146.978ZM57.3672 140.447C60.4405 140.447 62.8735 139.807 64.6663 138.526C66.459 137.246 67.3554 135.474 67.3554 133.212C67.3554 130.992 66.459 129.242 64.6663 127.962C62.8735 126.681 60.4405 126.041 57.3672 126.041C54.2939 126.041 51.8822 126.681 50.1322 127.962C48.382 129.242 47.507 130.992 47.507 133.212C47.507 135.474 48.382 137.246 50.1322 138.526C51.8822 139.807 54.2939 140.447 57.3672 140.447ZM57.3672 125.145C53.9097 125.145 50.9431 124.696 48.4675 123.8C45.9917 122.861 44.0709 121.516 42.705 119.766C41.3817 117.974 40.7202 115.839 40.7202 113.364C40.7202 110.803 41.403 108.604 42.769 106.769C44.1776 104.891 46.141 103.439 48.6595 102.415C51.1779 101.391 54.0804 100.878 57.3672 100.878C60.6966 100.878 63.6204 101.391 66.1389 102.415C68.6573 103.439 70.6208 104.891 72.0294 106.769C73.438 108.604 74.1423 110.803 74.1423 113.364C74.1423 115.839 73.4593 117.974 72.0934 119.766C70.7702 121.516 68.8493 122.861 66.331 123.8C63.8125 124.696 60.8247 125.145 57.3672 125.145ZM57.3672 120.022C60.0136 120.022 62.1052 119.468 63.6419 118.358C65.1785 117.205 65.9468 115.669 65.9468 113.748C65.9468 111.742 65.1571 110.184 63.5778 109.074C61.9984 107.964 59.9283 107.409 57.3672 107.409C54.8061 107.409 52.7573 107.964 51.2206 109.074C49.684 110.184 48.9156 111.742 48.9156 113.748C48.9156 115.669 49.6625 117.205 51.1566 118.358C52.6932 119.468 54.7634 120.022 57.3672 120.022Z" fill="#FF4D4F"/>
<path d="M95.9976 146.978C92.8389 146.978 89.7442 146.53 86.7136 145.633C83.7257 144.694 81.2073 143.414 79.1584 141.792L82.6799 135.325C84.3019 136.648 86.2654 137.715 88.5704 138.526C90.9181 139.337 93.3511 139.743 95.8695 139.743C98.8147 139.743 101.12 139.124 102.784 137.886C104.492 136.648 105.345 134.983 105.345 132.892C105.345 131.483 104.983 130.245 104.257 129.178C103.574 128.111 102.336 127.3 100.543 126.745C98.7934 126.19 96.3817 125.913 93.3084 125.913H82.4879L84.7928 101.519H111.108V108.498H87.8661L92.22 104.528L90.4912 122.776L86.1374 118.87H95.1652C99.6044 118.87 103.169 119.467 105.858 120.663C108.59 121.815 110.574 123.437 111.812 125.529C113.093 127.578 113.733 129.925 113.733 132.572C113.733 135.175 113.093 137.566 111.812 139.743C110.532 141.92 108.568 143.67 105.922 144.993C103.318 146.316 100.01 146.978 95.9976 146.978Z" fill="#FF4D4F"/>
</g>
<defs>
<clipPath id="clip0_8604_55747">
<rect width="412" height="89.0811" fill="white" transform="translate(0 80)"/>
</clipPath>
</defs>
</svg>
