<svg width="412" height="250" viewBox="0 0 412 250" fill="none" xmlns="http://www.w3.org/2000/svg">
<path d="M349.149 181.05L345.195 180.456C337.675 179.331 334.522 177.777 334.522 174.717C334.522 171.979 338.476 170.409 344.914 170.409C352.492 170.409 359.973 172.943 362.905 175.193V167.496C359.342 165.383 352.939 163.404 345.019 163.404C330.787 163.404 325.995 169.465 325.995 174.609C325.995 181.748 332.026 185.842 342.635 187.432L346.589 188.026C354.146 189.156 357.077 190.565 357.077 193.476C357.077 196.138 354.281 198.28 345.598 198.28C336.916 198.28 330.203 195.513 326.895 193.21V201.08C330.425 203.108 336.91 205.288 344.961 205.288C357.761 205.288 365.608 200.782 365.608 193.859C365.608 186.935 360.117 182.695 349.152 181.056L349.149 181.05Z" fill="#26BCB4"/>
<path d="M69.703 164.366L47.3408 204.707H56.7334L61.9996 194.657H86.2175L91.4837 204.707H100.876L78.5141 164.366H69.703ZM65.2113 188.526L73.6892 172.344H74.525L83.0029 188.526H65.2113Z" fill="#26BCB4"/>
<path d="M173.77 164.366L151.407 204.707H160.8L166.066 194.657H190.284L195.55 204.707H204.943L182.581 164.366H173.77ZM169.278 188.526L177.756 172.344H178.592L187.07 188.526H169.278Z" fill="#26BCB4"/>
<path d="M292.849 164.366L270.487 204.707H279.879L285.145 194.657H309.363L314.629 204.707H324.022L301.66 164.366H292.849ZM288.357 188.526L296.835 172.344H297.671L306.149 188.526H288.357Z" fill="#26BCB4"/>
<path d="M141.007 167.031C137.342 165.307 131.371 164.366 125.188 164.366H105.774V204.707H125.188C131.371 204.707 137.342 203.769 141.007 202.042C148.45 198.538 152.024 191.954 152.024 184.537C152.024 177.12 148.45 170.535 141.007 167.031ZM136.576 196.127C133.999 197.398 129.224 198.076 124.402 198.076H113.846V170.994H124.402C129.224 170.994 133.999 171.672 136.576 172.943C141.43 175.34 143.497 179.688 143.497 184.534C143.497 189.379 141.433 193.731 136.576 196.124V196.127Z" fill="#26BCB4"/>
<path d="M237.887 190.864L223.199 164.366H210.01V204.707H218.079V171.555H218.894L237.887 205.815L256.877 171.555H257.692V204.707H265.761V164.366H252.572L237.887 190.864Z" fill="#26BCB4"/>
<path d="M192.531 49.6094L206.638 63.7158L220.741 49.6094V48.1979L215.887 43.3408H197.386L192.531 48.1979V49.6094Z" fill="#00F7EA"/>
<path d="M211.22 68.2979H202.053L160.464 143.325L161.662 144.196C174.643 129.031 193.92 119.419 215.446 119.419C224.304 119.419 232.779 121.053 240.593 124.025L241.508 122.935L211.22 68.2979ZM207.29 112.663C200.285 112.663 193.519 113.686 187.128 115.582L205.931 78.6811H207.345L225.926 115.147C219.987 113.531 213.742 112.663 207.29 112.663Z" fill="#26BCB4"/>
</svg>
