<svg width="412" height="250" viewBox="0 0 412 250" fill="none" xmlns="http://www.w3.org/2000/svg">
<path d="M154.624 78.6426L169.587 175.603L183.042 175.56L168.143 78.6717L154.624 78.6426Z" fill="#26A9E0"/>
<path d="M153.999 78.6426H131.092V175.288H153.999V78.6426Z" fill="#26A9E0"/>
<path d="M86.2031 78.6426H2V175.288H77.808L86.2031 78.6426Z" fill="#26A9E0"/>
<path d="M98.1075 175.283H123.685L123.782 78.6426H106.493L98.1075 175.283Z" fill="#26A9E0"/>
<path d="M232.027 123.376H224.092V105.059C220.908 107.143 217.151 108.21 213.332 108.132C206.497 108.132 199.615 104.497 199.615 93.8624V78.7881H207.53V91.657C207.53 98.7919 211.015 100.823 215.46 100.823C218.561 100.751 221.569 99.7476 224.092 97.9437V78.7881H232.027V123.381V123.376Z" fill="#26A9E0"/>
<path d="M240.64 123.376V78.7881H248.575V110.507L272.228 78.7881H279.179V123.381H271.264V91.7103L247.61 123.371L240.64 123.376Z" fill="#26A9E0"/>
<path d="M286.086 78.7881H323.263V86.1071H308.639V123.381H300.71V86.1071H286.081L286.086 78.7881Z" fill="#26A9E0"/>
<path d="M335.546 78.6572H342.516L361.584 123.333H353.145L348.434 111.932H329.172L324.46 123.333H316.477L335.546 78.6572ZM332.201 104.599H345.414L338.842 88.7488L332.201 104.599Z" fill="#26A9E0"/>
<path d="M366.402 123.376V78.7881H374.317V110.507L397.971 78.7881H404.936V123.381H397.006V91.7103L373.353 123.371L366.402 123.376Z" fill="#26A9E0"/>
<path d="M199.29 130.787H224.747V138.106H207.21V175.361H199.29V130.787Z" fill="#26A9E0"/>
<path d="M398.053 67H374.933V74.3675H392.678L398.053 67Z" fill="#26A9E0"/>
<path d="M250.392 130.08C263.794 130.08 273.915 139.188 273.915 153.138C273.915 166.515 263.794 176.195 250.397 176.195C236.995 176.195 226.937 167.102 226.937 153.138C226.937 140.167 236.544 130.08 250.397 130.08H250.392ZM250.392 168.731C259.859 168.731 265.53 161.857 265.53 153.065C265.53 143.826 258.894 137.399 250.392 137.399C241.895 137.399 235.318 143.826 235.318 153.065C235.318 162.003 241.954 168.731 250.392 168.731Z" fill="#26A9E0"/>
<path d="M281.162 175.361V130.787C283.667 130.787 290.812 130.642 293.977 130.642C307.244 130.642 311.475 137.66 311.475 145.052C311.475 152.633 305.746 159.462 294.971 159.462C293.614 159.462 291.045 159.462 289.135 159.278V175.39L281.162 175.361ZM289.077 138.106V151.799C290.957 151.983 292.882 152.114 294.69 152.114C299.386 152.114 303.061 149.884 303.061 144.906C303.061 140.268 300.143 137.975 294.748 137.975C293.148 137.975 291.21 137.975 289.077 138.106Z" fill="#26A9E0"/>
<path d="M340.349 130.08C353.751 130.08 363.867 139.188 363.867 153.138C363.867 166.515 353.751 176.195 340.349 176.195C326.947 176.195 316.889 167.102 316.889 153.138C316.889 140.167 326.496 130.08 340.349 130.08ZM340.349 168.731C349.81 168.731 355.486 161.857 355.486 153.065C355.486 143.826 348.846 137.399 340.349 137.399C331.847 137.399 325.26 143.826 325.26 153.065C325.26 162.003 331.905 168.731 340.349 168.731Z" fill="#26A9E0"/>
<path d="M364.56 168.037H370.701C375.878 145.847 378.999 130.772 378.999 130.772H404.776V168.037H410.946V183.329H403.54V175.361H371.986V183.329H364.565L364.56 168.037ZM378.607 168.037H396.919V138.106H384.995C384.995 138.106 382.179 152.516 378.607 168.037Z" fill="#26A9E0"/>
</svg>
