<svg width="412" height="250" viewBox="0 0 412 250" fill="none" xmlns="http://www.w3.org/2000/svg">
<g clip-path="url(#clip0_8604_55739)">
<path fill-rule="evenodd" clip-rule="evenodd" d="M208.577 127.89H199.126L209.479 112.792L208.577 127.89ZM202.354 92.1815H231.704L233.382 151.349H205.977L206.283 142.686H189.59L184.1 151.349H156.014L202.354 92.1815ZM298.333 92.1822H324.815L302.774 151.349H276.727L284.481 129.531L270.969 129.689L262.594 151.349H235.844L258.468 92.1822H284.795L277.504 112.476H291.058L298.333 92.1822ZM332.72 92.1827H387.149L380.76 109.428H366.519L350.508 151.349H323.726L339.797 109.428H325.596L332.72 92.1827ZM63.8454 139.292C70.852 169.065 120.143 189.953 176.402 199.238C97.9137 196.152 38.148 179.728 26.1156 154.125C11.6683 122.865 72.953 79.2185 156.938 40.0796C99.8958 71.455 56.3674 107.712 63.8454 139.292ZM147.322 92.1822H176.363L143.039 120.281L154.776 151.349H124.04L118.274 128.91L109.63 151.349H82.3739L105.621 92.1822H132.136L124.349 113.217L147.322 92.1822Z" fill="#E55A19"/>
<path fill-rule="evenodd" clip-rule="evenodd" d="M206.827 180.557C207.804 175.458 211.642 172.128 216.387 172.128C219.458 172.128 221.667 173.525 222.551 175.9L219.202 177.413C218.62 175.993 217.527 175.225 215.922 175.225C213.317 175.225 210.409 177.646 210.409 182.14C210.409 184.608 211.828 185.889 213.852 185.889C215.457 185.889 216.829 185.121 217.969 183.7L220.76 185.214C218.946 187.589 216.178 188.986 213.107 188.986C209.06 188.986 206.617 186.564 206.617 182.676C206.617 182.001 206.687 181.302 206.827 180.557ZM232.922 188.706L235.272 176.505L232.225 178.438L230.643 176.203L236.505 172.407H239.691L236.528 188.706H232.922ZM247.308 186.005C248.843 186.005 250.355 185.097 251.192 182C250.239 182.676 249.006 183.141 247.68 183.141C245.051 183.141 243.4 181.558 243.4 178.997C243.4 174.969 246.517 172.128 250.518 172.128C253.658 172.128 255.589 173.804 255.589 177.413C255.589 178.182 255.496 179.067 255.31 180.021C254.1 186.215 250.82 188.986 246.796 188.986C244.865 188.986 243.284 188.311 242.26 187.076L244.865 184.958C245.493 185.656 246.308 186.005 247.308 186.005ZM249.099 180.208C250.053 180.208 250.936 179.858 251.797 179.183C251.89 178.578 251.937 178.042 251.937 177.6C251.937 175.714 251.146 175.108 250.006 175.108C248.355 175.108 247.075 176.366 247.075 178.415C247.075 179.556 247.75 180.208 249.099 180.208ZM258.32 176.645C258.832 173.991 261.344 172.128 264.74 172.128C267.834 172.128 269.579 173.665 269.579 175.737C269.579 177.507 268.462 179.253 266.787 180.161C268.16 180.999 268.788 182.07 268.788 183.328C268.788 186.634 265.647 188.963 261.507 188.963C258.157 188.963 256.11 187.496 256.11 185.074C256.11 183.025 257.343 181.116 259.507 180.068C258.669 179.276 258.25 178.368 258.25 177.39C258.25 177.134 258.274 176.901 258.32 176.645ZM259.925 184.05C259.902 184.189 259.879 184.329 259.879 184.469C259.879 185.516 260.763 186.145 262.112 186.145C263.763 186.145 264.996 185.33 264.996 184.003C264.996 183.095 264.229 182.489 261.833 181.512C260.809 182.117 260.135 183.048 259.925 184.05ZM265.903 176.855C265.927 176.715 265.95 176.552 265.95 176.412C265.95 175.551 265.322 174.969 264.252 174.969C262.926 174.969 261.902 175.807 261.902 176.878C261.902 177.623 262.554 178.182 264.368 178.95C265.136 178.485 265.717 177.809 265.903 176.855ZM275.195 186.005C276.73 186.005 278.242 185.097 279.079 182C278.125 182.676 276.893 183.141 275.567 183.141C272.938 183.141 271.287 181.558 271.287 178.997C271.287 174.969 274.404 172.128 278.405 172.128C281.545 172.128 283.475 173.804 283.475 177.413C283.475 178.182 283.382 179.067 283.196 180.021C281.987 186.215 278.707 188.986 274.683 188.986C272.752 188.986 271.17 188.311 270.147 187.076L272.752 184.958C273.38 185.656 274.194 186.005 275.195 186.005ZM276.986 180.208C277.939 180.208 278.823 179.858 279.684 179.183C279.777 178.578 279.823 178.042 279.823 177.6C279.823 175.714 279.033 175.108 277.893 175.108C276.241 175.108 274.962 176.366 274.962 178.415C274.962 179.556 275.636 180.208 276.986 180.208ZM290.218 188.706L293.381 172.407H304.43L303.826 175.458H296.475L293.916 188.706H290.218ZM318.955 180.557C318.002 185.353 314.419 188.986 309.604 188.986C305.534 188.986 303.324 186.378 303.324 182.676C303.324 176.901 307.488 172.128 312.884 172.128C316.978 172.128 319.165 174.759 319.165 178.485C319.165 179.137 319.095 179.835 318.955 180.557ZM307.301 180.557C307.185 181.162 307.115 181.744 307.115 182.257C307.115 184.538 308.232 185.889 310.209 185.889C312.861 185.889 315.373 183.118 315.373 178.904C315.373 176.599 314.257 175.225 312.279 175.225C309.86 175.225 307.93 177.274 307.301 180.557ZM333.201 185.773L332.085 191.501H328.386L328.944 188.706H321.501L320.942 191.501H317.267L318.36 185.773H319.826C321.361 182.583 322.454 178.368 323.082 175.155L323.617 172.407H333.969L331.363 185.773H333.201ZM323.501 185.773H327.781L329.805 175.341H326.618C325.967 178.694 324.967 182.583 323.501 185.773ZM346.307 172.407L348.819 188.706H344.865L344.423 185.353H338.491L336.816 188.706H332.862L341.701 172.407H346.307ZM343.306 175.9L340.003 182.42H344.097L343.306 175.9Z" fill="#E55A19"/>
</g>
<defs>
<clipPath id="clip0_8604_55739">
<rect width="363.636" height="160" fill="white" transform="translate(24 40)"/>
</clipPath>
</defs>
</svg>
