<svg width="412" height="250" viewBox="0 0 412 250" fill="none" xmlns="http://www.w3.org/2000/svg">
<g clip-path="url(#clip0_8604_55717)">
<path d="M313.132 144.812C320.596 144.812 326.547 143.612 332.353 140.986V130.129C332.353 129.915 332.129 129.783 331.934 129.884C325.923 133.029 320.422 134.392 313.132 134.392C304.308 134.392 299.791 130.19 299.791 122.09C299.791 113.99 304.32 109.787 313.132 109.787C320.431 109.787 325.923 111.151 331.934 114.295C332.129 114.397 332.353 114.265 332.353 114.051V103.193C326.547 100.568 320.596 99.3672 313.132 99.3672C297.152 99.3672 287.962 107.62 287.962 122.1C287.962 136.58 297.152 144.833 313.132 144.833V144.812Z" fill="#FF5500"/>
<path d="M282.594 122.822C282.594 106.541 272.575 99.418 258.169 99.418C242.497 99.418 232.999 107.966 232.999 121.927C232.999 139.114 243.704 144.812 259.234 144.812C268.66 144.812 276.123 143.306 281.244 141.291V130.882C281.244 130.668 281.02 130.536 280.836 130.627C277.124 132.469 268.679 134.687 259.386 134.687C251.227 134.687 246.085 132.052 244.94 125.611H281.982C282.215 125.611 282.411 125.437 282.451 125.214C282.563 124.43 282.615 123.606 282.615 122.833L282.594 122.822ZM258.169 109.166C265.469 109.166 269.498 112.423 270.991 117.195H245.145C246.412 112.046 250.348 109.166 258.16 109.166" fill="#FF5500"/>
<path d="M206.222 99.3369C198.35 99.3369 192.982 102.4 189.639 106.938C189.558 107.05 189.374 106.999 189.374 106.857L189.189 100.538H177.964V158.682H189.496V137.415C189.496 137.272 189.67 137.211 189.762 137.333C193.105 141.801 198.442 144.813 206.232 144.813C219.574 144.813 227.866 135.288 227.866 122.08C227.866 108.872 219.574 99.3471 206.232 99.3471M202.767 134.382C194.996 134.382 189.496 129.508 189.496 122.08C189.496 114.652 194.996 109.777 202.767 109.777C211.13 109.777 215.73 114.499 215.73 122.08C215.73 129.661 211.13 134.382 202.767 134.382Z" fill="#FF5500"/>
<path d="M141.241 143.683H152.773V110.978H172.065V100.547H121.938V110.978H141.241V143.683Z" fill="#0A1E78"/>
<path d="M80.1628 124.45V100.537H68.559V144.375C68.559 144.995 69.2644 145.352 69.7654 144.985L104.587 119.729V143.683H116.191V99.8453C116.191 99.2246 115.486 98.8684 114.985 99.2348L80.1628 124.44V124.45Z" fill="#0A1E78"/>
<path d="M5.58215 144.202C2.36168 144.202 0 144.059 0 144.059V133.69H1.87094C4.0486 133.69 5.6946 133.171 6.77833 132.133C7.87227 131.095 8.67994 129.406 9.20134 127.056C9.72275 124.715 10.1317 121.194 10.4282 116.503C10.6225 113.196 10.8269 107.895 11.0212 100.588C11.0723 98.3192 11.1439 95.4496 11.2461 92H57.7641V143.683H44.964V101.921H23.2181C23.1669 102.613 23.0443 105.351 22.85 110.143C22.7478 113.501 22.6558 115.628 22.5535 116.514C22.1037 123.677 21.4085 129.152 20.4679 132.948C19.5273 136.753 17.9119 139.572 15.6321 141.424C13.3522 143.276 9.99879 144.202 5.59236 144.202H5.58215Z" fill="#0A1E78"/>
<path d="M358.352 100.507C358.026 100.507 357.933 100.71 358.168 100.934C359.435 102.206 360.233 103.956 360.233 105.89C360.233 107.823 359.447 109.573 358.178 110.835C357.933 111.079 358.016 111.273 358.476 111.273H385.722C387.266 109.991 388.256 108.047 388.256 105.88C388.256 103.712 387.266 101.779 385.722 100.486H358.364L358.352 100.507Z" fill="#0A1E78"/>
<path d="M358.352 116.707C358.026 116.707 357.933 116.911 358.168 117.135C359.435 118.407 360.233 120.157 360.233 122.09C360.233 124.024 359.447 125.774 358.178 127.036C357.933 127.28 358.016 127.473 358.476 127.473H375.099C376.642 126.191 377.635 124.248 377.635 122.08C377.635 119.913 376.642 117.979 375.099 116.687H358.364L358.352 116.707Z" fill="#0A1E78"/>
<path d="M358.352 132.906C358.004 132.906 357.921 133.099 358.178 133.344C359.445 134.616 360.233 136.356 360.233 138.299C360.233 140.243 359.445 141.983 358.178 143.245C357.933 143.489 358.014 143.682 358.473 143.682H364.484C366.03 142.4 367.021 140.457 367.021 138.289C367.021 136.122 366.03 134.188 364.484 132.896H358.361L358.352 132.906Z" fill="#0A1E78"/>
<path d="M407.649 100.507H400.34C401.883 101.8 402.874 103.723 402.874 105.901C402.874 108.078 401.883 110.001 400.34 111.294H407.649C409.192 110.012 410.185 108.078 410.185 105.901C410.185 103.723 409.192 101.8 407.649 100.507Z" fill="#FF5500"/>
<path d="M400.331 100.507H393.019C394.565 101.8 395.556 103.723 395.556 105.901C395.556 108.078 394.565 110.001 393.019 111.294H400.331C401.874 110.012 402.865 108.078 402.865 105.901C402.865 103.723 401.874 101.8 400.331 100.507Z" fill="#6262D9"/>
<path d="M407.649 116.707H389.719C391.262 117.999 392.253 119.923 392.253 122.1C392.253 124.278 391.262 126.201 389.719 127.493H407.649C409.195 126.211 410.185 124.278 410.185 122.1C410.185 119.923 409.195 117.999 407.649 116.707Z" fill="#FF5500"/>
<path d="M389.719 116.707H382.407C383.951 117.999 384.944 119.923 384.944 122.1C384.944 124.278 383.951 126.201 382.407 127.493H389.719C391.262 126.211 392.253 124.278 392.253 122.1C392.253 119.923 391.262 117.999 389.719 116.707Z" fill="#6262D9"/>
<path d="M393.019 100.507H385.711C387.254 101.8 388.247 103.723 388.247 105.901C388.247 108.078 387.254 110.001 385.711 111.294H393.019C394.565 110.012 395.556 108.078 395.556 105.901C395.556 103.723 394.565 101.8 393.019 100.507Z" fill="#3D3DC7"/>
<path d="M382.398 116.707H375.089C376.632 117.999 377.625 119.923 377.625 122.1C377.625 124.278 376.632 126.201 375.089 127.493H382.398C383.944 126.211 384.934 124.278 384.934 122.1C384.934 119.923 383.944 117.999 382.398 116.707Z" fill="#3D3DC7"/>
<path d="M407.649 132.907H379.107C380.65 134.199 381.641 136.122 381.641 138.3C381.641 140.478 380.65 142.401 379.107 143.693H407.649C409.195 142.411 410.185 140.478 410.185 138.3C410.185 136.122 409.195 134.199 407.649 132.907Z" fill="#FF5500"/>
<path d="M379.097 132.907H371.786C373.329 134.199 374.322 136.122 374.322 138.3C374.322 140.478 373.329 142.401 371.786 143.693H379.097C380.64 142.411 381.631 140.478 381.631 138.3C381.631 136.122 380.64 134.199 379.097 132.907Z" fill="#6262D9"/>
<path d="M371.786 132.907H364.477C366.02 134.199 367.013 136.122 367.013 138.3C367.013 140.478 366.02 142.401 364.477 143.693H371.786C373.331 142.411 374.322 140.478 374.322 138.3C374.322 136.122 373.331 134.199 371.786 132.907Z" fill="#3D3DC7"/>
</g>
<defs>
<clipPath id="clip0_8604_55717">
<rect width="412" height="66.6821" fill="white" transform="translate(0 92)"/>
</clipPath>
</defs>
</svg>
