<svg width="412" height="250" viewBox="0 0 412 250" fill="none" xmlns="http://www.w3.org/2000/svg">
<g clip-path="url(#clip0_8604_55681)">
<path d="M15.3629 164.28C15.3629 164.76 15.2225 166.117 15.7608 166.117V166.281C17.2116 166.281 16.182 164.28 15.3629 164.28Z" fill="black"/>
<path d="M12.0047 159.565C13.2683 159.565 12.5663 158.922 12.5663 158.325C11.5132 158.325 12.0047 159.027 12.0047 159.565Z" fill="black"/>
<path d="M248.005 106.293C248.005 105.684 247.607 105.907 247.607 105.532C246.729 105.532 245.594 105.579 245.594 106.457C245.782 106.457 247.829 107.241 247.829 107.381C248.953 107.369 248.906 106.293 248.005 106.293Z" fill="black"/>
<path d="M234.139 106.07C234.139 106.912 235.263 106.269 235.263 106.83H236.21C236.21 106.035 235.965 104.818 235.087 104.818C235.087 103.589 233.274 106.07 234.139 106.07Z" fill="black"/>
<path d="M167.388 137.684C167.388 137.556 166.756 137.369 166.663 137.369C166.663 136.491 167.084 136.058 165.703 136.058C165.703 135.04 164.205 132.653 163.07 132.653C163.07 132.349 160.929 129.775 160.648 129.775C160.648 129.436 158.73 128.851 158.238 128.851C158.238 128.347 153.78 127.599 153.183 127.599C153.183 127.084 151.276 127.084 151.276 126.148C152.224 126.148 152.914 124.837 153.523 124.837C153.523 124.779 155.652 123.059 155.769 123.059C155.769 122.579 158.577 122.193 158.577 121.269C159.198 121.269 160.216 119.642 160.485 119.642C160.485 119.022 161.947 119.233 161.947 118.343C161.058 118.343 162.345 116.635 162.345 116.331C163 116.331 165.153 111.3 163.866 111.3C163.866 110.808 163.082 110.352 163.082 109.299C162.497 109.299 162.509 106.818 161.62 106.818C161.62 106.105 160.356 105.52 159.549 105.52C159.549 104.139 156.179 104.092 156.179 103.741C155.559 103.741 155.957 103.519 155.617 103.519C155.617 102.63 153.219 102.653 152.411 102.653C152.411 102.021 150.726 101.869 150.726 102.442C150.504 102.442 149.041 101.565 149.041 101.565C145.391 101.565 146.97 101.612 146.97 102.981C145.871 102.981 145.672 102.442 145.672 101.354C146.573 101.354 144.151 99.1194 144.151 101.19H143.589V101.027C142.805 101.027 141.916 100.804 141.916 100.102C141.401 100.102 141.027 100.266 140.793 100.266C140.793 100.956 137.984 100.231 137.984 100.641C136.417 100.641 136.709 101.179 135.352 101.179C135.352 102.723 130.859 102.232 130.859 102.431C130.484 102.431 127.033 103.882 129.338 103.882C129.338 102.712 131.081 104.08 131.081 103.343C131.596 103.343 134.451 101.974 134.451 103.18C135.165 103.18 135.364 103.343 136.136 103.343C136.136 104.455 133.889 103.589 133.889 104.268C132.251 104.268 131.42 104.642 131.42 106.268C131.807 106.268 132.193 106.818 132.38 106.818C132.38 107.778 133.667 105.403 133.667 106.268C134.463 106.268 132.24 108.222 133.889 108.222C133.889 108.702 130.531 109.51 129.736 109.51C129.736 110.317 127.782 109.299 129.174 109.299C129.174 108.082 130.133 107.848 130.133 106.818C130.555 106.818 129.747 105.789 129.747 105.52C127.08 105.52 126.155 106.444 123.569 106.444C123.569 106.538 123.078 106.83 123.008 106.83C123.008 107.556 120.2 106.748 120.2 108.62C119.697 108.62 119.193 109.697 118.854 109.697C118.854 109.24 117.38 109.861 117.169 109.861C117.169 110.481 115.484 110.832 115.484 111.698C115.087 111.698 115.145 114.166 115.145 114.74C113.94 114.74 116.327 125.773 116.608 125.773C116.608 126.51 116.994 127.353 116.994 128.16C116.736 128.16 116.257 129.4 116.83 129.4C116.83 129.506 117.579 130.325 116.994 130.325C116.994 131.764 117.731 131.787 117.731 133.367C118.363 133.367 117.134 137.544 119.638 137.544C119.638 135.672 120.165 136.83 121.159 136.83C121.159 137.205 122.528 139.159 120.937 139.159C120.937 139.615 120.399 144.95 120.937 144.95C120.937 145.98 122.06 145.056 122.06 145.5C122.692 145.5 121.077 147.127 122.06 147.127C122.06 147.724 121.007 149.502 121.885 149.502C121.885 149.841 122.06 149.49 122.06 149.83C122.75 149.83 122.06 151.983 123.019 151.983C123.019 153.819 123.23 151.819 123.967 151.819C123.967 152.638 125.418 151.643 125.418 152.205C126.085 152.205 125.09 153.164 125.09 152.532C123.616 152.532 124.529 153 124.529 153.457C125.207 153.457 124.634 154.381 124.143 154.381C124.143 154.837 123.253 154.533 123.019 154.533C123.019 155.703 121.721 154.369 121.721 155.621H121.885C121.885 156.429 123.406 156.394 123.406 157.95H121.171V158.488C121.089 158.488 119.568 159.951 120.773 159.951C120.773 159.026 123.019 160.278 123.019 159.564C123.651 159.564 123.71 160.325 124.143 160.325C124.143 161.004 127.501 160.489 127.501 161.027C126.998 161.027 127.501 162.513 127.501 162.876C129.162 162.876 127.899 161.577 127.899 160.875C129.069 160.875 129.607 162.876 130.882 162.876C130.882 162.279 135.598 163.531 135.598 163.952C136.194 163.952 136.311 163.742 136.498 163.742C136.498 162.56 138.406 163.87 138.406 163.203C140.102 163.203 141.658 162.653 143.285 162.653C143.285 162.408 146.573 161.413 146.994 161.413C146.994 160.875 150.364 160.594 150.364 160.173C151.253 160.173 154.354 158.921 154.354 158.488C154.903 158.488 155.243 157.88 155.243 157.412C156.144 157.412 156.53 156.873 156.752 156.873C156.752 156.089 159.361 155.247 160.286 155.247C160.286 154.919 160.52 155.305 160.52 154.709C161.561 154.709 161.549 152.919 162.766 152.919C162.766 152.755 163.106 152.38 163.328 152.38C163.328 151.444 164.276 152.123 164.276 151.678C165.235 151.678 164.943 150.052 166.3 150.052C166.3 149.186 167.645 149.502 167.645 148.039C167.833 148.039 168.382 147.302 168.382 147.127C169.014 147.127 169.798 144.412 170.231 144.412C170.231 142.751 169.67 142.564 169.67 140.621C169.143 140.621 169.88 137.684 167.388 137.684ZM149.03 103.203C149.03 103.846 149.545 104.069 148.304 104.069C148.304 103.928 147.649 103.531 147.52 103.531C147.52 100.371 148.761 103.203 149.03 103.203ZM141.343 105.157V105.368C142.138 105.368 141.179 104.818 142.688 104.818C142.688 105.157 144.08 105.906 143.027 105.906V106.07H141.74C141.74 106.058 139.763 105.157 141.343 105.157ZM136.85 105.742C136.85 105.309 138.534 104.9 138.534 106.07C138.207 106.07 137.271 106.444 136.686 106.444C136.686 106.35 136.229 105.742 136.85 105.742ZM134.17 107.895C134.346 107.871 134.58 108.152 134.416 108.328C134.416 108.386 134.439 108.386 134.439 108.445H134.053C134.275 108.445 134.357 108.386 134.416 108.328C134.381 108.012 134.275 107.895 134.17 107.895C134.1 107.907 134.041 107.942 134.041 108.07C133.901 108.07 134.03 107.907 134.17 107.895ZM125.956 108.246C125.956 108.983 127.864 108.328 127.864 107.696C128.917 107.696 129.268 108.772 128.589 108.772C128.589 109.393 126.518 108.772 126.518 109.849C125.874 109.849 125.863 110.071 125.067 110.071C125.067 108.761 124.681 108.246 125.956 108.246ZM126.916 135.204C126.916 135.368 127.278 136.292 126.752 136.292C126.752 137.17 127.77 138.082 125.968 138.082C125.968 137.743 125.523 137.158 126.354 137.158C126.354 136.421 125.828 135.204 126.916 135.204ZM126.19 148.741V148.894H125.231C125.231 148.566 125.067 148.917 125.067 148.578C124.388 148.578 124.669 145.582 124.669 144.95C125.09 144.95 125.629 144.939 125.629 145.325C125.699 145.325 126.951 148.741 126.19 148.741ZM128.203 150.204C128.203 149.947 128.039 150.146 128.039 149.654C127.665 149.654 125.711 142.4 126.518 142.4C126.518 141.042 126.354 139.603 126.354 138.609C127.852 138.609 126.81 140.61 127.477 140.61C127.477 141.241 127.431 141.85 128.039 141.85C128.039 142.423 127.571 147.642 128.601 147.642C128.601 148.554 130.227 150.204 128.203 150.204ZM129.888 147.653C129.888 147.162 128.764 146.94 128.764 146.027C128.355 146.027 129.045 142.072 128.425 142.072C128.425 140.797 127.419 140.446 129.548 140.446C129.548 140.703 129.724 140.493 129.724 140.996C130.04 140.996 130.192 146.729 130.847 146.729C130.847 147.443 130.625 147.653 129.888 147.653ZM131.069 121.456C131.069 121.315 130.835 120.216 130.508 120.216C130.508 119.256 129.876 115.828 128.987 115.828C128.987 115.746 128.191 115.126 128.764 115.126C128.764 114.81 130.496 114.611 130.496 114.038C131.362 114.038 128.975 112.575 130.11 112.575C130.11 112.201 131.795 112.119 131.795 111.171C132.789 111.171 132.064 112.259 132.754 112.259C132.754 113.581 135.562 110.867 135.562 111.709C135.668 111.709 136.463 112.47 136.463 111.885C138.406 111.885 139.353 110.797 141.506 110.797C141.506 111.148 143.694 110.633 143.975 110.633C143.975 108.784 145.11 110.258 144.537 110.258C144.537 110.75 143.133 112.961 142.688 112.961C142.688 113.511 140.395 114.283 140.395 114.962C140.137 114.962 138.534 116.237 138.534 116.6C137.189 116.6 136.931 118.215 135.562 118.215C135.562 119.736 133.655 119.338 133.655 120.216C132.708 120.204 131.678 121.456 131.069 121.456ZM141.343 123.445C141.343 123.106 141.144 121.07 140.605 121.07C140.605 119.162 142.466 122.696 142.466 121.456C143.542 121.456 143.987 120.964 143.987 122.544C143.8 122.544 142.466 123.62 142.466 122.708C140.968 122.696 142.337 123.445 141.343 123.445ZM135.902 151.819C135.902 151.76 134.498 150.894 136.3 150.894C136.288 150.075 138.874 151.819 135.902 151.819ZM148.468 141.16C148.468 141.803 146.385 142.517 146.385 143.71C144.899 143.71 144.63 145.5 144.139 145.5C144.139 146.425 142.29 147.232 142.29 147.829C141.109 147.829 142.021 148.589 140.383 148.589C140.383 149.256 137.236 149.28 137.236 150.216C136.721 150.216 135.785 150.38 134.989 150.38C134.989 150.227 134.229 149.128 134.041 149.128C134.041 147.606 133.644 147.092 133.644 145.664C134.322 145.664 133.082 142.915 133.082 145.875C132.509 145.875 131.959 147.466 131.959 145.337C133.059 145.337 131.21 143.722 132.52 143.722C132.52 144.599 133.491 142.634 132.754 142.634C132.754 140.937 132.52 139.896 132.52 138.305C133.199 138.305 132.064 137.17 133.644 137.17C133.644 137.872 137.411 137.521 137.411 138.305C138.768 138.305 139.693 138.468 140.945 138.468C140.945 139.592 142.208 138.468 142.29 138.468C142.29 137.532 143.18 138.094 143.8 138.094C143.8 138.831 146.608 137.965 146.608 138.632C146.9 138.632 147.497 139.931 148.293 139.931C148.304 140.06 148.948 141.16 148.468 141.16ZM149.591 126.159C149.591 125.516 148.293 126.475 148.293 125.399C147.532 125.399 148.258 123.983 147.509 123.983C147.509 122.813 149.755 124.194 149.755 123.445C150.726 123.445 151.265 124.638 151.265 125.609C150.34 125.621 150.375 126.159 149.591 126.159ZM157.29 153.831C157.29 153.071 157.419 153.071 158.238 153.071C158.238 151.737 159.361 152.029 159.361 152.743C158.472 152.743 158.168 153.831 157.29 153.831Z" fill="black"/>
<path d="M201.916 160.161V162.326C202.454 162.326 202.08 163.192 202.08 163.566H203.192C203.203 162.922 202.361 160.161 201.916 160.161Z" fill="black"/>
<path d="M193.433 116.589C193.433 116.156 191.585 115.442 191.585 114.576C190.403 114.576 189.736 113.02 189.736 115.278C188.145 115.278 189.163 114.681 189.163 113.5C189.479 113.5 189.713 111.873 188.391 111.873C188.391 112.821 188.999 113.652 187.653 113.652C187.653 114.974 187.478 114.202 186.916 114.202C186.916 113.429 187.256 113.64 187.256 112.575C188.075 112.575 188.04 111.171 187.478 111.171C187.478 110.598 187.057 111.171 186.916 111.171C186.916 111.85 184.623 113.055 184.623 113.336C183.219 113.336 185.103 114.424 184.061 114.424C184.061 115.465 183.5 113.979 183.5 113.874C183.008 113.874 183.336 112.119 183.336 111.709C182.482 111.709 181.815 110.434 181.815 109.545C180.317 109.545 181.593 110.797 180.528 110.797C180.528 110.633 179.018 108.328 179.018 109.72C178.679 109.72 177.954 113.675 178.281 113.675C178.281 114.798 177.334 113.944 177.334 113.137C175.497 113.137 176.608 116.975 175.485 116.975C175.485 117.279 175.309 118.051 175.649 118.051C175.649 118.449 174.806 122.006 175.263 122.006C175.263 122.404 176.21 122.053 176.21 121.842C177.1 121.842 176.737 123.796 176.21 123.796C176.21 124.334 175.859 123.796 175.649 123.796C175.649 122.088 174.923 122.181 174.923 124.007C174.373 124.007 174.923 125.06 174.923 125.423C173.952 125.423 173.964 130.699 173.964 131.753C175.742 131.753 173.355 134.841 174.525 134.841C174.525 135.777 173.964 135.321 173.964 136.292C173.168 136.292 173.964 137.462 173.964 137.919C174.607 137.919 175.263 134.584 175.263 139.159C175.204 139.159 174.362 140.399 174.362 139.159C173.145 139.159 173.402 140.75 173.402 141.862C174.233 141.862 173.835 144.412 174.525 144.412C174.525 145.969 173.964 146.32 173.964 148.203C174.596 148.203 174.525 148.484 174.525 149.128C173.168 149.128 174.525 150.286 174.525 150.38C175.087 150.38 174.689 152.381 175.087 152.381C175.087 153.972 176.433 150.368 176.433 151.679C177.661 151.679 177.427 152.755 176.596 152.755C176.596 154.463 179.018 153.527 179.018 154.92C179.44 154.92 179.018 156.441 179.018 156.874C178.96 156.874 178.316 159.588 179.58 159.588V157.798C180.82 157.798 181.265 159.05 182.224 159.05C182.224 160.033 181.277 158.816 181.277 159.799C180.703 159.799 181.499 160.817 181.499 160.887C182.236 160.887 181.101 161.963 181.101 161.261C179.042 161.261 181.663 162.069 181.663 162.127H182.388C182.388 161.308 181.908 160.723 183.172 160.723C183.172 159.799 182.915 159.799 183.898 159.799C183.898 160.805 186.706 158.909 186.706 158.722C187.887 158.722 186.694 160.337 188.215 160.337C188.215 159.319 188.426 159.26 189.502 159.26V156.874C189.256 156.874 188.496 156.008 189.163 156.008V155.633C189.525 155.633 188.601 153.024 188.601 156.335C187.946 156.335 188.04 156.441 188.04 155.797C188.917 155.797 186.659 153.469 188.601 153.469C188.601 155.516 189.338 153.843 189.502 153.843C189.502 152.275 190.848 155.458 190.064 155.458C190.064 156.125 190.579 157.95 191.187 157.95C191.187 155.048 191.023 152.767 191.023 150.04C190.345 150.04 192.263 147.817 190.625 147.817C189.947 147.162 191.573 147.712 191.573 146.577C192.135 146.577 192.345 141.16 191.749 141.16C191.749 139.791 192.31 138.761 192.31 137.146C191.152 137.146 190.426 136.444 191.749 136.444C191.749 134.748 193.094 134.561 193.094 132.817C192.299 132.817 193.433 130.161 193.433 129.787C194.217 129.787 193.316 125.774 193.995 125.774C193.995 124.639 195.2 120.742 193.433 120.742C193.433 120.04 194.393 120.309 194.393 119.116C194.978 119.116 194.217 118.297 194.217 118.192C193.48 118.203 194.065 116.589 193.433 116.589ZM175.087 134.982V134.818H174.912V134.432H175.087V134.28H175.251V134.116H175.473V133.894H176.035V133.367H176.433V134.292H176.199V134.666H176.035V134.83H175.871V134.994H175.087V134.982ZM176.596 150.04H176.433V150.368H176.199V151.281H175.871V149.502H176.035V149.116H176.433V149.502H176.596V150.04ZM178.445 134.83H178.281V135.532H178.117V135.742H177.72V134.654H177.556V134.28H177.72V133.894H178.117V134.116H178.281V134.28H178.445V134.83ZM186.706 152.743H185.98V152.907H185.746V153.071H185.407V152.907H185.185V152.743H185.021V151.667H185.185V151.445H185.571V151.667H186.53V151.831H186.706V152.743ZM186.928 147.654H186.706V149.654H186.144V149.491H185.98V148.192H185.746V147.267H185.98V146.952H185.746V146.729H185.582V146.179H185.98V146.402H186.32V146.554H186.542V146.717H186.717V146.94H186.94V147.654H186.928ZM187.829 140.996H187.653V141.16H187.478V141.324H187.256V142.072H187.478V142.938H187.256V143.313H187.092V143.699H186.916V143.863H186.694V144.026H186.518V144.401H186.694V145.863H186.518V146.027H185.957V145.863H185.723V145.653H185.559V144.951H185.395V144.787H185.173V144.576H185.009V144.038H185.173V143.172H185.009V142.962H184.834V142.423H185.009V141.71H185.173V141.546H185.735V141.71H185.969V141.873H186.132V142.26H186.518V141.873H186.694V141.71H186.916V141.546H187.092V140.785H187.256V140.622H187.817V140.996H187.829ZM189.338 149.28L188.215 149.116H189.338V149.28ZM189.736 149.28H189.502L189.736 149.116V149.28ZM191.023 142.95H190.848V143.161H190.625V143.324H190.45V143.488H190.286V143.699H190.064V143.863H189.888V144.026H189.724V144.401H189.49V144.565H188.929V144.026H189.151V143.863H189.327V143.699H189.49V143.313H189.327V143.149H189.151V142.763H188.379V142.599H188.203V140.622H188.379V140.235H188.601V139.533H188.379V139.159L188.203 138.995H188.04V139.37H187.817V139.533H187.256V138.831H187.092V138.445H187.256V138.281H187.478V138.059H187.817V137.895H188.203V138.27H188.379V138.82H188.94V140.434H189.163V140.598H189.338V140.973H189.163V141.511H190.462V141.675H190.637V142.061H190.859V142.224H191.035V142.95H191.023ZM191.023 135.906H190.848V136.62H190.45V135.368H190.848V135.532H191.023V135.906ZM193.433 121.608H193.27V121.83H192.872V121.608H192.708V121.07H192.872V120.894H193.094V120.742H193.258L193.422 120.894V121.608H193.433Z" fill="black"/>
<path d="M367.795 138.609C367.339 139.276 368.029 140.06 368.696 140.622C369.48 141.254 368.099 138.165 367.795 138.609Z" fill="black"/>
<path d="M175.087 95.3987C175.976 95.3987 177.158 96.5688 177.158 97.3995C177.462 97.3995 180.352 98.0548 180.352 98.3239C181.429 98.3239 181.253 98.476 181.253 97.3995C181.475 97.3995 184.845 99.3886 184.845 98.1016C185.5 98.1016 184.962 97.0251 184.284 97.0251C184.284 96.8379 181.99 94.4744 183.5 94.4744C183.5 95.4338 188.39 96.1008 188.39 95.7849C189.163 95.7849 187.829 94.6967 188.613 94.6967C188.613 93.5617 187.267 93.7841 187.267 92.8597C187.15 92.8597 185.278 91.2333 185.021 91.2333C185.021 90.7419 182.049 90.0399 182.049 89.291C181.148 89.291 181.815 88.3667 180.528 88.3667C180.528 88.9634 177.79 87.2786 179.404 87.2786C179.404 88.0742 181.651 87.6062 181.651 88.2029C183.032 88.2029 180.914 86.8456 180.914 86.0383C180.153 86.0383 179.299 85.6522 178.667 85.6522C178.667 84.8799 176.76 84.7044 176.76 85.2778C176.28 85.2778 174.338 84.4704 174.338 85.2778C172.852 85.2778 173.776 86.1202 173.776 86.9041C172.852 86.9041 171.694 86.1553 171.694 87.4424H171.869C171.869 88.8581 170.746 86.752 170.746 87.9806C170.746 87.9806 170.021 89.0453 170.021 89.0687C168.078 89.0687 169.19 91.0812 169.857 91.0812C169.857 92.1109 171.752 94.4861 172.829 94.4861C172.84 95.0945 175.087 94.6031 175.087 95.3987ZM178.117 86.3659C178.211 86.3659 178.269 86.3893 178.351 86.401C178.48 86.3776 178.632 86.3659 178.843 86.3659C178.843 86.5297 178.854 86.635 178.854 86.7403C178.901 87.3839 179.053 87.0679 178.854 86.7403C178.773 86.5999 178.609 86.4712 178.34 86.4127C178.246 86.4361 178.164 86.4595 178.117 86.4829C178.117 86.6818 178.117 86.8573 178.152 86.986C178.281 87.1615 178.445 87.3371 178.445 87.4541C178.269 87.2903 178.188 87.1498 178.152 86.986C178.024 86.7988 177.93 86.6116 178.117 86.4829C178.117 86.4361 178.117 86.4127 178.117 86.3659ZM175.637 87.9806C175.637 87.2084 177.146 88.4954 177.146 88.5305C178.89 88.5305 178 89.607 179.954 89.607C179.954 88.8113 183.02 91.0695 181.639 91.0695C181.639 91.4556 179.592 91.4439 179.217 91.4439C179.217 90.7653 177.708 91.2567 177.708 89.8176C176.725 89.8176 176.187 89.607 176.187 88.7411C176.023 88.7411 174.947 87.9806 175.637 87.9806Z" fill="black"/>
<path d="M258.664 115.5C258.664 116.881 258.43 116.203 257.541 116.203C257.541 117.759 259.132 117.829 260.735 117.829C260.735 117.267 261.858 118.133 261.858 118.215C262.221 118.215 263.707 117.841 263.707 117.665C264.409 117.665 264.549 118.215 265.216 118.215C265.216 118.753 268.446 118.379 268.972 118.379C268.972 119.888 270.833 117.01 270.833 118.215C271.055 118.215 271.055 118.157 271.055 118.379C272.342 118.379 273.547 118.051 274.752 118.051C274.752 117.993 276.32 116.975 276.496 116.975C276.496 116.437 278.028 116.764 278.344 116.764C278.344 116.086 280.029 116.366 280.029 116.062C281.398 116.062 280.965 114.225 282.112 114.225C282.112 113.511 283.013 114.997 283.013 114.225C284.768 114.225 283.399 115.383 283.399 115.852C281.737 115.852 283.984 117.314 283.013 117.314C283.013 117.759 282.486 118.238 282.112 118.238C282.112 118.917 281.281 119.865 280.602 119.865C280.602 121.433 281.737 120.017 282.112 120.017C282.112 119.338 283.668 119.982 282.673 120.941C280.556 120.941 282.135 122.954 280.766 122.954C280.766 122.673 281.34 121.877 280.766 121.877C280.766 121.281 279.643 122.275 279.643 121.503C278.251 121.503 278.192 123.281 276.507 123.281C276.507 122.322 274.764 122.427 274.764 123.281C273.524 123.281 274.319 125.13 274.998 125.13C274.998 126.242 275.454 125.446 275.735 125.446C275.735 123.808 278.765 126.101 278.765 124.592C279.959 124.592 277.268 123.504 279.666 123.504C279.666 122.474 281.632 124.042 280.053 124.042V124.908C281.129 124.908 279.105 126.873 279.105 126.92C277.666 126.92 279.327 126.312 279.327 125.68C277.771 125.68 277.806 125.446 277.806 126.92C278.648 126.92 278.812 127.458 278.368 127.458C278.368 128.324 277.268 127.669 277.081 127.669C277.081 126.429 275.735 129.869 275.735 128.547C275.361 128.547 274.998 128.383 274.998 128.757C274.401 128.757 274.811 129.997 273.313 129.997C273.313 130.571 271.967 131.343 271.967 131.624C270.423 131.624 271.265 133.414 269.721 133.414C269.721 135.017 268.598 133.508 268.598 134.49C267.978 134.49 266.913 136.035 266.913 136.667H268.258C268.258 136.187 269.159 134.806 269.159 135.965H269.721C269.721 137.217 267.135 138.106 267.135 138.504C266.644 138.504 266.574 139.803 266.574 140.294C266.936 140.294 268.598 139.615 268.598 139.428C269.171 139.428 269.662 137.966 270.283 137.966C270.283 137.556 272.26 135.801 272.751 135.801C272.751 134.736 273.875 134.888 273.875 134.175C275.033 134.175 274.038 135.134 274.038 135.579C273.547 135.579 274.202 136.433 274.202 136.655C275.209 136.655 273.348 137.954 273.301 137.954C273.301 139.381 274.354 137.954 274.588 137.954C274.588 137.135 275.712 137.661 275.712 137.193C276.636 137.193 275.794 135.239 277.397 135.239C277.397 134.584 278.742 134.046 278.742 133.777C279.046 133.777 280.766 130.898 280.766 132.864C281.152 132.864 280.602 133.812 280.602 134.338C281.89 134.338 281.89 134.175 281.89 132.864C281.304 132.864 281.983 131.086 282.837 131.086C282.837 130.524 283.844 129.448 284.358 129.448C284.358 129.108 285.645 127.856 285.645 128.746C287.049 128.746 284.358 126.909 285.645 126.909C285.645 126.242 286.207 125.972 286.207 127.283C286.336 127.283 287.155 127.763 287.155 127.283C287.997 127.283 286.137 125.282 287.716 125.282C287.716 124.908 290.606 122.416 291.086 122.416C291.086 121.468 291.823 123.223 291.823 123.281C293.052 123.281 291.87 124.206 292.607 124.206C292.607 124.838 295.404 124.311 295.404 123.667C296.106 123.667 294.456 122.416 295.181 122.416C295.181 121.901 296.819 120.789 297.264 120.789C297.264 120.309 298.539 120.789 298.949 120.789C298.949 120.216 300.634 119.865 300.634 119.327C301.78 119.327 301.453 118.075 301.757 118.075C301.757 117.057 303.266 117.536 303.266 116.998C303.664 116.998 304.928 115.536 304.951 115.536C304.951 114.518 303.266 114.857 303.266 115.161C302.237 115.161 301.195 117.232 301.195 115.325C300.365 115.325 301.979 114.892 301.979 114.787C303.442 114.787 302.915 113.535 303.43 113.535C303.43 112.774 305.115 112.458 305.115 111.745C305.934 111.745 304.238 110.294 305.115 110.294C305.115 109.124 303.805 110.294 303.664 110.294C303.664 111.078 303.196 110.668 302.88 110.668C302.88 109.873 301.582 110.914 301.582 109.58C301.078 109.58 301.5 108.117 302.541 108.117C302.541 108.012 303.255 107.205 303.266 107.205C303.266 106.269 304.355 105.965 302.716 105.965C302.716 105.578 302.155 105.029 302.155 104.876C300.54 104.876 301.207 106.421 301.207 107.965C300.54 107.965 300.985 107.427 299.908 107.427V106.889C298.762 106.889 300.973 103.964 299.183 103.964C299.183 102.817 297.44 104.888 297.44 105.052C297.135 105.052 296.55 107.626 296.55 105.052C297.1 105.052 297.112 103.519 297.112 103.262C294.854 103.262 296.913 104.677 295.766 104.677C295.766 105.461 293.918 105.099 293.918 105.59C292.923 105.59 293.227 106.678 292.631 106.678C292.631 104.947 290.56 105.227 290.56 106.351C289.659 106.351 291.414 107.439 291.507 107.439C291.507 108.246 290.946 108.047 290.946 108.515C289.764 108.515 290.127 109.053 289.822 109.053C289.822 109.662 287.049 109.053 286.78 109.053C286.78 108.457 286.78 107.977 286.219 107.977C286.219 106.748 285.903 106.351 284.698 106.351C284.698 107.123 280.989 104.947 280.989 106.514C280.602 106.514 280.029 106.994 280.029 106.14C279.269 106.14 277.619 106.713 277.619 105.602C276.016 105.602 277.104 106.69 275.15 106.69C275.15 104.502 274.191 105.602 273.067 105.602C273.067 106.526 269.37 105.485 269.37 105.976C267.217 105.976 265.965 105.602 263.695 105.602C263.695 107.158 262.747 106.351 261.449 106.351C261.449 105.695 260.279 106.351 260.162 106.351C260.162 108.082 261.683 106.678 261.683 107.439C262.49 107.439 263.368 107.369 263.368 108.141C263.098 108.141 261.858 108.281 261.858 108.527C260.571 108.527 261.32 109.065 260.162 109.065C260.162 107.825 257.19 109.802 257.19 109.931C255.645 109.931 255.505 110.259 255.505 111.768H257.751C257.751 112.002 258.43 112.482 258.652 112.482C258.652 113.231 256.523 113.184 255.844 113.184C255.844 113.394 255.505 113.722 255.282 113.722C255.282 115.185 255.563 115.348 256.967 115.348C256.979 115.852 258.313 115.5 258.664 115.5ZM270.844 135.532H270.505C270.505 135.04 268.504 134.128 270.844 134.128C270.844 134.011 271.769 133.367 271.967 133.367C271.967 134.327 270.844 134.479 270.844 135.532ZM272.529 133.04C272.529 132.583 273.489 131.753 273.489 132.665C273.184 132.665 272.962 133.04 272.529 133.04ZM295.591 106.28C296.609 106.28 296.609 106.608 295.591 106.608V106.28ZM294.093 121.281C294.093 121.117 295.708 119.666 295.041 119.666C295.041 117.724 296.316 119.128 297.124 119.128C297.124 121.175 294.877 120.438 294.877 121.994C294.596 121.994 294.444 122.158 293.929 122.158C293.918 122.041 293.602 121.281 294.093 121.281ZM286.617 111.16C286.617 111.019 288.301 109.65 288.301 111.16C287.95 111.16 287.377 112.025 286.394 112.025C286.394 111.838 285.552 111.16 286.617 111.16ZM282.685 121.608C282.685 120.953 283.586 122.369 282.463 122.369C282.463 122.158 282.112 121.608 282.685 121.608ZM284.943 124.545C284.943 123.235 286.394 124.545 285.669 124.545C285.669 126.569 282.311 125.82 282.311 127.248C282.744 127.248 283.844 128.5 282.135 128.5C282.135 127.587 281.012 129.553 281.012 129.799C279.163 129.799 280.053 131.425 278.379 131.425C278.379 131.226 277.794 131.051 277.642 131.051C277.642 129.284 277.806 129.962 279.105 129.962C279.105 128.242 278.964 127.412 280.626 127.412C280.626 126.628 282.135 127.564 282.135 125.411C283.844 125.399 283.457 124.545 284.943 124.545ZM283.984 120.742C283.984 120.356 282.72 119.83 284.382 119.83C284.37 120.192 285.095 120.742 283.984 120.742Z" fill="black"/>
<path d="M317.319 130.325C317.319 130.325 317.143 131.144 317.319 131.202C317.845 131.355 317.787 130.325 317.319 130.325Z" fill="black"/>
<path d="M412.374 104.444C411.918 104.011 412.105 103.227 411.812 102.654C411.438 101.929 411.531 101.203 410.525 101.028C409.168 100.794 409.601 101.542 409.402 101.566C407.893 101.812 407.577 100.794 406.208 101.028C405.014 101.226 405.962 102.607 405.482 102.818C405.026 103.005 405.049 102.946 404.687 103.192C404.558 103.297 403.072 103.356 403.002 103.192C402.651 102.326 403.06 102.876 402.44 102.28C401.843 101.706 401.095 101.671 400.428 101.191C399.772 100.712 399.796 100.688 398.684 100.489C397.128 100.209 397.959 100.911 397.561 101.566C397.467 101.73 397.151 101.472 396.999 101.566C396.637 101.776 398.134 102.326 397.561 102.443C397.386 102.467 395.221 102.186 395.876 102.818C395.993 102.935 397.116 102.97 396.824 103.508C396.531 104.07 396.227 103.286 395.876 104.432C395.747 104.854 394.554 104.631 395.537 105.357C396.332 105.93 395.455 109.124 396.098 109.312C396.999 109.569 396.8 109.51 397.222 110.236C397.947 111.453 395.911 111.149 396.66 111.698C396.742 111.757 397.198 112.904 397.222 112.939C397.268 113.044 395.595 116.039 397.397 115.115C397.502 115.045 397.304 114.823 397.397 114.741C397.725 114.425 398.333 115.583 398.357 115.665C398.86 117.268 398.637 119.994 397.959 121.281C397.666 121.855 397.222 123.224 397.783 123.785C398.169 124.136 398.322 125.704 397.959 126.172C396.648 127.857 398.93 128.079 399.094 126.874C399.351 124.99 398.696 124.253 399.258 122.159C399.375 121.714 399.562 126.16 400.205 124.709C400.346 124.382 400.51 123.387 400.767 123.247C401.609 122.779 401.001 121.855 400.591 121.468C399.562 120.486 402.159 120.439 400.978 119.304C400.393 118.719 401.188 118.988 399.808 118.754C399.585 118.707 399.468 117.502 400.194 118.216C400.954 118.953 400.638 118.04 400.755 117.666C400.942 117.081 402.042 117.958 401.317 115.665C401.235 115.431 401.235 115.185 401.317 114.951C401.422 114.635 402.51 113.793 402.838 114.413C403.446 115.583 403.084 114.787 404.523 115.279C404.687 115.337 404.02 116.18 403.961 116.203C402.815 116.461 403.364 116.308 403.002 117.128C402.534 118.181 401.949 118.824 402.265 120.755C402.3 120.954 403.025 120.275 403.224 120.755C403.587 121.644 402.885 121.082 404.125 121.293C405.564 121.55 403.786 121.913 403.563 122.007C402.171 122.58 402.955 122.814 402.838 124.557C402.815 124.873 402.148 126.137 401.879 126.336C401.212 126.816 401.68 128.594 401.879 129.261C402.077 129.905 401.551 129.893 401.539 129.963C401.282 131.929 402.534 131.309 400.591 131.753C400.498 131.777 399.679 133.403 400.194 133.59C401.703 134.175 400.346 134.187 399.632 134.304C398.93 134.421 399.433 135.778 398.907 136.305C398.181 136.995 398.006 135.111 398.123 134.678C398.134 134.608 398.322 134.749 398.357 134.678C398.509 134.164 399.094 131.32 397.959 131.753C397.374 131.964 397.14 133.333 396.836 133.918C396.59 134.398 395.689 134.117 395.537 134.304C395.197 134.713 395.818 135.018 395.314 135.38C394.484 135.965 395.045 137.603 394.589 138.306C394.18 138.937 394.144 137.229 394.027 137.171C392.822 136.504 393.208 138.013 392.729 138.633C392.436 139.019 392.764 139.745 392.506 140.096C392.378 140.271 391.184 140.224 391.044 140.096C390.751 139.815 390.236 140.014 389.921 139.71C389.265 139.078 388.868 138.048 388.177 137.393C387.826 137.054 387.428 136.82 387.054 136.469C386.539 135.977 386.094 135.743 385.767 135.006C385.732 134.936 384.936 134.55 384.807 134.456C384.375 134.164 384.269 133.309 383.906 133.052C383.427 132.701 382.877 132.245 382.397 131.964C382.315 131.929 381.917 130.922 381.824 130.887C381.683 130.829 380.724 130.396 380.712 130.337C380.42 129.694 380.467 129.507 379.987 129.05C379.296 128.383 379.039 127.436 378.08 127.05C377.635 126.862 377.366 125.821 377.12 125.423C377.073 125.33 376.687 125.353 376.559 125.259C376.137 124.955 375.47 123.259 375.096 123.095C374.02 122.65 373.914 122.018 373.189 121.305C372.604 120.743 371.726 120.544 371.176 120.006C370.743 119.585 370.895 119.046 370.229 118.766C369.386 118.415 369.304 118.637 368.719 118.064C368.193 117.56 367.666 118.309 367.42 117.303C367.163 116.203 367.315 116.449 366.695 115.84C366.321 115.478 365.607 114.904 365.174 114.589C364.846 114.343 364.039 113.933 363.828 113.664C363.583 113.348 362.436 112.775 361.98 112.588C361.652 112.447 361.664 110.727 360.856 111.5C360.143 112.19 359.277 111.406 358.774 111.172C357.335 110.482 358.61 112.272 357.65 111.886C357.463 111.804 357.522 110.926 357.487 110.634C357.393 110.037 355.568 110.201 355.24 109.873C354.901 109.557 354.702 108.376 354.281 108.259C354.07 108.2 353.169 108.446 353.157 108.469C353.122 108.586 353.134 110.552 352.432 110.107C351.835 109.709 350.934 110.025 350.525 110.423C350.443 110.505 349.846 111.476 349.799 111.511C348.22 112.166 349.94 113.922 349.238 114.6C348.746 115.08 348.664 115.021 347.951 115.302C347.506 115.478 347.646 117.923 347.717 118.227C347.986 119.327 347.869 120.497 347.951 121.855C347.974 122.299 349.296 122.674 348.676 123.259C348.138 123.785 348.98 124.241 348.676 125.107C348.489 125.622 346.289 122.744 346.254 122.72C345.798 122.287 345.306 121.597 344.909 121.094C344.651 120.766 343.949 120.333 343.622 120.006C342.826 119.245 342.311 118.731 341.375 118.064C340.977 117.783 340.404 117.888 340.029 117.525C339.21 116.741 338.029 116.297 337.233 115.525C336.929 115.232 336.192 115.302 335.934 114.975C335.139 113.957 333.512 114.015 332.015 113.676C331.266 113.524 331.125 112.599 329.768 113.348C329.616 113.442 329.113 113.067 328.996 112.962C328.797 112.833 328.972 112.096 328.82 112.038C327.592 111.628 326.515 112.096 326.024 112.588C325.532 113.056 325.521 112.599 325.451 112.588C324.807 112.471 322.947 112.892 322.479 112.962C321.379 113.126 319.869 112.763 319.284 113.348C318.512 114.085 319.249 114.132 318.723 113.138C318.407 112.541 318.477 114.039 317.763 113.348C317.681 113.266 316.523 112.904 316.476 112.962C316.371 113.114 316.535 113.337 316.476 113.512C316.453 113.582 315.517 114.273 315.353 114.425C315.131 114.647 315.154 115.103 314.955 115.291C314.078 116.133 314.347 116.543 312.872 116.964C312.814 116.975 312.381 117.642 312.311 117.666C311.153 117.923 311.34 118.075 310.614 118.59C310.404 118.742 309.526 120.439 309.327 120.216C309.316 120.205 309.386 119.409 308.941 119.83C308.508 120.252 308.555 121.445 307.982 121.995C307.572 122.404 308.028 123.621 307.642 123.996C306.777 124.838 308.356 125.493 307.42 126.172C306.917 126.523 307.326 126.593 307.081 127.038C306.777 127.6 306.613 126.137 306.297 126.71C306.168 126.933 306.262 127.518 306.133 127.798C305.443 129.343 307.9 128.547 307.256 129.425C306.952 129.846 306.554 128.395 305.969 129.811C305.946 129.881 305.747 129.741 305.735 129.811C305.712 130.068 305.969 133.391 305.969 133.391C305.805 133.578 305.314 133.169 305.174 133.391C304.858 133.918 305.361 134.632 304.846 135.018C303.992 135.626 305.209 135.556 303.886 135.93C303.465 136.047 303.571 138.294 304.05 138.645C304.132 138.703 305.677 139.92 305.408 140.107C305.255 140.213 304.975 139.979 304.858 140.107C304.612 140.33 305.337 140.915 304.062 140.657C303.009 140.435 304.53 141.547 304.296 142.12C303.805 143.325 304.565 143.138 305.197 143.746C305.747 144.273 305.489 144.296 305.759 145.15C305.782 145.221 306.496 145.712 306.542 145.911C306.952 147.467 306.601 146.765 307.666 147.537C308.403 148.064 308.309 149.386 308.567 150.416C308.613 150.591 309.55 151.036 309.69 151.164C310.24 151.703 309.737 152.194 310.872 151.866C311.644 151.644 311.527 152.346 311.761 152.416C313.387 152.884 311.34 152.99 311.983 153.271C312.498 153.493 313.071 153.528 313.446 153.505C313.89 153.446 316.757 154.464 316.816 154.581C317.155 155.353 316.769 154.967 317.6 155.283C317.693 155.318 317.752 157.518 318.337 156.593C318.489 156.324 318.278 155.962 318.337 155.669C318.383 155.412 319.577 155.845 318.887 154.955C318.688 154.698 318.828 153.247 319.05 153.118C319.273 153.001 320.618 154.639 320.56 154.745C320.256 155.318 319.928 154.686 320.56 155.494C321.402 156.582 321.73 155.552 322.642 155.821C322.713 155.845 322.572 156.02 322.642 156.032C323.356 156.242 324.035 156.395 324.725 156.196C325.883 155.868 326.703 156.453 327.522 155.657C327.767 155.423 328.785 155.447 329.206 155.271C329.616 155.107 330.271 154.569 330.669 154.405C331.523 154.054 332.319 153.867 333.313 153.645C333.629 153.575 335.127 152.487 335.384 152.241C335.934 151.726 336.297 151.808 337.069 151.48C337.233 151.422 338.883 150.322 338.918 150.24C339.292 149.386 339.503 149.831 340.041 149.316C340.591 148.789 340.614 148.602 340.837 147.689C340.848 147.619 341.785 147.432 341.948 147.315C342.311 147.046 342.463 146.133 343.072 145.689C343.774 145.185 343.142 145.291 344.195 144.987C344.394 144.94 344.534 143.536 344.593 143.196C344.698 142.658 346.289 142.74 346.605 142.436C346.898 142.155 347.05 141.196 347.178 140.809C347.389 140.154 346.64 140.248 347.178 139.733C347.881 139.054 348.009 137.954 347.728 136.855C347.67 136.562 347.611 136.223 347.728 135.942C347.845 135.685 348.313 136.328 348.7 136.106C348.875 136.001 348.957 133.473 349.097 132.853C349.331 131.8 349.928 132.397 350.209 132.151C350.396 131.987 349.916 131.145 350.548 131.449C351.309 131.812 350.431 133.824 351.11 134.327C351.788 134.807 350.969 134.702 350.934 134.866C350.595 136.726 352.374 135.497 352.455 136.644C352.584 138.306 352.491 139.16 352.058 140.107C351.742 140.821 351.59 141.231 351.332 142.108C350.841 143.793 350.735 144.998 350.934 147.151C350.946 147.198 351.309 147.455 351.332 147.526C351.484 148.368 351.086 148.52 351.671 148.93C351.87 149.07 351.917 149.14 352.058 149.316C353.005 150.544 352.315 152.51 352.455 154.405C352.455 154.464 352.795 154.71 352.795 154.733C352.842 154.885 351.905 158.501 351.894 158.512C351.356 159.214 351.601 159.741 352.058 160.197C352.338 160.466 352.97 162.666 353.005 162.689C354.082 162.994 353.497 161.906 353.567 161.285C353.614 160.946 355.135 160.618 355.427 160.911C356.246 161.695 356.609 161.25 357.335 160.911C357.826 160.677 358.668 162.444 359.745 161.987C360.236 161.789 360.658 162.877 360.868 163.064C361.313 163.497 360.681 165.076 361.032 165.942C361.067 166.036 363.477 165.942 362.155 165.404C361.558 165.147 363.208 164.632 362.553 163.988C362.494 163.941 362.19 164.058 362.377 163.614C362.705 162.877 364.764 163.52 364.799 163.45C364.975 163.099 364.718 162.385 364.975 162.151C365.607 161.531 365.08 160.993 364.975 160.525C364.905 160.279 365.42 158.079 365.537 157.986C366.122 157.412 366.168 160.232 367.28 158.372C367.385 158.185 367.432 158.091 367.456 158.033C367.432 158.126 367.432 158.255 367.619 158.372C367.9 158.559 369.468 158.817 369.527 158.524C369.632 158.009 369.316 154.745 369.129 154.569C368.602 154.066 370.03 152.896 369.129 152.03C368.93 151.843 368.824 150.497 368.743 150.24C368.544 149.62 369.129 149.257 368.743 148.403C368.345 147.526 368.918 147.607 368.743 146.613C368.731 146.554 368.415 146.472 368.403 146.449C368.005 144.682 368.122 144.53 366.496 144.062C366.309 144.004 366.402 141.289 366.321 141.032C366.18 140.564 366.625 140.283 366.496 139.557C366.239 138.2 366.718 138.387 367.994 138.107C368.368 138.025 367.584 136.539 368.731 136.855C369.07 136.96 368.86 138.692 370.416 137.568C371.703 136.632 371.188 138.692 371.539 139.031C371.878 139.347 372.358 140.774 373.048 140.107C373.762 139.405 374.593 140.353 374.897 140.657C375.295 141.032 375.19 141.289 375.459 141.734C375.95 142.565 376.91 142.588 377.541 143.196C377.963 143.606 378.08 144.203 378.501 144.6C378.77 144.858 378.688 145.981 378.899 146.449C379.144 147.011 379.215 147.292 379.624 147.689C380.853 148.871 380.385 146.274 382.257 147.151C382.479 147.245 382.116 147.666 382.257 147.841C382.374 147.982 382.655 147.783 382.818 147.841C383.064 147.935 383.345 149.421 383.719 149.678C383.977 149.866 384.164 149.842 384.281 150.217C384.644 151.363 385.568 150.252 385.24 151.293C385.158 151.515 384.094 151.235 383.942 151.457C383.637 151.89 383.883 153.013 384.117 153.294C384.304 153.54 386.855 153.902 385.802 154.92C384.936 155.751 385.685 155.306 386.188 155.798C386.89 156.476 387.136 156.5 388.423 156.71C388.563 156.734 388.435 158.489 389.546 157.412C390.096 156.874 389.324 156.441 390.506 156.71C391.512 156.933 394.063 156.617 394.425 157.085C394.46 157.132 395.151 157.74 395.151 157.787C395.432 159.308 395.01 158.232 395.888 158.875C396.742 159.483 396.882 159.483 397.959 159.039C398.988 158.618 398.977 157.892 399.644 157.249C400.463 156.441 399.445 158.103 400.428 157.635C401.516 157.108 401.563 157.682 401.89 156.336C402.089 155.517 402.042 154.639 402.276 153.856C402.393 153.516 403.68 153.75 403.961 153.469C404.394 153.048 404.382 151.761 404.687 151.457C405.318 150.848 405.225 149.07 405.482 148.04C405.623 147.397 406.383 147.397 405.822 146.426C405.26 145.49 406.512 145.501 406.044 144.577C405.716 143.922 405.506 142.494 405.084 142.085C404.769 141.769 404.757 140.95 405.084 140.622C405.962 139.78 407.015 141.465 406.208 142.249C406.126 142.33 405.646 142.646 406.032 142.951C407.6 144.179 407.284 139.347 407.495 138.844C407.6 138.61 408.677 136.375 408.454 136.082C407.776 135.158 407.331 138.083 407.331 138.083C407.074 138.165 406.957 138.189 406.886 138.2C406.957 138.2 407.003 138.235 406.769 138.469C406.664 138.575 405.424 138.423 405.822 137.557C406.278 136.55 406.149 136.527 406.383 135.006C406.43 134.772 407.413 134.374 406.769 133.754C406.196 133.204 407.319 133.45 407.729 133.052C408.536 132.268 408.372 133.508 408.63 133.754C408.677 133.812 409.379 133.719 409.414 133.59C409.601 132.982 409.156 131.39 408.454 131.601C408.443 131.601 408.162 132.35 407.893 131.976C407.881 131.964 408.045 129.624 408.068 129.6C408.407 128.933 408.138 127.752 408.454 127.061C408.805 126.301 408.536 126.429 408.454 125.809C408.244 124.195 409.004 123.458 408.63 121.866C408.548 121.562 408.548 121.246 408.63 120.942C408.641 120.907 409.191 118.929 409.016 118.777C408.782 118.567 408.349 118.766 408.068 118.613C407.928 118.543 408.29 117.49 409.18 117.853C409.519 117.993 408.911 118.906 410.139 118.403C411.099 117.993 409.964 117.362 410.139 116.39C410.35 115.255 411.999 116.648 411.087 114.6C411.028 114.483 411.028 114.343 411.087 114.226C411.567 113.149 410.139 113.325 410.701 112.599C411.531 111.535 410.209 112.049 409.964 111.734C409.425 111.043 409.133 111.055 410.525 110.809C410.736 110.774 410.701 109.592 411.251 109.885C411.847 110.213 411.344 110.177 411.812 109.721C412.362 109.195 412.035 108.095 411.812 107.556C411.812 107.556 412.011 105.907 412.035 105.766C412.093 105.298 413.544 105.567 412.374 104.444ZM399.234 121.995C399.234 120.591 398.988 120.954 398.918 121.878C398.895 122.451 398.895 122.826 398.895 122.369C398.895 122.194 398.907 122.03 398.918 121.878C398.953 121.117 399.024 120.006 399.234 119.819C400.112 119.046 399.234 122.358 399.234 121.995ZM402.101 111.324C401.013 110.891 402.428 107.837 402.428 110.248C402.428 110.248 402.686 111.57 402.101 111.324ZM309.082 134.983C310.38 133.742 310.263 136.445 309.304 136.445C309.304 136.445 308.344 134.983 309.082 134.983ZM305.138 137.533C304.963 137.51 304.284 136.586 306.098 136.445C306.238 136.433 305.934 135.907 305.934 135.907C304.834 135.907 306.765 134.608 305.934 134.444C305.77 134.409 306.11 133.286 306.273 133.742C306.753 135.123 309.035 132.619 308.918 134.128C308.906 134.245 307.958 135.755 307.233 135.755C305.501 134.082 307.876 137.849 305.138 137.533ZM308.344 141.699C308.04 141.675 306.566 139.16 308.344 139.16C308.344 139.16 309 140.189 309.304 140.084C310.579 139.593 310.298 141.862 308.344 141.699ZM310.029 129.951C311.667 129.156 311.726 128.536 311.936 128.173C312.568 127.073 311.375 131.742 310.825 131.203C310.252 130.642 309.21 130.337 310.029 129.951ZM310.989 135.907C310.135 135.018 311.117 133.719 311.387 133.906C312.018 134.374 312.346 135.907 310.989 135.907ZM312.276 147.49C312.1 147.444 311.714 146.952 311.714 146.952C311.714 146.332 310.392 147.947 310.415 146.402C310.439 145.338 314.405 147.256 313.961 147.479C313.551 147.689 312.767 147.654 312.276 147.49ZM325.579 154.148C324.257 150.954 328.481 152.44 329.335 151.82C329.382 151.796 325.767 154.616 325.579 154.148ZM331.02 136.82C330.657 137.089 330.564 138.738 330.061 138.832C328.844 139.019 327.299 141.137 326.913 140.997C325.135 140.353 324.058 143.922 322.022 142.939C321.894 142.869 321.355 141.921 320.911 141.851C318.161 141.418 319.121 142.015 318.664 140.774C318.512 140.341 317.412 137.954 317.143 137.685C316.862 137.405 317.131 136.012 316.979 135.743C316.699 135.252 314.569 135.345 314.897 134.655C315.482 133.391 314.347 127.822 315.844 127.237C315.997 127.178 317.131 125.4 317.131 125.4C317.131 124.791 317.857 125.763 317.295 126.16C316.886 126.453 316.827 129.951 317.681 129.951C318.571 128.36 319.179 126.862 319.542 125.084C319.577 124.908 320.279 125.025 320.326 125.236C320.56 126.055 323.766 126.312 324.093 126.488C324.678 126.792 323.473 127.939 324.655 128.173C324.901 128.208 325.954 128.875 326.504 128.5C327.276 127.951 327.159 127.131 328.025 127.623C328.54 127.927 329.733 127.354 330.271 127.623C332.483 128.781 333.103 135.263 331.02 136.82ZM349.051 132.28V131.742C349.811 131.742 349.051 131.847 349.051 132.28ZM351.847 142.085C351.847 142.085 351.648 142.026 351.636 141.862C351.461 140.634 352.689 142.085 351.847 142.085ZM361.792 165.041C361.792 165.041 361.547 163.918 361.956 164.281C362.331 164.597 362.05 164.421 361.792 165.041ZM373.575 127.248C373.575 127.248 371.41 125.657 373.177 125.786C373.329 125.798 374.792 127.248 373.575 127.248ZM375.424 126.862C375.424 126.862 373.75 124.616 374.523 124.85C374.792 124.943 376.874 126.862 375.424 126.862ZM382.397 147.116C381.777 147.034 381.789 145.794 381.999 145.49C382.233 145.139 384.339 147.338 382.397 147.116ZM388.563 146.028C388.563 146.028 387.452 146.309 387.44 146.192C387.323 145.642 386.41 143.559 387.265 143.863C387.592 143.98 387.627 144.612 388.165 145.104C388.739 145.63 389.792 146.028 388.563 146.028ZM398.111 139.16C398.052 139.16 397.397 137.639 397.935 137.381C399.854 136.445 399.971 139.206 398.111 139.16ZM405.634 129.577C405.225 129.881 405.33 132.549 405.237 132.83C404.956 133.649 406.442 133.66 406.021 134.304C405.763 134.69 405.084 136.082 404.113 136.082C404.113 136.082 403.54 133.894 403.95 133.59C404.757 132.993 404.944 120.684 407.705 123.469C407.939 123.692 406.442 128.98 405.634 129.577Z" fill="black"/>
<path d="M263.157 139.37C262.572 139.37 263.379 139.756 263.379 139.908C264.163 139.908 263.941 139.873 263.941 139.147C264.643 139.159 263.157 137.79 263.157 139.37Z" fill="black"/>
<path d="M113.051 144.249C111.647 144.249 113.636 140.786 112.665 140.786C112.665 139.768 112.501 139.253 112.501 138.293C112.279 138.293 110.652 135.754 112.501 135.754C112.501 136.246 113.46 136.924 113.46 136.293C114.139 136.293 113.46 134.643 113.46 134.292C113.624 134.292 113.215 130.653 112.337 130.653C112.337 130.325 112.115 130.711 112.115 130.115C110.711 130.115 111.378 128.875 111.378 127.95C113.004 127.95 110.652 124.159 109.868 124.159C109.868 123.445 108.967 122.369 108.183 122.369C108.183 122.088 106.697 120.204 106.498 120.204C106.498 119.795 104.907 118.204 104.416 118.204C104.416 116.425 102.731 116.671 102.731 116.039C101.467 116.039 101.596 114.413 100.321 114.413C100.321 116.121 99.8058 114.951 99.3612 114.951C99.3612 114.471 98.1326 114.413 97.6763 114.413C97.6763 112.412 95.6053 112.763 95.6053 113.488C94.8565 113.488 94.9967 112.564 93.7448 112.564C93.7448 113.711 89.989 112.4 89.989 112.938C88.6669 112.938 88.4212 114.401 87.4032 114.401C87.4032 112.271 84.7589 115.653 84.7589 114.19C85.0514 114.19 85.0514 113.488 84.7589 113.488C84.7589 112.739 85.3673 112.564 84.1973 112.564C84.1973 114.132 82.8517 112.821 82.8517 113.488C81.2955 113.488 80.5701 114.565 79.4819 114.565C79.4819 115.29 77.7971 116.46 77.7971 115.489C76.1005 115.489 77.8556 117.818 77.2354 117.818V118.04C75.5272 118.04 77.2588 119.83 75.5506 119.83C75.5506 120.321 74.2635 120.731 74.2635 120.906C73.854 120.906 73.1402 123.106 73.1402 123.621C72.3329 123.621 72.1574 126.874 71.7947 126.874C71.7947 127.377 71.2331 128.102 71.2331 128.5C70.6246 128.5 69.7822 131.402 69.2089 130.665C69.2089 129.694 68.8695 130.126 68.4249 130.126C68.4249 131.554 66.9624 132.607 66.9624 134.14C66.8454 134.14 65.336 141.874 66.4007 141.874C66.4007 140.727 67.1379 142.225 67.1379 142.798C67.8048 142.798 66.7401 143.664 66.7401 142.962C65.5817 142.962 66.5762 144.261 66.9624 144.261C66.9624 144.893 68.2611 143.407 68.2611 144.425C68.893 144.425 68.9983 143.102 68.9983 145.337C69.361 145.337 69.7822 145.513 69.7822 145.127C70.9873 145.127 69.829 146.051 69.2206 146.051C69.2206 146.706 68.2611 146.437 67.875 146.437C67.875 148.239 67.8984 147.513 66.9741 147.513C66.9741 147.373 64.5988 145.887 64.3414 145.887C64.3414 144.928 62.4342 144.822 62.4342 144.425C61.5216 144.425 61.6854 143.184 60.7494 143.184C60.7494 142.95 58.8188 141.558 58.5029 141.558C58.5029 141.102 56.0809 139.183 55.5309 139.183C55.5309 138.75 53.3429 137.404 52.8866 137.404C52.8866 136.796 49.6924 135.52 49.6924 135.017C49.119 135.017 45.9833 132.923 45.9833 132.525C45.5387 132.525 42.6252 130.325 42.6252 130.15H42.2391C42.2391 129.647 40.2149 128.524 39.7703 128.524C39.7703 127.634 38.3077 127.681 38.3077 127.272C38.0503 127.272 35.2773 125.154 35.2773 124.885C34.7157 124.885 31.3459 122.17 31.3459 122.018C31.0651 122.018 30.7492 121.316 30.445 121.316C30.445 119.479 32.8553 120.895 32.8553 120.017C33.1946 120.017 32.8436 119.853 33.2531 119.853C33.2531 119.245 35.3592 118.391 33.2531 118.391C33.2531 119.14 31.2055 118.601 30.7843 118.601C30.7843 118.332 30.913 118.063 30.6088 118.063C30.6088 116.729 33.9785 117.537 33.9785 116.764C35.4762 116.764 36.3888 115.512 38.0737 115.512C38.3311 115.7 37.8514 116.975 37.5121 116.975C37.5121 118.087 39.8054 116.975 40.5425 116.975C40.5425 116.449 43.9123 116.32 43.9123 115.676C45.8546 115.676 46.4981 113.348 48.0192 113.348C48.0192 112.541 50.8273 113.137 50.8273 112.587C51.7166 112.587 50.8273 111.885 51.3889 111.885C51.3889 111.441 53.4599 110.938 53.4599 110.797C55.1799 110.797 55.6479 109.007 57.2275 109.007C57.2275 108.445 58.7135 108.469 59.3102 108.469C59.3102 107.591 61.5567 105.38 62.4459 105.38C62.4459 105.169 66.623 102.455 67.1613 102.455C67.1613 102.221 67.7229 101.963 67.7229 101.367C67.8633 101.367 69.8056 99.7402 69.8056 99.5764C69.9109 99.5764 70.9288 97.482 70.9288 97.2479C71.5841 97.2479 70.8001 95.3993 71.2682 95.3993C71.2682 94.2877 70.3789 95.3057 70.3789 93.6208C71.1161 93.6208 70.1566 92.1465 70.1566 91.9944C69.946 91.9944 66.7283 89.5724 66.7283 89.4437C65.5583 89.4437 65.1488 87.829 64.7159 87.829C64.7159 85.7463 62.247 86.3664 62.247 85.2783C62.1183 85.2783 60.4803 84.038 60.1643 84.038C60.1643 83.5115 56.8882 82.5755 56.0692 82.5755C56.0692 81.8617 41.0223 81.6511 40.6829 81.6511C40.6829 82.5989 35.4645 81.1831 35.4645 82.0372C32.7851 82.0372 30.3163 82.5755 27.5432 82.5755C27.5432 82.9733 25.519 83.3711 25.519 82.0372H21.7515C21.7515 82.6691 17.2585 82.4351 17.2585 82.9616H14.6141C14.6141 83.0903 13.0931 84.155 13.0931 83.2775C11.1741 83.2775 11.7826 84.7401 11.2326 84.7401C11.2326 86.1441 10.5072 85.6527 10.5072 87.2791C10.4253 87.2791 9.16162 88.648 9.16162 88.7417C7.80435 88.7417 7.24273 93.6208 8.26068 93.6208C8.26068 92.9304 9.93385 94.159 9.16162 94.159C9.16162 95.3408 9.94555 94.6036 9.94555 96.4874C9.48923 96.4874 9.95726 99.9508 10.5072 99.9508V100.501C9.71154 100.501 10.2849 102.654 10.2849 103.367C9.43073 103.367 11.1741 105.532 10.2849 105.532C10.2849 106.199 10.3083 108.246 9.72324 108.246C9.72324 111.008 8.99781 106.351 8.99781 109.171C8.8457 109.171 8.59999 109.37 8.59999 109.545C7.26613 109.545 7.95646 108.083 6.73961 108.083C6.73961 109.03 5.79186 109.264 5.79186 110.095C5.58125 110.095 3.55706 111.172 4.66861 111.172C4.66861 112.587 2.81992 112.248 2.81992 112.798C2.2817 112.798 0.947841 114.202 0.912739 114.202C0.912739 115.852 0.175605 114.963 0.175605 115.817C-0.304117 115.817 0.351113 117.478 0.351113 117.818C0.49152 117.818 2.43381 120.041 2.43381 120.204C3.53366 120.204 4.03678 121.831 4.84412 121.831C4.84412 122.404 7.41824 123.785 8.27238 123.785C8.27238 124.194 9.39563 124.768 9.39563 124.861C9.85195 124.861 9.73494 126.078 9.73494 126.488C10.086 126.488 9.73494 127.95 9.73494 128.488C10.554 128.488 9.54774 129.939 10.1328 129.939C10.1328 131.016 11.2326 129.565 10.6944 129.565C10.6944 127.74 12.7771 131.87 12.7771 127.4H12.941C12.941 126.733 14.228 127.95 14.228 128.488C14.9183 128.488 15.0119 129.471 15.0119 130.115C14.3918 130.115 14.7896 134.69 14.7896 135.743C15.714 135.743 13.5026 137.79 13.5026 136.609C13.0229 136.609 13.1048 134.9 13.1048 134.444C12.8239 134.444 12.3793 134.584 12.3793 134.292C10.8933 134.292 10.8582 134.175 10.8582 132.665C10.4136 132.665 9.73494 133.543 9.73494 133.906C9.05631 133.906 9.73494 139.873 9.73494 140.786C10.086 140.786 10.5189 138.972 10.5189 139.92C10.6125 139.92 11.6421 138.878 11.6421 139.534C11.7709 139.534 12.1102 142.412 11.8177 142.412C11.8177 143.804 10.1328 141.02 10.1328 144.249C10.0158 144.249 9.73494 144.659 9.73494 144.787C8.62339 144.787 10.6944 147.373 10.6944 145.501C12.5197 145.501 10.32 148.754 11.0805 148.754V149.128C11.5602 149.128 11.6421 153.516 11.6421 154.159C12.2389 154.159 10.5891 156.16 11.6421 156.16C11.6421 158.442 13.1048 157.295 13.1048 156.16C13.8887 156.16 12.941 155.306 12.941 155.236C11.9464 155.236 12.7771 153.726 12.7771 153.294C13.3856 153.294 13.9004 153.329 13.9004 152.755C15.1524 152.755 13.9238 157.085 16.1469 157.085V156.546C15.4917 156.546 16.8255 153.457 15.9246 153.457C15.9246 152.568 16.3224 153.141 16.3224 152.755C17.7733 152.755 18.0073 152.662 18.0073 154.007C18.7444 154.007 18.3934 156.067 18.3934 156.722C17.6095 156.722 19.1188 159.413 19.1188 159.436C19.9847 159.436 18.955 160.899 19.5167 160.899C19.5167 161.87 18.7912 161.285 18.7912 161.812C17.5627 161.812 18.2179 163.064 16.884 163.064C16.884 164.362 17.9371 163.438 18.7912 163.438C18.7912 163.812 18.604 165.392 18.955 165.392C18.955 166.398 19.5167 167.018 18.0073 167.018C18.0073 169.522 20.0783 165.872 20.0783 167.931C19.2592 167.931 20.8037 168.89 20.8037 169.019C21.377 169.019 21.2951 168.855 21.7632 168.855C21.7632 166.656 22.8864 168.06 22.8864 166.691C23.6469 166.691 22.8396 165.228 22.3248 165.228C22.3248 164.432 21.9387 163.157 21.9387 162.35C22.9332 162.35 20.8856 159.799 22.161 159.799C22.161 160.314 23.0619 159.354 23.0619 159.963C23.6586 159.963 23.2842 162.49 23.2842 163.04C24.3373 163.04 24.7468 163.321 24.7468 164.292C25.3786 164.292 24.6298 165.38 25.8701 165.38C25.8701 164.713 24.5128 160.887 25.5307 160.887C25.5307 161.18 25.3669 161.975 25.7062 161.975C25.7062 163.099 27.3092 160.723 26.2679 160.723C26.2679 159.319 25.5424 159.916 25.5424 159.05C26.3732 159.05 25.8818 155.318 25.8818 154.546C25.2967 154.546 25.6243 151.141 25.8818 151.141C25.8818 150.45 25.5424 150.38 25.5424 149.678C26.0456 149.678 25.7881 147.291 25.3201 147.291C25.3201 146.636 24.9808 147.256 24.9808 146.753C24.3022 146.753 24.9808 144.343 24.9808 143.723C24.2437 143.723 24.9808 141.499 24.9808 141.02C24.0214 141.02 24.583 139.311 24.583 138.469C23.8459 138.469 24.7117 136.304 24.9808 136.304C24.9808 133.426 26.654 135.556 28.1283 135.556C28.1283 134.97 31.7203 135.883 31.7203 136.468C33.6275 136.468 31.3108 137.006 30.7726 137.006C30.7726 137.603 32.8436 138.539 32.8436 139.019C34.0721 139.019 34.2944 139.943 34.9146 139.943C34.9146 139.99 37.4536 141.733 37.7227 141.733C37.7227 142.447 39.2555 142.435 39.9692 142.435C39.9692 142.681 39.8639 142.81 40.133 142.81C40.133 143.992 41.4786 143.699 41.4786 144.272C42.4614 144.272 42.3561 145.676 43.7251 145.676C43.7251 146.086 47.0948 147.829 47.0948 148.216C48.4872 148.216 47.9139 149.14 48.5457 149.14C48.5457 149.222 51.974 151.761 51.974 150.766C52.7813 150.766 51.4357 149.982 51.7517 149.678C54.5247 149.678 52.3133 149.116 52.3133 148.602C51.3421 148.602 51.0496 147.303 50.6284 147.303C50.6284 145.84 52.7111 147.794 52.7111 147.841C54.1035 147.841 52.208 146.601 51.974 146.601C51.974 146.086 49.6924 145.349 52.1495 145.349C52.1495 144.577 53.2727 146.203 53.2727 144.811C54.7002 144.811 55.1331 145.302 55.1331 143.898H55.3554C55.3554 142.073 57.8827 144.811 57.0403 144.811C57.0403 145.712 57.3796 145.454 57.3796 146.063C56.8531 146.063 55.1331 147.268 55.1331 147.689C53.9865 147.689 55.7532 149.152 55.917 149.152C55.917 149.631 55.0863 152.568 56.0926 152.568C56.0926 153.609 54.8055 152.287 54.8055 152.018C51.6229 152.018 54.5715 153.001 54.5715 153.317C55.6362 153.317 55.2384 154.733 55.6947 154.733C55.6947 155.341 57.6019 155.154 57.6019 156.184C58.8188 156.184 57.6019 157.108 57.2158 157.108C57.2158 157.705 57.9412 157.751 57.9412 158.524C59.0177 158.524 58.5146 159.986 60.0122 159.986C60.0122 158.535 60.4218 159.6 60.7494 159.6C60.7494 160.56 62.0949 158.957 62.0949 159.6C62.4694 159.6 62.0598 159.811 62.4342 159.811C62.4342 161.016 64.5052 160.571 64.5052 161.437C65.3711 161.437 65.7221 162.9 66.4124 162.9C66.4124 163.578 67.9335 162.677 67.1496 162.677C67.1496 161.215 68.8344 163.274 68.8344 161.601C70.414 161.601 67.8165 160.197 68.8344 160.197C68.8344 159.986 68.7642 159.986 68.9983 159.986C68.9983 159.343 67.9803 157.108 68.8344 157.108C68.8344 156.429 69.5833 157.272 69.7822 157.272C69.7822 158.734 71.6309 157.868 71.6309 159.822C72.8126 159.822 71.5958 161.285 72.7541 161.285C72.7541 161.964 74.1816 161.063 74.2752 161.063C74.2752 160.127 75.0825 160.524 75.7963 160.524C75.7963 157.985 79.166 162.666 79.166 160.735C79.6574 160.735 80.2308 159.986 79.5053 159.986C79.5053 159.109 78.2066 158.512 78.2066 157.658C77.1769 157.658 78.6044 156.09 78.6044 156.031C80.5935 156.031 81.8923 156.897 83.9984 156.897C83.9984 157.506 89.0764 157.447 89.2753 157.447C89.2753 157.822 90.3986 158.547 90.3986 157.447C91.6388 157.447 91.5335 156.745 93.0429 156.745C93.0429 157.33 95.2894 156.254 95.2894 156.195C96.6934 156.195 96.5179 155.271 97.5359 155.271C97.5359 157.436 98.6591 154.37 98.6591 155.271C100.812 155.271 100.285 153.492 102.193 153.492C102.193 151.562 104.1 152.252 104.1 151.48C104.392 151.48 105.551 150.497 105.551 150.24C106.803 150.24 106.066 151.316 107.633 151.316C107.633 150.158 108.417 149.924 108.417 149.152C107.821 149.152 108.417 148.742 108.417 148.613C109.611 148.613 108.277 149.865 108.979 149.865C108.979 150.684 110.442 148.929 110.442 148.227C111.413 148.227 110.933 147.045 111.389 146.601C112.396 146.601 112.045 145.899 113.074 145.899C113.074 146.893 113.811 147.022 113.811 146.226C114.385 146.226 113.811 145.431 113.811 145.15C114.993 145.115 113.051 142.693 113.051 144.249ZM69.2206 131.273C69.2089 131.332 69.1972 131.332 69.1972 131.414H68.8111C69.0334 131.414 69.1504 131.343 69.2206 131.273ZM68.6472 130.875C68.694 130.875 68.694 130.852 68.7291 130.852C68.8578 130.536 69.01 130.793 68.7291 130.852C68.6823 130.969 68.6472 131.133 68.6472 131.425V130.875ZM68.0856 138.609C68.0856 138.598 67.1145 137.533 67.8516 137.533C67.8516 136.632 68.893 136.983 69.3727 136.983C69.3844 138.644 69.6652 138.609 68.0856 138.609ZM69.0685 140.224C68.9164 140.119 68.8111 140.318 68.8111 141.148C68.6004 141.148 68.5887 141.628 68.6004 142.073C68.6706 142.33 68.7525 142.599 68.8111 142.833C69.1387 143.126 68.7993 144.261 68.7993 143.477C68.9749 143.477 68.9164 143.196 68.8111 142.833C68.7642 142.786 68.7057 142.763 68.6355 142.763C68.6355 142.634 68.6121 142.354 68.6004 142.073C68.4717 141.581 68.4249 141.148 68.8111 141.148C68.8227 140.318 68.9164 140.13 69.0685 140.224ZM13.6898 140.446C13.6898 139.581 13.292 137.685 14.2514 137.685C14.2514 138.738 15.597 142.073 13.9121 142.073C13.9121 141.956 13.1633 140.446 13.6898 140.446ZM13.526 145.325C13.526 145.641 12.9293 145.864 12.5665 145.864C12.5665 145.466 12.391 145.817 12.391 145.489C11.6538 145.489 13.3271 144.401 12.2155 144.401C12.2272 142.576 14.0642 145.325 13.526 145.325ZM14.6375 150.907C13.5728 150.907 14.8949 151.995 13.9121 151.995C13.9121 151.889 13.2335 150.907 13.9121 150.907C13.9121 150.462 14.4737 150.93 14.4737 149.83C15.7725 149.83 14.6375 153.13 14.6375 150.907ZM17.2819 133.192C17.2819 132.946 16.4862 131.577 17.0478 131.577C17.0478 130.513 18.5221 133.192 17.2819 133.192ZM19.9145 140.996C19.9145 136.948 20.0081 138.995 20.6399 138.995C20.6399 139.908 21.26 142.786 20.2421 142.786C20.2538 142.646 19.0954 140.996 19.9145 140.996ZM20.1602 157.833C20.1134 157.974 20.09 158.278 20.09 158.863C20.09 158.184 20.1134 157.892 20.1602 157.833C20.3006 157.389 20.5931 158.711 20.6516 158.711C20.6516 158.828 20.7452 158.898 20.8037 158.98C20.4527 158.465 20.2538 157.716 20.1602 157.833ZM20.8154 161.25C20.909 160.817 20.9441 160.443 21.1196 160.209C20.9441 160.571 21.2717 161.25 20.8154 161.25ZM21.4121 159.378C21.4121 159.401 21.377 159.39 21.377 159.413C21.2366 159.413 21.1079 159.331 20.9909 159.214C21.1196 159.284 21.2717 159.354 21.4121 159.378C21.4589 159.156 21.7749 159.156 21.7749 159.413C22.044 159.413 21.7632 159.448 21.4121 159.378ZM22.161 156.862C22.161 156.617 21.377 155.248 21.377 156.546C20.558 156.546 21.2015 154.627 21.2015 153.996C20.1251 153.996 21.9387 152.322 21.9387 152.907C22.4769 152.907 21.9855 155.786 22.7226 155.786C22.7226 156.172 22.5705 156.862 22.161 156.862ZM22.7226 159.413C22.7226 159.214 21.9972 158.711 22.8981 158.711C22.8864 158.922 23.4831 159.413 22.7226 159.413ZM22.3248 134.994C22.3248 135.942 22.9215 136.07 21.377 136.07C21.377 135.953 20.6633 135.368 21.2015 135.368C21.2015 134.573 21.4121 134.292 22.1493 134.292C22.1493 133.555 23.6118 133.508 23.6118 134.128C24.4894 134.128 22.9683 134.994 22.3248 134.994ZM24.7468 154.908C25.1563 154.908 25.0861 155.236 24.583 155.236C24.583 154.487 23.6352 154.932 23.6352 153.609C24.5362 153.609 24.7468 153.902 24.7468 154.908ZM32.1064 116.039C32.1064 115.431 34.3412 114.588 34.3412 115.501C33.218 115.489 33.1478 116.039 32.1064 116.039ZM40.1213 115.278C40.1213 115.817 39.1502 115.349 38.6119 115.594C38.6704 115.63 38.6587 115.665 38.4364 115.665C38.4832 115.618 38.5534 115.63 38.6119 115.594C38.4364 115.489 37.594 115.278 38.8343 115.278C38.8343 114.459 42.2508 113.874 39.1619 113.874C39.1619 114.097 35.4645 115.068 35.4645 115.501C33.101 115.501 36.3654 113.172 36.3654 114.413C36.9037 114.413 39.1736 113.652 39.1736 113.324C39.8639 113.324 40.6946 112.576 40.6946 113.863C41.4318 113.863 43.1635 113.102 43.1635 113.863C41.9466 113.863 41.268 115.278 40.1213 115.278ZM41.4786 106.07C41.4786 106.409 41.0574 106.445 40.6946 106.445C40.6946 105.836 40.3319 105.368 41.4786 105.368C41.4786 104.959 43.1635 103.695 43.1635 105.158C42.9996 105.158 41.7009 106.07 41.4786 106.07ZM28.9005 113.863C28.9005 114.623 26.3381 114.729 25.5307 114.729C25.5307 114.342 26.0924 113.348 26.0924 112.938C27.3794 112.938 27.5198 112.026 25.8701 112.026C25.8701 112.693 24.4075 113.629 24.4075 112.248C25.3318 112.248 25.2382 110.949 26.654 110.949C26.654 111.523 27.941 110.867 27.941 111.698C27.239 111.698 27.3794 112.084 27.3794 112.786C28.1634 112.786 30.6556 113.863 28.9005 113.863ZM26.8178 109.311C25.9988 109.311 25.9403 109.522 25.3084 109.522C25.3084 109.276 26.3381 107.521 25.7062 107.521C25.7062 106.679 26.0807 101.729 25.7062 101.729C25.7062 100.29 25.8701 98.535 25.8701 96.8618C26.1275 96.8618 27.5549 95.9375 27.5549 95.6099C28.959 95.6099 28.9356 94.3111 30.0237 94.3111C30.0237 94.2526 32.9957 93.574 32.9957 94.3111C33.2297 94.3111 33.7796 95.095 33.7796 94.4749C35.055 94.4749 36.5994 93.9367 37.8748 93.9367C37.8748 94.2526 37.9333 94.159 38.2609 94.159C38.2609 93.457 45.1642 93.2347 45.9482 93.2347C45.9482 93.6559 48.534 93.2581 48.534 94.159C49.1307 94.159 48.2415 95.2355 47.8086 95.2355C47.8086 95.7737 45.1525 98.1021 44.6026 98.1021C44.6026 98.2893 41.4201 100.817 41.2446 100.817C41.2446 100.98 38.2375 102.981 38.0386 102.981C38.0386 103.379 37.3132 103.543 37.3132 103.894C36.4239 103.894 32.8202 105.766 32.8202 106.445C32.2702 106.445 33.3701 107.907 32.0947 107.907C32.0947 108.071 30.8662 108.445 30.5737 108.445C30.5737 108.129 30.211 107.685 29.8365 107.685C29.8482 108.305 26.8178 108.972 26.8178 109.311ZM30.9715 115.817C32.9138 115.817 30.6088 116.741 29.8482 116.741C29.8482 115.653 30.9715 116.46 30.9715 115.817ZM37.711 138.293C37.711 138.036 36.5877 137.989 36.5877 137.158C36.8335 137.147 38.9045 138.293 37.711 138.293ZM42.204 141.535C42.204 141.02 38.6002 140.013 38.6002 138.609C39.7118 138.609 40.6244 139.686 42.0285 139.686C42.0402 140.013 43.0933 141.535 42.204 141.535ZM41.4786 138.995C41.4786 138.984 40.2851 137.533 41.2563 137.533C41.2563 135.368 41.9817 137.685 42.6018 137.685C42.6018 138.68 42.9411 138.995 41.4786 138.995ZM48.9435 146.191C48.9435 145.279 48.6978 145.864 49.5051 145.864C49.5051 146.332 49.4349 146.191 48.9435 146.191ZM50.8039 149.362C50.6284 149.28 50.4529 149.187 50.254 149.081C50.3476 149.093 50.4529 149.105 50.6167 149.105C50.6167 149.175 50.722 149.28 50.8039 149.362C51.1081 149.514 51.3538 149.655 51.3538 149.83C51.1783 149.737 50.9677 149.549 50.8039 149.362ZM51.1666 148.859C51.2368 148.871 51.2719 148.894 51.3538 148.894C51.3538 148.906 51.3538 148.906 51.3538 148.918C51.3655 149.877 52.0676 149.046 51.3538 148.918C51.307 148.906 51.2602 148.894 51.19 148.894C51.19 148.882 51.1783 148.882 51.1666 148.859C50.9092 148.836 50.6986 148.801 50.5348 148.707C50.2891 148.765 50.0902 148.871 50.0551 148.964C49.669 148.73 49.3296 148.461 49.3296 148.028C49.8211 148.028 50.02 148.461 50.5348 148.707C50.8273 148.648 51.1315 148.66 51.1666 148.859ZM56.6308 148.578C55.6713 148.578 57.2041 146.472 57.2041 148.028C57.8008 148.028 57.5668 147.654 58.7135 147.654C58.7135 148.824 59.2634 149.28 57.5902 149.28C57.5902 148.894 56.6308 149.421 56.6308 148.578ZM58.3157 155.622C58.3157 154.768 57.1924 155.166 57.1924 153.832C56.2096 153.832 57.1924 153.071 57.1924 153.609C57.9061 153.609 59.0411 155.014 59.0411 155.622H58.3157ZM59.4389 146.191C59.4389 146.098 57.0052 145.489 57.9178 145.489C57.9178 143.992 58.8773 144.694 58.8773 145.489C59.8016 145.489 60.3282 146.191 59.4389 146.191ZM98.2262 135.743C97.8284 135.743 97.6178 131.729 97.103 131.729C97.103 130.77 95.7808 132.806 96.7753 132.806C96.7753 133.227 96.6816 138.82 96.3774 138.82C96.3774 139.51 95.4181 139.873 95.4181 140.762C94.2012 140.762 94.5873 141.839 93.897 141.839C93.897 142.541 92.7738 142.915 92.7738 143.301C92.4227 143.301 89.7901 143.43 89.7901 143.851C89.7433 143.851 88.2807 144.963 88.2807 144.226C86.9235 144.226 85.7066 144.389 84.1739 144.389C84.1739 143.875 82.6645 143.617 82.6645 142.061C82.5826 142.061 82.255 136.433 83.4016 136.433C83.4016 134.994 84.7472 134.257 84.7472 132.806C85.2386 132.806 84.9227 130.864 85.7066 130.864C85.7066 130.384 86.0459 130.899 86.0459 130.477C86.6427 130.477 84.5249 127.599 87.0054 127.599C87.0054 127.049 88.6552 126.148 89.2402 126.148C89.2402 125.119 91.1006 125.142 91.1006 126.312C92.2121 126.312 91.358 129.775 92.2238 129.775C92.2238 128.664 93.897 129.483 93.897 127.938C94.4352 127.938 96.7636 127.821 96.7636 128.477C99.6303 128.477 98.9048 132.478 99.7356 132.478C99.7356 132.829 99.6537 135.345 100.133 135.345C100.133 136.585 98.2262 136.796 98.2262 135.743Z" fill="black"/>
<path d="M16.8838 155.447H17.2816C17.2816 152.802 16.8838 152.802 16.8838 155.447Z" fill="black"/>
<path d="M96.3774 131.039C97.1496 131.039 96.7752 129.541 96.7752 128.862C95.7456 128.862 96.3774 129.88 96.3774 131.039Z" fill="black"/>
<path d="M253.773 150.368C254.92 150.368 252.767 149.502 252.65 149.502C252.65 148.975 253.469 146.741 252.65 146.741C252.65 145.173 251.187 145.021 251.187 144.248C251.117 144.248 249.573 139.533 250.064 139.533C250.064 138.597 249.678 138.445 249.678 137.158C249.385 137.158 249.116 136.596 249.116 136.292C248.414 136.292 248.718 134.712 248.718 134.291C249.479 134.291 249.116 133.823 249.116 133.577C248.04 133.577 247.268 132.454 247.268 134.443C246.25 134.443 247.595 135.824 247.595 135.906C248.379 135.906 247.993 137.462 247.993 138.071C248.789 138.071 248.379 140.118 248.379 140.773C247.782 140.773 247.817 141.592 247.817 142.236C247.63 142.236 247.268 142.634 247.268 142.236C246.694 142.236 246.706 139.51 246.706 139.147C245.278 139.147 244.6 134.818 244.459 134.818V134.28C245.232 134.28 245.583 135.461 245.583 133.73C244.565 133.73 246.764 132.653 244.459 132.653C244.459 132.583 242.061 130.489 243.664 130.489C243.664 129.857 243.605 128.698 242.938 128.698C242.938 127.692 241.417 130.652 241.417 128.16C240.645 128.16 240.844 122.696 239.346 122.696C239.346 123.234 238.995 122.696 238.785 122.696C238.785 120.847 238.843 121.608 239.908 121.608C239.908 121.315 239.218 119.279 239.182 119.279C239.182 116.705 239.522 118.191 240.13 118.191C240.13 118.964 240.692 119.794 240.692 120.356C239.346 120.356 241.031 122.017 241.031 122.134C242.178 122.134 241.476 120.356 242.154 120.356C242.154 119.97 241.944 119.432 241.593 119.432C241.593 119.151 242.084 118.355 242.377 118.355C242.377 117.197 243.5 116.612 243.5 117.478C244.705 117.478 244.787 121.76 244.787 122.895C245.583 122.895 244.67 124.685 245.173 124.685C245.173 126.896 245.91 126.885 245.91 128.687C246.542 128.687 246.039 130.641 247.431 130.641C247.431 129.751 246.706 127.774 247.817 127.774C247.817 127.294 248.157 124.989 248.157 126.311C249.105 126.311 247.7 127.774 248.941 127.774C248.941 127.341 248.847 125.223 249.268 125.223C249.268 125.528 249.42 126.85 249.666 126.85C249.666 128.628 250.392 127.809 250.392 129.389C249.748 129.389 250.052 131.085 250.052 131.565C249.374 131.565 250.052 133.191 250.052 133.566C250.146 133.566 252.158 134.432 250.778 134.432C250.778 134.993 252.404 136.28 250.778 136.28V136.819C251.784 136.819 249.935 138.281 251.164 138.281C251.164 137.918 252.849 137.918 252.849 136.608C251.959 136.608 252.287 134.97 252.287 134.116C251.632 134.116 252.053 132.209 252.053 131.729C252.977 131.729 251.491 129.459 251.491 129.237C250.684 129.237 251.316 127.025 251.316 126.475C251.971 126.475 251.421 124.849 251.14 124.849C251.14 124.299 252.041 121.596 251.48 121.596C251.48 121.081 251.14 121.233 251.14 120.52C250.368 120.52 251.702 119.432 250.918 119.432C250.918 118.87 251.14 119.315 251.14 118.893C252.346 118.893 250.392 115.266 251.14 115.266C251.14 114.178 251.316 113.499 251.316 112.563C250.368 112.563 251.784 110.609 249.631 110.609C249.631 110.071 249.818 107.907 249.069 107.907C249.069 106.444 247.548 109.275 247.548 107.696C246.413 107.696 247.466 108.234 246.647 108.234C246.647 107.193 243.453 108.351 243.453 108.772H243.278C243.278 109.369 242.236 108.772 241.932 108.772C241.932 110.095 240.587 108.983 239.861 108.983C239.861 108.667 238.375 107.368 239.299 107.368C239.299 106.97 241.745 106.994 242.108 106.994C242.108 106.912 243.781 104.993 242.892 104.993C242.892 103.917 242.26 103.519 241.207 103.519C241.207 102.583 238.82 103.519 238.012 103.519C238.012 104.712 237.275 104.443 236.491 104.443C236.491 106.327 237.439 104.853 237.439 106.07C236.725 106.07 238.153 107.368 237.439 107.368C237.439 109.907 237.018 109.311 235.204 109.311C235.204 110.165 234.643 108.854 234.643 108.445C233.508 108.445 233.414 107.684 232.01 107.684C232.01 108.924 233.601 109.299 234.806 109.299C234.806 111.077 233.519 109.147 233.519 110.071C232.665 110.071 233.145 112.013 232.408 112.013C232.408 112.505 232.806 112.774 233.133 112.774C233.133 113.932 233.379 114.014 234.654 114.014C234.654 113.371 235.766 112.353 235.766 113.64C234.736 113.64 235.941 115.781 235.941 116.19C236.468 116.19 236.129 119.654 236.889 119.654C236.889 120.695 238.41 119.502 238.41 120.742C238.071 120.742 238.41 124.123 238.41 124.533C239.03 124.533 239.136 130.594 239.136 130.863C238.282 130.863 238.738 134.174 238.738 134.982C238.141 134.982 238.714 137.368 237.615 137.368C237.615 137.708 237.053 138.351 237.053 138.445C235.731 138.445 236.562 136.28 235.93 136.28C235.93 135.602 235.134 135.894 234.806 135.894C234.806 137.111 233.648 136.058 233.519 136.058C233.519 134.631 232.408 136.198 232.408 134.432C233.87 134.432 232.443 133.355 232.408 133.355C232.408 132.852 230.723 132.162 230.723 132.115C229.635 132.115 230.056 130.325 229.377 130.325C229.377 129.88 228.64 128.172 228.09 128.172C228.09 127.423 227.388 127.411 226.581 127.411C226.581 126.873 224.709 124.322 224.159 124.322C224.159 122.427 223.036 123.854 223.036 122.158C222.416 122.158 221.737 120.999 221.737 120.379C221.48 120.379 221.351 120.485 221.351 120.215C220.66 120.215 220.38 118.051 219.666 118.051C219.666 117.384 219.572 116.05 218.882 116.05C218.882 115.325 215.91 114.049 215.91 113.511C215.547 113.511 214.951 110.422 213.09 110.422C213.09 108.503 211.967 110.258 211.417 110.258C211.417 111.124 210.259 110.106 209.732 110.106C209.732 109.463 208.855 109.884 208.609 109.884C208.609 111.229 208.047 110.457 208.047 109.884C207.404 109.884 206.971 109.72 206.14 109.72C206.14 112.341 205.871 110.644 205.579 110.644C205.579 110.059 202.443 109.849 202.443 111.346C202.045 111.346 200.922 112.587 200.922 111.721C200.021 111.721 200.185 114.669 200.185 115.676C199.6 115.676 199.798 116.612 199.798 117.138C200.313 117.138 200.185 121.479 200.185 122.006C199.541 122.006 200.185 123.316 200.185 123.632C200.664 123.632 199.623 127.47 199.623 127.961C199.038 127.961 199.623 129.225 199.623 129.588C198.979 129.588 199.389 132.033 199.389 132.513C200.068 132.513 199.787 135.344 199.787 135.918C200.103 135.918 200.173 136.269 200.173 136.62C199.12 136.62 200.711 142.084 199.787 142.084C199.787 143.078 199.249 149.116 200.173 149.116C200.173 149.83 200.734 148.531 200.734 148.203C201.238 148.203 200.933 148.367 201.296 148.367C201.296 149.28 202.396 146.741 201.635 146.741C201.635 145.173 201.671 145.652 202.419 145.652C202.419 147.606 203.882 146.635 203.882 147.279C205.017 147.279 204.186 149.28 205.005 149.28C205.005 147.723 205.789 149.888 205.789 150.04C205.438 150.04 205.953 152.041 205.953 152.743C206.655 152.743 205.789 153.901 205.789 153.995C205.157 153.995 205.426 155.247 206.351 155.247C206.351 156.066 204.841 155.27 204.841 156.335C203.543 156.335 203.461 158.886 204.28 158.886C204.28 158.687 204.256 158.722 204.455 158.722C204.455 157.856 205.567 159.167 205.567 159.424C206.222 159.424 205.789 160.933 205.789 161.589C204.642 161.589 206.515 163.355 206.515 162.349C206.702 162.349 207.638 160.992 207.638 161.799C207.93 161.799 208.199 165.883 208.199 166.292C207.767 166.292 207.638 166.175 207.638 165.754C206.561 165.754 206.515 165.976 206.515 167.217C205.859 167.217 206.901 168.199 206.901 168.457C208.293 168.457 206.058 166.667 207.462 166.667C207.462 167.591 208.983 165.04 208.983 167.532C211.44 167.532 210.832 167.556 210.832 165.578C210.2 165.578 210.668 163.578 210.668 163.414C212.33 163.414 210.797 165.578 211.791 165.578C211.791 166.222 212.915 164.83 212.915 164.502C211.932 164.502 212.295 163.414 213.476 163.414C213.476 162.314 214.81 164.28 214.939 164.28C214.939 165.649 216.062 165.695 216.062 166.117C216.717 166.117 217.022 168.621 217.022 166.117C216.179 166.117 217.092 161.951 216.062 161.951C216.062 161.67 216.167 157.774 215.723 157.774C215.723 157.622 214.787 155.071 214.763 155.071C214.763 154.334 215.501 154.44 215.501 154.896C218.028 154.896 216.062 153.117 216.062 152.357C216.6 152.357 216.624 151.386 216.624 150.894C215.922 150.894 216.834 148.73 216.285 148.73C216.285 148.402 216.05 148.777 216.05 148.18C216.589 148.18 216.285 144.12 216.285 143.687C215.571 143.687 215.465 143.851 214.763 143.851V142.599C215.255 142.599 216.285 142.131 216.285 141.51C214.787 141.51 215.384 140.598 216.05 140.598C216.05 139.592 214.588 138.269 216.448 138.269C216.448 138.831 217.735 138.737 217.735 140.212C218.344 140.212 218.683 140.598 219.643 140.598C219.643 141.452 220.637 143.687 221.327 143.687C221.327 144.471 222.451 144.471 222.451 143.476C223.083 143.476 223.574 143.687 223.574 144.225C224.498 144.225 225.13 146.015 225.657 146.015C225.657 147.267 226.78 147.466 226.78 147.794C227.365 147.794 227.786 149.479 228.465 149.479C228.465 150.251 231.051 152.275 231.051 151.105C231.554 151.105 230.711 150.59 230.711 150.028C233.87 150.028 230.489 148.25 230.489 147.805C229.916 147.805 230.875 147.115 230.875 147.642C231.495 147.642 232.677 149.104 232.782 149.104C232.782 150.064 234.537 148.882 233.683 148.882C233.683 148.285 231.378 147.267 233.122 147.267C233.122 146.869 233.028 146.799 233.356 146.565C234.104 146.565 235.707 149.268 235.766 149.268C235.766 150.181 235.04 149.935 235.04 150.73C235.649 150.73 235.216 153.55 235.216 153.972C234.455 153.972 233.239 151.807 233.695 151.807C233.695 151.362 232.408 150.496 232.408 151.643C233.227 151.643 232.42 153.819 232.969 153.819C232.969 154.603 234.257 154.697 234.257 155.984C234.888 155.984 237.849 157.025 237.849 157.61C240.493 157.61 238.492 158.862 240.259 158.862C240.259 159.014 241.218 159.939 241.382 159.939C241.382 160.629 242.903 160.243 242.903 159.775C243.991 159.775 242.927 160.863 244.015 160.863C244.015 159.635 245.536 161.834 245.536 161.238C245.77 161.238 245.302 159.412 245.302 159.026C244.495 159.026 244.038 157.61 244.565 157.61C244.565 156.277 245.863 156.124 245.863 156.686C246.998 156.686 244.658 158.312 246.987 158.312C246.987 157.891 250.017 159.014 250.345 159.014C250.345 160.442 250.953 160.313 252.427 160.313C252.427 159.939 252.825 159.073 252.825 158.699C255.165 158.699 254.51 155.376 254.51 153.445C254.37 153.445 253.773 150.73 253.773 150.368ZM247.279 108.234C247.478 108.234 247.338 108.258 247.197 108.328C247.221 108.293 247.221 108.281 247.279 108.234ZM238.071 116.74H237.498C237.498 115.43 238.071 114.248 238.071 116.74ZM238.457 119.291C238.457 119.549 237.65 119.666 237.334 119.666C237.334 119.151 236.14 118.577 237.673 118.577C237.673 116.155 239.124 119.291 238.457 119.291ZM202.244 140.235C202.244 140.095 202.045 139.907 201.905 139.907C201.905 138.562 201.004 135.742 202.642 135.742C202.642 136.456 203.648 140.235 202.244 140.235ZM202.08 134.982C202.08 134.841 201.635 134.116 201.518 134.116C201.518 133.718 201.413 131.577 201.916 131.577C201.916 130.383 203.039 130.781 203.039 131.577C202.244 131.577 203.917 134.982 202.08 134.982ZM210.341 140.235C210.902 140.235 209.791 139.159 210.891 139.159C210.891 139.732 211.183 140.621 211.85 140.621C211.85 141.241 212.271 143.5 211.464 143.5C211.464 142.95 211.288 142.458 211.288 141.861C210.27 141.861 210.341 141.23 210.341 140.235ZM212.412 152.907C212.412 152.579 211.288 151.28 211.288 150.742C210.844 150.742 210.797 147.279 211.288 147.279C211.288 146.6 212.412 147.419 212.412 147.817C213.09 147.817 211.92 150.204 212.751 150.204V152.532C213.207 152.532 213.055 152.907 212.412 152.907ZM219.701 140.235C219.701 140.071 218.707 139.533 219.701 139.533C219.701 139.767 220.508 140.235 219.701 140.235ZM222.111 143.324C222.111 143.184 221.456 142.622 221.948 142.622C221.948 141.698 223.34 143.324 222.111 143.324ZM230.208 147.653C230.208 147.478 229.05 146.741 229.974 146.741C229.974 147.372 230.629 146.682 230.208 147.653ZM232.279 147.115V147.489C232.279 147.138 230.384 146.565 231.881 146.565C231.881 147.01 232.981 147.115 232.279 147.115ZM233.005 146.741C233.005 146.425 232.057 146.296 232.057 145.489C231.764 145.489 231.647 144.95 232.279 144.95C232.279 145.606 233.18 145.711 233.18 146.413C233.578 146.413 233.203 146.354 233.005 146.741ZM234.14 137.684C234.14 136.842 233.683 137.146 234.526 137.146C234.526 137.673 234.678 137.684 234.14 137.684ZM242.552 134.116C242.552 133.847 241.523 131.951 242.552 131.951C242.552 131.635 242.599 131.741 242.95 131.741C242.95 132.887 245.173 134.116 242.552 134.116Z" fill="black"/>
<path d="M18.0071 158.711C17.188 158.711 17.6093 160.49 17.6093 160.876C19.3644 160.864 18.0071 159.858 18.0071 158.711Z" fill="black"/>
<path d="M121.3 156.324C122.025 156.324 120.691 155.786 120.34 155.786C120.34 157.015 119.779 156.207 119.779 157.249C120.797 157.237 121.3 157.26 121.3 156.324Z" fill="black"/>
<path d="M12.2272 131.741C13.327 131.741 11.6655 128.863 11.6655 130.115C10.8933 130.115 11.4432 132.092 11.4432 132.502C12.0751 132.49 12.2272 132.361 12.2272 131.741Z" fill="black"/>
<path d="M266.351 136.609C266.351 136.106 265.626 136.784 265.626 136.281C264.573 136.281 263.707 137.217 263.707 138.282C264.643 138.282 263.496 137.685 264.655 137.685C264.666 139.089 267.521 136.609 266.351 136.609Z" fill="black"/>
<path d="M119.615 146.578H120.013V146.192C120.247 146.192 119.615 141.5 119.615 140.774C118.796 140.774 118.433 144.94 118.655 144.94C118.667 146.063 119.615 146.274 119.615 146.578Z" fill="black"/>
<path d="M120.352 153.609C119.369 153.609 119.229 153.679 119.229 152.743C117.567 152.743 119.065 154.007 119.065 154.37C119.697 154.37 120.352 154.229 120.352 153.609Z" fill="black"/>
<path d="M265.064 140.774H265.626C265.626 139.768 265.064 140.318 265.064 140.774Z" fill="black"/>
<path d="M321.086 158.71C323.485 159.178 319.273 155.06 320.127 158.71C320.162 158.804 320.782 158.628 321.086 158.71Z" fill="black"/>
<path d="M322.771 158.863C323.778 160.15 322.526 159.389 321.87 159.776C321.005 160.314 322.608 160.478 322.608 160.478C323.017 160.478 324.374 160.466 324.456 160.478C327.206 160.77 321.859 157.681 322.771 158.863Z" fill="black"/>
<path d="M357.861 162.655C357.662 163.006 358.411 164.503 358.411 164.503C361.792 164.503 358.224 162.011 357.861 162.655Z" fill="black"/>
<path d="M321.648 162.116H321.484V161.952H321.309V161.789H321.075V161.578H320.911V161.414H320.115V161.578H319.553V161.028H319.39V160.864H319.226V160.7H318.442V160.864H318.29V161.028H318.114V161.25H317.717V160.7H317.553V160.326H316.991V160.49H316.593V160.7H316.429V160.864H314.908V160.478H314.745V160.162H314.183V160.326H313.972V160.49H313.235V160.326H313.06V159.952H313.235V159.788H313.633V159.577H314.183V159.413H314.358V159.249H314.92V159.039H315.096V158.337H315.318V158.173H315.482V157.939H315.868V158.161H316.043V158.325H316.207V158.477H316.429V158.863H316.207V159.565H317.553V159.776H318.29V159.565H318.454V158.7H318.676V158.477H318.84V158.161H319.004V157.939H319.238V157.611H319.004V157.401H318.84V157.237H318.676V157.073H318.454V156.863H317.155V156.699H316.593V156.535H316.429V155.985H316.207V155.774H315.318V155.611H314.756V155.447H314.534V155.072H314.195V154.897H313.809V154.686H313.247V154.511H313.071V154.031L312.287 153.856V153.973H312.124V154.136H311.948V154.359H311.164V154.136H310.439V153.61H310.603V152.744H310.439V152.37H309.877V152.533H309.479V152.744H308.742V152.908H308.52V153.083H308.344V153.294H307.958V153.083H307.619V152.908H307.397V152.533H307.233V151.983H307.057V151.281H306.659V151.668H305.548V151.831H305.384V151.995H304.986V151.668H304.822V151.281H303.465V151.118H303.301V150.743H302.915V150.579H302.752V150.193H302.576V150.029H301.23V149.819H300.891V149.643H298.984V149.48H297.861V149.281H295.602V149.503H295.439V149.831H295.216V150.369H295.053V150.743H294.889V150.907H294.491V150.205H294.105V150.369H293.929V150.579H293.754V150.743H293.531V150.907H292.97V150.743H292.794V150.041H292.631V149.831H292.397V149.503H292.631V149.281H292.794V148.742H292.397V148.579H291.496V148.356H288.465V149.281H288.301V149.503H288.138V149.667H287.506V149.281H287.342V149.117H287.178V148.742H286.792V148.579H285.833V148.356H285.657V148.192H285.095V148.356H284.698V148.579H284.358V149.491L284.335 149.503C284.393 149.491 284.405 149.491 284.534 149.491C285.552 149.491 284.639 150.228 284.698 150.041C284.779 149.76 284.323 149.62 284.206 149.561L283.96 149.667V149.503H283.797V149.281H283.574V148.579H283.797V147.654H283.411V147.49H281.164V147.654H280.778V147.49H280.614V147.268H280.216V147.104H280.052V146.941H279.491V147.104H279.105V146.941H278.765V146.718H277.981V146.554H276.858V146.391H276.133V146.168H275.747V146.004H274.623V145.841H273.5V145.653H273.325V144.951H272.763V144.249H272.541V144.027H272.213V143.863L271.09 143.699V143.313H271.265V143.15H271.429V142.939H271.663V142.775H271.827V142.401H271.991V142.237H272.213V142.073H272.377V141.851H272.541V141.535H272.377V141.16H272.213V140.997H271.991V140.236H272.213V140.084H272.377V139.92H272.541V139.534H271.417V139.16H270.68V139.534H270.517V139.92H270.294V140.084H270.13V140.236H269.955V140.774H270.13V140.997H270.294V141.324H269.557V141.535H269.171V141.699H268.995V141.862H268.832V142.085H268.434V142.249H268.036V142.623H267.872V142.951H267.708V143.161H267.486V143.489H267.322V143.699H266.199V143.489H266.035V143.161H266.199V141.851H266.597V141.535H266.363V141.324H266.199V141.16H265.474V141.535H265.251V141.699H264.292V141.862H263.964V142.085H263.566V142.249H263.403V142.412H263.18V142.623H263.016V142.787H262.841V142.951H262.455V143.161H262.057V142.951H261.32V143.161H260.922V143.325H259.46V143.161H259.225V142.775H259.062V142.611H258.676V143.313H258.512V143.699H258.336V143.863H257.938V144.249H257.775V144.413H257.552V144.577H257.389V144.788H257.213V144.951H256.991V145.115H256.651V145.653H256.827V146.578H256.651V146.742H256.429V146.964H256.09V147.28H255.867V148.742H256.265V148.895H256.429V149.117H256.651V149.281H256.827V150.041H256.651V150.743H256.429V150.907H256.265V151.129H256.09V151.293H255.867V152.381H256.09V152.545H256.265V152.756H256.429V153.083H256.651V153.458H256.429V153.996H256.651V154.382H256.827V154.546H256.991V154.721H257.213V154.932H257.389V155.26H257.95V155.47H258.126V155.798H259.073V156.008H259.237V156.172H259.471V157.097H259.635V157.26H259.787V157.424H260.009V157.962H260.91V158.185H261.694V158.349H263.543V158.501H264.666V158.349H265.064V158.501H266.573V158.723H266.737V158.887H268.258V159.051H268.598V159.261H268.984V159.425H271.242V159.589H271.64V159.799H271.804V159.963H271.967V160.174H272.529V160.338H272.927V160.501H274.448V160.338H274.612V159.963H274.776V159.039H275.735V159.413H275.91V159.577H276.308V159.788H276.531V159.952H276.694V160.162H276.858V160.7H277.092V160.864H277.256V161.028H277.981V160.864H278.765V160.7H279.105V160.864H279.491V161.028H280.614V161.25H281V161.414H281.913V161.028H282.135V160.864H282.311V159.94H282.463V159.776H282.685V159.565H284.37V159.776H284.709V159.94H285.107V160.15H285.271V160.689H285.107V161.555H285.833V161.391H286.055V161.227H286.23V161.005H286.616V161.227H286.956V161.391H287.178V161.555H287.517V162.093H286.406V162.479H287.19V162.643H287.915V162.865H290.162V163.017H292.069V162.643H291.671V162.315H292.233V162.093H292.397V161.555H290.384V161.391H290.162V161.227H289.436V161.005H289.261V160.864H289.038V160.7H288.875V160.326H289.612V160.49H290.173V160.326H290.735V160.7H291.519V160.864H291.858V161.028H292.642V160.864H293.204V161.028H293.379V161.789H293.204V162.502H293.379V162.666H294.327V162.502H295.228V162.338H296.024V162.116H296.363V161.952H296.597V161.414H297.159V161.25H297.498V161.028H298.621V161.25H299.007V161.414H299.241V161.578H299.405V161.789H300.142V161.578H302.377V161.414H302.775V161.25H303.325V161.028H303.886V162.116H304.05V162.654H304.448V162.877H305.01V163.029H305.735V163.193H306.519V163.029H307.245V163.193H308.368V163.403H308.754V163.567H310.275V163.403H310.439V163.193H310.603V163.029H311V162.877H311.164V162.654H311.387V162.491H312.287V162.654H313.071V162.877H313.411V163.029H313.797V163.193H314.183V163.403H314.92V163.567H315.868V163.731H316.593V164.491H316.429V164.655H315.084V164.491H314.908V164.269H314.511V164.491H314.347V164.819H313.961V164.655H313.797V163.731H313.06V164.105H313.235V164.269H313.411V165.03H313.633V165.193H314.522V165.357H315.318V165.568H315.657V165.732H316.055V165.895H317.014V165.732H317.74V165.895H318.29V165.732H318.454V165.345H318.29V164.094H318.84V164.257H319.004V164.643H318.84V165.345H319.799V165.018H319.963V164.807H320.127V164.643H320.349V164.48H320.513V164.257H320.688V164.094H320.911V163.93H321.075V163.017H321.858V162.865H322.022V162.643H322.198V162.315H321.636V162.116H321.648ZM270.552 143.91C270.54 144.027 270.563 144.156 270.61 144.273C270.528 144.132 270.446 143.98 270.552 143.91C270.575 143.688 270.669 143.559 270.669 143.863C270.61 143.863 270.587 143.898 270.552 143.91ZM287.74 156.161C286.932 156.98 286.453 157.237 285.107 157.237C285.107 157.237 284.066 156.102 284.943 156.547C285.4 156.769 287.166 155.459 286.055 155.459C286.055 155.459 285.68 154.955 286.055 154.71C287.026 154.031 289.741 154.16 287.74 156.161ZM287.517 153.832C287.377 153.809 286.172 152.99 287.517 152.908C287.611 152.908 290.021 153.575 289.834 153.61C288.84 153.797 288.524 153.973 287.517 153.832ZM293.918 157.073C293.918 157.073 293.192 156.898 293.356 156.313C293.964 154.148 297.147 157.073 293.918 157.073ZM295.427 161.789L295.205 161.578C295.205 160.092 297.463 161.789 295.427 161.789ZM297.673 157.073C297.229 156.547 295.591 157.892 295.591 155.997C295.591 155.271 297.802 156.301 297.849 156.324C299.335 156.944 298.036 157.518 297.673 157.073ZM297.849 151.281C297.849 151.281 296.293 150.895 296.152 150.907C294.362 151.036 296.644 149.363 296.726 150.369C296.737 150.439 298.223 150.638 298.411 150.579C299.113 150.392 298.446 151.281 297.849 151.281ZM303.126 159.565C302.986 159.46 301.523 158.887 301.055 159.027C299.393 159.484 300.517 157.752 300.318 157.237C299.791 155.868 302.752 156.418 303.126 156.324C304.378 155.973 303.524 158.173 303.863 158.173C308.075 158.161 303.676 159.987 303.126 159.565ZM316.593 162.327C316.242 162.186 317.845 160.934 317.553 161.566C317.424 161.859 317.471 162.666 316.593 162.327Z" fill="black"/>
<path d="M266.187 135.193C265.52 135.193 265.626 135.099 265.626 135.743C266.293 135.743 266.187 135.848 266.187 135.193Z" fill="black"/>
<path d="M371.89 142.622C373.002 142.774 372.616 142.026 372.616 140.996C371.41 140.177 371.574 142.576 371.89 142.622Z" fill="black"/>
<path d="M244.46 125.084C243.488 125.084 244.541 122.697 243.114 122.697C243.114 123.75 242.95 124.522 242.95 125.4C243.114 125.4 244.062 126.78 244.062 126.862C244.577 126.862 244.916 125.4 244.623 125.4C244.623 125.06 244.46 125.411 244.46 125.084Z" fill="black"/>
<path d="M272.202 129.249C272.202 127.306 270.856 129.401 270.856 130.114C272.506 130.114 271.254 129.249 272.202 129.249Z" fill="black"/>
<path d="M274.612 127.248C274.612 126.792 275.349 126.886 275.349 125.95C274.167 125.95 274.05 126.043 274.05 127.248C272.763 127.248 273.091 128.103 273.091 128.875C274.319 128.863 273.453 127.248 274.612 127.248Z" fill="black"/>
<path d="M261.87 140.622C262.455 140.622 262.256 140.482 262.256 139.92C261.671 139.908 261.87 140.049 261.87 140.622Z" fill="black"/>
</g>
<defs>
<clipPath id="clip0_8604_55681">
<rect width="412" height="250" fill="white"/>
</clipPath>
</defs>
</svg>
