<svg width="66" height="66" viewBox="0 0 66 66" fill="none" xmlns="http://www.w3.org/2000/svg">
<mask id="mask0_8601_53312" style="mask-type:alpha" maskUnits="userSpaceOnUse" x="0" y="0" width="66" height="66">
<circle cx="33" cy="33" r="33" fill="url(#paint0_linear_8601_53312)"/>
</mask>
<g mask="url(#mask0_8601_53312)">
<circle cx="33" cy="33" r="33" fill="url(#paint1_linear_8601_53312)"/>
<g filter="url(#filter0_dd_8601_53312)">
<circle cx="33" cy="33" r="31.3358" stroke="url(#paint2_linear_8601_53312)" stroke-width="3.32837"/>
</g>
<g filter="url(#filter1_d_8601_53312)">
<path d="M13.7071 21.386C13.5051 22.175 12.9399 22.7004 12.2857 23.1469C12.2262 23.1912 12.1568 23.2778 12.1325 23.3437C12.0076 23.9942 11.8754 24.6564 11.7338 25.3209C11.7006 25.5591 11.6673 25.7973 11.6102 26.0612C11.8463 25.6244 12.044 25.2368 12.2535 24.8564C12.6193 24.2085 13.107 23.6515 13.8469 23.3547C14.6176 23.0605 15.424 22.958 16.2359 23.0044C16.2571 23.0093 16.2783 23.0143 16.3347 23.0409C16.2037 23.3725 16.1011 23.6973 15.9538 24.0028C15.6592 24.6137 15.2663 25.148 14.6698 25.5007C13.7883 26.0015 12.862 26.2728 11.872 26.319C11.7823 26.3204 11.6713 26.3169 11.6028 26.3232C11.4242 27.7974 11.3382 29.2394 11.3911 30.7184C11.5126 30.389 11.5986 30.0782 11.7179 29.7394C11.9785 28.9864 12.3822 28.3294 13.1 27.8977C13.6256 27.5419 14.2159 27.3309 14.8455 27.2005C15.0561 27.1603 15.2523 27.1434 15.5008 27.0941C15.4482 27.3769 15.4241 27.653 15.3624 27.898C15.2159 28.5837 14.9515 29.2374 14.4219 29.7443C13.8157 30.3496 13.046 30.7736 12.219 31.0412C11.9488 31.1258 11.6742 31.1914 11.3924 31.2687C11.4642 32.7431 11.614 34.2089 11.887 35.6453C11.923 35.5867 11.9261 35.5158 11.9527 35.4594C11.9724 35.1644 12.0159 34.8437 12.0617 34.5325C12.2104 33.646 12.5987 32.8826 13.3673 32.3286C13.879 31.9562 14.43 31.6644 15.0225 31.4628C15.1411 31.4145 15.2548 31.3874 15.3544 31.3435C15.368 31.4004 15.3748 31.4288 15.3649 31.4712C15.3799 31.6178 15.3949 31.7643 15.3742 31.9294C15.3812 32.8387 15.2045 33.6918 14.6136 34.4035C13.9773 35.1761 13.1825 35.7464 12.2644 36.1358C12.1837 36.1751 12.084 36.2189 11.9727 36.2555C12.2547 37.7298 12.7049 39.1539 13.2521 40.5649C13.2671 40.0407 13.2555 39.573 13.2461 39.1148C13.2723 38.4278 13.4654 37.8111 13.856 37.2673C14.3874 36.5998 15.028 36.0965 15.7715 35.6887C15.8355 35.6634 15.895 35.6191 16.0185 35.5496C16.0946 35.9518 16.1544 36.328 16.2025 36.6969C16.2309 37.3608 16.1813 38.0334 15.861 38.6204C15.3263 39.609 14.5785 40.4183 13.597 41.0031C13.5636 41.031 13.5113 41.0636 13.4685 41.0938C14.0454 42.3775 14.6772 43.5981 15.4205 44.782C15.4041 44.5457 15.3263 44.304 15.2932 44.0817C15.1737 43.3294 15.1226 42.5708 15.4703 41.847C15.7433 41.2713 16.143 40.7654 16.587 40.319C16.8421 40.0879 17.0806 39.8708 17.3664 39.6424C17.417 39.7704 17.4775 39.8561 17.5141 39.9675C17.8634 40.8851 18.0733 41.806 17.7632 42.771C17.5021 43.5641 17.0813 44.2753 16.541 44.9049C16.3472 45.1413 16.1254 45.3445 15.9221 45.5832C16.6261 46.6865 17.4414 47.7531 18.3095 48.747C18.3148 48.6857 18.3013 48.6289 18.2687 48.5766C18.168 48.2803 18.0532 47.9674 17.9573 47.6499C17.7887 47.0695 17.7689 46.4836 17.957 45.8881C18.1604 45.1888 18.4997 44.5973 18.9332 44.0232C19.0841 43.817 19.2491 43.6274 19.4569 43.4076C19.8637 44.0212 20.1785 44.6268 20.3391 45.2992C20.4318 45.6875 20.4677 46.0893 20.4116 46.4831C20.2396 47.5653 19.8204 48.5764 19.1449 49.4785C19.0637 49.558 19.0773 49.6148 19.145 49.6887C19.8925 50.4712 20.6498 51.2113 21.4879 51.9121C21.4902 51.9216 21.4168 52.1593 20.5204 51.8429C20.2843 51.6089 20.0293 51.3795 19.791 51.1361C19.3428 50.6425 18.8449 50.1508 18.3922 49.6383C18.2919 49.512 18.2071 49.4922 18.0457 49.5708C17.0821 50.0212 16.0408 50.2298 14.988 50.1809C14.2113 50.1562 13.5462 49.8446 12.9609 49.3637C12.6725 49.1623 12.4482 48.9355 12.1932 48.7061C12.1652 48.6728 12.1418 48.6584 12.1092 48.6061C12.1237 48.5826 12.157 48.5546 12.1665 48.5523C12.9221 48.1116 13.7167 47.7917 14.5988 47.6711C15.4621 47.5551 16.2268 47.8229 16.9424 48.2626C17.109 48.373 17.2709 48.4645 17.4753 48.5658C17.4239 48.5181 17.3959 48.4847 17.3634 48.4324C16.6036 47.4726 15.8844 46.4732 15.2626 45.4204C15.1953 45.3063 15.1317 45.2915 15.0275 45.3164C14.0183 45.6175 13.0025 45.6398 11.9844 45.4425C11.1855 45.2829 10.588 44.835 10.0603 44.2603C9.81745 43.9979 9.60797 43.7076 9.35155 43.3884C9.6785 43.2903 9.97703 43.199 10.2589 43.1217C10.8533 42.9697 11.4396 42.9098 12.058 42.9423C12.8677 42.9792 13.5201 43.3639 14.1285 43.8993C14.2644 44.007 14.3858 44.1382 14.5076 44.2292C13.9462 43.0519 13.3896 41.8534 12.8399 40.6833C12.3559 40.6688 11.8386 40.6822 11.3221 40.6154C10.5485 40.5198 9.81359 40.3349 9.16195 39.8699C8.5875 39.4765 7.87281 38.496 7.66488 37.8349C7.68382 37.8304 7.68156 37.8209 7.7005 37.8164C8.70847 37.6357 9.72195 37.6039 10.6911 37.9731C11.3006 38.1779 11.7352 38.6147 12.1199 39.0934C12.2178 39.2102 12.3135 39.3175 12.4187 39.4225C12.0299 38.2139 11.7147 36.9778 11.5438 35.7173C10.883 35.6749 10.2704 35.5409 9.66581 35.3149C8.78603 34.9844 8.01849 34.537 7.52446 33.684C7.27652 33.2327 7.09488 32.7655 6.97953 32.2825C6.96596 32.2257 6.95465 32.1783 6.92977 32.0742C7.4228 32.1266 7.85944 32.1525 8.30512 32.2162C8.90148 32.324 9.47805 32.5167 10.0105 32.86C10.4559 33.1741 10.7607 33.6119 11.0204 34.0704C11.1481 34.2701 11.252 34.4956 11.3726 34.707C11.3757 34.6362 11.3856 34.5938 11.3743 34.5465C11.2124 33.3238 11.1309 32.1019 11.1201 30.8832C11.1051 30.7366 11.0893 30.6703 10.9598 30.6312C9.89741 30.3744 8.99813 29.8784 8.21235 29.1451C7.67705 28.6222 7.43391 27.9395 7.30669 27.2391C7.26004 26.9599 7.22738 26.6974 7.19063 26.3759C7.56507 26.4767 7.93498 26.5585 8.29543 26.6426C8.99427 26.8861 9.66159 27.2073 10.1703 27.7865C10.5766 28.2301 10.7691 28.7847 10.9332 29.3462C10.9951 29.5216 11.0358 29.6921 11.1 29.8769C11.1221 29.8016 11.1297 29.7497 11.1301 29.7096C11.1649 28.4299 11.2727 27.1629 11.4915 25.8993C11.5022 25.7766 11.4887 25.7198 11.3664 25.6689C10.4519 25.2767 9.69322 24.657 9.06123 23.897C8.5696 23.2636 8.41891 22.5488 8.41297 21.7694C8.38752 21.4952 8.42116 21.2168 8.42638 20.9453L8.4408 20.9218C9.0079 21.1167 9.57416 21.392 10.0877 21.7398C10.8472 22.2792 11.3569 22.9883 11.4604 23.9246C11.5274 24.289 11.5682 24.6697 11.6303 25.0553C11.6474 25.0012 11.6429 24.9822 11.655 24.9493C11.7958 24.3651 11.9461 23.7786 12.0891 23.2039C12.0922 23.1331 12.0719 23.0478 12.0605 23.0005C11.9429 22.508 11.8488 22.03 11.8845 21.5509C11.8982 21.1472 11.9566 20.7629 12.1679 20.4321C12.3968 20.0071 12.7118 19.6916 13.0693 19.386C13.2672 19.2086 13.4435 19.0664 13.6269 18.9125C13.6459 18.9079 13.6978 18.9156 13.7167 18.911C13.7385 19.086 13.7341 19.2773 13.7771 19.4572C13.8907 20.1008 13.8745 20.7454 13.7071 21.386Z" fill="url(#paint3_linear_8601_53312)"/>
</g>
<g filter="url(#filter2_d_8601_53312)">
<path d="M52.7324 21.3861C52.9354 22.1749 53.5014 22.6996 54.1561 23.1452C54.2157 23.1894 54.2852 23.276 54.3096 23.3418C54.4354 23.9921 54.5684 24.6542 54.7109 25.3185C54.7444 25.5566 54.778 25.7948 54.8354 26.0586C54.5988 25.6221 54.4005 25.2348 54.1906 24.8547C53.8239 24.2072 53.3355 23.6509 52.5952 23.355C51.8241 23.0619 51.0176 22.9604 50.2057 23.0079C50.1845 23.0128 50.1634 23.0178 50.107 23.0445C50.2384 23.3759 50.3415 23.7006 50.4892 24.0059C50.7845 24.6164 51.1782 25.1502 51.7751 25.5021C52.6572 26.0018 53.5839 26.2718 54.574 26.3168C54.6637 26.3181 54.7747 26.3144 54.8432 26.3206C55.0237 27.7946 55.1116 29.2365 55.0607 30.7155C54.9387 30.3863 54.8523 30.0756 54.7326 29.737C54.471 28.9843 54.0664 28.3278 53.3481 27.8971C52.8219 27.542 52.2314 27.3317 51.6016 27.2022C51.391 27.1622 51.1948 27.1456 50.9462 27.0966C50.9991 27.3794 51.0237 27.6554 51.0856 27.9003C51.2331 28.5858 51.4983 29.2392 52.0286 29.7454C52.6356 30.3499 53.4058 30.7729 54.2332 31.0394C54.5034 31.1236 54.7781 31.1889 55.0601 31.2658C54.9902 32.7403 54.8423 34.2063 54.5712 35.6431C54.5351 35.5845 54.5319 35.5137 54.5052 35.4573C54.4852 35.1623 54.4412 34.8417 54.395 34.5305C54.2452 33.6442 53.8559 32.8813 53.0865 32.3284C52.5743 31.9566 52.023 31.6655 51.4302 31.4647C51.3115 31.4165 51.1978 31.3895 51.0981 31.3459C51.0846 31.4027 51.0779 31.4311 51.0878 31.4735C51.073 31.6201 51.0583 31.7667 51.0791 31.9318C51.0734 32.8411 51.2511 33.6939 51.8429 34.4049C52.4803 35.1767 53.2758 35.7458 54.1944 36.1341C54.2752 36.1733 54.3749 36.217 54.4863 36.2534C54.2062 37.7281 53.7579 39.1528 53.2125 40.5644C53.1969 40.0403 53.2078 39.5726 53.2166 39.1143C53.1895 38.4274 52.9957 37.8109 52.6043 37.2676C52.0721 36.6009 51.4308 36.0983 50.6868 35.6915C50.6227 35.6663 50.5631 35.6221 50.4395 35.5527C50.364 35.9551 50.3047 36.3313 50.2571 36.7003C50.2295 37.3643 50.28 38.0368 50.6011 38.6234C51.1371 39.6113 51.8859 40.4196 52.8682 41.0031C52.9016 41.031 52.9539 41.0635 52.9968 41.0936C52.4216 42.3781 51.7913 43.5995 51.0496 44.7844C51.0657 44.5481 51.1432 44.3063 51.176 44.0839C51.2946 43.3315 51.3446 42.5728 50.996 41.8495C50.7223 41.2741 50.3219 40.7687 49.8773 40.3229C49.6219 40.0922 49.3831 39.8754 49.097 39.6473C49.0466 39.7754 48.9862 39.8612 48.9497 39.9726C48.6016 40.8907 48.3929 41.8119 48.7043 42.7765C48.9664 43.5693 49.3881 44.2798 49.9293 44.9087C50.1234 45.1449 50.3455 45.3478 50.549 45.5863C49.8465 46.6904 49.0326 47.7581 48.1658 48.7532C48.1604 48.6919 48.1739 48.635 48.2063 48.5827C48.3067 48.2863 48.4211 47.9732 48.5165 47.6556C48.6844 47.075 48.7034 46.4891 48.5145 45.8938C48.3102 45.1948 47.9702 44.6037 47.536 44.0302C47.3847 43.8242 47.2195 43.6348 47.0115 43.4153C46.6054 44.0294 46.2914 44.6354 46.1317 45.308C46.0395 45.6964 46.0041 46.0983 46.0608 46.492C46.2342 47.574 46.6547 48.5845 47.3314 49.4858C47.4126 49.5651 47.3992 49.6219 47.3315 49.696C46.5851 50.4794 45.8287 51.2205 44.9915 51.9224C44.9893 51.9319 45.0629 52.1696 45.959 51.8519C46.1947 51.6177 46.4494 51.3879 46.6874 51.1442C47.135 50.6501 47.6322 50.1576 48.0843 49.6445C48.1844 49.5182 48.2691 49.4983 48.4307 49.5767C49.3948 50.0258 50.4364 50.233 51.4892 50.1828C52.2659 50.157 52.9305 49.8445 53.5152 49.3629C53.8033 49.1611 54.0273 48.934 54.282 48.7043C54.31 48.6709 54.3334 48.6565 54.3659 48.6041C54.3514 48.5807 54.318 48.5527 54.3086 48.5505C53.5523 48.1107 52.7574 47.7919 51.8751 47.6724C51.0117 47.5575 50.2473 47.8264 49.5322 48.267C49.3659 48.3776 49.204 48.4693 48.9997 48.5709C49.0511 48.5231 49.0791 48.4897 49.1115 48.4373C49.87 47.4766 50.5879 46.4762 51.2084 45.4226C51.2755 45.3084 51.3391 45.2935 51.4433 45.3182C52.4529 45.618 53.4687 45.639 54.4866 45.4404C55.2853 45.2798 55.8822 44.8311 56.4091 44.2556C56.6516 43.993 56.8607 43.7024 57.1167 43.3829C56.7897 43.2852 56.491 43.1943 56.2091 43.1173C55.6145 42.9661 55.0281 42.907 54.4097 42.9403C53.6001 42.9782 52.9481 43.3638 52.3405 43.9C52.2048 44.0079 52.0835 44.1392 51.9618 44.2304C52.5217 43.0524 53.0766 41.8532 53.6248 40.6824C54.1088 40.6672 54.6262 40.6799 55.1426 40.6124C55.9161 40.5158 56.6507 40.33 57.3017 39.8641C57.8757 39.47 58.5891 38.4885 58.7962 37.8272C58.7772 37.8227 58.7795 37.8132 58.7605 37.8087C57.7523 37.6293 56.7388 37.5989 55.7702 37.9693C55.1609 38.1749 54.7268 38.6123 54.3428 39.0915C54.245 39.2084 54.1495 39.3158 54.0444 39.421C54.4316 38.2119 54.7452 36.9754 54.9145 35.7146C55.5752 35.6713 56.1877 35.5365 56.7919 35.3097C57.6713 34.9781 58.4382 34.5298 58.9311 33.6761C59.1785 33.2244 59.3595 32.757 59.4742 32.2739C59.4877 32.217 59.499 32.1697 59.5237 32.0655C59.0308 32.1185 58.5942 32.145 58.1486 32.2093C57.5523 32.3179 56.976 32.5113 56.444 32.8554C55.999 33.17 55.6948 33.6082 55.4358 34.067C55.3082 34.2669 55.2046 34.4925 55.0843 34.7041C55.0811 34.6333 55.0712 34.5909 55.0824 34.5436C55.2427 33.3207 55.3227 32.0987 55.3318 30.88C55.3466 30.7334 55.3624 30.6671 55.4918 30.6278C56.5539 30.3696 57.4525 29.8724 58.2373 29.138C58.7719 28.6145 59.0142 27.9315 59.1405 27.2309C59.1868 26.9517 59.2191 26.6891 59.2554 26.3675C58.8811 26.4688 58.5113 26.5511 58.151 26.6357C57.4524 26.8801 56.7855 27.2021 56.2776 27.7821C55.8719 28.2261 55.6801 28.781 55.5167 29.3427C55.455 29.5182 55.4145 29.6887 55.3506 29.8737C55.3285 29.7984 55.3208 29.7465 55.3203 29.7064C55.2839 28.4268 55.1744 27.1598 54.9539 25.8966C54.943 25.7739 54.9565 25.7171 55.0787 25.666C55.9928 25.2726 56.7506 24.6519 57.3816 23.8911C57.8724 23.257 58.0221 22.542 58.0271 21.7626C58.0522 21.4884 58.0182 21.2101 58.0126 20.9386L57.9981 20.9151C57.4313 21.1108 56.8654 21.3867 56.3523 21.7352C55.5935 22.2756 55.0847 22.9854 54.9825 23.9219C54.9159 24.2864 54.8756 24.6671 54.814 25.0528C54.7969 24.9986 54.8014 24.9797 54.7892 24.9468C54.6476 24.3628 54.4966 23.7765 54.3528 23.2019C54.3496 23.1311 54.3699 23.0459 54.3811 22.9985C54.4981 22.5059 54.5916 22.0277 54.5552 21.5487C54.541 21.145 54.4821 20.7608 54.2703 20.4303C54.041 20.0056 53.7255 19.6905 53.3676 19.3853C53.1695 19.2082 52.993 19.0662 52.8094 18.9125C52.7904 18.908 52.7385 18.9157 52.7196 18.9112C52.6981 19.0862 52.7027 19.2775 52.66 19.4575C52.5471 20.1012 52.5642 20.7457 52.7324 21.3861Z" fill="url(#paint4_linear_8601_53312)"/>
</g>
</g>
<g filter="url(#filter3_d_8601_53312)">
<path d="M36.84 18.1039V46.0806H30.401V26.0972L27.5145 28.0956L24.406 23.2108L31.7332 18.1039H36.84Z" fill="url(#paint5_linear_8601_53312)"/>
</g>
<defs>
<filter id="filter0_dd_8601_53312" x="-1.33135" y="-1.33135" width="69.994" height="68.6627" filterUnits="userSpaceOnUse" color-interpolation-filters="sRGB">
<feFlood flood-opacity="0" result="BackgroundImageFix"/>
<feColorMatrix in="SourceAlpha" type="matrix" values="0 0 0 0 0 0 0 0 0 0 0 0 0 0 0 0 0 0 127 0" result="hardAlpha"/>
<feOffset dx="1.33135"/>
<feGaussianBlur stdDeviation="0.665674"/>
<feColorMatrix type="matrix" values="0 0 0 0 0 0 0 0 0 0 0 0 0 0 0 0 0 0 0.07 0"/>
<feBlend mode="normal" in2="BackgroundImageFix" result="effect1_dropShadow_8601_53312"/>
<feColorMatrix in="SourceAlpha" type="matrix" values="0 0 0 0 0 0 0 0 0 0 0 0 0 0 0 0 0 0 127 0" result="hardAlpha"/>
<feOffset dx="-0.665674" dy="-0.665674"/>
<feGaussianBlur stdDeviation="0.332837"/>
<feColorMatrix type="matrix" values="0 0 0 0 1 0 0 0 0 1 0 0 0 0 1 0 0 0 0.29 0"/>
<feBlend mode="normal" in2="effect1_dropShadow_8601_53312" result="effect2_dropShadow_8601_53312"/>
<feBlend mode="normal" in="SourceGraphic" in2="effect2_dropShadow_8601_53312" result="shape"/>
</filter>
<filter id="filter1_d_8601_53312" x="5.59846" y="18.2452" width="15.8895" height="34.4271" filterUnits="userSpaceOnUse" color-interpolation-filters="sRGB">
<feFlood flood-opacity="0" result="BackgroundImageFix"/>
<feColorMatrix in="SourceAlpha" type="matrix" values="0 0 0 0 0 0 0 0 0 0 0 0 0 0 0 0 0 0 127 0" result="hardAlpha"/>
<feOffset dx="-0.665674"/>
<feGaussianBlur stdDeviation="0.332837"/>
<feColorMatrix type="matrix" values="0 0 0 0 0 0 0 0 0 0 0 0 0 0 0 0 0 0 0.16 0"/>
<feBlend mode="normal" in2="BackgroundImageFix" result="effect1_dropShadow_8601_53312"/>
<feBlend mode="normal" in="SourceGraphic" in2="effect1_dropShadow_8601_53312" result="shape"/>
</filter>
<filter id="filter2_d_8601_53312" x="43.6601" y="18.2455" width="15.8636" height="34.4368" filterUnits="userSpaceOnUse" color-interpolation-filters="sRGB">
<feFlood flood-opacity="0" result="BackgroundImageFix"/>
<feColorMatrix in="SourceAlpha" type="matrix" values="0 0 0 0 0 0 0 0 0 0 0 0 0 0 0 0 0 0 127 0" result="hardAlpha"/>
<feOffset dx="-0.665674"/>
<feGaussianBlur stdDeviation="0.332837"/>
<feColorMatrix type="matrix" values="0 0 0 0 0 0 0 0 0 0 0 0 0 0 0 0 0 0 0.16 0"/>
<feBlend mode="normal" in2="BackgroundImageFix" result="effect1_dropShadow_8601_53312"/>
<feBlend mode="normal" in="SourceGraphic" in2="effect1_dropShadow_8601_53312" result="shape"/>
</filter>
<filter id="filter3_d_8601_53312" x="22.4077" y="16.7718" width="15.0985" height="30.641" filterUnits="userSpaceOnUse" color-interpolation-filters="sRGB">
<feFlood flood-opacity="0" result="BackgroundImageFix"/>
<feColorMatrix in="SourceAlpha" type="matrix" values="0 0 0 0 0 0 0 0 0 0 0 0 0 0 0 0 0 0 127 0" result="hardAlpha"/>
<feOffset dx="-0.666111"/>
<feGaussianBlur stdDeviation="0.666111"/>
<feColorMatrix type="matrix" values="0 0 0 0 0 0 0 0 0 0 0 0 0 0 0 0 0 0 0.13 0"/>
<feBlend mode="normal" in2="BackgroundImageFix" result="effect1_dropShadow_8601_53312"/>
<feBlend mode="normal" in="SourceGraphic" in2="effect1_dropShadow_8601_53312" result="shape"/>
</filter>
<linearGradient id="paint0_linear_8601_53312" x1="12.87" y1="4.95" x2="52.47" y2="60.72" gradientUnits="userSpaceOnUse">
<stop stop-color="#ECA02E"/>
<stop offset="0.225655" stop-color="#E5A92A"/>
<stop offset="0.498557" stop-color="#FBCF58"/>
<stop offset="0.763325" stop-color="#E6A92A"/>
<stop offset="1" stop-color="#E6B41C"/>
</linearGradient>
<linearGradient id="paint1_linear_8601_53312" x1="12.87" y1="4.95" x2="52.47" y2="60.72" gradientUnits="userSpaceOnUse">
<stop stop-color="#ECA02E"/>
<stop offset="0.225655" stop-color="#E5A92A"/>
<stop offset="0.498557" stop-color="#FBCF58"/>
<stop offset="0.763325" stop-color="#E6A92A"/>
<stop offset="1" stop-color="#E6B41C"/>
</linearGradient>
<linearGradient id="paint2_linear_8601_53312" x1="13.53" y1="4.95" x2="54.78" y2="59.07" gradientUnits="userSpaceOnUse">
<stop stop-color="#EFBA4A"/>
<stop offset="1" stop-color="#EDB734"/>
</linearGradient>
<linearGradient id="paint3_linear_8601_53312" x1="13.518" y1="19.5382" x2="21.2037" y2="51.9429" gradientUnits="userSpaceOnUse">
<stop stop-color="#FACF45"/>
<stop offset="0.463542" stop-color="#FFE48B"/>
<stop offset="1" stop-color="#FFD042"/>
</linearGradient>
<linearGradient id="paint4_linear_8601_53312" x1="52.9191" y1="19.5381" x2="45.2758" y2="51.9529" gradientUnits="userSpaceOnUse">
<stop stop-color="#FBD149"/>
<stop offset="0.463542" stop-color="#F5D97F"/>
<stop offset="0.463642" stop-color="#F5D97F"/>
<stop offset="1" stop-color="#F8C250"/>
</linearGradient>
<linearGradient id="paint5_linear_8601_53312" x1="31.8381" y1="16.4646" x2="31.8381" y2="39.9193" gradientUnits="userSpaceOnUse">
<stop stop-color="#FFF8D7"/>
<stop offset="0.489583" stop-color="#FFF2B8"/>
<stop offset="1" stop-color="#FFF8D7"/>
</linearGradient>
</defs>
</svg>
