<svg width="66" height="66" viewBox="0 0 66 66" fill="none" xmlns="http://www.w3.org/2000/svg">
<mask id="mask0_8601_53324" style="mask-type:alpha" maskUnits="userSpaceOnUse" x="0" y="0" width="66" height="66">
<circle cx="33" cy="33" r="33" fill="url(#paint0_linear_8601_53324)"/>
</mask>
<g mask="url(#mask0_8601_53324)">
<circle cx="33" cy="33" r="33" fill="url(#paint1_linear_8601_53324)"/>
<g filter="url(#filter0_dd_8601_53324)">
<circle cx="33" cy="33" r="31.3347" stroke="url(#paint2_linear_8601_53324)" stroke-width="3.33055"/>
</g>
<g filter="url(#filter1_d_8601_53324)">
<path d="M13.7065 21.386C13.5045 22.175 12.9393 22.7004 12.2851 23.1469C12.2256 23.1912 12.1562 23.2778 12.1319 23.3437C12.0069 23.9942 11.8748 24.6564 11.7332 25.3209C11.6999 25.5591 11.6667 25.7973 11.6096 26.0612C11.8457 25.6244 12.0434 25.2368 12.2529 24.8564C12.6187 24.2085 13.1064 23.6515 13.8463 23.3547C14.617 23.0605 15.4234 22.958 16.2353 23.0044C16.2565 23.0093 16.2777 23.0143 16.3341 23.0409C16.2031 23.3725 16.1005 23.6973 15.9532 24.0028C15.6586 24.6137 15.2657 25.148 14.6692 25.5007C13.7877 26.0015 12.8614 26.2728 11.8714 26.319C11.7817 26.3204 11.6707 26.3169 11.6021 26.3232C11.4236 27.7974 11.3376 29.2394 11.3905 30.7184C11.512 30.389 11.598 30.0782 11.7173 29.7394C11.9779 28.9864 12.3816 28.3294 13.0994 27.8977C13.625 27.5419 14.2153 27.3309 14.8449 27.2005C15.0555 27.1603 15.2517 27.1434 15.5002 27.0941C15.4476 27.3769 15.4234 27.653 15.3618 27.898C15.2152 28.5837 14.9509 29.2374 14.4213 29.7443C13.815 30.3496 13.0454 30.7736 12.2184 31.0412C11.9482 31.1258 11.6736 31.1914 11.3917 31.2687C11.4636 32.7431 11.6134 34.2089 11.8864 35.6453C11.9224 35.5867 11.9255 35.5158 11.9521 35.4594C11.9718 35.1644 12.0153 34.8437 12.0611 34.5325C12.2098 33.646 12.5981 32.8826 13.3667 32.3286C13.8784 31.9562 14.4294 31.6644 15.0219 31.4628C15.1405 31.4145 15.2542 31.3874 15.3538 31.3435C15.3674 31.4004 15.3742 31.4288 15.3643 31.4712C15.3793 31.6178 15.3942 31.7643 15.3736 31.9294C15.3805 32.8387 15.2039 33.6918 14.613 34.4035C13.9767 35.1761 13.1819 35.7464 12.2638 36.1358C12.1831 36.1751 12.0834 36.2189 11.9721 36.2555C12.2541 37.7298 12.7043 39.1539 13.2515 40.5649C13.2665 40.0407 13.2549 39.573 13.2455 39.1148C13.2717 38.4278 13.4647 37.8111 13.8554 37.2673C14.3868 36.5998 15.0274 36.0965 15.7709 35.6887C15.8349 35.6634 15.8944 35.6191 16.0179 35.5496C16.094 35.9518 16.1538 36.328 16.2018 36.6969C16.2303 37.3608 16.1807 38.0334 15.8604 38.6204C15.3257 39.609 14.5779 40.4183 13.5964 41.0031C13.563 41.031 13.5107 41.0636 13.4679 41.0938C14.0448 42.3775 14.6766 43.5981 15.4199 44.782C15.4035 44.5457 15.3257 44.304 15.2926 44.0817C15.173 43.3294 15.122 42.5708 15.4697 41.847C15.7427 41.2713 16.1424 40.7654 16.5864 40.319C16.8415 40.0879 17.08 39.8708 17.3658 39.6424C17.4164 39.7704 17.4769 39.8561 17.5135 39.9675C17.8628 40.8851 18.0727 41.806 17.7626 42.771C17.5015 43.5641 17.0807 44.2753 16.5404 44.9049C16.3466 45.1413 16.1248 45.3445 15.9215 45.5832C16.6255 46.6865 17.4408 47.7531 18.3088 48.747C18.3142 48.6857 18.3006 48.6289 18.2681 48.5766C18.1673 48.2803 18.0526 47.9674 17.9567 47.6499C17.7881 47.0695 17.7683 46.4836 17.9564 45.8881C18.1598 45.1888 18.499 44.5973 18.9326 44.0232C19.0835 43.817 19.2485 43.6274 19.4563 43.4076C19.8631 44.0212 20.1779 44.6268 20.3385 45.2992C20.4312 45.6875 20.4671 46.0893 20.411 46.4831C20.239 47.5653 19.8197 48.5764 19.1442 49.4785C19.0631 49.558 19.0767 49.6148 19.1444 49.6887C19.8919 50.4712 20.6492 51.2113 21.4873 51.9121C21.4896 51.9216 21.4162 52.1593 20.5198 51.8429C20.2837 51.6089 20.0287 51.3795 19.7904 51.1361C19.3421 50.6425 18.8443 50.1508 18.3916 49.6383C18.2913 49.512 18.2065 49.4922 18.0451 49.5708C17.0815 50.0212 16.0402 50.2298 14.9874 50.1809C14.2107 50.1562 13.5456 49.8446 12.9603 49.3637C12.6719 49.1623 12.4476 48.9355 12.1926 48.7061C12.1646 48.6728 12.1411 48.6584 12.1086 48.6061C12.123 48.5826 12.1564 48.5546 12.1659 48.5523C12.9215 48.1116 13.7161 47.7917 14.5982 47.6711C15.4615 47.5551 16.2262 47.8229 16.9418 48.2626C17.1083 48.373 17.2703 48.4645 17.4747 48.5658C17.4233 48.5181 17.3953 48.4847 17.3628 48.4324C16.603 47.4726 15.8838 46.4732 15.262 45.4204C15.1947 45.3063 15.1311 45.2915 15.0269 45.3164C14.0177 45.6175 13.0019 45.6398 11.9838 45.4425C11.1849 45.2829 10.5874 44.835 10.0597 44.2603C9.81684 43.9979 9.60736 43.7076 9.35094 43.3884C9.67789 43.2903 9.97642 43.199 10.2583 43.1217C10.8526 42.9697 11.439 42.9098 12.0574 42.9423C12.867 42.9792 13.5195 43.3639 14.1279 43.8993C14.2637 44.007 14.3852 44.1382 14.507 44.2292C13.9455 43.0519 13.389 41.8534 12.8393 40.6833C12.3553 40.6688 11.838 40.6822 11.3215 40.6154C10.5479 40.5198 9.81298 40.3349 9.16134 39.8699C8.58689 39.4765 7.8722 38.496 7.66427 37.8349C7.68321 37.8304 7.68095 37.8209 7.69989 37.8164C8.70786 37.6357 9.72134 37.6039 10.6905 37.9731C11.3 38.1779 11.7346 38.6147 12.1192 39.0934C12.2172 39.2102 12.3129 39.3175 12.4181 39.4225C12.0293 38.2139 11.7141 36.9778 11.5432 35.7173C10.8824 35.6749 10.2698 35.5409 9.6652 35.3149C8.78542 34.9844 8.01788 34.537 7.52385 33.684C7.27591 33.2327 7.09427 32.7655 6.97892 32.2825C6.96535 32.2257 6.95404 32.1783 6.92916 32.0742C7.42219 32.1266 7.85883 32.1525 8.30451 32.2162C8.90087 32.324 9.47744 32.5167 10.0099 32.86C10.4553 33.1741 10.7601 33.6119 11.0197 34.0704C11.1475 34.2701 11.2514 34.4956 11.372 34.707C11.3751 34.6362 11.385 34.5938 11.3737 34.5465C11.2118 33.3238 11.1303 32.1019 11.1195 30.8832C11.1045 30.7366 11.0887 30.6703 10.9592 30.6312C9.8968 30.3744 8.99752 29.8784 8.21174 29.1451C7.67644 28.6222 7.4333 27.9395 7.30608 27.2391C7.25943 26.9599 7.22677 26.6974 7.19002 26.3759C7.56446 26.4767 7.93437 26.5585 8.29482 26.6426C8.99366 26.8861 9.66098 27.2073 10.1697 27.7865C10.576 28.2301 10.7685 28.7847 10.9326 29.3462C10.9945 29.5216 11.0352 29.6921 11.0994 29.8769C11.1215 29.8016 11.1291 29.7497 11.1295 29.7096C11.1643 28.4299 11.2721 27.1629 11.4909 25.8993C11.5016 25.7766 11.4881 25.7198 11.3658 25.6689C10.4513 25.2767 9.69261 24.657 9.06062 23.897C8.56899 23.2636 8.4183 22.5488 8.41236 21.7694C8.38691 21.4952 8.42055 21.2168 8.42577 20.9453L8.44019 20.9218C9.00729 21.1167 9.57355 21.392 10.0871 21.7398C10.8466 22.2792 11.3563 22.9883 11.4598 23.9246C11.5268 24.289 11.5676 24.6697 11.6297 25.0553C11.6468 25.0012 11.6423 24.9822 11.6544 24.9493C11.7952 24.3651 11.9454 23.7786 12.0885 23.2039C12.0916 23.1331 12.0712 23.0478 12.0599 23.0005C11.9423 22.508 11.8482 22.03 11.8839 21.5509C11.8976 21.1472 11.956 20.7629 12.1673 20.4321C12.3962 20.0071 12.7112 19.6916 13.0687 19.386C13.2666 19.2086 13.4429 19.0664 13.6263 18.9125C13.6453 18.9079 13.6971 18.9156 13.7161 18.911C13.7379 19.086 13.7335 19.2773 13.7764 19.4572C13.8901 20.1008 13.8739 20.7454 13.7065 21.386Z" fill="url(#paint3_linear_8601_53324)"/>
</g>
<g filter="url(#filter2_d_8601_53324)">
<path d="M52.7319 21.3861C52.9349 22.1749 53.5009 22.6996 54.1556 23.1452C54.2152 23.1894 54.2847 23.276 54.3091 23.3418C54.4349 23.9921 54.5679 24.6542 54.7104 25.3185C54.7439 25.5566 54.7775 25.7948 54.8349 26.0586C54.5983 25.6221 54.4 25.2348 54.1901 24.8547C53.8234 24.2072 53.335 23.6509 52.5947 23.355C51.8237 23.0619 51.0171 22.9604 50.2053 23.0079C50.1841 23.0128 50.1629 23.0178 50.1065 23.0445C50.238 23.3759 50.341 23.7006 50.4887 24.0059C50.784 24.6164 51.1777 25.1502 51.7747 25.5021C52.6568 26.0018 53.5834 26.2718 54.5735 26.3168C54.6632 26.3181 54.7742 26.3144 54.8427 26.3206C55.0232 27.7946 55.1111 29.2365 55.0602 30.7155C54.9382 30.3863 54.8518 30.0756 54.7321 29.737C54.4705 28.9843 54.0659 28.3278 53.3476 27.8971C52.8214 27.542 52.2309 27.3317 51.6012 27.2022C51.3905 27.1622 51.1943 27.1456 50.9457 27.0966C50.9987 27.3794 51.0232 27.6554 51.0851 27.9003C51.2326 28.5858 51.4978 29.2392 52.0281 29.7454C52.6351 30.3499 53.4053 30.7729 54.2327 31.0394C54.5029 31.1236 54.7777 31.1889 55.0596 31.2658C54.9897 32.7403 54.8418 34.2063 54.5707 35.6431C54.5346 35.5845 54.5314 35.5137 54.5047 35.4573C54.4847 35.1623 54.4407 34.8417 54.3945 34.5305C54.2447 33.6442 53.8554 32.8813 53.086 32.3284C52.5739 31.9566 52.0225 31.6655 51.4297 31.4647C51.311 31.4165 51.1974 31.3895 51.0976 31.3459C51.0842 31.4027 51.0774 31.4311 51.0874 31.4735C51.0726 31.6201 51.0578 31.7667 51.0786 31.9318C51.0729 32.8411 51.2507 33.6939 51.8424 34.4049C52.4798 35.1767 53.2753 35.7458 54.1939 36.1341C54.2747 36.1733 54.3744 36.217 54.4858 36.2534C54.2057 37.7281 53.7574 39.1528 53.212 40.5644C53.1964 40.0403 53.2073 39.5726 53.2161 39.1143C53.189 38.4274 52.9952 37.8109 52.6038 37.2676C52.0716 36.6009 51.4303 36.0983 50.6863 35.6915C50.6222 35.6663 50.5627 35.6221 50.439 35.5527C50.3635 35.9551 50.3042 36.3313 50.2566 36.7003C50.2291 37.3643 50.2795 38.0368 50.6006 38.6234C51.1366 39.6113 51.8854 40.4196 52.8677 41.0031C52.9011 41.031 52.9534 41.0635 52.9963 41.0936C52.4211 42.3781 51.7908 43.5995 51.0492 44.7844C51.0652 44.5481 51.1427 44.3063 51.1755 44.0839C51.2941 43.3315 51.3441 42.5728 50.9955 41.8495C50.7218 41.2741 50.3214 40.7687 49.8768 40.3229C49.6214 40.0922 49.3826 39.8754 49.0965 39.6473C49.0461 39.7754 48.9857 39.8612 48.9492 39.9726C48.6012 40.8907 48.3924 41.8119 48.7038 42.7765C48.9659 43.5693 49.3876 44.2798 49.9288 44.9087C50.1229 45.1449 50.345 45.3478 50.5485 45.5863C49.846 46.6904 49.0321 47.7581 48.1654 48.7532C48.1599 48.6919 48.1734 48.635 48.2058 48.5827C48.3062 48.2863 48.4206 47.9732 48.516 47.6556C48.6839 47.075 48.703 46.4891 48.514 45.8938C48.3097 45.1948 47.9697 44.6037 47.5355 44.0302C47.3842 43.8242 47.219 43.6348 47.011 43.4153C46.605 44.0294 46.2909 44.6354 46.1312 45.308C46.039 45.6964 46.0036 46.0983 46.0603 46.492C46.2337 47.574 46.6542 48.5845 47.3309 49.4858C47.4122 49.5651 47.3987 49.6219 47.3311 49.696C46.5846 50.4794 45.8282 51.2205 44.991 51.9224C44.9888 51.9319 45.0625 52.1696 45.9585 51.8519C46.1942 51.6177 46.4489 51.3879 46.687 51.1442C47.1345 50.6501 47.6317 50.1576 48.0838 49.6445C48.1839 49.5182 48.2687 49.4983 48.4302 49.5767C49.3944 50.0258 50.436 50.233 51.4887 50.1828C52.2654 50.157 52.93 49.8445 53.5147 49.3629C53.8028 49.1611 54.0269 48.934 54.2816 48.7043C54.3095 48.6709 54.3329 48.6565 54.3654 48.6041C54.3509 48.5807 54.3175 48.5527 54.3081 48.5505C53.5518 48.1107 52.7569 47.7919 51.8746 47.6724C51.0112 47.5575 50.2468 47.8264 49.5317 48.267C49.3654 48.3776 49.2035 48.4693 48.9992 48.5709C49.0506 48.5231 49.0786 48.4897 49.111 48.4373C49.8695 47.4766 50.5874 46.4762 51.2079 45.4226C51.275 45.3084 51.3386 45.2935 51.4428 45.3182C52.4524 45.618 53.4682 45.639 54.4861 45.4404C55.2848 45.2798 55.8817 44.8311 56.4086 44.2556C56.6511 43.993 56.8603 43.7024 57.1163 43.3829C56.7892 43.2852 56.4905 43.1943 56.2086 43.1173C55.614 42.9661 55.0276 42.907 54.4092 42.9403C53.5996 42.9782 52.9476 43.3638 52.34 43.9C52.2043 44.0079 52.083 44.1392 51.9613 44.2304C52.5212 43.0524 53.0762 41.8532 53.6244 40.6824C54.1083 40.6672 54.6257 40.6799 55.1421 40.6124C55.9156 40.5158 56.6502 40.33 57.3013 39.8641C57.8752 39.47 58.5886 38.4885 58.7957 37.8272C58.7767 37.8227 58.779 37.8132 58.76 37.8087C57.7518 37.6293 56.7383 37.5989 55.7697 37.9693C55.1604 38.1749 54.7263 38.6123 54.3423 39.0915C54.2445 39.2084 54.149 39.3158 54.044 39.421C54.4311 38.2119 54.7447 36.9754 54.914 35.7146C55.5747 35.6713 56.1872 35.5365 56.7914 35.3097C57.6708 34.9781 58.4377 34.5298 58.9307 33.6761C59.178 33.2244 59.359 32.757 59.4738 32.2739C59.4872 32.217 59.4985 32.1697 59.5232 32.0655C59.0303 32.1185 58.5937 32.145 58.1481 32.2093C57.5519 32.3179 56.9755 32.5113 56.4435 32.8554C55.9985 33.17 55.6943 33.6082 55.4353 34.067C55.3077 34.2669 55.2041 34.4925 55.0838 34.7041C55.0806 34.6333 55.0707 34.5909 55.0819 34.5436C55.2422 33.3207 55.3222 32.0987 55.3314 30.88C55.3461 30.7334 55.3619 30.6671 55.4913 30.6278C56.5534 30.3696 57.452 29.8724 58.2368 29.138C58.7715 28.6145 59.0137 27.9315 59.14 27.2309C59.1863 26.9517 59.2186 26.6891 59.2549 26.3675C58.8806 26.4688 58.5108 26.5511 58.1505 26.6357C57.452 26.8801 56.7851 27.2021 56.2771 27.7821C55.8714 28.2261 55.6796 28.781 55.5162 29.3427C55.4545 29.5182 55.4141 29.6887 55.3501 29.8737C55.328 29.7984 55.3203 29.7465 55.3198 29.7064C55.2834 28.4268 55.1739 27.1598 54.9534 25.8966C54.9425 25.7739 54.956 25.7171 55.0782 25.666C55.9923 25.2726 56.7501 24.6519 57.3811 23.8911C57.8719 23.257 58.0216 22.542 58.0266 21.7626C58.0517 21.4884 58.0177 21.2101 58.0121 20.9386L57.9976 20.9151C57.4308 21.1108 56.8649 21.3867 56.3518 21.7352C55.593 22.2756 55.0842 22.9854 54.982 23.9219C54.9155 24.2864 54.8751 24.6671 54.8135 25.0528C54.7964 24.9986 54.8009 24.9797 54.7887 24.9468C54.6471 24.3628 54.4961 23.7765 54.3523 23.2019C54.3491 23.1311 54.3694 23.0459 54.3806 22.9985C54.4976 22.5059 54.5911 22.0277 54.5547 21.5487C54.5405 21.145 54.4816 20.7608 54.2699 20.4303C54.0405 20.0056 53.725 19.6905 53.3671 19.3853C53.169 19.2082 52.9925 19.0662 52.8089 18.9125C52.7899 18.908 52.7381 18.9157 52.7191 18.9112C52.6976 19.0862 52.7022 19.2775 52.6595 19.4575C52.5466 20.1012 52.5637 20.7457 52.7319 21.3861Z" fill="url(#paint4_linear_8601_53324)"/>
</g>
</g>
<g filter="url(#filter3_d_8601_53324)">
<path d="M42.8937 39.9316V46.1487H23.5765V41.7079L33.7902 31.0502C34.2342 30.5765 34.6339 30.088 34.9892 29.5847C35.3148 29.1703 35.5961 28.6966 35.8329 28.1637C36.0994 27.6308 36.2326 27.1127 36.2326 26.6094C36.2326 25.7213 35.9661 25.0256 35.4332 24.5223C34.9004 23.9894 34.1306 23.723 33.1241 23.723C31.9991 23.723 31.1257 24.0338 30.504 24.6555C29.8823 25.2772 29.5715 26.1506 29.5715 27.2755L23.3544 26.8315C23.3544 25.5585 23.5765 24.3891 24.0205 23.3233C24.4942 22.2279 25.1455 21.2805 25.9745 20.4812C26.833 19.6819 27.8544 19.0602 29.0386 18.6161C30.2524 18.172 31.6142 17.95 33.1241 17.95C34.6635 17.95 36.0401 18.1572 37.2539 18.5717C38.4677 18.9862 39.4891 19.5783 40.3181 20.348C41.1766 21.0881 41.8131 21.9763 42.2276 23.0124C42.6716 24.0486 42.8937 25.1736 42.8937 26.3874C42.8937 27.4532 42.6568 28.4745 42.1832 29.4515C41.7391 30.3989 41.2358 31.2426 40.6733 31.9827C40.022 32.8413 39.2819 33.6406 38.4529 34.3807L33.1241 39.9316H42.8937Z" fill="url(#paint5_linear_8601_53324)"/>
</g>
<defs>
<filter id="filter0_dd_8601_53324" x="-1.33222" y="-1.33222" width="69.9967" height="68.6644" filterUnits="userSpaceOnUse" color-interpolation-filters="sRGB">
<feFlood flood-opacity="0" result="BackgroundImageFix"/>
<feColorMatrix in="SourceAlpha" type="matrix" values="0 0 0 0 0 0 0 0 0 0 0 0 0 0 0 0 0 0 127 0" result="hardAlpha"/>
<feOffset dx="1.33222"/>
<feGaussianBlur stdDeviation="0.666111"/>
<feColorMatrix type="matrix" values="0 0 0 0 0 0 0 0 0 0 0 0 0 0 0 0 0 0 0.07 0"/>
<feBlend mode="normal" in2="BackgroundImageFix" result="effect1_dropShadow_8601_53324"/>
<feColorMatrix in="SourceAlpha" type="matrix" values="0 0 0 0 0 0 0 0 0 0 0 0 0 0 0 0 0 0 127 0" result="hardAlpha"/>
<feOffset dx="-0.666111" dy="-0.666111"/>
<feGaussianBlur stdDeviation="0.333055"/>
<feColorMatrix type="matrix" values="0 0 0 0 1 0 0 0 0 1 0 0 0 0 1 0 0 0 0.29 0"/>
<feBlend mode="normal" in2="effect1_dropShadow_8601_53324" result="effect2_dropShadow_8601_53324"/>
<feBlend mode="normal" in="SourceGraphic" in2="effect2_dropShadow_8601_53324" result="shape"/>
</filter>
<filter id="filter1_d_8601_53324" x="5.59698" y="18.2448" width="15.8903" height="34.4279" filterUnits="userSpaceOnUse" color-interpolation-filters="sRGB">
<feFlood flood-opacity="0" result="BackgroundImageFix"/>
<feColorMatrix in="SourceAlpha" type="matrix" values="0 0 0 0 0 0 0 0 0 0 0 0 0 0 0 0 0 0 127 0" result="hardAlpha"/>
<feOffset dx="-0.666111"/>
<feGaussianBlur stdDeviation="0.333055"/>
<feColorMatrix type="matrix" values="0 0 0 0 0 0 0 0 0 0 0 0 0 0 0 0 0 0 0.16 0"/>
<feBlend mode="normal" in2="BackgroundImageFix" result="effect1_dropShadow_8601_53324"/>
<feBlend mode="normal" in="SourceGraphic" in2="effect1_dropShadow_8601_53324" result="shape"/>
</filter>
<filter id="filter2_d_8601_53324" x="43.6587" y="18.245" width="15.8644" height="34.4377" filterUnits="userSpaceOnUse" color-interpolation-filters="sRGB">
<feFlood flood-opacity="0" result="BackgroundImageFix"/>
<feColorMatrix in="SourceAlpha" type="matrix" values="0 0 0 0 0 0 0 0 0 0 0 0 0 0 0 0 0 0 127 0" result="hardAlpha"/>
<feOffset dx="-0.666111"/>
<feGaussianBlur stdDeviation="0.333055"/>
<feColorMatrix type="matrix" values="0 0 0 0 0 0 0 0 0 0 0 0 0 0 0 0 0 0 0.16 0"/>
<feBlend mode="normal" in2="BackgroundImageFix" result="effect1_dropShadow_8601_53324"/>
<feBlend mode="normal" in="SourceGraphic" in2="effect1_dropShadow_8601_53324" result="shape"/>
</filter>
<filter id="filter3_d_8601_53324" x="21.3562" y="16.6177" width="22.2036" height="30.8632" filterUnits="userSpaceOnUse" color-interpolation-filters="sRGB">
<feFlood flood-opacity="0" result="BackgroundImageFix"/>
<feColorMatrix in="SourceAlpha" type="matrix" values="0 0 0 0 0 0 0 0 0 0 0 0 0 0 0 0 0 0 127 0" result="hardAlpha"/>
<feOffset dx="-0.666111"/>
<feGaussianBlur stdDeviation="0.666111"/>
<feColorMatrix type="matrix" values="0 0 0 0 0 0 0 0 0 0 0 0 0 0 0 0 0 0 0.13 0"/>
<feBlend mode="normal" in2="BackgroundImageFix" result="effect1_dropShadow_8601_53324"/>
<feBlend mode="normal" in="SourceGraphic" in2="effect1_dropShadow_8601_53324" result="shape"/>
</filter>
<linearGradient id="paint0_linear_8601_53324" x1="12.87" y1="4.95" x2="52.47" y2="60.72" gradientUnits="userSpaceOnUse">
<stop stop-color="#ECA02E"/>
<stop offset="0.225655" stop-color="#E5A92A"/>
<stop offset="0.498557" stop-color="#FBCF58"/>
<stop offset="0.763325" stop-color="#E6A92A"/>
<stop offset="1" stop-color="#E6B41C"/>
</linearGradient>
<linearGradient id="paint1_linear_8601_53324" x1="12.87" y1="4.95" x2="52.47" y2="60.72" gradientUnits="userSpaceOnUse">
<stop stop-color="#ECA02E"/>
<stop offset="0.225655" stop-color="#E5A92A"/>
<stop offset="0.498557" stop-color="#FBCF58"/>
<stop offset="0.763325" stop-color="#E6A92A"/>
<stop offset="1" stop-color="#E6B41C"/>
</linearGradient>
<linearGradient id="paint2_linear_8601_53324" x1="13.53" y1="4.95" x2="54.78" y2="59.07" gradientUnits="userSpaceOnUse">
<stop stop-color="#EFBA4A"/>
<stop offset="1" stop-color="#EDB734"/>
</linearGradient>
<linearGradient id="paint3_linear_8601_53324" x1="13.5174" y1="19.5382" x2="21.203" y2="51.9429" gradientUnits="userSpaceOnUse">
<stop stop-color="#FACF45"/>
<stop offset="0.463542" stop-color="#FFE48B"/>
<stop offset="1" stop-color="#FFD042"/>
</linearGradient>
<linearGradient id="paint4_linear_8601_53324" x1="52.9186" y1="19.5381" x2="45.2753" y2="51.9529" gradientUnits="userSpaceOnUse">
<stop stop-color="#FBD149"/>
<stop offset="0.463542" stop-color="#F5D97F"/>
<stop offset="0.463642" stop-color="#F5D97F"/>
<stop offset="1" stop-color="#F8C250"/>
</linearGradient>
<linearGradient id="paint5_linear_8601_53324" x1="33.2325" y1="17.5955" x2="33.2325" y2="46.7362" gradientUnits="userSpaceOnUse">
<stop stop-color="#FFF8D7"/>
<stop offset="0.489583" stop-color="#FFF2B8"/>
<stop offset="1" stop-color="#FFF8D7"/>
</linearGradient>
</defs>
</svg>
