<svg width="66" height="66" viewBox="0 0 66 66" fill="none" xmlns="http://www.w3.org/2000/svg">
<mask id="mask0_8601_53348" style="mask-type:alpha" maskUnits="userSpaceOnUse" x="0" y="0" width="66" height="66">
<circle cx="33" cy="33" r="33" fill="url(#paint0_linear_8601_53348)"/>
</mask>
<g mask="url(#mask0_8601_53348)">
<circle cx="33" cy="33" r="33" fill="url(#paint1_linear_8601_53348)"/>
<g filter="url(#filter0_dd_8601_53348)">
<circle cx="33" cy="33" r="31.35" stroke="url(#paint2_linear_8601_53348)" stroke-width="3.3"/>
</g>
<g filter="url(#filter1_d_8601_53348)">
<path d="M13.7066 21.3857C13.5047 22.1747 12.9394 22.7001 12.2852 23.1467C12.2257 23.1909 12.1563 23.2776 12.132 23.3434C12.0071 23.9939 11.8749 24.6562 11.7333 25.3207C11.7001 25.5588 11.6669 25.797 11.6098 26.0609C11.8458 25.6241 12.0435 25.2366 12.253 24.8562C12.6188 24.2082 13.1065 23.6513 13.8465 23.3544C14.6171 23.0603 15.4235 22.9578 16.2354 23.0041C16.2566 23.0091 16.2778 23.014 16.3342 23.0406C16.2032 23.3722 16.1006 23.697 15.9533 24.0025C15.6587 24.6134 15.2658 25.1477 14.6693 25.5004C13.7878 26.0012 12.8616 26.2725 11.8715 26.3187C11.7818 26.3202 11.6708 26.3166 11.6023 26.323C11.4238 27.7971 11.3377 29.2392 11.3906 30.7182C11.5121 30.3888 11.5981 30.078 11.7174 29.7392C11.978 28.9862 12.3817 28.3292 13.0995 27.8975C13.6252 27.5417 14.2154 27.3306 14.845 27.2003C15.0556 27.16 15.2518 27.1432 15.5003 27.0939C15.4477 27.3767 15.4236 27.6528 15.3619 27.8977C15.2154 28.5834 14.9511 29.2372 14.4214 29.7441C13.8152 30.3493 13.0455 30.7734 12.2185 31.041C11.9484 31.1255 11.6737 31.1911 11.3919 31.2684C11.4637 32.7429 11.6135 34.2087 11.8865 35.6451C11.9226 35.5864 11.9257 35.5156 11.9522 35.4592C11.9719 35.1642 12.0154 34.8435 12.0612 34.5322C12.2099 33.6458 12.5982 32.8824 13.3668 32.3284C13.8785 31.9559 14.4295 31.6642 15.022 31.4626C15.1406 31.4143 15.2543 31.3871 15.3539 31.3433C15.3675 31.4001 15.3743 31.4285 15.3644 31.4709C15.3794 31.6175 15.3944 31.7641 15.3737 31.9292C15.3807 32.8385 15.204 33.6916 14.6132 34.4033C13.9768 35.1759 13.182 35.7461 12.2639 36.1356C12.1832 36.1749 12.0836 36.2187 11.9722 36.2553C12.2542 37.7296 12.7044 39.1537 13.2516 40.5646C13.2666 40.0405 13.255 39.5728 13.2456 39.1145C13.2718 38.4275 13.4649 37.8108 13.8556 37.267C14.3869 36.5996 15.0275 36.0962 15.771 35.6884C15.835 35.6631 15.8945 35.6189 16.0181 35.5493C16.0941 35.9516 16.1539 36.3277 16.202 36.6967C16.2304 37.3606 16.1808 38.0331 15.8605 38.6202C15.3258 39.6088 14.578 40.418 13.5965 41.0028C13.5631 41.0308 13.5108 41.0633 13.468 41.0936C14.0449 42.3773 14.6767 43.5979 15.42 44.7818C15.4036 44.5455 15.3258 44.3038 15.2928 44.0814C15.1732 43.3291 15.1221 42.5705 15.4698 41.8468C15.7428 41.2711 16.1425 40.7652 16.5865 40.3188C16.8416 40.0877 17.0801 39.8705 17.3659 39.6421C17.4165 39.7702 17.477 39.8558 17.5136 39.9672C17.8629 40.8849 18.0728 41.8058 17.7627 42.7708C17.5016 43.5639 17.0809 44.275 16.5405 44.9046C16.3467 45.1411 16.1249 45.3442 15.9217 45.583C16.6256 46.6862 17.4409 47.7528 18.309 48.7468C18.3143 48.6855 18.3008 48.6286 18.2683 48.5763C18.1675 48.2801 18.0527 47.9671 17.9568 47.6496C17.7882 47.0693 17.7684 46.4834 17.9565 45.8878C18.1599 45.1886 18.4992 44.597 18.9327 44.023C19.0836 43.8168 19.2486 43.6272 19.4564 43.4074C19.8632 44.021 20.178 44.6265 20.3386 45.2989C20.4313 45.6872 20.4672 46.0891 20.4111 46.4829C20.2391 47.5651 19.8199 48.5762 19.1444 49.4783C19.0632 49.5577 19.0768 49.6145 19.1445 49.6885C19.892 50.471 20.6494 51.2111 21.4874 51.9119C21.4897 51.9214 21.4163 52.1591 20.5199 51.8426C20.2838 51.6087 20.0288 51.3793 19.7905 51.1359C19.3423 50.6423 18.8444 50.1505 18.3917 49.638C18.2915 49.5118 18.2066 49.492 18.0452 49.5706C17.0816 50.021 16.0403 50.2296 14.9875 50.1807C14.2108 50.156 13.5457 49.8443 12.9604 49.3634C12.672 49.162 12.4477 48.9353 12.1927 48.7059C12.1647 48.6725 12.1413 48.6581 12.1088 48.6058C12.1232 48.5824 12.1565 48.5544 12.166 48.5521C12.9217 48.1114 13.7162 47.7915 14.5984 47.6709C15.4616 47.5548 16.2263 47.8227 16.942 48.2624C17.1085 48.3728 17.2705 48.4643 17.4749 48.5656C17.4234 48.5178 17.3954 48.4845 17.3629 48.4322C16.6031 47.4724 15.8839 46.4729 15.2621 45.4201C15.1948 45.3061 15.1312 45.2912 15.027 45.3161C14.0178 45.6172 13.002 45.6396 11.9839 45.4422C11.185 45.2827 10.5875 44.8347 10.0598 44.26C9.81697 43.9977 9.60748 43.7073 9.35107 43.3882C9.67801 43.2901 9.97654 43.1987 10.2584 43.1214C10.8528 42.9695 11.4391 42.9095 12.0575 42.942C12.8672 42.9789 13.5196 43.3637 14.128 43.8991C14.2639 44.0068 14.3853 44.138 14.5071 44.229C13.9457 43.0517 13.3892 41.8532 12.8394 40.6831C12.3554 40.6685 11.8381 40.682 11.3216 40.6151C10.548 40.5196 9.8131 40.3347 9.16147 39.8697C8.58701 39.4763 7.87233 38.4958 7.66439 37.8347C7.68333 37.8301 7.68107 37.8207 7.70001 37.8161C8.70798 37.6355 9.72147 37.6037 10.6906 37.9729C11.3001 38.1777 11.7347 38.6144 12.1194 39.0932C12.2173 39.2099 12.313 39.3172 12.4182 39.4222C12.0295 38.2137 11.7142 36.9776 11.5433 35.717C10.8825 35.6746 10.2699 35.5406 9.66532 35.3146C8.78555 34.9842 8.018 34.5368 7.52397 33.6837C7.27604 33.2324 7.09439 32.7653 6.97904 32.2823C6.96547 32.2254 6.95416 32.1781 6.92928 32.0739C7.42232 32.1263 7.85895 32.1522 8.30463 32.216C8.90099 32.3238 9.47756 32.5164 10.01 32.8598C10.4554 33.1739 10.7602 33.6116 11.0199 34.0702C11.1476 34.2699 11.2515 34.4953 11.3721 34.7068C11.3752 34.636 11.3851 34.5936 11.3738 34.5462C11.212 33.3235 11.1304 32.1017 11.1196 30.883C11.1046 30.7364 11.0888 30.6701 10.9593 30.6309C9.89692 30.3741 8.99764 29.8781 8.21186 29.1448C7.67656 28.622 7.43343 27.9392 7.3062 27.2389C7.25955 26.9597 7.2269 26.6972 7.19014 26.3756C7.56458 26.4764 7.9345 26.5582 8.29494 26.6423C8.99378 26.8859 9.66111 27.207 10.1698 27.7863C10.5761 28.2298 10.7686 28.7845 10.9327 29.3459C10.9946 29.5213 11.0354 29.6918 11.0995 29.8767C11.1216 29.8014 11.1292 29.7495 11.1296 29.7093C11.1644 28.4297 11.2722 27.1626 11.491 25.8991C11.5018 25.7764 11.4882 25.7196 11.3659 25.6687C10.4514 25.2764 9.69273 24.6568 9.06074 23.8967C8.56911 23.2633 8.41843 22.5485 8.41248 21.7691C8.38703 21.4949 8.42067 21.2166 8.42589 20.9451L8.44031 20.9216C9.00741 21.1165 9.57367 21.3917 10.0872 21.7396C10.8467 22.2789 11.3564 22.9881 11.4599 23.9244C11.5269 24.2888 11.5678 24.6695 11.6298 25.0551C11.6469 25.0009 11.6424 24.982 11.6545 24.9491C11.7953 24.3648 11.9456 23.7784 12.0886 23.2036C12.0917 23.1328 12.0714 23.0476 12.0601 23.0002C11.9424 22.5078 11.8483 22.0297 11.8841 21.5507C11.8978 21.147 11.9561 20.7627 12.1674 20.4319C12.3963 20.0069 12.7114 19.6914 13.0688 19.3857C13.2667 19.2083 13.443 19.0661 13.6264 18.9122C13.6454 18.9077 13.6973 18.9153 13.7162 18.9108C13.738 19.0858 13.7336 19.277 13.7766 19.457C13.8902 20.1005 13.874 20.7451 13.7066 21.3857Z" fill="url(#paint3_linear_8601_53348)"/>
</g>
<g filter="url(#filter2_d_8601_53348)">
<path d="M52.7322 21.3861C52.9352 22.1749 53.5011 22.6996 54.1559 23.1452C54.2154 23.1894 54.285 23.276 54.3093 23.3418C54.4351 23.9921 54.5682 24.6542 54.7107 25.3185C54.7442 25.5566 54.7777 25.7948 54.8352 26.0586C54.5985 25.6221 54.4003 25.2348 54.1903 24.8547C53.8237 24.2072 53.3353 23.6509 52.5949 23.355C51.8239 23.0619 51.0174 22.9605 50.2055 23.0079C50.1843 23.0128 50.1631 23.0178 50.1067 23.0445C50.2382 23.3759 50.3412 23.7006 50.4889 24.0059C50.7843 24.6164 51.1779 25.1502 51.7749 25.5021C52.657 26.0018 53.5836 26.2718 54.5737 26.3168C54.6635 26.3181 54.7744 26.3144 54.843 26.3206C55.0234 27.7946 55.1114 29.2365 55.0604 30.7155C54.9384 30.3863 54.8521 30.0756 54.7323 29.737C54.4707 28.9843 54.0662 28.3278 53.3478 27.8971C52.8217 27.542 52.2311 27.3317 51.6014 27.2022C51.3907 27.1622 51.1945 27.1456 50.946 27.0966C50.9989 27.3794 51.0234 27.6554 51.0854 27.9003C51.2328 28.5858 51.498 29.2392 52.0283 29.7454C52.6353 30.3499 53.4056 30.7729 54.2329 31.0394C54.5032 31.1236 54.7779 31.1889 55.0599 31.2658C54.99 32.7403 54.842 34.2063 54.5709 35.6431C54.5348 35.5845 54.5316 35.5137 54.505 35.4573C54.4849 35.1623 54.441 34.8417 54.3948 34.5305C54.2449 33.6442 53.8557 32.8813 53.0863 32.3284C52.5741 31.9566 52.0227 31.6655 51.4299 31.4647C51.3113 31.4165 51.1976 31.3895 51.0979 31.3459C51.0844 31.4027 51.0776 31.4311 51.0876 31.4735C51.0728 31.6201 51.058 31.7667 51.0789 31.9318C51.0731 32.8411 51.2509 33.6939 51.8427 34.4049C52.48 35.1767 53.2756 35.7458 54.1942 36.1341C54.2749 36.1733 54.3746 36.217 54.4861 36.2534C54.206 37.7281 53.7576 39.1528 53.2123 40.5644C53.1966 40.0403 53.2076 39.5726 53.2163 39.1143C53.1893 38.4274 52.9954 37.8109 52.604 37.2676C52.0718 36.6009 51.4306 36.0984 50.6865 35.6915C50.6225 35.6663 50.5629 35.6221 50.4393 35.5527C50.3637 35.9551 50.3044 36.3313 50.2569 36.7003C50.2293 37.3643 50.2798 38.0368 50.6008 38.6234C51.1369 39.6113 51.8856 40.4196 52.8679 41.0031C52.9013 41.031 52.9537 41.0635 52.9965 41.0936C52.4214 42.3781 51.7911 43.5995 51.0494 44.7844C51.0655 44.5481 51.1429 44.3063 51.1757 44.0839C51.2943 43.3315 51.3444 42.5728 50.9957 41.8495C50.722 41.2741 50.3216 40.7687 49.8771 40.3229C49.6216 40.0922 49.3829 39.8754 49.0968 39.6473C49.0463 39.7754 48.986 39.8612 48.9495 39.9726C48.6014 40.8907 48.3927 41.8119 48.7041 42.7765C48.9662 43.5693 49.3879 44.2798 49.9291 44.9087C50.1232 45.145 50.3452 45.3478 50.5488 45.5863C49.8463 46.6904 49.0324 47.7581 48.1656 48.7532C48.1602 48.6919 48.1736 48.635 48.2061 48.5827C48.3065 48.2863 48.4209 47.9732 48.5163 47.6556C48.6842 47.075 48.7032 46.4891 48.5143 45.8938C48.31 45.1948 47.97 44.6037 47.5357 44.0302C47.3845 43.8242 47.2193 43.6348 47.0112 43.4153C46.6052 44.0294 46.2912 44.6354 46.1315 45.308C46.0393 45.6964 46.0039 46.0983 46.0605 46.4921C46.2339 47.574 46.6545 48.5846 47.3312 49.4858C47.4124 49.5651 47.3989 49.622 47.3313 49.696C46.5848 50.4794 45.8284 51.2205 44.9913 51.9224C44.989 51.9319 45.0627 52.1696 45.9587 51.8519C46.1945 51.6177 46.4492 51.3879 46.6872 51.1442C47.1348 50.6501 47.632 50.1577 48.0841 49.6445C48.1841 49.5182 48.2689 49.4983 48.4304 49.5767C49.3946 50.0258 50.4362 50.233 51.4889 50.1828C52.2656 50.157 52.9303 49.8445 53.515 49.3629C53.8031 49.1611 54.0271 48.934 54.2818 48.7043C54.3097 48.6709 54.3332 48.6565 54.3656 48.6041C54.3512 48.5807 54.3178 48.5527 54.3083 48.5505C53.5521 48.1107 52.7571 47.7919 51.8748 47.6724C51.0114 47.5575 50.2471 47.8264 49.532 48.267C49.3656 48.3776 49.2037 48.4693 48.9995 48.5709C49.0509 48.5231 49.0788 48.4897 49.1113 48.4373C49.8698 47.4766 50.5877 46.4762 51.2081 45.4226C51.2753 45.3084 51.3388 45.2935 51.443 45.3182C52.4527 45.618 53.4685 45.639 54.4864 45.4404C55.2851 45.2798 55.882 44.8311 56.4089 44.2556C56.6514 43.993 56.8605 43.7024 57.1165 43.3829C56.7894 43.2852 56.4908 43.1943 56.2088 43.1173C55.6142 42.9661 55.0278 42.907 54.4095 42.9403C53.5999 42.9782 52.9479 43.3638 52.3402 43.9C52.2045 44.0079 52.0833 44.1392 51.9615 44.2304C52.5215 43.0524 53.0764 41.8532 53.6246 40.6824C54.1086 40.6672 54.6259 40.6799 55.1423 40.6124C55.9158 40.5158 56.6505 40.33 57.3015 39.8641C57.8754 39.47 58.5888 38.4885 58.7959 37.8272C58.777 37.8227 58.7792 37.8132 58.7603 37.8087C57.7521 37.6293 56.7385 37.5989 55.7699 37.9693C55.1607 38.1749 54.7266 38.6123 54.3426 39.0915C54.2448 39.2084 54.1492 39.3158 54.0442 39.421C54.4313 38.2119 54.745 36.9754 54.9142 35.7146C55.575 35.6713 56.1874 35.5365 56.7917 35.3097C57.671 34.9781 58.438 34.5298 58.9309 33.6761C59.1782 33.2244 59.3593 32.757 59.474 32.2739C59.4875 32.217 59.4987 32.1697 59.5235 32.0655C59.0305 32.1185 58.5939 32.145 58.1483 32.2093C57.5521 32.3179 56.9758 32.5113 56.4438 32.8554C55.9988 33.17 55.6946 33.6082 55.4355 34.067C55.308 34.2669 55.2044 34.4925 55.0841 34.7041C55.0809 34.6333 55.0709 34.5909 55.0822 34.5436C55.2425 33.3207 55.3224 32.0987 55.3316 30.88C55.3464 30.7334 55.3621 30.6671 55.4916 30.6278C56.5536 30.3696 57.4523 29.8724 58.2371 29.138C58.7717 28.6145 59.0139 27.9315 59.1402 27.2309C59.1865 26.9517 59.2188 26.6891 59.2552 26.3675C58.8809 26.4688 58.5111 26.5511 58.1507 26.6357C57.4522 26.8801 56.7853 27.2021 56.2773 27.7821C55.8717 28.2261 55.6799 28.781 55.5165 29.3427C55.4548 29.5182 55.4143 29.6887 55.3504 29.8737C55.3282 29.7984 55.3205 29.7465 55.32 29.7064C55.2836 28.4268 55.1741 27.1598 54.9537 25.8966C54.9428 25.7739 54.9563 25.7171 55.0785 25.666C55.9925 25.2726 56.7503 24.6519 57.3813 23.8911C57.8721 23.257 58.0219 22.542 58.0268 21.7626C58.0519 21.4884 58.0179 21.2101 58.0123 20.9386L57.9979 20.9151C57.431 21.1108 56.8651 21.3867 56.3521 21.7352C55.5933 22.2756 55.0845 22.9854 54.9822 23.9219C54.9157 24.2864 54.8753 24.6671 54.8138 25.0528C54.7966 24.9987 54.8011 24.9797 54.7889 24.9468C54.6474 24.3628 54.4964 23.7765 54.3526 23.2019C54.3494 23.1311 54.3696 23.0459 54.3809 22.9985C54.4978 22.5059 54.5913 22.0277 54.555 21.5487C54.5407 21.145 54.4819 20.7608 54.2701 20.4303C54.0407 20.0056 53.7252 19.6905 53.3674 19.3853C53.1692 19.2082 52.9928 19.0662 52.8091 18.9125C52.7902 18.908 52.7383 18.9157 52.7194 18.9112C52.6978 19.0862 52.7024 19.2775 52.6597 19.4575C52.5469 20.1012 52.564 20.7457 52.7322 21.3861Z" fill="url(#paint4_linear_8601_53348)"/>
</g>
</g>
<g filter="url(#filter3_d_8601_53348)">
<path d="M22.7882 26.1289C22.8468 25.0729 23.1108 24.0756 23.5802 23.1369C24.0788 22.1689 24.7535 21.3329 25.6042 20.6289C26.4548 19.8956 27.4668 19.3089 28.6402 18.8689C29.8428 18.4289 31.1922 18.2089 32.6882 18.2089C34.1842 18.2089 35.5188 18.4289 36.6922 18.8689C37.8948 19.2796 38.9068 19.8516 39.7282 20.5849C40.5788 21.2889 41.2242 22.1103 41.6642 23.0489C42.1335 23.9583 42.3682 24.9116 42.3682 25.9089C42.3682 26.9063 42.1628 27.7716 41.7522 28.5049C41.3708 29.2089 40.9455 29.7956 40.4762 30.2649C39.9482 30.7929 39.3322 31.2476 38.6282 31.6289C39.4495 32.0103 40.1828 32.5089 40.8282 33.1249C41.3855 33.6529 41.8842 34.3569 42.3242 35.2369C42.7935 36.1169 43.0282 37.1876 43.0282 38.4489C43.0282 39.5049 42.7935 40.5169 42.3242 41.4849C41.8842 42.4236 41.2242 43.2596 40.3442 43.9929C39.4935 44.6969 38.4375 45.2689 37.1762 45.7089C35.9148 46.1489 34.4922 46.3689 32.9082 46.3689C31.3242 46.3689 29.9015 46.1489 28.6402 45.7089C27.3788 45.2689 26.3082 44.6823 25.4282 43.9489C24.5482 43.2156 23.8588 42.3649 23.3602 41.3969C22.8908 40.3996 22.6268 39.3436 22.5682 38.2289L28.9482 37.7889C29.0655 38.5516 29.4322 39.2263 30.0482 39.8129C30.6935 40.3703 31.5735 40.6489 32.6882 40.6489C33.9202 40.6489 34.8442 40.3556 35.4602 39.7689C36.1055 39.1823 36.4282 38.4489 36.4282 37.5689C36.4282 36.8063 36.0908 36.1463 35.4162 35.5889C34.7708 35.0023 33.7882 34.7089 32.4682 34.7089H29.8282V29.4289H32.4682C33.7002 29.4289 34.5948 29.1796 35.1522 28.6809C35.7095 28.1823 35.9882 27.5516 35.9882 26.7889C35.9882 26.0263 35.6802 25.3663 35.0642 24.8089C34.4482 24.2223 33.5828 23.9289 32.4682 23.9289C31.4708 23.9289 30.6935 24.1783 30.1362 24.6769C29.6082 25.1756 29.2855 25.8063 29.1682 26.5689L22.7882 26.1289Z" fill="url(#paint5_linear_8601_53348)"/>
</g>
<defs>
<filter id="filter0_dd_8601_53348" x="-1.32" y="-1.32" width="69.96" height="68.64" filterUnits="userSpaceOnUse" color-interpolation-filters="sRGB">
<feFlood flood-opacity="0" result="BackgroundImageFix"/>
<feColorMatrix in="SourceAlpha" type="matrix" values="0 0 0 0 0 0 0 0 0 0 0 0 0 0 0 0 0 0 127 0" result="hardAlpha"/>
<feOffset dx="1.32"/>
<feGaussianBlur stdDeviation="0.66"/>
<feColorMatrix type="matrix" values="0 0 0 0 0 0 0 0 0 0 0 0 0 0 0 0 0 0 0.07 0"/>
<feBlend mode="normal" in2="BackgroundImageFix" result="effect1_dropShadow_8601_53348"/>
<feColorMatrix in="SourceAlpha" type="matrix" values="0 0 0 0 0 0 0 0 0 0 0 0 0 0 0 0 0 0 127 0" result="hardAlpha"/>
<feOffset dx="-0.66" dy="-0.66"/>
<feGaussianBlur stdDeviation="0.33"/>
<feColorMatrix type="matrix" values="0 0 0 0 1 0 0 0 0 1 0 0 0 0 1 0 0 0 0.29 0"/>
<feBlend mode="normal" in2="effect1_dropShadow_8601_53348" result="effect2_dropShadow_8601_53348"/>
<feBlend mode="normal" in="SourceGraphic" in2="effect2_dropShadow_8601_53348" result="shape"/>
</filter>
<filter id="filter1_d_8601_53348" x="5.6092" y="18.2506" width="15.8783" height="34.4157" filterUnits="userSpaceOnUse" color-interpolation-filters="sRGB">
<feFlood flood-opacity="0" result="BackgroundImageFix"/>
<feColorMatrix in="SourceAlpha" type="matrix" values="0 0 0 0 0 0 0 0 0 0 0 0 0 0 0 0 0 0 127 0" result="hardAlpha"/>
<feOffset dx="-0.66"/>
<feGaussianBlur stdDeviation="0.33"/>
<feColorMatrix type="matrix" values="0 0 0 0 0 0 0 0 0 0 0 0 0 0 0 0 0 0 0.16 0"/>
<feBlend mode="normal" in2="BackgroundImageFix" result="effect1_dropShadow_8601_53348"/>
<feBlend mode="normal" in="SourceGraphic" in2="effect1_dropShadow_8601_53348" result="shape"/>
</filter>
<filter id="filter2_d_8601_53348" x="43.6712" y="18.2511" width="15.8522" height="34.4255" filterUnits="userSpaceOnUse" color-interpolation-filters="sRGB">
<feFlood flood-opacity="0" result="BackgroundImageFix"/>
<feColorMatrix in="SourceAlpha" type="matrix" values="0 0 0 0 0 0 0 0 0 0 0 0 0 0 0 0 0 0 127 0" result="hardAlpha"/>
<feOffset dx="-0.66"/>
<feGaussianBlur stdDeviation="0.33"/>
<feColorMatrix type="matrix" values="0 0 0 0 0 0 0 0 0 0 0 0 0 0 0 0 0 0 0.16 0"/>
<feBlend mode="normal" in2="BackgroundImageFix" result="effect1_dropShadow_8601_53348"/>
<feBlend mode="normal" in="SourceGraphic" in2="effect1_dropShadow_8601_53348" result="shape"/>
</filter>
<filter id="filter3_d_8601_53348" x="20.5881" y="16.889" width="23.1" height="30.7999" filterUnits="userSpaceOnUse" color-interpolation-filters="sRGB">
<feFlood flood-opacity="0" result="BackgroundImageFix"/>
<feColorMatrix in="SourceAlpha" type="matrix" values="0 0 0 0 0 0 0 0 0 0 0 0 0 0 0 0 0 0 127 0" result="hardAlpha"/>
<feOffset dx="-0.66"/>
<feGaussianBlur stdDeviation="0.66"/>
<feColorMatrix type="matrix" values="0 0 0 0 0 0 0 0 0 0 0 0 0 0 0 0 0 0 0.13 0"/>
<feBlend mode="normal" in2="BackgroundImageFix" result="effect1_dropShadow_8601_53348"/>
<feBlend mode="normal" in="SourceGraphic" in2="effect1_dropShadow_8601_53348" result="shape"/>
</filter>
<linearGradient id="paint0_linear_8601_53348" x1="12.87" y1="4.95" x2="52.47" y2="60.72" gradientUnits="userSpaceOnUse">
<stop stop-color="#ECA02E"/>
<stop offset="0.225655" stop-color="#E5A92A"/>
<stop offset="0.498557" stop-color="#FBCF58"/>
<stop offset="0.763325" stop-color="#E6A92A"/>
<stop offset="1" stop-color="#E6B41C"/>
</linearGradient>
<linearGradient id="paint1_linear_8601_53348" x1="12.87" y1="4.95" x2="52.47" y2="60.72" gradientUnits="userSpaceOnUse">
<stop stop-color="#ECA02E"/>
<stop offset="0.225655" stop-color="#E5A92A"/>
<stop offset="0.498557" stop-color="#FBCF58"/>
<stop offset="0.763325" stop-color="#E6A92A"/>
<stop offset="1" stop-color="#E6B41C"/>
</linearGradient>
<linearGradient id="paint2_linear_8601_53348" x1="13.53" y1="4.95" x2="54.78" y2="59.07" gradientUnits="userSpaceOnUse">
<stop stop-color="#EFBA4A"/>
<stop offset="1" stop-color="#EDB734"/>
</linearGradient>
<linearGradient id="paint3_linear_8601_53348" x1="13.5175" y1="19.538" x2="21.2032" y2="51.9427" gradientUnits="userSpaceOnUse">
<stop stop-color="#FACF45"/>
<stop offset="0.463542" stop-color="#FFE48B"/>
<stop offset="1" stop-color="#FFD042"/>
</linearGradient>
<linearGradient id="paint4_linear_8601_53348" x1="52.9188" y1="19.5381" x2="45.2756" y2="51.9529" gradientUnits="userSpaceOnUse">
<stop stop-color="#FBD149"/>
<stop offset="0.463542" stop-color="#F5D97F"/>
<stop offset="0.463642" stop-color="#F5D97F"/>
<stop offset="1" stop-color="#F8C250"/>
</linearGradient>
<linearGradient id="paint5_linear_8601_53348" x1="33.0104" y1="17.5958" x2="33.0104" y2="46.7365" gradientUnits="userSpaceOnUse">
<stop stop-color="#FFF8D7"/>
<stop offset="0.489583" stop-color="#FFF2B8"/>
<stop offset="1" stop-color="#FFF8D7"/>
</linearGradient>
</defs>
</svg>
