<svg width="222" height="48" viewBox="0 0 222 48" fill="none" xmlns="http://www.w3.org/2000/svg">
<g clip-path="url(#clip0_9759_52085)">
<path d="M66.6297 24.4395C64.8195 23.8334 63.5072 23.0986 62.6925 22.235C61.8932 21.3713 61.4934 20.3258 61.4934 19.0985C61.4934 17.7197 61.9535 16.6288 62.8736 15.8258C63.7938 15.0227 65.0835 14.6212 66.7429 14.6212C68.1457 14.6212 69.3675 14.7803 70.4084 15.0985C70.7704 15.2046 71.0571 15.4243 71.2683 15.7576C71.4944 16.0758 71.6075 16.4318 71.6075 16.8258V17.0303C71.6075 17.3182 71.4793 17.5455 71.223 17.7122C70.9665 17.8637 70.7026 17.8863 70.431 17.7804C69.2996 17.341 68.1457 17.1212 66.969 17.1212C66.2149 17.1212 65.6416 17.2954 65.2494 17.6439C64.8572 17.9924 64.6612 18.4772 64.6612 19.0985C64.6612 20.1895 65.3701 20.9698 66.7882 21.4395C68.8246 22.091 70.2349 22.8334 71.0193 23.6667C71.8187 24.5 72.2185 25.5759 72.2185 26.894C72.2185 30.0759 70.2651 31.6668 66.3582 31.6668C65.1363 31.6668 64.0276 31.4775 63.032 31.0987C62.6699 30.9622 62.3835 30.7275 62.1723 30.3941C61.9762 30.0608 61.8781 29.6895 61.8781 29.2805V29.0078C61.8781 28.7199 61.9988 28.5152 62.2402 28.394C62.4814 28.2578 62.7303 28.2502 62.9867 28.3714C63.9824 28.8713 65.0307 29.1214 66.1319 29.1214C68.0476 29.1214 69.0056 28.394 69.0056 26.9395C69.0056 26.3486 68.8246 25.8638 68.4625 25.4849C68.1004 25.091 67.4895 24.7426 66.6297 24.4395Z" fill="white"/>
<path d="M74.8378 22.2804C74.5361 22.2804 74.2796 22.1742 74.0684 21.9622C73.8572 21.7349 73.7518 21.4697 73.7518 21.1668C73.7518 20.8637 73.8572 20.6062 74.0684 20.394C74.2796 20.1819 74.5361 20.0758 74.8378 20.0758H75.9239C76.0595 20.0758 76.1274 20.0076 76.1274 19.8713V17.053C76.1274 16.7045 76.2481 16.4015 76.4895 16.1439C76.7459 15.8863 77.0477 15.7576 77.3946 15.7576H77.8472C78.1942 15.7576 78.4957 15.8863 78.7522 16.1439C79.0086 16.4015 79.1369 16.7045 79.1369 17.053V19.8713C79.1369 20.0076 79.2047 20.0758 79.3405 20.0758H81.92C82.2217 20.0758 82.4782 20.1819 82.6894 20.394C82.9155 20.6062 83.0286 20.8637 83.0286 21.1668C83.0286 21.4697 82.9155 21.7349 82.6894 21.9622C82.4782 22.1742 82.2217 22.2804 81.92 22.2804H79.3405C79.2047 22.2804 79.1369 22.341 79.1369 22.4622V27.0531C79.1369 28.038 79.2425 28.6743 79.4537 28.9623C79.6649 29.2501 80.1023 29.3941 80.7659 29.3941C81.128 29.3941 81.3995 29.3789 81.5806 29.3487C81.8823 29.3184 82.1463 29.3864 82.3726 29.5532C82.5989 29.7198 82.712 29.9472 82.712 30.235C82.712 30.5682 82.5989 30.8713 82.3726 31.1441C82.1614 31.4017 81.8974 31.5456 81.5806 31.5759C80.9168 31.6366 80.4191 31.6668 80.0873 31.6668C78.6239 31.6668 77.5983 31.3561 77.0099 30.735C76.4216 30.0987 76.1274 28.9698 76.1274 27.3486V22.4622C76.1274 22.341 76.0595 22.2804 75.9239 22.2804H74.8378Z" fill="white"/>
<path d="M87.4508 31.4397C87.1038 31.4397 86.8021 31.3108 86.5458 31.0533C86.2894 30.7956 86.1611 30.4927 86.1611 30.1442V20.9167C86.1611 20.5684 86.2894 20.2653 86.5458 20.0076C86.8021 19.7501 87.1038 19.6212 87.4508 19.6212H87.9034C88.2503 19.6212 88.552 19.7501 88.8085 20.0076C89.0648 20.2653 89.193 20.5684 89.193 20.9167V21.8714C89.193 21.8865 89.2006 21.894 89.2156 21.894C89.2458 21.894 89.2609 21.8865 89.2609 21.8714C89.6984 21.2652 90.2716 20.7729 90.9807 20.394C91.6895 20.0001 92.4664 19.7577 93.3112 19.6668C93.6279 19.6365 93.8994 19.7426 94.1257 19.985C94.352 20.2123 94.4651 20.4849 94.4651 20.8032C94.4651 21.1214 94.352 21.3941 94.1257 21.6213C93.8994 21.8486 93.6279 21.9773 93.3112 22.0077C90.6412 22.2197 89.3062 23.5834 89.3062 26.0986V30.1442C89.3062 30.4927 89.1779 30.7956 88.9216 31.0533C88.6652 31.3108 88.3635 31.4397 88.0165 31.4397H87.4508Z" fill="white"/>
<path d="M101.498 21.5076C100.729 21.5076 100.133 21.7274 99.7105 22.1667C99.3032 22.591 99.0467 23.2803 98.9411 24.235C98.9411 24.3562 99.0015 24.4167 99.1222 24.4167H103.557C103.678 24.4167 103.738 24.3562 103.738 24.235C103.678 22.4167 102.931 21.5076 101.498 21.5076ZM102.064 31.6668C100.088 31.6668 98.564 31.1516 97.4931 30.1214C96.4371 29.076 95.9092 27.5456 95.9092 25.5305C95.9092 23.5304 96.3843 22.0076 97.3347 20.9623C98.2851 19.9167 99.6577 19.394 101.453 19.394C104.802 19.394 106.521 21.3031 106.612 25.1213C106.627 25.4849 106.499 25.788 106.227 26.0304C105.955 26.2728 105.639 26.394 105.277 26.394H99.0995C98.9638 26.394 98.911 26.4622 98.9411 26.5987C99.0467 27.6137 99.3786 28.3562 99.9368 28.8259C100.51 29.2805 101.34 29.5078 102.426 29.5078C103.104 29.5078 103.859 29.3942 104.688 29.1668C104.96 29.0911 105.209 29.1365 105.435 29.3031C105.676 29.4699 105.797 29.6971 105.797 29.9851C105.797 30.3336 105.691 30.644 105.48 30.9168C105.284 31.1744 105.02 31.3335 104.688 31.394C103.844 31.5759 102.969 31.6668 102.064 31.6668Z" fill="white"/>
<path d="M114.597 25.7576C112.44 25.7576 111.361 26.4243 111.361 27.7577C111.361 28.2425 111.497 28.6364 111.768 28.9395C112.055 29.2426 112.417 29.3942 112.854 29.3942C113.714 29.3942 114.408 29.129 114.936 28.5986C115.464 28.0532 115.728 27.3108 115.728 26.3714V25.9623C115.728 25.8259 115.66 25.7576 115.524 25.7576H114.597ZM112.04 31.6668C111.014 31.6668 110.162 31.3335 109.483 30.6668C108.819 29.9851 108.487 29.1062 108.487 28.0304C108.487 26.7123 108.985 25.6896 109.981 24.9622C110.992 24.235 112.53 23.8712 114.597 23.8712H115.524C115.66 23.8712 115.728 23.8032 115.728 23.6667V23.485C115.728 22.788 115.562 22.3032 115.23 22.0304C114.898 21.7424 114.31 21.5986 113.465 21.5986C112.59 21.5986 111.519 21.7577 110.252 22.0759C109.981 22.1516 109.732 22.1062 109.506 21.9394C109.279 21.7577 109.166 21.5228 109.166 21.2348C109.166 20.8865 109.272 20.5759 109.483 20.3031C109.694 20.0151 109.966 19.841 110.298 19.7804C111.444 19.5228 112.523 19.394 113.533 19.394C115.464 19.394 116.814 19.7426 117.583 20.4394C118.353 21.1364 118.737 22.3562 118.737 24.0986V30.1442C118.737 30.4927 118.609 30.7956 118.353 31.0532C118.111 31.3107 117.817 31.4396 117.47 31.4396H117.221C116.859 31.4396 116.55 31.3184 116.294 31.0759C116.037 30.8184 115.901 30.5078 115.886 30.1442V29.826C115.886 29.8107 115.879 29.8032 115.864 29.8032C115.834 29.8032 115.818 29.8107 115.818 29.826C114.898 31.0532 113.639 31.6668 112.04 31.6668Z" fill="white"/>
<path d="M123.004 31.4396C122.657 31.4396 122.355 31.3107 122.099 31.0532C121.857 30.7956 121.737 30.4927 121.737 30.1442V20.9167C121.737 20.5683 121.857 20.2652 122.099 20.0076C122.355 19.7501 122.657 19.6212 123.004 19.6212H123.32C123.667 19.6212 123.961 19.7426 124.203 19.985C124.459 20.2274 124.595 20.5227 124.61 20.8712V21.0303C124.61 21.0456 124.618 21.0531 124.633 21.0531C124.663 21.0531 124.678 21.0456 124.678 21.0303C125.568 19.9395 126.571 19.394 127.687 19.394C128.366 19.394 128.909 19.5228 129.317 19.7804C129.739 20.0379 130.108 20.4926 130.425 21.144C130.425 21.1592 130.44 21.1668 130.47 21.1668C130.486 21.1668 130.501 21.1592 130.516 21.144C131.466 19.9774 132.537 19.394 133.729 19.394C134.981 19.394 135.878 19.7348 136.421 20.4168C136.979 21.0986 137.259 22.2728 137.259 23.9395V30.1442C137.259 30.4927 137.13 30.7956 136.874 31.0532C136.632 31.3107 136.338 31.4396 135.991 31.4396H135.607C135.26 31.4396 134.958 31.3107 134.702 31.0532C134.445 30.7956 134.317 30.4927 134.317 30.1442V24.3941C134.317 23.288 134.211 22.5607 134 22.2122C133.789 21.8636 133.382 21.6895 132.778 21.6895C132.386 21.6895 131.994 21.8714 131.602 22.235C131.21 22.5986 131.014 22.9622 131.014 23.3259V30.1442C131.014 30.4927 130.885 30.7956 130.629 31.0532C130.372 31.3107 130.071 31.4396 129.724 31.4396H129.339C128.992 31.4396 128.691 31.3107 128.434 31.0532C128.193 30.7956 128.072 30.4927 128.072 30.1442V24.3941C128.072 23.3031 127.959 22.5835 127.733 22.235C127.521 21.8714 127.114 21.6895 126.511 21.6895C126.119 21.6895 125.726 21.8714 125.334 22.235C124.942 22.5986 124.746 22.9622 124.746 23.3259V30.1442C124.746 30.4927 124.618 30.7956 124.361 31.0532C124.105 31.3107 123.803 31.4396 123.456 31.4396H123.004Z" fill="white"/>
<path d="M141.791 31.4397C141.445 31.4397 141.143 31.3107 140.886 31.0533C140.63 30.7956 140.502 30.4927 140.502 30.1442V16.144C140.502 15.7955 140.63 15.4924 140.886 15.2349C141.143 14.9773 141.445 14.8485 141.791 14.8485H142.357C142.749 14.8485 143.111 14.9546 143.443 15.1667C143.775 15.3788 144.016 15.6591 144.167 16.0076L148.127 24.5986C148.127 24.6137 148.135 24.6213 148.15 24.6213C148.165 24.6213 148.172 24.6137 148.172 24.5986L152.132 16.0076C152.283 15.6591 152.524 15.3788 152.856 15.1667C153.188 14.9546 153.55 14.8485 153.942 14.8485H154.598C154.945 14.8485 155.247 14.9773 155.503 15.2349C155.76 15.4924 155.888 15.7955 155.888 16.144V30.1442C155.888 30.4927 155.76 30.7956 155.503 31.0533C155.247 31.3107 154.945 31.4397 154.598 31.4397H154.101C153.754 31.4397 153.452 31.3107 153.195 31.0533C152.939 30.7956 152.811 30.4927 152.811 30.1442V20.2577C152.811 20.2425 152.803 20.2349 152.788 20.2349C152.773 20.2349 152.765 20.2425 152.765 20.2577L150.05 26.0986C149.884 26.4471 149.628 26.735 149.281 26.9623C148.949 27.1743 148.595 27.2805 148.218 27.2805H148.082C147.705 27.2805 147.343 27.1743 146.996 26.9623C146.664 26.735 146.415 26.4471 146.249 26.0986L143.534 20.2577C143.534 20.2425 143.526 20.2349 143.511 20.2349C143.496 20.2349 143.489 20.2425 143.489 20.2577V30.1442C143.489 30.4927 143.36 30.7956 143.104 31.0533C142.847 31.3107 142.546 31.4397 142.199 31.4397H141.791Z" fill="white"/>
<path d="M162.266 31.2578L158.51 20.8258C158.42 20.5228 158.457 20.25 158.623 20.0076C158.789 19.7501 159.031 19.6212 159.347 19.6212H160.026C160.403 19.6212 160.75 19.7426 161.067 19.985C161.384 20.2123 161.588 20.5077 161.678 20.8713L163.782 28.3032C163.782 28.3183 163.79 28.326 163.805 28.326C163.82 28.326 163.828 28.3183 163.828 28.3032L166.249 20.8486C166.369 20.4849 166.588 20.1895 166.905 19.9622C167.222 19.7349 167.568 19.6212 167.946 19.6212H168.489C168.806 19.6212 169.047 19.7501 169.213 20.0076C169.394 20.2653 169.424 20.538 169.303 20.8258L163.782 35.2351C163.647 35.5987 163.42 35.8867 163.103 36.0988C162.787 36.3261 162.432 36.4397 162.04 36.4397H161.497C161.195 36.4397 160.954 36.3108 160.773 36.0533C160.607 35.8109 160.584 35.5457 160.705 35.2579L162.266 31.6214C162.297 31.5609 162.312 31.5002 162.312 31.4397C162.312 31.379 162.297 31.3185 162.266 31.2578Z" fill="white"/>
<path d="M174.825 17.4848V28.8032C174.825 28.9092 174.885 28.9774 175.006 29.0078C175.488 29.0835 175.941 29.1214 176.364 29.1214C178.128 29.1214 179.426 28.6442 180.256 27.6895C181.085 26.7199 181.5 25.1288 181.5 22.9167C181.5 20.9319 181.078 19.4774 180.233 18.553C179.388 17.6288 178.099 17.1667 176.364 17.1667C175.941 17.1667 175.488 17.2046 175.006 17.2803C174.885 17.3107 174.825 17.3789 174.825 17.4848ZM172.97 31.5077C172.593 31.4623 172.284 31.3032 172.042 31.0304C171.801 30.7426 171.681 30.4092 171.681 30.0305V16.2576C171.681 15.8788 171.801 15.5531 172.042 15.2803C172.284 14.9924 172.593 14.8258 172.97 14.7803C173.935 14.6743 175.013 14.6212 176.205 14.6212C178.891 14.6212 180.941 15.3258 182.361 16.7349C183.792 18.144 184.509 20.2046 184.509 22.9167C184.509 25.8259 183.792 28.0154 182.361 29.485C180.941 30.9396 178.891 31.6668 176.205 31.6668C175.013 31.6668 173.935 31.6138 172.97 31.5077Z" fill="white"/>
<path d="M192.377 25.7576C190.219 25.7576 189.141 26.4243 189.141 27.7577C189.141 28.2425 189.276 28.6364 189.549 28.9395C189.835 29.2426 190.197 29.3942 190.634 29.3942C191.494 29.3942 192.189 29.129 192.717 28.5986C193.243 28.0532 193.507 27.3108 193.507 26.3714V25.9623C193.507 25.8259 193.44 25.7576 193.305 25.7576H192.377ZM189.82 31.6668C188.794 31.6668 187.942 31.3335 187.264 30.6668C186.598 29.9851 186.268 29.1062 186.268 28.0304C186.268 26.7123 186.765 25.6896 187.761 24.9622C188.77 24.235 190.31 23.8712 192.377 23.8712H193.305C193.44 23.8712 193.507 23.8032 193.507 23.6667V23.485C193.507 22.788 193.342 22.3032 193.01 22.0304C192.679 21.7424 192.089 21.5986 191.246 21.5986C190.37 21.5986 189.298 21.7577 188.032 22.0759C187.761 22.1516 187.512 22.1062 187.286 21.9394C187.06 21.7577 186.946 21.5228 186.946 21.2348C186.946 20.8865 187.051 20.5759 187.264 20.3031C187.474 20.0151 187.745 19.841 188.078 19.7804C189.223 19.5228 190.303 19.394 191.313 19.394C193.243 19.394 194.594 19.7426 195.364 20.4394C196.133 21.1364 196.517 22.3562 196.517 24.0986V30.1442C196.517 30.4927 196.389 30.7956 196.133 31.0532C195.892 31.3107 195.597 31.4396 195.25 31.4396H195.002C194.638 31.4396 194.33 31.3184 194.073 31.0759C193.817 30.8184 193.682 30.5078 193.666 30.1442V29.826C193.666 29.8107 193.658 29.8032 193.644 29.8032C193.613 29.8032 193.598 29.8107 193.598 29.826C192.679 31.0532 191.419 31.6668 189.82 31.6668Z" fill="white"/>
<path d="M199.351 22.2804C199.049 22.2804 198.794 22.1742 198.583 21.9622C198.37 21.7349 198.266 21.4697 198.266 21.1668C198.266 20.8637 198.37 20.6062 198.583 20.394C198.794 20.1819 199.049 20.0758 199.351 20.0758H200.438C200.573 20.0758 200.642 20.0076 200.642 19.8713V17.053C200.642 16.7045 200.762 16.4015 201.004 16.1439C201.261 15.8863 201.562 15.7576 201.909 15.7576H202.361C202.708 15.7576 203.009 15.8863 203.266 16.1439C203.522 16.4015 203.65 16.7045 203.65 17.053V19.8713C203.65 20.0076 203.719 20.0758 203.854 20.0758H206.434C206.736 20.0758 206.992 20.1819 207.202 20.394C207.429 20.6062 207.542 20.8637 207.542 21.1668C207.542 21.4697 207.429 21.7349 207.202 21.9622C206.992 22.1742 206.736 22.2804 206.434 22.2804H203.854C203.719 22.2804 203.65 22.341 203.65 22.4622V27.0531C203.65 28.038 203.757 28.6743 203.968 28.9623C204.178 29.2501 204.616 29.3941 205.281 29.3941C205.642 29.3941 205.913 29.3789 206.095 29.3487C206.397 29.3184 206.661 29.3864 206.887 29.5532C207.113 29.7198 207.226 29.9472 207.226 30.235C207.226 30.5682 207.113 30.8713 206.887 31.1441C206.676 31.4017 206.412 31.5456 206.095 31.5759C205.432 31.6366 204.933 31.6668 204.602 31.6668C203.138 31.6668 202.113 31.3561 201.525 30.735C200.935 30.0987 200.642 28.9698 200.642 27.3486V22.4622C200.642 22.341 200.573 22.2804 200.438 22.2804H199.351Z" fill="white"/>
<path d="M215.998 25.7576C213.84 25.7576 212.762 26.4243 212.762 27.7577C212.762 28.2425 212.897 28.6364 213.17 28.9395C213.456 29.2426 213.818 29.3942 214.255 29.3942C215.116 29.3942 215.81 29.129 216.338 28.5986C216.866 28.0532 217.13 27.3108 217.13 26.3714V25.9623C217.13 25.8259 217.061 25.7576 216.926 25.7576H215.998ZM213.441 31.6668C212.416 31.6668 211.564 31.3335 210.885 30.6668C210.22 29.9851 209.889 29.1062 209.889 28.0304C209.889 26.7123 210.386 25.6896 211.382 24.9622C212.393 24.235 213.931 23.8712 215.998 23.8712H216.926C217.061 23.8712 217.13 23.8032 217.13 23.6667V23.485C217.13 22.788 216.964 22.3032 216.631 22.0304C216.3 21.7424 215.71 21.5986 214.867 21.5986C213.991 21.5986 212.92 21.7577 211.653 22.0759C211.382 22.1516 211.133 22.1062 210.907 21.9394C210.681 21.7577 210.568 21.5228 210.568 21.2348C210.568 20.8865 210.672 20.5759 210.885 20.3031C211.096 20.0151 211.366 19.841 211.699 19.7804C212.846 19.5228 213.924 19.394 214.934 19.394C216.866 19.394 218.215 19.7426 218.985 20.4394C219.754 21.1364 220.138 22.3562 220.138 24.0986V30.1442C220.138 30.4927 220.01 30.7956 219.754 31.0532C219.513 31.3107 219.218 31.4396 218.872 31.4396H218.623C218.26 31.4396 217.951 31.3184 217.694 31.0759C217.438 30.8184 217.303 30.5078 217.288 30.1442V29.826C217.288 29.8107 217.279 29.8032 217.265 29.8032C217.234 29.8032 217.219 29.8107 217.219 29.826C216.3 31.0532 215.04 31.6668 213.441 31.6668Z" fill="white"/>
<path d="M33.1681 38.196C34.4835 38.3877 35.8693 37.975 36.8816 36.9585C37.5264 36.3108 37.9272 35.5107 38.0837 34.6737C38.2429 34.0982 38.2829 33.4963 38.2037 32.9076C38.3506 31.7796 38.7097 30.1963 39.5873 29.315C40.4012 28.4973 41.748 28.1967 42.7841 28.0911C44.1414 28.3353 45.5917 27.9305 46.6407 26.8769L46.6602 26.857L46.6808 26.8366C48.3841 25.1256 48.3841 22.3517 46.6808 20.6407C45.6246 19.5799 44.1613 19.1767 42.7959 19.4316C41.7534 19.3308 40.3748 19.0342 39.547 18.2028C38.6696 17.3213 38.3105 15.7382 38.1636 14.61C38.3394 13.3015 37.9268 11.9284 36.9255 10.9227C35.8062 9.79848 34.2301 9.41295 32.7977 9.7661C31.791 9.64401 30.5538 9.33255 29.7879 8.56327C28.9105 7.68189 28.5514 6.09866 28.4045 4.97055C28.5804 3.66201 28.1677 2.28893 27.1664 1.28319C25.4631 -0.42773 22.7014 -0.427733 20.9981 1.28319C19.2946 2.99412 19.2946 5.76807 20.9981 7.479C21.9992 8.48474 23.3664 8.89927 24.669 8.72259C25.7921 8.87016 27.3684 9.23085 28.2459 10.1122C29.1089 10.9791 29.3931 12.4473 29.481 13.5074C29.2902 14.8287 29.701 16.2207 30.7131 17.2375C31.8133 18.3423 33.3548 18.7337 34.7676 18.4114C35.8512 18.5847 37.2128 18.9561 38.005 19.7517C38.868 20.6186 39.1524 22.0869 39.2401 23.147C39.1728 23.6139 39.1805 24.0898 39.2634 24.5549C39.1584 25.5955 38.8592 26.9482 38.0451 27.7659C37.1677 28.6473 35.5914 29.0079 34.4682 29.1555C33.1656 28.979 31.7986 29.3935 30.7973 30.3991C30.1525 31.0469 29.7517 31.8468 29.5952 32.6839C29.4322 33.2733 29.3941 33.8902 29.481 34.4926C29.3931 35.5527 29.1089 37.0209 28.2459 37.8878C27.3684 38.7691 25.7922 39.1298 24.669 39.2774C23.3664 39.1008 21.9994 39.5153 20.9981 40.5209C19.2948 42.2319 19.2948 45.0058 20.9981 46.7169C22.7014 48.4277 25.4631 48.4277 27.1664 46.7169C28.1677 45.7111 28.5804 44.3379 28.4045 43.0294C28.5514 41.9014 28.9105 40.3181 29.7879 39.4368C30.651 38.5699 32.1126 38.2843 33.1681 38.196Z" fill="url(#paint0_linear_9759_52085)"/>
<path d="M1.27763 27.1794C2.98097 28.8904 5.74265 28.8904 7.446 27.1794C9.14935 25.4685 9.14935 22.6944 7.446 20.9836C5.74265 19.2727 2.98097 19.2727 1.27763 20.9836C-0.425716 22.6944 -0.425714 25.4685 1.27763 27.1794Z" fill="url(#paint1_linear_9759_52085)"/>
<path d="M27.1255 26.8365L27.105 26.8569L27.0853 26.8768C26.0362 27.9305 24.5859 28.3353 23.2285 28.0912C22.1926 28.1968 20.8458 28.4971 20.0317 29.3148C19.1544 30.1961 18.7952 31.7794 18.6483 32.9076C18.8242 34.2161 18.4116 35.5891 17.4102 36.5949C15.7068 38.3059 12.9452 38.3059 11.2418 36.5949C9.53849 34.884 9.53849 32.11 11.2418 30.3991C12.2431 29.3933 13.6101 28.9788 14.9129 29.1556C16.036 29.008 17.6122 28.6473 18.4897 27.766C19.3037 26.9482 19.6028 25.5955 19.7079 24.5549C19.6251 24.0898 19.6174 23.614 19.6848 23.1468C19.5968 22.0867 19.3126 20.6186 18.4494 19.7517C17.5721 18.8702 15.9958 18.5095 14.8727 18.3621C13.57 18.5386 12.203 18.1241 11.2017 17.1184C9.49836 15.4075 9.49836 12.6335 11.2017 10.9226C12.9051 9.21167 15.6667 9.21167 17.3701 10.9226C18.3713 11.9283 18.7841 13.3014 18.6082 14.6099C18.7551 15.7381 19.1141 17.3213 19.9916 18.2026C20.8194 19.0341 22.1979 19.3308 23.2405 19.4316C24.606 19.1767 26.0691 19.5797 27.1255 20.6407C28.8288 22.3516 28.8288 25.1256 27.1255 26.8365Z" fill="url(#paint2_linear_9759_52085)"/>
</g>
<defs>
<linearGradient id="paint0_linear_9759_52085" x1="4.9057" y1="23.4643" x2="42.2521" y2="32.4789" gradientUnits="userSpaceOnUse">
<stop stop-color="#F16485"/>
<stop offset="0.506687" stop-color="#984E8E"/>
<stop offset="1" stop-color="#4B94F9"/>
</linearGradient>
<linearGradient id="paint1_linear_9759_52085" x1="4.90569" y1="23.4643" x2="42.2521" y2="32.4789" gradientUnits="userSpaceOnUse">
<stop stop-color="#F16485"/>
<stop offset="0.506687" stop-color="#984E8E"/>
<stop offset="1" stop-color="#4B94F9"/>
</linearGradient>
<linearGradient id="paint2_linear_9759_52085" x1="4.9057" y1="23.4643" x2="42.2521" y2="32.4789" gradientUnits="userSpaceOnUse">
<stop stop-color="#F16485"/>
<stop offset="0.506687" stop-color="#984E8E"/>
<stop offset="1" stop-color="#4B94F9"/>
</linearGradient>
<clipPath id="clip0_9759_52085">
<rect width="221.143" height="48" fill="white"/>
</clipPath>
</defs>
</svg>
