<svg xmlns="http://www.w3.org/2000/svg" width="432" height="128" viewBox="0 0 432 128" fill="none">
<path fill-rule="evenodd" clip-rule="evenodd" d="M145.91 63.9989C145.91 91.6126 123.991 114 96.9549 114C69.9163 114 48 91.6148 48 63.9989C47.9978 36.3852 69.9141 14 96.9527 14C123.989 14 145.91 36.3852 145.91 63.9989ZM77.0426 94.4292C82.9153 98.4416 89.8531 100.587 96.9549 100.587C101.663 100.604 106.326 99.6591 110.659 97.8102C115.011 95.9522 118.946 93.2327 122.23 89.8137C126.161 85.7751 129.11 80.8789 130.849 75.5068L131.052 75.4515L131.58 73.4203C133.201 67.2174 133.197 60.6988 131.569 54.4978C129.951 48.3195 126.757 42.6721 122.302 38.1133C117.881 33.5893 112.345 30.3239 106.259 28.6498C101.745 27.4113 97.0314 27.0879 92.3919 27.6984C90.8063 27.902 89.2274 28.214 87.6682 28.6366C87.3709 28.7184 87.0736 28.8047 86.7807 28.8955L85.7457 29.1787L85.7281 29.2362C80.4006 31.0571 75.5684 34.0994 71.6142 38.1221C66.5859 43.2661 63.1735 49.7817 61.8012 56.8587C60.4176 63.9566 61.1263 71.3059 63.8404 78.0049C66.5328 84.668 71.1261 90.3823 77.0426 94.4292ZM125.214 69.4907L125.233 69.3844C126.096 64.7096 125.833 59.8951 124.467 55.3431C123.099 50.7746 120.645 46.6088 117.319 43.2046C114.015 39.8246 109.931 37.3165 105.431 35.9029C100.949 34.4967 96.188 34.2343 91.5793 35.1395C90.6935 39.8473 90.9503 44.7002 92.3281 49.2871C93.6963 53.8556 96.1495 58.0214 99.4764 61.4256C102.78 64.8055 106.864 67.3136 111.364 68.7273C115.846 70.1331 120.605 70.3954 125.214 69.4907ZM84.6754 47.829C84.0292 44.5105 83.8366 41.119 84.1028 37.7482C81.3485 39.1587 78.8346 40.9997 76.655 43.2023C71.3746 48.7723 68.4573 56.1873 68.5201 63.8794C68.563 71.5715 71.5832 78.9449 76.9413 84.4392C79.5684 87.133 82.6989 89.2794 86.1533 90.7553C89.6077 92.2311 93.318 93.0074 97.0716 93.0397C100.825 93.0619 104.545 92.3394 108.02 90.9136C111.494 89.4878 114.654 87.3869 117.319 84.7313C119.5 82.5164 121.309 79.9608 122.677 77.1641C116.23 77.6884 109.764 76.4256 103.982 73.5132C99.0345 71.0199 94.7267 67.4126 91.3943 62.9722C88.0401 58.5015 85.7431 53.3221 84.6776 47.8268L84.6754 47.829ZM377.621 33.7809C376.755 33.7809 375.907 34.042 375.187 34.5332C374.465 35.0282 373.904 35.7263 373.575 36.5401C373.245 37.3575 373.16 38.2536 373.328 39.1192C373.497 39.9848 373.912 40.7823 374.524 41.4145C375.13 42.04 375.91 42.4672 376.761 42.6401C377.613 42.813 378.497 42.7237 379.297 42.3837C380.099 42.0423 380.783 41.4694 381.261 40.7375C381.824 39.8746 382.078 38.8445 381.979 37.8173C381.881 36.7901 381.436 35.8275 380.719 35.0886C380.314 34.6758 379.832 34.3478 379.3 34.1233C378.768 33.8989 378.198 33.7825 377.621 33.7809ZM380.142 40.826C379.566 41.4062 378.805 41.7642 377.992 41.837C377.18 41.9098 376.368 41.6929 375.698 41.2242C375.024 40.7542 374.531 40.065 374.302 39.2727C374.071 38.4756 374.118 37.6234 374.434 36.8565C374.749 36.0909 375.315 35.4626 376.033 35.0731C376.751 34.6841 377.583 34.5611 378.382 34.7257C379.182 34.8903 379.898 35.3321 380.407 35.9737C380.922 36.6153 381.202 37.4207 381.202 38.2527C381.145 39.2053 380.772 40.1113 380.142 40.826ZM379.037 39.1554C379.125 39.2727 379.235 39.421 379.345 39.6068L380.008 40.4874H378.949L378.35 39.5404C378.222 39.3181 378.066 39.1129 377.887 38.9297C377.861 38.8777 377.823 38.8323 377.777 38.797C377.732 38.7608 377.678 38.7365 377.621 38.7262C377.474 38.666 377.314 38.6432 377.156 38.6598H376.958V40.4874H376.095V36.1507H377.887C378.222 36.144 378.559 36.1905 378.88 36.2879C379.079 36.3629 379.244 36.5075 379.345 36.695C379.479 36.8941 379.55 37.1309 379.545 37.3721C379.557 37.5184 379.539 37.6655 379.493 37.8049C379.447 37.9442 379.375 38.0731 379.279 38.1841C379.044 38.4109 378.742 38.554 378.418 38.5912C378.597 38.6646 378.756 38.7808 378.88 38.9297C378.911 38.9895 378.966 39.0625 379.037 39.1554ZM378.332 36.9295C378.275 36.9068 378.213 36.8963 378.151 36.8986H376.892V37.9827H377.555C377.799 37.9766 378.042 37.9536 378.284 37.9141C378.384 37.8631 378.474 37.7942 378.55 37.7106C378.61 37.6086 378.633 37.4892 378.616 37.3721C378.618 37.3094 378.608 37.247 378.585 37.1884C378.538 37.072 378.447 36.979 378.332 36.9295ZM197.917 94.6903C197.917 90.2208 195.329 86.5611 190.687 86.5611C186.043 86.5611 183.389 90.2186 183.389 94.6903C183.389 99.1621 186.043 102.82 190.687 102.82C195.329 102.82 197.917 99.1621 197.917 94.6903ZM195.794 94.6903C195.794 98.2814 193.871 101.058 190.685 101.058C187.305 101.058 185.512 98.2814 185.512 94.6903C185.512 91.0992 187.569 88.3224 190.687 88.3224C193.805 88.3224 195.794 91.0992 195.794 94.6903ZM167.868 86.8997V102.481H169.856V95.436H177.751V102.481H179.742V86.8997H177.749V93.6061H169.854V86.8997H167.868ZM201.566 102.481V86.8997H203.557V100.653H212.112V102.481H201.566ZM215.299 86.8997V102.481H220.274C225.182 102.481 227.57 99.5006 227.57 94.624C227.57 89.6101 224.982 86.8997 220.073 86.8997H215.299ZM220.073 100.653H217.287V88.7273H220.007C223.39 88.7273 225.513 90.2186 225.513 94.6217C225.513 98.6886 223.788 100.653 220.073 100.653ZM231.216 102.481V86.8997H233.207V102.481H231.216ZM237.453 86.8997V102.481H239.378V90.2186L247.336 102.481H249.393V86.8997H247.471V99.1621L239.51 86.8997H237.453ZM260.539 101.061C261.996 101.061 264.053 100.45 264.851 99.297V96.3852H260.338V94.5554H266.841V100.043C265.78 101.6 263.192 102.82 260.539 102.82C255.894 102.82 253.042 99.1621 253.042 94.6903C253.042 90.2208 255.63 86.5611 260.338 86.5611C263.789 86.5611 265.976 88.1874 266.641 91.2364L264.65 91.7099C263.923 89.203 262.461 88.2538 260.338 88.2538C257.156 88.2538 255.231 91.0329 255.231 94.624C255.231 98.2129 257.156 101.061 260.539 101.061ZM345.182 65.0831C342.861 69.9619 337.886 72.9424 330.789 72.9424C323.689 72.9424 318.714 69.8933 316.327 65.0831C315.199 62.6448 314.867 60.0029 314.867 56.2768V35.1373H321.368V56.2768C321.368 59.2572 321.5 61.357 322.429 62.9147C324.354 66.1673 327.935 66.9815 330.789 66.9815C333.641 66.9815 337.221 66.1009 339.146 62.9169C340.075 61.357 340.208 59.2572 340.208 56.2768V35.1373H346.642V56.2768C346.642 59.9343 346.31 62.5762 345.182 65.0831ZM247.801 46.1142L270.29 72.5374H275.663V35.1373H269.427V61.8305L246.806 35.1373H241.635V72.5352H247.803L247.801 46.1142ZM360.439 35.1395V66.3708H378.682V72.5374H353.938V35.1373L360.439 35.1395ZM302.993 62.6448C302.993 65.831 299.013 66.9815 295.565 66.9815C290.92 66.9815 286.542 65.0831 282.23 61.2906V69.3513C286.261 71.6415 290.8 72.8764 295.43 72.9424C303.127 72.9424 309.427 69.2163 309.427 61.6292C309.427 54.2478 302.088 51.9024 295.961 49.9465C291.57 48.5414 287.802 47.3378 287.802 44.6229C287.802 42.9966 289.328 41.846 291.118 41.2375C292.488 40.7914 293.924 40.5841 295.364 40.6246C300.339 40.6246 304.054 42.5231 307.769 44.895V37.5778C303.916 35.7161 299.705 34.7217 295.43 34.6638C292.918 34.629 290.421 35.0657 288.068 35.9515C284.419 37.5092 281.501 40.4897 281.501 45.3685C281.501 52.2498 288.198 54.427 294.116 56.3498C298.8 57.8699 302.993 59.2329 302.993 62.6448ZM186.265 66.6718C188.751 66.1707 191.031 64.933 192.81 63.1183C193.802 65.053 195.127 66.7962 196.723 68.2671C193.987 70.8434 190.557 72.5539 186.86 73.1857C183.172 73.8106 179.383 73.3256 175.97 71.7918C172.537 70.2474 169.627 67.7297 167.597 64.5476C165.551 61.3412 164.465 57.6118 164.468 53.8031C164.465 49.995 165.551 46.2662 167.597 43.0607C169.626 39.8778 172.536 37.3593 175.97 35.8144C179.383 34.2805 183.172 33.7955 186.86 34.4204C190.557 35.0523 193.987 36.7629 196.723 39.3391C195.161 40.8412 193.841 42.5782 192.81 44.4879C191.017 42.6947 188.733 41.4784 186.25 40.9941C183.774 40.5154 181.212 40.7928 178.894 41.7907C176.563 42.7954 174.579 44.4706 173.193 46.6054C171.796 48.7558 171.051 51.2682 171.05 53.8363C171.039 56.4108 171.779 58.9322 173.177 61.0893C174.564 63.2308 176.553 64.9091 178.892 65.9106C181.218 66.9039 183.787 67.1692 186.265 66.6718ZM217.354 34.323C212.563 34.346 207.953 36.1575 204.418 39.4055C202.46 41.2528 200.899 43.4831 199.831 45.9593C198.757 48.4461 198.197 51.1257 198.183 53.8363C198.179 57.0758 198.976 60.2656 200.504 63.1183C201.519 65.0387 202.841 66.7783 204.418 68.2671C206.701 70.416 209.476 71.967 212.498 72.783C215.508 73.5946 218.671 73.6432 221.705 72.9247C224.748 72.2017 227.567 70.7365 229.913 68.6587C232.275 66.5651 234.096 63.9266 235.22 60.9698C236.348 58.0024 236.752 54.8063 236.396 51.6499C236.04 48.4935 234.935 45.469 233.174 42.8306C231.423 40.2134 229.062 38.066 226.297 36.5755C223.547 35.0954 220.475 34.3223 217.356 34.3253L217.354 34.323ZM217.354 66.9815C214.816 66.9801 212.338 66.2122 210.24 64.7777C208.128 63.3311 206.489 61.2896 205.528 58.9098C204.557 56.5163 204.303 53.8902 204.797 51.3537C205.286 48.8251 206.505 46.4969 208.3 44.6583C210.081 42.8349 212.364 41.5889 214.856 41.0804C217.34 40.5756 219.918 40.8347 222.253 41.8239C224.602 42.8213 226.602 44.498 227.999 46.6408C229.408 48.7988 230.158 51.3238 230.157 53.9049C230.161 55.6219 229.833 57.3233 229.19 58.9143C228.551 60.4992 227.608 61.9426 226.416 63.1625C225.23 64.3741 223.817 65.3368 222.258 65.9947C220.705 66.65 219.038 66.9856 217.354 66.9815Z" fill="#851642"/>
</svg>
