<svg xmlns="http://www.w3.org/2000/svg" width="432" height="128" viewBox="0 0 432 128" fill="none">
<path fill-rule="evenodd" clip-rule="evenodd" d="M180.421 89.3422C177.208 86.3111 175.418 82.0693 175.494 77.6552V77.3189C175.541 68.1879 182.981 60.8141 192.126 60.8393C196.757 60.7468 201.216 62.5882 204.425 65.9219C210.77 72.5179 210.563 83.0026 203.957 89.3422C200.867 92.5456 196.58 94.3281 192.126 94.2608C187.705 94.3365 183.461 92.5498 180.421 89.3422ZM166.317 24.5161C165.268 25.5125 164.679 26.8956 164.675 28.3417V77.6542C164.586 84.9355 167.513 91.9309 172.759 96.9925C172.789 97.0223 172.819 97.0526 172.849 97.083L172.851 97.0859C172.88 97.1144 172.908 97.1429 172.936 97.171C172.969 97.2047 173.003 97.2379 173.037 97.2699C183.769 107.834 201.045 107.704 211.622 96.9925C216.86 91.9309 219.756 84.9271 219.622 77.6542V77.1035C219.529 62.0365 207.217 49.8955 192.127 49.9922C186.115 49.9501 180.258 51.9176 175.496 55.5834V28.3417C175.454 26.9292 174.919 25.5755 173.98 24.5161C172.919 23.5787 171.563 23.0448 170.148 23.0027C168.717 22.9565 167.332 23.503 166.317 24.5161ZM93.054 99.8515C93.0792 101.302 92.4813 102.693 91.4119 103.673C90.4182 104.728 89.0287 105.325 87.5803 105.317C84.6035 105.291 82.212 102.866 82.233 99.8935V99.8515V72.3113C82.3298 69.3728 81.2183 66.5183 79.1594 64.4121C77.0331 62.3984 74.2162 61.2717 71.2857 61.2591C68.351 61.2549 65.53 62.3858 63.4121 64.4121C61.2774 66.4804 60.0858 69.3391 60.1279 72.3113V99.8515C60.1448 101.281 59.5848 102.66 58.5701 103.673C56.5448 105.787 53.1848 105.863 51.0712 103.837C51.0164 103.786 50.9617 103.732 50.907 103.673C49.8375 102.693 49.2396 101.302 49.2649 99.8515V72.3113C49.2059 69.3433 47.9975 66.5141 45.8965 64.4121C41.4755 60.2081 34.5324 60.2081 30.1071 64.4121C27.9682 66.4804 26.7808 69.3391 26.823 72.3113V99.8515C26.8566 101.277 26.3093 102.656 25.3072 103.673C24.3135 104.728 22.9282 105.325 21.4756 105.317C20.023 105.346 18.6251 104.745 17.6441 103.673C16.5746 102.693 15.9767 101.302 16.002 99.8515V72.3113C15.922 66.5015 18.2546 60.9186 22.444 56.887C26.5324 52.6999 32.1661 50.3709 38.0229 50.4549C44.4018 50.2489 50.507 53.032 54.528 57.98C58.5827 53.053 64.6921 50.2742 71.0752 50.4549C76.9236 50.3498 82.553 52.6788 86.6119 56.887C90.8056 60.9186 93.1382 66.5015 93.054 72.3113C93.0877 72.4501 93.0877 72.5972 93.054 72.7359V73.2825V99.8515ZM144.759 72.1903C143.762 68.6926 141.496 65.6951 138.402 63.7823C135.585 61.9158 132.263 60.9615 128.886 61.0498C121.8 61.075 115.488 65.5312 113.097 72.1903H144.759ZM113.097 82.9895C115.374 89.7873 121.711 94.3907 128.886 94.4706C129.614 94.5252 130.347 94.5252 131.075 94.4706H131.917H132.802H133.475H134.023C136.545 93.8568 138.949 92.8352 141.138 91.4437C142.381 90.5861 143.985 90.4558 145.349 91.1074C146.751 91.5614 147.896 92.5872 148.507 93.924C149.854 96.6524 148.97 99.0529 145.896 101.155C142.894 102.996 139.648 104.409 136.254 105.359H135.496H134.612H133.517H132.339H130.696H129.054C121.711 105.46 114.654 102.521 109.56 97.2452C104.322 92.1836 101.425 85.1798 101.56 77.9027C101.467 62.8357 113.623 50.5476 128.713 50.4551H129.054C135.964 50.2869 142.663 52.8051 147.749 57.4757C153.429 62.6213 156.57 69.9993 156.338 77.6547C156.296 79.0672 155.757 80.4209 154.823 81.4803C153.719 82.4304 152.322 82.9643 150.865 82.9895H113.097ZM270.777 72.1904C269.796 68.6969 267.543 65.6995 264.461 63.7825C256.735 58.6158 246.272 60.68 241.097 68.3984C240.31 69.5755 239.67 70.8535 239.198 72.1904H270.777ZM239.157 82.9897C241.452 89.8295 247.856 94.4455 255.077 94.4707C255.801 94.5253 256.534 94.5253 257.262 94.4707H258.147H259.031H259.705H260.252C262.774 93.8485 265.174 92.8269 267.368 91.4438C268.61 90.5862 270.214 90.4559 271.578 91.1075C272.972 91.5742 274.113 92.5957 274.736 93.9242C276.041 96.6525 275.199 99.053 272.126 101.155C269.123 102.996 265.877 104.409 262.484 105.359H261.73H260.846H259.747H258.526H256.884H255.246C247.915 105.447 240.875 102.513 235.789 97.2453C230.551 92.1837 227.654 85.1799 227.789 77.9029C227.877 62.6046 240.366 50.2702 255.692 50.3585C262.496 50.3921 269.052 52.9271 274.104 57.4758C279.738 62.6467 282.829 70.0162 282.568 77.6548C282.525 79.0674 281.991 80.421 281.052 81.4804C279.953 82.4305 278.551 82.9644 277.094 82.9897H239.157ZM292.548 24.7683C291.496 25.7604 290.898 27.1435 290.906 28.5939V99.7249C290.974 102.714 293.386 105.123 296.38 105.19C297.828 105.19 299.214 104.593 300.211 103.551C301.222 102.537 301.774 101.154 301.727 99.7249V28.5939C301.698 27.1771 301.163 25.8193 300.211 24.7683C299.163 23.8056 297.803 23.2548 296.38 23.2128C294.94 23.1624 293.546 23.7257 292.548 24.7683Z" fill="#FC2C38"/>
<path fill-rule="evenodd" clip-rule="evenodd" d="M318.483 105.107C315.511 105.035 313.132 102.61 313.136 99.6376C313.182 96.741 315.578 94.4247 318.483 94.4709C319.928 94.4162 321.321 94.9838 322.315 96.0264C323.372 97.0143 323.965 98.4016 323.957 99.852C323.995 101.29 323.393 102.673 322.315 103.631C321.334 104.687 319.919 105.229 318.483 105.107Z" fill="#1A1A1A"/>
<path fill-rule="evenodd" clip-rule="evenodd" d="M345.642 99.7248C345.605 101.137 345.07 102.495 344.127 103.55C343.125 104.589 341.739 105.182 340.291 105.19C338.838 105.232 337.44 104.631 336.464 103.55C335.394 102.562 334.788 101.179 334.779 99.7248V77.654C334.712 70.3685 337.655 63.3731 342.906 58.3158C347.975 53.086 354.99 50.1937 362.274 50.3282C363.731 50.3534 365.129 50.8916 366.232 51.8416C367.166 52.901 367.705 54.2547 367.747 55.6673C367.718 57.0798 367.179 58.4419 366.232 59.4929C365.196 60.5607 363.764 61.1534 362.274 61.1324C353.057 61.2459 345.642 68.7416 345.642 77.9483V99.8929V99.7248Z" fill="#1A1A1A"/>
<path fill-rule="evenodd" clip-rule="evenodd" d="M416 83.2451C415.937 89.0676 413.541 94.6252 409.348 98.6736C400.716 107.279 386.737 107.279 378.106 98.6736C373.92 94.5916 371.554 89.0003 371.537 83.1568V55.6671C371.579 54.2546 372.114 52.9009 373.053 51.8415C374.114 50.904 375.47 50.3701 376.885 50.3281C378.342 50.3533 379.744 50.8914 380.843 51.8415C381.781 52.9009 382.316 54.2546 382.358 55.6671V82.9887C382.299 85.9903 383.487 88.8868 385.642 90.9804C387.706 93.1875 390.615 94.4276 393.642 94.3814C396.695 94.4276 399.626 93.1959 401.727 90.9804C403.899 88.8994 405.091 85.9945 405.011 82.9887V55.6671C405.036 52.6949 407.465 50.3028 410.442 50.3239C410.472 50.3239 410.497 50.3239 410.527 50.3281C411.945 50.3533 413.301 50.8914 414.358 51.8415C415.322 52.8883 415.874 54.2462 415.916 55.6671V83.2451H416Z" fill="#1A1A1A"/>
</svg>
