<svg xmlns="http://www.w3.org/2000/svg" width="432" height="128" viewBox="0 0 432 128" fill="none">
<path d="M286.769 83.6089C287.849 82.3077 289.227 81.2921 290.784 80.6503C292.341 80.0084 294.029 79.7597 295.703 79.9256C298.444 80.0732 301.183 79.8105 303.906 80.1358C308.95 80.7263 311.445 83.9367 310.571 88.9787C309.193 96.8208 307.735 104.628 306.308 112.452C306.162 113.303 305.901 113.761 304.863 113.746C301.741 113.664 298.617 113.664 295.495 113.746C294.34 113.746 294.114 113.436 294.323 112.34C295.688 105.183 296.935 97.9968 298.313 90.8454C298.523 89.6994 298.313 89.3866 297.212 89.4542C295.899 89.5567 294.583 89.5567 293.272 89.4542C292.072 89.3541 291.651 89.7494 291.376 90.993C290.174 97.8993 288.813 104.79 287.693 111.699C287.418 113.338 286.818 113.844 285.215 113.764C282.475 113.632 279.731 113.632 276.991 113.764C275.45 113.764 275.371 113.271 275.596 111.947C277.009 104.515 278.352 97.0835 279.75 89.4667H273.586C272.501 89.4667 272.729 90.3349 272.63 90.8779C271.354 97.7076 270.122 104.546 268.934 111.391C268.513 113.698 268.56 113.714 266.24 113.714H258.022C256.986 113.714 256.548 113.533 256.758 112.355C258.248 104.433 259.579 96.4755 261.17 88.5684C262.305 83.0359 266.486 80.1232 273.024 79.9406H280.754C282 79.9041 283.23 80.2306 284.297 80.8811C285.364 81.5316 286.22 82.4786 286.769 83.6089ZM188.834 78.1089H181.763C180.757 78.1089 180.269 78.3692 180.14 79.4026C179.975 80.6619 179.748 81.9121 179.459 83.1485C179.166 84.3621 179.607 84.6573 180.772 84.6398H194.425C195.771 84.6398 196.049 85.0302 195.722 86.2763C195.139 89.0913 194.636 91.9239 194.103 94.7564C193.922 95.8699 193.518 96.2778 192.299 96.2603C187.746 96.1802 183.206 96.2603 178.648 96.2603C177.27 96.2603 176.896 96.7532 176.688 97.8993C175.877 102.811 174.921 107.575 174.093 112.422C173.915 113.403 173.654 113.844 172.551 113.814C168.936 113.731 165.32 113.814 161.706 113.814C160.732 113.814 160.522 113.583 160.7 112.585C162.888 100.799 164.997 88.9912 167.186 77.2056C167.662 74.2482 169.169 71.5597 171.434 69.6243C173.7 67.6888 176.575 66.6336 179.543 66.6486C185.687 66.501 191.831 66.6486 197.959 66.6486C198.981 66.6486 199.174 66.9764 199 67.9097C198.401 70.9434 197.859 73.9884 197.375 77.043C197.213 77.9938 196.842 78.3216 195.868 78.2891H188.785L188.834 78.1089ZM326.64 113.646C323.848 113.787 321.048 113.695 318.271 113.371C313.897 112.567 311.659 109.868 312.34 105.431C313.441 98.2245 314.818 91.0756 316.149 83.9042C316.878 79.9256 316.942 79.9406 321.014 79.9406H327.579C328.618 79.9406 328.861 80.1358 328.65 81.2493C327.304 88.3557 326.073 95.4771 324.71 102.533C324.467 103.877 324.71 104.167 326.04 104.167C327.736 104.075 329.436 104.075 331.131 104.167C332.33 104.167 332.752 103.877 333.044 102.631C334.229 95.7723 335.59 88.9437 336.71 82.0875C337.002 80.3359 337.599 79.8455 339.302 79.9256C342.078 80.0882 344.881 80.0232 347.671 79.9256C348.886 79.9256 349.015 80.351 348.819 81.3994C347.394 89.0413 346.013 96.7032 344.603 104.315C343.535 110.08 339.515 113.338 333.111 113.598C330.985 113.683 328.843 113.598 326.623 113.598L326.64 113.646ZM353.473 113.714H348.707C347.862 113.714 347.605 113.583 347.8 112.618C349.225 104.973 350.588 97.3112 351.984 89.6969C353.248 82.7431 354.559 75.8169 355.761 68.8406C356.053 67.2041 356.425 66.3534 358.353 66.531C360.916 66.7637 363.496 66.531 366.071 66.531C368.197 66.531 368.18 66.531 367.791 68.5804C366.606 74.9311 365.471 81.2843 364.306 87.6375C362.799 95.8199 361.24 104.135 359.781 112.39C359.585 113.453 359.245 113.781 358.16 113.731H353.394L353.473 113.714ZM253.204 79.9581H258.619C259.529 79.9581 259.772 80.2358 259.593 81.1342C259.123 83.5113 258.684 85.901 258.297 88.2906C258.131 89.2415 257.747 89.5342 256.771 89.5017C254.421 89.4166 252.069 89.5017 249.702 89.5017C248.647 89.5017 248.213 89.7144 248.079 90.8754C246.867 97.8817 245.516 104.891 244.305 111.897C244.059 113.323 243.638 113.929 242.064 113.829C239.115 113.663 236.148 113.829 233.197 113.829C232.19 113.829 231.997 113.486 232.158 112.567C233.62 104.695 234.946 96.8033 236.52 88.9612C237.673 83.181 241.888 80.1708 248.488 80.0557H253.254L253.204 79.9581ZM224.894 80.1533C219.705 79.7079 214.487 79.7079 209.298 80.1533C206.783 80.3 204.396 81.3189 202.54 83.0379C200.684 84.7568 199.473 87.0702 199.112 89.5868C198.198 94.4919 197.308 99.4014 196.44 104.315C195.548 109.229 197.85 112.6 202.795 113.468C205.57 113.769 208.359 113.849 211.147 113.714C213.333 113.714 215.524 113.811 217.729 113.714C223.856 113.403 228.138 110.03 229.241 104.495C230.254 99.5205 231.173 94.5267 231.997 89.5167C232.889 84.1319 230.376 80.6612 224.879 80.2208L224.894 80.1533ZM219.853 90.5501C219.064 94.8311 218.285 99.1141 217.519 103.399C217.419 103.925 217.194 104.185 216.659 104.185H208.388C209.266 99.5057 210.108 95.0016 210.901 90.4976C211.033 89.7469 211.323 89.5017 212.054 89.5017H218.944C219.757 89.5017 219.999 89.7619 219.853 90.5501ZM392.971 80.1408C389.372 79.7154 385.756 80.1408 382.772 79.9406H372.931C371.845 79.9406 371.31 80.2534 371.213 81.3669C370.909 83.5653 370.513 85.75 370.029 87.9153C369.771 89.1113 369.932 89.5517 371.293 89.5517C376.336 89.4667 381.379 89.5517 386.42 89.5517C387.687 89.5517 387.848 89.9596 387.652 91.0731C387.201 93.5629 387.248 93.5629 384.767 93.5629H375.721C373.513 93.4756 371.337 94.1261 369.531 95.4135C367.726 96.7009 366.391 98.5535 365.734 100.684C365.365 102.131 365.098 103.603 364.936 105.088C364.403 109.735 366.559 112.88 371.278 113.471C376.77 114.176 382.326 114.176 387.816 113.471C390.076 113.231 392.198 112.254 393.86 110.687C395.522 109.121 396.633 107.051 397.025 104.79C398.108 99.6633 399.048 94.5062 399.846 89.324C400.673 84.1143 398.143 80.8914 392.971 80.3009V80.1408ZM385.774 101.435C385.674 102.223 385.612 102.861 385.516 103.367C385.124 105.609 384.492 105.609 380.99 105.609H377.746C377 105.609 376.757 105.348 376.921 104.63C377.146 103.497 377.374 102.353 377.538 101.207C377.65 100.484 378.088 100.356 378.703 100.356H384.948C385.806 100.356 385.902 100.634 385.806 101.435H385.774ZM142.343 64.2965C142.367 62.5274 141.852 60.7935 140.868 59.3295C136.115 51.0821 131.361 42.8397 126.605 34.6048C123.711 29.4501 120.598 24.3205 117.688 19.1634C116.929 17.674 115.781 16.4224 114.368 15.5439C112.956 14.6654 111.332 14.1934 109.673 14.1789C102.303 14.0112 94.9296 13.8786 87.673 14.1789C85.1848 16.9689 85.1848 16.9689 87.1377 20.2618C87.4872 20.8574 87.8366 21.4529 88.1885 22.121C91.6066 27.5949 95.0399 33.059 98.4885 38.5133L105.859 50.1988C105.473 50.8844 104.917 50.6042 104.476 50.6042H94.7661C94.3574 50.5753 93.9474 50.6338 93.5626 50.7758C93.1779 50.9178 92.8271 51.14 92.5331 51.4281C92.2392 51.7161 92.0087 52.0635 91.8566 52.4475C91.7046 52.8316 91.6345 53.2437 91.6508 53.6569V71.9259C91.5832 72.3967 91.6241 72.877 91.7703 73.3293C91.9165 73.7816 92.1641 74.1937 92.4938 74.5336C92.8235 74.8736 93.2265 75.1321 93.6713 75.2891C94.1161 75.4462 94.5908 75.4975 95.0585 75.439H105.51C106.853 75.439 107.349 75.5516 106.469 77.023C104.463 80.0935 102.502 83.1941 100.588 86.3238C100.311 86.8433 99.8891 87.2687 99.3742 87.5469C98.8592 87.8251 98.2744 87.9437 97.693 87.8877H74C75.1376 90.3299 76.5031 92.6595 78.0719 94.844C81.0272 99.2551 83.823 103.773 86.4537 108.389C87.8019 110.771 87.45 111.699 85.0361 113.04C85.217 113.095 85.4029 113.133 85.5888 113.15H110.613C111.939 113.132 113.24 112.783 114.401 112.134C115.561 111.486 116.545 110.557 117.264 109.432C118.015 108.431 118.717 107.395 119.364 106.324C126.66 93.8109 133.945 81.2905 141.218 68.763C142.095 67.381 142.504 65.7484 142.383 64.1113" fill="#1B75BC"/>
<path d="M184.835 43.8889C182.577 43.8889 180.321 44.0071 178.08 43.8889C176.7 43.7909 176.343 44.3841 176.149 45.5353C175.32 50.4669 174.362 55.2376 173.533 60.1038C173.357 61.157 173.03 61.4712 171.91 61.4536C168.352 61.4762 164.756 61.4863 161.13 61.4863C160.152 61.4863 159.976 61.255 160.152 60.2672C162.346 48.3781 164.44 36.474 166.649 24.6C167.088 21.7602 168.497 19.1664 170.631 17.2705C172.764 15.3745 175.486 14.2964 178.323 14.224C184.818 13.945 191.31 14.1235 197.805 14.0732C198.599 14.0732 198.718 14.3723 198.599 15.061C198.018 18.3513 197.4 21.4932 196.862 24.7131C196.688 25.7688 196.005 25.6682 195.241 25.6682H181.244C180.142 25.6682 179.624 25.995 179.624 27.0833C179.472 28.3514 179.244 29.6089 178.941 30.8486C178.648 31.9848 178.941 32.4146 180.142 32.3945H193.978C195.176 32.3945 195.487 32.7062 195.243 33.9101C194.658 36.7882 194.139 39.6787 193.618 42.5718C193.439 43.5923 193.129 44.1051 191.995 44.0372C189.637 43.9392 187.27 44.0372 184.915 44.0372L184.835 43.8889ZM291.668 61.4838C288.521 61.3229 284.672 61.7628 280.855 61.2374C275.676 60.5311 273.192 57.0448 274.15 51.8468C275.061 46.9152 275.902 41.9837 276.862 37.0471C277.202 34.6716 278.317 32.4795 280.029 30.82C281.741 29.1606 283.952 28.1292 286.31 27.8902C291.762 27.2195 297.275 27.2195 302.727 27.8902C307.435 28.4482 309.887 32.0803 309.075 36.8032C308.929 37.6227 308.718 38.4471 308.618 39.2514C307.939 44.731 303.586 47.5713 298.878 47.8377C295.535 48.0021 292.187 48.0021 288.844 47.8377C287.221 47.8377 286.635 48.2474 286.474 49.8284C286.246 51.8996 286.164 51.882 288.244 51.882H303.553C304.722 51.882 305.065 52.0781 304.74 53.3449C304.221 55.499 303.928 57.7059 303.571 59.9254C303.392 61.0263 303.052 61.5667 301.722 61.5667C298.602 61.436 295.468 61.5667 291.653 61.5667L291.668 61.4838ZM297.22 35.8682C295.063 35.8682 292.936 35.9662 290.825 35.8682C289.348 35.7677 288.894 36.2955 288.68 37.7408C288.179 41.2598 288.1 41.2774 291.539 41.2447C293.165 41.2447 295.272 41.951 296.121 40.9657C296.962 39.9778 296.897 37.6754 297.222 35.9009L297.22 35.8682ZM258.319 27.5132C260.835 27.6087 263.354 27.4126 265.888 27.7394C271.13 28.4482 273.485 31.4921 272.574 36.7203C271.211 44.5952 269.732 52.44 268.323 60.3024C268.176 61.1394 267.869 61.5039 266.943 61.4863C263.695 61.4305 260.447 61.4305 257.2 61.4863C256.242 61.4863 256.142 61.1897 256.306 60.3175C257.671 53.0659 258.954 45.8143 260.319 38.5627C260.51 37.5271 260.478 37.0646 259.227 37.13C257.423 37.2506 255.614 37.2506 253.807 37.13C252.541 37.0471 252.184 37.5246 251.938 38.6934C250.737 45.568 249.422 52.4425 248.268 59.3322C247.992 60.976 247.489 61.6522 245.722 61.519C242.942 61.3229 240.12 61.4184 237.326 61.519C236.271 61.519 235.862 61.338 236.075 60.1365C237.554 52.2942 238.917 44.4168 240.408 36.572C240.801 34.2446 241.951 32.1172 243.676 30.5288C245.401 28.9404 247.601 27.9823 249.926 27.8072C252.707 27.5627 255.498 27.4704 258.289 27.5308L258.321 27.5106L258.319 27.5132ZM362.266 27.5282H370.984C371.813 27.5282 372.168 27.5282 371.925 28.6292C371.382 30.9503 370.965 33.2998 370.676 35.6671C370.53 37.0496 369.897 37.1828 368.778 37.1652H356.421C355.935 37.2448 355.485 37.4767 355.135 37.8283C354.785 38.1799 354.553 38.6336 354.471 39.1258C354.416 39.4513 354.427 39.7849 354.503 40.106C354.749 40.5509 355.186 40.37 355.543 40.3876H362.04C366.259 40.5836 370.158 43.1022 368.907 48.9889C368.257 51.8996 367.979 54.9259 365.852 57.2107C364.569 58.6182 363.001 59.7287 361.255 60.4666C359.509 61.2044 357.627 61.5522 355.736 61.4863C350.478 61.5667 345.202 61.4863 339.923 61.4863C338.886 61.4863 338.593 61.255 338.836 60.2019C339.337 57.8819 339.826 55.5342 340.119 53.1639C340.265 52.0127 340.784 51.882 341.742 51.882H355.089C356.176 51.882 357.441 49.7103 356.89 48.7753C356.647 48.363 356.193 48.5792 355.853 48.5616H349.358C343.948 48.2826 341.531 45.1583 342.506 39.8145C342.7 38.7085 342.911 37.6277 343.137 36.5217C344.291 30.6375 347.701 27.6916 353.659 27.5785H362.216L362.266 27.5282ZM340.767 27.5081C340.216 30.5696 339.68 33.4627 339.146 36.3558C338.982 37.4115 338.268 37.1652 337.667 37.1652H324.988C323.834 37.1652 322.583 39.2062 323.119 40.2066C323.345 40.6339 323.802 40.4378 324.144 40.4378H330.636C336.027 40.7168 338.464 43.8412 337.521 49.185C337.521 49.562 337.31 49.939 337.277 50.3186C336.449 57.9497 331.433 61.157 324.757 61.3857C319.32 61.5667 313.882 61.3857 308.522 61.3857C307.499 61.3857 307.37 61.0891 307.581 60.1365C308.085 57.8165 308.522 55.4663 308.849 53.0986C308.993 52.0127 309.418 51.7664 310.47 51.784H323.817C324.302 51.6823 324.745 51.4291 325.081 51.0599C325.418 50.6907 325.631 50.224 325.693 49.7254C325.735 49.3953 325.71 49.0598 325.618 48.7401C325.392 48.3128 324.953 48.4611 324.613 48.4611H318.119C312.954 48.1821 309.998 44.8592 311.281 39.8622C311.738 37.9695 311.884 36.014 312.517 34.1715C312.983 32.4655 313.949 30.943 315.289 29.806C316.628 28.669 318.277 27.971 320.017 27.8047C326.901 27.0507 333.82 27.6941 340.851 27.4629L340.767 27.5081ZM226.235 61.4838C223.982 61.5491 221.726 61.4586 219.485 61.2224C214.611 60.4507 212.109 57.2912 212.988 52.3244C214.869 41.7499 216.787 31.1427 218.686 20.5531C218.815 19.8167 219.046 19.4346 219.937 19.4346H229.809C230.816 19.4346 230.849 19.7815 230.67 20.6034C230.263 22.4961 229.988 24.419 229.566 26.3092C229.337 27.3146 229.566 27.5408 230.586 27.5257H238.009C238.934 27.5257 239.145 27.8047 238.984 28.6769C238.505 31.1352 238.056 33.5909 237.634 36.0441C237.487 36.8988 237.147 37.228 236.237 37.1953H228.672C228.025 37.1953 227.6 37.1953 227.456 38.0851C226.751 42.3004 225.99 46.5055 225.166 50.6956C224.937 51.8142 225.31 51.9826 226.302 51.9449H233.057C234.244 51.9449 234.859 51.9449 234.47 53.5912C233.884 55.9112 233.527 58.279 233.172 60.6292C233.04 61.4033 232.747 61.6346 232 61.6195H226.253L226.235 61.4838ZM212.695 27.5257C211.315 35.1418 209.95 42.6221 208.588 50.0899C207.985 53.3776 207.322 56.6653 206.786 60.0686C206.622 61.0565 206.379 61.5165 205.26 61.4838C202.011 61.4033 198.894 61.4838 195.713 61.4838C194.705 61.4838 194.576 61.2374 194.755 60.2521C196.702 49.727 198.624 39.1968 200.52 28.6619C200.631 28.0184 200.713 27.5081 201.572 27.5081H212.68L212.695 27.5257ZM207.094 24.9946C204.528 24.9946 202.597 23.8761 201.949 22.1317C201.641 20.9745 201.673 19.7512 202.042 18.6124C202.411 17.4736 203.101 16.4689 204.026 15.7221C205.167 14.8391 206.515 14.2719 207.938 14.0762C209.361 13.8806 210.809 14.0632 212.142 14.6061C213.006 14.9219 213.729 15.543 214.177 16.3551C214.626 17.1673 214.77 18.1162 214.584 19.0274C214.092 22.7274 211.169 25.0449 207.094 24.9946ZM77.3145 95.4644C75.7401 93.2703 74.3732 90.9307 73.2321 88.4768C70.8149 84.3445 68.3431 80.2323 65.4296 75.9166H79.563C79.9845 75.9521 80.4086 75.8945 80.8059 75.7476C81.2032 75.6007 81.5642 75.3681 81.864 75.0659C82.1638 74.7638 82.3951 74.3992 82.542 73.9975C82.6889 73.5958 82.7479 73.1665 82.7148 72.7394V64.6282C82.7148 61.0967 82.8463 57.5827 82.7148 54.0512C82.7148 51.9021 81.5186 50.9294 79.0269 50.8917H66.0202C65.6504 50.389 66.0202 50.1276 66.2212 49.846C68.0676 46.8373 70.1697 43.8839 72.0161 40.8023C72.3252 40.1128 72.8409 39.5395 73.49 39.1637C74.139 38.7878 74.8885 38.6286 75.6319 38.7085C83.0126 38.804 90.3932 38.7085 97.682 38.7085L87.4598 22.2448C87.0824 21.6372 86.7313 21.0132 86.4076 20.3747C84.452 17.0694 84.452 17.0694 86.9436 14.2668C78.9525 13.9903 70.9514 13.9903 62.9578 14.2668C61.052 14.2812 59.186 14.8208 57.5601 15.8278C55.9341 16.8348 54.6095 18.271 53.7282 19.9826C49.76 26.935 45.7396 33.8473 41.7515 40.7621C38.4681 46.6136 35.0384 52.2942 31.8668 58.0503C30.7401 60.0511 29.5042 62.1046 30.204 64.6106C30.482 66.6315 31.2438 68.5569 32.4202 70.2158C39.5626 82.6428 46.7943 95.0321 53.8052 107.592C56.277 112.021 59.5057 114.226 64.6354 113.982C71.1673 113.683 77.7166 113.851 84.2658 113.816C86.7054 112.471 87.0354 111.516 85.6879 109.141C83.0672 104.508 80.1536 99.9863 77.2922 95.5373" fill="#ED1C24"/>
<path d="M378.026 24.9988C377.857 21.8022 378.418 20 382.728 20C387.042 20 387.825 21.79 387.979 24.9988C388.129 28.21 387.584 30 383.258 30C378.926 30 378.179 28.21 378.026 24.9988ZM387.008 24.9988C386.855 21.9951 386.193 20.8449 382.78 20.8449C379.367 20.8449 378.859 21.9951 379.012 24.9963C379.165 28.0049 379.809 29.2186 383.206 29.2186C386.6 29.2186 387.161 28.0513 387.008 24.9695V24.9988ZM380.997 27.4408L380.743 22.6496C380.743 22.3785 380.862 22.2833 381.098 22.2515C381.693 22.1612 382.295 22.1123 382.9 22.105C384.599 22.105 385.157 22.3614 385.243 23.8657C385.243 24.7888 385.041 25.2527 384.309 25.4628L385.464 27.2698C385.536 27.3599 385.588 27.463 385.617 27.5726C385.617 27.7314 385.495 27.7949 385.09 27.7949C384.683 27.7949 384.478 27.7949 384.358 27.4896L383.341 25.5897H382.067L382.168 27.4457C382.168 27.7314 382.051 27.7949 381.592 27.7949C381.132 27.7949 380.997 27.6996 380.979 27.4115L380.997 27.4457V27.4408ZM382.033 24.7912H382.985C384.005 24.7912 384.189 24.6642 384.14 23.8144C384.088 22.9695 383.901 23.033 382.952 23.033H381.999L382.033 24.7912Z" fill="#1D1D1D"/>
</svg>
