<svg width="560" height="354" viewBox="0 0 560 354" fill="none" xmlns="http://www.w3.org/2000/svg">
<rect width="560" height="354" fill="#E5ECFF"/>
<path d="M529.689 154.546C531.426 153.981 532.767 156.126 531.497 157.437C519.192 170.108 487.97 204.341 478.447 234.629C462.943 283.944 420.983 335.153 381.999 331.999C381.999 331.999 340.393 216.071 529.689 154.546Z" fill="#91B3FA"/>
<path d="M510.694 170.166C510.357 170.422 509.968 170.754 509.599 171.06L508.489 172.009L506.289 173.933L501.93 177.828C499.044 180.447 496.189 183.104 493.361 185.783C487.696 191.137 482.126 196.592 476.669 202.156C465.78 213.306 455.198 224.762 445.251 236.751C440.304 242.765 435.392 248.812 430.736 255.053C426.083 261.293 421.57 267.642 417.321 274.163C413.077 280.685 408.999 287.322 405.318 294.18C401.619 301.028 398.256 308.055 395.278 315.257C395.215 315.41 395.044 315.48 394.894 315.42C394.748 315.36 394.675 315.194 394.73 315.046C397.45 307.713 400.7 300.586 404.243 293.613C407.839 286.662 411.832 279.929 415.998 273.307C424.466 260.148 433.858 247.605 443.89 235.616C448.895 229.609 454.096 223.77 459.374 218.01C464.658 212.254 470.065 206.609 475.624 201.117C481.174 195.62 486.809 190.205 492.585 184.944C495.478 182.32 498.394 179.721 501.342 177.16C502.821 175.884 504.3 174.608 505.799 173.355L508.059 171.489L509.202 170.568C509.596 170.264 509.95 169.965 510.405 169.651C510.538 169.561 510.719 169.593 510.809 169.724C510.897 169.852 510.869 170.028 510.746 170.121L510.694 170.161V170.166Z" fill="#DCE5FE"/>
<path d="M373.327 43.7685C357.097 69.0339 270.043 217.508 388.553 327.509C392.558 331.228 398.932 330.508 402.051 326.018C419.727 300.569 463.287 212.57 377.817 43.9869C376.913 42.204 374.41 42.0834 373.327 43.7659V43.7685Z" fill="#91B3FA"/>
<path d="M376.333 74.6214C374.734 84.2544 373.33 93.9327 372.011 103.613C370.698 113.297 369.495 122.998 368.408 132.709C366.231 152.13 364.488 171.602 363.345 191.107C362.218 210.609 361.658 230.152 362.167 249.664C362.391 259.42 362.969 269.163 363.915 278.862C364.877 288.555 366.221 298.216 368.322 307.703V307.708C368.463 308.341 368.064 308.969 367.431 309.109C366.798 309.25 366.17 308.851 366.03 308.215V308.208C363.955 298.582 362.657 288.834 361.746 279.068C360.849 269.299 360.327 259.505 360.158 249.709C359.762 230.119 360.437 210.534 361.678 191.002C362.933 171.469 364.792 151.982 367.084 132.553C368.23 122.837 369.49 113.136 370.859 103.45C372.235 93.7645 373.694 84.0937 375.351 74.4456C375.399 74.1744 375.655 73.9936 375.926 74.0388C376.195 74.084 376.378 74.3401 376.333 74.6113V74.6164V74.6214Z" fill="#DCE5FE"/>
<path d="M517.271 226.741C518.581 226.593 519.219 228.303 518.129 229.047C507.595 236.226 480.564 255.914 469.447 275.954C451.346 308.582 414.265 338.719 387.156 330.847C387.156 330.847 374.512 242.851 517.271 226.741Z" fill="#BDD0FB"/>
<path d="M501.603 235.116C501.347 235.244 501.018 235.425 500.717 235.588L499.8 236.103L497.975 237.155L494.338 239.292C491.925 240.736 489.529 242.21 487.149 243.707C482.38 246.688 477.661 249.747 473.008 252.903C463.719 259.236 454.581 265.796 445.827 272.842C441.467 276.383 437.115 279.934 432.919 283.668C428.725 287.4 424.619 291.232 420.664 295.215C412.729 303.15 405.378 311.686 399.043 320.972C398.952 321.108 398.769 321.143 398.636 321.053C398.505 320.965 398.47 320.789 398.548 320.656C401.498 315.839 404.816 311.254 408.314 306.814C411.852 302.404 415.642 298.206 419.539 294.11C427.429 286.014 435.88 278.482 444.719 271.454C449.134 267.933 453.662 264.558 458.232 261.25C462.808 257.946 467.453 254.739 472.189 251.675C476.921 248.601 481.694 245.598 486.554 242.73C488.987 241.301 491.43 239.898 493.894 238.521C495.127 237.838 496.36 237.155 497.606 236.492L499.481 235.51L500.426 235.028C500.752 234.873 501.038 234.714 501.425 234.554C501.573 234.491 501.744 234.561 501.807 234.709C501.867 234.852 501.807 235.013 501.669 235.081L501.608 235.111L501.603 235.116Z" fill="#DCE5FE"/>
<path d="M70.1087 91.1754C65.3299 118.756 44.0648 280.399 192.164 327.597C192.164 327.597 233.557 224.785 73.9685 89.7641C72.5722 88.5838 70.4201 89.3723 70.1087 91.1729V91.1754Z" fill="#BDD0FB"/>
<path d="M83.6467 116.082C85.726 124.763 87.9861 133.412 90.3215 142.033C92.6595 150.656 95.0979 159.25 97.6342 167.815C102.709 184.947 108.166 201.963 114.143 218.793C120.13 235.616 126.609 252.273 133.977 268.521C137.635 276.654 141.586 284.655 145.832 292.483C150.089 300.303 154.657 307.957 159.797 315.194V315.199C160.176 315.729 160.051 316.462 159.523 316.837C158.993 317.213 158.26 317.088 157.886 316.56L157.881 316.555C152.71 309.18 148.152 301.425 143.914 293.522C139.687 285.609 135.765 277.543 132.143 269.352C124.848 252.989 118.457 236.249 112.566 219.353C106.685 202.453 101.328 185.376 96.356 168.195C93.8699 159.604 91.4842 150.983 89.1965 142.337C86.9138 133.688 84.7064 125.024 82.6773 116.308C82.6146 116.039 82.7803 115.773 83.049 115.71C83.3152 115.647 83.5814 115.813 83.6467 116.079V116.084V116.082Z" fill="#DCE5FE"/>
<g opacity="0.71">
<path opacity="0.65" d="M193.273 282.794C193.273 282.794 203.335 266.991 198.157 240.756C193.353 216.415 180.134 158.697 184.383 134.451C184.571 133.376 183.175 132.801 182.56 133.703C175.973 143.369 161.38 168.878 162.033 204.339C162.874 250.071 193.273 282.794 193.273 282.794Z" fill="white"/>
<path opacity="0.45" d="M178.494 155.684C177.517 158.072 176.811 160.555 176.231 163.059C175.91 164.302 175.699 165.573 175.43 166.826C175.237 168.097 175.006 169.357 174.838 170.63C174.697 171.906 174.498 173.172 174.403 174.453C174.313 175.731 174.197 177.006 174.122 178.285L173.984 182.124C173.974 183.405 174.006 184.686 174.014 185.967C174.134 191.084 174.534 196.197 175.327 201.257L175.601 203.158L175.742 204.108L175.925 205.049L176.661 208.819C176.892 210.074 177.173 211.332 177.454 212.591L178.288 216.365C179.446 221.387 180.648 226.4 181.907 231.4C183.167 236.399 184.478 241.389 185.779 246.387C186.434 248.885 187.09 251.384 187.705 253.898C188.021 255.151 188.328 256.409 188.624 257.67C188.936 258.925 189.212 260.193 189.475 261.464C190.53 266.529 191.454 271.715 191.178 276.943C191.171 277.106 191.03 277.229 190.869 277.222C190.713 277.214 190.593 277.086 190.59 276.936V276.928C190.543 274.367 190.229 271.823 189.802 269.299C189.33 266.778 188.765 264.274 188.107 261.788C186.821 256.806 185.347 251.861 183.938 246.891L181.816 239.436C181.138 236.939 180.448 234.448 179.797 231.945C178.451 226.947 177.251 221.912 176.083 216.87L175.239 213.08C174.953 211.82 174.669 210.556 174.453 209.268L173.745 205.426L173.569 204.467L173.436 203.5L173.178 201.564C173.019 200.27 172.798 198.985 172.695 197.686L172.394 193.789C172.266 192.493 172.274 191.187 172.226 189.884C172.198 188.581 172.118 187.28 172.183 185.977C172.216 180.766 172.721 175.557 173.682 170.445C173.908 169.164 174.232 167.901 174.506 166.633L175.013 164.749C175.177 164.121 175.35 163.494 175.556 162.878C176.322 160.397 177.228 157.954 178.434 155.656C178.444 155.638 178.464 155.631 178.484 155.641C178.501 155.649 178.506 155.671 178.499 155.689L178.494 155.684Z" fill="white"/>
</g>
<path d="M289.885 153.413C292.087 103.169 249.908 60.5112 195.675 58.1338C141.442 55.7565 95.6924 94.56 93.4899 144.804C91.2874 195.048 133.466 237.706 187.699 240.083C241.932 242.46 287.682 203.657 289.885 153.413Z" fill="url(#paint0_linear_10588_4839)"/>
<g opacity="0.68">
<g style="mix-blend-mode:soft-light">
<path d="M216.807 149.556C216.785 165.618 215.682 181.71 212.852 197.543C212.136 201.499 211.305 205.434 210.316 209.334C209.324 213.231 208.176 217.093 206.772 220.873C205.356 224.639 203.714 228.354 201.486 231.746C200.364 233.431 199.091 235.046 197.521 236.372C196.735 237.032 195.874 237.617 194.925 238.044C193.978 238.471 192.943 238.74 191.893 238.758C190.844 238.788 189.794 238.582 188.83 238.195C187.86 237.811 186.977 237.251 186.173 236.613C184.563 235.327 183.262 233.73 182.12 232.06C179.852 228.69 178.187 224.986 176.758 221.224C175.337 217.452 174.179 213.593 173.177 209.698C172.178 205.803 171.339 201.868 170.616 197.913C169.174 190.002 168.19 182.019 167.527 174.011C166.869 166.002 166.538 157.969 166.497 149.933C166.477 145.915 166.588 141.9 166.731 137.884C166.882 133.871 167.103 129.858 167.399 125.853C167.994 117.842 168.881 109.849 170.199 101.921C170.862 97.9583 171.633 94.0131 172.562 90.1006C173.494 86.1907 174.574 82.3133 175.917 78.5164C176.593 76.6204 177.328 74.7445 178.17 72.9138C179.008 71.0831 179.95 69.2926 181.053 67.6001C182.16 65.915 183.431 64.3053 185.015 63.0171C185.806 62.3792 186.68 61.8243 187.637 61.4476C188.589 61.0659 189.623 60.8725 190.65 60.9127C191.68 60.9428 192.692 61.199 193.629 61.6108C194.565 62.0252 195.427 62.5877 196.215 63.2255C197.795 64.5088 199.103 66.0808 200.263 67.7281C202.571 71.048 204.309 74.7119 205.816 78.4385C207.312 82.1752 208.545 86.0099 209.623 89.8822C210.695 93.757 211.602 97.6745 212.388 101.617C215.496 117.395 216.757 133.492 216.805 149.554L216.807 149.556ZM215.62 149.556C215.635 141.553 215.331 133.55 214.665 125.574C214.01 117.599 213.015 109.648 211.536 101.785C210.798 97.8553 209.937 93.9453 208.912 90.0806C207.885 86.2158 206.697 82.3937 205.253 78.667C203.799 74.9529 202.112 71.3016 199.874 68.0044C198.749 66.3671 197.481 64.8126 195.957 63.547C195.196 62.9192 194.37 62.3667 193.476 61.9599C192.582 61.5581 191.62 61.2944 190.64 61.2693C189.664 61.2391 188.687 61.435 187.78 61.8067C186.871 62.1758 186.04 62.7183 185.279 63.3436C183.76 64.6067 182.527 66.1963 181.457 67.8663C180.39 69.5438 179.478 71.3242 178.667 73.1449C177.853 74.9655 177.143 76.8338 176.495 78.7223C175.204 82.5042 174.169 86.3715 173.288 90.2714C172.406 94.1738 171.681 98.1089 171.065 102.062C169.837 109.969 169.041 117.943 168.537 125.931C168.027 133.919 167.851 141.927 167.866 149.931C167.846 157.934 168.112 165.937 168.707 173.918C169.308 181.896 170.224 189.857 171.6 197.737C172.288 201.677 173.094 205.597 174.056 209.474C175.021 213.352 176.141 217.194 177.519 220.938C178.905 224.672 180.525 228.349 182.717 231.658C183.82 233.298 185.076 234.855 186.595 236.091C187.356 236.703 188.182 237.233 189.076 237.595C189.967 237.959 190.924 238.16 191.881 238.127C192.838 238.102 193.782 237.851 194.658 237.447C195.535 237.042 196.346 236.485 197.087 235.852C198.573 234.576 199.801 232.999 200.884 231.344C203.036 228.01 204.633 224.326 206.004 220.584C207.365 216.832 208.473 212.987 209.427 209.108C210.379 205.225 211.175 201.305 211.855 197.363C213.221 189.48 214.128 181.519 214.731 173.541C215.341 165.56 215.625 157.557 215.62 149.551V149.556Z" fill="white"/>
</g>
<g style="mix-blend-mode:soft-light">
<path d="M257.324 149.556C257.268 159.9 255.94 170.246 253.17 180.221C250.352 190.173 246.106 199.746 240.34 208.339C237.457 212.631 234.19 216.671 230.541 220.338C226.893 224.002 222.86 227.291 218.48 230.049C214.098 232.793 209.362 234.993 204.407 236.482C199.455 237.977 194.284 238.758 189.109 238.763C183.933 238.763 178.762 237.987 173.805 236.497C168.846 235.011 164.109 232.816 159.72 230.074C155.335 227.321 151.295 224.034 147.641 220.37C143.985 216.706 140.712 212.666 137.822 208.374C132.046 199.778 127.79 190.201 124.96 180.246C123.566 175.259 122.531 170.173 121.846 165.043C121.163 159.91 120.821 154.737 120.796 149.559C120.824 144.381 121.168 139.208 121.853 134.077C122.541 128.947 123.581 123.864 124.977 118.877C127.815 108.925 132.076 99.3544 137.857 90.766C140.748 86.4769 144.022 82.4413 147.676 78.7825C151.33 75.1236 155.368 71.8415 159.75 69.0967C164.137 66.362 168.873 64.1822 173.823 62.6956C178.77 61.2039 183.933 60.4254 189.101 60.4204C194.269 60.4305 199.432 61.214 204.377 62.7081C209.324 64.1998 214.058 66.3821 218.44 69.1193C222.819 71.8666 226.85 75.1538 230.499 78.8126C234.148 82.474 237.415 86.5095 240.298 90.7987C246.066 99.3846 250.32 108.952 253.145 118.899C255.92 128.869 257.256 139.215 257.319 149.559L257.324 149.556ZM255.963 149.556C255.947 139.331 254.674 129.095 251.975 119.223C249.263 109.367 245.177 99.8542 239.554 91.2959C236.744 87.0218 233.552 82.9938 229.976 79.3324C226.4 75.6761 222.45 72.3688 218.128 69.619C213.804 66.8843 209.131 64.6845 204.234 63.1953C199.339 61.7062 194.227 60.9227 189.106 60.9051C183.986 60.9277 178.875 61.7137 173.984 63.2079C169.089 64.6995 164.421 66.9044 160.102 69.6416C155.785 72.3939 151.842 75.7037 148.271 79.3626C144.703 83.0265 141.516 87.0545 138.713 91.3286C133.101 99.8843 129.025 109.394 126.326 119.246C124.98 124.178 124.008 129.205 123.347 134.271C122.687 139.336 122.36 144.446 122.348 149.556C122.363 154.667 122.692 159.774 123.357 164.84C124.02 169.905 124.997 174.93 126.346 179.859C129.053 189.706 133.136 199.211 138.751 207.756C141.556 212.026 144.743 216.051 148.311 219.71C151.882 223.361 155.822 226.668 160.137 229.413C164.456 232.143 169.122 234.333 174.009 235.824C178.893 237.319 183.993 238.11 189.109 238.137C194.222 238.117 199.324 237.329 204.211 235.839C209.101 234.353 213.769 232.166 218.093 229.438C222.413 226.699 226.36 223.394 229.936 219.743C233.51 216.086 236.704 212.061 239.514 207.792C245.142 199.243 249.232 189.736 251.952 179.884C254.657 170.018 255.937 159.782 255.96 149.559L255.963 149.556Z" fill="white"/>
</g>
<g style="mix-blend-mode:soft-light">
<path d="M109.505 114.256L129.992 114.09L150.478 113.997L191.451 113.922L232.424 114.005L252.911 114.108L273.398 114.286C273.43 114.286 273.458 114.314 273.458 114.347C273.458 114.379 273.43 114.407 273.398 114.407L252.911 114.585L232.424 114.688L191.451 114.771L150.478 114.696L129.992 114.603L109.505 114.437C109.455 114.437 109.415 114.397 109.417 114.347C109.417 114.296 109.457 114.259 109.505 114.259V114.256Z" fill="white"/>
</g>
<g style="mix-blend-mode:soft-light">
<path d="M133.271 79.9452C138.121 79.8673 142.967 79.8347 147.816 79.7795L162.362 79.6865C167.211 79.6464 172.057 79.6514 176.907 79.6388L191.452 79.6112L220.542 79.6941L235.087 79.797C239.936 79.8573 244.782 79.8925 249.632 79.9753C249.664 79.9753 249.692 80.003 249.692 80.0356C249.692 80.0682 249.664 80.0934 249.632 80.0959C244.782 80.1787 239.936 80.2139 235.087 80.2742L220.542 80.3771L191.452 80.46L176.907 80.4324C172.057 80.4198 167.211 80.4248 162.362 80.3847L147.816 80.2917C142.967 80.2365 138.121 80.2039 133.271 80.126C133.221 80.126 133.184 80.0833 133.184 80.0356C133.184 79.9879 133.224 79.9477 133.271 79.9477V79.9452Z" fill="white"/>
</g>
<g style="mix-blend-mode:soft-light">
<path d="M102.386 148.569L124.653 148.404L146.92 148.308L191.451 148.233L235.983 148.316L258.25 148.419L280.517 148.597C280.55 148.597 280.577 148.625 280.577 148.657C280.577 148.69 280.55 148.718 280.517 148.718L258.25 148.896L235.983 148.999L191.451 149.082L146.92 149.006L124.653 148.911L102.386 148.745C102.336 148.745 102.295 148.705 102.298 148.655C102.298 148.605 102.338 148.567 102.386 148.567V148.569Z" fill="white"/>
</g>
<g style="mix-blend-mode:soft-light">
<path d="M109.505 182.88L129.992 182.715L150.478 182.622L191.451 182.546L232.424 182.629L252.911 182.732L273.398 182.91C273.43 182.91 273.458 182.938 273.458 182.971C273.458 183.003 273.43 183.031 273.398 183.031L252.911 183.209L232.424 183.312L191.451 183.395L150.478 183.32L129.992 183.227L109.505 183.061C109.455 183.061 109.415 183.021 109.417 182.971C109.417 182.923 109.457 182.883 109.505 182.883V182.88Z" fill="white"/>
</g>
<g style="mix-blend-mode:soft-light">
<path d="M252.56 217.598H136.205C136.031 217.598 135.891 217.457 135.891 217.284C135.891 217.111 136.031 216.97 136.205 216.97H252.56C252.733 216.97 252.874 217.111 252.874 217.284C252.874 217.457 252.733 217.598 252.56 217.598Z" fill="white"/>
</g>
</g>
<path d="M35.7736 198.302C35.2111 196.903 36.9012 195.677 38.0513 196.652C49.1786 206.069 79.1274 229.845 104.604 235.978C146.084 245.962 190.616 277.624 190.216 309.9C190.216 309.9 97.1103 350.698 35.7736 198.302Z" fill="#91B3FA"/>
<path d="M49.7484 213.032C49.9719 213.284 50.2707 213.59 50.5419 213.874L51.3882 214.73L53.1008 216.428L56.5613 219.788C58.8867 222.01 61.2372 224.205 63.6103 226.377C68.3465 230.729 73.1555 235.003 78.0499 239.174C87.8562 247.491 97.8785 255.56 108.315 263.064C113.549 266.79 118.794 270.499 124.194 273.982C129.59 277.463 135.067 280.82 140.67 283.957C151.85 290.268 163.512 295.75 175.696 299.861C175.849 299.911 175.935 300.076 175.885 300.23C175.834 300.38 175.674 300.463 175.523 300.421C169.323 298.62 163.263 296.355 157.312 293.844C151.378 291.285 145.602 288.382 139.906 285.333C128.586 279.108 117.715 272.089 107.273 264.497C102.045 260.711 96.9443 256.755 91.9043 252.73C86.8668 248.699 81.9146 244.563 77.0855 240.287C72.2514 236.018 67.4776 231.678 62.8293 227.211C60.509 224.971 58.2112 222.711 55.941 220.423C54.811 219.275 53.6784 218.125 52.566 216.96L50.9085 215.197L50.0874 214.306C49.8162 213.997 49.5525 213.726 49.2612 213.356C49.1607 213.231 49.1833 213.047 49.3089 212.947C49.4294 212.852 49.6052 212.867 49.7057 212.982L49.7509 213.032H49.7484Z" fill="#DCE5FE"/>
<path d="M335.642 304.747L414.931 152.848H398.686C395.69 152.848 394.043 149.365 395.944 147.05L480.449 44.0547C484.11 39.5898 491.345 42.4224 491.006 48.1857L485.067 148.901C484.728 154.667 479.615 158.963 473.877 158.308L462.551 157.012L383.882 327.384C381.833 331.818 377.396 334.659 372.509 334.659H345.242L335.644 304.747H335.642Z" fill="url(#paint1_linear_10588_4839)"/>
<path d="M270.088 198.214L326.063 322.557C329.378 329.922 336.706 334.659 344.782 334.659H373.638C377.468 334.659 380.994 332.582 382.852 329.234L383.879 327.384C380.778 327.384 377.94 325.646 376.531 322.883L301.95 176.753L270.09 198.214H270.088Z" fill="url(#paint2_linear_10588_4839)"/>
<path d="M309.482 191.514C303.869 187.081 295.668 188.385 291.705 194.339L209.404 317.989C202.813 327.893 191.705 333.842 179.807 333.842H168.225L158.801 306.694C158.801 306.694 235.313 189.379 255.031 171.632C255.031 171.632 274.669 153.933 294.033 167.316C299.148 170.851 303.033 175.896 305.404 181.645L309.477 191.516L309.482 191.514Z" fill="url(#paint3_linear_10588_4839)"/>
<path d="M69.291 233.675C69.291 233.675 83.0676 216.455 109.764 213.776C109.764 213.776 122.444 218.095 147.704 263.357C172.964 308.62 189.732 329.262 209.407 317.987L207.777 320.691C202.409 329.603 192.765 335.055 182.359 335.055H171.478C159.497 335.055 148.249 329.295 141.253 319.569C121.592 292.239 81.3675 237.916 69.291 233.672V233.675Z" fill="url(#paint4_linear_10588_4839)"/>
<path d="M334.34 199.012C334.298 198.995 311.272 158.675 308.163 154.88C307.641 154.242 306.83 153.916 306.011 154.014L299.585 154.78L292.036 171.113L304.612 163.787C303.367 172.396 319.526 185.186 325.066 189.854C325.629 190.329 325.674 191.175 325.167 191.707L322.954 194.023C326.586 197.704 330.777 200.067 335.508 201.162L334.343 199.01L334.34 199.012Z" fill="url(#paint5_linear_10588_4839)"/>
<path d="M324.232 192.774C324.232 192.774 322.821 193.232 322.341 194.487C322.113 195.09 322.359 195.77 322.881 196.145C325.207 197.81 332.876 203.189 336.414 204.241C336.706 204.326 336.979 204.065 336.914 203.769C336.733 202.947 336.146 201.305 334.252 198.902L334.423 199.246C334.639 199.68 334.164 200.132 333.742 199.894C331.374 198.558 326.555 195.632 324.23 192.772L324.232 192.774Z" fill="url(#paint6_linear_10588_4839)"/>
<path d="M325.373 208.907C325.335 208.881 321.88 200.559 321.842 200.534C318.675 181.25 310.948 164.737 308.668 160.39C308.284 159.659 307.558 159.177 306.735 159.106L300.286 158.557L289.588 173.024L303.387 168.396C300.426 176.572 313.66 192.37 318.143 198.063C318.598 198.641 318.472 199.482 317.867 199.899L315.233 201.719C318.045 206.059 321.671 209.223 326.081 211.252L325.375 208.909L325.373 208.907Z" fill="url(#paint7_linear_10588_4839)"/>
<path d="M316.736 200.755C316.736 200.755 315.262 200.916 314.539 202.051C314.192 202.593 314.298 203.312 314.732 203.784C316.671 205.886 323.095 212.704 326.347 214.451C326.613 214.595 326.937 214.394 326.932 214.09C326.919 213.249 326.678 211.521 325.309 208.784L325.407 209.155C325.53 209.625 324.975 209.971 324.609 209.652C322.562 207.864 318.431 204.025 316.734 200.753L316.736 200.755Z" fill="url(#paint8_linear_10588_4839)"/>
<path d="M270.101 155.51C270.101 155.51 264.267 164.187 263.788 168.144C263.308 172.102 265.4 173.471 271.507 173.975C289.676 175.477 298.633 170.033 298.633 170.033C299.876 162.107 300.76 160.091 311.142 155.784C311.142 155.784 298.013 156.826 295.369 155.802C292.727 154.777 270.101 155.513 270.101 155.513V155.51Z" fill="url(#paint9_linear_10588_4839)"/>
<path d="M293.362 106.898C293.362 106.898 289.299 102.092 284.98 107.988C284.196 109.055 281.193 108.174 280.09 110.411C279.523 111.567 278.292 112.222 277.027 111.988C273.875 111.406 268.722 111.358 266.178 116.298C264.237 120.067 265.736 122.274 267.677 123.533C269.104 124.457 269.611 126.333 268.75 127.797C267.923 129.2 267.768 131.101 269.902 133.389C274.686 138.517 284.156 130.135 284.156 130.135L291.674 112.365L293.36 106.896L293.362 106.898Z" fill="url(#paint10_linear_10588_4839)"/>
<path d="M285.876 154.363C285.876 154.363 292.669 147.894 296.014 143.61C297.822 141.294 298.389 138.246 297.553 135.428C296.026 130.285 293.314 124.959 293.065 124.128C292.686 122.857 285.07 122.91 285.07 122.91C285.07 122.91 270.08 132.638 264.191 149.114L270.806 151.174C270.806 151.174 274.718 144.609 278.586 140.433C278.586 140.433 271.896 149.273 271.66 152.891L285.876 154.36V154.363Z" fill="url(#paint11_linear_10588_4839)"/>
<path d="M298.819 156.914L293.713 151.359L287.82 152.947C287.82 152.947 280.946 154.011 277.014 152.947L273.081 151.882L264.191 149.114L262.795 153.06C262.441 154.061 262.795 155.174 263.664 155.789C264.432 156.337 265.334 156.937 265.909 157.188C267.079 157.7 292.875 157.349 292.875 157.349L298.821 156.912L298.819 156.914Z" fill="url(#paint12_linear_10588_4839)"/>
<path d="M290.306 113.754L285.186 123.274C285.525 125.351 290.758 125.411 291.567 124.17C291.649 124.045 291.697 123.899 291.727 123.751L294.788 117.39C294.919 116.77 293.219 114.68 292.659 114.382L290.625 113.299C289.841 112.882 293.111 112.85 290.303 113.756L290.306 113.754Z" fill="url(#paint13_linear_10588_4839)"/>
<path d="M300.665 111.519C300.665 111.519 301.242 114.736 298.716 118.824C296.187 122.912 293.671 122.729 292.393 121.27C291.115 119.811 289.583 117.382 290.278 113.304C290.976 109.226 299.793 107.418 300.667 111.519H300.665Z" fill="url(#paint14_linear_10588_4839)"/>
<path d="M293.337 113.749C293.337 113.749 297.43 108.372 300.572 113.058L300.519 114.678C300.519 114.678 304.605 114.487 304.163 110.72C303.721 106.953 300.383 104.382 295.758 105.668C291.132 106.953 288.43 108.42 287.908 111.632C287.385 114.844 290.007 114.319 290.007 114.319C290.007 114.319 291.009 112.104 292.217 111.951C293.427 111.8 292.99 113.553 292.99 113.553L293.337 113.749Z" fill="url(#paint15_linear_10588_4839)"/>
<path d="M292.398 113.606C292.398 113.606 294.518 110.853 292.589 110.283C290.658 109.713 290.731 112.98 290.856 114.196L292.398 113.606Z" fill="url(#paint16_linear_10588_4839)"/>
<path d="M281.923 159.112C281.941 159.112 281.958 159.112 281.976 159.112L305.453 159.086C306.034 159.086 306.503 158.614 306.503 158.034C306.503 157.454 306.031 156.974 305.451 156.985L281.974 157.01C281.393 157.01 280.924 157.482 280.924 158.062C280.924 158.624 281.366 159.084 281.921 159.112H281.923Z" fill="url(#paint17_linear_10588_4839)"/>
<path d="M326.56 137.796H307.008C305.566 137.796 304.253 138.627 303.638 139.933L294.6 159.099H318.898C319.827 159.099 320.664 158.531 321.005 157.668L328.014 139.931C328.418 138.906 327.665 137.796 326.562 137.796H326.56Z" fill="url(#paint18_linear_10588_4839)"/>
<path d="M312.786 147.623C312.361 148.939 312.675 150.217 313.484 150.478C314.295 150.739 315.295 149.883 315.716 148.567C316.141 147.251 315.827 145.973 315.018 145.712C314.21 145.451 313.208 146.307 312.786 147.623Z" fill="url(#paint19_linear_10588_4839)"/>
<path d="M128.176 333.164C125.331 333.41 120.394 333.81 116.502 333.981C114.161 334.083 112.815 333.855 112.039 333.544C112.039 333.631 112.044 333.714 112.047 333.79C112.064 334.199 112.398 334.528 112.813 334.551C120.168 334.96 126.017 334.694 128.098 334.566C128.528 334.541 128.786 334.071 128.565 333.704C128.455 333.521 128.322 333.34 128.176 333.162V333.164Z" fill="url(#paint20_linear_10588_4839)"/>
<path d="M116.501 333.983C120.394 333.812 125.331 333.413 128.176 333.167C125.379 329.737 116.501 327.424 116.501 327.424H113.995C112.27 329.91 112.021 332.275 112.039 333.549C112.815 333.86 114.161 334.088 116.501 333.986V333.983Z" fill="url(#paint21_linear_10588_4839)"/>
<path d="M113.573 323.328L113.807 327.971C113.832 328.473 114.209 328.895 114.713 328.968C115.213 329.041 115.886 329.048 116.597 328.812C117.034 328.667 117.36 328.298 117.441 327.848L118.252 323.328H113.573Z" fill="url(#paint22_linear_10588_4839)"/>
<path d="M81.0057 333.948C79.7727 333.775 79.2127 333.134 78.9791 332.449C78.9791 332.454 78.9766 332.461 78.9741 332.466C78.7933 333.19 79.2127 333.938 80.0539 334.294C81.071 334.724 82.1834 334.799 83.0448 334.762C83.9714 334.724 84.8202 334.34 85.2873 333.727L85.2949 333.717C84.3657 334.176 83.0599 334.232 81.0032 333.943L81.0057 333.948Z" fill="url(#paint23_linear_10588_4839)"/>
<path d="M86.822 323.298H84.7553C81.6062 323.233 79.6274 329.877 78.9795 332.449C79.213 333.134 79.7705 333.775 81.0061 333.948C83.0627 334.234 84.3686 334.181 85.2977 333.722C87.0003 331.482 87.8441 328.202 88.2484 326.289C88.7105 324.111 86.822 323.298 86.822 323.298Z" fill="url(#paint24_linear_10588_4839)"/>
<path d="M85.0207 318.989L83.873 323.554C83.7324 324.114 84.0011 324.694 84.5184 324.958C85.1613 325.287 86.0653 325.633 86.8965 325.533C87.2883 325.485 87.6122 325.211 87.7403 324.842L89.4253 320.038L85.0207 318.986V318.989Z" fill="url(#paint25_linear_10588_4839)"/>
<path d="M83.6504 320.309C85.0793 321.578 89.725 321.743 89.725 321.743C106.462 281.571 113.308 275.866 113.308 275.866C110.892 291.029 112.919 324.596 112.919 324.596C115.681 325.814 119.242 324.596 119.242 324.596C119.465 299.773 123.283 278.126 127.79 261.06C116.477 260.806 110.463 256.934 108.499 255.382C99.0693 270.585 83.6529 320.312 83.6529 320.312L83.6504 320.309Z" fill="url(#paint26_linear_10588_4839)"/>
<path d="M111.371 209.183C109.229 219.863 109.998 238.978 110.503 247.697C110.643 250.148 108.933 253.546 107.552 255.864C107.336 256.228 107.469 256.693 107.846 256.886C110.161 258.076 118.004 261.763 127.094 262.222C127.699 262.252 128.242 261.841 128.397 261.253C135.14 236.078 142.973 219.989 142.973 219.989C134.326 206.182 111.374 209.18 111.374 209.18L111.371 209.183Z" fill="url(#paint27_linear_10588_4839)"/>
<path d="M114.452 274.914C114.357 274.914 114.261 274.889 114.174 274.836C113.92 274.683 113.842 274.352 113.995 274.1C114.086 273.952 116.25 270.454 120.632 268.34C120.899 268.212 121.22 268.322 121.348 268.588C121.476 268.854 121.366 269.176 121.097 269.304C117.014 271.275 114.932 274.623 114.909 274.658C114.809 274.824 114.633 274.914 114.452 274.914Z" fill="url(#paint28_linear_10588_4839)"/>
<path d="M97.941 239.835C98.6291 244.81 100.661 250.236 104.726 256.002L106.271 254.741C106.271 254.741 104.488 247.504 105.5 239.29C102.991 238.8 100.03 239.305 97.9385 239.835H97.941Z" fill="url(#paint29_linear_10588_4839)"/>
<path d="M113.762 222.359L111.372 209.18C111.372 209.18 95.3926 221.395 97.9415 239.832C100.033 239.302 102.994 238.8 105.503 239.287C106.234 233.371 108.416 226.947 113.765 222.357L113.762 222.359Z" fill="url(#paint30_linear_10588_4839)"/>
<path d="M142.97 219.989L136.803 233.273C137.8 241.294 142.109 244.759 146.752 246.09C147.041 242.436 147.965 239.483 148.824 237.439C142.887 231.312 142.97 219.989 142.97 219.989Z" fill="url(#paint31_linear_10588_4839)"/>
<path d="M148.824 237.439C147.967 239.481 147.041 242.434 146.752 246.09C159.145 250.899 162.424 241.573 162.424 241.573L160.134 241.168C154.961 241.713 151.35 240.046 148.824 237.439Z" fill="url(#paint32_linear_10588_4839)"/>
<path d="M137.287 203.59L134.309 214.537C133.975 215.767 132.644 216.428 131.461 215.953C130.183 215.443 128.563 214.745 127.169 213.992C125.68 213.188 125.216 211.272 126.157 209.868L132.347 200.637L137.287 203.588V203.59Z" fill="url(#paint33_linear_10588_4839)"/>
<path d="M168.105 234.247L91.8044 262.019C88.6051 263.184 87.0758 266.828 88.4846 269.927L88.7156 270.437C89.9637 273.179 93.2057 274.382 95.9404 273.116L170.027 238.843L168.105 234.247Z" fill="url(#paint34_linear_10588_4839)"/>
<path opacity="0.23" d="M203.174 254.528C223.976 254.528 240.84 237.969 240.84 217.543C240.84 197.116 223.976 180.557 203.174 180.557C182.371 180.557 165.508 197.116 165.508 217.543C165.508 237.969 182.371 254.528 203.174 254.528Z" fill="#E9EFFE"/>
<path d="M203.174 176.389C180.028 176.389 161.262 194.814 161.262 217.545C161.262 240.277 180.026 258.702 203.174 258.702C226.323 258.702 245.086 240.277 245.086 217.545C245.086 194.814 226.323 176.389 203.174 176.389ZM203.174 252.655C183.428 252.655 167.419 236.934 167.419 217.545C167.419 198.156 183.428 182.436 203.174 182.436C222.92 182.436 238.929 198.156 238.929 217.545C238.929 236.934 222.92 252.655 203.174 252.655Z" fill="url(#paint35_linear_10588_4839)"/>
<path d="M164.448 222.653C164.303 222.653 164.177 222.545 164.157 222.397C164.031 221.42 163.944 220.428 163.896 219.446C163.888 219.283 164.014 219.147 164.175 219.137C164.34 219.125 164.473 219.255 164.483 219.416C164.531 220.383 164.617 221.362 164.74 222.321C164.76 222.482 164.647 222.63 164.486 222.65C164.473 222.65 164.461 222.65 164.448 222.65V222.653ZM164.737 211.146C164.72 211.146 164.702 211.146 164.684 211.141C164.526 211.114 164.418 210.961 164.448 210.8C164.923 208.153 165.684 205.549 166.711 203.06C172.755 188.4 187.069 178.927 203.174 178.927C210.685 178.927 217.985 181.014 224.288 184.962C224.426 185.047 224.467 185.228 224.381 185.366C224.296 185.504 224.115 185.545 223.977 185.459C217.767 181.569 210.574 179.515 203.174 179.515C187.305 179.515 173.205 188.847 167.253 203.286C166.244 205.737 165.493 208.301 165.026 210.908C165.001 211.051 164.878 211.149 164.737 211.149V211.146Z" fill="#BDD0FB"/>
<path d="M143.802 195.273C143.829 195.461 141.318 207.764 141.318 207.764L134.324 206.182L134.972 194.168C134.972 194.168 143.35 192.126 143.804 195.273H143.802Z" fill="url(#paint36_linear_10588_4839)"/>
<path d="M136.544 196.845L135.708 203.143C135.698 203.224 135.698 203.304 135.708 203.384C135.778 203.879 136.145 205.559 137.843 205.077C139.382 204.64 140.793 204.266 141.768 204.565C142.205 204.698 142.468 205.142 142.378 205.592C142.149 206.709 141.589 209.218 140.768 211.325C140.602 211.752 140.133 211.978 139.693 211.847C138.367 211.46 135.592 210.566 133.528 209.323C133.249 209.155 133.081 208.851 133.096 208.525C133.164 206.935 133.35 202.101 133.192 200.748C133.044 199.477 131.484 198.713 130.806 198.44C130.583 198.349 130.409 198.176 130.321 197.953C130.007 197.167 129.576 195.346 131.868 194.598C132.348 194.442 132.602 193.925 132.431 193.447C132.092 192.501 131.949 191.057 133.722 190.261C135.525 189.452 136.873 190.414 137.601 191.195C137.895 191.511 138.367 191.559 138.731 191.328C138.94 191.197 139.206 191.155 139.53 191.356C139.967 191.627 140.542 191.441 140.768 190.981C141.2 190.095 142.081 189.146 143.847 189.447C146.981 189.984 147.337 193.457 146.509 195.492C145.683 197.528 142.318 196.752 140.627 195.725C139.344 194.944 137.679 195.763 136.954 196.2C136.725 196.338 136.572 196.574 136.537 196.84L136.544 196.845Z" fill="url(#paint37_linear_10588_4839)"/>
<path d="M132.911 203.043C132.911 203.043 134.199 199.434 132.876 198.55C131.552 197.666 129.591 198.126 130.023 200.74C130.56 203.992 132.911 203.043 132.911 203.043Z" fill="url(#paint38_linear_10588_4839)"/>
<path d="M105.633 254.523L112.845 253.935L115.969 256.816C115.969 256.816 115.231 257.838 112.921 257.25C110.61 256.662 107.446 256.519 107.446 256.519C107.446 256.519 104.257 257.958 104.217 255.266L105.633 254.523Z" fill="url(#paint39_linear_10588_4839)"/>
<path d="M161.506 243.28C162.129 243.767 164.266 242.75 165.574 242.047C166.212 241.706 166.521 240.96 166.302 240.269C165.989 239.277 165.464 237.997 164.818 237.833C163.746 237.565 158.937 241.271 161.508 243.28H161.506Z" fill="url(#paint40_linear_10588_4839)"/>
<path d="M93.3084 272.061C93.2758 272.061 93.2431 272.056 93.213 272.046C90.2246 271.014 89.5315 269.246 89.4738 267.948C89.3909 266.049 90.5837 264.287 92.4421 263.563L101.603 259.99C101.754 259.93 101.924 260.005 101.982 260.156C102.04 260.306 101.967 260.477 101.816 260.535L92.6555 264.108C91.0333 264.741 89.9911 266.273 90.0614 267.92C90.1317 269.545 91.2568 270.745 93.4038 271.489C93.557 271.541 93.6374 271.71 93.5847 271.863C93.542 271.983 93.429 272.061 93.3059 272.061H93.3084Z" fill="#BDD0FB"/>
<path d="M104.534 259.455C104.416 259.455 104.305 259.385 104.26 259.269C104.202 259.118 104.275 258.948 104.426 258.89L105.614 258.428C105.764 258.368 105.935 258.443 105.993 258.594C106.051 258.744 105.978 258.915 105.827 258.973L104.639 259.435C104.604 259.447 104.569 259.455 104.534 259.455Z" fill="#BDD0FB"/>
<path d="M299.843 39.5999C299.843 39.5999 285.133 57.3543 285.662 59.1172C286.195 60.8825 314.496 83.8377 316.834 81.8638C319.172 79.89 332.484 65.5584 332.484 65.5584C319.782 50.5011 301.45 38.0605 299.841 39.5999H299.843Z" fill="url(#paint41_linear_10588_4839)"/>
<path d="M315.9 100.033C309.828 100.033 284.399 81.6077 274.713 71.7662C269.653 66.6232 269.53 64.7499 269.877 63.7855C271.974 57.9645 296.468 20.6352 305.632 19.5328L305.86 19.5051L306.046 19.6407C310.724 23.0359 351.763 52.9672 352.067 58.2031C352.278 61.8419 340.128 76.1533 336.399 80.4525C328.86 89.1464 319.428 98.9527 316.535 99.9422C316.357 100.002 316.144 100.033 315.9 100.033ZM305.551 20.7331C297.252 22.3202 273.151 58.1529 270.982 64.1848C270.851 64.549 270.793 66.1084 275.552 70.9425C286.124 81.6881 311.003 98.8849 315.754 98.8874C315.91 98.8874 316.046 98.8699 316.156 98.8297C318.386 98.0688 326.706 89.837 335.513 79.6816C344.686 69.1043 351.012 60.2975 350.894 58.2709C350.688 54.7376 323.743 33.9447 305.554 20.7331H305.551Z" fill="#91B3FA"/>
<path d="M316.419 82.572C316.121 82.572 315.819 82.4992 315.571 82.4263C310.249 80.8468 285.785 61.553 285.102 59.2854C284.559 57.4874 293.823 45.9433 299.391 39.2232C299.599 38.9746 299.968 38.9395 300.217 39.1454C300.466 39.3513 300.501 39.723 300.295 39.9716C293.464 48.2159 286.385 57.5175 286.237 58.9715C287.488 61.2416 313.883 82.2179 316.495 81.3892C318.737 79.4857 331.56 65.7543 331.69 65.6137C331.911 65.3751 332.283 65.3626 332.521 65.5861C332.757 65.8071 332.772 66.1787 332.549 66.4173C332.019 66.9848 319.551 80.337 317.213 82.3133C316.982 82.5067 316.701 82.5745 316.417 82.5745L316.419 82.572Z" fill="#91B3FA"/>
<path d="M328.775 67.133C321.957 67.133 308.607 64.3807 306.55 63.0849C303.871 61.3948 298.047 42.3346 299.303 39.3714C299.481 38.9545 299.951 38.5377 301.184 38.9269C304.363 39.9264 312.708 46.099 319.571 51.7718C324.794 56.0911 333.493 63.6424 333.064 65.6815C332.968 66.1335 332.634 66.4826 332.074 66.7186C331.386 67.0099 330.229 67.1355 328.777 67.1355L328.775 67.133ZM300.348 39.9364C299.529 42.7214 305.054 60.752 307.178 62.093C309.293 63.4264 328.079 67.133 331.615 65.6363C331.846 65.5384 331.909 65.453 331.914 65.4379C331.853 63.9262 321.49 54.2931 310.556 46.1768C303.848 41.1971 301.023 39.9239 300.35 39.9364H300.348Z" fill="#91B3FA"/>
<path d="M296.056 51.8773C295.928 51.8773 295.8 51.8346 295.692 51.7492C295.439 51.5483 295.396 51.1766 295.599 50.923L296.993 49.1677C297.194 48.914 297.566 48.8713 297.819 49.0747C298.073 49.2756 298.116 49.6473 297.912 49.9009L296.519 51.6563C296.403 51.8019 296.232 51.8773 296.059 51.8773H296.056Z" fill="#BDD0FB"/>
<path d="M323.31 61.4175C323.137 61.4175 322.966 61.3421 322.851 61.1965C319.491 56.9902 305.664 47.2768 305.523 47.1788C305.257 46.993 305.194 46.6263 305.38 46.3602C305.566 46.094 305.933 46.0312 306.199 46.217C306.774 46.6188 320.304 56.1288 323.77 60.4632C323.973 60.7168 323.931 61.086 323.677 61.2894C323.569 61.3748 323.438 61.4175 323.31 61.4175Z" fill="#BDD0FB"/>
<path d="M35.8508 77.7906C61.8822 77.4063 190.643 75.1538 217.071 74.6892C219.677 74.644 221.817 76.7459 221.817 79.3525V91.4089C221.817 93.9854 219.728 96.0723 217.154 96.0723H35.9212C33.3446 96.0723 31.2578 93.9829 31.2578 91.4089V82.4539C31.2578 79.905 33.3019 77.8282 35.8508 77.7906Z" fill="url(#paint42_linear_10588_4839)"/>
<path d="M68.6699 87.0745C68.6699 89.6987 70.822 91.8132 73.4463 91.768L178.453 89.9473C181.464 89.8946 183.649 87.0619 182.931 84.1364L182.453 82.1877C181.924 80.0255 179.95 78.5338 177.725 78.6142L73.1951 82.3835C70.6689 82.4739 68.6699 84.5482 68.6699 87.0745Z" fill="url(#paint43_linear_10588_4839)"/>
<path d="M45.2176 87.7274L29.073 104.161C28.3949 104.849 28.4502 105.969 29.1885 106.592L29.309 106.695C29.9644 107.245 30.9413 107.157 31.4862 106.499L46.2698 88.6691L45.2151 87.7274H45.2176Z" fill="url(#paint44_linear_10588_4839)"/>
<path opacity="0.23" d="M61.8021 74.561C64.2982 79.7919 62.003 86.0925 56.6767 88.6339C51.3504 91.1753 45.0095 88.9955 42.5108 83.7672C40.0147 78.5363 42.3099 72.2356 47.6363 69.6943C52.9626 67.1529 59.3034 69.3326 61.7996 74.561H61.8021Z" fill="#E9EFFE"/>
<path d="M47.1263 68.6245C41.1998 71.4522 38.6459 78.4635 41.4233 84.2845C44.2008 90.1055 51.2573 92.5289 57.1838 89.7012C63.1103 86.8736 65.6642 79.8622 62.8868 74.0412C60.1094 68.2202 53.0528 65.7969 47.1263 68.6245ZM56.448 88.1543C51.3904 90.5676 45.371 88.4983 43.0029 83.5337C40.6323 78.569 42.8121 72.5872 47.8671 70.1739C52.9248 67.7607 58.9442 69.8299 61.3122 74.7946C63.6828 79.7593 61.5031 85.741 56.448 88.1543Z" fill="url(#paint45_linear_10588_4839)"/>
<path d="M31.9834 102.169C31.9106 102.169 31.8403 102.142 31.7825 102.089C31.6645 101.979 31.6595 101.793 31.77 101.675L32.0161 101.411C32.1266 101.293 32.3124 101.288 32.4304 101.399C32.5485 101.509 32.5535 101.695 32.443 101.813L32.1969 102.077C32.1391 102.137 32.0613 102.169 31.9834 102.169Z" fill="white"/>
<path d="M454.433 189.284C454.433 189.284 439.328 208.623 456.562 228.293L463.041 227.691C463.041 227.691 450.568 207.664 456.125 191.7L465.304 192.37L470.379 189.063L454.435 189.286L454.433 189.284Z" fill="url(#paint46_linear_10588_4839)"/>
<path d="M462.707 283.97C462.707 283.97 474.944 310.644 481.365 321.691C481.365 321.691 482.641 328.642 481.365 330.829L480.278 331.311L485.351 331.161C485.351 331.161 485.8 321.809 485.449 321.286C485.097 320.764 484.394 320.799 484.394 320.799C484.394 320.799 482.219 303.567 475.921 299.891L469.816 278.864L462.707 283.967V283.97Z" fill="url(#paint47_linear_10588_4839)"/>
<path d="M478.11 332.622C478.102 332.745 482.07 332.687 484.227 332.65C485.023 332.635 485.701 332.075 485.872 331.299L487.499 322.746C487.655 321.932 487.138 321.143 486.332 320.96L485.423 320.752C485.423 320.752 484.127 322.53 484.534 324.205C484.94 325.88 485.305 330.216 484.272 330.721C483.24 331.226 480.275 331.314 480.275 331.314C480.275 331.314 478.175 331.522 478.107 332.622H478.11Z" fill="url(#paint48_linear_10588_4839)"/>
<path d="M451.106 332.778C450.704 333.006 450.87 333.619 451.332 333.614C454.941 333.579 463.024 333.463 463.743 333.165C464.669 332.778 463.404 329.445 462.073 328.318L454.72 330.719L451.106 332.778Z" fill="url(#paint49_linear_10588_4839)"/>
<path d="M448.823 282.27C448.823 282.27 456.731 320.528 458.968 327.991L453.674 331.314C453.674 331.314 456.326 330.862 458.293 330.721C460.259 330.578 462.07 328.32 462.07 328.32L461.437 327.308C461.437 327.308 459.453 289.256 459.935 284.936L448.82 282.27H448.823Z" fill="url(#paint50_linear_10588_4839)"/>
<path d="M429.193 193.028C429.193 193.028 428.103 212.93 446.221 223.1L441.859 233.05C441.859 233.05 425.454 223.128 426.061 196.064C426.079 195.288 425.798 194.532 425.29 193.945L421.805 189.899C420.476 188.357 419.979 186.268 420.474 184.294L420.933 182.458C421.086 181.843 421.787 181.549 422.335 181.866L422.699 182.077C423.859 182.75 424.778 183.772 425.328 184.997L427.041 188.824C427.681 190.253 429.155 191.122 430.715 190.987L431.774 190.896L429.198 193.023L429.193 193.028Z" fill="url(#paint51_linear_10588_4839)"/>
<path d="M463.807 226.407C463.132 225.503 462.115 224.918 460.992 224.793C455.016 224.117 448.049 222.279 445.644 221.611C445.154 221.475 444.647 221.747 444.483 222.229L441.357 231.791C441.113 232.537 441.397 233.353 442.048 233.788L442.688 234.215C442.221 235.601 441.608 237.042 442.432 238.25C445.282 242.434 448.896 250.824 448.896 250.824L461.731 250.882L461.417 247.258L464.551 229.569C464.747 228.459 464.478 227.316 463.802 226.41L463.807 226.407Z" fill="url(#paint52_linear_10588_4839)"/>
<path d="M447.815 248.926L448.069 251.12C448.069 251.12 444.443 261.981 449.882 287.352C449.882 287.352 461.665 290.69 471.35 282.702C471.35 282.702 468.618 258.757 467.872 257.642C464.156 252.087 461.68 250.879 461.68 250.879L461.569 248.481C461.569 248.481 451.21 250.354 447.818 248.926H447.815Z" fill="url(#paint53_linear_10588_4839)"/>
<path d="M452.84 223.399C452.795 223.339 455.52 215.172 455.52 215.172L459.422 215.526L460.947 224.79C460.947 224.79 454.829 226.026 452.84 223.396V223.399Z" fill="url(#paint54_linear_10588_4839)"/>
<path d="M460.407 204.828C460.407 204.828 456.416 204.816 452.037 208.723C447.655 212.631 448.413 215.619 450.437 216.847C452.461 218.075 455.708 219.404 460.464 217.698C465.221 215.996 465.525 205.007 460.409 204.828H460.407Z" fill="url(#paint55_linear_10588_4839)"/>
<path d="M459.281 214.115C459.281 214.115 464.879 208.053 458.575 205.268L456.639 205.675C456.639 205.675 456.001 200.72 460.625 200.454C465.248 200.188 470.227 204.299 469.66 210.132C469.095 215.968 466.729 218.884 462.978 220.192C459.226 221.5 459.301 218.236 459.301 218.236C459.301 218.236 461.752 216.561 461.679 215.074C461.604 213.588 459.59 214.484 459.59 214.484L459.281 214.11V214.115Z" fill="url(#paint56_linear_10588_4839)"/>
<path d="M459.653 215.212C459.653 215.212 462.511 212.078 463.608 214.278C464.706 216.478 460.761 217.083 459.271 217.191L459.653 215.212Z" fill="url(#paint57_linear_10588_4839)"/>
<path d="M467.93 213.176C467.54 211.847 468.884 210.667 470.192 211.124C474.414 212.596 480.024 216.388 478.065 226.061C475.86 236.957 475.182 242.632 476.618 244.458C477.563 245.658 476.729 247.411 475.205 247.308C474.08 247.23 472.701 246.68 471.059 245.279C458.387 234.453 470.21 220.973 467.93 213.176Z" fill="url(#paint58_linear_10588_4839)"/>
<path d="M358.155 142.244L506.581 135.047C509.492 134.906 510.262 137.199 510.303 138.479L513.525 187.137C513.565 188.423 511.189 189.56 508.259 189.651C481.401 190.494 364.255 194.271 358.999 194.6C353.806 194.927 354.481 156.259 354.815 146.317C354.855 145.086 355.36 142.379 358.153 142.244H358.155Z" fill="url(#paint59_linear_10588_4839)"/>
<path d="M359.587 193.237L359.501 193.071C357.445 189.118 356.744 172.735 357.716 151.332C357.733 150.973 358.173 150.825 358.58 150.805L507.008 143.685C507.214 143.675 507.395 143.698 507.548 143.748C507.874 143.856 507.927 144.062 507.93 144.172L509.213 187.619C509.223 187.928 508.876 188.151 508.352 188.174H508.327C486.979 188.882 379.491 192.453 359.77 193.224L359.584 193.232L359.587 193.237ZM358.298 151.455C357.349 172.424 357.995 188.495 359.941 192.636C380.154 191.848 487.031 188.3 508.311 187.594H508.334C508.467 187.586 508.568 187.561 508.625 187.536L507.347 144.305C507.269 144.283 507.174 144.268 507.036 144.273L358.607 151.392C358.462 151.4 358.356 151.427 358.298 151.452V151.455Z" fill="#BDD0FB"/>
<g opacity="0.5">
<path d="M431.869 159.574C431.242 158.969 430.383 158.647 429.511 158.68L370.48 160.942C369.616 160.975 368.797 161.357 368.217 162C367.637 162.642 367.341 163.491 367.396 164.358L368.725 184.814C368.838 186.544 370.302 187.87 372.034 187.812L429.752 185.874C431.48 185.816 432.876 184.397 432.876 182.667V161.889C432.876 161.018 432.5 160.181 431.869 159.576V159.574Z" fill="#BDD0FB"/>
<path d="M440.84 150.875L366.495 154.318C365.661 154.355 365.021 155.234 365.064 156.279V156.312C365.106 157.356 365.814 158.18 366.651 158.152L441.033 155.654C442.339 155.611 443.359 154.506 443.306 153.19V153.148C443.251 151.832 442.146 150.815 440.842 150.875H440.84Z" fill="#BDD0FB"/>
<path d="M500.951 157.304C500.542 156.907 499.985 156.693 499.415 156.713L439.911 158.68C439.326 158.7 438.776 158.961 438.392 159.403C438.008 159.845 437.824 160.425 437.887 161.008L438.013 162.195C438.131 163.3 439.087 164.124 440.197 164.074L499.58 161.485C500.705 161.435 501.602 160.508 501.602 159.383V158.815C501.602 158.245 501.361 157.7 500.951 157.304Z" fill="#BDD0FB"/>
<path d="M500.951 165.42C500.542 165.023 499.985 164.81 499.415 164.83L439.911 166.799C439.326 166.819 438.776 167.08 438.392 167.522C438.008 167.964 437.824 168.544 437.887 169.126L438.013 170.314C438.131 171.419 439.087 172.243 440.197 172.193L499.58 169.604C500.705 169.553 501.602 168.627 501.602 167.502V166.934C501.602 166.364 501.361 165.819 500.951 165.422V165.42Z" fill="#BDD0FB"/>
<path d="M500.951 173.539C500.542 173.142 499.985 172.928 499.415 172.949L439.911 174.915C439.326 174.935 438.776 175.196 438.392 175.638C438.008 176.08 437.824 176.66 437.887 177.243L438.013 178.431C438.131 179.535 439.087 180.359 440.197 180.309L499.58 177.72C500.705 177.67 501.602 176.743 501.602 175.618V175.05C501.602 174.48 501.361 173.935 500.951 173.539Z" fill="#BDD0FB"/>
</g>
<path d="M487.261 140.132C487.312 141.694 486.084 143 484.522 143.05L482.543 143.113C480.981 143.163 479.675 141.935 479.625 140.373V140.302C479.572 138.741 480.8 137.435 482.362 137.384L484.341 137.322C485.903 137.271 487.209 138.499 487.259 140.061V140.132H487.261Z" fill="#91B3FA"/>
<path d="M496.33 139.845C496.38 141.407 495.152 142.713 493.59 142.764L491.611 142.826C490.049 142.877 488.743 141.649 488.693 140.087V140.016C488.643 138.454 489.868 137.148 491.43 137.098L493.409 137.035C494.971 136.985 496.277 138.213 496.327 139.775V139.845H496.33Z" fill="#91B3FA"/>
<path d="M505.396 139.559C505.446 141.121 504.218 142.427 502.656 142.477L500.677 142.54C499.115 142.59 497.81 141.362 497.759 139.8V139.73C497.709 138.168 498.935 136.862 500.497 136.812L502.475 136.749C504.037 136.699 505.343 137.927 505.393 139.489V139.559H505.396Z" fill="#91B3FA"/>
<path d="M409.049 83.6442H404.896C404.386 83.6442 403.972 83.2298 403.972 82.72V70.2945C403.972 69.7847 404.386 69.3704 404.896 69.3704H409.049C409.559 69.3704 409.974 69.7847 409.974 70.2945V82.72C409.974 83.2298 409.559 83.6442 409.049 83.6442ZM405.82 81.7984H408.128V71.2186H405.82V81.7984Z" fill="#91B3FA"/>
<path d="M417.236 83.6441H411.558C411.048 83.6441 410.634 83.2298 410.634 82.72V62.2083C410.634 61.6985 411.048 61.2842 411.558 61.2842H417.236C417.746 61.2842 418.16 61.6985 418.16 62.2083V82.72C418.16 83.2298 417.746 83.6441 417.236 83.6441ZM412.482 81.7984H416.312V63.1324H412.482V81.7984Z" fill="#91B3FA"/>
<path d="M427.936 83.6442H420.056C419.546 83.6442 419.132 83.2298 419.132 82.72V57.869C419.132 57.3592 419.546 56.9448 420.056 56.9448H427.936C428.446 56.9448 428.86 57.3592 428.86 57.869V82.72C428.86 83.2298 428.446 83.6442 427.936 83.6442ZM420.98 81.7984H427.015V58.7931H420.98V81.7984Z" fill="#91B3FA"/>
<path d="M442.2 83.6442H432.763C432.253 83.6442 431.839 83.2298 431.839 82.72V52.6531C431.839 52.1434 432.253 51.729 432.763 51.729H442.2C442.71 51.729 443.124 52.1434 443.124 52.6531V82.72C443.124 83.2298 442.71 83.6442 442.2 83.6442ZM433.687 81.7984H441.279V53.5773H433.687V81.7984Z" fill="#91B3FA"/>
<path d="M298.056 133.12L296.62 132.116L296.612 132.111C296.424 131.98 296.376 131.719 296.509 131.531C296.642 131.342 296.901 131.295 297.089 131.428L298.536 132.445C298.724 132.575 298.767 132.834 298.636 133.022C298.506 133.208 298.247 133.253 298.059 133.123H298.054L298.056 133.12Z" fill="url(#paint60_linear_10588_4839)"/>
<path d="M293.187 129.888L291.685 128.984L291.678 128.979C291.474 128.859 291.409 128.595 291.532 128.394C291.652 128.193 291.916 128.126 292.117 128.249L293.631 129.168C293.832 129.288 293.895 129.549 293.774 129.75C293.654 129.951 293.393 130.014 293.192 129.893L293.184 129.888H293.187Z" fill="url(#paint61_linear_10588_4839)"/>
<path d="M288.101 127.013L286.534 126.232L286.524 126.227C286.308 126.119 286.22 125.858 286.328 125.642C286.436 125.426 286.698 125.338 286.914 125.446L288.498 126.245C288.712 126.353 288.799 126.614 288.691 126.827C288.583 127.041 288.322 127.129 288.109 127.021L288.101 127.016V127.013Z" fill="url(#paint62_linear_10588_4839)"/>
<path d="M282.798 124.59L281.163 123.967L281.15 123.962C280.919 123.874 280.804 123.615 280.892 123.384C280.98 123.153 281.238 123.038 281.469 123.126L283.127 123.766C283.355 123.854 283.468 124.11 283.38 124.341C283.292 124.57 283.036 124.683 282.805 124.595L282.795 124.59H282.798Z" fill="url(#paint63_linear_10588_4839)"/>
<path d="M277.285 122.701L275.598 122.244H275.585C275.342 122.174 275.199 121.923 275.264 121.679C275.329 121.436 275.58 121.293 275.824 121.358L277.536 121.827C277.778 121.893 277.921 122.144 277.853 122.385C277.788 122.626 277.536 122.769 277.295 122.701H277.283H277.285Z" fill="url(#paint64_linear_10588_4839)"/>
<path d="M271.612 121.385L269.887 121.109H269.872C269.618 121.067 269.445 120.825 269.485 120.572C269.525 120.318 269.767 120.145 270.02 120.185L271.773 120.474C272.027 120.514 272.197 120.753 272.155 121.006C272.115 121.26 271.876 121.431 271.622 121.388H271.61L271.612 121.385Z" fill="url(#paint65_linear_10588_4839)"/>
<path d="M265.835 120.687L264.092 120.607H264.074C263.811 120.594 263.607 120.371 263.62 120.11C263.632 119.846 263.856 119.643 264.117 119.655L265.895 119.743C266.156 119.756 266.357 119.979 266.344 120.24C266.332 120.502 266.108 120.702 265.847 120.69H265.832L265.835 120.687Z" fill="url(#paint66_linear_10588_4839)"/>
<path d="M260.021 120.672L258.283 120.813H258.263C257.994 120.836 257.761 120.637 257.738 120.368C257.715 120.1 257.916 119.866 258.185 119.844L259.96 119.706C260.227 119.685 260.46 119.884 260.48 120.15C260.5 120.416 260.302 120.65 260.036 120.67H260.018L260.021 120.672Z" fill="url(#paint67_linear_10588_4839)"/>
<path d="M254.266 121.413L252.568 121.795L252.545 121.8C252.279 121.86 252.013 121.692 251.953 121.423C251.892 121.154 252.061 120.891 252.329 120.831L254.072 120.446C254.338 120.389 254.602 120.557 254.66 120.823C254.718 121.089 254.549 121.353 254.286 121.411L254.266 121.416V121.413Z" fill="url(#paint68_linear_10588_4839)"/>
<path d="M248.688 122.983L247.074 123.62L247.051 123.63C246.79 123.733 246.496 123.605 246.393 123.347C246.29 123.086 246.418 122.792 246.677 122.689L248.342 122.036C248.6 121.935 248.892 122.063 248.995 122.322C249.095 122.581 248.967 122.872 248.708 122.975L248.688 122.983Z" fill="url(#paint69_linear_10588_4839)"/>
<path d="M243.442 125.416C242.947 125.717 242.445 126.004 241.955 126.315H241.952C241.711 126.471 241.392 126.398 241.239 126.159C241.086 125.918 241.156 125.599 241.397 125.446C241.902 125.127 242.422 124.831 242.932 124.524C243.175 124.379 243.489 124.457 243.635 124.7C243.781 124.944 243.703 125.258 243.459 125.403L243.437 125.416H243.442Z" fill="url(#paint70_linear_10588_4839)"/>
<path d="M238.695 128.706L237.392 129.851L237.372 129.868C237.154 130.059 236.822 130.039 236.629 129.821C236.438 129.602 236.458 129.271 236.676 129.077L238.025 127.9C238.243 127.709 238.572 127.731 238.763 127.95C238.954 128.168 238.932 128.497 238.713 128.688L238.693 128.706H238.695Z" fill="url(#paint71_linear_10588_4839)"/>
<path d="M234.592 132.774L233.5 134.122L233.482 134.142C233.296 134.373 232.957 134.409 232.729 134.223C232.498 134.037 232.463 133.698 232.648 133.469L233.778 132.083C233.964 131.855 234.301 131.822 234.529 132.008C234.758 132.194 234.791 132.53 234.605 132.759L234.59 132.779L234.592 132.774Z" fill="url(#paint72_linear_10588_4839)"/>
<path d="M231.21 137.462L230.341 138.967L230.328 138.987C230.178 139.248 229.844 139.336 229.583 139.185C229.321 139.034 229.231 138.7 229.384 138.439L230.283 136.895C230.434 136.636 230.768 136.548 231.027 136.699C231.285 136.85 231.373 137.181 231.222 137.442L231.212 137.462H231.21Z" fill="url(#paint73_linear_10588_4839)"/>
<path d="M228.573 142.615L227.93 144.23L227.923 144.253C227.81 144.539 227.486 144.677 227.199 144.564C226.913 144.451 226.775 144.127 226.888 143.841L227.554 142.183C227.667 141.9 227.99 141.764 228.272 141.877C228.555 141.99 228.691 142.314 228.578 142.598L228.571 142.618L228.573 142.615Z" fill="url(#paint74_linear_10588_4839)"/>
<path d="M226.69 148.095L226.27 149.782L226.265 149.805C226.19 150.109 225.883 150.292 225.58 150.219C225.276 150.144 225.09 149.838 225.165 149.534L225.6 147.801C225.675 147.5 225.981 147.316 226.283 147.392C226.584 147.467 226.767 147.773 226.692 148.075L226.687 148.095H226.69Z" fill="url(#paint75_linear_10588_4839)"/>
<path d="M225.559 153.778L225.366 155.508V155.531C225.328 155.847 225.044 156.075 224.728 156.04C224.411 156.005 224.185 155.721 224.22 155.405L224.424 153.627C224.459 153.313 224.743 153.087 225.059 153.122C225.373 153.157 225.599 153.441 225.564 153.758V153.778H225.559Z" fill="url(#paint76_linear_10588_4839)"/>
<path d="M225.183 159.564L225.218 161.301V161.324C225.226 161.648 224.969 161.914 224.645 161.922C224.322 161.929 224.055 161.671 224.048 161.349L224.018 159.561C224.013 159.24 224.269 158.973 224.59 158.968C224.912 158.963 225.178 159.22 225.183 159.541V159.561V159.564Z" fill="url(#paint77_linear_10588_4839)"/>
<path d="M225.569 165.342L225.838 167.06V167.085C225.893 167.409 225.67 167.715 225.346 167.765C225.022 167.815 224.716 167.594 224.665 167.268L224.397 165.5C224.346 165.176 224.57 164.875 224.894 164.825C225.218 164.774 225.519 164.998 225.569 165.322V165.344V165.342Z" fill="url(#paint78_linear_10588_4839)"/>
<path d="M226.74 171.01C226.905 171.565 227.064 172.12 227.247 172.672C227.352 172.991 227.179 173.333 226.863 173.438C226.544 173.544 226.202 173.37 226.097 173.054V173.049C225.913 172.484 225.75 171.909 225.582 171.336C225.489 171.017 225.67 170.681 225.989 170.588C226.308 170.492 226.644 170.676 226.737 170.995L226.742 171.01H226.74Z" fill="url(#paint79_linear_10588_4839)"/>
<path d="M228.676 176.469L229.389 178.056L229.399 178.076C229.537 178.388 229.399 178.752 229.09 178.89C228.779 179.028 228.414 178.89 228.276 178.581L227.551 176.949C227.412 176.64 227.551 176.278 227.862 176.14C228.171 176.002 228.532 176.14 228.671 176.452L228.678 176.469H228.676Z" fill="url(#paint80_linear_10588_4839)"/>
<path d="M231.27 181.655L232.167 183.147L232.177 183.164C232.355 183.46 232.257 183.845 231.963 184.023C231.667 184.201 231.283 184.103 231.104 183.809L230.193 182.275C230.017 181.979 230.115 181.597 230.409 181.421C230.705 181.246 231.087 181.343 231.263 181.637L231.273 181.655H231.27Z" fill="url(#paint81_linear_10588_4839)"/>
<path d="M234.447 186.507L235.504 187.89L235.516 187.905C235.73 188.184 235.675 188.583 235.396 188.797C235.117 189.01 234.718 188.955 234.504 188.676L233.427 187.255C233.216 186.976 233.271 186.579 233.55 186.368C233.829 186.157 234.226 186.213 234.436 186.491L234.447 186.507Z" fill="url(#paint82_linear_10588_4839)"/>
<path d="M238.136 190.989L239.331 192.257L239.343 192.272C239.587 192.531 239.575 192.94 239.316 193.184C239.057 193.427 238.648 193.415 238.404 193.156L237.186 191.853C236.943 191.594 236.958 191.187 237.216 190.944C237.475 190.7 237.882 190.715 238.126 190.974L238.138 190.986L238.136 190.989Z" fill="url(#paint83_linear_10588_4839)"/>
<path d="M242.262 195.077L243.575 196.225L243.59 196.238C243.864 196.476 243.892 196.89 243.653 197.162C243.415 197.435 243 197.463 242.729 197.224L241.391 196.047C241.119 195.808 241.094 195.396 241.33 195.125C241.569 194.854 241.981 194.829 242.252 195.065L242.265 195.075L242.262 195.077Z" fill="url(#paint84_linear_10588_4839)"/>
<path d="M246.761 198.754L248.175 199.776L248.19 199.786C248.489 200.002 248.554 200.416 248.341 200.715C248.125 201.014 247.711 201.079 247.412 200.866L245.97 199.816C245.674 199.6 245.609 199.186 245.825 198.892C246.041 198.596 246.455 198.53 246.749 198.746L246.761 198.756V198.754Z" fill="url(#paint85_linear_10588_4839)"/>
<path d="M251.58 202.008L253.079 202.9L253.094 202.91C253.416 203.101 253.519 203.515 253.331 203.834C253.14 204.155 252.725 204.261 252.406 204.07L250.88 203.153C250.561 202.963 250.458 202.551 250.649 202.232C250.839 201.913 251.251 201.81 251.57 202.001L251.583 202.008H251.58Z" fill="url(#paint86_linear_10588_4839)"/>
<path d="M256.666 204.828L258.238 205.587L258.253 205.594C258.595 205.76 258.738 206.169 258.572 206.508C258.409 206.85 257.997 206.993 257.658 206.827L256.058 206.046C255.719 205.881 255.579 205.474 255.744 205.135C255.91 204.796 256.317 204.655 256.656 204.821L256.671 204.828H256.666Z" fill="url(#paint87_linear_10588_4839)"/>
<path d="M261.977 207.196C262.52 207.407 263.062 207.616 263.607 207.817C263.969 207.95 264.152 208.349 264.021 208.708C263.888 209.07 263.489 209.253 263.13 209.123H263.127C262.572 208.917 262.02 208.701 261.468 208.485C261.111 208.344 260.938 207.942 261.076 207.588C261.216 207.232 261.618 207.058 261.972 207.196H261.977Z" fill="url(#paint88_linear_10588_4839)"/>
<path d="M267.469 209.115L269.144 209.61L269.159 209.615C269.533 209.725 269.747 210.117 269.636 210.491C269.526 210.865 269.134 211.079 268.76 210.968L267.057 210.459C266.685 210.348 266.475 209.956 266.585 209.585C266.696 209.213 267.087 209.002 267.459 209.113H267.471L267.469 209.115Z" fill="url(#paint89_linear_10588_4839)"/>
<path d="M273.094 210.619L274.801 210.993H274.816C275.203 211.081 275.447 211.463 275.361 211.847C275.276 212.234 274.897 212.478 274.51 212.392L272.775 212.005C272.391 211.92 272.15 211.541 272.235 211.157C272.32 210.772 272.7 210.531 273.084 210.617H273.096L273.094 210.619Z" fill="url(#paint90_linear_10588_4839)"/>
<path d="M278.812 211.729L280.54 211.99H280.553C280.95 212.053 281.221 212.422 281.16 212.817C281.1 213.213 280.731 213.485 280.337 213.424L278.581 213.153C278.187 213.093 277.916 212.724 277.979 212.329C278.039 211.935 278.408 211.666 278.802 211.727H278.812V211.729Z" fill="url(#paint91_linear_10588_4839)"/>
<path d="M284.594 212.47L286.336 212.626H286.349C286.753 212.663 287.052 213.02 287.014 213.424C286.979 213.829 286.623 214.127 286.218 214.09H286.216L284.448 213.927C284.046 213.889 283.75 213.532 283.787 213.13C283.825 212.729 284.182 212.432 284.583 212.47H284.594Z" fill="url(#paint92_linear_10588_4839)"/>
<path d="M290.411 212.874L292.159 212.935H292.172C292.583 212.95 292.905 213.294 292.89 213.706C292.875 214.117 292.531 214.439 292.121 214.424H292.119L290.348 214.359C289.939 214.343 289.62 213.999 289.635 213.59C289.65 213.181 289.994 212.862 290.404 212.877H290.414L290.411 212.874Z" fill="url(#paint93_linear_10588_4839)"/>
<path d="M296.24 212.967L297.993 212.94H298.003C298.42 212.932 298.764 213.266 298.769 213.683C298.776 214.1 298.443 214.444 298.026 214.449H298.023L296.25 214.472C295.836 214.477 295.494 214.145 295.489 213.731C295.484 213.316 295.816 212.975 296.233 212.97H296.24V212.967Z" fill="url(#paint94_linear_10588_4839)"/>
<path d="M302.079 212.781L303.829 212.673H303.839C304.261 212.646 304.623 212.967 304.648 213.389C304.673 213.811 304.354 214.173 303.932 214.198H303.93L302.159 214.301C301.74 214.326 301.378 214.004 301.356 213.585C301.331 213.166 301.652 212.804 302.072 212.781H302.079Z" fill="url(#paint95_linear_10588_4839)"/>
<path d="M307.905 212.339L309.65 212.161H309.661C310.085 212.116 310.467 212.427 310.509 212.852C310.552 213.276 310.243 213.658 309.819 213.7H309.816L308.051 213.874C307.626 213.916 307.25 213.605 307.207 213.183C307.164 212.759 307.476 212.382 307.898 212.339H307.905Z" fill="url(#paint96_linear_10588_4839)"/>
<path d="M313.715 211.669L315.451 211.425H315.458C315.888 211.365 316.284 211.664 316.345 212.093C316.405 212.523 316.106 212.92 315.677 212.98H315.674L313.921 213.218C313.494 213.276 313.1 212.977 313.042 212.55C312.985 212.123 313.283 211.729 313.71 211.671H313.715V211.669Z" fill="url(#paint97_linear_10588_4839)"/>
<path d="M319.494 210.788L321.219 210.484H321.227C321.659 210.406 322.07 210.695 322.146 211.127C322.221 211.559 321.932 211.97 321.5 212.046H321.498L319.755 212.347C319.323 212.422 318.916 212.134 318.841 211.702C318.766 211.27 319.054 210.86 319.486 210.788H319.491H319.494Z" fill="url(#paint98_linear_10588_4839)"/>
<path d="M325.237 209.703L326.952 209.339H326.96C327.394 209.246 327.821 209.522 327.914 209.956C328.007 210.391 327.728 210.818 327.294 210.911H327.291L325.558 211.272C325.124 211.363 324.702 211.084 324.612 210.652C324.521 210.217 324.8 209.793 325.232 209.705H325.237V209.703Z" fill="url(#paint99_linear_10588_4839)"/>
<path d="M330.941 208.424L332.643 208.005H332.651C333.088 207.895 333.53 208.163 333.635 208.598C333.743 209.035 333.477 209.477 333.04 209.582H333.038L331.32 210.002C330.885 210.107 330.446 209.841 330.34 209.404C330.235 208.969 330.501 208.53 330.938 208.424H330.943H330.941Z" fill="url(#paint100_linear_10588_4839)"/>
<path d="M336.598 206.963L338.286 206.488H338.293C338.73 206.363 339.187 206.619 339.31 207.056C339.433 207.495 339.177 207.95 338.74 208.073H338.738L337.032 208.545C336.596 208.666 336.143 208.409 336.023 207.972C335.902 207.536 336.159 207.084 336.596 206.963H336.601H336.598Z" fill="url(#paint101_linear_10588_4839)"/>
<path d="M342.208 205.321L343.881 204.796H343.888C344.328 204.655 344.795 204.901 344.933 205.341C345.071 205.78 344.827 206.247 344.388 206.385H344.385L342.695 206.91C342.256 207.046 341.791 206.802 341.656 206.363C341.52 205.923 341.764 205.459 342.203 205.323H342.208V205.321Z" fill="url(#paint102_linear_10588_4839)"/>
<path d="M347.768 203.512L349.425 202.937H349.433C349.872 202.782 350.354 203.015 350.508 203.457C350.661 203.897 350.427 204.379 349.985 204.53H349.983L348.31 205.105C347.871 205.255 347.394 205.022 347.243 204.582C347.092 204.143 347.326 203.666 347.765 203.515H347.77L347.768 203.512Z" fill="url(#paint103_linear_10588_4839)"/>
<path d="M353.273 201.546L354.915 200.926H354.923C355.365 200.758 355.857 200.979 356.023 201.421C356.188 201.863 355.967 202.355 355.525 202.521H355.523L353.865 203.141C353.426 203.307 352.934 203.083 352.771 202.641C352.605 202.202 352.828 201.71 353.27 201.546H353.275H353.273Z" fill="url(#paint104_linear_10588_4839)"/>
<path d="M358.727 199.429L360.352 198.766H360.357C360.799 198.583 361.303 198.796 361.482 199.236C361.662 199.678 361.449 200.183 361.007 200.361H361.004L359.365 201.024C358.923 201.202 358.423 200.989 358.245 200.549C358.066 200.107 358.28 199.608 358.719 199.429H358.722H358.727Z" fill="url(#paint105_linear_10588_4839)"/>
<path d="M364.124 197.169L365.731 196.466H365.736C366.178 196.27 366.693 196.471 366.886 196.913C367.08 197.355 366.879 197.87 366.437 198.063H366.434L364.812 198.769C364.37 198.96 363.858 198.759 363.667 198.317C363.476 197.875 363.677 197.363 364.119 197.172H364.121L364.124 197.169Z" fill="url(#paint106_linear_10588_4839)"/>
<path d="M369.463 194.776L371.055 194.038H371.06C371.499 193.832 372.024 194.023 372.228 194.462C372.431 194.902 372.243 195.424 371.801 195.63L370.198 196.376C369.756 196.582 369.234 196.391 369.028 195.949C368.822 195.507 369.013 194.984 369.455 194.778L369.46 194.776H369.463Z" fill="url(#paint107_linear_10588_4839)"/>
<path d="M374.753 192.275L376.33 191.501H376.335C376.767 191.288 377.29 191.466 377.501 191.898C377.712 192.33 377.536 192.852 377.104 193.063L375.519 193.847C375.087 194.06 374.562 193.882 374.349 193.45C374.136 193.018 374.314 192.493 374.746 192.28L374.751 192.277L374.753 192.275Z" fill="url(#paint108_linear_10588_4839)"/>
<path d="M379.998 189.666L381.562 188.865H381.567C381.982 188.651 382.489 188.814 382.702 189.229C382.913 189.641 382.753 190.143 382.346 190.359L380.781 191.182C380.364 191.403 379.847 191.243 379.629 190.826C379.408 190.409 379.568 189.892 379.985 189.673C379.985 189.673 379.988 189.673 379.99 189.671L380 189.666H379.998Z" fill="url(#paint109_linear_10588_4839)"/>
<path d="M385.193 186.964L386.739 186.132H386.744C387.136 185.919 387.626 186.067 387.837 186.459C388.045 186.848 387.902 187.333 387.518 187.546L385.971 188.402C385.577 188.621 385.08 188.478 384.861 188.084C384.643 187.689 384.786 187.192 385.18 186.974C385.18 186.974 385.182 186.974 385.185 186.971L385.193 186.966V186.964Z" fill="url(#paint110_linear_10588_4839)"/>
<path d="M390.333 184.156L391.867 183.295H391.872C392.241 183.084 392.711 183.217 392.919 183.586C393.125 183.953 392.997 184.417 392.636 184.628L391.106 185.515C390.735 185.731 390.258 185.603 390.042 185.231C389.826 184.859 389.954 184.382 390.325 184.166C390.325 184.166 390.328 184.166 390.33 184.164L390.338 184.159L390.333 184.156Z" fill="url(#paint111_linear_10588_4839)"/>
<path d="M395.423 181.251L396.94 180.362H396.943C397.292 180.156 397.739 180.271 397.945 180.62C398.148 180.967 398.032 181.409 397.691 181.617L396.179 182.529C395.828 182.74 395.371 182.627 395.16 182.278C394.949 181.926 395.059 181.469 395.411 181.258C395.411 181.258 395.413 181.258 395.416 181.256L395.423 181.251Z" fill="url(#paint112_linear_10588_4839)"/>
<path d="M400.461 178.252L401.963 177.336H401.965C402.292 177.135 402.719 177.238 402.92 177.564C403.118 177.888 403.018 178.312 402.696 178.513L401.2 179.452C400.871 179.658 400.434 179.56 400.228 179.229C400.022 178.9 400.12 178.463 400.451 178.257C400.451 178.257 400.454 178.257 400.456 178.255L400.461 178.25V178.252Z" fill="url(#paint113_linear_10588_4839)"/>
<path d="M405.449 175.171L406.935 174.232H406.938C407.244 174.036 407.651 174.126 407.844 174.435C408.038 174.739 407.947 175.141 407.646 175.337L406.167 176.298C405.858 176.499 405.444 176.411 405.243 176.103C405.042 175.794 405.13 175.379 405.439 175.178C405.439 175.178 405.441 175.178 405.444 175.176H405.449V175.171Z" fill="url(#paint114_linear_10588_4839)"/>
<path d="M410.387 172.009L411.859 171.045C412.145 170.857 412.53 170.934 412.718 171.221C412.906 171.504 412.826 171.886 412.547 172.077L411.083 173.061C410.794 173.255 410.403 173.179 410.207 172.891C410.013 172.602 410.089 172.21 410.377 172.014C410.377 172.014 410.385 172.009 410.387 172.009Z" fill="url(#paint115_linear_10588_4839)"/>
<path d="M415.277 168.775L416.736 167.79C417.003 167.61 417.364 167.677 417.545 167.944C417.726 168.207 417.656 168.569 417.394 168.75L415.945 169.754C415.677 169.94 415.305 169.875 415.119 169.604C414.933 169.335 414.999 168.963 415.27 168.777L415.277 168.772V168.775Z" fill="url(#paint116_linear_10588_4839)"/>
<path d="M420.124 165.47L421.568 164.465C421.814 164.292 422.156 164.352 422.329 164.599C422.5 164.842 422.442 165.181 422.199 165.357L420.762 166.382C420.511 166.56 420.165 166.502 419.986 166.251C419.808 166 419.866 165.653 420.117 165.475L420.124 165.47Z" fill="url(#paint117_linear_10588_4839)"/>
<path d="M424.928 162.1L426.36 161.078C426.588 160.915 426.905 160.965 427.071 161.193C427.234 161.419 427.181 161.736 426.958 161.902L425.536 162.944C425.305 163.114 424.979 163.064 424.81 162.833C424.64 162.602 424.69 162.276 424.921 162.107C424.921 162.107 424.926 162.102 424.928 162.102V162.1Z" fill="url(#paint118_linear_10588_4839)"/>
<path d="M429.687 158.667L431.108 157.627C431.316 157.472 431.613 157.517 431.768 157.728C431.921 157.936 431.876 158.23 431.673 158.383L430.264 159.443C430.051 159.604 429.749 159.561 429.589 159.348C429.428 159.134 429.471 158.833 429.684 158.672C429.684 158.672 429.689 158.667 429.692 158.667H429.687Z" fill="url(#paint119_linear_10588_4839)"/>
<path d="M434.407 155.181L435.816 154.124C436.007 153.979 436.281 154.019 436.424 154.21C436.567 154.4 436.529 154.669 436.344 154.815L434.947 155.89C434.752 156.04 434.473 156.003 434.322 155.809C434.171 155.613 434.209 155.335 434.402 155.184C434.402 155.184 434.407 155.181 434.407 155.179V155.181Z" fill="url(#paint120_linear_10588_4839)"/>
<path d="M439.091 151.641L440.487 150.568C440.661 150.435 440.909 150.465 441.045 150.641C441.178 150.814 441.145 151.061 440.977 151.196L439.591 152.286C439.413 152.427 439.157 152.394 439.018 152.218C438.878 152.04 438.91 151.784 439.086 151.646C439.086 151.646 439.091 151.643 439.091 151.641Z" fill="url(#paint121_linear_10588_4839)"/>
<path d="M443.737 148.055L445.123 146.97C445.279 146.847 445.505 146.874 445.628 147.03C445.751 147.186 445.724 147.409 445.57 147.532L444.197 148.637C444.036 148.765 443.802 148.74 443.674 148.579C443.546 148.419 443.571 148.185 443.732 148.057C443.732 148.057 443.735 148.055 443.737 148.055Z" fill="url(#paint122_linear_10588_4839)"/>
<path d="M448.347 144.421L449.723 143.324C449.861 143.213 450.064 143.236 450.177 143.374C450.288 143.512 450.265 143.713 450.13 143.826L448.766 144.943C448.623 145.061 448.412 145.039 448.297 144.896C448.179 144.752 448.201 144.541 448.344 144.426C448.344 144.426 448.347 144.423 448.349 144.423L448.347 144.421Z" fill="url(#paint123_linear_10588_4839)"/>
<path d="M452.928 140.747L454.296 139.637C454.419 139.537 454.598 139.557 454.698 139.677C454.796 139.798 454.778 139.976 454.66 140.077L453.304 141.204C453.179 141.31 452.99 141.292 452.887 141.166C452.782 141.041 452.8 140.852 452.925 140.747C452.925 140.747 452.928 140.747 452.928 140.745V140.747Z" fill="url(#paint124_linear_10588_4839)"/>
<path d="M457.479 137.035L458.838 135.915C458.943 135.828 459.099 135.843 459.187 135.948C459.275 136.054 459.26 136.209 459.157 136.297L457.811 137.435C457.7 137.528 457.537 137.513 457.444 137.405C457.351 137.294 457.366 137.131 457.474 137.038H457.477L457.479 137.035Z" fill="url(#paint125_linear_10588_4839)"/>
<path d="M462.002 133.289L463.353 132.159C463.443 132.083 463.576 132.096 463.651 132.184C463.727 132.272 463.714 132.405 463.626 132.48L462.288 133.628C462.195 133.708 462.054 133.698 461.974 133.603C461.894 133.51 461.904 133.369 461.999 133.289C461.999 133.289 461.999 133.289 462.002 133.289Z" fill="url(#paint126_linear_10588_4839)"/>
<path d="M466.496 129.512L467.84 128.372C467.912 128.309 468.023 128.319 468.086 128.392C468.148 128.465 468.138 128.573 468.068 128.635L466.737 129.793C466.659 129.861 466.544 129.851 466.476 129.775C466.408 129.698 466.416 129.582 466.493 129.514L466.496 129.512Z" fill="url(#paint127_linear_10588_4839)"/>
<path d="M470.968 125.705L472.306 124.557C472.364 124.507 472.45 124.514 472.5 124.572C472.55 124.63 472.542 124.715 472.487 124.766L471.164 125.931C471.103 125.986 471.008 125.978 470.955 125.918C470.9 125.855 470.908 125.762 470.968 125.71V125.705Z" fill="url(#paint128_linear_10588_4839)"/>
<path d="M475.422 121.873L476.755 120.717C476.798 120.682 476.86 120.685 476.896 120.728C476.931 120.768 476.928 120.83 476.886 120.868L475.567 122.041C475.522 122.081 475.452 122.079 475.409 122.031C475.369 121.986 475.371 121.915 475.419 121.875L475.422 121.873Z" fill="url(#paint129_linear_10588_4839)"/>
<path d="M484.602 112.362L485.541 119.258L489.807 115.657L484.602 112.362Z" fill="#7D97F4"/>
<path d="M515.072 104.183L498.674 123.053C498.36 123.414 497.913 123.633 497.433 123.655C496.956 123.681 496.489 123.51 496.137 123.181L477.813 106.002C477.602 105.806 477.534 105.499 477.637 105.233C477.74 104.964 477.996 104.786 478.285 104.781L515.072 104.181V104.183Z" fill="#91B3FA"/>
<path d="M484.604 112.363L515.072 104.183L487.554 115.145L487.732 117.069L484.604 112.363Z" fill="#7D97F4"/>
<path d="M489.313 116.78L485.539 119.258L487.553 115.145L489.313 116.78Z" fill="#7D97F4"/>
<defs>
<linearGradient id="paint0_linear_10588_4839" x1="187.687" y1="139.998" x2="147.56" y2="48.3683" gradientUnits="userSpaceOnUse">
<stop stop-color="#4F52FF"/>
<stop offset="1" stop-color="#4042E2"/>
</linearGradient>
<linearGradient id="paint1_linear_10588_4839" x1="509.496" y1="43.6077" x2="324.798" y2="342.717" gradientUnits="userSpaceOnUse">
<stop stop-color="#E1473D"/>
<stop offset="1" stop-color="#E9605A"/>
</linearGradient>
<linearGradient id="paint2_linear_10588_4839" x1="299.266" y1="222.573" x2="386.177" y2="382.43" gradientUnits="userSpaceOnUse">
<stop stop-color="#FE7062"/>
<stop offset="1" stop-color="#FF928E"/>
</linearGradient>
<linearGradient id="paint3_linear_10588_4839" x1="318.846" y1="246.356" x2="148.316" y2="249.626" gradientUnits="userSpaceOnUse">
<stop stop-color="#E1473D"/>
<stop offset="1" stop-color="#E9605A"/>
</linearGradient>
<linearGradient id="paint4_linear_10588_4839" x1="105.726" y1="234.451" x2="206.607" y2="358.611" gradientUnits="userSpaceOnUse">
<stop stop-color="#FE7062"/>
<stop offset="1" stop-color="#FF928E"/>
</linearGradient>
<linearGradient id="paint5_linear_10588_4839" x1="316.694" y1="194.615" x2="327.038" y2="224.617" gradientUnits="userSpaceOnUse">
<stop stop-color="#FF928E"/>
<stop offset="1" stop-color="#FEB3B1"/>
</linearGradient>
<linearGradient id="paint6_linear_10588_4839" x1="335.123" y1="185.928" x2="318.773" y2="225.503" gradientUnits="userSpaceOnUse">
<stop stop-color="#4042E2"/>
<stop offset="1" stop-color="#4F52FF"/>
</linearGradient>
<linearGradient id="paint7_linear_10588_4839" x1="332.851" y1="161.773" x2="311.297" y2="187.119" gradientUnits="userSpaceOnUse">
<stop stop-color="#FF928E"/>
<stop offset="1" stop-color="#FEB3B1"/>
</linearGradient>
<linearGradient id="paint8_linear_10588_4839" x1="328.833" y1="196.296" x2="304.811" y2="231.736" gradientUnits="userSpaceOnUse">
<stop stop-color="#4042E2"/>
<stop offset="1" stop-color="#4F52FF"/>
</linearGradient>
<linearGradient id="paint9_linear_10588_4839" x1="283.905" y1="177.757" x2="289.596" y2="152.412" gradientUnits="userSpaceOnUse">
<stop stop-color="#09005D"/>
<stop offset="1" stop-color="#1A0F91"/>
</linearGradient>
<linearGradient id="paint10_linear_10588_4839" x1="263.639" y1="131.689" x2="289.244" y2="111.772" gradientUnits="userSpaceOnUse">
<stop stop-color="#09005D"/>
<stop offset="1" stop-color="#1A0F91"/>
</linearGradient>
<linearGradient id="paint11_linear_10588_4839" x1="298.382" y1="125.667" x2="212.812" y2="208.211" gradientUnits="userSpaceOnUse">
<stop stop-color="#FE7062"/>
<stop offset="1" stop-color="#FF928E"/>
</linearGradient>
<linearGradient id="paint12_linear_10588_4839" x1="297.709" y1="151.018" x2="259.947" y2="155.674" gradientUnits="userSpaceOnUse">
<stop stop-color="#FF928E"/>
<stop offset="1" stop-color="#FEB3B1"/>
</linearGradient>
<linearGradient id="paint13_linear_10588_4839" x1="291.112" y1="118.56" x2="281.627" y2="130.802" gradientUnits="userSpaceOnUse">
<stop stop-color="#FF928E"/>
<stop offset="1" stop-color="#FEB3B1"/>
</linearGradient>
<linearGradient id="paint14_linear_10588_4839" x1="295.057" y1="111.152" x2="296.78" y2="124.602" gradientUnits="userSpaceOnUse">
<stop stop-color="#FF928E"/>
<stop offset="1" stop-color="#FEB3B1"/>
</linearGradient>
<linearGradient id="paint15_linear_10588_4839" x1="265.985" y1="134.705" x2="291.589" y2="114.791" gradientUnits="userSpaceOnUse">
<stop stop-color="#09005D"/>
<stop offset="1" stop-color="#1A0F91"/>
</linearGradient>
<linearGradient id="paint16_linear_10588_4839" x1="291.979" y1="111.546" x2="293.704" y2="124.996" gradientUnits="userSpaceOnUse">
<stop stop-color="#FF928E"/>
<stop offset="1" stop-color="#FEB3B1"/>
</linearGradient>
<linearGradient id="paint17_linear_10588_4839" x1="277.908" y1="152.827" x2="296.546" y2="158.938" gradientUnits="userSpaceOnUse">
<stop stop-color="#4042E2"/>
<stop offset="1" stop-color="#4F52FF"/>
</linearGradient>
<linearGradient id="paint18_linear_10588_4839" x1="293.07" y1="177.918" x2="314.28" y2="145.847" gradientUnits="userSpaceOnUse">
<stop stop-color="#020039"/>
<stop offset="1" stop-color="#090056"/>
</linearGradient>
<linearGradient id="paint19_linear_10588_4839" x1="312.598" y1="148.095" x2="315.907" y2="148.095" gradientUnits="userSpaceOnUse">
<stop stop-color="#4042E2"/>
<stop offset="1" stop-color="#4F52FF"/>
</linearGradient>
<linearGradient id="paint20_linear_10588_4839" x1="112.039" y1="333.968" x2="128.646" y2="333.968" gradientUnits="userSpaceOnUse">
<stop stop-color="#4F52FF"/>
<stop offset="1" stop-color="#4042E2"/>
</linearGradient>
<linearGradient id="paint21_linear_10588_4839" x1="112.039" y1="330.713" x2="128.176" y2="330.713" gradientUnits="userSpaceOnUse">
<stop stop-color="#09005D"/>
<stop offset="1" stop-color="#1A0F91"/>
</linearGradient>
<linearGradient id="paint22_linear_10588_4839" x1="113.573" y1="326.171" x2="118.252" y2="326.171" gradientUnits="userSpaceOnUse">
<stop stop-color="#FF928E"/>
<stop offset="1" stop-color="#FEB3B1"/>
</linearGradient>
<linearGradient id="paint23_linear_10588_4839" x1="78.9339" y1="333.611" x2="85.2974" y2="333.611" gradientUnits="userSpaceOnUse">
<stop stop-color="#4F52FF"/>
<stop offset="1" stop-color="#4042E2"/>
</linearGradient>
<linearGradient id="paint24_linear_10588_4839" x1="78.982" y1="328.712" x2="88.3212" y2="328.712" gradientUnits="userSpaceOnUse">
<stop stop-color="#09005D"/>
<stop offset="1" stop-color="#1A0F91"/>
</linearGradient>
<linearGradient id="paint25_linear_10588_4839" x1="83.8354" y1="322.271" x2="89.4253" y2="322.271" gradientUnits="userSpaceOnUse">
<stop stop-color="#FF928E"/>
<stop offset="1" stop-color="#FEB3B1"/>
</linearGradient>
<linearGradient id="paint26_linear_10588_4839" x1="70.8884" y1="338.619" x2="144.324" y2="255.535" gradientUnits="userSpaceOnUse">
<stop stop-color="#4042E2"/>
<stop offset="1" stop-color="#4F52FF"/>
</linearGradient>
<linearGradient id="paint27_linear_10588_4839" x1="100.051" y1="246.633" x2="140.399" y2="223.871" gradientUnits="userSpaceOnUse">
<stop stop-color="#A22B25"/>
<stop offset="1" stop-color="#C0423C"/>
</linearGradient>
<linearGradient id="paint28_linear_10588_4839" x1="104.847" y1="236.522" x2="115.71" y2="266.265" gradientUnits="userSpaceOnUse">
<stop stop-color="#4F52FF"/>
<stop offset="1" stop-color="#4042E2"/>
</linearGradient>
<linearGradient id="paint29_linear_10588_4839" x1="114.678" y1="265.07" x2="103.428" y2="244.897" gradientUnits="userSpaceOnUse">
<stop stop-color="#FF928E"/>
<stop offset="1" stop-color="#FEB3B1"/>
</linearGradient>
<linearGradient id="paint30_linear_10588_4839" x1="92.4921" y1="233.23" x2="132.84" y2="210.471" gradientUnits="userSpaceOnUse">
<stop stop-color="#A22B25"/>
<stop offset="1" stop-color="#C0423C"/>
</linearGradient>
<linearGradient id="paint31_linear_10588_4839" x1="105.051" y1="255.497" x2="145.399" y2="232.736" gradientUnits="userSpaceOnUse">
<stop stop-color="#A22B25"/>
<stop offset="1" stop-color="#C0423C"/>
</linearGradient>
<linearGradient id="paint32_linear_10588_4839" x1="167.495" y1="237.896" x2="148.874" y2="243.328" gradientUnits="userSpaceOnUse">
<stop stop-color="#FF928E"/>
<stop offset="1" stop-color="#FEB3B1"/>
</linearGradient>
<linearGradient id="paint33_linear_10588_4839" x1="135.399" y1="202.729" x2="126.348" y2="219.411" gradientUnits="userSpaceOnUse">
<stop stop-color="#FF928E"/>
<stop offset="1" stop-color="#FEB3B1"/>
</linearGradient>
<linearGradient id="paint34_linear_10588_4839" x1="87.9598" y1="253.935" x2="170.027" y2="253.935" gradientUnits="userSpaceOnUse">
<stop stop-color="#020039"/>
<stop offset="1" stop-color="#090056"/>
</linearGradient>
<linearGradient id="paint35_linear_10588_4839" x1="161.264" y1="217.543" x2="245.086" y2="217.543" gradientUnits="userSpaceOnUse">
<stop stop-color="#020039"/>
<stop offset="1" stop-color="#090056"/>
</linearGradient>
<linearGradient id="paint36_linear_10588_4839" x1="132.564" y1="203.384" x2="144.203" y2="198.339" gradientUnits="userSpaceOnUse">
<stop stop-color="#FF928E"/>
<stop offset="1" stop-color="#FEB3B1"/>
</linearGradient>
<linearGradient id="paint37_linear_10588_4839" x1="127.88" y1="198.897" x2="177.864" y2="205.215" gradientUnits="userSpaceOnUse">
<stop stop-color="#2B3582"/>
<stop offset="1" stop-color="#150E42"/>
</linearGradient>
<linearGradient id="paint38_linear_10588_4839" x1="122.305" y1="213.742" x2="132.047" y2="200.358" gradientUnits="userSpaceOnUse">
<stop stop-color="#FF928E"/>
<stop offset="1" stop-color="#FEB3B1"/>
</linearGradient>
<linearGradient id="paint39_linear_10588_4839" x1="114.9" y1="264.947" x2="103.649" y2="244.774" gradientUnits="userSpaceOnUse">
<stop stop-color="#FF928E"/>
<stop offset="1" stop-color="#FEB3B1"/>
</linearGradient>
<linearGradient id="paint40_linear_10588_4839" x1="167.91" y1="239.31" x2="149.286" y2="244.739" gradientUnits="userSpaceOnUse">
<stop stop-color="#FF928E"/>
<stop offset="1" stop-color="#FEB3B1"/>
</linearGradient>
<linearGradient id="paint41_linear_10588_4839" x1="292.777" y1="48.3668" x2="325.474" y2="74.3661" gradientUnits="userSpaceOnUse">
<stop stop-color="#4F52FF"/>
<stop offset="1" stop-color="#4042E2"/>
</linearGradient>
<linearGradient id="paint42_linear_10588_4839" x1="31.2578" y1="85.3795" x2="221.815" y2="85.3795" gradientUnits="userSpaceOnUse">
<stop stop-color="#FE7062"/>
<stop offset="1" stop-color="#FF928E"/>
</linearGradient>
<linearGradient id="paint43_linear_10588_4839" x1="68.6699" y1="85.1886" x2="183.066" y2="85.1886" gradientUnits="userSpaceOnUse">
<stop stop-color="#FF928E"/>
<stop offset="1" stop-color="#FEB3B1"/>
</linearGradient>
<linearGradient id="paint44_linear_10588_4839" x1="28.5983" y1="97.3906" x2="46.2698" y2="97.3906" gradientUnits="userSpaceOnUse">
<stop stop-color="#4F52FF"/>
<stop offset="1" stop-color="#4042E2"/>
</linearGradient>
<linearGradient id="paint45_linear_10588_4839" x1="40.3008" y1="79.1641" x2="64.0118" y2="79.1641" gradientUnits="userSpaceOnUse">
<stop stop-color="#4F52FF"/>
<stop offset="1" stop-color="#4042E2"/>
</linearGradient>
<linearGradient id="paint46_linear_10588_4839" x1="456.635" y1="226.292" x2="460.256" y2="188.184" gradientUnits="userSpaceOnUse">
<stop stop-color="#FE7062"/>
<stop offset="1" stop-color="#FF928E"/>
</linearGradient>
<linearGradient id="paint47_linear_10588_4839" x1="470.185" y1="287.141" x2="483.118" y2="338.524" gradientUnits="userSpaceOnUse">
<stop stop-color="#FF928E"/>
<stop offset="1" stop-color="#FEB3B1"/>
</linearGradient>
<linearGradient id="paint48_linear_10588_4839" x1="494.152" y1="253.928" x2="482.821" y2="327.572" gradientUnits="userSpaceOnUse">
<stop stop-color="#E1473D"/>
<stop offset="1" stop-color="#E9605A"/>
</linearGradient>
<linearGradient id="paint49_linear_10588_4839" x1="470.181" y1="250.239" x2="458.851" y2="323.883" gradientUnits="userSpaceOnUse">
<stop stop-color="#E1473D"/>
<stop offset="1" stop-color="#E9605A"/>
</linearGradient>
<linearGradient id="paint50_linear_10588_4839" x1="452.637" y1="291.559" x2="465.57" y2="342.941" gradientUnits="userSpaceOnUse">
<stop stop-color="#FF928E"/>
<stop offset="1" stop-color="#FEB3B1"/>
</linearGradient>
<linearGradient id="paint51_linear_10588_4839" x1="420.285" y1="207.395" x2="446.221" y2="207.395" gradientUnits="userSpaceOnUse">
<stop stop-color="#FF928E"/>
<stop offset="1" stop-color="#FEB3B1"/>
</linearGradient>
<linearGradient id="paint52_linear_10588_4839" x1="447.894" y1="221.93" x2="496.519" y2="318.235" gradientUnits="userSpaceOnUse">
<stop stop-color="#4042E2"/>
<stop offset="1" stop-color="#4F52FF"/>
</linearGradient>
<linearGradient id="paint53_linear_10588_4839" x1="469.522" y1="308.482" x2="454.392" y2="257.273" gradientUnits="userSpaceOnUse">
<stop stop-color="#09005D"/>
<stop offset="1" stop-color="#1A0F91"/>
</linearGradient>
<linearGradient id="paint54_linear_10588_4839" x1="456.894" y1="217.528" x2="456.894" y2="233.82" gradientUnits="userSpaceOnUse">
<stop stop-color="#FF928E"/>
<stop offset="1" stop-color="#FEB3B1"/>
</linearGradient>
<linearGradient id="paint55_linear_10588_4839" x1="466.09" y1="208.048" x2="449.149" y2="216.325" gradientUnits="userSpaceOnUse">
<stop stop-color="#FF928E"/>
<stop offset="1" stop-color="#FEB3B1"/>
</linearGradient>
<linearGradient id="paint56_linear_10588_4839" x1="478.612" y1="251.537" x2="460.768" y2="203.043" gradientUnits="userSpaceOnUse">
<stop stop-color="#09005D"/>
<stop offset="1" stop-color="#1A0F91"/>
</linearGradient>
<linearGradient id="paint57_linear_10588_4839" x1="454.883" y1="205.434" x2="466.554" y2="223.583" gradientUnits="userSpaceOnUse">
<stop stop-color="#FF928E"/>
<stop offset="1" stop-color="#FEB3B1"/>
</linearGradient>
<linearGradient id="paint58_linear_10588_4839" x1="480.257" y1="250.932" x2="462.412" y2="202.438" gradientUnits="userSpaceOnUse">
<stop stop-color="#09005D"/>
<stop offset="1" stop-color="#1A0F91"/>
</linearGradient>
<linearGradient id="paint59_linear_10588_4839" x1="354.592" y1="164.822" x2="513.527" y2="164.822" gradientUnits="userSpaceOnUse">
<stop stop-color="#4042E2"/>
<stop offset="1" stop-color="#4F52FF"/>
</linearGradient>
<linearGradient id="paint60_linear_10588_4839" x1="296.434" y1="132.277" x2="298.714" y2="132.277" gradientUnits="userSpaceOnUse">
<stop stop-color="#DAE3FE"/>
<stop offset="1" stop-color="#E9EFFD"/>
</linearGradient>
<linearGradient id="paint61_linear_10588_4839" x1="291.469" y1="129.07" x2="293.837" y2="129.07" gradientUnits="userSpaceOnUse">
<stop stop-color="#DAE3FE"/>
<stop offset="1" stop-color="#E9EFFD"/>
</linearGradient>
<linearGradient id="paint62_linear_10588_4839" x1="286.283" y1="126.232" x2="288.739" y2="126.232" gradientUnits="userSpaceOnUse">
<stop stop-color="#DAE3FE"/>
<stop offset="1" stop-color="#E9EFFD"/>
</linearGradient>
<linearGradient id="paint63_linear_10588_4839" x1="280.864" y1="123.859" x2="283.413" y2="123.859" gradientUnits="userSpaceOnUse">
<stop stop-color="#DAE3FE"/>
<stop offset="1" stop-color="#E9EFFD"/>
</linearGradient>
<linearGradient id="paint64_linear_10588_4839" x1="275.246" y1="122.033" x2="277.87" y2="122.033" gradientUnits="userSpaceOnUse">
<stop stop-color="#DAE3FE"/>
<stop offset="1" stop-color="#E9EFFD"/>
</linearGradient>
<linearGradient id="paint65_linear_10588_4839" x1="269.478" y1="120.785" x2="272.165" y2="120.785" gradientUnits="userSpaceOnUse">
<stop stop-color="#DAE3FE"/>
<stop offset="1" stop-color="#E9EFFD"/>
</linearGradient>
<linearGradient id="paint66_linear_10588_4839" x1="263.62" y1="120.17" x2="266.347" y2="120.17" gradientUnits="userSpaceOnUse">
<stop stop-color="#DAE3FE"/>
<stop offset="1" stop-color="#E9EFFD"/>
</linearGradient>
<linearGradient id="paint67_linear_10588_4839" x1="257.741" y1="120.26" x2="260.485" y2="120.26" gradientUnits="userSpaceOnUse">
<stop stop-color="#DAE3FE"/>
<stop offset="1" stop-color="#E9EFFD"/>
</linearGradient>
<linearGradient id="paint68_linear_10588_4839" x1="251.94" y1="121.122" x2="254.672" y2="121.122" gradientUnits="userSpaceOnUse">
<stop stop-color="#DAE3FE"/>
<stop offset="1" stop-color="#E9EFFD"/>
</linearGradient>
<linearGradient id="paint69_linear_10588_4839" x1="246.358" y1="122.832" x2="249.03" y2="122.832" gradientUnits="userSpaceOnUse">
<stop stop-color="#DAE3FE"/>
<stop offset="1" stop-color="#E9EFFD"/>
</linearGradient>
<linearGradient id="paint70_linear_10588_4839" x1="241.159" y1="125.424" x2="243.713" y2="125.424" gradientUnits="userSpaceOnUse">
<stop stop-color="#DAE3FE"/>
<stop offset="1" stop-color="#E9EFFD"/>
</linearGradient>
<linearGradient id="paint71_linear_10588_4839" x1="236.498" y1="128.887" x2="238.894" y2="128.887" gradientUnits="userSpaceOnUse">
<stop stop-color="#DAE3FE"/>
<stop offset="1" stop-color="#E9EFFD"/>
</linearGradient>
<linearGradient id="paint72_linear_10588_4839" x1="232.53" y1="133.113" x2="234.728" y2="133.113" gradientUnits="userSpaceOnUse">
<stop stop-color="#DAE3FE"/>
<stop offset="1" stop-color="#E9EFFD"/>
</linearGradient>
<linearGradient id="paint73_linear_10588_4839" x1="229.309" y1="137.944" x2="231.295" y2="137.944" gradientUnits="userSpaceOnUse">
<stop stop-color="#DAE3FE"/>
<stop offset="1" stop-color="#E9EFFD"/>
</linearGradient>
<linearGradient id="paint74_linear_10588_4839" x1="226.848" y1="143.221" x2="228.621" y2="143.221" gradientUnits="userSpaceOnUse">
<stop stop-color="#DAE3FE"/>
<stop offset="1" stop-color="#E9EFFD"/>
</linearGradient>
<linearGradient id="paint75_linear_10588_4839" x1="225.153" y1="148.805" x2="226.712" y2="148.805" gradientUnits="userSpaceOnUse">
<stop stop-color="#DAE3FE"/>
<stop offset="1" stop-color="#E9EFFD"/>
</linearGradient>
<linearGradient id="paint76_linear_10588_4839" x1="224.215" y1="154.581" x2="225.564" y2="154.581" gradientUnits="userSpaceOnUse">
<stop stop-color="#DAE3FE"/>
<stop offset="1" stop-color="#E9EFFD"/>
</linearGradient>
<linearGradient id="paint77_linear_10588_4839" x1="224.018" y1="160.445" x2="225.218" y2="160.445" gradientUnits="userSpaceOnUse">
<stop stop-color="#DAE3FE"/>
<stop offset="1" stop-color="#E9EFFD"/>
</linearGradient>
<linearGradient id="paint78_linear_10588_4839" x1="224.387" y1="166.294" x2="225.848" y2="166.294" gradientUnits="userSpaceOnUse">
<stop stop-color="#DAE3FE"/>
<stop offset="1" stop-color="#E9EFFD"/>
</linearGradient>
<linearGradient id="paint79_linear_10588_4839" x1="225.554" y1="172.014" x2="227.277" y2="172.014" gradientUnits="userSpaceOnUse">
<stop stop-color="#DAE3FE"/>
<stop offset="1" stop-color="#E9EFFD"/>
</linearGradient>
<linearGradient id="paint80_linear_10588_4839" x1="227.495" y1="177.516" x2="229.452" y2="177.516" gradientUnits="userSpaceOnUse">
<stop stop-color="#DAE3FE"/>
<stop offset="1" stop-color="#E9EFFD"/>
</linearGradient>
<linearGradient id="paint81_linear_10588_4839" x1="230.103" y1="182.722" x2="232.265" y2="182.722" gradientUnits="userSpaceOnUse">
<stop stop-color="#DAE3FE"/>
<stop offset="1" stop-color="#E9EFFD"/>
</linearGradient>
<linearGradient id="paint82_linear_10588_4839" x1="233.299" y1="187.584" x2="235.647" y2="187.584" gradientUnits="userSpaceOnUse">
<stop stop-color="#DAE3FE"/>
<stop offset="1" stop-color="#E9EFFD"/>
</linearGradient>
<linearGradient id="paint83_linear_10588_4839" x1="237.013" y1="192.066" x2="239.519" y2="192.066" gradientUnits="userSpaceOnUse">
<stop stop-color="#DAE3FE"/>
<stop offset="1" stop-color="#E9EFFD"/>
</linearGradient>
<linearGradient id="paint84_linear_10588_4839" x1="241.167" y1="196.145" x2="243.814" y2="196.145" gradientUnits="userSpaceOnUse">
<stop stop-color="#DAE3FE"/>
<stop offset="1" stop-color="#E9EFFD"/>
</linearGradient>
<linearGradient id="paint85_linear_10588_4839" x1="245.697" y1="199.803" x2="248.466" y2="199.803" gradientUnits="userSpaceOnUse">
<stop stop-color="#DAE3FE"/>
<stop offset="1" stop-color="#E9EFFD"/>
</linearGradient>
<linearGradient id="paint86_linear_10588_4839" x1="250.548" y1="203.035" x2="253.423" y2="203.035" gradientUnits="userSpaceOnUse">
<stop stop-color="#DAE3FE"/>
<stop offset="1" stop-color="#E9EFFD"/>
</linearGradient>
<linearGradient id="paint87_linear_10588_4839" x1="255.672" y1="205.823" x2="258.64" y2="205.823" gradientUnits="userSpaceOnUse">
<stop stop-color="#DAE3FE"/>
<stop offset="1" stop-color="#E9EFFD"/>
</linearGradient>
<linearGradient id="paint88_linear_10588_4839" x1="261.026" y1="208.156" x2="264.064" y2="208.156" gradientUnits="userSpaceOnUse">
<stop stop-color="#DAE3FE"/>
<stop offset="1" stop-color="#E9EFFD"/>
</linearGradient>
<linearGradient id="paint89_linear_10588_4839" x1="266.552" y1="210.037" x2="269.666" y2="210.037" gradientUnits="userSpaceOnUse">
<stop stop-color="#DAE3FE"/>
<stop offset="1" stop-color="#E9EFFD"/>
</linearGradient>
<linearGradient id="paint90_linear_10588_4839" x1="272.215" y1="211.503" x2="275.376" y2="211.503" gradientUnits="userSpaceOnUse">
<stop stop-color="#DAE3FE"/>
<stop offset="1" stop-color="#E9EFFD"/>
</linearGradient>
<linearGradient id="paint91_linear_10588_4839" x1="277.969" y1="212.576" x2="281.171" y2="212.576" gradientUnits="userSpaceOnUse">
<stop stop-color="#DAE3FE"/>
<stop offset="1" stop-color="#E9EFFD"/>
</linearGradient>
<linearGradient id="paint92_linear_10588_4839" x1="283.785" y1="213.281" x2="287.019" y2="213.281" gradientUnits="userSpaceOnUse">
<stop stop-color="#DAE3FE"/>
<stop offset="1" stop-color="#E9EFFD"/>
</linearGradient>
<linearGradient id="paint93_linear_10588_4839" x1="289.633" y1="213.648" x2="292.89" y2="213.648" gradientUnits="userSpaceOnUse">
<stop stop-color="#DAE3FE"/>
<stop offset="1" stop-color="#E9EFFD"/>
</linearGradient>
<linearGradient id="paint94_linear_10588_4839" x1="295.492" y1="213.706" x2="298.771" y2="213.706" gradientUnits="userSpaceOnUse">
<stop stop-color="#DAE3FE"/>
<stop offset="1" stop-color="#E9EFFD"/>
</linearGradient>
<linearGradient id="paint95_linear_10588_4839" x1="301.353" y1="213.487" x2="304.651" y2="213.487" gradientUnits="userSpaceOnUse">
<stop stop-color="#DAE3FE"/>
<stop offset="1" stop-color="#E9EFFD"/>
</linearGradient>
<linearGradient id="paint96_linear_10588_4839" x1="307.205" y1="213.017" x2="310.514" y2="213.017" gradientUnits="userSpaceOnUse">
<stop stop-color="#DAE3FE"/>
<stop offset="1" stop-color="#E9EFFD"/>
</linearGradient>
<linearGradient id="paint97_linear_10588_4839" x1="313.032" y1="212.319" x2="316.352" y2="212.319" gradientUnits="userSpaceOnUse">
<stop stop-color="#DAE3FE"/>
<stop offset="1" stop-color="#E9EFFD"/>
</linearGradient>
<linearGradient id="paint98_linear_10588_4839" x1="318.831" y1="211.415" x2="322.158" y2="211.415" gradientUnits="userSpaceOnUse">
<stop stop-color="#DAE3FE"/>
<stop offset="1" stop-color="#E9EFFD"/>
</linearGradient>
<linearGradient id="paint99_linear_10588_4839" x1="324.594" y1="210.305" x2="327.929" y2="210.305" gradientUnits="userSpaceOnUse">
<stop stop-color="#DAE3FE"/>
<stop offset="1" stop-color="#E9EFFD"/>
</linearGradient>
<linearGradient id="paint100_linear_10588_4839" x1="330.315" y1="209.002" x2="333.66" y2="209.002" gradientUnits="userSpaceOnUse">
<stop stop-color="#DAE3FE"/>
<stop offset="1" stop-color="#E9EFFD"/>
</linearGradient>
<linearGradient id="paint101_linear_10588_4839" x1="335.99" y1="207.515" x2="339.34" y2="207.515" gradientUnits="userSpaceOnUse">
<stop stop-color="#DAE3FE"/>
<stop offset="1" stop-color="#E9EFFD"/>
</linearGradient>
<linearGradient id="paint102_linear_10588_4839" x1="341.618" y1="205.851" x2="344.973" y2="205.851" gradientUnits="userSpaceOnUse">
<stop stop-color="#DAE3FE"/>
<stop offset="1" stop-color="#E9EFFD"/>
</linearGradient>
<linearGradient id="paint103_linear_10588_4839" x1="347.195" y1="204.02" x2="350.553" y2="204.02" gradientUnits="userSpaceOnUse">
<stop stop-color="#DAE3FE"/>
<stop offset="1" stop-color="#E9EFFD"/>
</linearGradient>
<linearGradient id="paint104_linear_10588_4839" x1="352.718" y1="202.031" x2="356.078" y2="202.031" gradientUnits="userSpaceOnUse">
<stop stop-color="#DAE3FE"/>
<stop offset="1" stop-color="#E9EFFD"/>
</linearGradient>
<linearGradient id="paint105_linear_10588_4839" x1="358.184" y1="199.894" x2="361.547" y2="199.894" gradientUnits="userSpaceOnUse">
<stop stop-color="#DAE3FE"/>
<stop offset="1" stop-color="#E9EFFD"/>
</linearGradient>
<linearGradient id="paint106_linear_10588_4839" x1="363.596" y1="197.614" x2="366.962" y2="197.614" gradientUnits="userSpaceOnUse">
<stop stop-color="#DAE3FE"/>
<stop offset="1" stop-color="#E9EFFD"/>
</linearGradient>
<linearGradient id="paint107_linear_10588_4839" x1="368.948" y1="195.208" x2="372.31" y2="195.208" gradientUnits="userSpaceOnUse">
<stop stop-color="#DAE3FE"/>
<stop offset="1" stop-color="#E9EFFD"/>
</linearGradient>
<linearGradient id="paint108_linear_10588_4839" x1="374.261" y1="192.672" x2="377.594" y2="192.672" gradientUnits="userSpaceOnUse">
<stop stop-color="#DAE3FE"/>
<stop offset="1" stop-color="#E9EFFD"/>
</linearGradient>
<linearGradient id="paint109_linear_10588_4839" x1="379.528" y1="190.027" x2="382.793" y2="190.027" gradientUnits="userSpaceOnUse">
<stop stop-color="#DAE3FE"/>
<stop offset="1" stop-color="#E9EFFD"/>
</linearGradient>
<linearGradient id="paint110_linear_10588_4839" x1="384.758" y1="187.267" x2="387.93" y2="187.267" gradientUnits="userSpaceOnUse">
<stop stop-color="#DAE3FE"/>
<stop offset="1" stop-color="#E9EFFD"/>
</linearGradient>
<linearGradient id="paint111_linear_10588_4839" x1="389.931" y1="184.405" x2="393.015" y2="184.405" gradientUnits="userSpaceOnUse">
<stop stop-color="#DAE3FE"/>
<stop offset="1" stop-color="#E9EFFD"/>
</linearGradient>
<linearGradient id="paint112_linear_10588_4839" x1="395.052" y1="181.446" x2="398.045" y2="181.446" gradientUnits="userSpaceOnUse">
<stop stop-color="#DAE3FE"/>
<stop offset="1" stop-color="#E9EFFD"/>
</linearGradient>
<linearGradient id="paint113_linear_10588_4839" x1="400.12" y1="178.398" x2="403.02" y2="178.398" gradientUnits="userSpaceOnUse">
<stop stop-color="#DAE3FE"/>
<stop offset="1" stop-color="#E9EFFD"/>
</linearGradient>
<linearGradient id="paint114_linear_10588_4839" x1="405.135" y1="175.266" x2="407.945" y2="175.266" gradientUnits="userSpaceOnUse">
<stop stop-color="#DAE3FE"/>
<stop offset="1" stop-color="#E9EFFD"/>
</linearGradient>
<linearGradient id="paint115_linear_10588_4839" x1="410.099" y1="172.057" x2="412.821" y2="172.057" gradientUnits="userSpaceOnUse">
<stop stop-color="#DAE3FE"/>
<stop offset="1" stop-color="#E9EFFD"/>
</linearGradient>
<linearGradient id="paint116_linear_10588_4839" x1="415.014" y1="168.775" x2="417.648" y2="168.775" gradientUnits="userSpaceOnUse">
<stop stop-color="#DAE3FE"/>
<stop offset="1" stop-color="#E9EFFD"/>
</linearGradient>
<linearGradient id="paint117_linear_10588_4839" x1="419.883" y1="165.425" x2="422.43" y2="165.425" gradientUnits="userSpaceOnUse">
<stop stop-color="#DAE3FE"/>
<stop offset="1" stop-color="#E9EFFD"/>
</linearGradient>
<linearGradient id="paint118_linear_10588_4839" x1="424.707" y1="162.012" x2="427.166" y2="162.012" gradientUnits="userSpaceOnUse">
<stop stop-color="#DAE3FE"/>
<stop offset="1" stop-color="#E9EFFD"/>
</linearGradient>
<linearGradient id="paint119_linear_10588_4839" x1="429.488" y1="158.539" x2="431.859" y2="158.539" gradientUnits="userSpaceOnUse">
<stop stop-color="#DAE3FE"/>
<stop offset="1" stop-color="#E9EFFD"/>
</linearGradient>
<linearGradient id="paint120_linear_10588_4839" x1="434.229" y1="155.011" x2="436.512" y2="155.011" gradientUnits="userSpaceOnUse">
<stop stop-color="#DAE3FE"/>
<stop offset="1" stop-color="#E9EFFD"/>
</linearGradient>
<linearGradient id="paint121_linear_10588_4839" x1="438.93" y1="151.432" x2="441.128" y2="151.432" gradientUnits="userSpaceOnUse">
<stop stop-color="#DAE3FE"/>
<stop offset="1" stop-color="#E9EFFD"/>
</linearGradient>
<linearGradient id="paint122_linear_10588_4839" x1="443.594" y1="147.806" x2="445.706" y2="147.806" gradientUnits="userSpaceOnUse">
<stop stop-color="#DAE3FE"/>
<stop offset="1" stop-color="#E9EFFD"/>
</linearGradient>
<linearGradient id="paint123_linear_10588_4839" x1="448.221" y1="144.135" x2="450.25" y2="144.135" gradientUnits="userSpaceOnUse">
<stop stop-color="#DAE3FE"/>
<stop offset="1" stop-color="#E9EFFD"/>
</linearGradient>
<linearGradient id="paint124_linear_10588_4839" x1="452.817" y1="140.423" x2="454.761" y2="140.423" gradientUnits="userSpaceOnUse">
<stop stop-color="#DAE3FE"/>
<stop offset="1" stop-color="#E9EFFD"/>
</linearGradient>
<linearGradient id="paint125_linear_10588_4839" x1="457.384" y1="136.676" x2="459.245" y2="136.676" gradientUnits="userSpaceOnUse">
<stop stop-color="#DAE3FE"/>
<stop offset="1" stop-color="#E9EFFD"/>
</linearGradient>
<linearGradient id="paint126_linear_10588_4839" x1="461.921" y1="132.894" x2="463.699" y2="132.894" gradientUnits="userSpaceOnUse">
<stop stop-color="#DAE3FE"/>
<stop offset="1" stop-color="#E9EFFD"/>
</linearGradient>
<linearGradient id="paint127_linear_10588_4839" x1="466.431" y1="129.085" x2="468.128" y2="129.085" gradientUnits="userSpaceOnUse">
<stop stop-color="#DAE3FE"/>
<stop offset="1" stop-color="#E9EFFD"/>
</linearGradient>
<linearGradient id="paint128_linear_10588_4839" x1="470.915" y1="125.245" x2="472.532" y2="125.245" gradientUnits="userSpaceOnUse">
<stop stop-color="#DAE3FE"/>
<stop offset="1" stop-color="#E9EFFD"/>
</linearGradient>
<linearGradient id="paint129_linear_10588_4839" x1="475.381" y1="121.38" x2="476.918" y2="121.38" gradientUnits="userSpaceOnUse">
<stop stop-color="#DAE3FE"/>
<stop offset="1" stop-color="#E9EFFD"/>
</linearGradient>
</defs>
</svg>
