<svg width="560" height="354" viewBox="0 0 560 354" fill="none" xmlns="http://www.w3.org/2000/svg">
<g clip-path="url(#clip0_10588_4841)">
<rect width="560" height="354" fill="#F6F5F5"/>
<g clip-path="url(#clip1_10588_4841)">
<path d="M506.019 181.151C483.5 164.926 456.514 157.076 431.671 145.323C407.777 134.021 390.776 115.86 369.398 100.897C334.468 76.4457 294.094 58.1108 253.005 46.9216C211.456 35.6078 160.704 29.3403 122.831 54.4206C104.204 66.7554 89.0429 85.8868 82.8672 107.491C75.5174 133.198 82.71 159.465 86.2348 185.156C89.1 206.031 75.6971 217.547 59.9068 229.41C22.9328 257.184 23.96 307.443 46.8061 343.465H522.661C550.919 292.273 563.343 222.455 506.019 181.153V181.151Z" fill="white"/>
<path d="M49.1814 201.402C58.9229 201.402 66.8199 193.505 66.8199 183.763C66.8199 174.022 58.9229 166.125 49.1814 166.125C39.44 166.125 31.543 174.022 31.543 183.763C31.543 193.505 39.44 201.402 49.1814 201.402Z" fill="white"/>
<path d="M466.823 122.299C481.221 122.299 492.893 110.627 492.893 96.2284C492.893 81.83 481.221 70.1577 466.823 70.1577C452.424 70.1577 440.752 81.83 440.752 96.2284C440.752 110.627 452.424 122.299 466.823 122.299Z" fill="white"/>
<path d="M60.0699 138.494C60.7442 134.232 57.8357 130.23 53.5734 129.556C49.3112 128.882 45.3093 131.79 44.635 136.053C43.9607 140.315 46.8693 144.317 51.1315 144.991C55.3938 145.665 59.3956 142.757 60.0699 138.494Z" fill="white"/>
<path d="M490.013 148.823C494 147.171 495.893 142.601 494.242 138.614C492.591 134.627 488.02 132.734 484.033 134.385C480.046 136.037 478.153 140.607 479.805 144.594C481.456 148.581 486.027 150.474 490.013 148.823Z" fill="white"/>
<path d="M30.9518 342.252C8.32217 322.945 8.11386 289.165 17.9471 264.25C28.8953 236.509 54.5555 213.675 88.3518 201.602C89.1728 201.31 89.9938 201.022 90.8147 200.736L91.119 201.614C90.3001 201.898 89.4812 202.188 88.6623 202.478C55.1191 214.462 29.657 237.101 18.8089 264.593C9.0982 289.2 9.27179 322.537 31.5542 341.548L30.9518 342.254V342.252Z" fill="#DADADA"/>
<path d="M507.24 343.332L506.415 342.908C523.126 310.42 533.027 277.659 535.043 248.166C537.03 219.089 531.26 195.106 518.362 178.809C506.656 164.021 483.363 148.713 438.865 159.767L438.643 158.867C483.616 147.694 507.214 163.231 519.089 178.233C532.134 194.711 537.971 218.918 535.968 248.229C533.944 277.849 524.011 310.735 507.24 343.332Z" fill="#DADADA"/>
<path d="M135.188 83.624L134.289 83.3933C134.352 83.1502 135.878 77.332 140.979 69.6391C145.678 62.5526 154.427 52.5193 169.423 44.9632C186.596 36.3083 208.211 32.6365 233.664 34.0476C265.519 35.8162 303.504 45.5963 346.563 63.1204L346.214 63.9801C303.248 46.4948 265.363 36.7372 233.613 34.9748C208.319 33.5698 186.865 37.211 169.84 45.7923C155.026 53.2586 146.389 63.1592 141.751 70.1537C136.736 77.716 135.202 83.5669 135.188 83.6261V83.624Z" fill="#DADADA"/>
<path d="M125.091 84.3062H457.03C460.29 84.3062 462.934 86.9508 462.934 90.2101V323.768C462.934 327.028 460.29 329.672 457.03 329.672H125.091C121.832 329.672 119.188 327.028 119.188 323.768V90.2101C119.188 86.9508 121.832 84.3062 125.091 84.3062Z" fill="#D3DFFF"/>
<path d="M452.49 103.827H129.627V299.554H452.49V103.827Z" fill="white"/>
<path d="M452.955 300.017H129.162V103.362H452.953V300.017H452.955ZM130.091 299.09H452.026V104.291H130.091V299.09Z" fill="#86A7FF"/>
<path d="M452.49 91.656H129.627V103.828H452.49V91.656Z" fill="white"/>
<path d="M452.955 104.291H129.162V91.1924H452.953V104.291H452.955ZM130.091 103.362H452.026V92.1195H130.091V103.362Z" fill="#86A7FF"/>
<path d="M144.806 100.554C143.256 100.554 141.994 99.2918 141.994 97.7418C141.994 96.1918 143.256 94.9297 144.806 94.9297C146.356 94.9297 147.618 96.1918 147.618 97.7418C147.618 99.2918 146.356 100.554 144.806 100.554ZM144.806 95.8589C143.769 95.8589 142.923 96.7044 142.923 97.7418C142.923 98.7792 143.769 99.6247 144.806 99.6247C145.844 99.6247 146.689 98.7792 146.689 97.7418C146.689 96.7044 145.844 95.8589 144.806 95.8589Z" fill="#86A7FF"/>
<path d="M154.197 100.554C152.647 100.554 151.385 99.2918 151.385 97.7418C151.385 96.1918 152.647 94.9297 154.197 94.9297C155.747 94.9297 157.009 96.1918 157.009 97.7418C157.009 99.2918 155.747 100.554 154.197 100.554ZM154.197 95.8589C153.159 95.8589 152.314 96.7044 152.314 97.7418C152.314 98.7792 153.159 99.6247 154.197 99.6247C155.234 99.6247 156.08 98.7792 156.08 97.7418C156.08 96.7044 155.234 95.8589 154.197 95.8589Z" fill="#86A7FF"/>
<path d="M163.587 100.554C162.037 100.554 160.775 99.2918 160.775 97.7418C160.775 96.1918 162.037 94.9297 163.587 94.9297C165.138 94.9297 166.4 96.1918 166.4 97.7418C166.4 99.2918 165.138 100.554 163.587 100.554ZM163.587 95.8589C162.55 95.8589 161.705 96.7044 161.705 97.7418C161.705 98.7792 162.55 99.6247 163.587 99.6247C164.625 99.6247 165.47 98.7792 165.47 97.7418C165.47 96.7044 164.625 95.8589 163.587 95.8589Z" fill="#86A7FF"/>
<path d="M479.882 325.988H102.24V343.502H479.882V325.988Z" fill="#D3DFFF"/>
<path d="M480.404 344.023H101.719V325.467H480.404V344.023ZM102.76 342.979H479.36V326.509H102.76V342.979Z" fill="#86A7FF"/>
<path d="M307.687 307.872H274.434C272.351 307.872 270.662 309.56 270.662 311.644V313.898C270.662 315.981 272.351 317.67 274.434 317.67H307.687C309.77 317.67 311.459 315.981 311.459 313.898V311.644C311.459 309.56 309.77 307.872 307.687 307.872Z" fill="white"/>
<path d="M307.173 318.134H274.949C272.329 318.134 270.199 316.002 270.199 313.384V312.16C270.199 309.54 272.331 307.41 274.949 307.41H307.173C309.793 307.41 311.923 309.542 311.923 312.16V313.384C311.923 316.004 309.791 318.134 307.173 318.134ZM274.949 308.335C272.842 308.335 271.126 310.051 271.126 312.158V313.382C271.126 315.489 272.842 317.205 274.949 317.205H307.173C309.281 317.205 310.996 315.489 310.996 313.382V312.158C310.996 310.051 309.281 308.335 307.173 308.335H274.949Z" fill="#86A7FF"/>
<path d="M406.724 190.123H175.398C167.039 190.123 160.236 183.322 160.236 174.961V173.949C160.236 165.59 167.037 158.787 175.398 158.787H406.722C415.082 158.787 421.883 165.588 421.883 173.949V174.961C421.883 183.32 415.082 190.123 406.722 190.123H406.724ZM175.398 159.714C167.549 159.714 161.166 166.098 161.166 173.946V174.959C161.166 182.808 167.549 189.191 175.398 189.191H406.722C414.57 189.191 420.954 182.808 420.954 174.959V173.946C420.954 166.098 414.57 159.714 406.722 159.714H175.398Z" fill="#86A7FF"/>
<path d="M174.887 168.79H202.859C205.434 168.79 207.526 170.881 207.526 173.456V175.452C207.526 178.027 205.434 180.118 202.859 180.118H174.887C172.312 180.118 170.221 178.027 170.221 175.452V173.456C170.221 170.881 172.312 168.79 174.887 168.79Z" fill="#D3DFFF"/>
<path d="M248.181 168.79H223.728C221.117 168.79 219 170.907 219 173.518V175.39C219 178.001 221.117 180.118 223.728 180.118H248.181C250.792 180.118 252.909 178.001 252.909 175.39V173.518C252.909 170.907 250.792 168.79 248.181 168.79Z" fill="#D3DFFF"/>
<path d="M300.291 168.79H267.346C264.593 168.79 262.361 171.022 262.361 173.775V175.133C262.361 177.886 264.593 180.118 267.346 180.118H300.291C303.044 180.118 305.276 177.886 305.276 175.133V173.775C305.276 171.022 303.044 168.79 300.291 168.79Z" fill="#D3DFFF"/>
<path d="M372.595 168.729H323.639C320.886 168.729 318.654 170.96 318.654 173.714V175.072C318.654 177.825 320.886 180.057 323.639 180.057H372.595C375.348 180.057 377.58 177.825 377.58 175.072V173.714C377.58 170.96 375.348 168.729 372.595 168.729Z" fill="#D3DFFF"/>
<path d="M330.049 135.261H252.074V143.426H330.049V135.261Z" fill="#86A7FF"/>
<path d="M278.759 239.826H264.943V266.28H278.759V239.826Z" fill="#ADC3FF"/>
<path d="M307.255 224.089H293.439V266.28H307.255V224.089Z" fill="#D3DFFF"/>
<path d="M335.751 214.823H321.936V266.28H335.751V214.823Z" fill="#ADC3FF"/>
<path d="M364.247 237.214H350.432V266.28H364.247V237.214Z" fill="#D3DFFF"/>
<path d="M392.745 220.423H378.93V266.28H392.745V220.423Z" fill="#ADC3FF"/>
<path d="M421.239 203.003H407.424V266.28H421.239V203.003Z" fill="#D3DFFF"/>
<path d="M234.565 201.396H156.59V206.374H234.565V201.396Z" fill="#E5ECFF"/>
<path d="M234.565 215.372H156.59V266.28H234.565V215.372Z" fill="#E5ECFF"/>
<path d="M199.111 234.295C196.174 233.135 193.154 234.046 190.999 236.154C189.035 238.074 188.759 240.788 187.834 243.21C189.743 243.73 191.461 244.862 193.542 244.537C196.246 244.116 196.317 241.594 197.849 239.875C199.162 238.402 200.735 237.453 202.613 237.201C201.807 236.013 200.822 234.971 199.111 234.297V234.295Z" fill="#86A7FF"/>
<path d="M221.193 231.655C218.534 232.233 215.74 233.178 213.843 235.116C212.211 236.783 212.27 239.685 211.086 241.437C212.424 242.327 213.931 242.744 215.397 241.952C216.833 241.176 217.705 239.43 219.253 238.67C220.496 238.057 222.285 237.671 223.637 237.428C223.95 237.373 224.268 237.336 224.585 237.293V231.106C223.449 231.234 222.318 231.41 221.195 231.655H221.193Z" fill="#86A7FF"/>
<path d="M223.638 237.428C222.284 237.671 220.497 238.057 219.253 238.67C217.705 239.432 216.833 241.176 215.397 241.952C213.931 242.744 212.424 242.329 211.086 241.437C210.559 241.086 210.057 240.663 209.595 240.208C207.766 238.404 207.194 237.385 204.298 237.15C203.708 237.103 203.15 237.126 202.611 237.199C200.732 237.453 199.16 238.4 197.847 239.873C196.315 241.592 196.244 244.114 193.54 244.535C191.459 244.86 189.741 243.728 187.832 243.208C187.07 242.999 186.28 242.885 185.42 243.003C183.406 243.281 182.132 244.49 180.729 245.407C179.751 246.046 178.711 246.545 177.312 246.481C174.19 246.344 170.165 244.545 166.568 244.429V258.332H224.583V237.289C224.267 237.332 223.948 237.369 223.636 237.424L223.638 237.428Z" fill="#ADC3FF"/>
<path d="M180.729 245.409C180.5 245.209 180.284 244.995 180.09 244.754C178.654 242.971 178.538 240.708 176.949 239.037C173.855 235.784 169.63 237.071 166.57 239.838V244.433C170.167 244.549 174.192 246.346 177.314 246.485C178.713 246.547 179.753 246.048 180.731 245.411L180.729 245.409Z" fill="#86A7FF"/>
<path d="M96.961 212.305L82.1367 215.211L85.5206 193.411L94.637 193.596C94.5798 193.98 94.5206 194.352 94.4859 194.736C94.1489 197.666 94.3225 200.607 94.6942 203.236C95.4376 208.398 96.961 212.305 96.961 212.305Z" fill="#F9B384"/>
<path d="M94.6943 203.236C88.9966 200.55 86.8809 194.91 86.8809 194.91L94.486 194.736C94.149 197.667 94.3226 200.607 94.6943 203.236Z" fill="#102048"/>
<path d="M97.8306 181.006C98.4126 183.04 101.707 195.929 95.6985 197.381C89.6903 198.835 83.4902 193.31 83.4902 193.31L85.5243 180.908L94.2445 178.292L97.8285 181.004L97.8306 181.006Z" fill="#F9B384"/>
<path d="M89.8718 188.017C89.8718 188.017 91.4341 177.71 97.8282 181.004C97.5995 180.886 97.2686 179.859 97.1257 179.624C96.4803 178.566 95.6512 177.606 94.6485 176.873C91.0093 174.206 84.8725 175.176 81.9379 178.243C79.0481 181.264 78.9583 186.63 80.447 190.533C80.688 191.164 80.9923 191.771 81.3579 192.338C81.6907 192.855 82.0828 193.284 82.526 193.709C82.9059 194.074 85.7588 196.321 85.7894 194.593C85.863 190.378 89.8718 188.017 89.8718 188.017Z" fill="#EB5D60"/>
<path d="M91.278 190.379C92.3658 189.489 92.3545 187.676 91.2527 186.329C90.1509 184.982 88.3758 184.611 87.288 185.501C86.2002 186.39 86.2116 188.204 87.3134 189.551C88.4152 190.898 90.1902 191.269 91.278 190.379Z" fill="#F9B384"/>
<path d="M99.0395 189.798C99.7873 189.798 100.393 189.14 100.393 188.328C100.393 187.515 99.7873 186.857 99.0395 186.857C98.2917 186.857 97.6855 187.515 97.6855 188.328C97.6855 189.14 98.2917 189.798 99.0395 189.798Z" fill="#F9B384"/>
<path d="M79.6149 296.405L61.9805 303.963C61.9805 303.963 76.5148 340.976 80.7769 343.302C85.041 345.628 82.9089 325.085 85.815 318.885L89.4971 304.351L79.6149 296.405Z" fill="#102048"/>
<path d="M78.2286 317.441L78.0996 319.295L85.7537 319.828L85.8826 317.974L78.2286 317.441Z" fill="white"/>
<path d="M75.1562 293.693L85.8145 318.885C85.8145 318.885 127.285 297.181 137.556 277.414L121.277 256.098L75.1562 293.693Z" fill="#7D69ED"/>
<path d="M130.773 314.039C130.773 314.039 150.152 314.815 159.066 299.505L139.3 296.599L130.773 314.039Z" fill="#102048"/>
<path d="M161.086 316.686L139.224 324.409L137.46 318.171L134.258 306.873L152.48 298.249L153.761 300.998L161.086 316.686Z" fill="#F9B384"/>
<path d="M188.715 343.496L164.783 324.601L161.088 316.688L139.227 324.405L144.63 343.496H188.715Z" fill="#102048"/>
<path d="M164.051 324.04L159.109 330.339L160.57 331.484L165.512 325.186L164.051 324.04Z" fill="white"/>
<path d="M153.761 300.998L137.46 318.171L134.258 306.873L152.48 298.249L153.761 300.998Z" fill="#E28B6D"/>
<path d="M159.07 299.503C148.765 302.103 139.344 306.957 130.775 314.039L116.043 275.282C116.043 275.282 86.3185 303.614 68.5697 298.927C51.7032 294.471 59.0633 266.558 59.0633 266.558C82.2239 250.341 119.067 228.563 135.211 245.811C135.294 245.885 135.36 245.95 135.425 246.026C138.729 249.655 142.463 256.831 145.971 264.777C152.97 280.604 159.07 299.505 159.07 299.505V299.503Z" fill="#7D69ED"/>
<path d="M145.972 264.775C129.912 268.553 113.389 250.713 113.389 250.713L129.986 245.264L135.212 245.811C135.295 245.885 135.361 245.95 135.426 246.026C138.73 249.655 142.463 256.831 145.972 264.777V264.775Z" fill="#5B4DAD"/>
<path d="M130.341 314.205L115.858 276.105C112.717 279.089 95.6282 294.726 77.6119 299.474L77.375 298.578C96.9862 293.409 115.529 275.139 115.715 274.954L116.222 274.449L131.207 313.874L130.339 314.205H130.341Z" fill="#5B4DAD"/>
<path d="M82.9494 204.214L76.443 225.248L67.6901 253.543C67.6901 253.543 61.3042 255.836 55.6697 255.122C50.6949 254.491 46.3042 251.501 47.4907 242.468C50.1088 222.557 82.9515 204.214 82.9515 204.214H82.9494Z" fill="#FBC343"/>
<path d="M76.4412 225.249L67.6884 253.543C67.6884 253.543 61.3024 255.837 55.668 255.122C60.3936 226.076 76.0246 213.702 76.0246 213.702L76.4433 225.251L76.4412 225.249Z" fill="#E49B31"/>
<path d="M146.61 225.036L141.764 243.489L125.408 228.061L131.896 217.182L140.67 221.86L146.61 225.036Z" fill="#FBC343"/>
<path d="M131.934 217.2L138.142 207.279L150.683 201.935L146.574 225.073L131.934 217.2Z" fill="#F9B384"/>
<path d="M192.869 198.216C189.572 197.428 186.603 197.556 183.92 198.541C182.147 199.19 180.495 200.221 178.971 201.614L172.91 187.56C175.018 187.188 176.939 186.557 178.675 185.638C181.191 184.31 183.289 182.389 184.922 179.781L192.869 198.216Z" fill="#1F3C88"/>
<path d="M178.987 201.602L172.93 187.552L83.6875 229.915L86.9121 237.395L178.987 201.602L172.93 187.552L178.987 201.602Z" fill="#1F3C88"/>
<path d="M192.867 198.216C189.571 197.428 186.602 197.556 183.918 198.541L178.674 185.638C181.19 184.31 183.287 182.389 184.921 179.781L192.867 198.216Z" fill="#102048"/>
<path d="M262.372 205.571C280.991 186.952 280.991 156.766 262.372 138.148C243.754 119.53 213.568 119.53 194.95 138.148C176.331 156.766 176.331 186.952 194.95 205.571C213.568 224.189 243.754 224.189 262.372 205.571Z" fill="#1F3C88"/>
<path d="M256.746 199.945C272.257 184.433 272.257 159.285 256.746 143.774C241.235 128.263 216.087 128.263 200.576 143.774C185.064 159.285 185.064 184.433 200.576 199.945C216.087 215.456 241.235 215.456 256.746 199.945Z" fill="white"/>
<path d="M192.455 155.538H264.861C264.704 155.191 264.549 154.842 264.383 154.501H192.951C192.784 154.846 192.614 155.189 192.457 155.538H192.455Z" fill="#86A7FF"/>
<path d="M264.741 188.46H192.594C192.753 188.808 192.908 189.157 193.076 189.498H264.24C264.41 189.155 264.581 188.81 264.741 188.46Z" fill="#86A7FF"/>
<path d="M199 172.403V171.596C199 168.339 196.334 165.673 193.077 165.673H189.434C188.776 169.811 188.766 174.079 189.471 178.327H193.077C196.334 178.327 199 175.662 199 172.405V172.403Z" fill="#D3DFFF"/>
<path d="M243.687 165.671H217.818C214.504 165.671 211.816 168.359 211.816 171.673V172.323C211.816 175.638 214.504 178.325 217.818 178.325H243.687C247.002 178.325 249.689 175.638 249.689 172.323V171.673C249.689 168.359 247.002 165.671 243.687 165.671Z" fill="#D3DFFF"/>
<path d="M267.902 165.671H266.569C263.089 165.671 260.242 168.518 260.242 171.998C260.242 175.478 263.089 178.325 266.569 178.325H267.843C268.529 174.191 268.576 169.923 267.902 165.671Z" fill="#D3DFFF"/>
<path d="M146.611 225.036L140.67 221.86L144.291 213.998C144.291 213.998 149.331 204.892 151.847 205.282C154.363 205.662 146.611 225.036 146.611 225.036Z" fill="#F9B384"/>
<path d="M125.413 228.061L124.18 230.131C121.727 226.76 116.319 219.573 109.519 213.865C103.402 208.737 95.105 200.763 87.8613 201.867C68.4666 204.808 59.0684 266.56 59.0684 266.56L109.251 248.395L120.494 257.154C122.938 259.059 126.014 259.97 129.101 259.702C134.289 259.255 138.632 255.587 139.941 250.547L141.771 243.496L125.415 228.063L125.413 228.061Z" fill="#FBC343"/>
<path d="M95.9392 235.99L95.3242 236.683L108.939 248.75L109.554 248.056L95.9392 235.99Z" fill="#E49B31"/>
<path d="M123.204 228.203L122.447 228.738L130.648 240.342L131.405 239.807L123.204 228.203Z" fill="#E49B31"/>
<path d="M379.548 108.214C379.548 108.214 377.202 115.562 371.281 118.827C365.361 122.093 357.503 125.563 360.158 126.686C362.81 127.809 369.905 127.094 369.905 127.094C369.905 127.094 356.177 137.708 360.056 138.831C363.934 139.954 373.324 132.3 373.324 132.3C373.324 132.3 372.047 135.157 373.987 135.769C375.927 136.382 379.652 135.667 379.652 135.667C379.652 135.667 379.142 137.71 383.02 137.199C386.898 136.688 397.003 124.441 397.003 124.441L397.718 113.215L379.55 108.214H379.548Z" fill="#E28B6D"/>
<path d="M367.609 45.1408C367.609 45.1408 382.918 41.1606 405.882 55.552C426.547 68.5015 427.928 81.2714 418.129 97.1924C408.331 113.113 397.003 124.443 397.003 124.443L379.55 108.216L394.859 84.3347L367.607 45.1429L367.609 45.1408Z" fill="#3A6BEA"/>
<path d="M362.198 47.5894C362.198 47.5894 340.561 59.2238 329.539 84.3305H405.064L384.243 51.2633L362.198 47.5894Z" fill="#3A6BEA"/>
<path d="M340.893 84.2305C340.893 84.2305 348.318 85.5314 350.92 84.2305C353.522 82.9297 345.255 79.1781 338.138 77.4178C331.019 75.6574 322.676 72.5185 315.786 82.317C308.898 92.1155 309.586 92.8037 311.806 92.6505C314.025 92.4974 319.307 85.9154 319.307 85.9154C319.307 85.9154 313.642 93.0345 316.321 93.8003C319 94.5661 325.429 84.8452 325.429 84.8452C325.429 84.8452 319.917 92.7302 322.75 93.6471C325.582 94.5661 331.705 84.9208 331.705 84.9208C331.705 84.9208 325.505 94.6417 329.256 94.4129C331.697 94.2639 334.494 89.9977 336.151 87.0365C337.115 85.3129 338.918 84.2326 340.893 84.2326V84.2305Z" fill="#E28B6D"/>
<path d="M367.482 58.2783C364.541 58.2783 362.219 57.0162 362.174 56.9917L362.627 56.1809C362.934 56.3504 370.202 60.2776 374.891 52.9706L375.673 53.4709C373.234 57.2694 370.11 58.2762 367.482 58.2762V58.2783Z" fill="#102048"/>
<path d="M379.936 108.467L379.158 107.961L398.902 77.6261L391.33 65.8119L392.112 65.3096L400.009 77.6301L379.936 108.467Z" fill="#102048"/>
<path d="M371.934 48.5553C370.688 52.9951 364.747 53.9284 362.011 50.2177L361.282 49.2354L356.568 42.8494L361.425 36.535L361.89 35.9264L362.995 36.7474L363.796 37.3457L372.279 43.6908C372.451 45.6575 372.299 47.2586 371.934 48.5574V48.5553Z" fill="#E28B6D"/>
<path d="M361.282 49.2355L356.568 42.8495L361.425 36.535L362.995 36.7474L363.745 36.8495C363.745 36.8495 363.765 37.0211 363.796 37.3458C363.918 38.9877 364.08 44.422 361.282 49.2355Z" fill="#102048"/>
<path d="M343.137 32.7957C343.137 32.7957 353.65 51.6758 361.214 43.7766C366.959 37.7787 362.903 29.5016 362.903 29.5016L357.328 24.0959L344.911 27.8127L343.137 32.7957Z" fill="#E28B6D"/>
<path d="M359.354 33.7249C359.354 33.7249 355.807 28.0864 351.941 30.7474C348.077 33.4084 343.535 40.5663 338.236 36.4288C334.548 33.5472 337.053 25.3621 341.932 26.0605C341.932 26.0605 347.317 15.7331 356.567 18.4574C365.816 21.1817 362.268 26.6936 367.211 27.5166C372.153 28.3396 388.153 29.4894 385.494 46.4049C385.494 46.4049 378.649 44.5772 372.933 45.2164C365.789 46.0149 360.959 34.2334 360.959 34.2334C360.496 34.36 359.354 33.727 359.354 33.727V33.7249Z" fill="#FBC343"/>
<path d="M360.243 36.8924C361.782 36.8924 363.03 35.2758 363.03 33.2817C363.03 31.2877 361.782 29.6711 360.243 29.6711C358.703 29.6711 357.455 31.2877 357.455 33.2817C357.455 35.2758 358.703 36.8924 360.243 36.8924Z" fill="#E28B6D"/>
<path d="M468.69 292.606H430.398V314.885H468.69V292.606Z" fill="#1F3C88"/>
<path d="M473.146 343.422L493.549 353.67L486.608 327.134L477.634 325.41L468.238 328.768L473.146 343.422Z" fill="#102048"/>
<path d="M477.64 325.41L473.147 343.418C473.147 343.418 453.773 340.866 434.79 336.65C426.038 334.721 417.366 332.427 410.719 329.864C407.219 328.518 404.276 327.097 402.179 325.623C387.428 315.226 392.691 291.285 417.71 295.38C427.402 296.966 437.854 301.284 447.285 306.175C451.583 308.393 455.658 310.741 459.352 312.998C470.139 319.569 477.64 325.408 477.64 325.408V325.41Z" fill="#3A6BEA"/>
<path opacity="0.3" d="M459.352 313L434.788 336.652C426.035 334.723 417.364 332.429 410.717 329.866L447.282 306.177C451.581 308.395 455.655 310.743 459.35 313H459.352Z" fill="#102048"/>
<path d="M408.839 328.665L384.141 343.006L420.488 342.855L422.822 329.074L408.839 328.665Z" fill="#102048"/>
<path d="M430.477 325.502L422.823 329.074L420.488 342.855L420.985 342.853L436.191 343.057L441.498 336.422L430.477 325.502Z" fill="#F9B384"/>
<path d="M430.477 325.502C430.477 325.502 459.462 297.13 484.568 290.393C507.845 284.148 514.779 307.539 501.715 319.173C488.651 330.808 436.191 343.055 436.191 343.055L430.475 325.5L430.477 325.502Z" fill="#3A6BEA"/>
<path d="M436.305 343.506L436.078 342.608C454.08 338.062 472.578 333.126 485.924 327.838L486.267 328.702C472.87 334.01 454.337 338.956 436.305 343.508V343.506Z" fill="#102048"/>
<path d="M447.99 213.894C445.382 214.106 442.923 214.748 440.752 216.291C438.941 217.58 437.552 219.365 436.66 221.397C435.277 224.548 435.598 228.067 434.536 231.293C433.515 234.402 431.015 236.005 428.685 238.082C426.443 240.081 424.829 243.389 425.63 246.426C425.853 247.27 426.261 248.05 426.804 248.73C427.221 249.251 428.491 250.752 429.208 250.756L468.631 250.929C468.631 250.929 475.958 244.067 467.526 236.044C465.185 233.816 462.565 231.528 461.375 228.4C460.639 226.468 460.27 224.43 459.716 222.447C459.01 219.916 457.454 217.335 455.354 215.73C453.241 214.112 450.59 213.677 447.988 213.89L447.99 213.894Z" fill="#102048"/>
<path d="M444.675 216.277C444.675 216.277 438.105 211.276 444.618 209.009C449.599 207.275 454.269 209.242 451.306 215.695L444.677 216.277H444.675Z" fill="#102048"/>
<path d="M446.399 241.353C446.399 241.353 409.351 247.631 402.001 273.195C394.653 298.761 439.371 300.418 439.371 300.418C439.371 300.418 483.291 298.915 491.1 291.871C498.908 284.83 502.888 249.159 450.685 241.658L446.399 241.351V241.353Z" fill="#EB5D60"/>
<path d="M448.786 255.334C448.545 255.334 448.306 255.324 448.068 255.306C445.405 255.089 443.297 253.713 442.131 251.429L442.958 251.007C443.971 252.992 445.813 254.191 448.143 254.378C450.996 254.619 454.074 253.292 455.632 251.174L456.379 251.724C454.772 253.909 451.731 255.332 448.786 255.332V255.334Z" fill="#AB4446"/>
<path d="M415.139 270.881L414.555 271.604L433.932 287.267L434.517 286.545L415.139 270.881Z" fill="#AB4446"/>
<path d="M481.609 271.287L463.945 286.577L464.552 287.278L482.216 271.988L481.609 271.287Z" fill="#AB4446"/>
<path d="M467.72 270.542H429.157C427.861 270.542 426.811 271.593 426.811 272.889V299.783C426.811 301.079 427.861 302.129 429.157 302.129H467.72C469.016 302.129 470.066 301.079 470.066 299.783V272.889C470.066 271.593 469.016 270.542 467.72 270.542Z" fill="white"/>
<path d="M444.364 233.434L443.357 243.026C443.163 244.866 443.892 246.679 445.293 247.841C447.207 249.43 449.933 249.447 451.865 247.884L451.953 247.813C453.421 246.624 454.17 244.723 453.923 242.818L452.678 233.266L444.364 233.436V233.434Z" fill="#F9B384"/>
<path d="M444.184 235.409C447.12 241.165 450.435 241.282 452.963 235.554L447.759 234.886L444.184 235.409Z" fill="#102048"/>
<path d="M448.648 237.502C452.526 237.502 455.669 233.388 455.669 228.314C455.669 223.24 452.526 219.126 448.648 219.126C444.77 219.126 441.627 223.24 441.627 228.314C441.627 233.388 444.77 237.502 448.648 237.502Z" fill="#F9B384"/>
<path d="M456.829 226.803C456.829 226.803 449.794 226.686 447.468 220.988C447.468 220.988 443.688 222.326 442.699 227.211L440.024 228.142L439.967 220.468L445.897 216.688L451.189 216.804L455.841 220.701L456.829 226.807V226.803Z" fill="#102048"/>
<path d="M443.686 227.575C444.47 229.086 444.064 230.85 442.781 231.514C441.499 232.18 439.824 231.494 439.04 229.982C438.256 228.471 438.662 226.707 439.945 226.043C441.227 225.377 442.902 226.063 443.686 227.575Z" fill="#F9B384"/>
<path d="M453.866 227.575C453.082 229.086 453.488 230.85 454.771 231.514C456.053 232.18 457.728 231.494 458.512 229.982C459.296 228.471 458.89 226.707 457.608 226.043C456.325 225.377 454.65 226.063 453.866 227.575Z" fill="#F9B384"/>
</g>
</g>
<defs>
<clipPath id="clip0_10588_4841">
<rect width="560" height="354" fill="white"/>
</clipPath>
<clipPath id="clip1_10588_4841">
<rect width="559.758" height="335.67" fill="white" transform="translate(0.601562 18)"/>
</clipPath>
</defs>
</svg>
