<svg width="560" height="354" viewBox="0 0 560 354" fill="none" xmlns="http://www.w3.org/2000/svg">
<rect width="560" height="354" fill="#FFF2FC"/>
<path d="M99.9048 352.493C99.9048 352.493 21.1723 336.924 17.1606 281.908C12.5406 218.59 76.081 217.89 66.3328 171.99C52.7269 107.926 77.0897 60.5788 136.703 63.2122C186.969 65.4298 231.606 113.986 258.502 80.1445C287.5 43.6465 341.754 16.6811 395.439 39.2883C449.123 61.8955 441.215 135.346 478.337 150.954C582.133 189.9 569.281 349.875 448.183 353.063C421.441 353.641 119.825 352.532 99.9048 352.486V352.493Z" fill="#EBD6E6"/>
<path d="M491.303 139.881C491.303 139.881 476.75 111.83 501.59 98.3319C528.324 83.7943 548.822 110.798 542.508 133.036C536.194 155.273 499.049 154.288 491.303 139.881Z" fill="#EBD6E6"/>
<path d="M31.5119 160.586C6.96431 138.865 55.8747 116.804 54.8891 147.866C53.3337 154.603 44.625 169.387 31.5119 160.586Z" fill="#EBD6E6"/>
<path d="M440.613 352.724C434.145 353.179 408.019 353.595 412.647 331.472C417.19 314.417 392.473 314.956 399.849 298.478C401.628 292.241 393.62 294.374 392.072 284.98C390.525 275.594 396.384 267.74 406.518 267.786C416.651 267.832 414.379 278.35 417.683 282.231C420.986 286.112 426.099 282.539 429.479 291.794C433.067 304.815 427.03 306.401 438.049 312.838" stroke="#D4A5CF" stroke-width="0.77" stroke-miterlimit="10"/>
<path d="M429.735 327.561C424.73 317.374 419.425 307.325 413.865 297.431C411.979 294.074 410.061 290.739 408.113 287.421C407.736 286.782 406.743 287.359 407.112 288.006C413.357 298.663 419.301 309.497 424.915 320.5C426.208 323.041 427.479 325.582 428.742 328.138C429.073 328.808 430.066 328.223 429.743 327.553L429.735 327.561Z" fill="#D4A5CF"/>
<path d="M403.862 306.355C408.166 306.802 412.471 307.248 416.775 307.695C417.391 307.757 418.015 307.826 418.631 307.887C419.37 307.964 419.362 306.809 418.631 306.732C414.326 306.286 410.022 305.839 405.718 305.393C405.102 305.331 404.478 305.262 403.862 305.2C403.123 305.123 403.131 306.278 403.862 306.355Z" fill="#D4A5CF"/>
<path d="M409.031 298.878C409.077 301.389 404.519 301.389 404.565 298.878C404.519 296.368 409.077 296.368 409.031 298.878Z" stroke="#D4A5CF" stroke-width="0.77" stroke-miterlimit="10"/>
<path d="M414.004 281.469C412.595 284.002 408.645 281.723 410.139 279.236C411.548 276.702 415.49 278.981 414.004 281.469Z" stroke="#D4A5CF" stroke-width="0.77" stroke-miterlimit="10"/>
<path d="M422.997 332.165C423.051 335.292 417.369 335.292 417.43 332.165C417.376 329.039 423.059 329.039 422.997 332.165Z" stroke="#D4A5CF" stroke-width="0.77" stroke-miterlimit="10"/>
<path d="M410.016 275.755C410.031 277.041 408.014 277.041 408.029 275.755C408.014 274.469 410.031 274.469 410.016 275.755Z" stroke="#D4A5CF" stroke-width="0.77" stroke-miterlimit="10"/>
<path d="M478.676 350.576C473.317 346.757 472.793 322.533 494.746 317.628C505.957 315.125 504.163 309.512 506.427 302.289C508.691 295.067 511.532 294.536 517.954 293.558C524.376 292.58 519.555 283.833 527.171 278.766C534.786 273.699 545.012 273.314 548.823 284.387C552.049 293.766 542.91 297.893 541.046 302.251C539.183 306.609 544.604 312.5 537.997 319.068C531.39 325.644 524.314 320.692 524.229 327.653C524.145 334.614 521.049 347.304 514.335 349.914C506.034 353.14 482.896 353.587 478.668 350.576H478.676Z" stroke="#D4A5CF" stroke-width="0.77" stroke-miterlimit="10"/>
<path d="M486.139 353.333C489.103 349.798 492.176 346.357 495.148 342.83C502.524 334.06 509.731 325.135 516.769 316.088C521.874 309.52 526.895 302.882 531.807 296.16C532.246 295.56 531.245 294.982 530.806 295.575C522.544 306.879 513.982 317.959 505.181 328.847C499.698 335.63 494.116 342.345 488.418 348.951C487.394 350.137 486.331 351.308 485.323 352.509C484.845 353.079 485.661 353.895 486.139 353.325V353.333Z" fill="#D4A5CF"/>
<path d="M493.594 317.913C486.002 286.281 505.714 303.853 519.551 278.627C527.79 259.362 507.616 252.355 517.102 244.293C526.589 236.231 529.238 208.527 515.339 203.76C497.321 197.585 481.12 208.881 478.918 223.765C477.216 235.246 484.916 243.261 464.889 251.677C444.861 260.093 447.956 270.542 452.068 290.524C456.18 310.505 442.651 303.183 432.125 320.053C423.786 333.421 435.505 347.057 440.726 352.139L481.267 352.832" stroke="#D4A5CF" stroke-width="0.77" stroke-miterlimit="10"/>
<path d="M448.99 352.132C450.638 348.328 452.293 344.532 453.949 340.736C458.03 331.38 462.118 322.025 466.222 312.685C471.458 300.773 476.718 288.868 482.023 276.98C487.151 265.476 492.318 253.995 497.585 242.553C501.273 234.537 504.953 226.498 509.004 218.66C509.312 218.059 509.627 217.459 509.951 216.866C510.305 216.211 509.304 215.626 508.95 216.281C505.077 223.511 501.673 231.003 498.224 238.433C493.057 249.583 488.006 260.787 482.985 272.005C477.626 283.994 472.305 295.999 467.016 308.018C462.688 317.851 458.376 327.692 454.087 337.532C452.078 342.137 449.96 346.703 448.074 351.354C448.05 351.416 448.02 351.485 447.989 351.546C447.696 352.224 448.69 352.809 448.99 352.132Z" fill="#D4A5CF"/>
<path d="M485.926 267.724C493.857 267.285 501.788 266.846 509.719 266.407L513.107 266.223C513.847 266.184 513.854 265.029 513.107 265.068C505.176 265.506 497.245 265.945 489.314 266.384L485.926 266.569C485.187 266.608 485.18 267.763 485.926 267.724Z" fill="#D4A5CF"/>
<path d="M458.483 329.632C464.751 328.924 471.019 328.223 477.287 327.515C478.164 327.414 479.042 327.314 479.92 327.222C480.651 327.137 480.659 325.982 479.92 326.067C473.652 326.775 467.384 327.476 461.117 328.184C460.239 328.285 459.361 328.385 458.483 328.477C457.752 328.562 457.744 329.717 458.483 329.632Z" fill="#D4A5CF"/>
<path d="M455.94 261.657C457.742 265.699 459.544 269.742 461.346 273.792C464.202 280.206 467.067 286.628 469.924 293.042C470.586 294.528 471.248 296.014 471.91 297.508C472.21 298.185 473.211 297.6 472.911 296.923C471.109 292.88 469.308 288.838 467.506 284.787L458.928 265.537C458.266 264.051 457.604 262.565 456.941 261.071C456.641 260.394 455.64 260.979 455.94 261.657Z" fill="#D4A5CF"/>
<path d="M495.158 220.477C492.085 225.105 486.457 221.27 489.637 216.719C492.709 212.099 498.338 215.926 495.158 220.477Z" stroke="#D4A5CF" stroke-width="0.77" stroke-miterlimit="10"/>
<path d="M496.127 231.034C496.166 233.459 492.354 233.459 492.393 231.034C492.354 228.608 496.166 228.608 496.127 231.034Z" stroke="#D4A5CF" stroke-width="0.77" stroke-miterlimit="10"/>
<path d="M509.68 279.228C509.749 283.94 502.349 283.94 502.418 279.228C502.349 274.516 509.749 274.516 509.68 279.228Z" stroke="#D4A5CF" stroke-width="0.77" stroke-miterlimit="10"/>
<path d="M53.6938 352.085C49.3818 353.217 29.8623 356.451 30.178 340.905C30.3397 332.966 28.022 333.251 23.3712 330.14C18.7204 327.029 18.8282 325.043 19.2363 320.6C19.6444 316.157 15.2169 318.305 12.2678 312.469C8.74118 305.477 12.9916 300.264 19.8446 299.009C26.7053 297.754 26.5051 305.154 29.2309 307.356C31.9567 309.558 35.722 304.823 40.958 311.244C44.3768 315.441 39.0715 325.012 44.0996 324.127" stroke="#D4A5CF" stroke-width="0.77" stroke-miterlimit="10"/>
<path d="M44.6927 338.256C37.9937 329.201 30.9174 320.43 23.5254 311.937C23.0403 311.375 22.2241 312.199 22.7092 312.754C30.0396 321.177 37.0543 329.863 43.6917 338.841C44.1306 339.434 45.1316 338.857 44.6927 338.256Z" fill="#D4A5CF"/>
<path d="M33.3353 311.522C33.0889 315.218 32.8425 318.921 32.5961 322.617L32.4883 324.188L33.0658 323.611C29.6701 323.895 26.2744 324.173 22.8864 324.458C22.1472 324.519 22.1472 325.674 22.8864 325.613C26.2821 325.328 29.6778 325.05 33.0658 324.766C33.3969 324.735 33.6202 324.519 33.6433 324.188C33.8897 320.492 34.1361 316.788 34.3825 313.092L34.4903 311.522C34.5365 310.782 33.3815 310.782 33.3353 311.522Z" fill="#D4A5CF"/>
<path d="M23.2186 260.155C-2.66107 227.869 46.5342 204.207 57.4682 242.499C58.9928 252.37 52.0859 259.262 70.05 266.5C88.0141 273.738 85.2421 282.724 81.5461 299.902C77.8578 317.089 89.993 310.79 99.4332 325.289C106.91 336.785 96.3994 348.505 91.7178 352.878L54.9734 352.701C39.7659 344.578 43.8546 326.313 45.6487 313.377C46.9808 300.464 28.4161 306.239 21.0241 289.669C13.6321 273.099 31.7271 267.077 23.2186 260.147V260.155Z" stroke="#D4A5CF" stroke-width="0.77" stroke-miterlimit="10"/>
<path d="M85.2662 352.347C83.7878 349.075 82.3017 345.81 80.8156 342.537C77.1581 334.491 73.4852 326.452 69.8046 318.413C65.1076 308.172 60.3875 297.939 55.6366 287.721C50.8857 277.503 46.4274 268.001 41.715 258.191C38.3886 251.277 35.0776 244.331 31.4432 237.571C31.166 237.055 30.8811 236.531 30.5962 236.015C30.2343 235.369 29.2333 235.946 29.5952 236.601C33.0679 242.807 36.1248 249.259 39.2202 255.658C43.8556 265.245 48.3832 274.877 52.8877 284.525C57.7002 294.828 62.4665 305.154 67.2097 315.487C71.0828 323.919 74.9405 332.366 78.7828 340.812C80.0148 343.515 81.2391 346.218 82.4634 348.921C83.0332 350.183 83.526 351.546 84.2036 352.755C84.2344 352.809 84.2575 352.871 84.2806 352.925C84.5886 353.602 85.5819 353.017 85.2816 352.339L85.2662 352.347Z" fill="#D4A5CF"/>
<path d="M51.1787 279.228C44.0562 278.85 36.9414 278.473 29.8189 278.096C28.8102 278.042 27.8092 277.988 26.8005 277.934C26.0613 277.896 26.0613 279.051 26.8005 279.089C33.923 279.466 41.0378 279.844 48.1603 280.221C49.169 280.275 50.17 280.329 51.1787 280.383C51.9179 280.421 51.9179 279.266 51.1787 279.228Z" fill="#D4A5CF"/>
<path d="M75.7954 332.466C67.772 331.603 59.7563 330.733 51.7329 329.871C50.6164 329.748 49.4922 329.632 48.3757 329.509C47.6365 329.432 47.6442 330.587 48.3757 330.664C56.3991 331.526 64.4148 332.396 72.4382 333.259C73.5547 333.382 74.6789 333.497 75.7954 333.621C76.5346 333.698 76.5269 332.543 75.7954 332.466Z" fill="#D4A5CF"/>
<path d="M77.1343 274.546C75.5173 278.027 73.9003 281.499 72.2833 284.98C69.7192 290.493 67.1551 296.014 64.591 301.527C63.9981 302.805 63.3975 304.091 62.8046 305.369C62.4966 306.039 63.4899 306.624 63.8056 305.954C65.4226 302.474 67.0396 299.001 68.6566 295.521C71.2207 290.008 73.7848 284.487 76.3489 278.974C76.9418 277.695 77.5424 276.41 78.1353 275.131C78.4433 274.461 77.45 273.876 77.1343 274.546Z" fill="#D4A5CF"/>
<path d="M42.9071 239.673C45.5713 243.592 50.7303 240.458 47.8659 236.439C45.2017 232.52 40.0427 235.654 42.9071 239.673Z" stroke="#D4A5CF" stroke-width="0.77" stroke-miterlimit="10"/>
<path d="M42.0296 248.751C41.9988 250.838 45.4176 250.838 45.3791 248.751C45.4099 246.664 41.9911 246.664 42.0296 248.751Z" stroke="#D4A5CF" stroke-width="0.77" stroke-miterlimit="10"/>
<path d="M29.8793 290.2C29.8177 294.25 36.4551 294.25 36.3935 290.2C36.4551 286.15 29.8177 286.15 29.8793 290.2Z" stroke="#D4A5CF" stroke-width="0.77" stroke-miterlimit="10"/>
<path d="M182.971 278.45C209.174 254.788 170.966 228.154 156.537 258.915C153.911 267.023 158.785 273.769 142.661 277.411C126.545 281.053 127.654 288.999 128.416 303.976C129.178 318.952 119.815 311.991 109.89 322.918C102.028 331.58 109.274 342.884 112.623 347.211L143.601 352.07C157.522 347.296 156.567 331.365 156.814 320.223C157.453 309.165 172.298 316.557 180.784 303.614C189.269 290.67 174.847 283.132 182.963 278.45H182.971Z" stroke="#D4A5CF" stroke-width="0.77" stroke-miterlimit="10"/>
<path d="M119.021 348.243C120.708 345.694 122.402 343.146 124.096 340.605C128.246 334.368 132.404 328.138 136.577 321.909C141.937 313.909 147.319 305.916 152.724 297.947C157.937 290.27 163.165 282.608 168.471 274.993C172.221 269.611 175.963 264.197 179.959 258.985C180.252 258.6 180.552 258.215 180.852 257.837C181.307 257.26 180.498 256.436 180.036 257.021C176.279 261.764 172.829 266.762 169.356 271.713C164.143 279.159 159.007 286.658 153.895 294.174C148.428 302.22 142.991 310.282 137.571 318.359C133.143 324.958 128.731 331.565 124.327 338.171C122.918 340.289 121.501 342.414 120.092 344.532C119.445 345.509 118.667 346.48 118.113 347.519C118.09 347.565 118.059 347.604 118.028 347.65C117.62 348.274 118.613 348.851 119.029 348.235L119.021 348.243Z" fill="#D4A5CF"/>
<path d="M156.741 291.763C162.785 292.418 168.822 293.065 174.867 293.719C175.729 293.812 176.592 293.904 177.454 293.996C178.193 294.073 178.185 292.918 177.454 292.841C171.409 292.187 165.373 291.54 159.328 290.886C158.466 290.793 157.603 290.701 156.741 290.608C156.002 290.531 156.009 291.686 156.741 291.763Z" fill="#D4A5CF"/>
<path d="M128.746 333.243C135.607 333.605 142.467 333.975 149.328 334.337C150.298 334.391 151.268 334.437 152.239 334.491C152.978 334.529 152.978 333.374 152.239 333.336C145.378 332.974 138.517 332.604 131.656 332.242C130.686 332.188 129.716 332.142 128.746 332.088C128.007 332.05 128.007 333.205 128.746 333.243Z" fill="#D4A5CF"/>
<path d="M134.583 283.548C136.877 291.686 139.164 299.833 141.459 307.972C141.79 309.135 142.113 310.305 142.444 311.468C142.644 312.184 143.761 311.876 143.561 311.16C141.266 303.021 138.979 294.874 136.685 286.735C136.354 285.573 136.03 284.402 135.699 283.24C135.499 282.523 134.382 282.831 134.583 283.548Z" fill="#D4A5CF"/>
<path d="M169.188 258.515C166.408 261.456 162.496 258.114 165.453 255.111C168.233 252.17 172.145 255.512 169.188 258.515Z" stroke="#D4A5CF" stroke-width="0.77" stroke-miterlimit="10"/>
<path d="M173.27 302.851C172.769 306.27 167.179 305.369 167.779 301.966C168.28 298.547 173.87 299.448 173.27 302.851Z" stroke="#D4A5CF" stroke-width="0.77" stroke-miterlimit="10"/>
<path d="M49.5605 149.629L144.964 252.17L176.372 194.944L202.09 255.558L256.213 203.845L306.779 278.504L360.256 147.889L427.246 172.421L480.368 98.2241L505 119.23L531.419 77.9269" stroke="#D4A5CF" stroke-width="0.77" stroke-miterlimit="10" stroke-linecap="round"/>
<path d="M147.649 251.231C147.649 252.925 146.27 254.303 144.576 254.303C142.882 254.303 141.504 252.925 141.504 251.231C141.504 249.537 142.882 248.159 144.576 248.159C146.27 248.159 147.649 249.537 147.649 251.231Z" fill="#D4A5CF"/>
<path d="M51.7774 148.474C51.7774 150.168 50.3991 151.547 48.7051 151.547C47.0111 151.547 45.6328 150.168 45.6328 148.474C45.6328 146.78 47.0111 145.402 48.7051 145.402C50.3991 145.402 51.7774 146.78 51.7774 148.474Z" fill="#D4A5CF"/>
<path d="M205.615 255.304C205.615 256.998 204.237 258.376 202.543 258.376C200.849 258.376 199.471 256.998 199.471 255.304C199.471 253.61 200.849 252.232 202.543 252.232C204.237 252.232 205.615 253.61 205.615 255.304Z" fill="#D4A5CF"/>
<path d="M309.852 278.504C309.852 280.198 308.473 281.576 306.779 281.576C305.085 281.576 303.707 280.198 303.707 278.504C303.707 276.81 305.085 275.432 306.779 275.432C308.473 275.432 309.852 276.81 309.852 278.504Z" fill="#D4A5CF"/>
<path d="M363.328 148.397C363.328 150.091 361.95 151.47 360.256 151.47C358.562 151.47 357.184 150.091 357.184 148.397C357.184 146.703 358.562 145.325 360.256 145.325C361.95 145.325 363.328 146.703 363.328 148.397Z" fill="#D4A5CF"/>
<path d="M430.324 172.137C430.324 173.831 428.946 175.209 427.252 175.209C425.558 175.209 424.18 173.831 424.18 172.137C424.18 170.443 425.558 169.064 427.252 169.064C428.946 169.064 430.324 170.443 430.324 172.137Z" fill="#D4A5CF"/>
<path d="M483.254 97.7544C483.254 99.4484 481.876 100.827 480.182 100.827C478.488 100.827 477.109 99.4484 477.109 97.7544C477.109 96.0604 478.488 94.6821 480.182 94.6821C481.876 94.6821 483.254 96.0604 483.254 97.7544Z" fill="#D4A5CF"/>
<path d="M507.949 119.23C507.949 120.924 506.571 122.302 504.877 122.302C503.183 122.302 501.805 120.924 501.805 119.23C501.805 117.536 503.183 116.157 504.877 116.157C506.571 116.157 507.949 117.536 507.949 119.23Z" fill="#D4A5CF"/>
<path d="M526.504 79.644L531.517 82.4545L535.066 72.5138L526.504 79.644Z" fill="#D4A5CF"/>
<path fill-rule="evenodd" clip-rule="evenodd" d="M77.8955 111.36C78.9427 111.907 79.8898 112.577 80.7368 113.362L83.7706 112.284L86.6273 116.789L84.3558 119.075C84.7023 120.169 84.9102 121.324 84.9487 122.502L87.8593 123.88L86.6889 129.085H83.4703C82.9236 130.14 82.2537 131.087 81.4683 131.934L82.5463 134.968L78.0418 137.825L75.7549 135.553C74.6615 135.9 73.5065 136.1 72.3284 136.146L70.9501 139.057L65.7449 137.887V134.668C64.69 134.121 63.7429 133.451 62.8959 132.666L59.8621 133.744L57.0054 129.239L59.2769 126.953C58.9304 125.859 58.7302 124.704 58.684 123.526L55.7734 122.148L56.9438 116.943H60.1624C60.7091 115.888 61.379 114.941 62.1644 114.094L61.0864 111.06L65.5909 108.203L67.8778 110.475C68.9712 110.128 70.1262 109.928 71.3043 109.882L72.6826 106.971L77.8878 108.141V111.36H77.8955ZM73.3063 117.482C70.2263 116.789 67.1617 118.729 66.4764 121.809C65.7834 124.889 67.7238 127.954 70.8038 128.639C73.8838 129.332 76.9484 127.391 77.6337 124.311C78.3267 121.231 76.3863 118.167 73.3063 117.482Z" stroke="#D4A5CF" stroke-width="0.77" stroke-miterlimit="10"/>
<path fill-rule="evenodd" clip-rule="evenodd" d="M422.194 97.1459C423.01 97.5694 423.757 98.1007 424.419 98.7167L426.798 97.8697L429.039 101.404L427.253 103.198C427.522 104.06 427.684 104.961 427.722 105.885L430.001 106.971L429.085 111.052H426.56C426.136 111.876 425.605 112.623 424.989 113.285L425.836 115.664L422.301 117.905L420.507 116.119C419.645 116.388 418.744 116.55 417.82 116.588L416.734 118.868L412.653 117.951V115.426C411.83 115.002 411.083 114.471 410.42 113.855L408.041 114.702L405.8 111.168L407.587 109.373C407.317 108.511 407.156 107.61 407.117 106.686L404.838 105.6L405.754 101.519H408.28C408.703 100.696 409.235 99.9487 409.851 99.2865L409.004 96.9072L412.538 94.6665L414.332 96.4529C415.194 96.1834 416.095 96.0217 417.019 95.9832L418.105 93.704L422.186 94.6203V97.1459H422.194ZM418.59 101.951C416.172 101.412 413.77 102.929 413.231 105.346C412.692 107.764 414.209 110.167 416.627 110.706C419.044 111.245 421.447 109.728 421.986 107.31C422.525 104.892 421.008 102.49 418.59 101.951Z" fill="#D4A5CF"/>
<path fill-rule="evenodd" clip-rule="evenodd" d="M492.217 168.71C493.334 169.295 494.35 170.011 495.258 170.85L498.508 169.695L501.557 174.508L499.124 176.949C499.494 178.119 499.709 179.351 499.763 180.614L502.874 182.092L501.626 187.652H498.185C497.607 188.776 496.883 189.792 496.044 190.701L497.199 193.95L492.386 196.999L489.946 194.566C488.775 194.936 487.543 195.151 486.28 195.205L484.802 198.316L479.235 197.069V193.627C478.111 193.049 477.094 192.326 476.186 191.486L472.936 192.641L469.887 187.829L472.32 185.388C471.951 184.217 471.735 182.985 471.681 181.723L468.57 180.244L469.818 174.677H473.26C473.837 173.553 474.561 172.537 475.4 171.628L474.245 168.379L479.058 165.329L481.499 167.763C482.669 167.393 483.901 167.177 485.164 167.123L486.642 164.013L492.202 165.26V168.702H492.209L492.217 168.71ZM487.312 175.255C484.016 174.515 480.744 176.587 480.005 179.882C479.266 183.178 481.337 186.45 484.633 187.19C487.928 187.929 491.201 185.858 491.94 182.562C492.679 179.266 490.608 175.994 487.312 175.255Z" stroke="#D4A5CF" stroke-width="0.77" stroke-miterlimit="10"/>
<path fill-rule="evenodd" clip-rule="evenodd" d="M440.666 71.5665C441.497 71.9977 442.252 72.5366 442.922 73.1527L445.332 72.2979L447.596 75.8707L445.794 77.6802C446.071 78.5503 446.233 79.4667 446.263 80.3984L448.573 81.4994L447.649 85.6266H445.093C444.662 86.4582 444.123 87.2206 443.507 87.8905L444.362 90.3005L440.789 92.5644L438.972 90.7626C438.101 91.0398 437.185 91.2015 436.253 91.2323L435.16 93.5423L431.025 92.6183V90.0619C430.194 89.6307 429.431 89.0917 428.761 88.4757L426.351 89.3304L424.087 85.7576L425.897 83.948C425.62 83.0779 425.458 82.1616 425.427 81.2299L423.117 80.1288L424.041 76.0016H426.598C427.029 75.17 427.568 74.4078 428.184 73.7379L427.329 71.3277L430.902 69.064L432.719 70.8735C433.589 70.5963 434.505 70.4346 435.437 70.4038L436.531 68.0938L440.658 69.0177V71.5741L440.666 71.5665ZM437.023 76.4329C434.575 75.8862 432.149 77.4262 431.595 79.8671C431.048 82.3157 432.588 84.7411 435.029 85.2955C437.478 85.8422 439.903 84.3022 440.458 81.8613C441.004 79.4127 439.464 76.9873 437.023 76.4329Z" stroke="#D4A5CF" stroke-width="0.77" stroke-miterlimit="10"/>
<path d="M407.075 61.2021H163.739C158.687 61.2021 154.592 65.2977 154.592 70.3497V217.204C154.592 222.256 158.687 226.352 163.739 226.352H407.075C412.127 226.352 416.222 222.256 416.222 217.204V70.3497C416.222 65.2977 412.127 61.2021 407.075 61.2021Z" fill="white" stroke="#010001" stroke-width="0.77" stroke-miterlimit="10"/>
<path d="M407.075 61.2021H163.732C158.68 61.2021 154.584 65.2985 154.584 70.3497V74.9158H416.215V70.3497C416.215 65.2985 412.118 61.2021 407.067 61.2021H407.075Z" fill="#BFBCC0" stroke="#010001" stroke-width="0.77" stroke-miterlimit="10"/>
<path d="M164.424 71.4969C166.205 71.4969 167.65 70.0525 167.65 68.2706C167.65 66.4888 166.205 65.0443 164.424 65.0443C162.642 65.0443 161.197 66.4888 161.197 68.2706C161.197 70.0525 162.642 71.4969 164.424 71.4969Z" stroke="#010001" stroke-width="0.77" stroke-miterlimit="10"/>
<path d="M179.839 68.2706C179.839 70.057 178.392 71.4969 176.613 71.4969C174.834 71.4969 173.387 70.0493 173.387 68.2706C173.387 66.4919 174.834 65.0443 176.613 65.0443C178.392 65.0443 179.839 66.4919 179.839 68.2706Z" stroke="#010001" stroke-width="0.77" stroke-miterlimit="10"/>
<path d="M192.021 68.2706C192.021 70.057 190.573 71.4969 188.795 71.4969C187.016 71.4969 185.568 70.0493 185.568 68.2706C185.568 66.4919 187.016 65.0443 188.795 65.0443C190.573 65.0443 192.021 66.4919 192.021 68.2706Z" stroke="#010001" stroke-width="0.77" stroke-miterlimit="10"/>
<path d="M277.211 192.849H185.759C184.827 192.849 184.072 192.094 184.072 191.163C184.072 190.231 184.827 189.476 185.759 189.476H277.211C278.143 189.476 278.898 190.231 278.898 191.163C278.898 192.094 278.143 192.849 277.211 192.849Z" fill="#BFBCC0"/>
<path d="M254.543 201.25H185.759C184.827 201.25 184.072 200.495 184.072 199.563C184.072 198.632 184.827 197.877 185.759 197.877H254.543C255.474 197.877 256.229 198.632 256.229 199.563C256.229 200.495 255.474 201.25 254.543 201.25Z" fill="#BFBCC0"/>
<path d="M225.491 209.65H185.759C184.827 209.65 184.072 208.896 184.072 207.964C184.072 207.032 184.827 206.278 185.759 206.278H225.491C226.422 206.278 227.177 207.032 227.177 207.964C227.177 208.896 226.422 209.65 225.491 209.65Z" fill="#BFBCC0"/>
<path d="M288.201 190.67H371.315" stroke="#010001" stroke-width="1.54" stroke-miterlimit="10" stroke-linecap="round"/>
<path d="M288.201 196.707H340.677" stroke="#010001" stroke-width="1.54" stroke-miterlimit="10" stroke-linecap="round"/>
<path d="M288.201 202.751H327.417" stroke="#010001" stroke-width="1.54" stroke-miterlimit="10" stroke-linecap="round"/>
<path d="M288.201 208.788H351.272" stroke="#010001" stroke-width="1.54" stroke-miterlimit="10" stroke-linecap="round"/>
<path d="M224.982 183.578L239.905 161.987C242.939 157.598 248.983 156.543 253.326 159.646L255.42 161.148C260.626 164.875 267.956 162.526 270.027 156.466L277.273 135.268C280.222 126.644 292.419 126.644 295.36 135.268L298.864 145.525C301.674 153.756 313.124 154.256 316.651 146.302L319.692 139.442C322.726 132.596 332.097 131.734 336.324 137.917C340.767 144.416 350.716 143.061 353.264 135.615L356.652 125.697C359.763 116.588 372.876 117.273 375.017 126.667L387.984 183.578C387.984 183.578 225.429 183.124 224.975 183.578H224.982Z" fill="#F19101"/>
<path d="M377.852 163.135C375.01 157.506 367.179 156.459 363.268 161.41C363.137 161.579 363.006 161.756 362.883 161.933C362.883 161.933 358.625 169.718 356.345 171.497C350.74 175.87 343.795 176.833 336.264 166.777L331.559 160.925C328.433 157.036 322.797 156.297 318.77 159.238L313.326 163.219C310.769 165.09 307.273 168.717 304.578 167.254C301.598 165.629 293.621 159.238 293.621 159.238C289.594 156.289 283.958 157.036 280.832 160.925L276.127 166.777C271.584 172.429 262.606 170.966 260.095 164.159L254.29 148.443C251.248 140.204 239.537 140.343 236.695 148.659L225.022 182.808L224.121 183.801C224.121 183.801 224.314 183.801 224.683 183.801L224.568 184.14C224.568 183.47 388.277 183.801 388.277 183.801L377.859 163.135H377.852Z" fill="#6348ED"/>
<path d="M193.072 184.117H400.279" stroke="#010001" stroke-width="0.77" stroke-miterlimit="10" stroke-linecap="round"/>
<path d="M244.473 101.296V102.759" stroke="#010001" stroke-width="0.3696" stroke-miterlimit="10"/>
<path d="M244.473 105.731V181.391" stroke="#010001" stroke-width="0.3696" stroke-miterlimit="10"/>
<path d="M244.473 182.87V184.341" stroke="#010001" stroke-width="0.3696" stroke-miterlimit="10"/>
<path d="M285.344 106.286V186.196" stroke="#010001" stroke-width="0.3696" stroke-miterlimit="10"/>
<path d="M366.432 94.5431V185.095" stroke="#010001" stroke-width="0.3696" stroke-miterlimit="10"/>
<path d="M326.361 123.01V184.341" stroke="#010001" stroke-width="0.3696" stroke-miterlimit="10"/>
<path d="M354.703 120.631H325.674C325.097 120.631 324.619 120.161 324.619 119.576C324.619 118.998 325.089 118.521 325.674 118.521H354.703C355.281 118.521 355.758 118.991 355.758 119.576C355.758 120.153 355.288 120.631 354.703 120.631Z" fill="#BFBCC0"/>
<path d="M394.592 92.4333H365.563C364.985 92.4333 364.508 91.9636 364.508 91.3784C364.508 90.8009 364.978 90.3235 365.563 90.3235H394.592C395.169 90.3235 395.647 90.7932 395.647 91.3784C395.647 91.9559 395.177 92.4333 394.592 92.4333Z" fill="#BFBCC0"/>
<path d="M385.575 86.1423H365.193C364.815 86.1423 364.508 86.4492 364.508 86.8276V87.5591C364.508 87.9376 364.815 88.2444 365.193 88.2444H385.575C385.953 88.2444 386.26 87.9376 386.26 87.5591V86.8276C386.26 86.4492 385.953 86.1423 385.575 86.1423Z" fill="#BFBCC0"/>
<path d="M313.84 104.083H284.811C284.233 104.083 283.756 103.614 283.756 103.028C283.756 102.451 284.226 101.974 284.811 101.974H313.84C314.417 101.974 314.895 102.443 314.895 103.028C314.895 103.606 314.425 104.083 313.84 104.083Z" fill="#BFBCC0"/>
<path d="M273.291 99.2708H244.262C243.684 99.2708 243.207 98.8011 243.207 98.2159C243.207 97.6384 243.677 97.161 244.262 97.161H273.291C273.868 97.161 274.346 97.6307 274.346 98.2159C274.346 98.7934 273.876 99.2708 273.291 99.2708Z" fill="#BFBCC0"/>
<path d="M259.577 92.4332H243.815C243.479 92.4332 243.207 92.7056 243.207 93.0415V93.927C243.207 94.263 243.479 94.5353 243.815 94.5353H259.577C259.913 94.5353 260.186 94.263 260.186 93.927V93.0415C260.186 92.7056 259.913 92.4332 259.577 92.4332Z" fill="#BFBCC0"/>
<path d="M346.025 114.317H325.32C324.937 114.317 324.627 114.627 324.627 115.01V115.726C324.627 116.108 324.937 116.419 325.32 116.419H346.025C346.408 116.419 346.718 116.108 346.718 115.726V115.01C346.718 114.627 346.408 114.317 346.025 114.317Z" fill="#BFBCC0"/>
<path d="M207.05 117.15L235.24 112.846C237.604 128.315 226.824 142.984 211.354 145.348C195.885 147.711 181.217 136.931 178.853 121.462C176.489 105.993 187.269 91.3244 202.738 88.9605C205.202 88.5832 207.705 88.5293 210.176 88.8065L207.042 117.15H207.05Z" fill="#F19101"/>
<path d="M216.198 88.8988L212.771 110.751L234.224 106.724C234.224 106.724 231.067 94.4736 216.198 88.8988Z" fill="#6348ED"/>
<path d="M444.954 169.064C444.954 169.064 430.454 183.001 424.194 191.71C418.419 199.749 411.389 193.08 411.389 193.08L400.332 208.58C400.332 208.58 408.687 217.482 421.676 221.347C434.666 225.205 436.822 220.978 436.822 220.978L444.954 169.056V169.064Z" fill="#F19101" stroke="#010001" stroke-width="0.77" stroke-miterlimit="10" stroke-linecap="round"/>
<path d="M416.226 207.533C416.688 208.511 417.15 209.489 417.612 210.475C417.697 210.659 417.935 210.821 418.128 210.875C418.336 210.929 418.613 210.906 418.798 210.79C419.221 210.521 419.314 210.043 419.106 209.605C418.644 208.627 418.182 207.649 417.72 206.663C417.635 206.478 417.396 206.317 417.204 206.263C416.996 206.209 416.719 206.232 416.534 206.347C416.11 206.617 416.018 207.094 416.226 207.533Z" fill="white"/>
<path d="M426.535 211.314C427.082 210.336 427.675 209.381 428.314 208.457C428.568 208.08 428.399 207.479 428.006 207.271C427.567 207.04 427.097 207.179 426.82 207.579C426.189 208.503 425.596 209.458 425.041 210.436C424.818 210.829 424.934 211.399 425.349 211.622C425.765 211.845 426.297 211.73 426.535 211.314Z" fill="white"/>
<path d="M426.514 197.369C426.429 198.478 426.391 199.595 426.391 200.711C426.391 201.165 426.791 201.597 427.253 201.574C427.715 201.55 428.123 201.196 428.115 200.711C428.115 199.595 428.154 198.478 428.239 197.369C428.277 196.915 427.815 196.484 427.376 196.507C426.876 196.53 426.545 196.884 426.514 197.369Z" fill="white"/>
<path d="M432.32 183.679C432.559 185.619 432.882 187.552 433.306 189.461C433.406 189.908 433.945 190.208 434.369 190.07C434.831 189.916 435.077 189.477 434.977 189.007C434.584 187.252 434.268 185.427 434.053 183.686C433.999 183.24 433.691 182.801 433.19 182.824C432.767 182.839 432.266 183.209 432.328 183.686L432.32 183.679Z" fill="white"/>
<path d="M398.461 190.062C398.461 190.062 394.604 187.967 393.88 189.346C393.156 190.724 395.944 191.91 397.129 192.349C398.315 192.788 401.526 191.91 398.469 190.062H398.461Z" fill="white" stroke="#010001" stroke-width="0.5775" stroke-miterlimit="10"/>
<path d="M399.299 205.177L393.239 181.392C392.577 178.781 394.494 176.225 397.189 176.132L414.114 175.555C416.046 175.486 417.771 176.741 418.31 178.596L425.387 202.913C426.172 205.608 424.155 208.311 421.344 208.311L403.411 208.357C401.478 208.357 399.784 207.056 399.307 205.177H399.299Z" fill="#010001"/>
<path d="M401.509 201.312C401.509 201.312 401.332 201.912 400.67 201.951C400.007 201.989 398.221 201.496 397.551 200.826C396.889 200.164 397.043 199.525 397.297 199.502C397.297 199.502 396.473 199.232 396.35 198.439C396.227 197.646 396.858 197.315 397.459 197.254C397.459 197.254 396.666 197.585 395.896 196.915C395.126 196.245 395.503 195.244 396.781 195.082C396.781 195.082 395.103 195.444 394.933 194.22C394.764 192.995 395.757 192.595 396.489 192.472C397.212 192.341 398.968 192.241 399.453 192.549C399.938 192.857 400.007 193.28 399.769 193.65C399.53 194.02 398.822 194.605 398.822 194.605C398.822 194.605 400.262 194.79 400.616 195.074C400.97 195.359 401.209 195.513 401.039 195.975C400.878 196.43 399.715 196.953 399.715 196.953C399.715 196.953 399.507 197.315 400.015 197.377C400.523 197.438 401.74 197.985 401.825 198.478C401.909 198.978 401.671 199.402 401.44 199.541C401.216 199.679 400.939 199.695 401.216 200.056C401.494 200.418 401.794 200.896 401.501 201.312H401.509Z" fill="white"/>
<path d="M397.45 199.409C397.45 199.409 396.55 199.941 397.551 200.826C398.544 201.712 400.346 202.004 401.062 201.843C401.778 201.681 401.716 200.233 400.992 199.741C400.269 199.248 397.812 199.086 397.458 199.409H397.45Z" stroke="#010001" stroke-width="0.5775" stroke-miterlimit="10" stroke-linecap="round"/>
<path d="M397.195 199.463C397.195 199.463 396.356 199.217 396.332 198.347C396.309 197.477 397.179 196.984 398.981 197.153C400.791 197.323 401.653 197.831 401.722 198.639C401.792 199.448 401.237 199.879 400.976 199.741" stroke="#010001" stroke-width="0.5775" stroke-miterlimit="10" stroke-linecap="round"/>
<path d="M396.717 197.407C396.717 197.407 395.462 197.207 395.493 196.106C395.524 195.005 397.595 194.705 398.711 194.605C399.828 194.505 401.237 195.359 400.906 196.176C400.575 196.984 399.566 197.03 399.204 197.153" stroke="#010001" stroke-width="0.5775" stroke-miterlimit="10" stroke-linecap="round"/>
<path d="M396.164 195.205C396.164 195.205 394.94 195.067 394.901 193.881C394.855 192.703 397.096 192.172 398.82 192.256C400.537 192.341 399.459 194.412 398.82 194.597" stroke="#010001" stroke-width="0.5775" stroke-miterlimit="10" stroke-linecap="round"/>
<path d="M456.204 241.113L463.319 241.513C463.319 241.513 465.321 234.814 463.088 226.729C460.863 218.644 434.714 219.091 434.714 219.091C434.714 219.091 434.151 234.606 434.352 234.729C434.552 234.853 456.204 241.113 456.204 241.113Z" fill="#6348ED"/>
<path d="M468.11 223.372L468.318 229.447L432.251 222.14L429.902 221.508C429.902 221.508 431.265 194.104 435.508 182.816C439.751 171.528 445.633 166.592 450.115 165.922C454.596 165.252 465.215 176.333 465.215 176.333L468.656 212.23L468.11 223.372Z" fill="#F19101" stroke="#010001" stroke-width="0.77" stroke-miterlimit="10" stroke-linecap="round"/>
<path d="M439.566 182.123C440.336 180.937 441.106 179.744 441.876 178.558C442.122 178.18 441.968 177.588 441.568 177.372C441.136 177.141 440.644 177.28 440.382 177.68C439.612 178.866 438.842 180.059 438.072 181.245C437.825 181.622 437.979 182.215 438.38 182.431C438.811 182.662 439.304 182.523 439.566 182.123Z" fill="white"/>
<path d="M442.676 186.25C442.538 187.428 442.399 188.599 442.26 189.777C442.237 189.985 442.376 190.246 442.514 190.393C442.668 190.547 442.915 190.655 443.13 190.647C443.346 190.639 443.585 190.562 443.746 190.393C443.908 190.216 443.97 190.023 444.001 189.777C444.139 188.599 444.278 187.428 444.416 186.25C444.439 186.042 444.301 185.78 444.162 185.634C444.008 185.48 443.762 185.372 443.546 185.38C443.331 185.388 443.092 185.465 442.93 185.634C442.769 185.811 442.707 186.004 442.676 186.25Z" fill="white"/>
<path d="M449.329 177.88C449.445 178.935 449.568 179.99 449.684 181.037C449.707 181.276 449.761 181.476 449.938 181.653C450.092 181.807 450.338 181.915 450.554 181.907C450.977 181.892 451.478 181.522 451.416 181.045C451.301 179.99 451.177 178.935 451.062 177.888C451.039 177.649 450.985 177.449 450.808 177.272C450.654 177.118 450.407 177.01 450.192 177.018C449.768 177.033 449.268 177.403 449.329 177.88Z" fill="white"/>
<path d="M455.506 192.541C456.099 191.255 456.73 189.985 457.4 188.737C457.616 188.337 457.516 187.775 457.092 187.552C456.669 187.328 456.137 187.436 455.906 187.86C455.229 189.107 454.597 190.377 454.012 191.663C453.827 192.071 453.881 192.618 454.32 192.849C454.697 193.049 455.306 192.98 455.506 192.541Z" fill="white"/>
<path d="M433.621 209.928C434.337 209.189 435.092 208.48 435.869 207.802C436.031 207.664 436.124 207.394 436.124 207.187C436.124 206.979 436.031 206.717 435.869 206.57C435.708 206.424 435.484 206.309 435.253 206.316C435.022 206.324 434.822 206.416 434.637 206.57C433.852 207.24 433.105 207.957 432.389 208.696C432.073 209.019 432.043 209.604 432.389 209.92C432.736 210.236 433.275 210.266 433.613 209.92L433.621 209.928Z" fill="white"/>
<path d="M436.046 214.555C436.416 215.602 436.786 216.65 437.155 217.697C437.309 218.12 437.756 218.451 438.218 218.305C438.641 218.167 438.988 217.697 438.826 217.243C438.456 216.195 438.087 215.148 437.717 214.101C437.563 213.677 437.117 213.346 436.655 213.493C436.231 213.631 435.885 214.101 436.046 214.555Z" fill="white"/>
<path d="M447.965 222.74C449.019 221.485 450.136 220.292 451.314 219.152C451.637 218.836 451.653 218.244 451.314 217.928C450.975 217.612 450.436 217.589 450.09 217.928C448.912 219.067 447.795 220.261 446.74 221.516C446.448 221.863 446.378 222.409 446.74 222.74C447.064 223.033 447.657 223.11 447.965 222.74Z" fill="white"/>
<path d="M455.975 222.132C456.013 223.102 456.082 224.073 456.182 225.035C456.206 225.274 456.259 225.474 456.437 225.651C456.591 225.805 456.837 225.913 457.053 225.905C457.484 225.89 457.969 225.52 457.915 225.043C457.815 224.08 457.746 223.11 457.707 222.14C457.692 221.686 457.322 221.254 456.845 221.277C456.367 221.301 455.959 221.662 455.982 222.14L455.975 222.132Z" fill="white"/>
<path d="M431.441 198.763L438.641 205.315L440.966 207.186L446.949 199.325C446.949 199.325 442.506 197.869 440.343 195.267C438.171 192.664 437.008 188.914 436.585 188.468C436.161 188.021 434.19 187.213 432.542 186.72C430.887 186.227 426.914 184.71 425.559 185.018C424.203 185.318 424.812 186.535 425.204 186.897C425.589 187.251 428.554 188.352 428.554 188.352C428.554 188.352 429.601 188.884 429.024 189.007C428.438 189.13 427.969 189.415 427.969 189.415C427.969 189.415 427.607 190.277 427.322 190.477C427.045 190.678 426.783 191.001 426.798 191.417C426.814 191.833 426.767 192.141 426.352 192.518C425.936 192.895 425.843 194.197 425.843 194.197C425.843 194.197 425.489 194.697 425.636 195.66C425.782 196.622 426.806 198.278 427.915 198.647C429.031 199.017 429.855 198.855 429.855 198.855L430.594 197.908L431.449 198.786L431.441 198.763Z" fill="white"/>
<path d="M430.187 188.814C430.187 188.814 424.797 187.505 424.751 185.919C424.681 183.879 430.349 186.181 433.783 187.051C437.225 187.913 436.847 189.269 439.096 193.488C441.352 197.708 446.957 199.317 446.957 199.317L440.974 207.179C440.974 207.179 433.459 201.257 431.996 199.409C430.526 197.561 428.508 195.96 427.6 196.191" stroke="#010001" stroke-width="0.5775" stroke-miterlimit="10" stroke-linecap="round"/>
<path d="M430.296 197.746C430.296 197.746 430.304 199.317 429.026 198.863C427.717 198.393 425.553 197.469 425.491 195.298C425.422 192.772 428.795 194.181 428.795 194.181" stroke="#010001" stroke-width="0.5775" stroke-miterlimit="10" stroke-linecap="round"/>
<path d="M430.095 191.84C430.095 191.84 425.675 191.432 425.952 194.058" stroke="#010001" stroke-width="0.5775" stroke-miterlimit="10" stroke-linecap="round"/>
<path d="M431.156 190.516C431.156 190.516 428.053 189.8 427.391 190.385C426.729 190.97 426.898 192.079 426.898 192.079" stroke="#010001" stroke-width="0.5775" stroke-miterlimit="10" stroke-linecap="round"/>
<path d="M427.777 190.177C427.777 190.177 428.031 187.921 432.867 189.261" stroke="#010001" stroke-width="0.5775" stroke-miterlimit="10" stroke-linecap="round"/>
<path d="M466.094 201.974C465.401 198.131 461.259 188.46 461.259 188.46L453.266 166.554C453.266 166.554 468.851 169.025 481.202 190.978C493.552 212.931 482.865 226.144 473.101 227.06C455.183 228.739 438.189 208.318 438.189 208.318L447.175 195.244L469.806 203.306" fill="#F19101"/>
<path d="M438.186 208.311C438.186 208.311 440.111 210.621 443.337 213.616L453.077 197.338L447.171 195.236L438.186 208.311Z" fill="#F19101" stroke="#010001" stroke-width="0.77" stroke-miterlimit="10"/>
<path d="M439.426 206.509L445.078 210.705" stroke="#010001" stroke-width="0.77" stroke-miterlimit="10"/>
<path d="M440.996 204.168L446.933 207.602" stroke="#010001" stroke-width="0.77" stroke-miterlimit="10"/>
<path d="M442.729 201.696L448.658 204.73" stroke="#010001" stroke-width="0.77" stroke-miterlimit="10"/>
<path d="M444.385 199.286L450.283 202.004" stroke="#010001" stroke-width="0.77" stroke-miterlimit="10"/>
<path d="M445.916 197.053L451.837 199.409" stroke="#010001" stroke-width="0.77" stroke-miterlimit="10"/>
<path d="M453.258 166.546C453.258 166.546 468.843 169.018 481.194 190.97C493.545 212.923 482.857 226.136 473.093 227.052C455.176 228.731 438.182 208.311 438.182 208.311L447.168 195.236L469.798 203.298" stroke="#010001" stroke-width="0.77" stroke-miterlimit="10" stroke-linecap="round"/>
<path d="M461.25 188.452C461.25 188.452 465.393 198.123 466.086 201.966" stroke="#010001" stroke-width="0.77" stroke-miterlimit="10" stroke-linecap="round"/>
<path d="M448.608 211.491C449.548 212.853 450.51 214.201 451.496 215.533C451.634 215.718 451.781 215.864 452.012 215.933C452.22 215.987 452.497 215.964 452.682 215.849C453.043 215.618 453.282 215.056 452.99 214.663C452.004 213.331 451.041 211.983 450.102 210.62C449.848 210.251 449.332 210.043 448.916 210.312C448.547 210.551 448.331 211.098 448.608 211.498V211.491Z" fill="white"/>
<path d="M453.752 205.454C454.553 205.492 455.361 205.539 456.162 205.577C456.616 205.6 457.048 205.161 457.024 204.715C457.001 204.222 456.647 203.875 456.162 203.852C455.361 203.814 454.553 203.768 453.752 203.729C453.298 203.706 452.866 204.145 452.89 204.592C452.913 205.084 453.267 205.431 453.752 205.454Z" fill="white"/>
<path d="M457.663 211.96C458.679 212.469 459.719 212.923 460.781 213.331C460.981 213.408 461.274 213.346 461.451 213.246C461.628 213.146 461.805 212.938 461.851 212.73C461.905 212.507 461.89 212.261 461.767 212.061C461.644 211.86 461.474 211.745 461.251 211.66C460.92 211.537 460.596 211.398 460.265 211.267L460.473 211.352C459.819 211.075 459.18 210.782 458.548 210.467C458.14 210.266 457.593 210.343 457.362 210.775C457.154 211.167 457.239 211.745 457.67 211.96H457.663Z" fill="white"/>
<path d="M460.273 220.708C461.321 221.478 462.368 222.24 463.415 223.01C463.584 223.133 463.885 223.149 464.085 223.095C464.285 223.041 464.501 222.887 464.601 222.694C464.84 222.24 464.678 221.793 464.293 221.508C463.246 220.738 462.198 219.976 461.151 219.206C460.982 219.083 460.682 219.068 460.481 219.121C460.281 219.175 460.066 219.329 459.965 219.522C459.727 219.976 459.888 220.423 460.273 220.708Z" fill="white"/>
<path d="M467.559 208.072C468.667 208.002 469.784 207.933 470.893 207.872C471.347 207.841 471.778 207.494 471.755 207.009C471.732 206.563 471.37 206.116 470.893 206.147C469.784 206.216 468.667 206.285 467.559 206.347C467.104 206.378 466.673 206.724 466.696 207.209C466.719 207.656 467.081 208.103 467.559 208.072Z" fill="white"/>
<path d="M469.522 216.08C470.607 216.434 471.693 216.781 472.771 217.135C473.202 217.273 473.734 216.973 473.834 216.526C473.941 216.049 473.687 215.61 473.225 215.464C472.14 215.11 471.054 214.763 469.976 214.409C469.545 214.27 469.013 214.571 468.913 215.017C468.805 215.495 469.06 215.934 469.522 216.08Z" fill="white"/>
<path d="M474.441 223.918C475.311 223.533 476.173 223.148 477.043 222.763C477.228 222.679 477.39 222.432 477.444 222.248C477.498 222.04 477.475 221.762 477.359 221.578C477.244 221.393 477.059 221.231 476.843 221.177C476.604 221.123 476.397 221.162 476.173 221.262C475.303 221.647 474.441 222.032 473.571 222.417C473.386 222.502 473.224 222.748 473.17 222.933C473.116 223.141 473.139 223.418 473.255 223.603C473.37 223.788 473.555 223.949 473.771 224.003C474.01 224.057 474.217 224.019 474.441 223.918Z" fill="white"/>
<path d="M482.088 215.641C482.643 214.894 483.128 214.101 483.536 213.262C483.636 213.054 483.69 212.83 483.621 212.592C483.567 212.391 483.413 212.176 483.22 212.076C482.828 211.868 482.25 211.953 482.034 212.384C481.626 213.215 481.141 214.016 480.587 214.763C480.464 214.932 480.448 215.24 480.502 215.433C480.556 215.625 480.71 215.849 480.903 215.949C481.103 216.057 481.349 216.111 481.572 216.034C481.796 215.957 481.95 215.826 482.088 215.633V215.641Z" fill="white"/>
<path d="M476.374 210.436C477.121 209.858 477.868 209.281 478.615 208.711C478.8 208.565 478.946 208.434 479.015 208.195C479.069 207.987 479.046 207.71 478.931 207.525C478.815 207.34 478.63 207.179 478.415 207.125C478.199 207.071 477.93 207.071 477.745 207.209C476.998 207.787 476.251 208.364 475.504 208.934C475.319 209.081 475.173 209.211 475.104 209.45C475.05 209.658 475.073 209.935 475.189 210.12C475.304 210.305 475.489 210.467 475.704 210.52C475.92 210.574 476.19 210.574 476.374 210.436Z" fill="white"/>
<path d="M473.001 198.893C473.132 199.471 473.247 200.049 473.348 200.634C473.371 200.78 473.394 200.934 473.417 201.08C473.425 201.15 473.44 201.219 473.448 201.288C473.478 201.473 473.425 201.127 473.448 201.334C473.486 201.635 473.517 201.935 473.548 202.235C473.571 202.474 473.632 202.674 473.802 202.851C473.956 203.005 474.202 203.113 474.418 203.105C474.849 203.082 475.334 202.72 475.28 202.243C475.157 200.965 474.949 199.694 474.664 198.439C474.564 198 474.033 197.692 473.602 197.831C473.14 197.977 472.886 198.424 472.993 198.893H473.001Z" fill="white"/>
<path d="M481.255 200.626C481.625 201.681 481.941 202.751 482.195 203.837C482.295 204.276 482.826 204.584 483.257 204.445C483.719 204.299 483.973 203.852 483.866 203.383C483.612 202.297 483.296 201.227 482.926 200.172C482.772 199.748 482.326 199.417 481.864 199.563C481.44 199.702 481.094 200.172 481.255 200.626Z" fill="white"/>
<path d="M468.037 196.045C468.283 194.628 468.537 193.211 468.784 191.786C468.861 191.34 468.668 190.832 468.176 190.724C467.752 190.631 467.19 190.855 467.113 191.332C466.866 192.749 466.612 194.166 466.366 195.59C466.289 196.037 466.482 196.545 466.974 196.653C467.398 196.745 467.96 196.522 468.037 196.045Z" fill="white"/>
<path d="M474.494 189.253C475.072 190.616 475.649 191.979 476.227 193.342C476.304 193.527 476.558 193.688 476.742 193.742C476.95 193.796 477.228 193.773 477.412 193.658C477.851 193.38 477.913 192.918 477.72 192.472C477.143 191.109 476.565 189.746 475.988 188.383C475.911 188.198 475.657 188.037 475.472 187.983C475.264 187.929 474.987 187.952 474.802 188.067C474.363 188.345 474.302 188.807 474.494 189.253Z" fill="white"/>
<path d="M468.374 184.032C468.921 185.141 469.475 186.258 470.022 187.367C470.222 187.775 470.83 187.921 471.208 187.675C471.623 187.405 471.731 186.928 471.516 186.489C470.969 185.38 470.414 184.263 469.868 183.155C469.668 182.747 469.059 182.6 468.682 182.847C468.266 183.116 468.158 183.594 468.374 184.032Z" fill="white"/>
<path d="M463.162 183.555C463.324 182.6 463.486 181.645 463.648 180.691C463.686 180.452 463.686 180.236 463.563 180.021C463.455 179.844 463.255 179.667 463.047 179.62C462.631 179.528 462.061 179.751 461.984 180.229C461.823 181.183 461.661 182.138 461.499 183.093C461.461 183.332 461.461 183.547 461.584 183.763C461.692 183.94 461.892 184.117 462.1 184.163C462.516 184.256 463.085 184.032 463.162 183.555Z" fill="white"/>
<path d="M458.82 166.654C457.788 165.075 456.187 164.197 454.778 163.543C454.323 163.296 453.815 163.135 453.261 163.05C452.714 162.95 452.175 162.942 451.667 163.027C450.127 163.196 448.448 163.866 446.97 165.029C443.875 167.462 442.812 171.089 444.583 173.137C446.015 174.785 447.694 174.531 450.358 173.237C453.515 176.725 456.356 176.494 458.235 175.393C460.568 174.03 460.961 169.949 458.813 166.646L458.82 166.654Z" fill="white" stroke="#010001" stroke-width="0.77" stroke-miterlimit="10"/>
<path d="M458.474 148.266C457.535 148.297 456.68 148.628 455.995 149.159L455.903 146.572C455.764 142.476 452.707 139.226 449.104 139.349L443.69 139.534C440.095 139.657 437.269 143.107 437.407 147.203L437.692 155.589C437.831 159.685 440.888 162.935 444.491 162.811L447.617 162.704L447.771 167.223C447.833 169.079 449.404 170.542 451.252 170.473L453.4 170.396C455.256 170.334 456.719 168.763 456.65 166.915L456.472 161.81V161.525L456.288 156.42C456.288 156.32 456.272 156.22 456.257 156.12C456.973 156.582 457.828 156.836 458.752 156.805C461.131 156.721 462.994 154.742 462.91 152.386C462.825 150.029 460.831 148.181 458.459 148.258L458.474 148.266Z" fill="white" stroke="#010001" stroke-width="0.77" stroke-miterlimit="10"/>
<path d="M456.309 153.179C456.309 153.179 456.016 150.284 459.011 150.507" stroke="#010001" stroke-width="0.77" stroke-miterlimit="10" stroke-linecap="round"/>
<path d="M448.342 149.575C448.365 150.245 447.842 150.815 447.164 150.838C446.494 150.861 445.924 150.337 445.901 149.66C445.878 148.99 446.402 148.42 447.079 148.397C447.749 148.374 448.319 148.898 448.342 149.575Z" fill="#010001"/>
<path d="M440.349 149.668C440.372 150.245 439.918 150.722 439.341 150.746C438.763 150.769 438.286 150.314 438.263 149.737C438.239 149.159 438.694 148.682 439.271 148.659C439.849 148.636 440.326 149.09 440.349 149.668Z" fill="#010001"/>
<path d="M452.729 153.918C452.783 155.589 451.474 156.998 449.803 157.052C448.133 157.106 446.723 155.797 446.67 154.126C446.616 152.455 447.925 151.046 449.596 150.992C451.266 150.938 452.676 152.247 452.729 153.918Z" fill="#ED80A5"/>
<path d="M438.5 152.093C438.315 152.093 438.138 152.132 437.969 152.178L438.077 155.319C438.092 155.789 438.123 156.243 438.238 156.682C438.369 156.698 438.531 156.713 438.662 156.705C439.932 156.659 440.933 155.597 440.887 154.318C440.841 153.048 439.778 152.047 438.5 152.093Z" fill="#ED80A5"/>
<path d="M449.009 147.311C448.355 146.996 447.677 146.742 446.969 146.565C446.815 146.526 446.653 146.611 446.615 146.765C446.576 146.919 446.661 147.08 446.815 147.119C447.469 147.281 448.109 147.512 448.717 147.804C448.855 147.874 449.033 147.843 449.11 147.704C449.187 147.581 449.148 147.381 449.009 147.311Z" fill="#010001"/>
<path d="M440.293 147.296C439.569 147.296 438.845 147.358 438.129 147.481C437.975 147.504 437.891 147.696 437.929 147.835C437.975 147.997 438.129 148.066 438.283 148.035C438.946 147.92 439.615 147.866 440.293 147.874C440.447 147.874 440.586 147.743 440.586 147.581C440.586 147.419 440.455 147.296 440.293 147.288V147.296Z" fill="#010001"/>
<path d="M442.626 148.474C442.295 149.591 441.802 150.653 441.163 151.631C441.055 151.801 441.171 151.993 441.332 152.055C441.887 152.27 442.464 152.409 443.057 152.486C443.211 152.509 443.35 152.34 443.35 152.193C443.35 152.024 443.219 151.924 443.057 151.901C442.518 151.831 441.987 151.693 441.486 151.493L441.656 151.916C442.318 150.9 442.826 149.783 443.173 148.62C443.281 148.266 442.718 148.112 442.618 148.466L442.626 148.474Z" fill="#010001"/>
<path d="M458.834 134.722C459.573 135.892 461.128 136.239 462.299 135.499C463.469 134.76 463.816 133.205 463.077 132.034C462.337 130.864 460.782 130.518 459.612 131.257C458.441 131.996 458.095 133.551 458.834 134.722Z" fill="#6348ED"/>
<path d="M464.201 128.308C464.201 128.308 460.374 123.649 461.721 117.127C463.069 110.605 470.638 106.347 475.827 107.679C481.017 109.012 483.427 109.281 485.822 104.145C488.217 99.0015 493.946 92.5951 506.728 95.3517C519.51 98.1083 519.417 113.593 518.262 118.467C516.791 124.666 512.556 128.069 507.074 131.095C501.584 134.121 493.607 134.221 488.386 129.432C483.166 124.643 479.408 125.32 479.069 129.393C478.692 133.921 468.066 134.653 464.216 128.308H464.201Z" stroke="#010001" stroke-width="0.77" stroke-miterlimit="10"/>
<path d="M458.072 136.416C453.529 132.135 447.154 132.004 441.348 135.761C435.542 139.519 435.873 145.34 436.258 146.156C436.481 146.641 436.789 147.003 437.421 147.103C437.967 147.15 438.884 147.019 440.516 146.618C445.205 145.448 448.054 141.251 448.054 141.251C448.054 141.251 447.677 142.006 449.402 145.371C450.696 147.896 453.822 149.375 455.408 149.983C455.87 149.313 457.01 148.366 458.426 148.258C459.443 148.181 460.621 148.705 461.391 149.259C462.507 146.888 462.246 140.343 458.064 136.408L458.072 136.416Z" fill="#010001"/>
<path d="M440.932 156.159C440.978 157.059 441.548 157.853 442.41 158.145C443.273 158.438 444.235 158.145 444.79 157.444C445.113 157.036 445.275 156.544 445.267 156.028C445.267 155.658 444.682 155.658 444.69 156.028C444.705 156.89 444.043 157.652 443.165 157.683C442.287 157.714 441.556 157.029 441.509 156.159C441.494 155.789 440.917 155.789 440.932 156.159Z" fill="#010001"/>
<path d="M380.289 277.803L380.828 293.565L392.94 295.09L393.163 278.104L380.289 277.803Z" fill="white" stroke="#6040EF" stroke-width="0.77" stroke-miterlimit="10"/>
<path d="M382.174 277.85L383.106 293.943" stroke="#6040EF" stroke-width="0.77" stroke-miterlimit="10"/>
<path d="M384.969 277.919L385.9 294.012" stroke="#6040EF" stroke-width="0.77" stroke-miterlimit="10"/>
<path d="M387.596 277.688L388.073 294.097" stroke="#6040EF" stroke-width="0.77" stroke-miterlimit="10"/>
<path d="M390.004 277.865L390.497 294.405" stroke="#6040EF" stroke-width="0.77" stroke-miterlimit="10"/>
<path d="M358.223 314.016L396.984 313.231L395.66 290.323L377.503 291.91L377.118 300.88L358.223 314.016Z" fill="white" stroke="#0F110E" stroke-width="0.77" stroke-miterlimit="10"/>
<path d="M369.404 304.107L371.891 309.373" stroke="#101010" stroke-width="0.77" stroke-miterlimit="10" stroke-linecap="round"/>
<path d="M372.932 302.089L375.419 307.356" stroke="#101010" stroke-width="0.77" stroke-miterlimit="10" stroke-linecap="round"/>
<path d="M375.61 301.242C375.61 301.242 365.547 297.392 367.125 294.528C369.674 289.915 375.61 301.242 375.61 301.242Z" stroke="#101010" stroke-width="0.77" stroke-miterlimit="10" stroke-linecap="round"/>
<path d="M373.176 291.663L375.878 301.411" stroke="#101010" stroke-width="0.77" stroke-miterlimit="10" stroke-linecap="round"/>
<path d="M381.386 301.689C381.478 304.268 383.642 306.293 386.221 306.201C388.801 306.108 390.826 303.945 390.734 301.365C390.641 298.786 388.478 296.761 385.898 296.853C383.319 296.945 381.293 299.109 381.386 301.689Z" fill="#F19101"/>
<path d="M350.906 243.338L340.742 255.396L348.704 264.652L360.262 252.201L350.906 243.338Z" fill="white" stroke="#6040EF" stroke-width="0.77" stroke-miterlimit="10"/>
<path d="M352.276 244.639L342.182 257.198" stroke="#6040EF" stroke-width="0.77" stroke-miterlimit="10"/>
<path d="M354.302 246.572L344.207 259.131" stroke="#6040EF" stroke-width="0.77" stroke-miterlimit="10"/>
<path d="M356.405 248.158L345.764 260.648" stroke="#6040EF" stroke-width="0.77" stroke-miterlimit="10"/>
<path d="M358.076 249.906L347.35 262.503" stroke="#6040EF" stroke-width="0.77" stroke-miterlimit="10"/>
<path d="M310.25 255.412L339.541 280.822L353.917 262.935L339.379 251.931L333.08 258.338L310.25 255.412Z" fill="white" stroke="#0F110E" stroke-width="0.77" stroke-miterlimit="10"/>
<path d="M325.188 255.558L323.51 261.133" stroke="#101010" stroke-width="0.77" stroke-miterlimit="10" stroke-linecap="round"/>
<path d="M329.161 256.421L327.475 262.003" stroke="#101010" stroke-width="0.77" stroke-miterlimit="10" stroke-linecap="round"/>
<path d="M331.716 257.591C331.716 257.591 326.827 247.981 329.93 246.919C334.912 245.209 331.716 257.591 331.716 257.591Z" stroke="#101010" stroke-width="0.77" stroke-miterlimit="10" stroke-linecap="round"/>
<path d="M336.336 248.851L331.801 257.899" stroke="#101010" stroke-width="0.77" stroke-miterlimit="10" stroke-linecap="round"/>
<path d="M335.705 261.803C334.042 263.782 334.288 266.731 336.267 268.394C338.246 270.057 341.195 269.811 342.858 267.832C344.522 265.853 344.275 262.904 342.296 261.241C340.317 259.577 337.368 259.824 335.705 261.803Z" fill="#F19101"/>
<path d="M448.232 226.952L442.318 223.726C442.318 223.726 422.506 214.055 417.008 211.714C411.518 209.373 398.251 204.145 394.47 203.352C390.69 202.559 385.153 200.849 376.907 206.771C376.907 206.771 363.593 216.812 362.076 218.128C360.559 219.445 341.502 237.655 341.502 237.655L366.142 258.923L373.896 250.245L371.524 279.859L401.108 280.175L400.661 250.322C400.661 250.322 400.438 249.467 401.77 249.552C403.102 249.644 424.046 250.245 424.046 250.245C424.046 250.245 427.819 250.353 429.513 250.93C431.207 251.508 445.367 254.642 452.151 252.617C458.942 250.591 461.183 247.458 462.13 245.302C463.077 243.146 464.001 240.389 464.117 238.241C464.232 236.1 448.239 226.945 448.239 226.945L448.232 226.952Z" fill="#6348ED"/>
<path d="M446.422 225.828C446.422 225.828 400.176 201.573 387.348 202.336C374.52 203.098 341.51 237.656 341.51 237.656L366.15 258.923L373.942 249.829" stroke="#010001" stroke-width="0.77" stroke-miterlimit="10" stroke-linecap="round"/>
<path d="M381.227 226.36C381.227 226.36 419.234 248.366 430.014 251.077C440.493 253.718 468.868 259.377 463.586 228.577" stroke="#010001" stroke-width="0.77" stroke-miterlimit="10" stroke-linecap="round"/>
<path d="M386.015 229.093C386.015 229.093 376.29 229.655 375.281 236.508C374.273 243.353 371.539 279.867 371.539 279.867L401.122 280.183L400.56 242.66" stroke="#010001" stroke-width="0.77" stroke-miterlimit="10" stroke-linecap="round"/>
<path d="M400.654 249.598L427.135 250.153" stroke="#010001" stroke-width="0.77" stroke-miterlimit="10" stroke-linecap="round"/>
<path d="M467.165 250.145H414.805V352.601H467.165V250.145Z" fill="#958F99" stroke="#010001" stroke-width="0.77" stroke-miterlimit="10"/>
<path d="M400.106 313.701H347.746V352.924H400.106V313.701Z" fill="#BFBCC0" stroke="#010001" stroke-width="0.77" stroke-miterlimit="10"/>
<path d="M262.776 238.056H210.416V352.601H262.776V238.056Z" fill="#BFBCC0" stroke="#010001" stroke-width="0.77" stroke-miterlimit="10"/>
<path d="M332.962 285.896H280.602V352.601H332.962V285.896Z" fill="#958F99" stroke="#010001" stroke-width="0.77" stroke-miterlimit="10"/>
<path d="M197.327 266.392H144.967V352.601H197.327V266.392Z" fill="#958F99" stroke="#010001" stroke-width="0.77" stroke-miterlimit="10"/>
<path d="M185.725 161.464L178.518 154.334C178.518 154.334 185.632 147.25 187.065 145.733C188.489 144.224 190.445 142.992 192.016 144.547C193.586 146.103 194.988 151.816 193.502 153.448C192.016 155.073 185.732 161.456 185.732 161.456L185.725 161.464Z" fill="white"/>
<path d="M113.283 135.962C113.283 135.962 121.121 133.398 147.27 161.464L177.477 152.725L188.265 164.675C188.265 164.675 164.195 188.961 149.981 192.079C142.073 193.819 131.516 193.935 121.991 177.596C112.466 161.256 113.275 135.954 113.275 135.954L113.283 135.962Z" fill="#6348ED" stroke="#010001" stroke-width="0.77" stroke-miterlimit="10" stroke-linecap="round"/>
<path d="M182.69 169.996C185.809 166.808 188.265 164.675 188.265 164.675L177.477 152.725L170.832 155.019L182.69 169.996Z" fill="#6348ED" stroke="#010001" stroke-width="0.77" stroke-miterlimit="10" stroke-linecap="round"/>
<path d="M141.418 166.199C141.418 166.199 145.33 162.026 149.988 160.679" stroke="#010001" stroke-width="0.77" stroke-miterlimit="10" stroke-linecap="round"/>
<path d="M127.187 314.532L126.31 331.48L115.553 333.29L115.63 315.503L127.187 314.532Z" fill="white" stroke="#010001" stroke-width="0.77" stroke-miterlimit="10"/>
<path d="M151.442 352.717L110.201 352.524L111.233 328.139L130.575 329.525L131.13 339.057L151.442 352.717Z" fill="#6348ED"/>
<path d="M139.392 342.368L136.828 348.005" stroke="#010001" stroke-width="0.77" stroke-miterlimit="10" stroke-linecap="round"/>
<path d="M135.603 340.274L133.039 345.918" stroke="#010001" stroke-width="0.77" stroke-miterlimit="10" stroke-linecap="round"/>
<path d="M132.738 339.419C132.738 339.419 143.38 335.153 141.647 332.135C138.86 327.276 132.738 339.419 132.738 339.419Z" stroke="#010001" stroke-width="0.77" stroke-miterlimit="10" stroke-linecap="round"/>
<path d="M135.165 329.186L132.455 339.604" stroke="#010001" stroke-width="0.77" stroke-miterlimit="10" stroke-linecap="round"/>
<path d="M118.271 352.563C118.879 351.439 119.21 350.137 119.149 348.767C118.972 344.724 115.545 341.575 111.495 341.744C111.21 341.76 110.925 341.791 110.648 341.837L110.625 342.345C110.918 342.291 111.21 342.253 111.518 342.245C115.291 342.083 118.494 345.017 118.656 348.79C118.718 350.161 118.363 351.454 117.709 352.563H118.271Z" fill="white"/>
<path d="M151.442 352.717L110.201 352.524L111.233 328.139" stroke="#010001" stroke-width="0.77" stroke-miterlimit="10" stroke-linecap="round"/>
<path d="M105.766 318.66L132.454 317.997L137.651 205.069L100.029 205L105.766 318.66Z" fill="#010001"/>
<path d="M100.029 205L105.766 318.66" stroke="white" stroke-width="0.77" stroke-miterlimit="10" stroke-linecap="round"/>
<path d="M105.227 307.949H132.831" stroke="white" stroke-width="0.77" stroke-miterlimit="10" stroke-linecap="round"/>
<path d="M67.258 313.431L64.1934 330.117L74.2419 334.368L78.2767 317.043L67.258 313.431Z" fill="white" stroke="#010001" stroke-width="0.77" stroke-miterlimit="10"/>
<path d="M36.3008 352.578L77.542 352.378L79.0743 328.3L59.2468 329.232L56.6134 338.918L36.3008 352.578Z" fill="#6348ED"/>
<path d="M48.3594 342.222L50.9158 347.866" stroke="#010001" stroke-width="0.77" stroke-miterlimit="10" stroke-linecap="round"/>
<path d="M52.1406 340.135L54.7047 345.779" stroke="#010001" stroke-width="0.77" stroke-miterlimit="10" stroke-linecap="round"/>
<path d="M55.0059 339.273C55.0059 339.273 44.3645 335.007 46.097 331.988C48.8844 327.13 55.0059 339.273 55.0059 339.273Z" stroke="#010001" stroke-width="0.77" stroke-miterlimit="10" stroke-linecap="round"/>
<path d="M52.5801 329.047L55.2905 339.465" stroke="#010001" stroke-width="0.77" stroke-miterlimit="10" stroke-linecap="round"/>
<path d="M69.471 352.416C68.8627 351.292 68.5316 349.991 68.5932 348.62C68.7703 344.578 72.1968 341.429 76.247 341.598C76.5319 341.613 77.8178 341.744 78.095 341.79L77.9872 342.314C77.6946 342.26 76.5319 342.106 76.2239 342.091C72.4509 341.929 69.2477 344.863 69.086 348.636C69.0244 350.006 69.3786 351.3 70.0331 352.409H69.471V352.416Z" fill="white"/>
<path d="M36.3008 352.578L77.542 352.378L78.8972 328.185" stroke="#010001" stroke-width="0.77" stroke-miterlimit="10" stroke-linecap="round"/>
<path d="M80.8327 207.048L60.5586 315.587L87.9321 321.524L118.139 208.765L80.8327 207.048Z" fill="#010001"/>
<path d="M87.9316 321.524L115.436 218.852H123.598" stroke="white" stroke-width="0.77" stroke-miterlimit="10" stroke-linecap="round"/>
<path d="M77.0039 227.545C77.0039 227.545 85.5894 227.53 90.6791 217.635" stroke="white" stroke-width="0.77" stroke-miterlimit="10" stroke-linecap="round"/>
<path d="M62.1758 306.909L90.2731 312.8" stroke="white" stroke-width="0.77" stroke-miterlimit="10" stroke-linecap="round"/>
<path d="M134.624 166.492L138.998 211.599H78.6604C78.6604 211.599 78.5988 177.98 80.3236 163.304C82.0484 148.628 96.5783 137.625 104.301 137.917C112.025 138.21 118.623 139.804 118.623 139.804L134.624 166.484V166.492Z" fill="#6348ED"/>
<path d="M132.799 163.443L139.005 211.599H78.6682C78.6682 211.599 78.6066 177.98 80.3314 163.304C82.0562 148.628 96.5861 137.625 104.309 137.917C112.032 138.21 118.631 139.804 118.631 139.804" stroke="#010001" stroke-width="0.77" stroke-miterlimit="10" stroke-linecap="round"/>
<path d="M78.6602 211.591H138.997L137.773 202.058H78.7141C78.6602 207.726 78.6602 211.591 78.6602 211.591Z" fill="#6348ED" stroke="#010001" stroke-width="0.77" stroke-miterlimit="10" stroke-linecap="round"/>
<path d="M272.785 137.2C291.916 118.069 291.916 87.0524 272.785 67.9216C253.654 48.7908 222.637 48.7908 203.507 67.9216C184.376 87.0524 184.376 118.069 203.507 137.2C222.637 156.331 253.654 156.331 272.785 137.2Z" fill="white" stroke="#010001" stroke-width="0.77" stroke-miterlimit="10"/>
<mask id="mask0_10588_4845" style="mask-type:luminance" maskUnits="userSpaceOnUse" x="189" y="53" width="99" height="99">
<path d="M272.785 137.2C291.916 118.069 291.916 87.0524 272.785 67.9216C253.654 48.7908 222.637 48.7908 203.507 67.9216C184.376 87.0524 184.376 118.069 203.507 137.2C222.637 156.331 253.654 156.331 272.785 137.2Z" fill="white"/>
</mask>
<g mask="url(#mask0_10588_4845)">
<path d="M238.061 183.416L254.4 159.785C257.726 154.98 264.341 153.825 269.092 157.221L271.386 158.861C277.084 162.942 285.108 160.37 287.371 153.733L295.302 130.525C298.529 121.085 311.88 121.085 315.107 130.525L318.949 141.759C322.029 150.768 334.557 151.315 338.415 142.614L341.741 135.099C345.06 127.607 355.316 126.667 359.944 133.436C364.803 140.551 375.698 139.064 378.485 130.918L382.197 120.061C385.608 110.089 399.961 110.844 402.302 121.123L416.5 183.424C416.5 183.424 238.553 182.924 238.061 183.424V183.416Z" fill="#F19101"/>
<path d="M405.405 161.04C402.294 154.873 393.724 153.733 389.442 159.146C389.296 159.331 389.158 159.523 389.019 159.724C389.019 159.724 384.361 168.248 381.858 170.196C375.721 174.985 368.113 176.04 359.874 165.029L354.723 158.623C351.297 154.364 345.137 153.556 340.725 156.782L334.765 161.14C331.962 163.189 328.143 167.162 325.194 165.553C321.929 163.774 313.197 156.782 313.197 156.782C308.785 153.556 302.625 154.372 299.198 158.623L294.047 165.029C289.073 171.22 279.248 169.61 276.499 162.165L270.139 144.955C266.805 135.931 253.992 136.092 250.881 145.194L238.107 182.577L237.121 183.671C237.121 183.671 237.337 183.671 237.737 183.671L237.614 184.04C237.614 183.309 416.824 183.671 416.824 183.671L405.42 161.048L405.405 161.04Z" fill="#6348ED"/>
<path d="M259.387 93.342V94.8127" stroke="#010001" stroke-width="0.3696" stroke-miterlimit="10"/>
<path d="M259.387 97.6541V181.368" stroke="#010001" stroke-width="0.3696" stroke-miterlimit="10"/>
<path d="M290.937 91.1321H259.159C258.52 91.1321 258.004 90.6162 258.004 89.9771C258.004 89.338 258.52 88.8221 259.159 88.8221H290.937C291.576 88.8221 292.092 89.338 292.092 89.9771C292.092 90.6162 291.576 91.1321 290.937 91.1321Z" fill="#BFBCC0"/>
<path d="M275.991 83.6477H258.62C258.284 83.6477 258.012 83.9201 258.012 84.256V85.3417C258.012 85.6777 258.284 85.95 258.62 85.95H275.991C276.327 85.95 276.6 85.6777 276.6 85.3417V84.256C276.6 83.9201 276.327 83.6477 275.991 83.6477Z" fill="#BFBCC0"/>
<path d="M218.426 110.706L249.288 105.993C251.875 122.925 240.071 138.98 223.139 141.567C206.207 144.154 190.152 132.35 187.565 115.418C184.978 98.4856 196.782 82.4311 213.714 79.8439C216.409 79.4281 219.15 79.3742 221.861 79.6745L218.434 110.706H218.426Z" fill="#F19101"/>
<path d="M228.443 79.7745L224.693 103.698L248.178 99.2863C248.178 99.2863 244.729 85.8806 228.443 79.7745Z" fill="#6348ED"/>
</g>
<path d="M159.025 174.978L153.527 168.078L197.102 133.398L202.091 140.574L159.025 174.978Z" fill="#958F99" stroke="#0F110E" stroke-width="0.77" stroke-miterlimit="10"/>
<path d="M154.196 166.23L96.3695 211.791C93.8285 213.809 92.9969 216.989 94.5138 218.891L96.4157 221.278C97.9326 223.18 101.213 223.079 103.754 221.062L160.734 174.939L154.204 166.23H154.196Z" fill="#F19101" stroke="#0F110E" stroke-width="0.77" stroke-miterlimit="10"/>
<path d="M290.703 118.59C293.698 107.972 293.49 96.8379 290.025 86.3582C283.049 65.2833 262.505 50.2452 240.314 49.9603C229.156 49.814 218.376 52.971 209.098 59.1926C199.912 65.3526 192.728 74.5464 188.909 84.9183C185.236 94.8821 184.504 106.039 187.114 116.35C189.933 127.469 196.062 137.332 204.824 144.763C221.41 158.823 246.32 161.241 265.239 150.476C267.818 149.013 270.298 147.396 272.623 145.556C281.193 138.672 287.707 129.201 290.703 118.598V118.59ZM264.199 140.867C263.645 141.244 263.075 141.606 262.505 141.968C262.459 141.998 262.359 142.06 262.274 142.106C261.997 142.268 261.72 142.43 261.443 142.584C259.256 143.8 256.984 144.855 254.636 145.725C253.619 146.103 252.595 146.434 251.563 146.749C251.479 146.765 250.74 146.98 250.539 147.027C249.854 147.196 249.161 147.358 248.468 147.496C246.143 147.966 243.794 148.274 241.423 148.413C241.107 148.428 240.783 148.443 240.468 148.459C240.375 148.459 240.167 148.466 240.021 148.474C239.59 148.474 239.151 148.474 238.72 148.474C237.449 148.451 236.171 148.374 234.908 148.251C233.769 148.135 232.629 147.989 231.497 147.797C230.935 147.704 230.365 147.596 229.803 147.481C229.488 147.419 229.18 147.35 228.872 147.281C228.787 147.258 228.51 147.196 228.325 147.142C226.146 146.565 224.013 145.864 221.926 145.001C220.856 144.563 219.801 144.077 218.769 143.562C218.484 143.415 218.192 143.269 217.907 143.123C217.845 143.092 217.714 143.023 217.606 142.961C217.083 142.661 216.552 142.36 216.036 142.045C213.91 140.743 211.893 139.28 209.991 137.671C209.583 137.325 209.19 136.978 208.79 136.624C208.544 136.401 208.297 136.177 208.058 135.946C208.043 135.931 208.035 135.923 208.028 135.915C207.989 135.877 207.951 135.838 207.897 135.785C207.004 134.861 206.118 133.937 205.279 132.959C203.631 131.041 202.191 129.001 200.813 126.883C200.774 126.822 200.743 126.776 200.713 126.729C200.705 126.714 200.697 126.706 200.69 126.691C200.52 126.406 200.358 126.113 200.197 125.821C199.935 125.359 199.689 124.889 199.442 124.419C198.842 123.249 198.279 122.055 197.771 120.839C197.317 119.753 196.909 118.66 196.532 117.543C196.347 116.989 196.177 116.434 196.008 115.872C195.985 115.803 195.977 115.78 195.969 115.749C195.962 115.718 195.954 115.703 195.946 115.657C195.846 115.279 195.754 114.91 195.661 114.533C195.107 112.223 194.714 109.874 194.499 107.51C194.445 106.94 194.406 106.363 194.368 105.793C194.352 105.539 194.337 105.285 194.329 105.031C194.329 105.046 194.322 104.677 194.306 104.446C194.306 104.215 194.306 103.837 194.306 103.86C194.306 103.606 194.306 103.352 194.314 103.098C194.329 102.459 194.352 101.828 194.391 101.188C194.537 98.7706 194.853 96.3682 195.346 93.9966C195.4 93.7502 195.454 93.4961 195.507 93.2497C195.507 93.2651 195.592 92.9032 195.646 92.6799C195.708 92.4566 195.8 92.0947 195.8 92.1101C195.869 91.8637 195.939 91.6173 196.008 91.3709C196.362 90.1466 196.77 88.93 197.225 87.7288C197.633 86.6508 198.079 85.5805 198.564 84.5333C198.78 84.0636 199.003 83.6016 199.234 83.1396C199.381 82.8547 199.527 82.5621 199.673 82.2772C199.712 82.1925 199.758 82.1155 199.804 82.0385C199.819 82.0077 199.843 81.9769 199.873 81.9153C201.075 79.8209 202.399 77.8035 203.885 75.9016C204.617 74.9622 205.387 74.0536 206.18 73.1681C206.403 72.9217 206.626 72.6753 206.857 72.4366C206.873 72.4212 206.88 72.4135 206.888 72.4058C206.927 72.3673 206.965 72.3288 207.019 72.2749C207.504 71.8052 207.981 71.3278 208.474 70.8735C210.322 69.1641 212.309 67.5933 214.396 66.1842C214.896 65.8454 215.404 65.522 215.92 65.1909C215.989 65.1447 216.036 65.1139 216.09 65.0831C216.328 64.9445 216.567 64.8059 216.806 64.6673C217.899 64.0513 219.023 63.4738 220.163 62.9425C222.334 61.9261 224.583 61.0945 226.877 60.4015C226.939 60.3938 227.886 60.1243 228.078 60.0781C228.641 59.9395 229.203 59.8086 229.772 59.6931C231.028 59.4313 232.298 59.2234 233.569 59.054C234.708 58.9077 235.855 58.7999 237.003 58.7383C237.465 58.7152 237.927 58.6998 238.389 58.6844C238.52 58.6844 238.674 58.6844 238.751 58.6844C239.136 58.6844 239.513 58.6844 239.898 58.6998C242.254 58.7537 244.603 58.9847 246.928 59.3774C248.014 59.5622 249.084 59.7778 250.154 60.0396C250.285 60.0704 250.432 60.1089 250.509 60.132C250.817 60.2167 251.125 60.3014 251.433 60.3938C252.049 60.5709 252.657 60.7634 253.265 60.9636C255.575 61.7336 257.839 62.6807 260.01 63.7818C260.195 63.8742 260.865 64.2438 260.942 64.2823C261.427 64.5595 261.912 64.8367 262.397 65.137C263.452 65.7838 264.484 66.4691 265.485 67.2006C266.448 67.8936 267.379 68.6251 268.288 69.3874C268.742 69.7724 269.196 70.1651 269.635 70.5655C269.836 70.7426 270.028 70.9274 270.221 71.1045C270.29 71.1661 270.328 71.2046 270.367 71.2431C270.405 71.2816 270.444 71.3278 270.521 71.4048C272.323 73.2682 274.032 75.1855 275.564 77.2799C276.28 78.2655 276.958 79.2742 277.605 80.2983C277.651 80.3676 277.682 80.4138 277.713 80.4677C277.851 80.7064 277.99 80.9451 278.128 81.1838C278.49 81.8229 278.829 82.462 279.16 83.1165C280.254 85.2802 281.185 87.5209 281.948 89.8232C282.109 90.3006 282.256 90.7857 282.394 91.2708C282.371 91.2246 282.664 92.2564 282.71 92.4566C283.003 93.6424 283.249 94.8436 283.449 96.0448C283.642 97.1844 283.788 98.324 283.903 99.4713C283.957 100.041 284.004 100.619 284.034 101.188C284.057 101.504 284.073 101.828 284.081 102.143C284.081 102.236 284.096 102.544 284.096 102.736C284.119 105.031 283.973 107.333 283.672 109.605C283.518 110.744 283.334 111.868 283.103 112.993C283.003 113.493 282.887 113.986 282.772 114.486C282.748 114.571 282.725 114.656 282.718 114.694C282.61 115.064 282.517 115.433 282.41 115.803C281.732 118.136 280.877 120.423 279.861 122.641C279.622 123.164 279.368 123.688 279.106 124.204C279.022 124.381 278.544 125.259 278.529 125.297C277.928 126.352 277.297 127.392 276.619 128.408C275.264 130.433 273.755 132.358 272.115 134.152C271.93 134.36 271.737 134.56 271.553 134.76C271.514 134.799 271.468 134.837 271.414 134.899C270.983 135.323 270.552 135.746 270.105 136.162C269.158 137.047 268.172 137.887 267.164 138.695C266.201 139.457 265.216 140.189 264.207 140.882L264.199 140.867Z" fill="#958F99" stroke="#0F110E" stroke-width="0.77" stroke-miterlimit="10"/>
<path d="M200.704 150.615C200.704 150.615 202.02 148.744 202.066 148.243C202.113 147.743 200.419 145.071 199.61 144.147C198.802 143.223 197.323 142.098 196.73 141.96C196.137 141.821 195.945 142.999 195.622 142.73C195.298 142.46 194.236 141.968 193.858 142.414C193.481 142.853 193.658 143.962 193.658 143.962C193.658 143.962 193.181 143.877 192.626 143.908C192.072 143.931 191.833 144.408 191.779 144.87C191.725 145.332 191.802 145.379 191.363 145.617C190.925 145.856 190.848 146.68 190.824 147.696C190.801 148.713 191.602 155.05 191.363 155.335C191.125 155.62 187.637 157.976 186.89 158.638C186.143 159.3 186.097 160.401 186.335 160.263C186.574 160.116 189.793 157.737 192.234 157.522C194.682 157.306 196.476 156.035 197.023 155.296C197.57 154.557 200.688 150.622 200.688 150.622L200.704 150.615Z" fill="white"/>
<path d="M195.429 153.364C195.429 153.364 193.243 146.087 191.872 145.771C190.501 145.448 190.748 147.365 190.933 150.907L191.448 154.865" stroke="#0F110E" stroke-width="0.77" stroke-miterlimit="10"/>
<path d="M197.215 151.462C197.215 151.462 195.097 146.433 194.828 146.033C194.558 145.633 193.75 143.839 192.626 143.892C191.509 143.946 191.748 145.91 191.748 145.91" stroke="#0F110E" stroke-width="0.77" stroke-miterlimit="10"/>
<path d="M199.98 149.498C199.98 149.498 196.477 142.807 195.037 142.299C193.597 141.79 193.366 142.945 193.789 144.485" stroke="#0F110E" stroke-width="0.77" stroke-miterlimit="10"/>
<path d="M196.099 143.246C196.099 143.246 195.422 141.221 197.67 142.306C199.171 143.03 201.936 147.219 202.067 148.235C202.198 149.252 198.709 152.801 197.585 154.549C196.461 156.297 194.536 157.606 191.61 157.506C190.162 157.46 187.321 159.731 185.373 161.464" stroke="#0F110E" stroke-width="0.77" stroke-miterlimit="10"/>
<path d="M95.7609 202.066C95.7609 202.066 120.74 209.127 125.845 207.464C130.126 206.07 117.691 204.222 117.691 204.222C117.691 204.222 126.415 206.386 127.277 204.669C128.139 202.951 118.068 201.558 118.068 201.558C118.068 201.558 128.255 203.444 128.524 201.843C128.794 200.241 118.353 198.955 118.353 198.955C118.353 198.955 128.694 200.98 129.048 199.117C129.402 197.253 118.745 195.998 118.745 195.998C118.745 195.998 125.46 195.983 125.121 194.52C124.782 193.049 111.076 193.989 100.566 190.424C94.5443 188.383 95.7609 202.066 95.7609 202.066Z" fill="white"/>
<path d="M119.007 199.371C121.387 199.864 123.851 200.264 126.292 200.226C127.115 200.21 129.202 200.249 129.295 199.04C129.372 198.008 127.924 197.5 127.177 197.23C125.629 196.676 123.974 196.383 122.349 196.129C121.256 195.96 120.162 195.806 119.061 195.706V196.283C119.901 196.276 120.74 196.237 121.571 196.175C122.603 196.098 123.912 196.091 124.852 195.59C125.791 195.09 125.683 194.32 124.805 193.904C123.72 193.396 122.311 193.403 121.125 193.28C118.222 192.98 115.319 192.795 112.416 192.549C109.968 192.341 107.519 191.756 105.109 191.263C102.699 190.77 100.343 190.323 98.0172 189.661C97.6553 189.561 97.509 190.116 97.8632 190.216C101.898 191.355 106.11 192.141 110.245 192.826C112.239 193.157 114.241 193.226 116.251 193.403C117.729 193.527 119.208 193.665 120.678 193.819C121.879 193.942 123.289 193.935 124.42 194.381C125.452 194.789 124.159 195.251 123.704 195.344C123.034 195.482 122.349 195.544 121.672 195.59C120.801 195.66 119.931 195.698 119.054 195.706C118.676 195.706 118.692 196.245 119.054 196.283C121.725 196.545 124.551 196.892 127.085 197.816C127.524 197.977 128.432 198.262 128.64 198.755C128.963 199.533 127.385 199.594 126.954 199.625C124.367 199.81 121.679 199.34 119.154 198.817C118.792 198.74 118.638 199.294 119 199.371H119.007Z" fill="#0F110E"/>
<path d="M118.544 201.912C120.592 202.312 122.656 202.659 124.735 202.89C125.751 203.005 126.953 203.213 127.961 202.936C128.701 202.736 129.317 202.074 128.87 201.304C128.577 200.795 127.992 200.48 127.469 200.264C126.506 199.864 125.467 199.694 124.435 199.587C124.065 199.548 124.065 200.126 124.435 200.164C125.32 200.256 126.213 200.403 127.053 200.711C127.492 200.872 128.008 201.103 128.3 201.488C128.739 202.074 127.984 202.374 127.492 202.436C126.491 202.551 125.428 202.397 124.435 202.282C123.195 202.135 121.955 201.943 120.723 201.727C120.046 201.612 119.368 201.488 118.698 201.358C118.336 201.288 118.182 201.843 118.544 201.912Z" fill="#0F110E"/>
<path d="M118.738 204.753C119.839 204.984 120.963 205.161 122.079 205.315C123.489 205.508 125.067 205.777 126.484 205.477C126.961 205.377 127.6 205.146 127.739 204.615C127.878 204.083 127.377 203.621 126.969 203.36C125.868 202.643 124.459 202.359 123.188 202.112C122.826 202.043 122.672 202.597 123.034 202.667C124.112 202.874 125.236 203.113 126.23 203.606C126.499 203.737 126.792 203.891 127 204.114C127.108 204.23 127.192 204.368 127.185 204.445C127.177 204.522 127.084 204.622 126.954 204.699C126.73 204.838 126.453 204.9 126.199 204.946C124.875 205.169 123.404 204.923 122.087 204.738C121.017 204.592 119.947 204.414 118.892 204.191C118.53 204.114 118.376 204.669 118.738 204.746V204.753Z" fill="#0F110E"/>
<path d="M122.804 205.408C123.297 205.485 123.79 205.577 124.275 205.677C124.937 205.816 125.976 205.931 126.508 206.393C126.646 206.516 126.708 206.624 126.623 206.84C126.408 207.356 125.591 207.502 125.114 207.587C123.374 207.902 121.503 207.71 119.763 207.517C117.614 207.286 115.566 206.794 113.464 206.309C110.284 205.577 107.104 204.83 103.939 204.045C102.276 203.637 100.613 203.213 98.9648 202.759C97.9484 202.482 96.8781 202.228 95.9079 201.796C95.5691 201.65 95.2766 202.143 95.6154 202.297C97.9562 203.336 100.636 203.814 103.107 204.43C106.603 205.3 110.114 206.124 113.633 206.932C116.128 207.502 118.507 208.01 121.072 208.21C122.612 208.326 124.321 208.457 125.822 208.01C126.354 207.849 126.985 207.579 127.178 207.002C127.27 206.732 127.247 206.401 127.093 206.155C126.731 205.585 125.707 205.408 125.114 205.261C124.406 205.084 123.682 204.946 122.958 204.838C122.596 204.784 122.434 205.338 122.804 205.392V205.408Z" fill="#0F110E"/>
<path d="M87.4491 162.365L105.775 134.537C105.775 134.537 99.5843 135.469 91.2683 139.804C85.0929 143.022 77.6239 148.366 71.3022 155.335C67.8757 159.108 64.711 162.804 62.093 168.032C59.6598 172.914 56.8108 176.717 55.6481 180.352C50.5661 196.299 57.2497 201.85 65.0652 203.929C74.5285 206.439 97.3436 206.832 97.3436 206.832L104.312 188.421L81.6433 181.284C81.6433 181.284 84.8311 169.071 87.4568 162.357L87.4491 162.365Z" fill="#6348ED"/>
<path d="M105.775 134.537C105.775 134.537 81.6355 137.917 63.4866 165.837C46.485 191.994 55.5941 201.427 65.0574 203.937C74.5207 206.447 97.3358 206.84 97.3358 206.84L104.304 188.429L75.052 179.22" stroke="#010001" stroke-width="0.77" stroke-miterlimit="10" stroke-linecap="round"/>
<path d="M81.6348 181.291C81.6348 181.291 84.8226 169.079 87.4483 162.365" stroke="#010001" stroke-width="0.77" stroke-miterlimit="10" stroke-linecap="round"/>
<path d="M104.311 188.429L97.9661 186.435L90.9668 206.647C94.7552 206.801 97.3424 206.848 97.3424 206.848L104.311 188.437V188.429Z" fill="#6348ED" stroke="#010001" stroke-width="0.77" stroke-miterlimit="10"/>
<path d="M116.682 140.62C116.682 143.584 113.309 145.995 109.144 145.995C104.978 145.995 101.605 143.592 101.605 140.62C101.605 137.648 104.978 135.245 109.144 135.245C113.309 135.245 116.682 137.648 116.682 140.62Z" fill="white" stroke="#010001" stroke-width="0.77" stroke-miterlimit="10" stroke-linecap="round"/>
<path d="M110.738 138.441H108.297H104.855L105.256 141.375L107.82 145.656H108.936H110.099H111.216L113.772 141.375L114.172 138.441H110.738Z" fill="#F19101"/>
<path d="M108.02 146.018H111.1C111.593 146.018 111.593 145.248 111.1 145.248H108.02C107.527 145.248 107.527 146.018 108.02 146.018Z" fill="#010001"/>
<path d="M109.083 132.188C102.854 132.188 97.8027 135.6 97.8027 139.811C97.8027 144.023 102.854 147.434 109.083 147.434C115.313 147.434 120.364 144.023 120.364 139.811C120.364 135.6 115.313 132.188 109.083 132.188ZM109.083 144.77C105.025 144.77 101.737 142.545 101.737 139.804C101.737 137.063 105.025 134.837 109.083 134.837C113.141 134.837 116.429 137.063 116.429 139.804C116.429 142.545 113.141 144.77 109.083 144.77Z" fill="#6348ED" stroke="#010001" stroke-width="0.77" stroke-miterlimit="10" stroke-linecap="round"/>
<path d="M118.747 135.877L114.411 132.281L109.892 130.564L108.559 130.779L103.755 132.281L99.7969 135.461L102.946 144.601L109.083 139.627L115.22 144.601L118.747 135.877Z" fill="white" stroke="#010001" stroke-width="0.77" stroke-miterlimit="10" stroke-linecap="round"/>
<path d="M117.17 104.553H111.379C107.529 104.553 104.38 108.141 104.38 112.523V121.501C104.38 121.755 104.395 122.001 104.411 122.248C104.349 122.509 104.311 122.787 104.311 123.072V134.306C104.311 136.293 105.935 137.91 107.914 137.91H110.209C112.195 137.91 113.812 136.285 113.812 134.306V129.47H117.162C121.012 129.47 124.161 125.882 124.161 121.501V112.523C124.161 108.141 121.012 104.553 117.162 104.553H117.17Z" fill="white" stroke="#010001" stroke-width="0.77" stroke-miterlimit="10"/>
<path d="M105.057 117.004C105.057 117.004 106.366 109.443 106.72 110.559C107.22 112.153 107.166 120.977 108.876 121.755C111.14 122.779 111.971 118.906 116.537 118.752C121.103 118.598 123.721 120.839 124.168 122.663C124.615 124.488 122.258 127.091 120.826 128.292C119.032 129.794 113.819 129.478 113.819 129.478C113.819 129.478 109.307 129.755 107.413 127.091C105.449 124.319 105.057 117.012 105.057 117.012V117.004Z" fill="#010001"/>
<path d="M112.582 115.456C112.582 116.18 113.167 116.765 113.891 116.765C114.615 116.765 115.2 116.18 115.2 115.456C115.2 114.732 114.615 114.147 113.891 114.147C113.167 114.147 112.582 114.732 112.582 115.456Z" fill="#010001"/>
<path d="M121.129 115.271C121.129 115.887 121.629 116.388 122.245 116.388C122.861 116.388 123.362 115.887 123.362 115.271C123.362 114.655 122.861 114.155 122.245 114.155C121.629 114.155 121.129 114.655 121.129 115.271Z" fill="#010001"/>
<path d="M119.882 120.607C119.882 120.607 119.228 122.517 117.842 122.648C116.456 122.779 115.37 121.239 115.293 120.045L119.882 120.607Z" fill="white"/>
<path d="M112.203 113.916C112.565 113.778 112.943 113.662 113.32 113.577C113.505 113.531 113.689 113.493 113.874 113.462C113.974 113.446 114.074 113.431 114.175 113.416C114.313 113.393 114.105 113.423 114.244 113.408C114.298 113.408 114.359 113.393 114.413 113.385C114.613 113.362 114.806 113.223 114.798 113C114.791 112.807 114.629 112.592 114.413 112.615C113.589 112.7 112.773 112.884 111.995 113.177C111.811 113.246 111.657 113.439 111.726 113.654C111.788 113.839 111.995 114.001 112.203 113.924V113.916Z" fill="#010001"/>
<path d="M120.651 112.908C120.828 112.892 121.005 112.892 121.174 112.9C121.251 112.9 121.328 112.9 121.398 112.915C121.452 112.915 121.498 112.923 121.544 112.931C121.559 112.931 121.667 112.946 121.59 112.931C121.929 112.977 122.252 113.062 122.576 113.177C122.768 113.246 123.007 113.1 123.053 112.908C123.099 112.692 122.984 112.507 122.784 112.43C122.106 112.184 121.367 112.084 120.643 112.13C120.443 112.145 120.25 112.299 120.258 112.515C120.266 112.707 120.427 112.915 120.643 112.9L120.651 112.908Z" fill="#010001"/>
<path d="M118.208 114.124C118.432 114.648 118.663 115.164 118.909 115.68C119.032 115.926 119.155 116.165 119.286 116.411C119.348 116.527 119.409 116.642 119.471 116.758C119.502 116.811 119.533 116.873 119.563 116.927C119.587 116.965 119.61 117.004 119.625 117.042C119.625 117.042 119.625 117.042 119.617 117.035L119.671 116.842L119.648 116.881L119.787 116.742C119.71 116.788 119.51 116.811 119.394 116.835C119.248 116.865 119.109 116.896 118.963 116.927C118.663 116.989 118.362 117.05 118.062 117.104C117.854 117.143 117.739 117.389 117.792 117.581C117.854 117.797 118.062 117.889 118.27 117.851C118.763 117.766 119.248 117.666 119.733 117.551C119.979 117.489 120.249 117.451 120.357 117.189C120.464 116.927 120.303 116.688 120.179 116.465C119.717 115.649 119.302 114.802 118.94 113.939C118.863 113.747 118.686 113.608 118.462 113.67C118.285 113.716 118.116 113.947 118.193 114.147L118.208 114.124Z" fill="#010001"/>
<path d="M105.888 118.598L106.958 111.568C106.958 111.568 126.416 114.009 132.723 104.553C139.029 95.1052 132.399 91.363 129.196 91.8943C125.985 92.4256 122.235 97.0225 122.235 97.0225C122.235 97.0225 125.223 92.9569 122.235 92.3178C119.248 91.6787 115.952 94.7741 114.235 97.985C114.235 97.985 101.407 96.7915 97.0715 104.553C92.7364 112.315 95.9396 117.951 103.871 125.967L105.98 120.8L105.88 118.59L105.888 118.598Z" fill="#010001"/>
<path d="M106.487 119.137C106.487 121.678 104.431 123.734 101.89 123.734C99.3489 123.734 97.293 121.678 97.293 119.137C97.293 116.596 99.3489 114.54 101.89 114.54C104.431 114.54 106.487 116.596 106.487 119.137Z" fill="white" stroke="#010001" stroke-width="0.77" stroke-miterlimit="10"/>
<path d="M104.5 119.352C104.569 118.244 104.046 116.996 102.998 116.519C102.436 116.257 101.805 116.211 101.197 116.272C101.027 116.288 100.881 116.403 100.881 116.588C100.881 116.75 101.027 116.927 101.197 116.904C101.474 116.873 101.751 116.865 102.028 116.896C102.121 116.904 102.19 116.919 102.313 116.942C102.421 116.965 102.521 117.004 102.629 117.035C102.644 117.035 102.667 117.05 102.683 117.058C102.613 117.027 102.698 117.066 102.706 117.073C102.744 117.096 102.783 117.112 102.829 117.135C102.914 117.181 102.991 117.235 103.068 117.289C103.006 117.243 103.106 117.32 103.122 117.335C103.152 117.358 103.183 117.389 103.214 117.42C103.276 117.481 103.329 117.543 103.391 117.612C103.337 117.543 103.414 117.643 103.422 117.658C103.445 117.689 103.468 117.72 103.483 117.751C103.53 117.82 103.568 117.889 103.599 117.966C103.614 118.005 103.63 118.036 103.653 118.074C103.622 117.997 103.676 118.12 103.653 118.074C103.653 118.09 103.668 118.105 103.676 118.12C103.707 118.197 103.73 118.267 103.753 118.344C103.791 118.475 103.822 118.598 103.845 118.729C103.845 118.76 103.853 118.783 103.861 118.813C103.876 118.898 103.861 118.744 103.861 118.829C103.861 118.883 103.876 118.937 103.876 118.991C103.884 119.114 103.892 119.237 103.876 119.352C103.868 119.522 104.03 119.668 104.192 119.668C104.377 119.668 104.5 119.522 104.508 119.352H104.5Z" fill="#010001"/>
</svg>
