<svg width="560" height="354" viewBox="0 0 560 354" fill="none" xmlns="http://www.w3.org/2000/svg">
<g clip-path="url(#clip0_10588_4847)">
<rect width="560" height="354" fill="#F0F6FF"/>
<g clip-path="url(#clip1_10588_4847)">
<path d="M530 338.45H30V338.7H530V338.45Z" fill="#D1E3FF"/>
<path d="M436.7 346.05H404.74V346.3H436.7V346.05Z" fill="#D1E3FF"/>
<path d="M476.98 345.92H441.17V346.17H476.98V345.92Z" fill="#D1E3FF"/>
<path d="M310.21 350.31H244.67V350.56H310.21V350.31Z" fill="#D1E3FF"/>
<path d="M238.91 350.31H228.27V350.56H238.91V350.31Z" fill="#D1E3FF"/>
<path d="M178.3 345.67H146.5V345.92H178.3V345.67Z" fill="#D1E3FF"/>
<path d="M369.5 345.67H340.65V345.92H369.5V345.67Z" fill="#D1E3FF"/>
<path d="M124.33 348.6H94.9297V348.85H124.33V348.6Z" fill="#D1E3FF"/>
<path d="M267.01 293.85H73.9102C70.7602 293.85 68.2002 291.29 68.2002 288.14V16.71C68.2002 13.56 70.7602 11 73.9102 11H267.01C270.16 11 272.72 13.56 272.72 16.71V288.14C272.72 291.29 270.16 293.85 267.01 293.85ZM73.9102 11.25C70.9002 11.25 68.4502 13.7 68.4502 16.71V288.14C68.4502 291.15 70.9002 293.6 73.9102 293.6H267.01C270.02 293.6 272.47 291.15 272.47 288.14V16.71C272.47 13.7 270.02 11.25 267.01 11.25H73.9102Z" fill="#D1E3FF"/>
<path d="M483.31 293.85H290.21C287.06 293.85 284.5 291.29 284.5 288.14V16.71C284.5 13.56 287.06 11 290.21 11H483.31C486.46 11 489.02 13.56 489.02 16.71V288.14C489.02 291.29 486.46 293.85 483.31 293.85ZM290.21 11.25C287.2 11.25 284.75 13.7 284.75 16.71V288.14C284.75 291.15 287.2 293.6 290.21 293.6H483.31C486.32 293.6 488.77 291.15 488.77 288.14V16.71C488.77 13.7 486.32 11.25 483.31 11.25H290.21Z" fill="#D1E3FF"/>
<path d="M182.2 271.79C173.01 271.79 163.81 270.64 154.86 268.33C136.1 263.49 118.9 253.65 105.13 239.87C62.6196 197.36 62.6196 128.19 105.13 85.68C105.23 85.58 105.39 85.58 105.48 85.68L125.55 105.75C125.65 105.85 125.65 106.01 125.55 106.1C94.2996 137.35 94.2996 188.2 125.55 219.45C145.76 239.65 175.43 247.6 202.98 240.18C203.04 240.16 203.11 240.18 203.17 240.2C203.23 240.23 203.27 240.29 203.29 240.35L210.64 267.77C210.66 267.83 210.64 267.9 210.62 267.96C210.59 268.02 210.53 268.06 210.47 268.08C201.24 270.55 191.72 271.79 182.21 271.79H182.2ZM105.31 86.21C63.1696 128.54 63.2296 197.26 105.49 239.52C132.75 266.78 172.82 277.56 210.1 267.66L202.88 240.72C175.22 248.07 145.48 240.07 125.21 219.8C109.98 204.57 101.59 184.32 101.59 162.77C101.59 141.22 109.91 121.13 125.03 105.92L105.32 86.21H105.31Z" fill="#D1E3FF"/>
<path d="M239.08 106.18C239.02 106.18 238.95 106.16 238.9 106.11C207.65 74.86 156.8 74.86 125.55 106.11C125.45 106.21 125.29 106.21 125.2 106.11L105.13 86.04C105.03 85.94 105.03 85.78 105.13 85.69C125.42 65.4 153.52 53.77 182.23 53.77C210.94 53.77 239.04 65.4 259.33 85.69C259.43 85.79 259.43 85.95 259.33 86.04L239.26 106.11C239.26 106.11 239.15 106.18 239.08 106.18ZM182.23 82.17C202.8 82.17 223.38 89.97 239.08 105.58L258.79 85.87C238.61 65.79 210.72 54.27 182.22 54.27C153.72 54.27 125.83 65.78 105.65 85.87L125.36 105.58C141.06 89.98 161.64 82.17 182.21 82.17H182.23Z" fill="#D1E3FF"/>
<path d="M210.4 268.09C210.4 268.09 210.31 268.08 210.28 268.06C210.22 268.03 210.18 267.97 210.16 267.91L202.81 240.49C202.79 240.43 202.81 240.36 202.84 240.3C202.87 240.24 202.93 240.2 202.99 240.18C216.5 236.61 228.92 229.44 238.91 219.45C270.16 188.2 270.16 137.35 238.91 106.1C238.81 106 238.81 105.84 238.91 105.75L258.98 85.68C259.08 85.58 259.24 85.58 259.33 85.68C272.83 99.18 282.59 116.08 287.54 134.54C295.02 162.49 291.09 191.84 276.46 217.17C261.84 242.51 238.4 260.59 210.46 268.08C210.44 268.08 210.42 268.08 210.4 268.08V268.09ZM203.35 240.6L210.57 267.54C268.19 251.95 302.49 192.4 287.05 134.68C282.14 116.38 272.5 99.63 259.15 86.22L239.44 105.93C254.57 121.15 262.89 141.33 262.89 162.79C262.89 184.33 254.5 204.58 239.26 219.81C229.27 229.8 216.86 236.99 203.36 240.6H203.35Z" fill="#D1E3FF"/>
<path d="M128.119 320.63V338.44C165.819 338.44 196.389 307.86 196.389 270.17C196.389 244.9 182.649 222.83 162.239 211.04L153.329 226.47C168.429 235.16 178.569 251.47 178.569 270.17C178.569 298.03 155.969 320.63 128.109 320.63H128.119Z" fill="#D1E3FF"/>
<path d="M59.8496 270.17C59.8496 288.27 67.0596 305.65 79.8496 318.44C92.6396 331.23 110.02 338.44 128.12 338.44V320.63C100.26 320.63 77.6596 298.03 77.6596 270.17H59.8496Z" fill="#E3EEFF"/>
<path d="M59.8496 270.17H77.6596C77.6596 242.28 100.26 219.71 128.12 219.71C137.31 219.71 145.93 222.16 153.34 226.47L162.25 211.04C129.82 192.32 87.7396 203.61 68.9996 236.04C63.0196 246.4 59.8596 258.19 59.8596 270.16L59.8496 270.17Z" fill="#DCE9FF"/>
<path d="M347.41 312.65H325.42V338.45H347.41V312.65Z" fill="#F3F8FF"/>
<path d="M373.89 320.43H351.9V338.45H373.89V320.43Z" fill="#D1E3FF"/>
<path d="M400.38 327.06H378.39V338.44H400.38V327.06Z" fill="#E3EEFF"/>
<path d="M264.889 320.43H242.899V338.45H264.889V320.43Z" fill="#F3F8FF"/>
<path d="M291.37 324.41H269.38V338.44H291.37V324.41Z" fill="#D1E3FF"/>
<path d="M317.859 308.22H295.869V338.45H317.859V308.22Z" fill="#E3EEFF"/>
<path d="M429.929 310.25H407.939V338.45H429.929V310.25Z" fill="#F3F8FF"/>
<path d="M456.41 320.43H434.42V338.45H456.41V320.43Z" fill="#D1E3FF"/>
<path d="M482.9 314.74H460.91V338.45H482.9V314.74Z" fill="#E3EEFF"/>
<path d="M225.89 28.4099C225.89 24.1599 229.36 20.6899 233.61 20.6899H474.08C478.33 20.6899 481.8 24.1599 481.8 28.4099V53.2599H225.89V28.4099Z" fill="#D1E3FF"/>
<path d="M282.47 36.9799C282.47 40.1999 285.08 42.8199 288.31 42.8199C291.54 42.8199 294.15 40.2099 294.15 36.9799C294.15 33.7499 291.54 31.1399 288.31 31.1399C285.08 31.1399 282.47 33.7499 282.47 36.9799Z" fill="white"/>
<path d="M267.619 42.8199C270.845 42.8199 273.459 40.2052 273.459 36.9799C273.459 33.7545 270.845 31.1399 267.619 31.1399C264.394 31.1399 261.779 33.7545 261.779 36.9799C261.779 40.2052 264.394 42.8199 267.619 42.8199Z" fill="white"/>
<path d="M246.94 42.8199C250.165 42.8199 252.78 40.2052 252.78 36.9799C252.78 33.7545 250.165 31.1399 246.94 31.1399C243.714 31.1399 241.1 33.7545 241.1 36.9799C241.1 40.2052 243.714 42.8199 246.94 42.8199Z" fill="white"/>
<path d="M474.08 220.62H233.61C229.36 220.62 225.89 217.15 225.89 212.9V53.26H481.8V212.9C481.8 217.15 478.33 220.62 474.08 220.62Z" fill="#F3F8FF"/>
<path d="M208.659 54.25C208.659 50 212.129 46.53 216.379 46.53H456.849C461.099 46.53 464.569 50 464.569 54.25V79.1H208.659V54.25Z" fill="white"/>
<path d="M265.239 62.82C265.239 66.04 267.849 68.66 271.079 68.66C274.309 68.66 276.919 66.05 276.919 62.82C276.919 59.59 274.309 56.98 271.079 56.98C267.849 56.98 265.239 59.59 265.239 62.82Z" fill="#D1E3FF"/>
<path d="M244.56 62.82C244.56 66.04 247.17 68.66 250.4 68.66C253.63 68.66 256.24 66.05 256.24 62.82C256.24 59.59 253.63 56.98 250.4 56.98C247.17 56.98 244.56 59.59 244.56 62.82Z" fill="#D1E3FF"/>
<path d="M223.879 62.82C223.879 66.04 226.489 68.66 229.719 68.66C232.949 68.66 235.559 66.05 235.559 62.82C235.559 59.59 232.949 56.98 229.719 56.98C226.489 56.98 223.879 59.59 223.879 62.82Z" fill="#D1E3FF"/>
<path d="M456.849 246.46H216.379C212.129 246.46 208.659 242.99 208.659 238.74V79.1001H464.569V238.74C464.569 242.99 461.099 246.46 456.849 246.46Z" fill="#D1E3FF"/>
<path d="M459.39 36.04H100.62C95.33 36.04 91 40.36 91 45.65V285.11C91 290.4 95.33 294.72 100.62 294.72H459.39C464.67 294.72 469 290.4 469 285.11V45.65C469 40.36 464.67 36.04 459.39 36.04Z" fill="#4EA4F9"/>
<path d="M164.15 54.8401H109.79C106.34 54.8401 103.54 52.0301 103.54 48.5901C103.54 45.1501 106.35 42.3401 109.79 42.3401H164.15C167.6 42.3401 170.4 45.1501 170.4 48.5901C170.4 52.0301 167.59 54.8401 164.15 54.8401ZM109.8 43.3301C106.9 43.3301 104.55 45.6901 104.55 48.5801C104.55 51.4701 106.91 53.8301 109.8 53.8301H164.16C167.06 53.8301 169.41 51.4701 169.41 48.5801C169.41 45.6901 167.05 43.3301 164.16 43.3301H109.8Z" fill="#DCE9FF"/>
<path d="M190.47 54.8401H183.97C180.52 54.8401 177.72 52.0301 177.72 48.5901C177.72 45.1501 180.53 42.3401 183.97 42.3401H190.47C193.92 42.3401 196.72 45.1501 196.72 48.5901C196.72 52.0301 193.91 54.8401 190.47 54.8401ZM183.97 43.3301C181.07 43.3301 178.72 45.6901 178.72 48.5801C178.72 51.4701 181.08 53.8301 183.97 53.8301H190.47C193.37 53.8301 195.72 51.4701 195.72 48.5801C195.72 45.6901 193.36 43.3301 190.47 43.3301H183.97Z" fill="#DCE9FF"/>
<path d="M469 60.9001H91V276.48H469V60.9001Z" fill="#D2E6FF"/>
<path opacity="0.9" d="M161.24 244.24C156.96 244.24 152.78 244 148.67 243.53C124.66 240.78 103.57 229.34 90.7996 212.14C90.7196 212.03 90.7396 211.87 90.8496 211.79C90.9596 211.71 91.1196 211.73 91.1996 211.84C103.88 228.92 124.85 240.29 148.72 243.03C167.81 245.22 188.29 242.36 213.19 234.02C220.55 231.56 228 228.74 235.21 226.01C258.29 217.28 282.14 208.25 307.2 209.24C319.19 209.71 331.19 212.5 342.8 215.2C348.52 216.53 354.43 217.9 360.27 218.99C382.36 223.08 399.34 221.4 412.18 213.86C415.81 211.73 419.21 209.06 422.49 206.47C427.03 202.89 431.73 199.19 437.11 196.88C447.19 192.56 459.46 193.57 469.12 199.53C469.24 199.6 469.27 199.76 469.2 199.87C469.13 199.99 468.97 200.02 468.86 199.95C459.33 194.07 447.24 193.07 437.31 197.33C431.99 199.61 427.31 203.29 422.8 206.85C419.5 209.45 416.09 212.13 412.44 214.28C399.49 221.88 382.4 223.58 360.18 219.47C354.33 218.39 348.41 217.01 342.69 215.68C331.11 212.99 319.13 210.2 307.19 209.73C282.24 208.75 258.43 217.76 235.4 226.47C228.19 229.2 220.73 232.02 213.36 234.49C193.75 241.05 176.87 244.23 161.25 244.23L161.24 244.24Z" fill="white"/>
<g style="mix-blend-mode:multiply">
<path d="M406.69 159.2C388.84 159.2 369.6 154.79 346.63 145.46C339.26 142.47 331.8 139.12 324.59 135.87C301.56 125.51 277.74 114.81 252.79 114.01C240.84 113.63 228.87 115.56 217.29 117.43C211.57 118.35 205.65 119.31 199.8 119.97C177.59 122.5 160.5 119.58 147.55 111.06C143.89 108.65 140.49 105.73 137.19 102.89C132.67 99.0101 128 94.9902 122.67 92.3302C112.73 87.3602 100.64 87.5002 91.12 92.6902C91 92.7602 90.85 92.7101 90.78 92.5901C90.71 92.4701 90.76 92.3201 90.88 92.2501C100.54 86.9801 112.81 86.8401 122.9 91.8801C128.28 94.5701 132.98 98.6102 137.52 102.51C140.8 105.33 144.2 108.25 147.83 110.64C160.68 119.1 177.66 121.99 199.75 119.47C205.59 118.81 211.5 117.85 217.22 116.93C228.82 115.06 240.83 113.12 252.82 113.51C277.87 114.31 301.73 125.04 324.81 135.42C332.02 138.66 339.47 142.01 346.83 145C371.73 155.11 392.21 159.43 411.31 158.61C435.18 157.58 456.14 147.71 468.82 131.53C468.9 131.42 469.06 131.4 469.17 131.49C469.28 131.58 469.3 131.73 469.21 131.84C456.44 148.13 435.34 158.07 411.33 159.11C409.8 159.18 408.26 159.21 406.7 159.21L406.69 159.2Z" fill="#D2E6FF"/>
</g>
<path d="M439.47 269.73H120.53C107.97 269.73 97.75 259.51 97.75 246.95V90.4301C97.75 77.8701 107.97 67.6501 120.53 67.6501H439.47C452.03 67.6501 462.25 77.8701 462.25 90.4301V246.95C462.25 259.51 452.03 269.73 439.47 269.73ZM120.53 68.1501C108.24 68.1501 98.25 78.1401 98.25 90.4301V246.95C98.25 259.24 108.25 269.23 120.53 269.23H439.47C451.76 269.23 461.75 259.23 461.75 246.95V90.4301C461.75 78.1401 451.75 68.1501 439.47 68.1501H120.53Z" fill="#F5F9FF"/>
<path d="M137.4 193.56H118.83V276.49H137.4V193.56Z" fill="white"/>
<path d="M165.02 176.63H146.45V276.48H165.02V176.63Z" fill="white"/>
<path d="M192.631 160H174.061V276.48H192.631V160Z" fill="white"/>
<path d="M220.25 139.63H201.68V276.48H220.25V139.63Z" fill="white"/>
<path d="M247.86 168.69H229.29V276.48H247.86V168.69Z" fill="white"/>
<path d="M275.48 128.29H256.91V276.48H275.48V128.29Z" fill="#4EA4F9"/>
<path d="M268.9 135.95C266.41 142.79 259.87 146.98 252.98 146.79V122.19H267.76C270.05 126.24 270.62 131.23 268.9 135.95Z" fill="#4EA4F9"/>
<path d="M303.09 178.74H284.521V276.48H303.09V178.74Z" fill="white"/>
<path d="M330.71 145.95H312.14V276.48H330.71V145.95Z" fill="white"/>
<path d="M358.32 243.83H339.75V276.48H358.32V243.83Z" fill="#0053CC"/>
<path d="M385.94 137.75H367.37V276.48H385.94V137.75Z" fill="white"/>
<path d="M413.55 99.29H394.98V276.48H413.55V99.29Z" fill="#4EA4F9"/>
<path d="M441.17 181.4H422.6V276.48H441.17V181.4Z" fill="white"/>
<path opacity="0.4" d="M268.9 135.95C266.41 142.79 259.87 146.98 252.98 146.79C251.24 146.75 249.48 146.43 247.76 145.8C239.2 142.68 234.79 133.22 237.91 124.66C241.02 116.1 250.49 111.69 259.05 114.81C262.9 116.21 265.9 118.89 267.76 122.19C270.05 126.24 270.62 131.23 268.9 135.95Z" fill="#D4E8FF"/>
<path opacity="0.4" d="M266.35 120.08L237.25 133.64C237.2 133.39 237.15 133.15 237.11 132.9C236.86 131.32 236.83 129.69 237.06 128.06L262.19 116.35C263.8 117.36 265.2 118.63 266.34 120.08H266.35Z" fill="white"/>
<path opacity="0.4" d="M269.9 129.98L242.54 142.72C240.62 141.04 239.14 138.96 238.18 136.64L268.05 122.72C269.2 124.94 269.84 127.42 269.9 129.97V129.98Z" fill="white"/>
<path d="M259.91 112.43C250.04 108.83 239.12 113.92 235.53 123.79C231.93 133.66 237.02 144.58 246.89 148.17C256.76 151.77 267.68 146.68 271.27 136.81C274.87 126.94 269.78 116.02 259.91 112.43ZM248.27 144.4C240.48 141.56 236.47 132.95 239.31 125.16C242.15 117.37 250.76 113.36 258.55 116.2C266.34 119.04 270.35 127.65 267.52 135.44C264.68 143.23 256.07 147.24 248.28 144.4H248.27Z" fill="#0053CC"/>
<path d="M249.45 146.69C248.5 151.29 247.18 155.75 245.81 160.2C245.08 162.41 244.4 164.63 243.6 166.81L242.44 170.1C242.06 171.2 241.46 172.21 239.9 172.88C238.55 173.46 236.99 172.88 236.34 171.58C235.58 170.07 235.77 168.9 236.19 167.82L237.42 164.56C238.22 162.38 239.13 160.24 239.98 158.08C241.79 153.8 243.66 149.53 245.88 145.4C246.38 144.47 247.54 144.12 248.48 144.62C249.24 145.03 249.61 145.89 249.45 146.7V146.69Z" fill="#0053CC"/>
<path d="M175.54 142.33C175.36 142.58 175.07 143.02 174.84 143.38L174.1 144.55C173.61 145.34 173.14 146.15 172.7 146.97C171.81 148.61 170.97 150.28 170.27 151.99C168.88 155.41 167.89 158.93 167.66 162.42L167.61 163.1L167.59 163.24C167.56 163.32 167.77 163.62 168.28 163.91C169.31 164.5 171.08 164.94 172.87 165.15C176.5 165.59 180.56 165.5 184.43 165.25L185.3 169.4C181.17 170.66 177.08 171.51 172.56 171.62C171.43 171.62 170.28 171.59 169.06 171.43C167.85 171.27 166.59 171.01 165.24 170.45C163.92 169.89 162.39 168.96 161.26 167.31C160.71 166.5 160.31 165.56 160.11 164.63C159.89 163.72 159.88 162.72 159.88 162.26C159.81 157.58 160.81 153.07 162.37 148.91C163.15 146.83 164.04 144.8 165.09 142.86C165.62 141.89 166.17 140.94 166.75 140C167.04 139.53 167.34 139.06 167.66 138.6C167.99 138.12 168.28 137.71 168.71 137.15L175.53 142.32L175.54 142.33Z" fill="#FF8B7B"/>
<path d="M172.55 128.41C169.09 129.26 160.91 142.89 160.91 142.89L179.24 150.49C179.24 150.49 182.55 140.11 180.47 135.96C178.31 131.64 177.22 127.27 172.54 128.42L172.55 128.41Z" fill="#0053CC"/>
<path d="M185.27 164.8L193.67 163.91L188.94 170.97C188.94 170.97 183.59 170.48 182.21 167.27L185.26 164.8H185.27Z" fill="#FF8B7B"/>
<path d="M199.66 167.65L193.21 174.65L188.95 170.97L193.67 163.91L199.66 167.65Z" fill="#FF8B7B"/>
<path d="M187.16 108.16C188.17 113.13 190.43 123.2 186.98 126.51C186.98 126.51 188.37 131.55 197.61 131.55C207.77 131.55 202.43 126.51 202.43 126.51C196.88 125.19 197 121.07 197.94 117.21L187.17 108.15L187.16 108.16Z" fill="#FF8B7B"/>
<path d="M208.12 99.3099C208.01 99.3099 207.91 99.2699 207.83 99.1899C207.68 99.0299 207.69 98.7799 207.85 98.6299C209.45 97.1299 211.23 97.5499 211.3 97.5699C211.51 97.6199 211.64 97.8399 211.59 98.0499C211.54 98.2599 211.32 98.3899 211.11 98.3399C211.05 98.3199 209.66 98.0199 208.39 99.2099C208.31 99.2799 208.22 99.3199 208.12 99.3199V99.3099Z" fill="#0F264C"/>
<path d="M209.34 104.42C209.34 104.42 209.8 107.52 210.72 109.18C209.67 109.79 208.28 109.07 208.28 109.07L209.35 104.43L209.34 104.42Z" fill="#FF5652"/>
<path d="M209.01 103.15C208.86 103.81 209.08 104.42 209.51 104.53C209.94 104.64 210.41 104.18 210.56 103.52C210.71 102.86 210.49 102.25 210.06 102.14C209.63 102.04 209.16 102.49 209.01 103.15Z" fill="#0F264C"/>
<path d="M209.87 102.13L211.55 102.05C211.55 102.05 210.46 103.09 209.87 102.13Z" fill="#0F264C"/>
<path d="M200.511 367.78H208.891L209.321 348.38H200.951L200.511 367.78Z" fill="#FF8B7B"/>
<path d="M162.45 367.78H170.83L173.4 348.38H165.02L162.45 367.78Z" fill="#FF8B7B"/>
<path d="M209.321 348.38L209.101 358.38H200.721L200.941 348.38H209.321Z" fill="#EA7063"/>
<path d="M165.02 348.38H173.4L172.07 358.38H163.69L165.02 348.38Z" fill="#EA7063"/>
<path d="M216.601 128.66C216.601 128.66 220.601 130.07 212.931 179.22H178.911C179.391 165.37 179.351 156.84 172.551 128.42C172.551 128.42 179.671 126.87 186.981 126.52C192.701 126.24 197.391 126.06 202.431 126.52C209.071 127.13 216.601 128.67 216.601 128.67V128.66Z" fill="#0053CC"/>
<path d="M219.35 137.97C220.08 142.27 221.03 146.75 222.1 151.04C222.65 153.19 223.27 155.31 223.96 157.37C224.65 159.42 225.4 161.44 226.31 163.26C226.75 164.18 227.23 165.03 227.74 165.8C227.99 166.19 228.26 166.52 228.51 166.86C228.7 167.1 228.87 167.29 229.02 167.42C229.32 167.66 229.46 167.78 229.92 167.82C230.36 167.84 231.07 167.7 231.84 167.35C233.39 166.64 235.11 165.39 236.68 163.96C237.46 163.24 238.25 162.47 239.02 161.69C239.78 160.91 240.55 160.06 241.24 159.28L244.82 161.55C244.25 162.71 243.66 163.73 243 164.77C242.36 165.81 241.66 166.83 240.88 167.8C239.32 169.75 237.62 171.7 235.14 173.27C233.9 174.05 232.41 174.76 230.54 174.99C228.69 175.26 226.46 174.78 224.84 173.74C224.02 173.23 223.34 172.64 222.75 172.02C222.26 171.47 221.78 170.93 221.37 170.37C220.53 169.26 219.81 168.13 219.19 167C216.71 162.46 215.17 157.87 213.86 153.25C213.21 150.94 212.62 148.63 212.14 146.3C211.65 143.95 211.2 141.68 210.86 139.22L219.33 137.97H219.35Z" fill="#FF8B7B"/>
<path d="M216.6 128.66C220.06 129.54 222.57 143.75 222.57 143.75L209.31 152.81C209.31 152.81 203.88 135.89 206.51 132.1C209.25 128.15 211.55 127.39 216.6 128.67V128.66Z" fill="#0053CC"/>
<path d="M244.35 162.2L248.89 155.72L241.02 155.55C241.02 155.55 239.16 159.3 240.43 162.56L244.35 162.21V162.2Z" fill="#FF8B7B"/>
<path d="M249.6 152.33L249.35 151.7C249.12 151.11 248.39 150.92 247.9 151.31L245.67 153.09C245 153.62 244.08 153.68 243.35 153.23L242.66 152.45C242.36 152.11 241.84 152.12 241.55 152.47L241.38 152.68C241.02 153.12 240.79 153.65 240.72 154.21L240.33 157.47L241.99 156.16L248.88 155.71L249.52 154.33C249.82 153.7 249.84 152.97 249.58 152.32L249.6 152.33Z" fill="#FF8B7B"/>
<path d="M187.43 95.6501C186.07 103.85 185.31 107.3 188.44 112.41C193.14 120.11 203.49 120.05 207.28 112.44C210.69 105.59 212.35 93.3201 205.18 88.2301C198.12 83.2101 188.8 87.4501 187.43 95.6501Z" fill="#FF8B7B"/>
<path d="M209.36 141.8C217.4 151.62 202.33 163.91 183.67 160.01C156.91 154.41 179.7 142.8 170.78 134.39C161.86 125.97 169.7 120.72 175.11 114.47C180.53 108.22 180.92 108.03 180.53 96.0501C180.13 84.0701 193.6 81.0301 203.69 84.4701C211.03 86.9701 207.65 98.3501 203.42 104.2C199.19 110.05 210.82 113.63 210.05 121.63C209.28 129.63 201.85 132.63 209.36 141.8Z" fill="#0F264C"/>
<path d="M197.21 83.2C205.79 82.29 211.52 83.39 212.19 90.51C212.86 97.63 202.33 101.79 202.33 101.79L197.21 83.2Z" fill="#0F264C"/>
<path d="M200.821 102.81C200.601 104.52 201.191 106.18 202.071 107.29C203.401 108.97 205.301 108.09 205.971 106.18C206.571 104.47 206.611 101.53 204.781 100.54C202.981 99.5601 201.071 100.85 200.821 102.8V102.81Z" fill="#FF8B7B"/>
<path d="M203.94 179.22C203.94 179.22 202.06 196.48 199.56 217.37C197.96 230.7 196.11 245.51 194.33 258.26C193.89 261.49 193.44 264.58 193.01 267.49C189.11 293.66 174.08 356.45 174.08 356.45H162.66C162.66 356.45 169.04 295.76 170.94 269.87C175.75 204.38 168.11 194.4 178.91 179.22H203.94Z" fill="#0F264C"/>
<path d="M175.96 356.64H160.79L161.04 351.24L177.21 350.83L175.96 356.64Z" fill="#D2E6FF"/>
<path d="M199.56 217.37C197.96 230.7 196.11 245.51 194.33 258.26C191.67 244.72 185.67 211.22 195.1 205.38C197.37 208.38 198.78 212.57 199.56 217.37Z" fill="#0C203D"/>
<path d="M212.93 179.21C212.93 179.21 218.341 242.12 217.961 267.66C217.561 294.23 210.87 356.44 210.87 356.44H199.54C199.54 356.44 198.301 295.78 197.131 269.69C195.851 241.24 188.021 179.21 188.021 179.21H212.93Z" fill="#0F264C"/>
<path d="M212.57 356.64H197.67L197.4 351.24L213.82 350.83L212.57 356.64Z" fill="#D2E6FF"/>
<path d="M178.391 177.22L176.881 180.27C176.761 180.51 177.041 180.75 177.441 180.75H213.121C213.431 180.75 213.681 180.6 213.701 180.41L213.991 177.36C214.011 177.15 213.741 176.97 213.411 176.97H178.961C178.711 176.97 178.481 177.07 178.411 177.23L178.391 177.22Z" fill="#9FC6FF"/>
<path d="M183.04 181.07H182.12C181.94 181.07 181.8 180.98 181.81 180.86L182.22 176.9C182.23 176.78 182.39 176.69 182.58 176.69H183.5C183.68 176.69 183.82 176.78 183.81 176.9L183.4 180.86C183.39 180.98 183.23 181.07 183.04 181.07Z" fill="#0F264C"/>
<path d="M205.4 181.07H204.48C204.3 181.07 204.16 180.98 204.17 180.86L204.58 176.9C204.59 176.78 204.75 176.69 204.94 176.69H205.86C206.04 176.69 206.18 176.78 206.17 176.9L205.76 180.86C205.75 180.98 205.59 181.07 205.4 181.07Z" fill="#0F264C"/>
</g>
</g>
<defs>
<clipPath id="clip0_10588_4847">
<rect width="560" height="354" fill="white"/>
</clipPath>
<clipPath id="clip1_10588_4847">
<rect width="500" height="372.61" fill="white" transform="translate(30 11)"/>
</clipPath>
</defs>
</svg>
