<svg width="560" height="354" viewBox="0 0 560 354" fill="none" xmlns="http://www.w3.org/2000/svg">
<g clip-path="url(#clip0_10588_4849)">
<rect width="560" height="354" fill="#F9F9FF"/>
<g clip-path="url(#clip1_10588_4849)">
<path d="M496.578 428.73L495.829 428.269C538.434 358.98 560.637 296.373 561.819 242.194C563.043 186.16 541.314 151.901 522.874 133.025C505.163 114.898 481.978 102.286 457.588 97.5202C434.72 93.05 412.341 95.8883 396.187 105.31L395.744 104.551C412.081 95.0231 434.685 92.1426 457.753 96.655C482.316 101.459 505.669 114.156 523.504 132.409C542.063 151.405 563.929 185.872 562.698 242.211C561.513 296.549 539.264 359.3 496.574 428.727L496.578 428.73Z" fill="#E5E5FF"/>
<path opacity="0.4" d="M530.73 183.192C510.835 140.087 472.182 106.394 424.104 100.538C385.748 95.8638 347.169 95.2412 308.647 92.8883C267.987 90.4088 228.181 82.8613 188.002 76.2527C162.212 72.0077 139.615 78.2786 114.609 87.349C80.4511 99.7395 47.4402 139.749 32.5455 171.758C-3.34231 248.876 16.4797 345.876 48.1049 421.024C49.6559 424.707 60.3337 454 63.5377 454H481.808C507.043 416.994 527.723 376.291 539.203 334.266C552.846 284.328 552.701 230.781 530.734 183.188L530.73 183.192Z" fill="#E5E5FF"/>
<path d="M21.8634 338.071C5.44237 286.86 -1.78866 242.327 0.370799 205.711C2.168 175.257 10.4612 149.963 25.0112 130.535C58.3562 86.0159 114.052 86.8951 114.615 86.9092L114.594 87.7885C114.052 87.7709 58.7782 86.9127 25.7111 131.069C11.2631 150.36 3.0332 175.493 1.25006 205.771C-0.902369 242.274 6.31459 286.698 22.704 337.801L21.8669 338.068L21.8634 338.071Z" fill="#E5E5FF"/>
<path d="M423.822 30.4398H123.678C117.696 30.4398 112.846 35.2897 112.846 41.2723V333.225C112.846 339.208 117.696 344.058 123.678 344.058H423.822C429.805 344.058 434.655 339.208 434.655 333.225V41.2723C434.655 35.2897 429.805 30.4398 423.822 30.4398Z" fill="#E5E5FF"/>
<path d="M423.823 344.497H123.682C117.468 344.497 112.41 339.44 112.41 333.221V41.2721C112.41 35.0575 117.468 30 123.682 30H423.823C430.041 30 435.098 35.0575 435.098 41.2721V333.221C435.098 339.44 430.041 344.497 423.823 344.497ZM123.682 30.8793C117.949 30.8793 113.289 35.5429 113.289 41.2721V333.221C113.289 338.954 117.953 343.618 123.682 343.618H423.823C429.556 343.618 434.219 338.954 434.219 333.221V41.2721C434.219 35.5393 429.556 30.8793 423.823 30.8793H123.682Z" fill="#CBCBFF"/>
<path d="M397.729 66.978H329.146V71.9828H397.729V66.978Z" fill="#9192FF"/>
<path d="M416.874 88.5198H307.604V93.5245H416.874V88.5198Z" fill="#B7B7FF"/>
<path d="M406.021 103.32H307.604V108.324H406.021V103.32Z" fill="#B7B7FF"/>
<path d="M394.721 118.123H307.604V123.128H394.721V118.123Z" fill="#CBCBFF"/>
<path d="M416.874 132.922H307.604V137.927H416.874V132.922Z" fill="#CBCBFF"/>
<path d="M388.263 147.722H307.604V152.727H388.263V147.722Z" fill="#CBCBFF"/>
<path d="M240.919 228.91H136.045V233.914H240.919V228.91Z" fill="#B7B7FF"/>
<path d="M407.511 242.538H136.344V247.543H407.511V242.538Z" fill="#CBCBFF"/>
<path d="M262.504 66.978H136.211V200.636H262.504V66.978Z" fill="white"/>
<path d="M156.413 155.27H147.631V186.008H156.413V155.27Z" fill="#B7B7FF"/>
<path d="M172.192 159.603H163.41V186.008H172.192V159.603Z" fill="#E0E0FF"/>
<path d="M187.97 142.855H179.188V186.005H187.97V142.855Z" fill="#B7B7FF"/>
<path d="M203.749 145.946H194.967V186.009H203.749V145.946Z" fill="#E0E0FF"/>
<path d="M219.526 132.117H210.744V186.009H219.526V132.117Z" fill="#B7B7FF"/>
<path d="M235.304 124.647H226.521V186.009H235.304V124.647Z" fill="#E0E0FF"/>
<path d="M251.085 117.985H242.303V186.008H251.085V117.985Z" fill="#B7B7FF"/>
<path d="M166.268 138.416L149.686 131.783L150.002 130.992L166.114 137.435L182.531 123.849L197.844 124.207L244.005 95.7017L244.452 96.4262L198.076 125.065L182.83 124.71L166.268 138.416Z" fill="#B7B7FF"/>
<path d="M164.044 93.4578H146.029V100.946H164.044V93.4578Z" fill="#B7B7FF"/>
<path d="M186.852 97.7522H169.998V98.6315H186.852V97.7522Z" fill="#B7B7FF"/>
<path d="M385.982 209.773C396.844 209.773 405.649 200.968 405.649 190.106C405.649 179.244 396.844 170.439 385.982 170.439C375.12 170.439 366.314 179.244 366.314 190.106C366.314 200.968 375.12 209.773 385.982 209.773Z" fill="white"/>
<path d="M329.939 209.773C319.078 209.773 310.271 200.967 310.271 190.106C310.271 180.283 317.474 172.134 326.893 170.664C327.881 170.513 328.898 170.432 329.935 170.432C335.756 170.432 340.982 172.964 344.573 176.98C347.703 180.462 349.599 185.066 349.599 190.106C349.599 200.967 340.792 209.773 329.932 209.773H329.939Z" fill="white"/>
<path d="M329.939 190.11L326.896 170.667C327.885 170.516 328.901 170.435 329.939 170.435C335.759 170.435 340.986 172.968 344.577 176.984L329.939 190.11Z" fill="#B7B7FF"/>
<path d="M408.242 266.271H138.352V318.147H408.242V266.271Z" fill="white"/>
<path d="M409.027 318.921H138.482V266.384H409.027V318.921ZM139.144 318.263H408.369V267.048H139.144V318.263Z" fill="#B7B7FF"/>
<path d="M408.696 307.888H138.812V308.549H408.696V307.888Z" fill="#B7B7FF"/>
<path d="M408.696 297.513H138.812V298.174H408.696V297.513Z" fill="#B7B7FF"/>
<path d="M408.696 287.138H138.812V287.799H408.696V287.138Z" fill="#B7B7FF"/>
<path d="M408.696 276.762H138.812V277.423H408.696V276.762Z" fill="#B7B7FF"/>
<path d="M364.044 266.718H363.387V318.594H364.044V266.718Z" fill="#B7B7FF"/>
<path d="M319.064 266.718H318.406V318.594H319.064V266.718Z" fill="#B7B7FF"/>
<path d="M274.085 266.718H273.428V318.594H274.085V266.718Z" fill="#B7B7FF"/>
<path d="M229.103 266.718H228.445V318.594H229.103V266.718Z" fill="#B7B7FF"/>
<path d="M184.123 266.718H183.465V318.594H184.123V266.718Z" fill="#B7B7FF"/>
<path d="M146.226 310.378C150.151 304.913 150.998 297.875 154.501 292.118C156.211 289.311 158.476 286.526 161.606 285.27C167.004 283.104 168.383 290.074 168.496 293.943C168.664 299.634 167.722 305.81 172.421 310.083C173.989 311.511 176.068 312.355 178.185 311.792C180.724 311.117 182.307 308.792 183.563 306.654C187.161 300.534 189.447 293.521 191.947 286.902C193.21 283.557 194.817 279.277 198.123 277.402C202.84 274.733 203.353 280.642 203.342 283.754C203.328 287.166 203.367 290.577 203.395 293.989C203.409 295.628 203.072 299.05 204.999 299.964C206.131 300.502 207.032 299.475 207.668 298.649C208.221 297.931 208.607 297.094 209.16 296.38C209.68 295.709 210.141 295.301 211.08 295.223C211.942 295.153 212.353 295.142 212.937 295.934C213.264 296.377 213.415 296.999 213.552 297.516C214.231 300.077 213.535 302.975 214.984 305.342C215.789 306.657 217.527 307.972 219.159 307.712C222.454 307.192 223.291 301.825 223.685 299.243C224.213 295.789 224.708 292.357 225.658 288.988C226.615 285.594 227.856 281.538 230.438 279.003C231.419 278.035 232.773 277.072 234.226 277.237C236.35 277.476 237.015 279.871 237.532 281.588C238.703 285.463 239.403 289.522 239.403 293.577C239.403 296.38 238.587 299.883 240.454 302.307C241.457 303.608 243.155 304.353 244.784 303.949C247.161 303.358 247.734 301.051 248.216 298.958C248.311 298.543 248.385 298.111 248.54 297.713C249.004 296.535 249.187 296.398 250.46 296.345C251.86 296.289 251.916 296.616 252.141 297.777C252.37 298.948 252.25 300.13 252.602 301.283C253.049 302.746 254.076 304.093 255.767 303.587C257.329 303.123 258.166 301.448 258.683 300.038C260.167 295.979 260.03 291.485 260.252 287.236C260.399 284.422 260.624 281.398 261.926 278.844C262.77 277.181 265.27 274.49 267.198 276.245C269.709 278.528 269.466 284.088 269.523 287.159C269.646 293.746 268.541 300.358 269.463 306.924C269.807 309.379 270.504 313.044 273.229 313.973C277.003 315.26 279.782 311.152 280.784 308.145C281.582 305.757 281.765 303.256 282.332 300.815C282.631 299.532 283.088 297.189 284.836 297.924C286.345 298.554 286.967 300.689 288.293 301.656C292.58 304.772 295.204 298.691 295.707 295.403C296.442 290.591 295.686 285.291 297.486 280.691C297.94 279.527 298.658 278.292 299.727 277.589C302.344 275.865 304.925 278.25 305.713 280.687C306.311 282.537 306.198 284.612 306.233 286.533C306.272 288.615 306.328 290.7 306.367 292.782C306.43 296.226 306.121 299.739 306.342 303.168C306.497 305.553 307.398 307.723 309.459 309.07C314.629 312.45 320.674 307.178 323.973 303.481C327.722 299.278 330.244 294.284 332.186 289.044C333.167 286.395 334.148 283.687 335.682 281.296C336.522 279.984 338.864 276.84 340.785 277.708C342.037 278.275 342.452 280.536 342.719 281.704C343.173 283.67 343.391 285.692 343.553 287.7C343.862 291.527 343.887 295.36 343.957 299.194C344.017 302.44 344.291 307.336 347.9 308.651C353.534 310.705 356.221 302.634 357.783 298.906C359.073 295.818 360.649 291.632 363.656 289.796C366.209 288.235 367.989 290.644 368.935 292.786C369.843 294.84 370.307 297.119 370.338 299.359C370.36 300.924 370.236 302.883 371.949 303.64C375.688 305.289 379.096 299.103 380.548 296.665C381.874 294.442 382.88 292.114 383.988 289.782C385.384 286.853 389.953 281.254 391.852 286.867C392.57 288.988 392.32 291.274 392.176 293.461C392.014 295.944 391.838 298.434 391.915 300.924C392.007 303.801 392.527 310.072 396.867 309.407C399.495 309.003 402.203 306.108 404.176 304.466C407.063 302.06 409.785 299.475 412.367 296.746C412.757 296.335 412.135 295.712 411.744 296.124C409.159 298.849 406.437 301.438 403.553 303.843C402.006 305.134 400.434 306.439 398.763 307.565C396.59 309.028 394.465 308.363 393.6 306.123C391.898 301.723 392.935 296.282 393.164 291.706C393.301 288.984 392.96 282.755 388.789 283.512C386.292 283.965 384.565 286.659 383.524 288.734C382.339 291.091 381.371 293.517 380.038 295.8C378.716 298.065 377.197 300.763 374.995 302.285C373.335 303.432 371.39 302.89 371.204 300.661C371.119 299.644 371.228 298.631 371.109 297.608C370.76 294.657 369.639 289.779 366.445 288.587C362.01 286.927 358.778 294.39 357.519 297.312C356.228 300.302 355.226 304.132 352.838 306.467C351.153 308.113 348.42 308.683 346.697 306.78C345.438 305.387 345.121 303.196 344.945 301.406C344.26 294.457 345.297 287.275 343.314 280.462C342.74 278.496 341.653 276.069 339.22 276.931C335.143 278.373 333.286 283.67 331.897 287.32C329.678 293.155 327.216 298.737 322.89 303.376C320.393 306.052 316.774 309.358 312.87 309.281C307.742 309.179 307.102 304.062 307.25 300.14C307.394 296.306 307.243 292.459 307.158 288.625C307.092 285.534 307.507 281.851 305.98 279.027C305.009 277.227 302.945 275.792 300.821 276.168C299.016 276.488 297.673 278.19 296.945 279.752C294.982 283.958 295.503 289.037 295.06 293.539C294.807 296.11 294.349 300.523 291.339 301.417C287.551 302.542 287.431 296.852 284.245 296.743C280.869 296.627 280.84 304.74 280.257 306.872C279.536 309.506 278.167 312.647 275.167 313.216C273.31 313.568 272.076 312.404 271.355 310.807C269.716 307.181 269.92 302.613 270.018 298.726C270.096 295.825 270.353 292.93 270.405 290.029C270.462 286.898 271.084 273.46 265.116 274.902C260.987 275.901 259.928 281.232 259.562 284.764C259.073 289.469 259.488 294.295 258.145 298.892C257.797 300.087 257.332 301.466 256.33 302.278C255.289 303.126 254.044 302.402 253.531 301.311C253.182 300.573 253.2 299.641 253.13 298.853C253.014 297.513 252.845 295.522 251.354 294.963C249.63 294.312 248.216 296.074 247.699 297.492C247.056 299.247 247.267 301.55 245.487 302.715C243.7 303.879 241.601 302.781 240.739 301.054C239.842 299.257 240.166 297.066 240.254 295.132C240.342 293.166 240.257 291.203 240.032 289.251C239.649 285.942 239.03 282.309 237.669 279.245C235.791 275.018 231.609 276.14 229.119 279.179C224.891 284.334 223.829 292.174 222.915 298.536C222.619 300.576 222.232 302.693 221.322 304.561C220.854 305.518 220.182 306.65 219.042 306.844C217.14 307.167 215.564 304.969 215.146 303.411C214.467 300.875 215.107 291.875 209.824 294.636C208.185 295.494 208.027 297.541 206.627 298.571C204.44 300.182 204.306 296.623 204.292 295.244C204.267 293.18 204.257 291.112 204.239 289.047C204.215 286.272 204.426 283.392 204.088 280.631C203.874 278.869 203.335 276.815 201.517 276.091C196.593 274.125 192.921 282.07 191.599 285.404C188.796 292.469 186.552 300.02 182.613 306.555C180.45 310.143 176.757 312.833 173.05 309.474C170.402 307.072 169.428 303.548 169.357 300.094C169.266 295.603 170.613 286.529 165.228 284.194C160.54 282.161 155.567 288.629 153.583 291.956C150.193 297.639 149.317 304.582 145.466 309.946C145.135 310.406 145.899 310.846 146.226 310.389V310.378Z" fill="#9192FF"/>
<path d="M497.321 69.7957C478.853 69.7957 463.881 84.7677 463.881 103.236C463.881 114.75 469.702 124.904 478.561 130.918L477.277 146.323L489.83 135.821C492.239 136.373 494.746 136.676 497.321 136.676C515.789 136.676 530.761 121.704 530.761 103.236C530.761 84.7677 515.789 69.7957 497.321 69.7957Z" fill="white"/>
<path d="M476.748 147.339L478.098 131.14C468.915 124.802 463.439 114.392 463.439 103.239C463.439 84.5565 478.637 69.3594 497.319 69.3594C516.002 69.3594 531.199 84.5565 531.199 103.239C531.199 121.922 516.002 137.119 497.319 137.119C494.857 137.119 492.378 136.844 489.94 136.303L476.748 147.343V147.339ZM497.319 70.2351C479.122 70.2351 464.319 85.0383 464.319 103.235C464.319 114.184 469.735 124.398 478.805 130.556L479.016 130.7L477.8 145.313L489.712 135.346L489.926 135.395C492.367 135.954 494.854 136.236 497.323 136.236C515.52 136.236 530.323 121.433 530.323 103.235C530.323 85.0383 515.52 70.2351 497.323 70.2351H497.319Z" fill="#5254CF"/>
<path d="M479.002 108L484.005 102.439L479.113 97H482.184L485.514 100.779L488.807 97H491.877L486.986 102.439L492 108H488.917L485.512 104.099L482.083 108H479H479.002Z" fill="#5254CF"/>
<path d="M496.012 115.989L496.031 112.319L508.906 101.227C509.946 100.348 510.654 99.5054 511.029 98.7008C511.405 97.8999 511.592 97.0953 511.592 96.2944C511.592 95.283 511.358 94.3694 510.892 93.561C510.427 92.7526 509.786 92.1097 508.964 91.6359C508.143 91.1622 507.197 90.9253 506.129 90.9253C505.061 90.9253 504.06 91.1735 503.204 91.666C502.347 92.1586 501.682 92.8128 501.201 93.6287C500.72 94.4446 500.49 95.3281 500.501 96.2756H496.109C496.109 94.4333 496.544 92.8165 497.412 91.4291C498.28 90.0417 499.477 88.9551 500.994 88.1731C502.512 87.391 504.252 87 506.207 87C508.163 87 509.739 87.4061 511.217 88.2144C512.695 89.0228 513.861 90.132 514.717 91.5419C515.574 92.9519 516 94.5574 516 96.3584C516 97.6593 515.82 98.7684 515.464 99.6746C515.108 100.584 514.573 101.427 513.865 102.201C513.153 102.98 512.265 103.822 511.194 104.728L501.256 113.255L500.783 112.071H515.996V116H496L496.012 115.989Z" fill="#5254CF"/>
<path d="M77.717 112.035C77.717 95.7968 64.5527 82.6326 48.3145 82.6326C32.0764 82.6326 18.9121 95.7968 18.9121 112.035C18.9121 128.273 32.0764 141.437 48.3145 141.437C50.984 141.437 53.5655 141.075 56.0239 140.41L66.2303 148.95L65.1612 136.127C72.7509 130.809 77.717 122.006 77.717 112.035Z" fill="white"/>
<path d="M66.7526 149.963L55.9131 140.892C53.4265 141.546 50.8732 141.877 48.3128 141.877C31.8601 141.877 18.4707 128.491 18.4707 112.035C18.4707 95.5787 31.8565 82.1929 48.3128 82.1929C64.769 82.1929 78.1548 95.5787 78.1548 112.035C78.1548 121.672 73.4737 130.739 65.6166 136.341L66.7526 149.963ZM56.1276 139.925L65.701 147.937L64.6986 135.912L64.9061 135.768C72.6507 130.341 77.2756 121.471 77.2756 112.038C77.2756 96.0676 64.2836 83.0757 48.3128 83.0757C32.3419 83.0757 19.35 96.0676 19.35 112.038C19.35 128.009 32.3419 141.001 48.3128 141.001C50.8732 141.001 53.4265 140.66 55.906 139.988L56.1276 139.929V139.925Z" fill="#5254CF"/>
<path d="M47.9252 121.207L39.5898 112.872L40.2124 112.25L47.6368 119.678L56.2465 100.07L57.0519 100.422L47.9252 121.207Z" fill="#5254CF"/>
<path d="M208.224 150.571L200.339 155.189L116.507 204.312C113.929 205.824 110.908 205.469 109.712 203.506V203.499C108.513 201.54 109.575 198.691 112.096 197.088L193.927 145.057L201.802 140.052L208.224 150.571Z" fill="#5254CF"/>
<path opacity="0.6" d="M208.223 150.571L200.337 155.189C198.797 153.716 197.446 152.041 196.307 150.174C195.311 148.542 194.52 146.826 193.926 145.06L201.8 140.055L208.223 150.575V150.571Z" fill="#1B1B43"/>
<path d="M197.15 153.205C195.908 153.965 194.283 153.571 193.524 152.33C192.764 151.088 193.158 149.463 194.399 148.704C195.641 147.944 197.266 148.338 198.025 149.579C198.785 150.821 198.391 152.446 197.15 153.205Z" fill="white"/>
<path d="M236.878 167.586C259.926 167.586 278.611 148.902 278.611 125.853C278.611 102.805 259.926 84.1201 236.878 84.1201C213.829 84.1201 195.145 102.805 195.145 125.853C195.145 148.902 213.829 167.586 236.878 167.586Z" fill="#5254CF"/>
<path d="M236.879 159.705C255.574 159.705 270.73 144.549 270.73 125.853C270.73 107.158 255.574 92.0017 236.879 92.0017C218.183 92.0017 203.027 107.158 203.027 125.853C203.027 144.549 218.183 159.705 236.879 159.705Z" fill="white"/>
<mask id="mask0_10588_4849" style="mask-type:luminance" maskUnits="userSpaceOnUse" x="203" y="92" width="68" height="68">
<path d="M236.881 159.705C255.576 159.705 270.732 144.549 270.732 125.853C270.732 107.158 255.576 92.0017 236.881 92.0017C218.185 92.0017 203.029 107.158 203.029 125.853C203.029 144.549 218.185 159.705 236.881 159.705Z" fill="white"/>
</mask>
<g mask="url(#mask0_10588_4849)">
<path d="M223.119 137.298H212.508V202.423H223.119V137.298Z" fill="#B7B7FF"/>
<path d="M242.187 128.709H231.576V202.862H242.187V128.709Z" fill="#E0E0FF"/>
<path d="M261.253 119.484H250.643V201.688H261.253V119.484Z" fill="#B7B7FF"/>
<path d="M249.402 107.042L200.783 122.595L201.185 123.852L249.804 108.298L249.402 107.042Z" fill="#B7B7FF"/>
<path d="M246.373 113.34L245.3 112.573L248.501 108.078L243.865 106.492L244.294 105.244L249.415 106.999C249.686 107.073 249.922 107.305 250.017 107.611C250.108 107.913 250.041 108.24 249.837 108.483L246.38 113.343L246.373 113.34ZM248.979 108.24C248.979 108.24 249.007 108.251 249.021 108.254L248.979 108.24ZM248.793 107.667C248.793 107.667 248.779 107.684 248.775 107.695L248.793 107.667Z" fill="#B7B7FF"/>
</g>
<path d="M159.008 423.226L131.019 425.424L125.156 325.477L116.487 292.621L105.144 249.649L104.553 247.406L101.82 237.048L101.416 235.5L106.772 235.015L135.707 232.419L137.455 240.333V240.34L154.787 318.71C155.35 321.26 155.684 323.862 155.772 326.472L159.008 423.219V423.226Z" fill="#5254CF"/>
<path d="M118.714 270.382L116.491 292.617L112.886 328.614C112.475 332.757 111.55 336.844 110.133 340.754L80.3187 423.222L55.2598 413.55L78.5601 329.141C84.5672 294.393 83.5719 267.723 85.1194 250.806C85.2144 249.751 85.3199 248.742 85.4359 247.764C86.062 242.583 87.0292 238.479 88.6716 235.497L101.825 237.044L111.093 238.134L113.104 246.656L113.509 248.379L118.714 270.379V270.382Z" fill="#5254CF"/>
<path opacity="0.6" d="M137.46 240.34L137.762 243.709C137.762 243.709 98.4874 254.26 85.1191 250.81C85.2141 249.755 85.3196 248.746 85.4357 247.768C86.0617 242.587 87.0289 238.483 88.6713 235.5L101.825 237.048L101.421 235.5L106.777 235.015L135.712 232.419L137.46 240.333V240.34Z" fill="#1B1B43"/>
<path d="M124.731 325.955L111.602 274.096L100.844 270.653L101.111 269.816L112.334 273.407L112.394 273.643L125.583 325.737L124.731 325.955Z" fill="#1B1B43"/>
<path d="M144.876 328.238L144.566 327.415C151.467 324.826 155.216 322.424 155.255 322.399L155.733 323.138C155.578 323.236 151.875 325.61 144.879 328.234L144.876 328.238Z" fill="#1B1B43"/>
<path d="M111.263 337.055C111.196 337.048 104.556 336.373 98.0039 334.625L98.229 333.773C104.714 335.504 111.284 336.172 111.348 336.179L111.26 337.055H111.263Z" fill="#1B1B43"/>
<path d="M99.441 171.902L87.5464 176.689C84.0891 178.081 81.3318 180.793 79.8828 184.222L69.9014 208.113C67.9002 212.9 69.2332 218.432 73.1934 221.788C76.4642 224.555 80.9695 225.354 84.993 223.877L93.4339 220.775L99.441 171.902Z" fill="#FFB147"/>
<path d="M181.693 150.198C179.47 151.295 176.906 155.973 177.881 157.654C178.679 159.033 180.532 157.169 181.148 156.529C182.273 155.354 185.175 152.213 183.575 150.43C183.065 149.86 182.397 149.853 181.697 150.198H181.693Z" fill="#FFBC96"/>
<path d="M176.317 151.886C174.471 153.543 173.261 158.737 174.65 160.095C175.79 161.206 177.074 158.91 177.492 158.129C178.259 156.694 180.211 152.888 178.185 151.601C177.538 151.19 176.894 151.362 176.314 151.883L176.317 151.886Z" fill="#FFBC96"/>
<path d="M172.743 154.496C170.879 156.096 169.567 161.009 170.914 162.258C172.018 163.281 173.341 161.09 173.773 160.348C174.565 158.98 176.58 155.358 174.603 154.19C173.974 153.817 173.33 153.993 172.743 154.496Z" fill="#FFBC96"/>
<path d="M169.342 155.709C167.478 157.31 166.166 162.223 167.514 163.471C168.618 164.495 169.94 162.304 170.373 161.562C171.164 160.194 173.179 156.571 171.203 155.403C170.573 155.031 169.93 155.206 169.342 155.709Z" fill="#FFBC96"/>
<path d="M99.4421 172.042L87.0586 193.331C87.0586 193.331 90.2837 228.501 87.9379 232.82C85.592 237.139 80.3164 240.533 83.5416 243.002C86.7667 245.471 112.265 249.79 139.814 243.312C147.436 241.152 142.16 237.143 140.402 235.289C138.643 233.436 136.297 186.853 136.297 186.853L120.453 172.415L108.748 169.267L99.4421 172.042Z" fill="#FFB147"/>
<path opacity="0.2" d="M120.211 172.415C118.013 176.263 92.1419 180.216 99.4397 171.902L106.913 170.326L120.211 172.415Z" fill="#1B1B43"/>
<path d="M153.735 197.474L143.525 182.333C141.158 178.485 137.296 175.795 132.868 174.905L120.471 172.415L127.797 199.89C127.797 199.89 139.227 215.935 149.56 219.673C158.831 223.029 171.13 217.518 177.911 181.278L162.538 179.182L153.738 197.47L153.735 197.474Z" fill="#FFB147"/>
<path d="M186.34 159.74C184.786 159.543 179.454 167.579 179.454 167.579L170.834 170.516C167.676 171.592 165.083 173.889 163.638 176.896L162.537 179.185L177.91 181.282C178.163 179.927 178.409 178.545 178.649 177.107C183.924 172.345 189.787 160.183 186.344 159.74H186.34Z" fill="#FFBC96"/>
<path d="M122.576 138.447L125.692 142.759C126.223 143.494 125.893 144.486 125.007 144.827L121.679 146.111L119.33 140.898L122.573 138.444L122.576 138.447Z" fill="#D28572"/>
<path d="M102.419 162.138C103.203 154.207 102.883 146.259 102.883 146.259L117.092 147.289C116.969 148.872 116.952 150.507 117.011 152.15C117.106 154.742 117.398 157.372 117.803 159.912C118.021 161.311 118.277 162.683 118.548 164.002L102.412 162.138H102.419Z" fill="#FFBC96"/>
<path d="M117.803 159.912C111.789 157.415 109.475 152.041 109.475 152.041L117.012 152.146C117.107 154.738 117.398 157.369 117.803 159.908V159.912Z" fill="#D28572"/>
<path d="M102.413 162.131L99.4336 171.901C106.288 173.551 113.308 173.621 120.462 172.415L118.549 163.999L102.409 162.135L102.413 162.131Z" fill="#FFF5E8"/>
<path d="M122.225 131.164L123.695 150.824C123.825 151.664 123.312 152.435 122.587 153.113C121.342 154.278 119.633 154.809 117.931 154.735L107.861 154.316L100.68 146.255L106.247 129.11L116.359 128.962L122.222 131.16L122.225 131.164Z" fill="#FFBC96"/>
<path d="M105.702 142.851C105.702 142.851 108.34 151.095 102.733 155.269C96.6876 153.293 85.4788 134.937 99.4344 129.11C99.4344 129.11 103.282 119.329 113.721 122.955C122.935 126.155 125.369 131.747 125.369 131.747C125.369 131.747 118.884 136.583 111.301 132.078C111.301 132.078 112.071 141.859 105.695 142.847L105.702 142.851Z" fill="#1B1B43"/>
<path d="M109.423 139.485C111.066 141.518 110.901 144.37 109.061 145.858C107.218 147.346 104.398 146.902 102.755 144.87C101.113 142.837 101.278 139.984 103.117 138.497C104.96 137.009 107.781 137.452 109.423 139.485Z" fill="#FFBC96"/>
<path d="M107.396 144.212C107.36 144.068 106.481 140.716 104.121 141.229L103.98 140.586C106.369 140.069 107.677 142.629 108.032 144.054L107.392 144.215L107.396 144.212Z" fill="#1B1B43"/>
<path opacity="0.4" d="M119.942 144.142C120.314 142.567 119.338 140.989 117.764 140.617C116.189 140.246 114.611 141.221 114.239 142.796C113.868 144.37 114.843 145.948 116.418 146.32C117.993 146.692 119.57 145.716 119.942 144.142Z" fill="#FE5B52"/>
<path d="M86.7338 244.817C84.0643 244.18 82.5555 243.192 82.1194 241.789C81.409 239.506 83.7654 236.889 85.8475 234.582C86.171 234.224 86.4876 233.875 86.7725 233.541C87.3493 232.876 87.7432 232.089 87.919 231.262C89.8464 222.121 86.6529 193.662 86.6177 193.373L87.4899 193.275C87.6236 194.449 90.7362 222.164 88.7772 231.442C88.5732 232.416 88.1089 233.337 87.4372 234.114C87.1453 234.449 86.8287 234.804 86.5016 235.166C84.6728 237.195 82.4008 239.717 82.96 241.521C83.2906 242.587 84.6306 243.407 86.9378 243.955L86.7338 244.81V244.817Z" fill="#1B1B43"/>
<path d="M137.78 244.149L137.741 243.269C140.745 243.136 142.581 242.418 143.055 241.194C143.53 239.96 142.665 238.124 140.678 236.154C140.168 235.648 139.816 234.997 139.654 234.273C138.075 227.168 136.391 203.678 136.373 203.442L137.249 203.379C137.266 203.615 138.944 227.038 140.513 234.083C140.636 234.646 140.91 235.145 141.297 235.532C143.576 237.793 144.494 239.918 143.878 241.514C143.263 243.111 141.212 243.997 137.783 244.149H137.78Z" fill="#1B1B43"/>
<path d="M152.151 201.406L151.359 201.019L162.28 178.707L177.966 180.845L177.85 181.718L162.79 179.664L152.151 201.406Z" fill="#1B1B43"/>
<path d="M416.63 146.551C411.429 143.4 410.258 134.389 415.09 131.678C419.926 128.966 423.003 131.386 423.003 131.386C423.003 131.386 439.224 125.47 445.351 140.544C449.965 151.9 446.304 157.837 450.334 163.552C454.927 170.066 462.278 175.936 452.68 187.366L430.259 181.873L424.396 154.25L416.63 146.555V146.551Z" fill="#1B1B43"/>
<path d="M430.306 420.261C430.077 420.338 429.866 420.391 429.673 420.437C425.864 421.316 413.266 420.437 413.266 420.437C412.696 420.314 412.151 420.156 411.63 419.973C399.848 415.682 400.647 395.083 402.416 377.065C404.041 360.542 397.14 276.238 401.906 247.596L431.73 241.072L431.906 246.09L432.268 256.343L432.902 274.48C432.902 274.48 434.027 292.03 435.567 314.022C437.871 346.994 441.107 389.962 442.865 398.754C445.668 412.742 435.075 418.872 430.309 420.261H430.306Z" fill="#5254CF"/>
<path d="M497.781 402C497.12 402.767 496.392 403.442 495.611 404.03C491.602 407.118 486.196 408.25 481.448 409.534C480.611 409.763 479.742 409.928 478.852 410.033C474.431 410.579 469.603 409.566 467.538 405.813C456.952 386.522 445.022 348.228 435.568 314.018C428.657 289.04 423.072 266.222 420.294 254.587C419.073 249.445 418.395 246.491 418.395 246.491L431.907 246.087L454.884 245.394C455.51 248.489 456.22 251.753 457.022 255.136C464.865 288.611 480.312 334.632 486.361 352.234C489.994 362.778 495.488 372.187 497.908 383.227C499.191 389.072 502.181 396.925 497.785 402H497.781Z" fill="#5254CF"/>
<path opacity="0.6" d="M457.021 255.136C447.637 256.676 439.365 256.877 432.271 256.342C427.805 256.008 423.806 255.375 420.296 254.591C408.26 251.936 401.912 247.592 401.912 247.592L431.737 241.068L431.912 246.087L454.889 245.394C455.515 248.489 456.226 251.753 457.028 255.136H457.021Z" fill="#1B1B43"/>
<path d="M435.138 314.141L425.941 281.559L416.48 278.12L416.783 277.293L426.666 280.888L426.729 281.106L435.986 313.902L435.138 314.141Z" fill="#1B1B43"/>
<path d="M491.606 406.006L490.843 405.567C495.281 397.861 486.383 374.117 475.122 344.054C464.187 314.862 450.576 278.535 445.652 246.122L446.521 245.988C451.431 278.31 465.021 314.591 475.945 343.744C487.287 374.022 496.248 397.938 491.602 406.006H491.606Z" fill="#1B1B43"/>
<path d="M408.298 219.906C407.236 227.334 405.643 237.045 405.643 237.045H388.275L392.503 213.808L393.551 208.029C393.551 208.029 408.498 211.546 409.16 211.546C409.413 211.546 408.956 215.292 408.298 219.906Z" fill="#FFBC96"/>
<path d="M408.297 219.906L407.506 221.658L392.506 213.808L393.554 208.029C393.554 208.029 408.501 211.546 409.163 211.546C409.416 211.546 408.959 215.292 408.301 219.906H408.297Z" fill="#D28572"/>
<path d="M404.546 214.62C404.546 214.62 407.402 231.326 401.908 247.592C401.908 247.592 429.165 255.945 454.882 245.394L448.945 207.804L450.922 188.678L411.573 189.118L398.166 193.514L404.539 214.616L404.546 214.62Z" fill="#1B1B43"/>
<path d="M462.039 186.543C460.302 181.581 456.299 177.747 451.266 176.228L443.877 173.995C440.902 178.328 435.594 183.849 427.843 183.849C418.73 183.849 413.015 178.62 409.867 174.346L404.761 175.591C399.281 176.928 395.022 181.24 393.756 186.733L388.055 211.472L404.543 214.623L404.982 195.719L447.848 193.743L448.945 207.811C448.945 207.811 461.329 202.388 469.534 207.959L462.039 186.547V186.543Z" fill="#1B1B43"/>
<path d="M480.819 184.947C478.445 189.589 475.251 209.717 473.785 225.393C473.299 230.545 471.833 234.607 469.8 237.569C466.81 241.947 462.572 243.934 458.457 243.495C456.875 243.337 455.32 242.82 453.85 241.947C446.774 237.755 447.678 219.836 448.469 211.771C448.715 209.344 448.944 207.807 448.944 207.807C453.122 205.504 459.713 205.17 459.713 205.17C459.801 204.262 459.906 203.348 460.012 202.409C460.909 194.309 462.27 185.123 463.448 179.013C464.767 172.197 467.405 174.73 467.405 174.73C468.723 172.303 470.704 174.396 470.704 174.396C472.462 170.544 474.66 174.178 474.66 174.178C477.404 170.221 478.909 176.154 478.909 176.154C478.909 176.154 487.427 169.138 488.88 171.167C489.611 172.197 484.184 178.352 480.819 184.947Z" fill="#FFBC96"/>
<path d="M413.337 232.606H376.408V237.041H413.337V232.606Z" fill="white"/>
<path d="M392.222 237.08H354.132C352.3 237.08 350.636 236.014 349.87 234.351L335.035 202.145C334.542 201.076 335.323 199.852 336.501 199.852H372.227C373.961 199.852 375.54 200.861 376.265 202.437L392.218 237.08H392.222Z" fill="#5254CF"/>
<path d="M404.765 237.041C404.297 238.771 403.674 240.365 402.83 241.782C400.79 245.229 397.519 247.592 392.483 248.225C390.76 248.454 388.832 248.464 386.669 248.253C369.218 246.519 364.171 236.971 364.171 236.971C364.171 236.971 362.226 232.919 366.352 233.851C366.352 233.851 367.125 231.273 370.308 233.964C370.308 233.964 369.932 230.774 373.062 233.693C373.062 233.693 372.622 230.447 376.023 233.253C379.435 236.049 382.073 236.876 386.198 237.041C390.313 237.21 404.768 237.041 404.768 237.041H404.765Z" fill="#FFBC96"/>
<path d="M403.888 195.673L403.01 195.724L404.11 214.628L404.987 214.577L403.888 195.673Z" fill="#5254CF"/>
<path d="M425.943 190.662C423.861 190.662 422.032 190.412 420.492 190.064C415.248 188.882 412.227 186.413 412.104 186.311L412.663 185.633C412.782 185.731 424.663 195.266 441.759 185.01L442.209 185.763C435.942 189.522 430.378 190.662 425.943 190.662Z" fill="#5254CF"/>
<path d="M448.719 199.139L447.842 199.206L448.501 207.853L449.378 207.787L448.719 199.139Z" fill="#5254CF"/>
<path d="M435.245 212.13C432.421 212.13 430.064 210.03 429.748 207.217L429.041 200.949L441.133 200.154L440.774 206.893C440.619 209.784 438.231 212.088 435.333 212.133C435.305 212.133 435.273 212.133 435.245 212.133V212.13ZM430.019 201.765L430.62 207.115C430.891 209.51 432.92 211.279 435.319 211.247C437.756 211.208 439.764 209.274 439.895 206.84L440.201 201.093L430.019 201.762V201.765Z" fill="#5254CF"/>
<path d="M459.228 205.151L456.068 227.242L456.939 227.366L460.098 205.276L459.228 205.151Z" fill="#D28572"/>
<path d="M474.983 174.159L474.332 174.277L474.991 177.903L475.642 177.785L474.983 174.159Z" fill="#D28572"/>
<path d="M471.026 174.266L470.375 174.385L471.034 178.011L471.685 177.893L471.026 174.266Z" fill="#D28572"/>
<path d="M467.731 174.483L467.08 174.601L467.739 178.228L468.39 178.109L467.731 174.483Z" fill="#D28572"/>
<path d="M478.305 173.688L477.686 173.919L479.737 179.415L480.357 179.184L478.305 173.688Z" fill="#D28572"/>
<path d="M459.706 205.163L448.416 211.74C448.662 209.313 448.891 207.772 448.891 207.772C453.066 205.469 459.706 205.159 459.706 205.159V205.163Z" fill="#D28572"/>
<path opacity="0.4" d="M469.803 237.569C466.813 241.947 462.575 243.934 458.46 243.495C458.418 243.206 458.4 242.907 458.4 242.609C458.4 238.845 461.45 235.792 465.216 235.792C466.982 235.792 468.6 236.471 469.806 237.569H469.803Z" fill="#FE5B52"/>
<path opacity="0.4" d="M402.828 241.782C400.789 245.229 397.518 247.592 392.481 248.225C392.464 248.014 392.453 247.803 392.453 247.592C392.453 243.829 395.502 240.776 399.269 240.776C400.57 240.776 401.791 241.146 402.828 241.779V241.782Z" fill="#FE5B52"/>
<path d="M377.406 238.282C375.669 237.941 373.495 235.254 372.764 233.844L373.348 233.542C374.097 234.994 376.147 237.365 377.529 237.635L377.403 238.282H377.406Z" fill="#D28572"/>
<path d="M373.278 238.737C371.805 237.221 370.447 235.332 369.898 234.038L370.507 233.781C371.024 235.008 372.329 236.813 373.753 238.276L373.282 238.737H373.278Z" fill="#D28572"/>
<path d="M369.208 238.627C367.734 237.112 366.377 235.223 365.828 233.929L366.437 233.672C366.954 234.899 368.258 236.704 369.683 238.167L369.212 238.627H369.208Z" fill="#D28572"/>
<path d="M443.883 173.991C440.9 178.324 435.59 183.849 427.845 183.849C418.736 183.849 413.021 178.616 409.873 174.346L419.274 172.049C419.503 170.361 419.696 168.719 419.854 167.161C419.977 165.94 420.083 164.769 420.181 163.661C420.34 161.84 420.445 160.197 420.533 158.79C420.646 156.863 420.698 155.403 420.727 154.594C420.744 154.13 420.744 153.884 420.744 153.884L433.933 148.608C433.933 148.608 433.493 165.754 437.45 172.049L443.886 173.994L443.883 173.991Z" fill="#FFBC96"/>
<path d="M431.213 160.253C431.213 160.253 427.686 164.379 419.85 167.157C419.973 165.937 420.078 164.766 420.177 163.658C420.335 161.836 420.44 160.193 420.528 158.787L431.213 160.253Z" fill="#D28572"/>
<path d="M417.221 137.906C417.221 137.906 410.479 156.223 415.315 159.596C419.616 162.592 425.278 162.965 430.849 161.502L434.514 149.044L432.316 136.883L417.221 137.91V137.906Z" fill="#FFBC96"/>
<path d="M432.608 149.189C432.608 149.189 427.846 151.014 425.866 144.353C424.255 138.93 417.221 137.906 417.221 137.906L420.077 135.268L433.631 134.903L438.615 140.984L436.93 148.897L432.608 149.189Z" fill="#1B1B43"/>
<path d="M438.758 152.998C437.221 155.66 434.27 156.835 432.167 155.621C430.064 154.408 429.607 151.264 431.144 148.601C432.681 145.939 435.632 144.764 437.735 145.978C439.838 147.191 440.295 150.335 438.758 152.998Z" fill="#FFBC96"/>
<path d="M433.394 153.187L432.736 153.18C432.736 153.138 432.824 149.037 436.893 148.57L436.967 149.224C433.482 149.625 433.398 153.04 433.394 153.187Z" fill="#1B1B43"/>
<path d="M416.323 147.543C416.739 147.543 417.076 147.206 417.076 146.79C417.076 146.375 416.739 146.038 416.323 146.038C415.907 146.038 415.57 146.375 415.57 146.79C415.57 147.206 415.907 147.543 416.323 147.543Z" fill="#1B1B43"/>
<path d="M422.2 147.831C422.2 148.334 421.792 148.739 421.292 148.739C420.793 148.739 420.385 148.331 420.385 147.831C420.385 147.332 420.793 146.924 421.292 146.924C421.792 146.924 422.2 147.332 422.2 147.831Z" fill="#1B1B43"/>
<path d="M417.968 145.077H415.724C415.407 145.077 415.15 144.821 415.15 144.504C415.15 144.188 415.407 143.931 415.724 143.931H417.968C418.284 143.931 418.541 144.188 418.541 144.504C418.541 144.821 418.284 145.077 417.968 145.077Z" fill="#1B1B43"/>
<path d="M423.606 146.653L421.123 145.605C420.831 145.482 420.694 145.148 420.817 144.856C420.94 144.564 421.274 144.427 421.566 144.55L424.049 145.598C424.341 145.721 424.478 146.055 424.355 146.347C424.232 146.639 423.898 146.776 423.606 146.653Z" fill="#1B1B43"/>
<path d="M415.976 152.495C415.846 152.495 415.723 152.418 415.67 152.291C415.231 151.222 415.22 150.399 415.635 149.85C416.075 149.27 416.845 149.189 417.235 149.189L418.072 147.564C418.157 147.402 418.357 147.339 418.516 147.423C418.677 147.508 418.741 147.705 418.656 147.867L417.619 149.882L417.394 149.857C417.394 149.857 416.518 149.769 416.159 150.251C415.899 150.599 415.941 151.218 416.279 152.045C416.349 152.214 416.268 152.407 416.099 152.474C416.057 152.491 416.015 152.498 415.973 152.498L415.976 152.495Z" fill="#1B1B43"/>
<path d="M416.133 155.358C417.409 157.158 419.027 156.388 420.128 155.467C418.633 155.562 417.223 155.477 416.133 155.358Z" fill="#1B1B43"/>
<path d="M420.128 155.467C420.764 154.932 421.232 154.352 421.355 154.187C421.369 154.165 421.352 154.144 421.327 154.144C418.049 154.341 415.837 154.102 415.499 154.063C415.478 154.063 415.468 154.085 415.475 154.106C415.679 154.619 415.9 155.027 416.133 155.354C417.223 155.477 418.633 155.558 420.128 155.463V155.467Z" fill="white"/>
<path opacity="0.4" d="M427.872 151.872C427.872 153.142 426.841 154.173 425.572 154.173C424.302 154.173 423.271 153.142 423.271 151.872C423.271 150.603 424.302 149.572 425.572 149.572C426.841 149.572 427.872 150.603 427.872 151.872Z" fill="#FE5B52"/>
</g>
</g>
<defs>
<clipPath id="clip0_10588_4849">
<rect width="560" height="354" fill="white"/>
</clipPath>
<clipPath id="clip1_10588_4849">
<rect width="562.751" height="424" fill="white" transform="translate(0 30)"/>
</clipPath>
</defs>
</svg>
