<svg width="22" height="23" viewBox="0 0 22 23" fill="none" xmlns="http://www.w3.org/2000/svg">
<path fill-rule="evenodd" clip-rule="evenodd" d="M22 11.9912C22 18.0663 17.0751 22.9912 11 22.9912C4.92487 22.9912 0 18.0663 0 11.9912C0 5.91608 4.92487 0.991211 11 0.991211C17.0751 0.991211 22 5.91608 22 11.9912ZM11.3944 9.11197C10.3245 9.55698 8.18615 10.478 4.97943 11.8752C4.45871 12.0822 4.18593 12.2848 4.1611 12.4829C4.11913 12.8177 4.53835 12.9495 5.10921 13.129C5.18686 13.1534 5.26732 13.1787 5.3498 13.2055C5.91144 13.3881 6.66695 13.6017 7.05971 13.6101C7.41598 13.6178 7.81361 13.471 8.25262 13.1695C11.2488 11.147 12.7954 10.1248 12.8925 10.1027C12.961 10.0872 13.0559 10.0676 13.1202 10.1248C13.1846 10.182 13.1782 10.2902 13.1714 10.3193C13.1299 10.4963 11.4843 12.0262 10.6327 12.8179C10.3673 13.0647 10.1789 13.2398 10.1404 13.2798C10.0542 13.3694 9.96631 13.4541 9.88184 13.5355C9.36006 14.0385 8.96878 14.4157 9.90351 15.0317C10.3527 15.3277 10.7121 15.5725 11.0707 15.8167C11.4624 16.0834 11.853 16.3494 12.3583 16.6806C12.4871 16.765 12.6101 16.8527 12.7298 16.9381C13.1856 17.263 13.5951 17.5549 14.1009 17.5084C14.3948 17.4813 14.6985 17.2049 14.8527 16.3806C15.2171 14.4325 15.9334 10.2115 16.0989 8.47218C16.1134 8.31978 16.0952 8.12476 16.0805 8.03914C16.0659 7.95353 16.0352 7.83155 15.924 7.74125C15.7922 7.63431 15.5887 7.61176 15.4977 7.61336C15.084 7.62065 14.4492 7.84136 11.3944 9.11197Z" fill="white"/>
</svg>
