<svg width="55" height="45" viewBox="0 0 55 45" fill="none" xmlns="http://www.w3.org/2000/svg">
<path fill-rule="evenodd" clip-rule="evenodd" d="M26.6173 11.7822L26.735 13.698L24.7748 13.4634C17.6397 12.5642 11.4063 9.51462 6.11381 4.39298L3.52637 1.8517L2.85991 3.72833C1.44857 7.91166 2.35026 12.3296 5.29053 15.3009C6.85868 16.943 6.50585 17.1775 3.80079 16.2001C2.8599 15.8874 2.03663 15.6528 1.95822 15.7701C1.68379 16.0437 2.62468 19.6015 3.36955 21.009C4.38885 22.9638 6.46665 24.8796 8.74046 26.0134L10.6614 26.9126L8.38763 26.9517C6.19222 26.9517 6.11381 26.9908 6.34903 27.8118C7.13311 30.3531 10.2302 33.0507 13.6801 34.2236L16.1108 35.0447L13.9938 36.2957C10.8575 38.0942 7.17231 39.1107 3.48716 39.1889C1.723 39.228 0.272461 39.3844 0.272461 39.5017C0.272461 39.8926 5.05531 42.082 7.83877 42.9422C16.1892 45.4834 26.1077 44.3887 33.5564 40.049C38.8489 36.9604 44.1414 30.8222 46.6112 24.8796C47.9442 21.7127 49.2771 15.9265 49.2771 13.1506C49.2771 11.3522 49.3947 11.1176 51.5901 8.96727C52.8838 7.71618 54.0991 6.3478 54.3344 5.95684C54.7264 5.214 54.6872 5.214 52.6878 5.87864C49.3555 7.05154 48.885 6.89515 50.5316 5.13581C51.7469 3.88472 53.1975 1.61712 53.1975 0.95248C53.1975 0.83519 52.6094 1.03067 51.9429 1.38254C51.2373 1.77351 49.6691 2.35996 48.493 2.71182L46.376 3.37647L44.455 2.08628C43.3965 1.38254 41.9068 0.600611 41.1227 0.366032C39.1233 -0.18132 36.0654 -0.103127 34.2621 0.522418C29.3616 2.28176 26.2645 6.81696 26.6173 11.7822Z" fill="#1B1B1E"/>
</svg>
