<svg xmlns="http://www.w3.org/2000/svg" width="256" height="96" viewBox="0 0 256 96" fill="none">
<path d="M20.018 7.17915C19.4214 9.46785 17.7518 10.9919 15.8197 12.2871C15.6439 12.4155 15.4389 12.6668 15.3671 12.8579C14.998 14.7448 14.6077 16.6657 14.1894 18.5932C14.0913 19.284 13.9932 19.9749 13.8245 20.7404C14.5217 19.4735 15.1058 18.3492 15.7245 17.2458C16.805 15.3663 18.2454 13.7509 20.431 12.8898C22.7072 12.0365 25.089 11.7392 27.4872 11.8737C27.5498 11.888 27.6124 11.9024 27.779 11.9795C27.392 12.9414 27.0889 13.8836 26.6539 14.7696C25.7838 16.5417 24.6232 18.0916 22.8614 19.1146C20.2578 20.5673 17.5219 21.3542 14.5978 21.4883C14.3326 21.4924 14.0049 21.4821 13.8024 21.5006C13.2752 25.7766 13.021 29.9596 13.1772 34.2495C13.5362 33.2942 13.79 32.3926 14.1424 31.4098C14.9122 29.2256 16.1046 27.3199 18.2247 26.0676C19.7773 25.0356 21.5208 24.4235 23.3804 24.0454C24.0025 23.9285 24.582 23.8797 25.3159 23.7366C25.1606 24.5571 25.0892 25.3578 24.9072 26.0684C24.4743 28.0574 23.6936 29.9537 22.1292 31.424C20.3386 33.1797 18.0653 34.4098 15.6225 35.186C14.8247 35.4312 14.0135 35.6214 13.181 35.8457C13.3931 40.1226 13.8357 44.3744 14.642 48.5409C14.7484 48.3708 14.7576 48.1653 14.8361 48.0018C14.8941 47.1461 15.0227 46.2157 15.158 45.3129C15.5971 42.7417 16.744 40.5272 19.0143 38.9203C20.5257 37.8399 22.1531 36.9936 23.9033 36.4089C24.2536 36.2687 24.5892 36.19 24.8836 36.0629C24.9236 36.2277 24.9437 36.3101 24.9145 36.4331C24.9587 36.8583 25.003 37.2835 24.942 37.7624C24.9625 40.4 24.4407 42.8744 22.6956 44.9388C20.816 47.18 18.4684 48.834 15.7567 49.9637C15.5183 50.0776 15.224 50.2047 14.895 50.3109C15.728 54.5874 17.0578 58.7182 18.674 62.811C18.7182 61.2906 18.684 59.9339 18.6564 58.6046C18.7336 56.612 19.3039 54.8231 20.4579 53.2457C22.0272 51.3096 23.9193 49.8496 26.1154 48.6666C26.3045 48.5932 26.4803 48.4649 26.8452 48.2632C27.0698 49.4301 27.2464 50.5211 27.3884 51.5912C27.4723 53.5171 27.3258 55.4679 26.3798 57.1707C24.8004 60.0384 22.5918 62.3857 19.6927 64.082C19.5942 64.1632 19.4397 64.2575 19.3132 64.3452C21.0171 68.0689 22.8834 71.6094 25.0787 75.0436C25.0302 74.3581 24.8006 73.657 24.7029 73.012C24.3496 70.8299 24.1989 68.6294 25.2259 66.5301C26.0321 64.8601 27.2128 63.3927 28.5241 62.0978C29.2777 61.4274 29.982 60.7976 30.8262 60.135C30.9757 60.5065 31.1544 60.755 31.2625 61.0781C32.2942 63.7399 32.9142 66.4111 31.9983 69.2103C31.2272 71.5109 29.9843 73.5736 28.3882 75.3999C27.8158 76.0858 27.1608 76.675 26.5604 77.3675C28.6396 80.5677 31.0478 83.6616 33.6118 86.5448C33.6276 86.3668 33.5875 86.202 33.4915 86.0503C33.1938 85.1909 32.8548 84.2831 32.5717 83.3623C32.0736 81.6788 32.0151 79.9793 32.5708 78.2519C33.1716 76.2235 34.1735 74.5076 35.454 72.8425C35.8999 72.2443 36.3871 71.6945 37.0008 71.0569C38.2024 72.8367 39.1322 74.5932 39.6065 76.5436C39.8804 77.67 39.9865 78.8356 39.8208 79.9779C39.3127 83.117 38.0744 86.0498 36.0792 88.6665C35.8396 88.897 35.8797 89.0618 36.0797 89.2762C38.2874 91.546 40.5245 93.6928 42.9999 95.7257C43.0065 95.7531 42.7899 96.4428 40.142 95.5248C39.4448 94.8462 38.6916 94.1808 37.9877 93.4747C36.6638 92.043 35.1933 90.6166 33.856 89.1299C33.56 88.7638 33.3095 88.7064 32.8327 88.9343C29.9866 90.2407 26.9109 90.8459 23.8013 90.7041C21.5072 90.6324 19.5428 89.7283 17.8139 88.3335C16.9622 87.7492 16.2996 87.0916 15.5464 86.4261C15.4637 86.3293 15.3944 86.2875 15.2984 86.1358C15.341 86.0678 15.4395 85.9866 15.4675 85.98C17.6994 84.7016 20.0462 83.7737 22.6518 83.4239C25.2015 83.0872 27.4602 83.8642 29.5741 85.1397C30.0659 85.4599 30.5443 85.7252 31.1481 86.0192C30.9961 85.8806 30.9134 85.7838 30.8174 85.6321C28.5733 82.8482 26.449 79.949 24.6123 76.8952C24.4136 76.5644 24.2257 76.5213 23.918 76.5935C20.9371 77.4669 17.9369 77.5317 14.9296 76.9593C12.5699 76.4965 10.8051 75.1972 9.24652 73.5301C8.52924 72.7691 7.91049 71.9269 7.15313 71.0011C8.11881 70.7166 9.00056 70.4517 9.83306 70.2274C11.5887 69.7866 13.3205 69.6127 15.147 69.707C17.5385 69.814 19.4657 70.93 21.2627 72.4831C21.6639 72.7956 22.0225 73.176 22.3824 73.4401C20.724 70.0251 19.0803 66.5486 17.4566 63.1546C16.027 63.1124 14.499 63.1513 12.9734 62.9574C10.6884 62.6803 8.51782 62.144 6.59311 60.7951C4.89637 59.654 2.78543 56.8098 2.17125 54.8922C2.2272 54.8791 2.22052 54.8516 2.27646 54.8385C5.25367 54.3144 8.24716 54.2221 11.1096 55.2931C12.9099 55.8871 14.1937 57.1541 15.3297 58.5428C15.6191 58.8814 15.9017 59.1926 16.2124 59.4973C15.0642 55.9917 14.1331 52.4061 13.6283 48.7496C11.6765 48.6267 9.86699 48.238 8.08132 47.5824C5.48277 46.6238 3.21571 45.3262 1.7565 42.8518C1.02418 41.5426 0.487672 40.1875 0.14697 38.7865C0.106887 38.6217 0.0734848 38.4843 0 38.1821C1.45625 38.3342 2.74592 38.4093 4.06231 38.5942C5.82376 38.907 7.52676 39.4658 9.09951 40.4617C10.4151 41.3727 11.3152 42.6425 12.0822 43.9726C12.4596 44.5519 12.7665 45.2059 13.1226 45.8193C13.1318 45.6139 13.161 45.4909 13.1276 45.3535C12.6496 41.8069 12.4086 38.2627 12.3768 34.7276C12.3326 34.3024 12.2858 34.1101 11.9034 33.9966C8.7654 33.2516 6.10923 31.8129 3.7883 29.6858C2.2072 28.1692 1.48906 26.1888 1.11328 24.1572C0.975495 23.3474 0.879043 22.5861 0.770479 21.6533C1.87645 21.9456 2.96905 22.183 4.03369 22.4269C6.09783 23.1334 8.06888 24.0649 9.5715 25.7451C10.7714 27.0317 11.3401 28.6406 11.8248 30.2691C12.0077 30.778 12.1279 31.2724 12.3175 31.8087C12.3826 31.5902 12.4052 31.4397 12.4064 31.3233C12.5091 27.6114 12.8276 23.9361 13.4738 20.271C13.5055 19.9151 13.4655 19.7502 13.1043 19.6026C10.4031 18.4649 8.16229 16.6674 6.29561 14.4628C4.84351 12.6256 4.39842 10.5521 4.38085 8.29132C4.30569 7.49589 4.40504 6.68857 4.42048 5.90094L4.46306 5.83288C6.13809 6.39826 7.81062 7.19654 9.32742 8.20556C11.5707 9.77013 13.0762 11.8271 13.3819 14.5431C13.5798 15.6001 13.7005 16.7042 13.8838 17.8228C13.9343 17.6657 13.9209 17.6108 13.9568 17.5152C14.3726 15.8207 14.8164 14.1195 15.2389 12.4524C15.2481 12.247 15.188 11.9997 15.1546 11.8624C14.8072 10.4339 14.5291 9.04724 14.6347 7.65771C14.6752 6.48671 14.8476 5.37188 15.4718 4.41244C16.1477 3.17952 17.0783 2.26436 18.1341 1.3779C18.7186 0.863323 19.2393 0.450844 19.7812 0.00433214C19.8371 -0.00878904 19.9903 0.0133485 20.0463 0.000227326C20.1106 0.507823 20.0976 1.06257 20.2246 1.58451C20.5603 3.4513 20.5123 5.32096 20.018 7.17915Z" fill="#E6E6E6"/>
<path d="M236.448 7.17915C237.03 9.46785 238.661 10.9919 240.548 12.2871C240.72 12.4155 240.92 12.6668 240.99 12.8579C241.351 14.7448 241.732 16.6657 242.141 18.5932C242.236 19.284 242.332 19.9749 242.497 20.7404C241.816 19.4735 241.245 18.3492 240.641 17.2458C239.586 15.3663 238.179 13.7509 236.044 12.8898C233.821 12.0365 231.494 11.7392 229.152 11.8737C229.091 11.888 229.03 11.9024 228.867 11.9795C229.245 12.9414 229.541 13.8836 229.966 14.7696C230.816 16.5417 231.949 18.0916 233.67 19.1146C236.213 20.5673 238.886 21.3542 241.742 21.4883C242.001 21.4924 242.321 21.4821 242.519 21.5006C243.034 25.7766 243.282 29.9596 243.129 34.2495C242.779 33.2942 242.531 32.3926 242.186 31.4098C241.435 29.2256 240.27 27.3199 238.199 26.0676C236.683 25.0356 234.98 24.4235 233.163 24.0454C232.556 23.9285 231.99 23.8797 231.273 23.7366C231.425 24.5571 231.494 25.3578 231.672 26.0684C232.095 28.0574 232.857 29.9537 234.385 31.424C236.134 33.1797 238.355 34.4098 240.741 35.186C241.52 35.4312 242.312 35.6214 243.126 35.8457C242.918 40.1226 242.486 44.3744 241.699 48.5409C241.595 48.3708 241.586 48.1653 241.509 48.0018C241.452 47.1461 241.327 46.2157 241.195 45.3129C240.766 42.7417 239.645 40.5272 237.428 38.9203C235.952 37.8399 234.362 36.9936 232.653 36.4089C232.31 36.2687 231.983 36.19 231.695 36.0629C231.656 36.2277 231.636 36.3101 231.665 36.4331C231.622 36.8583 231.578 37.2835 231.638 37.7624C231.618 40.4 232.128 42.8744 233.832 44.9388C235.668 47.18 237.961 48.834 240.61 49.9637C240.843 50.0776 241.13 50.2047 241.451 50.3109C240.638 54.5874 239.339 58.7182 237.76 62.811C237.717 61.2906 237.751 59.9339 237.777 58.6046C237.702 56.612 237.145 54.8231 236.018 53.2457C234.485 51.3096 232.637 49.8496 230.492 48.6666C230.307 48.5932 230.136 48.4649 229.779 48.2632C229.56 49.4301 229.387 50.5211 229.249 51.5912C229.167 53.5171 229.31 55.4679 230.234 57.1707C231.776 60.0384 233.934 62.3857 236.765 64.082C236.861 64.1632 237.012 64.2575 237.136 64.3452C235.472 68.0689 233.649 71.6094 231.505 75.0436C231.552 74.3581 231.776 73.657 231.872 73.012C232.217 70.8299 232.364 68.6294 231.361 66.5301C230.573 64.8601 229.42 63.3927 228.139 62.0978C227.403 61.4274 226.715 60.7976 225.891 60.135C225.745 60.5065 225.57 60.755 225.465 61.0781C224.457 63.7399 223.851 66.4111 224.746 69.2103C225.499 71.5109 226.713 73.5736 228.272 75.3999C228.831 76.0858 229.471 76.675 230.057 77.3675C228.026 80.5677 225.674 83.6616 223.17 86.5448C223.154 86.3668 223.194 86.202 223.287 86.0503C223.578 85.1909 223.909 84.2831 224.186 83.3623C224.672 81.6788 224.729 79.9793 224.187 78.2519C223.6 76.2235 222.621 74.5076 221.371 72.8425C220.935 72.2443 220.459 71.6945 219.86 71.0569C218.686 72.8367 217.778 74.5932 217.315 76.5436C217.047 77.67 216.943 78.8356 217.105 79.9779C217.602 83.117 218.811 86.0498 220.76 88.6665C220.994 88.897 220.955 89.0618 220.759 89.2762C218.603 91.546 216.418 93.6928 214 95.7257C213.994 95.7531 214.205 96.4428 216.791 95.5248C217.473 94.8462 218.208 94.1808 218.896 93.4747C220.189 92.043 221.625 90.6166 222.931 89.1299C223.22 88.7638 223.465 88.7064 223.931 88.9343C226.711 90.2407 229.715 90.8459 232.752 90.7041C234.993 90.6324 236.912 89.7283 238.6 88.3335C239.432 87.7492 240.079 87.0916 240.815 86.4261C240.896 86.3293 240.964 86.2875 241.057 86.1358C241.016 86.0678 240.92 85.9866 240.892 85.98C238.712 84.7016 236.42 83.7737 233.875 83.4239C231.385 83.0872 229.178 83.8642 227.114 85.1397C226.633 85.4599 226.166 85.7252 225.576 86.0192C225.725 85.8806 225.805 85.7838 225.899 85.6321C228.091 82.8482 230.166 79.949 231.96 76.8952C232.154 76.5644 232.338 76.5213 232.638 76.5935C235.55 77.4669 238.48 77.5317 241.418 76.9593C243.722 76.4965 245.446 75.1972 246.969 73.5301C247.669 72.7691 248.273 71.9269 249.013 71.0011C248.07 70.7166 247.209 70.4517 246.396 70.2274C244.681 69.7866 242.989 69.6127 241.205 69.707C238.869 69.814 236.987 70.93 235.232 72.4831C234.84 72.7956 234.49 73.176 234.138 73.4401C235.758 70.0251 237.363 66.5486 238.949 63.1546C240.346 63.1124 241.838 63.1513 243.328 62.9574C245.56 62.6803 247.68 62.144 249.56 60.7951C251.217 59.654 253.279 56.8098 253.879 54.8922C253.825 54.8791 253.831 54.8516 253.776 54.8385C250.869 54.3144 247.945 54.2221 245.149 55.2931C243.39 55.8871 242.136 57.1541 241.027 58.5428C240.744 58.8814 240.468 59.1926 240.165 59.4973C241.286 55.9917 242.196 52.4061 242.689 48.7496C244.595 48.6267 246.362 48.238 248.107 47.5824C250.645 46.6238 252.859 45.3262 254.284 42.8518C255 41.5426 255.524 40.1875 255.856 38.7865C255.896 38.6217 255.928 38.4843 256 38.1821C254.578 38.3342 253.318 38.4093 252.032 38.5942C250.312 38.907 248.648 39.4658 247.112 40.4617C245.827 41.3727 244.948 42.6425 244.199 43.9726C243.83 44.5519 243.53 45.2059 243.183 45.8193C243.174 45.6139 243.145 45.4909 243.178 45.3535C243.645 41.8069 243.88 38.2627 243.911 34.7276C243.954 34.3024 244 34.1101 244.373 33.9966C247.438 33.2516 250.033 31.8129 252.3 29.6858C253.844 28.1692 254.546 26.1888 254.913 24.1572C255.047 23.3474 255.141 22.5861 255.247 21.6533C254.167 21.9456 253.1 22.183 252.06 22.4269C250.044 23.1334 248.119 24.0649 246.651 25.7451C245.479 27.0317 244.924 28.6406 244.45 30.2691C244.272 30.778 244.154 31.2724 243.969 31.8087C243.905 31.5902 243.883 31.4397 243.882 31.3233C243.782 27.6114 243.471 23.9361 242.84 20.271C242.809 19.9151 242.848 19.7502 243.2 19.6026C245.839 18.4649 248.028 16.6674 249.851 14.4628C251.269 12.6256 251.704 10.5521 251.721 8.29132C251.794 7.49589 251.697 6.68857 251.682 5.90094L251.641 5.83288C250.005 6.39826 248.371 7.19653 246.889 8.20555C244.698 9.77013 243.228 11.8271 242.929 14.5431C242.736 15.6001 242.618 16.7042 242.439 17.8228C242.39 17.6657 242.403 17.6108 242.368 17.5152C241.962 15.8207 241.528 14.1195 241.115 12.4524C241.107 12.247 241.165 11.9997 241.198 11.8624C241.537 10.4339 241.809 9.04724 241.706 7.65771C241.666 6.48671 241.498 5.37188 240.888 4.41244C240.228 3.17952 239.319 2.26436 238.288 1.3779C237.717 0.863323 237.208 0.450844 236.679 0.00433215C236.624 -0.00878903 236.475 0.0133485 236.42 0.000227281C236.357 0.507823 236.37 1.06257 236.246 1.58451C235.918 3.4513 235.965 5.32096 236.448 7.17915Z" fill="#E6E6E6"/>
</svg>
